<?xml version="1.0" encoding="UTF-8" standalone="no"?>
<!-- Created with Inkscape (http://www.inkscape.org/) -->

<svg
   xmlns:dc="http://purl.org/dc/elements/1.1/"
   xmlns:cc="http://creativecommons.org/ns#"
   xmlns:rdf="http://www.w3.org/1999/02/22-rdf-syntax-ns#"
   xmlns:svg="http://www.w3.org/2000/svg"
   xmlns="http://www.w3.org/2000/svg"
   xmlns:sodipodi="http://sodipodi.sourceforge.net/DTD/sodipodi-0.dtd"
   xmlns:inkscape="http://www.inkscape.org/namespaces/inkscape"
   width="744.09448819"
   height="1052.3622047"
   id="svg7059"
   version="1.1"
   inkscape:version="0.48.4 r9939"
   sodipodi:docname="dd.svg">
  <defs
     id="defs7061" />
  <sodipodi:namedview
     id="base"
     pagecolor="#ffffff"
     bordercolor="#666666"
     borderopacity="1.0"
     inkscape:pageopacity="0.0"
     inkscape:pageshadow="2"
     inkscape:zoom="1.979899"
     inkscape:cx="616.1724"
     inkscape:cy="520"
     inkscape:document-units="px"
     inkscape:current-layer="g7096"
     showgrid="false"
     inkscape:window-width="1535"
     inkscape:window-height="876"
     inkscape:window-x="65"
     inkscape:window-y="24"
     inkscape:window-maximized="1" />
  <metadata
     id="metadata7064">
    <rdf:RDF>
      <cc:Work
         rdf:about="">
        <dc:format>image/svg+xml</dc:format>
        <dc:type
           rdf:resource="http://purl.org/dc/dcmitype/StillImage" />
        <dc:title></dc:title>
      </cc:Work>
    </rdf:RDF>
  </metadata>
  <g
     inkscape:label="Layer 1"
     inkscape:groupmode="layer"
     id="layer1">
    <g
       id="g7096"
       transform="matrix(0.9999518,0.0098181,-0.0098181,0.9999518,116.54532,-162.47433)"
       style="fill:#075f89;fill-opacity:1">
      <path
         style="fill:#075f89;fill-opacity:1"
         d="m 370.25393,687.03662 -0.62991,-79.57293 c 163.39897,-1.33117 211.89843,-2.77633 211.89843,-2.77633 l 1.15479,81.58818 0.97628,63.40632 c -40.16133,0.62626 -184.37826,0.75887 -212.41835,1.26612 z m 102.47128,36.64908 c 1.0338,-0.51258 1.12455,-0.99977 0.35843,-1.92439 -1.23639,-1.49222 -38.91244,-5.79051 -45.58924,-5.20106 -5.77674,0.50998 -5.99849,2.08185 -0.48326,3.42551 6.06765,1.47823 44.00255,4.54856 45.71407,3.69994 z m -7.98211,-11.96877 c 7.58472,-0.16704 13.84272,-0.37259 13.90666,-0.45677 0.0639,-0.0842 -0.15595,-19.61299 -0.48864,-43.39736 l -0.60489,-43.24431 -6.46932,-0.32652 c -11.92517,-0.60189 -11.2498,-1.17042 -11.44912,9.63806 l -0.17277,9.36855 -6.37125,0.0896 c -19.54255,0.27475 -30.64521,6.97181 -35.01979,21.12374 l -1.732,5.60308 -0.948,-4.85942 c -0.57453,-2.94497 -1.52452,-4.91334 -2.41136,-4.9963 -1.69993,-0.15902 -2.09824,2.54747 -1.23935,8.42117 0.32758,2.24025 0.45693,8.12789 0.28744,13.08365 -0.1695,4.95575 -0.21017,10.51754 -0.0904,12.35951 0.35259,5.42236 2.55442,3.42718 3.7465,-3.39489 l 1.08074,-6.18489 1.27744,5.10458 c 1.39392,5.57001 6.58647,12.77697 11.51229,15.97838 4.07639,2.64934 11.7565,5.29947 17.12418,5.90891 2.34917,0.26676 10.4769,0.3483 18.06163,0.18126 z m -24.22328,-24.68618 c -4.82608,-3.59962 -5.84778,-12.20711 -2.06836,-17.42529 2.35545,-3.25213 7.17548,-4.80823 15.42605,-4.98014 l 6.13206,-0.12777 0.13238,12.07817 c 0.0728,6.64298 -0.2077,12.52845 -0.62336,13.07881 -0.42972,0.569 -4.05885,0.69005 -8.41293,0.28062 -5.76876,-0.54264 -8.37947,-1.25875 -10.58584,-2.9044 z m 59.37654,24.0511 c 14.10378,-0.29082 19.44097,-1.33423 26.43444,-5.16788 7.40906,-4.06146 13.65491,-12.59344 14.30477,-19.54066 0.16538,-1.76795 1.00747,-2.87829 2.57777,-3.39896 1.72606,-0.57231 2.50601,-1.75408 3.00109,-4.54717 0.74247,-4.18885 -0.46225,-6.75261 -3.29769,-7.01785 -1.15154,-0.10772 -1.80358,-0.87847 -1.698,-2.00715 0.31735,-3.39257 -4.77065,-14.61342 -8.1505,-17.97471 -7.10369,-7.0647 -15.17282,-8.97823 -36.56221,-8.67045 l -16.59437,0.23879 -0.17282,3.45991 c -0.0951,1.90296 -3.9e-4,17.3343 0.21037,34.29188 l 0.38318,30.83196 3.12067,-0.11149 c 1.71637,-0.0613 9.11585,-0.23512 16.4433,-0.38622 z m -1.6995,-22.49386 c 0.0643,-0.97121 -0.0114,-6.74945 -0.16837,-12.84054 -0.15694,-6.09109 -0.15246,-11.20682 0.01,-11.36828 0.16241,-0.16145 3.7019,-0.23296 7.86554,-0.1589 8.78519,0.15626 12.93426,1.85986 14.57653,5.98504 4.25471,10.68739 -1.45567,19.07409 -13.26651,19.48418 -2.51195,0.0872 -5.59475,0.27238 -6.85067,0.41146 -1.67447,0.18543 -2.25231,-0.21772 -2.16648,-1.51296 z"
         id="path7098"
         inkscape:connector-curvature="0"
         sodipodi:nodetypes="cccccccsssssccscsscsscsssssscsscccssscsccssssssssssccsccscscsssscc" />
    </g>
  </g>
</svg>
