<?xml version="1.0" encoding="utf-8"?>
<!-- Generator: Adobe Illustrator 16.0.0, SVG Export Plug-In . SVG Version: 6.00 Build 0)  -->
<!DOCTYPE svg PUBLIC "-//W3C//DTD SVG 1.1//EN" "http://www.w3.org/Graphics/SVG/1.1/DTD/svg11.dtd">
<svg version="1.1" id="Layer_1" xmlns="http://www.w3.org/2000/svg" xmlns:xlink="http://www.w3.org/1999/xlink" x="0px" y="0px"
	 width="500px" height="500px" viewBox="0 0 500 500" enable-background="new 0 0 500 500" xml:space="preserve">
<g>
	<path fill="#231F1F" d="M113.1,289.376c-19.575,0-35.501,15.926-35.501,35.5s15.926,35.498,35.501,35.498
		c19.574,0,35.499-15.924,35.499-35.498S132.674,289.376,113.1,289.376z M113.099,342.857c-9.915,0-17.981-8.067-17.981-17.981
		s8.066-17.981,17.981-17.981s17.981,8.067,17.981,17.981S123.014,342.857,113.099,342.857z"/>
	<circle fill="#231F1F" cx="113.099" cy="324.876" r="15.921"/>
</g>
<g>
	<path fill="#231F1F" d="M312,289.376c-19.575,0-35.501,15.926-35.501,35.5s15.926,35.498,35.501,35.498
		c19.574,0,35.499-15.924,35.499-35.498S331.574,289.376,312,289.376z M311.999,342.857c-9.915,0-17.981-8.067-17.981-17.981
		s8.066-17.981,17.981-17.981s17.981,8.067,17.981,17.981S321.914,342.857,311.999,342.857z"/>
	<circle fill="#231F1F" cx="311.999" cy="324.876" r="15.921"/>
</g>
<g>
	<path fill="#231F1F" d="M395.594,289.376c-19.575,0-35.501,15.926-35.501,35.5s15.926,35.498,35.501,35.498
		c19.574,0,35.499-15.924,35.499-35.498S415.168,289.376,395.594,289.376z M395.593,342.857c-9.915,0-17.981-8.067-17.981-17.981
		s8.066-17.981,17.981-17.981s17.981,8.067,17.981,17.981S405.508,342.857,395.593,342.857z"/>
	<circle fill="#231F1F" cx="395.593" cy="324.876" r="15.921"/>
</g>
<polygon fill="#231F20" points="167.815,140.322 162.521,140.322 126.952,140.322 126.952,153.288 149.202,166.254 162.521,166.254 
	162.521,279.795 459.532,279.795 459.532,140.322 "/>
<rect x="171.673" y="147.488" fill="#414042" width="14.074" height="125.058"/>
<rect x="204.726" y="147.488" fill="#414042" width="14.074" height="125.058"/>
<rect x="237.776" y="147.488" fill="#414042" width="14.074" height="125.058"/>
<rect x="270.829" y="147.488" fill="#414042" width="14.074" height="125.058"/>
<rect x="303.88" y="147.488" fill="#414042" width="14.076" height="125.058"/>
<rect x="336.933" y="147.488" fill="#414042" width="14.074" height="125.058"/>
<rect x="369.983" y="147.488" fill="#414042" width="14.076" height="125.058"/>
<rect x="403.036" y="147.488" fill="#414042" width="14.074" height="125.058"/>
<rect x="436.089" y="147.488" fill="#414042" width="14.074" height="125.058"/>
<path fill="#231F1F" d="M277.657,309.538h-38.07v19.004h35.014c-0.121-1.223-0.182-2.445-0.182-3.668
	c0-5.498,1.221-10.633,3.299-15.336H277.657z"/>
<g>
	<path fill="#231F1F" d="M183.185,290.532c-2.078,0-3.729,1.711-3.729,3.729v24.869c0,2.078,1.711,3.729,3.729,3.729h50.23
		c2.078,0,3.727-1.711,3.727-3.729v-24.869c0-2.078-1.711-3.729-3.727-3.729H183.185z"/>
</g>
<polygon fill="#231F1F" points="237.204,288.517 237.204,282.833 179.456,282.833 179.456,288.517 "/>
<polygon fill="#231F1F" points="179.456,324.874 179.456,330.862 237.204,330.862 237.204,324.874 "/>
<path fill="#231F1F" d="M54.886,231.337c-0.305,1.162-1.529,1.834-2.689,1.529l-4.889-1.346c-1.16-0.305-1.832-1.527-1.527-2.688
	l4.094-14.543c0.305-1.162,1.529-1.834,2.689-1.529l4.887,1.344c1.162,0.307,1.834,1.529,1.529,2.689L54.886,231.337z"/>
<path fill="#231F20" d="M144.905,194.778h-25.498c-2.371,0-4.297,1.928-4.297,4.299v68.338c0,2.369,1.926,4.297,4.297,4.297h25.498
	c2.371,0,4.297-1.928,4.297-4.297v-68.338C149.202,196.706,147.276,194.778,144.905,194.778z"/>
<g>
	<path fill="#231F20" d="M40.468,316.886v8.551c0,2.836,2.32,5.156,5.158,5.156s6.322-2.008,7.742-4.461l1.137-1.961
		c1.42-2.457,4.902-4.465,7.74-4.465h11.846c0.127-0.953,0.295-1.891,0.488-2.82H40.468z"/>
	<path fill="#231F20" d="M149.919,180.452H71.987c-2.838,0-6.02,2.154-7.074,4.789l-22.527,56.324
		c-1.057,2.633-1.918,7.109-1.918,9.947v62.404h34.852c4.719-16.135,19.631-27.959,37.27-27.959c19.643,0,35.918,14.66,38.48,33.613
		c2.287-0.527,4.006-2.58,4.006-5.021V185.61C155.075,182.772,152.755,180.452,149.919,180.452z M106.513,240.745
		c0,2.838-2.318,5.158-5.156,5.158H51.03c-2.838,0-4.383-2.188-3.436-4.861l12.697-31.537c0.945-2.674,4.041-4.861,6.879-4.861
		h34.186c2.838,0,5.156,2.32,5.156,5.158V240.745z M150.923,267.415c0,3.316-2.699,6.016-6.018,6.016h-25.498
		c-3.316,0-6.016-2.699-6.016-6.016v-68.338c0-3.318,2.699-6.018,6.016-6.018h25.498c3.318,0,6.018,2.699,6.018,6.018V267.415z"/>
</g>
<rect x="158.802" y="284.544" fill="#231F1F" width="18.027" height="22.303"/>
<rect x="158.802" y="309.538" fill="#231F1F" width="18.027" height="19.004"/>
<path fill="#231F20" d="M387.159,284.481H350.13H239.526v0.063v22.303h39.414c6.416-11.73,18.82-19.676,33.119-19.676
	c20.84,0,37.705,16.865,37.705,37.703c0,1.223-0.061,2.445-0.184,3.668h0.549h0.063h7.594c-0.117-1.207-0.182-2.43-0.182-3.668
	c0-20.828,16.945-37.775,37.775-37.775s37.775,16.947,37.775,37.775c0,1.238-0.063,2.461-0.18,3.668h2.092l24.313-22.029
	l0.152-22.031H387.159z"/>
</svg>
