<?xml version="1.0" encoding="utf-8"?>
<!-- Generated by IcoMoon.io -->
<!DOCTYPE svg PUBLIC "-//W3C//DTD SVG 1.1//EN" "http://www.w3.org/Graphics/SVG/1.1/DTD/svg11.dtd">
<svg version="1.1" xmlns="http://www.w3.org/2000/svg" xmlns:xlink="http://www.w3.org/1999/xlink" width="23" height="32" viewBox="0 0 23 32">
<path fill="#e6e6e6" d="M0.312 26.241c-0.031-0.013-0.056-0.048-0.056-0.078 0-0.057 0.319-0.856 0.4-1.003 0.026-0.046 0.161-0.358 0.301-0.693s0.27-0.64 0.29-0.679c0.020-0.039 0.183-0.414 0.361-0.834 0.687-1.612 1.047-2.442 1.18-2.714l0.137-0.283 1.582 0.025 0.333 0.766c0.183 0.422 0.364 0.837 0.403 0.924s0.102 0.239 0.141 0.338c0.039 0.099 0.086 0.201 0.105 0.225s0.084 0.167 0.146 0.316c0.174 0.42 0.881 2.048 0.999 2.299 0.058 0.124 0.161 0.357 0.229 0.518s0.163 0.378 0.211 0.482c0.048 0.104 0.081 0.236 0.073 0.293-0.015 0.104-0.019 0.105-0.76 0.117-0.551 0.009-0.764-0.003-0.818-0.045-0.040-0.032-0.251-0.469-0.468-0.972s-0.413-0.908-0.436-0.9c-0.023 0.008-0.113 0.176-0.2 0.373s-0.179 0.385-0.205 0.416c-0.034 0.042-0.285 0.056-0.965 0.056-0.826 0-0.923 0.008-0.967 0.079-0.027 0.043-0.136 0.282-0.241 0.53l-0.192 0.451-0.762 0.008c-0.419 0.005-0.787-0.002-0.818-0.015zM4.493 23.862c0-0.010-0.073-0.188-0.161-0.394s-0.252-0.588-0.362-0.848c-0.111-0.26-0.217-0.489-0.236-0.508-0.035-0.035-0.775 1.605-0.774 1.713 0.001 0.043 0.185 0.056 0.767 0.056 0.421 0 0.766-0.009 0.766-0.019zM7.928 26.216c-0.041-0.041-0.054-0.791-0.054-3.101s0.013-3.060 0.054-3.101c0.038-0.038 0.307-0.054 0.92-0.054h0.866l0.173 0.208c0.387 0.465 0.499 0.606 0.736 0.918 0.394 0.519 0.584 0.745 0.628 0.745 0.022 0 0.297-0.325 0.61-0.721s0.652-0.818 0.752-0.936l0.183-0.215 1.771 0.024 0.023 6.241-0.102 0.025c-0.056 0.014-0.416 0.019-0.8 0.012l-0.699-0.013-0.045-3.77-0.119 0.127c-0.065 0.070-0.171 0.211-0.235 0.315s-0.138 0.201-0.164 0.217c-0.026 0.016-0.179 0.195-0.339 0.398-0.738 0.936-0.761 0.958-0.901 0.904-0.077-0.029-0.525-0.568-1.111-1.334-0.189-0.247-0.387-0.493-0.44-0.545l-0.096-0.096v1.876c0 1.669-0.008 1.879-0.071 1.903-0.14 0.054-1.485 0.030-1.543-0.027zM15.723 26.209c-0.037-0.045-0.048-0.904-0.039-3.144l0.012-3.083h1.623l0.045 3.763 0.645-0.822c0.863-1.101 0.916-1.16 1.023-1.16 0.063 0 0.195 0.132 0.416 0.417 0.178 0.229 0.38 0.482 0.45 0.561s0.227 0.277 0.351 0.439c0.124 0.163 0.237 0.296 0.252 0.296s0.050 0.051 0.078 0.113c0.028 0.062 0.072 0.113 0.097 0.113 0.030 0 0.050-0.645 0.057-1.859l0.012-1.859h1.623l0.012 3.083c0.008 2.24-0.002 3.1-0.039 3.144-0.040 0.048-0.24 0.061-0.909 0.061h-0.858l-0.241-0.259c-0.132-0.143-0.241-0.273-0.241-0.291s-0.163-0.235-0.36-0.483c-0.698-0.876-0.714-0.893-0.755-0.831-0.019 0.029-0.359 0.46-0.756 0.958l-0.721 0.906h-0.862c-0.672 0-0.873-0.014-0.913-0.061zM10.376 18.58c-1.323-0.083-2.899-0.323-3.69-0.563-0.764-0.231-1.157-0.358-1.509-0.489-0.504-0.186-1.384-0.617-1.855-0.907-0.211-0.13-0.424-0.259-0.473-0.286s-0.139-0.090-0.198-0.14c-1.005-0.835-1.577-1.464-1.887-2.073-0.050-0.099-0.135-0.263-0.187-0.363s-0.147-0.385-0.21-0.631c-0.187-0.733-0.157-1.603 0.080-2.296 0.669-1.956 2.937-3.666 6.005-4.528 1.036-0.291 2.179-0.502 2.741-0.507 0.212-0.002 0.295-0.018 0.275-0.053s-0.013-0.037 0.023-0.004c0.035 0.032 0.18 0.034 0.446 0.008 0.346-0.035 2.344-0.015 3.437 0.034 0.459 0.021 1.53 0.202 2.276 0.385 2.060 0.505 3.833 1.389 5.030 2.508 0.462 0.431 0.807 0.791 0.807 0.839 0 0.013 0.073 0.132 0.163 0.265 0.964 1.43 0.975 3.203 0.028 4.636-0.452 0.684-1.018 1.289-1.543 1.65-0.777 0.534-1.036 0.689-1.69 1.013-1.484 0.733-3.217 1.207-5.184 1.418-0.623 0.067-2.36 0.118-2.885 0.085zM13.261 17.773c2.512-0.302 4.639-1.029 6.153-2.104l0.338-0.24-5.43-0.023-0.283-0.302c-0.156-0.166-0.549-0.577-0.874-0.912s-0.903-0.934-1.285-1.33c-0.382-0.396-0.927-0.959-1.212-1.251l-0.518-0.531h-3.095l0.088 0.112c0.048 0.062 0.934 0.985 1.967 2.053 1.481 1.53 1.876 1.962 1.865 2.041l-0.014 0.1-8.111 0.045 0.517 0.344c1.752 1.168 4.152 1.893 6.895 2.085 0.522 0.036 2.438-0.018 2.998-0.085zM3.013 14.727c0.207-0.225 0.695-0.736 1.086-1.136s0.721-0.764 0.736-0.809c0.014-0.045 0.053-0.081 0.087-0.081s0.281-0.235 0.549-0.523c0.268-0.287 0.681-0.72 0.916-0.962 2.614-2.684 4.126-4.253 4.142-4.297 0.010-0.027 0.131-0.158 0.27-0.292l0.253-0.243-0.699 0.023c-0.955 0.032-2.557 0.261-3.223 0.462-0.124 0.037-0.378 0.108-0.563 0.158-1.010 0.269-2.469 0.927-3.201 1.445-0.151 0.107-0.36 0.254-0.464 0.327-0.296 0.207-1.033 0.965-1.245 1.281-0.472 0.702-0.692 1.35-0.691 2.036 0 0.236 0.024 0.527 0.053 0.647 0.14 0.588 0.46 1.213 0.884 1.726 0.275 0.333 0.601 0.647 0.672 0.647 0.035 0 0.233-0.184 0.44-0.408zM20.41 14.825c0.391-0.42 0.543-0.608 0.65-0.807 0.050-0.092 0.126-0.22 0.17-0.285 0.265-0.39 0.46-1.195 0.428-1.771-0.035-0.652-0.389-1.539-0.813-2.043-0.105-0.124-0.251-0.301-0.325-0.394-0.165-0.205-0.82-0.763-1.194-1.017-0.433-0.294-0.983-0.586-1.826-0.968-1.322-0.6-3.497-1.070-5.252-1.135l-0.699-0.026 0.586 0.6c0.322 0.33 0.789 0.807 1.037 1.059s0.785 0.812 1.194 1.242c0.706 0.743 1.095 1.148 2.618 2.719 0.361 0.373 0.949 0.982 1.307 1.354 1.244 1.292 1.733 1.78 1.782 1.781 0.027 0 0.179-0.139 0.338-0.31z"></path>
<path fill="#d0d0d0" d="M0.32 26.165c-0.013-0.033 0.142-0.444 0.344-0.913s0.647-1.502 0.988-2.295c0.342-0.793 0.756-1.756 0.922-2.139s0.322-0.723 0.349-0.755c0.068-0.082 1.495-0.083 1.556-0.002 0.023 0.031 0.095 0.178 0.158 0.327s0.645 1.483 1.293 2.965c0.647 1.482 1.177 2.735 1.177 2.785 0 0.087-0.027 0.089-0.772 0.078l-0.772-0.012-0.245-0.563c-0.135-0.31-0.327-0.752-0.428-0.982s-0.204-0.412-0.229-0.404c-0.025 0.008-0.131 0.207-0.234 0.441l-0.188 0.426-0.966 0.025c-0.531 0.014-0.968 0.029-0.97 0.034s-0.092 0.217-0.199 0.471c-0.107 0.254-0.214 0.487-0.238 0.518-0.065 0.084-1.513 0.080-1.546-0.004zM4.513 23.885c0.014-0.023-0.136-0.418-0.333-0.878-0.398-0.928-0.45-1.037-0.483-1.005-0.058 0.058-0.819 1.855-0.799 1.887 0.031 0.050 1.584 0.046 1.615-0.005zM7.94 26.17c-0.012-0.032-0.017-1.427-0.010-3.1l0.012-3.043 1.773-0.024 0.752 0.948c0.414 0.521 0.767 0.948 0.785 0.948s0.372-0.426 0.786-0.948l0.753-0.948 1.732 0.024v6.176l-1.51 0.025v-1.892c0-1.040-0.016-1.902-0.035-1.914s-0.359 0.387-0.755 0.886c-0.813 1.025-0.892 1.114-0.985 1.114-0.037 0-0.418-0.442-0.847-0.983s-0.801-0.992-0.826-1.003c-0.029-0.013-0.053 0.636-0.068 1.873l-0.023 1.893-0.756 0.012c-0.58 0.009-0.761-0.001-0.778-0.045zM15.739 26.17c-0.012-0.032-0.017-1.427-0.010-3.1l0.012-3.043h1.533l0.012 1.882c0.006 1.035 0.029 1.882 0.049 1.882s0.39-0.446 0.822-0.991c0.431-0.545 0.807-1 0.834-1.010s0.069-0.006 0.093 0.011c0.024 0.016 0.395 0.472 0.825 1.013 0.433 0.545 0.799 0.966 0.82 0.945s0.044-0.869 0.050-1.885l0.012-1.846h1.533v6.176l-0.847 0.012c-0.466 0.007-0.874-0.003-0.907-0.023s-0.388-0.447-0.789-0.951c-0.401-0.504-0.745-0.909-0.764-0.902s-0.369 0.43-0.776 0.938l-0.74 0.924-0.869 0.012c-0.67 0.009-0.874-0.001-0.891-0.045zM10.331 18.531c-0.8-0.034-2.031-0.194-2.908-0.379-1.343-0.283-3.175-0.979-4.035-1.532-0.124-0.080-0.307-0.197-0.406-0.261-0.649-0.416-1.538-1.252-1.901-1.787-0.225-0.332-0.519-0.914-0.615-1.217-0.26-0.825-0.237-1.829 0.059-2.626 0.82-2.203 3.58-3.981 7.324-4.718 1.109-0.218 3.227-0.308 5.026-0.213 3.077 0.162 6.122 1.311 7.839 2.959 1.031 0.989 1.545 1.983 1.613 3.119 0.122 2.051-1.302 3.915-3.975 5.202-2.241 1.079-5.010 1.58-8.024 1.453zM13.216 17.819c2.064-0.244 3.851-0.761 5.252-1.519 0.43-0.233 1.352-0.846 1.352-0.899 0-0.024-1.148-0.041-2.74-0.041h-2.74l-1.313-1.364c-0.722-0.75-1.665-1.724-2.095-2.165l-0.782-0.802-1.566 0.001c-1.005 0.001-1.566 0.017-1.566 0.046 0 0.043 1.738 1.866 3.209 3.364 0.469 0.478 0.713 0.76 0.713 0.823v0.096h-4.061c-3.222 0-4.057 0.012-4.042 0.056 0.034 0.103 0.902 0.664 1.475 0.955 1.061 0.538 1.885 0.827 3.337 1.172 0.527 0.125 1.759 0.291 2.682 0.36 0.475 0.036 2.326-0.019 2.885-0.085zM21.075 14.073c0.759-1.156 0.829-2.306 0.214-3.525-1.079-2.141-4.501-3.821-8.457-4.155-0.58-0.049-1.273-0.070-1.307-0.040-0.020 0.017 2.98 3.142 7.279 7.583l1.261 1.302 0.391-0.408c0.215-0.224 0.494-0.565 0.62-0.758zM5.243 12.465c1.44-1.494 3.252-3.375 4.028-4.181s1.513-1.571 1.638-1.701c0.125-0.13 0.219-0.242 0.208-0.25-0.042-0.032-1.4 0.054-1.958 0.123-3.807 0.473-6.858 2.102-7.894 4.216-0.683 1.395-0.361 2.864 0.918 4.185 0.173 0.178 0.343 0.324 0.378 0.324s1.242-1.222 2.682-2.716z"></path>
<path fill="#b2b2b2" d="M0.376 26.195c-0.017-0.017-0.030-0.057-0.030-0.090s0.353-0.877 0.784-1.875c0.431-0.998 1.001-2.322 1.267-2.941s0.515-1.162 0.553-1.206c0.060-0.069 0.159-0.079 0.76-0.079 0.667 0 0.693 0.003 0.756 0.101 0.036 0.056 0.433 0.943 0.882 1.972s1.033 2.364 1.297 2.967c0.394 0.9 0.468 1.104 0.415 1.138-0.079 0.050-1.35 0.055-1.427 0.006-0.049-0.031-0.453-0.907-0.8-1.733-0.070-0.167-0.142-0.304-0.16-0.304s-0.118 0.198-0.223 0.439c-0.105 0.242-0.224 0.465-0.263 0.496-0.052 0.041-0.322 0.056-0.982 0.056h-0.91l-0.189 0.439c-0.302 0.703-0.206 0.642-1.010 0.642-0.38 0-0.704-0.014-0.72-0.030zM4.564 23.847c-0.164-0.44-0.824-1.9-0.854-1.891-0.046 0.015-0.839 1.82-0.839 1.91 0 0.047 0.18 0.059 0.861 0.059 0.801 0 0.859-0.006 0.832-0.079zM7.966 26.138c-0.064-0.121-0.064-5.926 0-6.046 0.043-0.081 0.102-0.087 0.851-0.087 0.701 0 0.817 0.010 0.897 0.079 0.051 0.043 0.317 0.363 0.592 0.71s0.593 0.748 0.706 0.89c0.113 0.143 0.221 0.259 0.24 0.259 0.031 0 0.215-0.225 1.189-1.449 0.19-0.239 0.378-0.447 0.417-0.462 0.14-0.054 1.576-0.030 1.633 0.027 0.041 0.041 0.054 0.781 0.054 3.056s-0.013 3.015-0.054 3.056c-0.057 0.057-1.268 0.080-1.407 0.027-0.063-0.024-0.071-0.237-0.071-1.938 0-1.051-0.015-1.911-0.034-1.911s-0.398 0.456-0.843 1.014c-0.494 0.619-0.839 1.014-0.887 1.014-0.065 0-0.947-1.060-1.546-1.859-0.070-0.093-0.145-0.169-0.167-0.169s-0.040 0.83-0.040 1.892c0 1.824-0.003 1.893-0.087 1.938-0.049 0.026-0.377 0.047-0.742 0.047-0.601 0-0.659-0.007-0.702-0.087zM15.772 26.171c-0.041-0.041-0.054-0.781-0.054-3.056s0.013-3.015 0.054-3.056c0.037-0.037 0.265-0.054 0.735-0.054s0.698 0.017 0.735 0.054c0.040 0.040 0.054 0.528 0.054 1.916 0 1.090 0.017 1.862 0.041 1.862 0.023 0 0.181-0.177 0.352-0.394 1.093-1.387 1.299-1.636 1.348-1.624 0.030 0.007 0.295 0.318 0.588 0.69s0.665 0.839 0.826 1.036l0.293 0.359 0.012-1.888c0.008-1.303 0.027-1.907 0.062-1.949 0.068-0.082 1.392-0.087 1.473-0.006 0.041 0.041 0.054 0.781 0.054 3.056s-0.013 3.015-0.054 3.056c-0.038 0.038-0.291 0.054-0.852 0.054-0.695 0-0.809-0.010-0.887-0.079-0.049-0.043-0.377-0.447-0.728-0.896s-0.681-0.855-0.732-0.902c-0.092-0.083-0.095-0.082-0.19 0.047-0.166 0.227-1.252 1.577-1.372 1.706l-0.115 0.124h-0.794c-0.557 0-0.81-0.016-0.848-0.054zM10.177 18.513c-2.637-0.168-5.158-0.907-6.986-2.048-0.791-0.494-1.717-1.356-2.132-1.986-1.059-1.605-1.011-3.348 0.135-4.899 1.344-1.82 4.089-3.172 7.491-3.69 0.596-0.091 0.825-0.1 2.592-0.101 1.612-0.001 2.030 0.012 2.479 0.077 3.028 0.44 5.422 1.453 6.972 2.952 0.808 0.781 1.244 1.482 1.477 2.373 0.191 0.73 0.169 1.338-0.075 2.119-0.455 1.454-1.847 2.83-3.8 3.757-2.307 1.095-5.305 1.626-8.153 1.445zM13.373 17.818c1.862-0.225 3.328-0.634 4.757-1.327 0.613-0.298 1.735-1 1.735-1.087 0-0.027-1.040-0.043-2.735-0.043h-2.735l-0.321-0.327c-0.176-0.18-1.119-1.153-2.094-2.164l-1.773-1.837h-1.617c-1.002 0-1.617 0.016-1.617 0.043 0 0.043 1.918 2.053 3.235 3.39 0.482 0.489 0.69 0.731 0.679 0.789-0.015 0.080-0.181 0.084-4.087 0.105l-4.071 0.023 0.105 0.097c0.36 0.331 1.607 1.027 2.449 1.368 1.251 0.506 2.766 0.861 4.215 0.989 0.31 0.027 0.634 0.058 0.721 0.068 0.379 0.043 2.584-0.018 3.155-0.087zM5.265 12.487c1.452-1.506 3.265-3.388 4.028-4.181s1.501-1.559 1.638-1.701c0.138-0.142 0.242-0.267 0.231-0.277-0.036-0.034-1.499 0.056-2.117 0.13-1.233 0.149-2.622 0.487-3.609 0.879-2.433 0.966-4.014 2.381-4.441 3.977-0.104 0.387-0.105 1.221-0.002 1.612 0.109 0.414 0.388 0.977 0.681 1.373 0.298 0.402 0.8 0.925 0.889 0.925 0.035 0 1.251-1.232 2.703-2.739zM20.412 14.922c0.469-0.48 0.682-0.773 0.93-1.277 0.358-0.728 0.46-1.481 0.302-2.228-0.104-0.489-0.502-1.254-0.899-1.728-1.369-1.632-4.026-2.832-7.147-3.228-0.538-0.068-2.123-0.168-2.157-0.136-0.014 0.013 3.695 3.877 5.559 5.79 0.374 0.384 1.205 1.241 1.845 1.905s1.188 1.206 1.217 1.206c0.029 0 0.187-0.137 0.35-0.304z"></path>
<path fill="#878787" d="M0.391 26.108c0-0.079 2.448-5.791 2.553-5.957 0.062-0.098 0.087-0.101 0.756-0.101 0.501 0 0.704 0.016 0.735 0.056 0.023 0.031 0.095 0.178 0.158 0.327s0.646 1.486 1.295 2.971c0.677 1.551 1.162 2.717 1.14 2.74s-0.35 0.034-0.73 0.027l-0.691-0.012-0.439-1.014c-0.248-0.574-0.464-1.014-0.497-1.014s-0.153 0.213-0.268 0.473l-0.21 0.473-0.966 0.025c-0.531 0.014-0.967 0.029-0.97 0.034s-0.092 0.217-0.199 0.471c-0.107 0.254-0.214 0.487-0.238 0.518-0.031 0.041-0.235 0.056-0.736 0.056-0.606 0-0.693-0.009-0.693-0.072zM4.602 23.933c0.036-0.059-0.815-2.011-0.883-2.025-0.060-0.012-0.893 1.845-0.893 1.992 0 0.063 0.105 0.072 0.876 0.072 0.482 0 0.887-0.017 0.9-0.038zM7.985 26.125c-0.012-0.032-0.017-1.406-0.010-3.055l0.012-2.998 1.682-0.024 0.771 0.97c0.424 0.534 0.79 0.97 0.812 0.97s0.388-0.437 0.812-0.97l0.771-0.97 1.641 0.025v6.086h-1.397l-0.012-1.914c-0.007-1.053-0.029-1.932-0.051-1.953s-0.404 0.42-0.867 1.001c-0.464 0.583-0.86 1.040-0.901 1.040s-0.425-0.445-0.876-1.014c-0.442-0.558-0.83-1.014-0.863-1.014-0.048 0-0.061 0.374-0.071 1.927l-0.012 1.927-0.711 0.012c-0.544 0.009-0.716-0.001-0.733-0.045zM15.784 26.125c-0.012-0.032-0.017-1.406-0.010-3.055l0.012-2.998h1.443l0.012 1.927c0.007 1.223 0.028 1.927 0.056 1.927 0.024 0 0.411-0.462 0.859-1.026s0.839-1.030 0.868-1.035c0.029-0.005 0.419 0.456 0.865 1.024s0.837 1.034 0.867 1.035c0.043 0.001 0.058-0.428 0.068-1.925l0.012-1.927h1.442v6.086l-1.668 0.024-0.766-0.959c-0.421-0.527-0.79-0.959-0.819-0.959s-0.394 0.426-0.811 0.947l-0.759 0.947-0.824 0.012c-0.634 0.009-0.829-0.001-0.846-0.045zM10.132 18.471c-3.099-0.216-5.818-1.122-7.645-2.547-0.444-0.346-1.114-1.035-1.36-1.397-1.065-1.57-1.057-3.3 0.023-4.829 1.417-2.007 4.478-3.441 8.234-3.856 0.343-0.038 1.078-0.059 2.006-0.058 1.615 0.002 2.271 0.063 3.612 0.338 3.294 0.674 5.926 2.304 6.869 4.255 0.306 0.633 0.403 1.060 0.4 1.762-0.003 0.698-0.094 1.093-0.395 1.713-0.616 1.267-1.752 2.291-3.476 3.135-1.526 0.746-3.216 1.209-5.184 1.418-0.792 0.084-2.349 0.118-3.084 0.067zM13.328 17.862c2.52-0.301 4.668-1.050 6.232-2.174 0.192-0.138 0.349-0.278 0.349-0.311 0-0.050-0.485-0.060-2.765-0.060h-2.765l-0.311-0.327c-0.171-0.18-1.11-1.153-2.087-2.164l-1.775-1.837h-1.64c-1.41 0-1.64 0.009-1.64 0.066 0 0.060 1.561 1.707 3.28 3.46 0.382 0.39 0.682 0.729 0.666 0.755-0.020 0.032-1.335 0.047-4.106 0.047-2.493 0-4.077 0.016-4.077 0.042 0 0.061 0.325 0.316 0.766 0.601 1.541 0.997 3.847 1.725 6.086 1.923 0.31 0.027 0.645 0.058 0.744 0.067 0.411 0.040 2.472-0.019 3.043-0.088zM20.532 14.844c1.278-1.35 1.561-2.835 0.82-4.306-1.028-2.043-4.062-3.647-7.798-4.122-0.695-0.088-2.082-0.163-2.135-0.114-0.021 0.020 1.338 1.462 3.020 3.206s3.627 3.76 4.321 4.482c0.972 1.010 1.279 1.304 1.334 1.276 0.040-0.020 0.236-0.209 0.437-0.422zM5.239 12.561c1.437-1.49 3.367-3.494 4.291-4.452s1.679-1.767 1.679-1.798c0-0.042-0.078-0.051-0.304-0.035-0.167 0.012-0.517 0.033-0.778 0.046-1.553 0.079-3.351 0.458-4.719 0.993-3.399 1.329-5.107 3.607-4.379 5.837 0.128 0.393 0.298 0.722 0.575 1.115 0.261 0.37 0.868 1.004 0.961 1.004 0.034 0 1.237-1.219 2.674-2.71z"></path>
<path fill="#6c6c6c" d="M0.476 25.921c0.157-0.396 1.537-3.591 1.792-4.151 0.083-0.182 0.151-0.34 0.151-0.352s0.039-0.108 0.088-0.214c0.048-0.106 0.129-0.298 0.18-0.427s0.143-0.335 0.206-0.458l0.114-0.224h1.397l0.116 0.259c0.18 0.402 0.271 0.606 0.345 0.778 0.175 0.405 0.72 1.655 0.756 1.735 0.022 0.050 0.194 0.445 0.382 0.879 0.318 0.734 0.515 1.178 0.767 1.735 0.155 0.343 0.247 0.57 0.247 0.614 0 0.022-0.311 0.040-0.691 0.040h-0.691l-0.351-0.8c-0.531-1.213-0.565-1.282-0.622-1.263-0.063 0.021-0.188 0.256-0.352 0.66l-0.121 0.298-0.957 0.023c-1.082 0.026-0.97-0.018-1.167 0.451-0.057 0.136-0.144 0.334-0.192 0.439l-0.087 0.192h-1.397l0.085-0.214zM4.619 23.9c0.012-0.082-0.087-0.326-0.506-1.259-0.056-0.124-0.15-0.345-0.209-0.49-0.099-0.242-0.19-0.346-0.249-0.287-0.032 0.032-0.729 1.635-0.816 1.875-0.060 0.166-0.061 0.203-0.008 0.237 0.034 0.022 0.448 0.035 0.919 0.029 0.827-0.011 0.857-0.014 0.87-0.104zM8.009 23.115v-3.020h1.659l0.771 0.968c0.499 0.626 0.793 0.959 0.833 0.944 0.064-0.025 0.165-0.146 1.036-1.247l0.526-0.665h1.621v6.040h-1.352v-1.89c0-1.039-0.012-1.922-0.027-1.961s-0.044-0.071-0.065-0.071c-0.021 0-0.418 0.477-0.883 1.059s-0.861 1.059-0.879 1.059c-0.018 0-0.364-0.419-0.768-0.931-0.973-1.232-0.911-1.163-0.998-1.129-0.068 0.026-0.075 0.202-0.075 1.946v1.917h-1.397v-3.020zM15.808 23.116v-3.021h1.396l0.012 1.927c0.010 1.649 0.021 1.927 0.077 1.927 0.066 0 0.243-0.21 1.174-1.392 0.285-0.362 0.539-0.657 0.563-0.656s0.41 0.467 0.857 1.035c0.492 0.626 0.838 1.029 0.879 1.022 0.059-0.009 0.069-0.266 0.079-1.937l0.012-1.927h1.396v6.040h-1.653l-0.467-0.597c-0.656-0.838-1.078-1.341-1.125-1.341-0.022 0-0.152 0.147-0.288 0.327s-0.477 0.611-0.758 0.958l-0.51 0.631-1.645 0.025v-3.021zM10.087 18.426c-2.177-0.152-4.13-0.634-5.774-1.425-1.128-0.543-1.845-1.048-2.586-1.82-1.029-1.072-1.457-2.188-1.33-3.463 0.092-0.92 0.526-1.811 1.272-2.61 0.302-0.323 0.867-0.807 1.224-1.048 0.124-0.084 0.284-0.192 0.357-0.241 0.3-0.204 1.551-0.813 2.059-1.003 1.339-0.501 2.988-0.86 4.359-0.95 0.255-0.017 0.474-0.047 0.487-0.068 0.034-0.055 2.305-0.049 2.34 0.007 0.015 0.025 0.127 0.045 0.249 0.045 0.35 0 1.583 0.17 2.304 0.317 1.729 0.353 3.374 1.013 4.616 1.851 0.795 0.537 1.656 1.419 2.039 2.092 0.489 0.857 0.656 1.802 0.483 2.718-0.096 0.505-0.2 0.783-0.473 1.268-0.754 1.337-2.147 2.427-4.122 3.225-1.325 0.535-2.695 0.864-4.329 1.039-0.784 0.084-2.43 0.119-3.174 0.067zM13.283 17.907c1.718-0.204 3.23-0.607 4.639-1.236 0.283-0.126 0.604-0.285 0.715-0.353 0.393-0.241 1.207-0.786 1.296-0.867 0.050-0.045 0.22-0.201 0.378-0.346 0.661-0.603 1.153-1.364 1.366-2.111 0.155-0.544 0.143-1.302-0.028-1.826-0.395-1.207-1.35-2.267-2.796-3.103-0.77-0.445-1.259-0.663-2.211-0.984-1.411-0.477-2.835-0.739-4.463-0.821-0.771-0.039-0.834-0.036-0.834 0.043 0 0.037 2.365 2.501 7.359 7.667 0.663 0.686 1.206 1.259 1.206 1.274s-1.243 0.026-2.761 0.026h-2.761l-1.938-2.011c-1.066-1.106-2.014-2.080-2.107-2.164l-0.169-0.153h-1.645c-0.905 0-1.645-0.012-1.645-0.027s0.564-0.608 1.254-1.319c2.244-2.311 3.096-3.207 3.11-3.271 0.008-0.034-0.003-0.072-0.023-0.084-0.063-0.036-1.497 0.050-2.11 0.127-3.755 0.469-6.853 2.113-7.9 4.19-0.309 0.614-0.45 1.343-0.371 1.924 0.209 1.529 1.398 2.916 3.395 3.959 1.451 0.758 3.472 1.319 5.349 1.485 0.31 0.027 0.645 0.058 0.744 0.067 0.4 0.039 2.383-0.020 2.953-0.088zM2.988 14.944c0.175-0.18 1.095-1.134 2.045-2.12s1.741-1.788 1.758-1.781c0.017 0.007 0.374 0.368 0.792 0.802s1.314 1.36 1.991 2.058c0.677 0.698 1.23 1.291 1.23 1.319 0 0.036-1.131 0.050-4.067 0.050h-4.067l0.318-0.327z"></path>
<path fill="#565656" d="M0.464 26.099c-0.012-0.020 0.096-0.309 0.241-0.642s0.712-1.651 1.262-2.927c0.549-1.276 1.021-2.346 1.047-2.378 0.067-0.081 1.323-0.082 1.375-0.001 0.045 0.070 0.072 0.13 1.449 3.285 0.624 1.429 1.134 2.621 1.134 2.648 0 0.057-1.204 0.072-1.29 0.016-0.028-0.018-0.238-0.469-0.468-1.002s-0.445-1.001-0.479-1.040c-0.034-0.039-0.062-0.101-0.062-0.137 0-0.064-0.689-1.698-0.834-1.979-0.043-0.083-0.101-0.134-0.143-0.126-0.083 0.017-0.977 2.048-0.942 2.141 0.018 0.047 0.218 0.060 0.926 0.060 0.497 0 0.903 0.006 0.903 0.013s-0.098 0.235-0.218 0.507l-0.218 0.494-1.902 0.024-0.11 0.236c-0.061 0.13-0.157 0.347-0.213 0.484s-0.122 0.273-0.146 0.304c-0.048 0.064-1.272 0.083-1.311 0.021zM8.030 26.080c-0.012-0.032-0.017-1.386-0.010-3.010l0.012-2.953 1.588-0.025 0.571 0.711c0.314 0.391 0.664 0.828 0.777 0.97 0.114 0.144 0.242 0.259 0.287 0.259 0.051 0 0.284-0.255 0.627-0.687 0.3-0.378 0.648-0.815 0.774-0.97l0.229-0.283 1.548 0.025v5.995h-1.307l-0.023-1.957c-0.017-1.447-0.036-1.962-0.076-1.975-0.029-0.010-0.431 0.455-0.893 1.033s-0.858 1.051-0.881 1.051c-0.038 0-0.673-0.771-1.388-1.687-0.48-0.614-0.456-0.697-0.47 1.585l-0.012 1.95-0.666 0.012c-0.508 0.010-0.671-0.001-0.688-0.045zM15.829 26.080c-0.012-0.032-0.017-1.386-0.010-3.010l0.012-2.953h1.352l0.012 1.95c0.009 1.565 0.023 1.95 0.070 1.95 0.083 0 0.196-0.131 0.999-1.149 0.391-0.496 0.733-0.906 0.761-0.911s0.416 0.456 0.862 1.025c0.503 0.641 0.841 1.035 0.89 1.035 0.073 0 0.079-0.132 0.090-1.95l0.012-1.95h1.352v5.995l-1.586 0.025-0.259-0.328c-0.142-0.18-0.485-0.616-0.762-0.968s-0.53-0.651-0.562-0.664c-0.075-0.032-0.114 0.011-0.952 1.056l-0.705 0.879-0.778 0.012c-0.597 0.009-0.783-0.001-0.8-0.045zM10.218 18.428c-3.065-0.203-5.808-1.104-7.641-2.508-0.444-0.34-1.156-1.071-1.412-1.447-0.105-0.154-0.28-0.464-0.389-0.688-0.651-1.337-0.466-2.892 0.493-4.147 0.334-0.437 0.587-0.7 1.059-1.099 0.379-0.321 0.467-0.386 0.828-0.623 1.641-1.074 4.295-1.897 6.61-2.049 0.248-0.016 0.451-0.047 0.451-0.068s0.512-0.038 1.138-0.038c0.752 0 1.115 0.016 1.071 0.044-0.048 0.031 0.007 0.044 0.19 0.044 0.388 0.001 1.596 0.165 2.354 0.321 1.294 0.264 2.403 0.646 3.519 1.212 0.932 0.472 1.514 0.872 2.136 1.466 0.797 0.763 1.274 1.515 1.501 2.367 0.14 0.526 0.14 1.309-0.001 1.826-0.213 0.787-0.672 1.541-1.359 2.235-1.608 1.625-4.36 2.742-7.596 3.084-0.798 0.084-2.22 0.117-2.953 0.069zM13.373 17.91c2.46-0.305 4.359-0.94 5.952-1.99 0.531-0.35 0.678-0.472 1.195-0.986 0.917-0.914 1.328-1.883 1.271-2.996-0.077-1.5-1.133-2.882-3.021-3.955-1.762-1.001-4.020-1.596-6.545-1.722-0.977-0.049-0.812-0.049-1.826-0-2.618 0.126-4.879 0.744-6.775 1.851-0.836 0.488-1.722 1.3-2.169 1.987-0.469 0.721-0.628 1.244-0.626 2.062 0.001 0.489 0.018 0.614 0.125 0.947 0.161 0.497 0.291 0.751 0.618 1.206 1.177 1.635 3.608 2.907 6.572 3.438 0.403 0.072 0.793 0.119 2.006 0.242 0.412 0.042 2.688-0.018 3.223-0.084zM2.78 15.237c0-0.054 3.972-4.164 4.010-4.149 0.019 0.007 0.628 0.632 1.354 1.388s1.612 1.669 1.968 2.029c0.356 0.36 0.647 0.679 0.647 0.71 0 0.044-0.849 0.056-3.989 0.056-2.194 0-3.989-0.015-3.989-0.034zM14.141 14.967c-0.164-0.167-1.106-1.141-2.094-2.164l-1.795-1.859h-1.632c-0.898 0-1.645-0.013-1.661-0.029s0.525-0.599 1.201-1.296c0.676-0.697 1.661-1.716 2.189-2.264l0.959-0.997 0.619 0.636c0.341 0.35 1.723 1.782 3.073 3.182s2.996 3.108 3.66 3.794c0.663 0.686 1.206 1.259 1.206 1.274s-1.221 0.027-2.712 0.027h-2.712l-0.299-0.304z"></path>
<path fill="#4b4b4b" d="M0.525 25.966c0.021-0.068 0.079-0.206 0.129-0.307s0.105-0.238 0.122-0.305c0.017-0.067 0.074-0.152 0.126-0.189 0.054-0.038 0.098-0.121 0.102-0.192 0.003-0.069 0.071-0.277 0.15-0.462s0.16-0.377 0.181-0.426c0.020-0.050 0.131-0.298 0.245-0.552s0.208-0.482 0.208-0.506c0-0.024 0.081-0.217 0.18-0.429s0.18-0.396 0.18-0.409c0-0.013 0.081-0.197 0.18-0.407s0.18-0.408 0.18-0.439c0-0.031 0.019-0.075 0.042-0.099s0.121-0.236 0.216-0.471c0.284-0.7 0.18-0.631 0.955-0.631h0.67l0.031 0.124c0.028 0.113 0.145 0.384 0.392 0.905 0.068 0.144 0.079 0.209 0.042 0.246-0.075 0.075-0.061 0.114 0.047 0.13 0.071 0.011 0.123 0.081 0.192 0.262 0.052 0.136 0.13 0.313 0.173 0.392s0.078 0.166 0.078 0.192c0 0.026 0.101 0.26 0.225 0.521s0.225 0.484 0.225 0.496c0 0.023 0.060 0.162 0.311 0.715 0.077 0.17 0.14 0.326 0.14 0.347s0.084 0.216 0.186 0.434c0.204 0.436 0.3 0.648 0.439 0.972l0.092 0.214h-1.293l-0.113-0.282c-0.062-0.155-0.177-0.424-0.256-0.597s-0.17-0.376-0.203-0.451c-0.033-0.074-0.126-0.277-0.206-0.451s-0.174-0.397-0.209-0.496c-0.054-0.155-0.186-0.462-0.445-1.037-0.034-0.074-0.090-0.209-0.126-0.299-0.212-0.532-0.32-0.715-0.419-0.715-0.079 0-0.118 0.049-0.189 0.237-0.098 0.262-0.573 1.364-0.641 1.487-0.024 0.043-0.073 0.164-0.109 0.268-0.104 0.303-0.093 0.307 0.905 0.307 0.48 0 0.873 0.016 0.873 0.036s-0.024 0.060-0.053 0.089c-0.029 0.029-0.119 0.221-0.199 0.426l-0.146 0.373-0.946 0.012c-1.078 0.014-0.982-0.024-1.179 0.462-0.055 0.136-0.129 0.301-0.163 0.366s-0.064 0.152-0.064 0.192c0 0.063-0.085 0.072-0.651 0.072h-0.65l0.038-0.124zM5.782 25.882c-0.022-0.057-0.043-0.065-0.080-0.029-0.027 0.027-0.036 0.085-0.020 0.128 0.022 0.057 0.043 0.065 0.080 0.029 0.027-0.027 0.036-0.085 0.020-0.128zM5.58 25.491c-0.037-0.037-0.050-0.032-0.050 0.019 0 0.090 0.061 0.15 0.083 0.083 0.010-0.029-0.005-0.074-0.033-0.102zM6.594 25.516c-0.015-0.015-0.026 0.012-0.024 0.059 0.002 0.053 0.013 0.063 0.027 0.027 0.013-0.033 0.011-0.071-0.004-0.086zM8.054 23.115v-2.975h1.565l0.618 0.778c0.914 1.15 0.924 1.161 1.015 1.161 0.046 0 0.17-0.106 0.278-0.237s0.22-0.267 0.253-0.304 0.201-0.25 0.374-0.473c0.173-0.223 0.408-0.522 0.522-0.665l0.207-0.259h1.524v5.95h-1.261l-0.012-1.972c-0.012-1.943-0.013-1.972-0.103-1.985-0.065-0.009-0.134 0.047-0.238 0.194-0.114 0.162-0.166 0.201-0.235 0.179-0.074-0.024-0.089-0.007-0.090 0.099-0 0.138-0.333 0.6-0.834 1.159-0.041 0.045-0.264 0.334-0.35 0.453-0.023 0.032-0.054 0.023-0.091-0.026-0.031-0.041-0.131-0.162-0.222-0.27s-0.309-0.379-0.484-0.602c-0.175-0.223-0.409-0.52-0.521-0.66s-0.203-0.271-0.204-0.293c-0.001-0.022-0.063-0.087-0.136-0.145-0.267-0.211-0.267-0.214-0.267 1.937v1.933h-1.307v-2.975zM15.853 23.115v-2.975h1.306l0.012 1.95c0.012 1.912 0.014 1.95 0.102 1.96 0.061 0.007 0.146-0.061 0.265-0.212 0.096-0.122 0.218-0.228 0.27-0.236s0.099-0.044 0.102-0.081c0.003-0.037 0.008-0.092 0.011-0.121s0.129-0.209 0.281-0.4c0.201-0.253 0.286-0.33 0.313-0.286 0.050 0.081 0.089 0.035 0.11-0.132 0.016-0.125 0.319-0.584 0.389-0.59 0.016-0.001 0.187 0.195 0.38 0.437s0.378 0.47 0.41 0.507c0.033 0.037 0.246 0.307 0.474 0.599 0.639 0.82 0.598 0.916 0.612-1.445l0.012-1.95h1.306v5.95h-1.567l-0.127-0.169c-0.070-0.093-0.28-0.36-0.466-0.594-0.203-0.254-0.317-0.432-0.284-0.443 0.066-0.022 0.074-0.175 0.010-0.214-0.025-0.015-0.045 0.014-0.045 0.065 0 0.155-0.066 0.108-0.343-0.245-0.312-0.398-0.401-0.423-0.591-0.169-0.069 0.093-0.416 0.529-0.771 0.969l-0.645 0.8h-1.527v-2.975zM19.303 24.109c-0.016-0.026-0.051-0.048-0.078-0.048-0.030 0-0.026 0.026 0.009 0.069 0.062 0.075 0.117 0.058 0.069-0.021zM10.788 18.359c0.016-0.043-0.001-0.068-0.046-0.068-0.040 0-0.072 0.023-0.072 0.052 0 0.115-1.523-0.027-2.795-0.259-1.001-0.183-2.318-0.577-2.2-0.659 0.040-0.028 0.025-0.032-0.043-0.012-0.111 0.031-0.312-0.023-0.664-0.179-0.124-0.055-0.292-0.128-0.372-0.163-0.085-0.037-0.138-0.088-0.125-0.121 0.015-0.039-0.009-0.049-0.078-0.032-0.061 0.015-0.18-0.019-0.303-0.087-0.112-0.061-0.272-0.144-0.356-0.185-0.535-0.259-1.433-0.957-2.007-1.56-0.326-0.343-0.428-0.478-0.408-0.542 0.018-0.056 0.005-0.084-0.038-0.084-0.127 0-0.429-0.493-0.614-1.002-0.241-0.664-0.299-1.527-0.144-2.153 0.182-0.738 0.423-1.209 0.962-1.878 0.288-0.358 0.923-0.962 1.010-0.962 0.031 0 0.068-0.037 0.083-0.083s0.078-0.107 0.14-0.135c0.147-0.067 0.157-0.066 0.126 0.016-0.014 0.037-0.001 0.068 0.029 0.068 0.033 0 0.046-0.036 0.032-0.090-0.017-0.063 0.014-0.117 0.103-0.18 0.070-0.050 0.146-0.090 0.169-0.090s0.101-0.050 0.172-0.111c0.071-0.061 0.186-0.124 0.255-0.139s0.141-0.053 0.159-0.085c0.031-0.052 1.125-0.612 1.196-0.612 0.017 0 0.141-0.051 0.277-0.113s0.261-0.113 0.278-0.113c0.018 0 0.318-0.090 0.668-0.2 1.542-0.486 2.882-0.693 4.738-0.733 1.942-0.042 3.95 0.209 5.31 0.665 0.219 0.073 0.419 0.133 0.445 0.133 0.043 0 0.465 0.16 1.097 0.415 0.199 0.081 0.965 0.454 1.291 0.63 0.68 0.366 2.218 1.694 2.073 1.789-0.086 0.056-0.017 0.151 0.086 0.118 0.068-0.021 0.090 0.003 0.113 0.128 0.020 0.106 0.052 0.153 0.104 0.149 0.103-0.008 0.516 0.834 0.639 1.302 0.137 0.524 0.163 1.087 0.070 1.555-0.135 0.681-0.235 0.924-0.651 1.59-0.137 0.218-0.179 0.256-0.264 0.236-0.109-0.026-0.15 0.087-0.045 0.125 0.057 0.021-0.017 0.114-0.46 0.584-0.176 0.187-0.324 0.289-0.254 0.175 0.013-0.021-0.012-0.072-0.056-0.111-0.074-0.067-0.089-0.064-0.202 0.041-0.067 0.062-0.122 0.133-0.122 0.156 0 0.060 0.106 0.054 0.171-0.010 0.066-0.066 0.12-0.020 0.085 0.073-0.034 0.089-0.921 0.747-1.244 0.923-1.411 0.768-2.69 1.224-4.353 1.554-0.993 0.197-2.476 0.341-3.526 0.342-0.391 0.001-0.457-0.010-0.435-0.067zM13.306 17.959c0.855-0.107 1.369-0.199 2.276-0.406 1.248-0.285 2.685-0.893 3.696-1.565 0.186-0.124 0.391-0.248 0.455-0.276s0.156-0.109 0.203-0.179c0.047-0.070 0.116-0.138 0.153-0.151 0.092-0.031 0.766-0.67 0.766-0.726 0-0.025 0.096-0.155 0.214-0.29 0.246-0.282 0.381-0.515 0.513-0.886 0.393-1.102 0.33-2.105-0.191-3.063-0.272-0.5-0.497-0.795-0.933-1.224-0.365-0.359-0.442-0.481-0.234-0.37 0.054 0.029 0.111 0.040 0.126 0.024 0.046-0.046-0.067-0.184-0.133-0.164-0.215 0.064-0.304 0.055-0.361-0.036-0.033-0.052-0.081-0.095-0.109-0.095s-0.14-0.070-0.25-0.156c-0.343-0.267-1.286-0.78-1.911-1.039-2.078-0.862-4.65-1.275-7.145-1.147-1.778 0.091-3.327 0.379-4.75 0.885-0.299 0.106-1.228 0.514-1.381 0.607-0.037 0.022-0.151 0.079-0.253 0.126-0.261 0.12-0.876 0.506-1.185 0.744-0.194 0.15-0.287 0.194-0.363 0.174-0.086-0.022-0.097-0.013-0.074 0.063 0.022 0.069-0.041 0.158-0.274 0.39-0.19 0.189-0.339 0.3-0.402 0.3-0.1 0-0.176 0.108-0.13 0.184 0.014 0.022-0.041 0.137-0.123 0.255l-0.148 0.214-0.044-0.124c-0.024-0.068-0.058-0.124-0.075-0.124-0.047 0-0.077 0.379-0.032 0.409 0.021 0.014-0.020 0.136-0.091 0.27s-0.171 0.407-0.222 0.605c-0.288 1.115-0.078 2.156 0.629 3.126 0.246 0.338 0.752 0.921 0.843 0.973 0.040 0.023 0.083 0.054 0.095 0.070 0.043 0.054 0.679 0.512 0.981 0.707 0.327 0.211 1.286 0.713 1.543 0.808 0.087 0.032 0.269 0.102 0.406 0.155 0.678 0.264 1.207 0.423 2.164 0.65 0.446 0.105 1.391 0.247 2.119 0.318 0.824 0.080 2.856 0.059 3.629-0.038zM3.077 14.944c1.287-1.335 2.65-2.759 2.831-2.957 0.343-0.376 0.792-0.779 0.836-0.752 0.022 0.014 0.048 0.001 0.058-0.028 0.023-0.070 0.592 0.525 0.623 0.652 0.014 0.057 0.066 0.105 0.122 0.113 0.122 0.018 0.784 0.714 0.767 0.808-0.007 0.040 0.026 0.075 0.077 0.083 0.049 0.008 0.293 0.223 0.541 0.479 0.529 0.545 1.266 1.319 1.407 1.479 0.055 0.062 0.161 0.159 0.237 0.217s0.138 0.124 0.138 0.146c0 0.025-1.565 0.042-3.954 0.042h-3.954l0.272-0.282zM9.036 13.595c-0.025-0.074-0.159-0.153-0.197-0.115-0.043 0.043 0.068 0.169 0.149 0.169 0.036 0 0.058-0.024 0.048-0.053zM8.775 13.335c0-0.023-0.020-0.055-0.045-0.070s-0.045 0.004-0.045 0.042c0 0.039 0.020 0.070 0.045 0.070s0.045-0.019 0.045-0.042zM5.618 12.638c0.023-0.060 0.063-0.122 0.089-0.138s0.046-0.064 0.045-0.106c-0.002-0.060-0.013-0.056-0.050 0.020-0.026 0.053-0.095 0.118-0.155 0.146-0.109 0.049-0.134 0.1-0.078 0.156s0.107 0.030 0.149-0.078zM12.883 13.62c-1.154-1.195-1.534-1.615-1.488-1.645 0.048-0.030 0.042-0.039-0.024-0.040-0.049-0-0.314-0.226-0.611-0.519l-0.525-0.518-1.643-0.006c-0.904-0.003-1.599-0.015-1.544-0.025s0.090-0.044 0.078-0.075c-0.012-0.031 0.147-0.22 0.352-0.42s0.494-0.494 0.641-0.652c0.25-0.268 2.182-2.275 2.887-3.001l0.316-0.325 0.196 0.224c0.108 0.123 0.201 0.257 0.207 0.298s0.050 0.080 0.097 0.087c0.047 0.007 0.249 0.181 0.447 0.387 2.598 2.702 4.034 4.193 4.596 4.769 0.375 0.384 1.181 1.216 1.791 1.848s1.126 1.165 1.144 1.183c0.019 0.019-1.181 0.034-2.667 0.034l-2.701-0-1.549-1.605zM19.189 14.781c0-0.057-0.132-0.159-0.164-0.127-0.046 0.046 0.023 0.166 0.095 0.166 0.038 0 0.069-0.018 0.069-0.040zM12.111 12.501c0-0.072-0.082-0.139-0.121-0.099-0.037 0.037 0.021 0.164 0.075 0.164 0.026 0 0.046-0.029 0.046-0.065zM10.443 10.853c0-0.025-0.021-0.045-0.048-0.045s-0.035 0.020-0.020 0.045c0.015 0.025 0.037 0.045 0.048 0.045s0.020-0.020 0.020-0.045zM7.731 10.414c0.008-0.056 0.002-0.101-0.014-0.101-0.066 0-0.194 0.093-0.22 0.159-0.022 0.057-0.002 0.069 0.096 0.058 0.088-0.010 0.128-0.043 0.138-0.116zM14.954 10.362c-0.028-0.052-0.091-0.095-0.139-0.095-0.114 0-0.112 0.037 0.010 0.167 0.116 0.123 0.207 0.073 0.129-0.072zM8.144 9.904c0-0.026-0.020-0.035-0.045-0.020s-0.045 0.037-0.045 0.048c0 0.011 0.020 0.020 0.045 0.020s0.045-0.021 0.045-0.048zM8.505 9.56c0-0.089-0.109-0.049-0.127 0.046-0.010 0.052 0.007 0.067 0.056 0.048 0.039-0.015 0.071-0.057 0.071-0.094zM13.847 9.185c-0.015-0.025-0.037-0.045-0.048-0.045s-0.020 0.020-0.020 0.045c0 0.025 0.021 0.045 0.048 0.045s0.035-0.020 0.020-0.045zM9.127 9.041c0.072-0.072 0.069-0.126-0.008-0.126s-0.174 0.11-0.133 0.151c0.043 0.043 0.080 0.037 0.141-0.024zM14.658 17.976c-0.015-0.025-0.047-0.045-0.070-0.045s-0.042 0.020-0.042 0.045c0 0.025 0.032 0.045 0.070 0.045s0.058-0.020 0.042-0.045zM6.205 17.527c0.036-0.023 0.053-0.056 0.036-0.072-0.046-0.046-0.268 0.022-0.237 0.072 0.034 0.055 0.114 0.055 0.201 0zM18.234 16.837c0.012-0.063-0.017-0.079-0.143-0.079-0.172 0-0.258 0.076-0.158 0.141s0.285 0.026 0.302-0.062zM3.952 16.515c0-0.010-0.031-0.030-0.070-0.045-0.040-0.015-0.058-0.008-0.042 0.018 0.026 0.043 0.112 0.063 0.112 0.027zM18.918 16.488c0-0.025-0.029-0.045-0.065-0.045s-0.078 0.020-0.093 0.045c-0.015 0.025 0.014 0.045 0.065 0.045s0.093-0.020 0.093-0.045zM19.237 16.306c0.089-0.048 0.122-0.179 0.045-0.179-0.023 0-0.099 0.050-0.169 0.111-0.104 0.092-0.112 0.112-0.045 0.113 0.045 0.001 0.121-0.020 0.169-0.045zM2.465 15.565c0-0.040-0.026-0.056-0.068-0.040-0.037 0.014-0.068 0.044-0.068 0.066s0.030 0.040 0.068 0.040c0.037 0 0.068-0.030 0.068-0.066zM2.138 15.243c-0.059-0.031-0.131-0.108-0.16-0.172-0.050-0.109-0.19-0.164-0.19-0.074 0 0.055 0.13 0.184 0.184 0.184 0.024 0 0.066 0.051 0.094 0.112 0.041 0.090 0.064 0.102 0.115 0.059 0.054-0.044 0.047-0.062-0.043-0.109zM22.073 11.653c-0-0.031-0.020-0.087-0.044-0.124-0.034-0.053-0.044-0.040-0.044 0.056-0 0.068 0.020 0.124 0.044 0.124s0.045-0.025 0.044-0.056zM21.698 10.473c-0.015-0.039-0.048-0.071-0.074-0.071-0.052 0-0.064 0.148-0.016 0.196 0.049 0.049 0.119-0.048 0.089-0.125zM1.518 9.771c0-0.025-0.032-0.045-0.070-0.045s-0.058 0.020-0.042 0.045c0.015 0.025 0.047 0.045 0.070 0.045s0.042-0.020 0.042-0.045zM20.92 9.373c0.028-0.046-0.195-0.25-0.233-0.213-0.014 0.014-0.003 0.076 0.026 0.139 0.050 0.111 0.16 0.15 0.207 0.075zM2.259 8.965c0.029-0.048-0.1-0.165-0.139-0.126-0.038 0.038 0.017 0.166 0.070 0.166 0.024 0 0.055-0.018 0.069-0.040zM4.538 7.445c0-0.035-0.041-0.063-0.090-0.063-0.085 0-0.123 0.088-0.063 0.147 0.044 0.044 0.153-0.016 0.153-0.084zM15.816 6.585c-0.033-0.013-0.071-0.011-0.086 0.004s0.012 0.026 0.059 0.024c0.053-0.002 0.063-0.013 0.027-0.027zM14.636 6.346c0-0.025-0.032-0.045-0.070-0.045s-0.058 0.020-0.042 0.045c0.015 0.025 0.047 0.045 0.070 0.045s0.042-0.020 0.042-0.045zM8.639 6.212c0.098-0.062 0.024-0.107-0.118-0.072-0.097 0.024-0.11 0.040-0.058 0.072 0.081 0.051 0.095 0.051 0.177-0.001zM10.928 5.771c0.254-0.008 0.67-0.008 0.924 0s0.046 0.015-0.462 0.015c-0.508 0-0.716-0.007-0.462-0.015z"></path>
</svg>
