<?xml version="1.0" encoding="utf-8"?>
<!-- Generated by IcoMoon.io -->
<!DOCTYPE svg PUBLIC "-//W3C//DTD SVG 1.1//EN" "http://www.w3.org/Graphics/SVG/1.1/DTD/svg11.dtd">
<svg version="1.1" xmlns="http://www.w3.org/2000/svg" xmlns:xlink="http://www.w3.org/1999/xlink" width="23" height="32" viewBox="0 0 23 32">
<path d="M0.068 19.515c-0.068-0.082-0.037-0.181 0.212-0.659 0.398-0.765 0.417-0.786 0.728-0.821 0.338-0.038 0.507 0.1 0.782 0.642 0.107 0.211 0.22 0.383 0.25 0.383 0.078 0 0.069-0.107-0.013-0.158-0.1-0.062-0.030-0.628 0.093-0.751 0.211-0.212 1.627-0.152 1.632 0.068 0.001 0.047 0.029 0.039 0.077-0.022 0.191-0.245 0.541-0.179 0.646 0.122 0.058 0.167 0.093 0.188 0.307 0.188 0.212 0 0.247-0.020 0.284-0.168 0.023-0.092 0.074-0.188 0.114-0.214 0.102-0.065 0.517-0.058 0.559 0.009 0.020 0.032 0.115 0.016 0.22-0.036 0.178-0.089 0.378-0.090 1.652-0.011 0.084 0.005 0.241-0.012 0.349-0.038 0.167-0.040 0.219-0.022 0.35 0.12l0.154 0.167 0.201-0.122c0.385-0.234 0.845-0.245 0.845-0.020 0 0.059-0.080 0.184-0.178 0.278-0.281 0.269-0.281 0.39-0.002 0.645 0.133 0.122 0.242 0.267 0.242 0.323 0 0.22-0.56 0.209-0.848-0.018-0.194-0.153-0.243-0.148-0.414 0.036-0.159 0.172-0.457 0.206-0.573 0.066-0.063-0.076-0.101-0.076-0.281 0-0.29 0.121-1.288 0.117-1.524-0.006-0.159-0.083-0.189-0.083-0.281 0-0.22 0.199-0.535 0.098-0.589-0.189-0.037-0.195-0.055-0.209-0.279-0.209-0.218 0-0.243 0.017-0.277 0.186-0.020 0.102-0.087 0.213-0.148 0.245-0.161 0.086-0.399 0.072-0.482-0.028-0.062-0.075-0.095-0.075-0.237 0-0.24 0.126-1.943 0.11-2.152-0.021-0.221-0.138-0.621-0.141-0.795-0.006-0.179 0.139-0.515 0.147-0.624 0.016zM7.048 18.83c-0.018-0.154-0.044-0.17-0.311-0.187-0.22-0.014-0.301 0.005-0.328 0.077-0.077 0.199 0.023 0.279 0.346 0.279 0.305 0 0.312-0.004 0.293-0.169zM10.272 19.506c-0.080-0.080-0.094-0.213-0.077-0.727 0.011-0.346 0.041-0.649 0.066-0.674 0.085-0.085 0.441-0.035 0.52 0.074 0.043 0.059 0.079 0.265 0.079 0.458v0.351l0.399 0.021c0.321 0.017 0.4 0.003 0.404-0.071 0.033-0.537 0.056-0.641 0.174-0.759 0.121-0.121 0.194-0.13 1.065-0.13 0.984 0 0.936-0.011 1.365 0.305 0.058 0.043 0.135 0.008 0.272-0.123 0.183-0.175 0.209-0.181 0.692-0.166 0.6 0.020 0.654 0.068 0.654 0.577 0 0.326 0.011 0.357 0.138 0.362 0.076 0.003 0.267 0.017 0.424 0.031 0.265 0.023 0.298 0.010 0.429-0.172 0.078-0.108 0.211-0.322 0.296-0.475 0.121-0.221 0.2-0.29 0.375-0.334 0.382-0.094 0.495-0.024 0.789 0.49 0.299 0.523 0.356 0.51 0.364-0.084 0.004-0.294 0.019-0.329 0.172-0.387 0.255-0.097 0.528-0.016 0.854 0.254l0.295 0.244 0.036-0.216c0.020-0.119 0.056-0.236 0.080-0.26 0.080-0.080 1.815-0.093 2.091-0.016 0.321 0.090 0.397 0.236 0.397 0.764 0 0.744-0.052 0.769-1.537 0.764l-1.114-0.004-0.289-0.301c-0.159-0.166-0.307-0.283-0.329-0.261s-0.040 0.131-0.040 0.242c0 0.26-0.103 0.31-0.643 0.316-0.3 0.003-0.459-0.023-0.53-0.087-0.056-0.050-0.237-0.104-0.403-0.12-0.243-0.023-0.322-0.005-0.409 0.090-0.096 0.106-0.2 0.119-1.010 0.124-0.637 0.004-0.933-0.017-1.006-0.071-0.080-0.059-0.105-0.185-0.112-0.557l-0.009-0.48-0.261 0.256c-0.196 0.193-0.269 0.317-0.294 0.504-0.037 0.272-0.115 0.351-0.352 0.352-0.208 0.001-0.303-0.105-0.303-0.337 0-0.143-0.076-0.274-0.304-0.524-0.182-0.2-0.307-0.297-0.312-0.241-0.005 0.051-0.007 0.284-0.006 0.518s-0.026 0.461-0.061 0.503c-0.047 0.057-0.425 0.076-1.498 0.075-1.231-0.001-1.448-0.015-1.532-0.099zM21.951 18.852c0-0.166-0.1-0.221-0.403-0.221-0.192 0-0.209 0.015-0.209 0.184 0 0.18 0.007 0.184 0.306 0.184 0.282 0 0.306-0.012 0.306-0.147zM10.705 17.261c-0.679-0.176-1.092-0.485-1.435-1.073-0.438-0.751-0.479-1.462-0.127-2.177 0.344-0.697 0.85-1.109 1.594-1.3 1.675-0.429 3.261 1.063 2.912 2.741-0.111 0.531-0.26 0.814-0.628 1.187-0.553 0.562-1.533 0.825-2.316 0.621zM12.458 16.31c0.223-0.21 0.247-0.259 0.21-0.429-0.023-0.105-0.061-0.191-0.083-0.191s-0.102 0.104-0.177 0.23c-0.075 0.126-0.194 0.319-0.267 0.429-0.19 0.29-0.008 0.268 0.317-0.038zM10.621 16.302c0.121 0 0.043-0.123-0.101-0.159-0.085-0.021-0.316-0.143-0.513-0.27l-0.358-0.232 0.151 0.27c0.193 0.345 0.365 0.469 0.592 0.425 0.097-0.019 0.2-0.034 0.23-0.034zM11.594 15.72l0.153-0.088-0.23-0.002c-0.126-0.001-0.23 0.026-0.23 0.061 0 0.044-0.037 0.044-0.119 0-0.065-0.035-0.169-0.062-0.23-0.061-0.178 0.003 0.163 0.177 0.348 0.177 0.084 0 0.222-0.039 0.306-0.088zM10.658 15.211c0.193-0.122 0.307-0.809 0.135-0.809-0.11 0-0.301 0.399-0.301 0.628-0 0.233 0.031 0.267 0.167 0.18zM11.829 14.981c0.038-0.082 0.11-0.15 0.162-0.15 0.118 0 0.121-0.146 0.004-0.243-0.152-0.126-0.332-0.016-0.403 0.248-0.036 0.134-0.049 0.269-0.030 0.3 0.055 0.089 0.192 0.010 0.267-0.155zM10.189 14.142c0.165-0.351 0.261-0.512 0.394-0.658 0.164-0.181 0.040-0.15-0.307 0.077-0.318 0.208-0.391 0.371-0.309 0.696 0.050 0.201 0.081 0.185 0.222-0.115zM12.856 14.117c-0.233-0.427-0.418-0.518-0.824-0.41-0.125 0.034-0.087 0.069 0.301 0.272 0.244 0.129 0.473 0.262 0.507 0.297 0.107 0.107 0.115 0.023 0.015-0.159z"></path>
<path d="M0.147 19.477c-0.056-0.056-0.002-0.206 0.238-0.659 0.349-0.66 0.426-0.739 0.707-0.739 0.254 0 0.332 0.083 0.641 0.677 0.248 0.477 0.316 0.551 0.393 0.426 0.021-0.034 0.25-0.064 0.509-0.066 0.525-0.005 0.522-0.027-0.009-0.087-0.229-0.026-0.4-0.083-0.475-0.158-0.168-0.168-0.15-0.458 0.039-0.647 0.15-0.15 0.18-0.155 0.771-0.135 0.512 0.017 0.629 0.040 0.698 0.134 0.157 0.215 0.051 0.285-0.452 0.294l-0.468 0.009 0.424 0.043c0.356 0.036 0.447 0.070 0.567 0.209l0.143 0.166v-0.336c0-0.311 0.097-0.529 0.236-0.529 0.108 0 0.309 0.198 0.327 0.322 0.017 0.119 0.062 0.14 0.336 0.156 0.309 0.018 0.317 0.014 0.358-0.173 0.044-0.2 0.217-0.309 0.411-0.258 0.088 0.023 0.11 0.093 0.11 0.362 0 0.207 0.023 0.319 0.061 0.296 0.034-0.021 0.061-0.128 0.061-0.239 0-0.364 0.155-0.435 0.954-0.435 0.776 0 0.858 0.035 0.946 0.407l0.049 0.206 0.006-0.262c0.005-0.219 0.032-0.274 0.164-0.334 0.185-0.084 0.352-0.009 0.382 0.173 0.045 0.276 0.069 0.28 0.333 0.064 0.299-0.245 0.658-0.342 0.769-0.209 0.057 0.068 0.016 0.14-0.203 0.355-0.151 0.148-0.274 0.288-0.274 0.311s0.138 0.147 0.306 0.276c0.313 0.239 0.378 0.369 0.214 0.432-0.173 0.067-0.507-0.042-0.771-0.251-0.284-0.225-0.362-0.227-0.362-0.011 0 0.172-0.109 0.284-0.276 0.284-0.191 0-0.275-0.118-0.282-0.395l-0.006-0.248-0.049 0.206c-0.085 0.362-0.177 0.405-0.907 0.427-0.598 0.018-0.673 0.008-0.825-0.112-0.092-0.073-0.168-0.184-0.168-0.247s-0.028-0.132-0.061-0.152c-0.037-0.023-0.061 0.058-0.061 0.204 0 0.248-0.067 0.317-0.309 0.317-0.129 0-0.242-0.171-0.242-0.364 0-0.113-0.037-0.127-0.337-0.127-0.328 0-0.337 0.004-0.337 0.172 0 0.204-0.099 0.319-0.276 0.319-0.162 0-0.275-0.11-0.28-0.273-0.004-0.124-0.005-0.123-0.068 0.005-0.035 0.072-0.131 0.162-0.213 0.199-0.189 0.086-1.123 0.089-1.345 0.005-0.115-0.044-0.187-0.044-0.231 0-0.101 0.101-0.315 0.074-0.485-0.059-0.105-0.083-0.249-0.123-0.443-0.123s-0.337 0.040-0.443 0.123c-0.175 0.138-0.385 0.159-0.494 0.050zM7.022 19.042c0.072-0.053 0.102-0.14 0.088-0.26-0.020-0.178-0.027-0.181-0.388-0.181h-0.368l-0.019 0.226c-0.020 0.241-0.035 0.232 0.482 0.285 0.053 0.005 0.145-0.026 0.204-0.070zM1.114 18.781c0-0.053-0.028-0.078-0.062-0.057s-0.046 0.064-0.027 0.096c0.053 0.085 0.089 0.069 0.089-0.038zM10.309 19.432c-0.105-0.197-0.081-1.143 0.033-1.256 0.12-0.12 0.149-0.12 0.319-0.001 0.117 0.082 0.136 0.152 0.136 0.49v0.395h0.276c0.152 0 0.283-0.002 0.291-0.004s0.091 0.025 0.184 0.060c0.167 0.064 0.169 0.062 0.169-0.195 0-0.142 0.028-0.359 0.062-0.482 0.086-0.309 0.277-0.377 0.957-0.338 0.593 0.033 0.632 0.034 0.927 0.025 0.147-0.005 0.254 0.045 0.401 0.188 0.241 0.234 0.267 0.236 0.417 0.046 0.146-0.186 0.496-0.31 0.648-0.23 0.061 0.032 0.165 0.037 0.233 0.012 0.293-0.108 0.46 0.093 0.46 0.555v0.349l0.398 0.043c0.259 0.028 0.416 0.075 0.45 0.136 0.040 0.071 0.123-0.030 0.345-0.419 0.381-0.666 0.438-0.727 0.685-0.727 0.259 0 0.354 0.098 0.692 0.718 0.15 0.275 0.295 0.486 0.322 0.469s0.049-0.275 0.049-0.574c0-0.498 0.011-0.547 0.128-0.584 0.257-0.082 0.54 0.030 0.823 0.325 0.151 0.158 0.275 0.308 0.275 0.334s0.028 0.047 0.061 0.047c0.034 0 0.061-0.122 0.061-0.271 0-0.333 0.132-0.492 0.362-0.436 0.087 0.021 0.186 0.035 0.22 0.031s0.322-0.021 0.64-0.038c1.070-0.056 1.229 0.040 1.229 0.741 0 0.419-0.013 0.465-0.162 0.582-0.142 0.111-0.246 0.127-0.854 0.127-0.499 0-0.715-0.023-0.775-0.083-0.069-0.069-0.095-0.069-0.16 0-0.043 0.046-0.192 0.083-0.331 0.083-0.232 0-0.284-0.032-0.601-0.375-0.378-0.409-0.427-0.401-0.427 0.072 0 0.201-0.023 0.245-0.147 0.276-0.081 0.020-0.2 0.009-0.264-0.025-0.072-0.038-0.15-0.041-0.205-0.006-0.144 0.091-0.337 0.066-0.504-0.065-0.209-0.164-0.718-0.17-0.862-0.011-0.088 0.097-0.215 0.114-0.967 0.124-0.574 0.008-0.894-0.012-0.95-0.058-0.060-0.050-0.084-0.227-0.084-0.614 0-0.299-0.022-0.544-0.050-0.544-0.090 0-0.625 0.664-0.625 0.777-0.003 0.342-0.166 0.501-0.428 0.418-0.091-0.029-0.123-0.093-0.123-0.246 0-0.159-0.072-0.294-0.309-0.578-0.308-0.37-0.427-0.449-0.427-0.284 0 0.048-0.031 0.097-0.070 0.11-0.050 0.017-0.045 0.062 0.015 0.158 0.070 0.113 0.071 0.157 0.003 0.265-0.058 0.093-0.062 0.149-0.015 0.196 0.099 0.099 0.080 0.33-0.031 0.372-0.171 0.066-1.345 0.041-1.416-0.030-0.048-0.048-0.102-0.048-0.192 0-0.069 0.037-0.374 0.067-0.679 0.067-0.484 0-0.561-0.015-0.617-0.119zM22.042 18.94c0.021-0.066 0.008-0.176-0.029-0.245-0.055-0.102-0.127-0.125-0.402-0.125h-0.335v0.49h0.364c0.307 0 0.369-0.019 0.402-0.12zM17.784 18.818c0-0.032-0.028-0.075-0.061-0.096s-0.061 0.005-0.061 0.058c0 0.053 0.028 0.096 0.061 0.096s0.061-0.026 0.061-0.058zM10.782 17.22c-0.87-0.22-1.517-0.86-1.737-1.717-0.128-0.498-0.080-0.944 0.154-1.445 0.241-0.516 0.554-0.841 1.051-1.089 0.94-0.47 1.988-0.303 2.726 0.435 1.374 1.374 0.439 3.746-1.517 3.851-0.246 0.013-0.55-0.002-0.677-0.034zM12.084 16.665c0.362-0.164 0.674-0.469 0.674-0.659 0-0.195-0.129-0.623-0.188-0.623-0.025 0-0.089 0.126-0.141 0.28-0.107 0.315-0.481 0.855-0.658 0.949-0.132 0.070-0.156 0.181-0.040 0.179 0.042-0.001 0.201-0.057 0.352-0.126zM10.648 16.356c0.15-0.038 0.272-0.089 0.272-0.114s-0.164-0.106-0.366-0.179c-0.236-0.086-0.486-0.244-0.707-0.445-0.188-0.172-0.358-0.295-0.379-0.274-0.063 0.063 0.344 0.824 0.512 0.957 0.182 0.143 0.287 0.152 0.667 0.056zM11.711 15.766c0.115-0.059 0.251-0.176 0.303-0.26 0.069-0.114 0.072-0.134 0.008-0.077-0.101 0.091-1.321 0.109-1.375 0.020-0.019-0.031 0.008-0.099 0.059-0.151 0.139-0.139 0.286-0.597 0.251-0.78-0.043-0.224 0.061-0.299 0.419-0.304 0.264-0.003 0.288-0.013 0.16-0.064-0.082-0.033-0.234-0.042-0.337-0.019-0.498 0.107-0.769 0.417-0.77 0.88-0.001 0.658 0.683 1.061 1.282 0.754zM11.803 15.107c0.168-0.181 0.252-0.192 0.338-0.046 0.11 0.188 0.080-0.214-0.034-0.453-0.11-0.232-0.329-0.396-0.329-0.247 0 0.048-0.039 0.119-0.087 0.159-0.105 0.087-0.292 0.61-0.245 0.685 0.061 0.098 0.214 0.055 0.358-0.1zM10.211 14.28c0.113-0.293 0.302-0.575 0.611-0.911 0.187-0.203 0.187-0.206 0.037-0.163-0.274 0.078-0.658 0.278-0.821 0.43-0.178 0.165-0.212 0.474-0.091 0.823 0.079 0.227 0.117 0.202 0.264-0.179zM13.068 14.32c-0.037-0.113-0.169-0.324-0.292-0.468l-0.224-0.262-0.364 0.033c-0.442 0.040-0.568 0.132-0.313 0.229 0.364 0.137 0.676 0.319 0.945 0.55 0.298 0.256 0.354 0.238 0.248-0.082z"></path>
<path d="M0.163 19.426c-0.021-0.035 0.111-0.331 0.293-0.659 0.326-0.585 0.337-0.596 0.572-0.612 0.132-0.009 0.27 0.005 0.307 0.031 0.107 0.074 0.703 1.217 0.658 1.262-0.075 0.075-0.372 0.042-0.449-0.051-0.053-0.064-0.194-0.092-0.46-0.092s-0.407 0.028-0.46 0.092c-0.087 0.104-0.402 0.124-0.461 0.029zM1.176 18.754c-0.056-0.106-0.184-0.173-0.184-0.097 0 0.014-0.017 0.069-0.037 0.123-0.028 0.073 0.002 0.097 0.125 0.097 0.143 0 0.154-0.014 0.096-0.123zM2.189 19.406c-0.193-0.141-0.051-0.224 0.384-0.225 0.795-0.002 0.948-0.152 0.199-0.195-0.268-0.016-0.53-0.064-0.582-0.107-0.134-0.111-0.124-0.51 0.017-0.637 0.087-0.079 0.237-0.101 0.678-0.101 0.579 0 0.803 0.060 0.803 0.214 0 0.068-0.121 0.091-0.536 0.105-0.305 0.010-0.536 0.044-0.536 0.079 0 0.034 0.213 0.075 0.473 0.092 0.552 0.036 0.685 0.126 0.685 0.466 0 0.336-0.123 0.392-0.852 0.392-0.423 0-0.656-0.026-0.733-0.083zM3.96 19.408c-0.017-0.045-0.023-0.341-0.013-0.659 0.017-0.563 0.021-0.578 0.164-0.578 0.135 0 0.178 0.046 0.314 0.337 0.030 0.065 0.139 0.092 0.369 0.092 0.316 0 0.328-0.007 0.377-0.195 0.056-0.217 0.249-0.317 0.389-0.201 0.064 0.053 0.089 0.207 0.088 0.541-0.001 0.667-0.033 0.754-0.268 0.731-0.167-0.016-0.195-0.046-0.222-0.233-0.031-0.214-0.032-0.215-0.381-0.233-0.34-0.018-0.352-0.013-0.388 0.153-0.021 0.094-0.048 0.206-0.061 0.248-0.031 0.102-0.329 0.098-0.369-0.005zM5.893 19.32c-0.113-0.143-0.129-0.228-0.108-0.56 0.035-0.561 0.124-0.62 0.93-0.62 0.85 0 0.895 0.034 0.895 0.674 0 0.644-0.042 0.674-0.928 0.674-0.643 0-0.659-0.003-0.789-0.169zM7.142 18.987c0.044-0.070 0.046-0.16 0.005-0.276-0.054-0.155-0.091-0.174-0.386-0.19-0.187-0.011-0.362 0.012-0.412 0.053-0.107 0.089-0.114 0.374-0.011 0.477 0.115 0.115 0.722 0.067 0.804-0.064zM7.822 19.412c-0.018-0.047-0.025-0.345-0.015-0.663l0.018-0.578h0.18c0.152 0 0.188 0.031 0.232 0.199 0.028 0.11 0.078 0.199 0.111 0.199s0.185-0.097 0.34-0.215c0.262-0.2 0.557-0.277 0.661-0.172 0.023 0.023-0.089 0.176-0.249 0.338l-0.292 0.296 0.275 0.241c0.151 0.133 0.295 0.242 0.321 0.244s0.046 0.044 0.046 0.095c0 0.183-0.418 0.111-0.744-0.129-0.333-0.245-0.463-0.24-0.493 0.018-0.016 0.136-0.055 0.176-0.189 0.192-0.102 0.012-0.182-0.014-0.202-0.066zM10.348 19.448c-0.022-0.022-0.041-0.313-0.041-0.645 0-0.503 0.017-0.611 0.1-0.643 0.203-0.078 0.297 0.067 0.329 0.508l0.031 0.423 0.378 0.018c0.392 0.019 0.555 0.115 0.489 0.288-0.028 0.074-0.157 0.093-0.64 0.093-0.332 0-0.623-0.018-0.645-0.041zM11.819 19.448c-0.022-0.022-0.041-0.271-0.041-0.552 0-0.713 0.048-0.756 0.851-0.756 0.503 0 0.613 0.017 0.645 0.1 0.073 0.19-0.080 0.268-0.523 0.268-0.561 0-0.542 0.112 0.023 0.135 0.428 0.017 0.444 0.024 0.444 0.171s-0.016 0.154-0.444 0.171c-0.565 0.023-0.584 0.135-0.023 0.135 0.443 0 0.596 0.078 0.523 0.268-0.032 0.084-0.147 0.1-0.726 0.1-0.378 0-0.706-0.018-0.729-0.041zM14.084 19.395c-0.021-0.055-0.038-0.17-0.038-0.255 0-0.098-0.113-0.285-0.306-0.509-0.169-0.195-0.306-0.384-0.306-0.422 0-0.158 0.371-0.065 0.613 0.153l0.245 0.222 0.245-0.222c0.167-0.151 0.304-0.222 0.429-0.222 0.254 0 0.233 0.099-0.104 0.485-0.211 0.241-0.297 0.397-0.322 0.581-0.030 0.229-0.051 0.253-0.225 0.27-0.133 0.013-0.203-0.012-0.23-0.082zM15.373 19.448c-0.022-0.022-0.041-0.313-0.041-0.645 0-0.503 0.017-0.611 0.1-0.643 0.203-0.078 0.297 0.067 0.329 0.508l0.031 0.423 0.368 0.018c0.378 0.018 0.546 0.121 0.48 0.295-0.025 0.066-0.174 0.086-0.629 0.086-0.328 0-0.614-0.018-0.637-0.041zM16.783 19.448c-0.043-0.043 0.461-1.017 0.623-1.203 0.069-0.079 0.165-0.105 0.344-0.092 0.245 0.018 0.252 0.025 0.57 0.6 0.177 0.32 0.322 0.617 0.322 0.659 0 0.109-0.397 0.097-0.49-0.015-0.053-0.064-0.194-0.092-0.46-0.092s-0.407 0.028-0.46 0.092c-0.077 0.093-0.374 0.127-0.449 0.051zM17.844 18.824c-0-0.022-0.027-0.081-0.059-0.131-0.075-0.119-0.219 0.009-0.165 0.148 0.034 0.088 0.226 0.074 0.224-0.017zM18.803 19.395c-0.049-0.128-0.050-1.030-0.001-1.158 0.047-0.123 0.398-0.129 0.625-0.010 0.091 0.048 0.273 0.228 0.404 0.402s0.261 0.293 0.288 0.266c0.027-0.027 0.057-0.201 0.068-0.386 0.018-0.314 0.030-0.338 0.183-0.356 0.24-0.028 0.307 0.146 0.278 0.717-0.014 0.263-0.044 0.51-0.068 0.549s-0.163 0.071-0.31 0.071c-0.249 0-0.287-0.024-0.585-0.368-0.175-0.202-0.342-0.368-0.371-0.368s-0.060 0.159-0.071 0.352c-0.018 0.345-0.022 0.353-0.21 0.371-0.133 0.013-0.203-0.012-0.23-0.082zM20.809 19.415c-0.087-0.14-0.105-1.083-0.023-1.182 0.099-0.12 1.301-0.13 1.532-0.013 0.141 0.071 0.155 0.115 0.171 0.558 0.026 0.693 0.002 0.711-0.913 0.711-0.5 0-0.736-0.023-0.768-0.074zM22.061 18.871c0.025-0.296-0.084-0.374-0.488-0.351-0.321 0.018-0.327 0.022-0.346 0.224-0.034 0.352 0.006 0.385 0.433 0.365l0.384-0.018 0.018-0.22zM10.631 17.136c-0.635-0.207-1.134-0.649-1.419-1.255-0.137-0.292-0.162-0.428-0.162-0.896 0-0.471 0.024-0.603 0.165-0.903 0.614-1.311 2.307-1.737 3.48-0.875 0.585 0.429 0.894 1.061 0.884 1.809-0.008 0.627-0.186 1.073-0.597 1.493-0.457 0.467-0.915 0.669-1.573 0.693-0.326 0.012-0.617-0.012-0.779-0.065zM12.101 16.703c0.127-0.053 0.344-0.199 0.481-0.323 0.237-0.214 0.248-0.241 0.214-0.49-0.020-0.145-0.082-0.353-0.138-0.462l-0.102-0.198-0.061 0.153c-0.242 0.604-0.379 0.833-0.653 1.1-0.17 0.166-0.309 0.32-0.309 0.344 0 0.057 0.286-0.005 0.568-0.124zM10.848 16.327c0.204-0.084 0.217-0.209 0.023-0.209-0.213-0-0.848-0.363-1.11-0.634-0.149-0.154-0.292-0.267-0.318-0.251-0.141 0.087 0.299 0.965 0.585 1.167 0.14 0.099 0.472 0.070 0.82-0.074zM11.7 15.814c0.476-0.216 0.67-0.734 0.448-1.193-0.173-0.356-0.444-0.525-0.843-0.525-0.861 0-1.25 0.987-0.62 1.574 0.3 0.28 0.617 0.325 1.016 0.144zM10.721 15.47c-0.020-0.020 0.037-0.174 0.124-0.344 0.090-0.174 0.163-0.419 0.166-0.562l0.006-0.254 0.297-0.019c0.349-0.022 0.468 0.057 0.33 0.217-0.113 0.13-0.299 0.666-0.249 0.717 0.086 0.086 0.386 0.029 0.458-0.087 0.042-0.067 0.114-0.123 0.16-0.123 0.112 0 0.039 0.309-0.098 0.414-0.101 0.077-1.124 0.112-1.195 0.041zM13.078 14.264c-0.181-0.41-0.481-0.719-0.697-0.719-0.233 0-0.718 0.122-0.761 0.191-0.018 0.029 0.044 0.084 0.139 0.121 0.546 0.214 0.835 0.388 1.1 0.66 0.279 0.287 0.298 0.297 0.316 0.159 0.011-0.081-0.034-0.266-0.098-0.412zM10.209 14.424c0.132-0.387 0.44-0.854 0.689-1.044 0.262-0.2 0.265-0.287 0.007-0.232-0.291 0.063-0.726 0.296-0.926 0.496-0.153 0.153-0.171 0.208-0.145 0.451 0.034 0.322 0.139 0.613 0.221 0.613 0.031 0 0.101-0.128 0.154-0.285z"></path>
<path d="M-0 19.207c0-0.031 0.129-0.285 0.286-0.565 0.269-0.479 0.299-0.509 0.497-0.509 0.201 0 0.225 0.026 0.498 0.541 0.158 0.297 0.288 0.552 0.288 0.565 0 0.064-0.182 0.013-0.251-0.070-0.056-0.068-0.205-0.094-0.533-0.094s-0.477 0.026-0.533 0.094c-0.085 0.103-0.251 0.128-0.251 0.038zM0.968 18.911c0.146-0.056 0.121-0.244-0.058-0.445l-0.157-0.176-0.125 0.148c-0.274 0.324-0.057 0.625 0.34 0.473zM2.353 19.219c0.567-0.029 0.768-0.075 0.811-0.186 0.070-0.183-0.086-0.272-0.489-0.279-0.558-0.009-0.695-0.060-0.719-0.267-0.036-0.308 0.066-0.356 0.734-0.344l0.604 0.010-0.471 0.037c-0.5 0.039-0.628 0.085-0.628 0.226 0 0.144 0.217 0.218 0.639 0.219 0.474 0.001 0.559 0.046 0.566 0.294 0.009 0.317-0.029 0.333-0.754 0.321-0.371-0.007-0.503-0.021-0.294-0.031zM3.828 18.692c0-0.414 0.020-0.563 0.075-0.545 0.041 0.014 0.097 0.105 0.123 0.204 0.064 0.24 0.147 0.282 0.563 0.283 0.377 0.001 0.468-0.055 0.504-0.313 0.012-0.088 0.063-0.157 0.116-0.157 0.111 0 0.157 0.411 0.095 0.832-0.051 0.342-0.205 0.363-0.232 0.031l-0.019-0.235-0.438-0.019c-0.476-0.021-0.598 0.049-0.598 0.345 0 0.087-0.038 0.145-0.094 0.145-0.077 0-0.094-0.105-0.094-0.57zM5.842 19.205c-0.139-0.088-0.169-0.722-0.043-0.914 0.099-0.151 0.129-0.158 0.748-0.158 0.418 0 0.671 0.027 0.72 0.075 0.043 0.043 0.075 0.251 0.075 0.489s-0.032 0.446-0.075 0.489c-0.089 0.089-1.289 0.104-1.425 0.017zM7.057 18.997c0.054-0.077 0.098-0.212 0.098-0.3s-0.044-0.223-0.098-0.3c-0.084-0.119-0.156-0.139-0.498-0.139-0.477 0-0.597 0.088-0.597 0.439s0.12 0.439 0.597 0.439c0.342 0 0.414-0.020 0.498-0.139zM7.782 18.698c0-0.427 0.020-0.565 0.083-0.565 0.046 0 0.109 0.106 0.141 0.235 0.033 0.135 0.102 0.243 0.16 0.254 0.056 0.011 0.235-0.095 0.396-0.235 0.385-0.333 0.589-0.346 0.267-0.016-0.128 0.131-0.232 0.278-0.232 0.328s0.12 0.195 0.267 0.324c0.363 0.319 0.164 0.31-0.267-0.011-0.185-0.138-0.373-0.251-0.417-0.251-0.099 0-0.21 0.197-0.21 0.372 0 0.073-0.041 0.13-0.094 0.13-0.077 0-0.094-0.105-0.094-0.565zM10.355 18.692c0-0.428 0.020-0.564 0.078-0.544 0.047 0.016 0.091 0.186 0.11 0.429 0.017 0.222 0.054 0.438 0.082 0.481 0.031 0.048 0.194 0.078 0.42 0.078 0.203 0 0.387 0.028 0.408 0.063 0.025 0.040-0.167 0.063-0.53 0.063h-0.569v-0.57zM11.861 18.819c0-0.666 0.021-0.686 0.693-0.686 0.691 0 0.754 0.113 0.076 0.139-0.472 0.018-0.486 0.023-0.486 0.175s0.014 0.157 0.486 0.175c0.268 0.010 0.486 0.044 0.486 0.076s-0.219 0.066-0.486 0.076c-0.472 0.018-0.486 0.023-0.486 0.175s0.014 0.157 0.486 0.175c0.714 0.027 0.6 0.139-0.141 0.139h-0.628v-0.443zM14.225 19.221c-0.023-0.023-0.042-0.122-0.042-0.22 0-0.111-0.077-0.266-0.206-0.413-0.371-0.425-0.389-0.455-0.267-0.455 0.059 0 0.195 0.099 0.302 0.22s0.235 0.22 0.285 0.22c0.050 0 0.2-0.099 0.334-0.22 0.224-0.202 0.368-0.274 0.368-0.183 0 0.020-0.127 0.182-0.282 0.36-0.211 0.241-0.282 0.375-0.282 0.528 0 0.193-0.101 0.272-0.209 0.163zM15.502 18.692c0-0.428 0.020-0.564 0.078-0.544 0.049 0.016 0.086 0.176 0.097 0.426 0.010 0.22 0.049 0.437 0.086 0.481 0.041 0.049 0.212 0.081 0.436 0.081 0.204 0 0.369 0.028 0.369 0.063 0 0.037-0.22 0.063-0.533 0.063h-0.533v-0.57zM17.018 19.214c0.012-0.026 0.147-0.282 0.301-0.568 0.274-0.508 0.285-0.519 0.496-0.501 0.199 0.017 0.237 0.058 0.512 0.552 0.223 0.401 0.274 0.539 0.206 0.555-0.050 0.012-0.14-0.024-0.201-0.078-0.151-0.137-0.961-0.141-1.073-0.006-0.080 0.096-0.279 0.134-0.241 0.046zM17.975 18.911c0.197-0.076 0.035-0.59-0.185-0.59-0.094 0-0.281 0.307-0.281 0.463 0 0.126 0.274 0.2 0.466 0.127zM19.042 19.178c-0.018-0.046-0.024-0.294-0.014-0.549l0.019-0.465 0.206-0.020c0.22-0.021 0.392 0.116 0.805 0.642 0.282 0.359 0.401 0.287 0.401-0.244 0-0.323 0.020-0.41 0.094-0.41 0.077 0 0.094 0.105 0.094 0.565v0.565l-0.204 0.001c-0.173 0.001-0.266-0.067-0.616-0.45-0.258-0.282-0.44-0.434-0.486-0.405-0.045 0.028-0.075 0.206-0.075 0.45 0 0.321-0.020 0.404-0.096 0.404-0.053 0-0.111-0.038-0.128-0.084zM21.064 19.066c-0.049-0.246-0.049-0.608 0-0.792 0.036-0.135 0.067-0.141 0.677-0.141 0.831 0 0.884 0.035 0.882 0.594-0.001 0.298-0.028 0.433-0.094 0.475-0.051 0.032-0.393 0.059-0.76 0.060l-0.667 0.001-0.039-0.196zM22.284 19.072c0.090-0.048 0.121-0.132 0.121-0.325 0-0.386-0.126-0.489-0.593-0.489-0.216 0-0.419 0.033-0.461 0.075-0.079 0.079-0.103 0.533-0.037 0.704 0.029 0.076 0.132 0.099 0.443 0.099 0.223 0 0.46-0.029 0.527-0.065zM10.498 16.821c-0.4-0.148-0.615-0.296-0.924-0.639-0.388-0.429-0.504-0.754-0.504-1.407-0-0.501 0.021-0.606 0.184-0.928 0.224-0.443 0.616-0.816 1.091-1.038 0.303-0.142 0.441-0.167 0.921-0.167 0.479 0 0.618 0.025 0.918 0.165 0.496 0.233 0.836 0.565 1.074 1.048 0.18 0.366 0.204 0.476 0.203 0.919-0.001 0.408-0.033 0.57-0.165 0.856-0.229 0.495-0.562 0.836-1.046 1.074-0.532 0.262-1.23 0.308-1.751 0.116zM12.219 16.605c0.172-0.087 0.405-0.264 0.518-0.392 0.185-0.211 0.202-0.261 0.167-0.512-0.058-0.42-0.259-0.831-0.406-0.831-0.096 0-0.133-0.058-0.168-0.26-0.030-0.18-0.124-0.347-0.304-0.542-0.232-0.252-0.243-0.277-0.103-0.235 0.29 0.087 0.75 0.42 1.013 0.734 0.234 0.28 0.271 0.302 0.357 0.216s0.085-0.136-0.012-0.485c-0.11-0.395-0.246-0.638-0.532-0.949-0.199-0.217-0.54-0.23-1.043-0.043-0.259 0.097-0.348 0.161-0.348 0.253 0 0.133-0.035 0.152-0.396 0.212-0.163 0.027-0.319 0.12-0.493 0.293-0.211 0.211-0.246 0.229-0.21 0.106 0.079-0.269 0.457-0.787 0.749-1.025 0.349-0.286 0.37-0.408 0.070-0.408-0.336 0-0.869 0.229-1.188 0.509-0.258 0.227-0.289 0.283-0.287 0.516 0.001 0.144 0.065 0.417 0.143 0.607 0.113 0.277 0.169 0.344 0.281 0.34 0.104-0.004 0.139 0.031 0.139 0.137 0 0.229 0.119 0.481 0.33 0.699 0.141 0.146 0.168 0.204 0.097 0.204-0.161 0-0.75-0.422-1.027-0.736-0.312-0.354-0.437-0.326-0.381 0.085 0.064 0.47 0.437 1.094 0.75 1.256 0.318 0.165 1.236-0.099 1.236-0.357 0-0.086 0.042-0.124 0.137-0.124 0.239 0 0.678-0.256 0.845-0.493l0.161-0.229-0.042 0.188c-0.062 0.283-0.428 0.801-0.751 1.066-0.158 0.129-0.287 0.278-0.287 0.331 0 0.144 0.599 0.063 0.985-0.132zM10.906 15.149c-0.019-0.019 0.019-0.175 0.084-0.346s0.118-0.382 0.118-0.467c0-0.126 0.031-0.156 0.162-0.156 0.104 0 0.151 0.028 0.131 0.078-0.017 0.043-0.082 0.269-0.145 0.502-0.081 0.301-0.143 0.424-0.215 0.424-0.056 0-0.117-0.016-0.136-0.035z"></path>
<path d="M0.219 19.401c-0.050-0.131 0.517-1.135 0.684-1.211 0.284-0.129 0.432-0.021 0.737 0.539 0.157 0.289 0.29 0.57 0.294 0.625 0.012 0.153-0.201 0.163-0.396 0.019-0.235-0.173-0.714-0.176-0.931-0.006-0.183 0.144-0.341 0.158-0.389 0.034zM1.205 18.877c0.020-0.033 0.006-0.118-0.031-0.188-0.055-0.102-0.086-0.113-0.156-0.055-0.131 0.108-0.111 0.303 0.031 0.303 0.065 0 0.136-0.027 0.156-0.060zM2.25 19.406c-0.207-0.152-0.049-0.224 0.492-0.224 0.401 0 0.517-0.019 0.517-0.085 0-0.122-0.139-0.16-0.586-0.16-0.349 0-0.403-0.017-0.491-0.151-0.136-0.208-0.066-0.512 0.136-0.588 0.204-0.078 1.041-0.073 1.189 0.006 0.065 0.035 0.119 0.104 0.119 0.153 0 0.072-0.104 0.090-0.521 0.090-0.401 0-0.521 0.019-0.521 0.084 0 0.062 0.131 0.092 0.499 0.113 0.56 0.032 0.665 0.105 0.665 0.455 0 0.311-0.169 0.39-0.829 0.39-0.37 0-0.595-0.028-0.67-0.083zM4.007 19.415c-0.077-0.077-0.105-0.938-0.036-1.116 0.020-0.053 0.102-0.097 0.182-0.097 0.112 0 0.157 0.045 0.196 0.199 0.050 0.194 0.061 0.2 0.417 0.217l0.366 0.018 0.059-0.202c0.046-0.156 0.097-0.206 0.228-0.221l0.169-0.019v0.613c0 0.575-0.008 0.615-0.133 0.655-0.155 0.049-0.296-0.101-0.296-0.315 0-0.154-0.105-0.209-0.398-0.209-0.322 0-0.398 0.053-0.398 0.276 0 0.251-0.195 0.363-0.355 0.202zM6.078 19.446c-0.183-0.065-0.245-0.228-0.245-0.639 0-0.616 0.12-0.695 1.004-0.658 0.683 0.029 0.774 0.104 0.774 0.647 0 0.334-0.022 0.414-0.15 0.542-0.139 0.139-0.194 0.15-0.72 0.146-0.313-0.003-0.611-0.020-0.662-0.038zM7.063 19.119c0.080-0.043 0.118-0.128 0.118-0.26-0.001-0.302-0.076-0.371-0.408-0.376-0.439-0.006-0.511 0.040-0.511 0.332 0 0.201 0.027 0.26 0.138 0.304 0.19 0.076 0.52 0.076 0.663-0zM7.868 19.415c-0.046-0.046-0.074-0.275-0.074-0.611 0-0.468 0.015-0.545 0.118-0.6 0.175-0.094 0.301-0.016 0.323 0.197 0.026 0.258 0.122 0.27 0.377 0.045 0.246-0.216 0.534-0.32 0.66-0.238 0.066 0.043 0.026 0.104-0.176 0.274-0.143 0.121-0.26 0.256-0.26 0.301s0.128 0.191 0.284 0.325c0.506 0.432 0.102 0.525-0.45 0.104-0.156-0.119-0.314-0.207-0.35-0.196s-0.075 0.102-0.087 0.2c-0.030 0.253-0.211 0.352-0.365 0.198zM10.369 19.368c-0.038-0.071-0.059-0.345-0.049-0.63 0.017-0.48 0.025-0.506 0.164-0.526 0.199-0.028 0.25 0.078 0.251 0.52 0.001 0.434 0.021 0.451 0.531 0.451 0.314 0 0.335 0.009 0.317 0.138-0.018 0.13-0.052 0.139-0.583 0.155-0.515 0.016-0.569 0.007-0.631-0.108zM11.838 19.353c-0.039-0.087-0.044-0.314-0.015-0.598 0.057-0.555 0.132-0.612 0.793-0.614 0.513-0.001 0.633 0.034 0.633 0.183 0 0.147-0.119 0.184-0.592 0.184-0.291 0-0.392 0.021-0.373 0.077 0.016 0.048 0.194 0.088 0.48 0.107 0.35 0.024 0.455 0.052 0.455 0.123 0 0.069-0.085 0.096-0.337 0.108-0.427 0.020-0.613 0.062-0.613 0.139 0 0.033 0.159 0.061 0.352 0.061 0.498 0.001 0.639 0.048 0.616 0.206-0.017 0.122-0.059 0.131-0.678 0.147-0.635 0.017-0.661 0.012-0.721-0.123zM14.15 19.451c-0.024-0.024-0.043-0.13-0.043-0.235 0-0.141-0.081-0.288-0.306-0.554-0.329-0.389-0.354-0.445-0.219-0.497 0.115-0.044 0.333 0.076 0.544 0.302l0.171 0.183 0.227-0.216c0.239-0.227 0.439-0.31 0.564-0.232 0.053 0.033 0.006 0.125-0.159 0.314-0.397 0.455-0.411 0.477-0.449 0.713-0.027 0.169-0.070 0.234-0.161 0.248-0.068 0.010-0.144-0.002-0.168-0.026zM15.406 19.415c-0.046-0.046-0.074-0.276-0.074-0.615 0-0.445 0.018-0.548 0.1-0.58 0.202-0.077 0.297 0.066 0.317 0.476 0.010 0.217 0.051 0.411 0.092 0.437s0.219 0.047 0.397 0.048c0.24 0.001 0.333 0.026 0.361 0.099 0.021 0.054-0.001 0.122-0.048 0.152-0.131 0.083-1.060 0.069-1.146-0.017zM16.834 19.427c-0.051-0.083 0.558-1.203 0.68-1.25 0.176-0.068 0.372-0.038 0.47 0.070 0.181 0.201 0.609 1.060 0.574 1.15-0.049 0.129-0.245 0.112-0.376-0.032-0.085-0.094-0.189-0.123-0.444-0.123-0.24 0-0.377 0.034-0.489 0.123-0.168 0.132-0.354 0.16-0.415 0.061zM17.845 18.822c0-0.063-0.039-0.148-0.088-0.188-0.070-0.058-0.101-0.047-0.156 0.055-0.083 0.155-0.036 0.248 0.125 0.248 0.076 0 0.119-0.042 0.119-0.115zM18.902 19.449c-0.054-0.022-0.077-0.21-0.077-0.635 0-0.551 0.011-0.607 0.124-0.643 0.228-0.072 0.539 0.089 0.833 0.434 0.156 0.183 0.308 0.333 0.338 0.333s0.054-0.133 0.054-0.295c0-0.361 0.108-0.534 0.296-0.475 0.125 0.040 0.133 0.080 0.133 0.644 0 0.654-0.012 0.677-0.37 0.677-0.173 0-0.296-0.105-0.751-0.643-0.085-0.101-0.178-0.161-0.206-0.133s-0.065 0.207-0.082 0.398c-0.031 0.345-0.095 0.42-0.291 0.339zM20.863 19.451c-0.054-0.024-0.077-0.214-0.077-0.64 0-0.598 0.002-0.607 0.155-0.646 0.085-0.021 0.415-0.028 0.732-0.014 0.753 0.033 0.829 0.093 0.829 0.661 0 0.619-0.032 0.643-0.868 0.659-0.382 0.007-0.729-0.002-0.771-0.020zM21.951 19.103c0.173-0.087 0.224-0.282 0.124-0.469-0.057-0.107-0.127-0.126-0.464-0.126h-0.396v0.301c0 0.184 0.030 0.313 0.077 0.332 0.147 0.059 0.507 0.038 0.659-0.038zM10.819 17.161c-0.623-0.133-1.235-0.597-1.515-1.15-0.473-0.934-0.285-1.938 0.495-2.652 0.44-0.402 0.884-0.568 1.519-0.568 0.703 0 1.116 0.17 1.597 0.659 0.507 0.515 0.666 0.933 0.628 1.649-0.034 0.656-0.228 1.074-0.696 1.502-0.528 0.482-1.341 0.707-2.028 0.561zM12.109 16.727c0.157-0.070 0.381-0.21 0.498-0.313 0.174-0.152 0.212-0.23 0.212-0.424 0-0.295-0.168-0.73-0.282-0.73-0.047 0-0.086 0.048-0.086 0.107-0.001 0.227-0.318 0.772-0.651 1.122l-0.348 0.365h0.185c0.102 0 0.314-0.057 0.471-0.126zM10.927 16.329c0.186-0.096 0.188-0.211 0.004-0.211-0.218-0-0.867-0.368-1.183-0.67-0.319-0.305-0.331-0.31-0.349-0.162-0.027 0.217 0.179 0.648 0.455 0.954 0.233 0.258 0.237 0.26 0.564 0.221 0.181-0.021 0.41-0.081 0.51-0.132zM11.778 15.805c0.458-0.257 0.628-0.876 0.353-1.28-0.23-0.337-0.444-0.459-0.802-0.456-0.585 0.005-0.96 0.367-0.96 0.924 0.001 0.748 0.753 1.182 1.409 0.813zM10.736 15.429c0-0.008 0.069-0.151 0.153-0.317s0.153-0.407 0.153-0.536v-0.235h0.312c0.171 0 0.301 0.021 0.288 0.046-0.143 0.278-0.233 0.534-0.246 0.701-0.014 0.179 0.003 0.205 0.149 0.222 0.106 0.012 0.212-0.028 0.296-0.112 0.161-0.161 0.227-0.114 0.132 0.093-0.068 0.148-0.090 0.153-0.653 0.153-0.321 0-0.583-0.007-0.583-0.015zM13.22 14.604c-0.053-0.284-0.215-0.598-0.449-0.874-0.162-0.191-0.209-0.212-0.463-0.201-0.303 0.013-0.714 0.157-0.714 0.249 0 0.031 0.161 0.115 0.358 0.187 0.409 0.149 0.778 0.398 0.994 0.672 0.213 0.268 0.327 0.255 0.273-0.032zM10.217 14.478c0.112-0.378 0.352-0.755 0.667-1.046 0.154-0.142 0.28-0.271 0.28-0.288s-0.076-0.029-0.169-0.028c-0.319 0.003-1.038 0.408-1.174 0.661-0.101 0.189 0.111 1.024 0.249 0.978 0.039-0.013 0.104-0.138 0.146-0.279z"></path>
<path d="M2.463 19.444c-0.084-0.015-0.189-0.058-0.233-0.093-0.139-0.114 0.043-0.166 0.59-0.167 0.452-0.001 0.508-0.013 0.49-0.108-0.017-0.088-0.108-0.113-0.51-0.14-0.269-0.018-0.524-0.054-0.566-0.080-0.108-0.068-0.096-0.499 0.016-0.593 0.093-0.077 1.205-0.099 1.323-0.026 0.148 0.092 0.018 0.149-0.339 0.149-0.217 0-0.472 0.030-0.567 0.066-0.166 0.064-0.168 0.069-0.054 0.153 0.075 0.055 0.271 0.087 0.535 0.087 0.374 0 0.426 0.015 0.515 0.151 0.066 0.101 0.086 0.211 0.058 0.335-0.032 0.147-0.086 0.197-0.266 0.247-0.225 0.063-0.703 0.071-0.991 0.018zM6.186 19.449c-0.245-0.043-0.353-0.239-0.353-0.641 0-0.547 0.079-0.605 0.832-0.614 0.347-0.004 0.673 0.022 0.744 0.060 0.221 0.118 0.257 0.94 0.048 1.113-0.086 0.071-0.997 0.13-1.271 0.082zM7.179 18.983c0.084-0.151 0.084-0.186 0-0.337-0.083-0.148-0.135-0.171-0.437-0.187-0.396-0.021-0.541 0.075-0.541 0.355s0.146 0.376 0.541 0.355c0.302-0.016 0.354-0.039 0.437-0.187zM0.195 19.389c0-0.021 0.14-0.297 0.311-0.613 0.309-0.572 0.311-0.574 0.547-0.574 0.189 0 0.261 0.034 0.356 0.169 0.15 0.212 0.502 0.91 0.502 0.994 0 0.097-0.282 0.075-0.368-0.029-0.053-0.064-0.194-0.092-0.46-0.092s-0.407 0.028-0.46 0.092c-0.073 0.088-0.429 0.133-0.429 0.054zM1.253 18.901c0.058-0.058-0.088-0.331-0.177-0.331-0.081 0-0.207 0.184-0.207 0.302 0 0.068 0.32 0.092 0.384 0.029zM3.995 18.815c0-0.609 0.003-0.621 0.138-0.602 0.095 0.014 0.156 0.082 0.197 0.221 0.037 0.125 0.109 0.214 0.19 0.234 0.223 0.056 0.594-0.001 0.639-0.098 0.129-0.279 0.178-0.337 0.283-0.337s0.116 0.052 0.116 0.582v0.582l-0.165 0.019c-0.15 0.017-0.166-0.001-0.184-0.215l-0.019-0.233h-0.797l-0.031 0.215c-0.026 0.179-0.058 0.218-0.199 0.234l-0.169 0.019v-0.621zM7.856 18.815v-0.621l0.169 0.019c0.14 0.016 0.172 0.053 0.188 0.219 0.025 0.257 0.122 0.254 0.475-0.015 0.25-0.191 0.578-0.288 0.578-0.171 0 0.024-0.117 0.164-0.26 0.311l-0.26 0.267 0.674 0.601-0.224 0.002c-0.168 0.001-0.288-0.052-0.481-0.213-0.331-0.276-0.476-0.281-0.502-0.015-0.016 0.166-0.047 0.202-0.188 0.219l-0.169 0.019v-0.621zM10.368 18.817c0-0.568 0.009-0.615 0.119-0.615 0.163 0 0.192 0.065 0.239 0.539l0.041 0.411 0.398 0.031c0.3 0.023 0.398 0.053 0.398 0.123 0 0.074-0.115 0.095-0.598 0.11l-0.598 0.018v-0.615zM11.839 18.913c0-0.701 0.023-0.721 0.788-0.698 0.477 0.014 0.591 0.035 0.591 0.109 0 0.072-0.109 0.099-0.49 0.123s-0.49 0.051-0.49 0.123c0 0.072 0.109 0.099 0.49 0.123s0.49 0.051 0.49 0.123c0 0.072-0.109 0.099-0.49 0.123s-0.49 0.051-0.49 0.123c0 0.072 0.109 0.099 0.49 0.123s0.49 0.051 0.49 0.123c0 0.075-0.125 0.095-0.689 0.109l-0.689 0.017v-0.519zM14.147 19.387c-0.022-0.022-0.041-0.122-0.041-0.221 0-0.129-0.088-0.282-0.306-0.534-0.169-0.195-0.306-0.371-0.306-0.391s0.077-0.038 0.172-0.038c0.116 0 0.239 0.070 0.38 0.215 0.114 0.118 0.232 0.215 0.261 0.215s0.144-0.097 0.256-0.215c0.132-0.14 0.259-0.215 0.364-0.215 0.089 0 0.161 0.021 0.161 0.046s-0.138 0.207-0.306 0.403c-0.238 0.278-0.306 0.404-0.306 0.567 0 0.179-0.021 0.21-0.143 0.21-0.079 0-0.161-0.018-0.184-0.041zM15.385 19.139c-0.008-0.263-0.005-0.763 0.005-0.895 0.002-0.028 0.066-0.041 0.142-0.031 0.124 0.018 0.14 0.058 0.156 0.416 0.010 0.218 0.047 0.43 0.082 0.472s0.233 0.084 0.441 0.094c0.287 0.014 0.378 0.040 0.378 0.11 0 0.074-0.115 0.095-0.598 0.11l-0.598 0.018-0.009-0.293zM16.865 19.351c0-0.042 0.131-0.311 0.291-0.598 0.287-0.514 0.294-0.521 0.546-0.54l0.255-0.019 0.277 0.509c0.394 0.724 0.394 0.723 0.176 0.723-0.101 0-0.217-0.041-0.259-0.092-0.053-0.064-0.194-0.092-0.46-0.092s-0.407 0.028-0.46 0.092c-0.092 0.111-0.368 0.123-0.367 0.015zM17.906 18.872c0-0.119-0.126-0.302-0.207-0.302-0.089 0-0.235 0.273-0.177 0.331 0.064 0.064 0.384 0.040 0.384-0.029zM18.853 19.35c-0.018-0.047-0.025-0.318-0.015-0.602l0.018-0.516 0.246-0.018c0.272-0.020 0.347 0.031 0.733 0.502 0.325 0.397 0.4 0.374 0.4-0.121v-0.402l0.337 0.039v1.164l-0.285 0.018c-0.283 0.018-0.287 0.016-0.613-0.382-0.18-0.22-0.361-0.401-0.402-0.401-0.048-0.001-0.080 0.134-0.092 0.382-0.016 0.344-0.032 0.385-0.156 0.403-0.077 0.011-0.153-0.018-0.171-0.066zM20.813 19.346c-0.017-0.045-0.023-0.314-0.013-0.598l0.018-0.516 0.706-0.017c0.88-0.021 0.929 0.006 0.967 0.529 0.020 0.28 0.002 0.414-0.073 0.529-0.098 0.15-0.119 0.154-0.837 0.154-0.557 0-0.744-0.020-0.767-0.082zM22.061 19.109c0.105-0.105 0.091-0.452-0.023-0.566-0.116-0.116-0.701-0.133-0.811-0.023-0.078 0.078-0.099 0.402-0.036 0.565 0.046 0.12 0.754 0.139 0.87 0.023zM10.675 17.106c-0.616-0.2-1.082-0.596-1.392-1.184-0.154-0.292-0.171-0.385-0.171-0.937 0-0.553 0.017-0.645 0.172-0.94 0.231-0.438 0.646-0.842 1.072-1.041 0.305-0.143 0.426-0.164 0.962-0.164 0.548 0 0.65 0.018 0.965 0.173 0.449 0.22 0.85 0.621 1.068 1.069 0.148 0.303 0.171 0.424 0.17 0.873-0.004 0.921-0.425 1.604-1.235 2.002-0.3 0.147-0.44 0.176-0.906 0.187-0.303 0.007-0.62-0.009-0.705-0.037zM12.197 16.701c0.696-0.364 0.788-0.59 0.517-1.272-0.112-0.283-0.238-0.296-0.295-0.031-0.078 0.359-0.325 0.764-0.67 1.097-0.186 0.18-0.339 0.352-0.339 0.381 0 0.091 0.483-0.017 0.786-0.175zM10.857 16.387c0.298-0.119 0.317-0.244 0.047-0.301-0.363-0.077-0.808-0.339-1.157-0.682-0.379-0.373-0.467-0.359-0.356 0.054 0.092 0.344 0.202 0.55 0.433 0.813 0.168 0.191 0.223 0.215 0.488 0.215 0.164 0 0.41-0.044 0.545-0.099zM11.718 15.858c0.373-0.189 0.55-0.469 0.55-0.873 0-1.202-1.778-1.282-1.935-0.086-0.050 0.379 0.161 0.765 0.523 0.956 0.334 0.177 0.517 0.178 0.862 0.003zM10.797 15.421c0-0.013 0.060-0.157 0.133-0.322s0.136-0.395 0.14-0.513c0.007-0.207 0.017-0.215 0.266-0.233 0.287-0.021 0.302 0.005 0.16 0.289-0.054 0.108-0.113 0.306-0.131 0.438-0.032 0.239-0.030 0.241 0.17 0.241 0.111 0 0.253-0.046 0.315-0.101 0.105-0.095 0.112-0.094 0.112 0.024 0 0.069-0.044 0.142-0.097 0.163-0.104 0.040-1.067 0.053-1.067 0.014zM13.137 14.259c-0.066-0.148-0.225-0.387-0.354-0.53-0.23-0.255-0.241-0.259-0.552-0.227-0.352 0.036-0.718 0.198-0.683 0.301 0.012 0.037 0.131 0.1 0.264 0.14 0.416 0.124 0.72 0.316 1.069 0.673l0.337 0.345 0.019-0.216c0.011-0.12-0.034-0.335-0.1-0.485zM10.214 14.552c0.127-0.425 0.326-0.743 0.673-1.079 0.186-0.18 0.339-0.351 0.339-0.381 0-0.18-0.951 0.196-1.28 0.505-0.193 0.182-0.205 0.215-0.173 0.485 0.043 0.359 0.209 0.765 0.3 0.735 0.037-0.012 0.101-0.132 0.141-0.265z"></path>
<path d="M0.256 19.361c0-0.036 0.13-0.299 0.288-0.584 0.291-0.523 0.423-0.631 0.672-0.55 0.061 0.020 0.244 0.285 0.407 0.588 0.241 0.451 0.278 0.559 0.201 0.588-0.052 0.020-0.167-0.022-0.257-0.092-0.228-0.179-0.814-0.183-0.974-0.006-0.118 0.13-0.337 0.167-0.337 0.056zM1.276 18.906c0.038-0.1-0.128-0.398-0.223-0.398-0.081 0-0.259 0.358-0.214 0.431 0.059 0.095 0.397 0.070 0.437-0.033zM2.294 19.387c-0.207-0.084-0.026-0.143 0.437-0.143 0.388 0 0.533-0.023 0.592-0.095 0.133-0.16-0.029-0.239-0.54-0.262-0.342-0.016-0.494-0.049-0.55-0.12-0.111-0.142-0.094-0.302 0.046-0.443 0.102-0.102 0.204-0.123 0.608-0.123 0.267 0 0.529 0.017 0.582 0.037 0.219 0.084 0.068 0.143-0.409 0.16-0.459 0.016-0.506 0.029-0.506 0.14 0 0.109 0.052 0.126 0.469 0.156 0.258 0.018 0.513 0.070 0.567 0.115 0.141 0.117 0.128 0.475-0.020 0.555-0.118 0.063-1.131 0.081-1.276 0.023zM4.022 19.35c-0.018-0.048-0.025-0.305-0.015-0.571 0.016-0.437 0.030-0.485 0.14-0.485 0.088 0 0.131 0.052 0.154 0.184 0.032 0.183 0.033 0.184 0.456 0.184h0.425l0.052-0.199c0.036-0.14 0.088-0.199 0.172-0.199 0.111 0 0.121 0.044 0.121 0.553 0 0.451-0.018 0.56-0.098 0.591-0.119 0.046-0.206-0.078-0.207-0.295-0.001-0.188-0.094-0.236-0.454-0.236-0.317 0-0.453 0.096-0.478 0.337-0.020 0.196-0.208 0.293-0.267 0.137zM6.031 19.332c-0.118-0.083-0.136-0.151-0.136-0.52 0-0.575 0.082-0.631 0.878-0.601 0.734 0.027 0.777 0.061 0.777 0.608 0 0.556-0.072 0.609-0.827 0.609-0.403 0-0.592-0.026-0.691-0.095zM7.151 19.121c0.121-0.1 0.12-0.514-0.001-0.614-0.128-0.106-0.725-0.108-0.853-0.002-0.074 0.061-0.097 0.162-0.084 0.363 0.016 0.237 0.041 0.286 0.171 0.324 0.211 0.063 0.655 0.021 0.766-0.071zM7.894 19.334c-0.021-0.055-0.038-0.301-0.038-0.547 0-0.328 0.025-0.468 0.095-0.526 0.119-0.099 0.196-0.024 0.222 0.216 0.028 0.258 0.171 0.259 0.476 0.003 0.152-0.127 0.327-0.217 0.42-0.217h0.16l-0.227 0.232c-0.125 0.128-0.227 0.275-0.227 0.327s0.11 0.183 0.245 0.291c0.135 0.108 0.245 0.226 0.245 0.262 0 0.116-0.315-0.008-0.589-0.233-0.323-0.264-0.473-0.253-0.514 0.039-0.033 0.229-0.202 0.324-0.268 0.151zM10.398 19.291c-0.020-0.078-0.027-0.334-0.017-0.569 0.016-0.381 0.032-0.428 0.141-0.428s0.125 0.047 0.14 0.398c0.021 0.482 0.091 0.552 0.551 0.552 0.237 0 0.323 0.022 0.305 0.077-0.017 0.052-0.199 0.082-0.555 0.094-0.509 0.017-0.531 0.012-0.565-0.124zM11.863 19.271c-0.055-0.22 0.011-0.883 0.096-0.969 0.042-0.042 0.294-0.070 0.633-0.070 0.46 0 0.564 0.017 0.564 0.092 0 0.072-0.102 0.096-0.479 0.11-0.454 0.017-0.478 0.025-0.46 0.153 0.018 0.124 0.058 0.137 0.494 0.153 0.571 0.021 0.64 0.135 0.082 0.135-0.467 0-0.587 0.037-0.587 0.182 0 0.119 0.254 0.183 0.725 0.185 0.185 0 0.258 0.024 0.24 0.077s-0.217 0.082-0.647 0.094l-0.621 0.017-0.040-0.161zM14.209 19.387c-0.022-0.022-0.041-0.117-0.041-0.21 0-0.113-0.099-0.285-0.302-0.523-0.28-0.328-0.33-0.452-0.183-0.452 0.032 0 0.184 0.115 0.336 0.255l0.277 0.255 0.235-0.23c0.161-0.158 0.279-0.223 0.375-0.209 0.131 0.019 0.123 0.040-0.147 0.356-0.189 0.221-0.299 0.414-0.324 0.567-0.034 0.214-0.126 0.291-0.226 0.191zM15.437 19.389c-0.024-0.024-0.043-0.289-0.043-0.589 0-0.531 0.004-0.545 0.138-0.526 0.125 0.018 0.14 0.058 0.155 0.418 0.021 0.482 0.091 0.552 0.551 0.552 0.237 0 0.323 0.022 0.305 0.077-0.028 0.084-1.029 0.146-1.106 0.069zM16.906 19.388c-0.042-0.042 0.4-0.893 0.562-1.081 0.062-0.072 0.16-0.104 0.282-0.092 0.165 0.016 0.221 0.080 0.478 0.539 0.16 0.287 0.291 0.555 0.291 0.598 0 0.119-0.214 0.090-0.337-0.046-0.086-0.095-0.189-0.123-0.461-0.123-0.257 0-0.391 0.032-0.506 0.123-0.163 0.128-0.242 0.149-0.309 0.083zM17.936 18.939c0.052-0.085-0.139-0.431-0.238-0.431s-0.249 0.333-0.192 0.425c0.050 0.081 0.381 0.086 0.43 0.006zM18.915 19.351c-0.018-0.048-0.025-0.319-0.015-0.603 0.017-0.477 0.028-0.517 0.152-0.535 0.216-0.031 0.47 0.141 0.752 0.506 0.346 0.448 0.432 0.444 0.432-0.019 0-0.25 0.029-0.384 0.095-0.439 0.166-0.137 0.218 0.017 0.199 0.59l-0.018 0.546-0.214 0.020c-0.198 0.019-0.246-0.014-0.623-0.429-0.224-0.247-0.429-0.429-0.454-0.404s-0.062 0.216-0.082 0.424c-0.035 0.362-0.149 0.537-0.223 0.343zM20.874 19.346c-0.017-0.045-0.023-0.314-0.013-0.598l0.018-0.516h0.68c0.853 0 0.883 0.020 0.883 0.586s-0.063 0.609-0.904 0.609c-0.47 0-0.64-0.021-0.663-0.082zM22.118 19.082c0.109-0.149 0.097-0.352-0.029-0.509-0.094-0.116-0.159-0.13-0.506-0.114l-0.398 0.019-0.019 0.304c-0.015 0.237 0.005 0.323 0.092 0.388 0.155 0.117 0.755 0.055 0.861-0.089zM10.782 17.097c-0.646-0.163-1.214-0.644-1.503-1.275-0.229-0.5-0.23-1.186-0.002-1.676 0.326-0.702 0.932-1.157 1.721-1.292 0.981-0.168 1.993 0.419 2.385 1.384 0.153 0.376 0.144 1.112-0.019 1.547-0.178 0.476-0.695 0.99-1.19 1.183-0.407 0.159-1.038 0.217-1.393 0.128zM12.105 16.797c0.152-0.065 0.392-0.223 0.533-0.351 0.25-0.226 0.256-0.241 0.225-0.541-0.036-0.352-0.213-0.767-0.326-0.767-0.042 0-0.118 0.145-0.17 0.322-0.126 0.432-0.39 0.833-0.734 1.115-0.156 0.128-0.284 0.257-0.284 0.287 0 0.097 0.474 0.057 0.756-0.064zM10.951 16.381c0.287-0.137 0.253-0.268-0.093-0.357-0.438-0.113-0.766-0.31-1.12-0.672-0.181-0.185-0.352-0.337-0.379-0.337-0.086 0 0.016 0.593 0.146 0.847 0.068 0.133 0.221 0.346 0.34 0.472 0.212 0.225 0.223 0.229 0.552 0.19 0.185-0.022 0.434-0.086 0.554-0.143zM11.775 15.875c0.743-0.379 0.725-1.414-0.031-1.78-0.469-0.227-1.036-0.052-1.319 0.406-0.184 0.298-0.149 0.867 0.069 1.104 0.37 0.402 0.831 0.499 1.28 0.27zM10.859 15.359c0-0.013 0.055-0.144 0.121-0.291s0.122-0.357 0.123-0.466c0.001-0.191 0.011-0.199 0.248-0.199 0.241 0 0.245 0.003 0.158 0.138-0.049 0.076-0.124 0.296-0.169 0.49-0.078 0.341-0.087 0.352-0.281 0.352-0.11 0-0.201-0.011-0.201-0.024zM11.778 15.356c0-0.015 0.028-0.044 0.061-0.065s0.061-0.009 0.061 0.027c0 0.036-0.028 0.065-0.061 0.065s-0.061-0.012-0.061-0.027zM13.289 14.678c-0.045-0.33-0.217-0.684-0.476-0.979-0.171-0.195-0.22-0.216-0.505-0.215-0.343 0.001-0.862 0.198-0.824 0.312 0.013 0.038 0.195 0.132 0.406 0.208 0.466 0.169 0.815 0.403 1.061 0.715 0.262 0.331 0.387 0.316 0.338-0.041zM10.27 14.507c0.12-0.413 0.408-0.846 0.749-1.125 0.148-0.121 0.269-0.245 0.269-0.274 0-0.087-0.384-0.062-0.703 0.047-0.179 0.061-0.414 0.215-0.594 0.388-0.271 0.261-0.294 0.306-0.261 0.497 0.090 0.513 0.276 0.895 0.397 0.82 0.027-0.017 0.091-0.175 0.143-0.352z"></path>
</svg>
