<?xml version="1.0" encoding="utf-8"?>
<!-- Generator: Adobe Illustrator 16.0.0, SVG Export Plug-In . SVG Version: 6.00 Build 0)  -->
<!DOCTYPE svg PUBLIC "-//W3C//DTD SVG 1.1//EN" "http://www.w3.org/Graphics/SVG/1.1/DTD/svg11.dtd">
<svg version="1.1" id="Layer_1" xmlns="http://www.w3.org/2000/svg" xmlns:xlink="http://www.w3.org/1999/xlink" x="0px" y="0px"
	 width="941.11px" height="500px" viewBox="0 0 941.11 500" enable-background="new 0 0 941.11 500" xml:space="preserve">
<g>
	<path fill="#231F1F" d="M141.972,309.873c-18.748,0-34.001,15.252-34.001,34s15.253,33.998,34.001,33.998
		c18.747,0,33.999-15.25,33.999-33.998S160.719,309.873,141.972,309.873z M141.971,361.096c-9.496,0-17.221-7.728-17.221-17.223
		s7.725-17.223,17.221-17.223s17.221,7.728,17.221,17.223S151.467,361.096,141.971,361.096z"/>
	<circle fill="#231F1F" cx="141.971" cy="343.873" r="15.249"/>
</g>
<g>
	<path fill="#231F1F" d="M374.978,309.871c-18.748,0-34.001,15.252-34.001,34s15.253,33.998,34.001,33.998
		c18.747,0,33.999-15.25,33.999-33.998S393.725,309.871,374.978,309.871z M374.977,361.094c-9.496,0-17.221-7.728-17.221-17.223
		s7.725-17.223,17.221-17.223s17.221,7.728,17.221,17.223S384.473,361.094,374.977,361.094z"/>
	<circle fill="#231F1F" cx="374.977" cy="343.871" r="15.249"/>
</g>
<g>
	<path fill="#231F1F" d="M722.54,309.871c-18.748,0-34,15.252-34,34s15.252,33.998,34,33.998c18.746,0,34-15.25,34-33.998
		S741.286,309.871,722.54,309.871z M722.54,361.094c-9.496,0-17.223-7.728-17.223-17.223s7.727-17.223,17.223-17.223
		s17.221,7.728,17.221,17.223S732.036,361.094,722.54,361.094z"/>
	<circle fill="#231F1F" cx="722.539" cy="343.871" r="15.249"/>
</g>
<g>
	<path fill="#231F1F" d="M806.418,309.871c-18.748,0-34,15.252-34,34s15.252,33.998,34,33.998c18.746,0,34-15.25,34-33.998
		S825.164,309.871,806.418,309.871z M806.418,361.094c-9.496,0-17.223-7.728-17.223-17.223s7.727-17.223,17.223-17.223
		s17.221,7.728,17.221,17.223S815.914,361.094,806.418,361.094z"/>
	<circle fill="#231F1F" cx="806.417" cy="343.871" r="15.249"/>
</g>
<rect x="291.666" y="134.8" fill="#231F1F" width="7.316" height="155.662"/>
<polygon fill="#231F1F" points="312.287,290.462 291.666,290.462 291.666,238.575 312.287,259.671 "/>
<path fill="#231F1F" d="M417.535,302.437H292.12c-5.007,0-9.103-4.096-9.103-9.102v-126.15c0-5.006-4.096-9.102-9.102-9.102h-62.954
	c-5.006,0-10.218,3.941-11.581,8.758l-16.328,57.656c-1.364,4.816-6.575,8.758-11.582,8.758h-68.939c-5.007,0-9.103,4.094-9.103,9.1
	v55.637c0,5.008-2.694,9.104-5.987,9.104c-3.292,0-5.986,4.096-5.986,9.102v16.064c0,5.006,4.096,9.098,9.102,9.096l13.429-0.012
	c1.517-19.434,17.801-34.783,37.618-34.783c19.794,0,36.067,15.316,37.614,34.721l157.968-0.129
	c1.608-19.342,17.852-34.592,37.604-34.592c19.73,0,35.962,15.217,37.601,34.531l5.146-0.006V302.437z M127.355,279.819h-9.979
	v-36.588h9.979V279.819z M143.321,279.819h-9.979v-36.588h9.979V279.819z M159.286,279.819h-9.979v-36.588h9.979V279.819z
	 M209.593,172.993h40.163v60.322h-55.879L209.593,172.993z M291.666,323.058h-92.467v-11.973h92.467V323.058z"/>
<path fill="#231F1F" d="M319.656,124.448v174h102l71,42.639h192.257c1.43-19.205,17.5-34.396,37.063-34.396
	c19.564,0,35.635,15.191,37.064,34.396h9.873c1.43-19.205,17.5-34.396,37.063-34.396c19.564,0,35.635,15.191,37.064,34.396h16.615
	V124.448H319.656z"/>
<rect x="335.166" y="139.461" fill="#414042" width="14.074" height="144.155"/>
<rect x="372.743" y="139.461" fill="#414042" width="14.074" height="144.155"/>
<rect x="410.32" y="139.461" fill="#414042" width="14.074" height="144.155"/>
<rect x="447.897" y="139.461" fill="#414042" width="14.074" height="153.349"/>
<rect x="485.474" y="139.461" fill="#414042" width="14.076" height="172.731"/>
<rect x="523.052" y="139.461" fill="#414042" width="14.074" height="187.394"/>
<rect x="560.628" y="139.461" fill="#414042" width="14.076" height="188.688"/>
<rect x="598.206" y="139.461" fill="#414042" width="14.074" height="188.688"/>
<rect x="635.784" y="139.461" fill="#414042" width="14.074" height="188.688"/>
<rect x="673.36" y="139.461" fill="#414042" width="14.074" height="173.924"/>
<rect x="710.938" y="139.461" fill="#414042" width="14.074" height="153.349"/>
<rect x="748.515" y="139.461" fill="#414042" width="14.074" height="164.776"/>
<rect x="786.093" y="139.461" fill="#414042" width="14.074" height="153.349"/>
<rect x="824.456" y="139.461" fill="#414042" width="12.5" height="164.776"/>
</svg>
