<?xml version="1.0" encoding="utf-8"?>
<!-- Generated by IcoMoon.io -->
<!DOCTYPE svg PUBLIC "-//W3C//DTD SVG 1.1//EN" "http://www.w3.org/Graphics/SVG/1.1/DTD/svg11.dtd">
<svg version="1.1" xmlns="http://www.w3.org/2000/svg" xmlns:xlink="http://www.w3.org/1999/xlink" width="23" height="32" viewBox="0 0 23 32">
<path fill="#ccc" d="M10.712 18.52c-0.084-0.016-0.169-0.070-0.188-0.121-0.044-0.114 0.602-1.486 0.752-1.6 0.061-0.046 0.295-0.083 0.526-0.083 0.229 0 0.417-0.016 0.417-0.035s-0.108-0.248-0.239-0.509c-0.288-0.572-0.203-0.65-1.029 0.94-0.33 0.636-0.646 1.209-0.701 1.272-0.090 0.103-0.248 0.116-1.473 0.116-1.037 0-1.38-0.020-1.403-0.083-0.032-0.086 2.274-4.685 2.451-4.89 0.091-0.105 0.267-0.116 1.864-0.116s1.773 0.011 1.865 0.116c0.182 0.208 2.314 4.837 2.274 4.939-0.033 0.086-0.363 0.098-2.502 0.091-1.355-0.005-2.532-0.022-2.616-0.038zM16.068 18.512c-0.065-0.041-0.080-0.592-0.066-2.527l0.017-2.474 3.205-0.017c2.954-0.016 3.212-0.009 3.288 0.095 0.1 0.136 0.113 1.254 0.018 1.504l-0.064 0.169h-3.647l0.042 0.363 3.569 0.066 0.019 0.821c0.014 0.612-0.003 0.834-0.066 0.875-0.047 0.030-0.865 0.054-1.819 0.055l-1.735 0.001v0.522c0 0.415-0.021 0.53-0.105 0.562-0.156 0.060-2.559 0.046-2.655-0.015zM0.025 18.421c-0.018-0.047-0.025-1.171-0.015-2.497l0.017-2.412h6.080l0.433 0.205c0.754 0.357 1.199 0.872 1.421 1.642 0.336 1.168-0.22 2.367-1.345 2.899l-0.443 0.21-3.058 0.019c-2.452 0.015-3.064 0.002-3.090-0.066zM4.62 16.617c0.317-0.337 0.234-1.224-0.134-1.42-0.076-0.041-0.418-0.062-0.809-0.052l-0.677 0.019-0.037 1.619h0.75c0.716 0 0.758-0.008 0.907-0.166z"></path>
<path fill="#afafaf" d="M10.642 18.442c-0.113-0.072-0.048-0.273 0.345-1.064l0.279-0.562 0.509-0.019c0.344-0.013 0.509-0.045 0.509-0.099-0.001-0.108-0.52-1.038-0.58-1.038-0.026 0-0.356 0.587-0.734 1.305s-0.716 1.343-0.753 1.389c-0.050 0.064-0.388 0.080-1.428 0.066-1.167-0.015-1.36-0.032-1.346-0.117 0.016-0.1 2.196-4.398 2.371-4.675 0.093-0.148 0.1-0.149 1.868-0.149 1.339 0 1.791 0.020 1.843 0.083 0.151 0.184 2.262 4.775 2.232 4.854-0.026 0.068-0.55 0.085-2.53 0.084-1.373-0.001-2.537-0.027-2.587-0.058zM16.098 18.459c-0.025-0.025-0.045-1.141-0.045-2.48v-2.434h3.198c2.855 0 3.202 0.011 3.238 0.105 0.058 0.152 0.047 1.368-0.014 1.464-0.039 0.061-0.516 0.086-1.866 0.099l-1.814 0.018-0.041 0.43 1.739 0.001c0.956 0.001 1.777 0.025 1.824 0.055 0.063 0.040 0.080 0.256 0.066 0.842l-0.019 0.788-3.569 0.066-0.066 1.057-1.293 0.018c-0.711 0.010-1.313-0.003-1.338-0.028zM0.060 15.99v-2.45l6.113 0.038 0.381 0.187c0.501 0.246 0.968 0.71 1.209 1.201 0.176 0.359 0.194 0.46 0.194 1.057 0 0.579-0.022 0.708-0.177 1.039-0.219 0.467-0.665 0.91-1.163 1.155l-0.378 0.186-6.179 0.038v-2.45zM4.518 16.808c0.163-0.063 0.366-0.515 0.366-0.817 0-0.341-0.14-0.679-0.338-0.818-0.192-0.134-1.437-0.157-1.565-0.028-0.083 0.083-0.115 1.402-0.039 1.6 0.033 0.086 0.164 0.105 0.755 0.105 0.393 0 0.763-0.019 0.822-0.041z"></path>
<path fill="#8b8b8b" d="M12.831 18.452c-2.076-0.017-2.197-0.025-2.197-0.139 0-0.066 0.148-0.423 0.328-0.792l0.328-0.671h0.494c0.272 0 0.512-0.030 0.535-0.067 0.047-0.076-0.494-1.133-0.598-1.167-0.037-0.012-0.387 0.584-0.778 1.326s-0.75 1.382-0.799 1.423c-0.116 0.096-2.629 0.070-2.66-0.028-0.011-0.036 0.522-1.122 1.184-2.412l1.205-2.346 3.597-0.035 0.093 0.15c0.267 0.428 2.168 4.621 2.135 4.708-0.029 0.074-0.122 0.097-0.355 0.085-0.174-0.009-1.305-0.024-2.513-0.034zM0.101 18.334c-0.062-0.161-0.048-4.61 0.015-4.709 0.043-0.068 0.649-0.081 2.993-0.066l2.939 0.019 0.504 0.249c1.219 0.603 1.71 1.849 1.231 3.128-0.191 0.511-0.575 0.906-1.165 1.197l-0.504 0.249-2.986 0.020c-2.709 0.018-2.989 0.010-3.027-0.088zM4.67 16.701c0.077-0.082 0.175-0.283 0.218-0.446 0.097-0.368-0.002-0.797-0.239-1.034-0.153-0.153-0.191-0.159-0.937-0.141l-0.777 0.019-0.037 1.751h0.816c0.761 0 0.826-0.010 0.956-0.149zM16.098 18.392c-0.025-0.025-0.045-1.11-0.045-2.412v-2.367l0.149-0.036c0.082-0.020 1.517-0.028 3.189-0.018l3.040 0.018 0.019 0.755c0.014 0.559-0.003 0.769-0.066 0.809-0.047 0.030-0.882 0.054-1.857 0.055l-1.772 0.001 0.041 0.496 3.569 0.066v1.52l-1.784 0.036c-0.981 0.020-1.79 0.042-1.798 0.050s-0.022 0.244-0.033 0.526l-0.019 0.512-1.293 0.018c-0.711 0.010-1.313-0.003-1.338-0.028z"></path>
<path fill="#6d6d6d" d="M10.706 18.374c-0.075-0.048-0.025-0.195 0.264-0.775l0.357-0.717 0.512-0.019c0.399-0.015 0.512-0.041 0.512-0.117 0-0.123-0.502-1.128-0.591-1.183-0.087-0.054-0.262 0.235-0.99 1.633l-0.611 1.173h-1.317c-0.936 0-1.317-0.022-1.317-0.075 0-0.115 2.3-4.59 2.403-4.676 0.064-0.053 0.598-0.070 1.825-0.058l1.734 0.018 1.116 2.379c0.614 1.308 1.116 2.401 1.116 2.429 0 0.071-4.904 0.060-5.016-0.011zM16.118 16.023v-2.413l6.311 0.034v1.454l-3.701 0.066v0.529l3.569 0.066 0.037 1.553h-1.779c-2.033 0-1.86-0.062-1.86 0.666v0.457h-2.577v-2.413zM0.126 15.99v-2.383l5.981 0.037 0.396 0.185c0.951 0.444 1.475 1.333 1.406 2.387-0.018 0.27-0.089 0.6-0.168 0.78-0.204 0.459-0.674 0.927-1.156 1.15l-0.412 0.19-6.047 0.037v-2.383zM4.612 16.807c0.34-0.238 0.438-0.899 0.205-1.381-0.073-0.151-0.208-0.309-0.301-0.351s-0.476-0.076-0.856-0.076c-0.613 0-0.696 0.014-0.757 0.128-0.098 0.183-0.089 1.609 0.011 1.709 0.129 0.129 1.505 0.106 1.697-0.028z"></path>
<path fill="#4d4d4d" d="M12.897 18.386c-1.541-0.013-2.197-0.040-2.197-0.091 0-0.040 0.138-0.367 0.307-0.726l0.307-0.653 0.469-0.001c0.716-0.002 0.722-0.015 0.351-0.761-0.231-0.464-0.345-0.629-0.425-0.614-0.066 0.013-0.399 0.569-0.841 1.409l-0.732 1.388-1.25 0.018c-0.688 0.010-1.273-0.005-1.3-0.033s0.487-1.1 1.143-2.382l1.193-2.33 3.564 0.035 1.085 2.313c0.597 1.272 1.071 2.35 1.054 2.396-0.019 0.050-0.129 0.076-0.281 0.067-0.137-0.009-1.239-0.024-2.447-0.034zM0.157 18.289c-0.018-0.047-0.025-1.112-0.016-2.366l0.017-2.279h5.881l0.44 0.208c1.365 0.647 1.839 2.29 1.009 3.502-0.253 0.369-0.536 0.593-1.052 0.829-0.327 0.15-0.363 0.152-3.289 0.171-2.385 0.016-2.965 0.003-2.991-0.067zM4.721 16.741c0.152-0.163 0.294-0.528 0.294-0.751s-0.147-0.603-0.307-0.793l-0.17-0.202-1.67 0.037-0.019 0.856c-0.010 0.471-0.004 0.894 0.014 0.942 0.025 0.064 0.242 0.086 0.864 0.086 0.813 0 0.835-0.004 0.993-0.174zM16.134 16.007l0.017-2.363h6.212v1.454l-3.675 0.035 0.040 0.626 3.569 0.066 0.038 1.421-1.671 0.001c-0.919 0.001-1.738 0.019-1.82 0.041-0.138 0.037-0.149 0.076-0.149 0.561v0.521h-2.579l0.017-2.363z"></path>
<path fill="#2a2a2a" d="M11.839 18.32c-0.591-0.011-1.074-0.045-1.074-0.075 0-0.107 0.543-1.231 0.618-1.279 0.042-0.027 0.29-0.049 0.551-0.050s0.493-0.029 0.514-0.064c0.021-0.035-0.111-0.362-0.294-0.727-0.232-0.463-0.368-0.663-0.448-0.662-0.082 0.001-0.326 0.403-0.851 1.404l-0.736 1.403-1.263 0.018c-0.695 0.010-1.263 0.009-1.263-0.002s0.533-1.060 1.184-2.331l1.184-2.311h3.472l1.076 2.28c0.592 1.254 1.077 2.317 1.078 2.363 0.003 0.083-0.704 0.090-3.747 0.033zM16.184 16.023v-2.346h6.146v1.386l-3.668 0.035-0.021 0.295c-0.033 0.466-0.037 0.465 1.917 0.465h1.706v1.386l-3.602 0.035-0.038 1.090h-2.44v-2.346zM0.192 15.99v-2.318l5.915 0.038 0.393 0.193c0.501 0.246 0.925 0.67 1.147 1.149 0.148 0.318 0.175 0.469 0.176 0.971 0.001 0.507-0.024 0.65-0.173 0.968-0.222 0.474-0.593 0.845-1.088 1.088l-0.389 0.191-5.981 0.038v-2.318zM4.624 16.913c0.336-0.18 0.503-0.994 0.301-1.476-0.18-0.43-0.36-0.505-1.226-0.505-0.511 0-0.798 0.027-0.85 0.079-0.054 0.054-0.079 0.36-0.079 0.945s0.026 0.891 0.079 0.945c0.1 0.1 1.592 0.109 1.775 0.011z"></path>
<path fill="#1e1e1e" d="M11.872 18.254c-0.572-0.011-1.039-0.042-1.036-0.068s0.129-0.301 0.281-0.61l0.276-0.562 0.548-0.019c0.425-0.015 0.557-0.043 0.588-0.123 0.048-0.124-0.63-1.459-0.768-1.512-0.052-0.020-0.13 0.002-0.174 0.049s-0.403 0.702-0.798 1.456l-0.719 1.371-2.393 0.001 2.327-4.559 3.38-0.001 0.486 1.041c0.267 0.572 0.633 1.353 0.813 1.735 0.561 1.191 0.839 1.796 0.839 1.824 0 0.026-1.629 0.016-3.651-0.023zM16.25 16.023v-2.28h6.080v1.256h-1.804c-1.315 0-1.826 0.021-1.883 0.079-0.044 0.044-0.079 0.221-0.079 0.394 0 0.244 0.029 0.33 0.128 0.383 0.079 0.042 0.779 0.068 1.817 0.068h1.689v1.256h-1.777c-2.031 0-1.857-0.062-1.857 0.666v0.457h-2.313v-2.28zM0.258 15.99v-2.252l5.848 0.038 0.372 0.183c0.439 0.215 0.935 0.721 1.136 1.158 0.204 0.443 0.205 1.369 0.001 1.81-0.202 0.437-0.635 0.88-1.070 1.094l-0.373 0.183-5.915 0.038v-2.252zM4.672 16.944c0.559-0.392 0.523-1.681-0.056-1.98-0.217-0.112-1.614-0.138-1.781-0.033-0.127 0.080-0.185 1.762-0.069 1.979 0.068 0.128 0.131 0.137 0.916 0.137 0.657 0 0.874-0.023 0.99-0.104z"></path>
</svg>
