<?xml version="1.0" encoding="utf-8"?>
<!-- Generated by IcoMoon.io -->
<!DOCTYPE svg PUBLIC "-//W3C//DTD SVG 1.1//EN" "http://www.w3.org/Graphics/SVG/1.1/DTD/svg11.dtd">
<svg version="1.1" xmlns="http://www.w3.org/2000/svg" xmlns:xlink="http://www.w3.org/1999/xlink" width="23" height="32" viewBox="0 0 23 32">
<path d="M8.041 21.683c-0.811-0.126-1.523-0.714-1.75-1.445-0.337-1.085 0.129-2.241 1.095-2.717 0.37-0.182 0.655-0.25 1.043-0.248 0.478 0.003 1.137 0.175 1.178 0.308 0.008 0.026 0.008 0.396-0.001 0.823-0.017 0.871-0.021 0.879-0.283 0.65-0.31-0.272-0.795-0.373-1.081-0.224-0.425 0.221-0.528 0.786-0.203 1.119 0.335 0.344 0.835 0.318 1.306-0.068 0.275-0.225 0.293-0.185 0.293 0.645-0 0.38-0.011 0.729-0.023 0.776-0.065 0.244-1 0.47-1.574 0.38zM10.234 21.599c-0.066-0.040-0.071-0.184-0.071-2.119 0-2.013 0.002-2.077 0.078-2.105 0.043-0.016 0.383-0.020 0.756-0.009l0.678 0.020 0.022 1.351h0.762l0.022-1.351h1.533l0.011 2.077c0.010 1.917 0.005 2.081-0.058 2.127-0.048 0.035-0.263 0.050-0.724 0.050-0.542 0-0.666-0.011-0.718-0.063s-0.063-0.177-0.063-0.726v-0.663h-0.721l-0.013 0.682c-0.007 0.375-0.028 0.697-0.046 0.716-0.051 0.051-1.365 0.062-1.449 0.012zM0.050 21.574c-0.039-0.016-0.050-0.464-0.050-2.050 0-1.116 0.011-2.059 0.025-2.094 0.022-0.057 0.21-0.064 1.712-0.064 1.177 0 1.695 0.013 1.714 0.044 0.031 0.050 0.029 1.115-0.002 1.165-0.011 0.018-0.438 0.046-0.948 0.062l-0.928 0.030v0.191l0.797 0.001c0.438 0 0.838 0.012 0.888 0.025 0.091 0.024 0.092 0.031 0.081 0.614l-0.011 0.59-1.734 0.040-0.026 0.222h0.907c0.771 0 0.917 0.009 0.971 0.063 0.051 0.051 0.063 0.161 0.063 0.547 0 0.266-0.019 0.519-0.042 0.562-0.040 0.075-0.1 0.078-1.704 0.075-0.914-0.002-1.685-0.012-1.713-0.024zM4.124 21.574c-0.072-0.029-0.074-4.128-0.002-4.2 0.051-0.051 1.536-0.072 1.662-0.024 0.057 0.022 0.064 0.246 0.064 2.113s-0.007 2.091-0.064 2.113c-0.076 0.029-1.588 0.027-1.66-0.002zM14.585 21.51c-0.013-0.050-0.025-0.981-0.025-2.069-0-1.485 0.011-1.99 0.048-2.027s0.476-0.048 1.733-0.048c1.624 0 1.686 0.003 1.726 0.078 0.023 0.043 0.042 0.289 0.042 0.547s-0.019 0.504-0.042 0.547c-0.039 0.074-0.093 0.078-0.948 0.078h-0.906v0.242h0.846c0.795 0 0.848 0.005 0.887 0.078 0.061 0.114 0.054 0.979-0.009 1.063-0.044 0.059-0.158 0.069-0.877 0.078l-0.827 0.011-0.025 0.217 0.911 0.012c0.757 0.010 0.918 0.023 0.95 0.073 0.052 0.082 0.050 1.034-0.002 1.132-0.040 0.075-0.102 0.078-1.75 0.078h-1.708l-0.024-0.091zM18.681 21.552c-0.036-0.036-0.048-0.556-0.048-2.092 0-1.746 0.009-2.051 0.059-2.093 0.090-0.074 2.229-0.034 2.502 0.048 0.491 0.146 0.826 0.411 1.003 0.793 0.071 0.153 0.086 0.263 0.086 0.611 0 0.549-0.092 0.758-0.421 0.956-0.119 0.071-0.236 0.137-0.26 0.146s0.001 0.066 0.062 0.132c0.154 0.168 0.962 1.382 0.962 1.445 0 0.091-0.102 0.103-0.945 0.103-0.736 0-0.824-0.007-0.883-0.073-0.036-0.040-0.171-0.29-0.299-0.555l-0.233-0.482-0.011 0.502c-0.006 0.285-0.030 0.524-0.055 0.555-0.060 0.072-1.446 0.077-1.518 0.005zM20.6 19.078c0.063-0.044 0.090-0.104 0.090-0.199 0-0.164-0.116-0.262-0.311-0.262h-0.132v0.524h0.132c0.073 0 0.172-0.028 0.222-0.063zM8.692 16.331c-1.266-0.271-2.267-1.404-2.393-2.708-0.080-0.833 0.14-1.566 0.672-2.236 0.418-0.525 0.913-0.852 1.599-1.054 0.266-0.078 0.401-0.084 2.313-0.096 1.544-0.010 2.045-0.001 2.089 0.036 0.034 0.028 0.054 0.1 0.047 0.172-0.021 0.209-0.103 0.225-1.202 0.227-0.543 0.001-1.070 0.021-1.17 0.045s-0.245 0.045-0.323 0.049c-0.118 0.005-0.143-0.009-0.154-0.085-0.023-0.159 0.007-0.177-1.146 0.687-0.538 0.403-0.804 0.627-0.82 0.692-0.014 0.055-0.22 0.263-0.489 0.493-0.844 0.72-0.759 0.622-0.749 0.863 0.005 0.117 0.024 0.227 0.042 0.246s0.132-0.030 0.252-0.108c0.251-0.162 0.255-0.162 0.34-0.078 0.086 0.086 0.080 0.127-0.037 0.236-0.055 0.051-0.101 0.102-0.101 0.114 0 0.050 0.232-0.028 0.323-0.108 0.174-0.154 0.668-0.309 1.063-0.334l0.357-0.022 0.178-0.186c0.174-0.181 0.18-0.184 0.288-0.125 0.122 0.067 0.323 0.44 0.435 0.805 0.101 0.331 0.329 0.951 0.466 1.272s0.295 0.561 0.547 0.835c0.188 0.205 0.209 0.274 0.111 0.372-0.055 0.055-0.214 0.063-1.159 0.060-0.81-0.002-1.17-0.019-1.378-0.064zM14.527 14.374c-0.068-0.068-0.060-0.216 0.015-0.292 0.048-0.048 0.15-0.063 0.423-0.063 0.339 0 0.363 0.006 0.425 0.101 0.061 0.093 0.061 0.108 0 0.202-0.063 0.096-0.086 0.101-0.44 0.101-0.237 0-0.392-0.018-0.423-0.048zM14.112 13.814c-0.046-0.046-0.073-0.111-0.060-0.144s0.023-0.074 0.023-0.091c0-0.083 0.244-0.124 0.739-0.124 0.585 0 0.713 0.040 0.713 0.222 0 0.185-0.125 0.222-0.755 0.222-0.529 0-0.583-0.007-0.66-0.084zM13.632 13.293c-0.044-0.044-0.081-0.108-0.081-0.141s0.036-0.097 0.081-0.141c0.076-0.076 0.134-0.081 0.945-0.081 0.848 0 0.866 0.002 0.928 0.090 0.083 0.118 0.079 0.176-0.018 0.273-0.076 0.076-0.134 0.081-0.928 0.081s-0.852-0.005-0.928-0.081zM13.13 12.746c-0.074-0.074-0.080-0.152-0.022-0.262 0.040-0.074 0.095-0.078 1.139-0.077 0.604 0 1.123 0.017 1.155 0.037s0.057 0.094 0.057 0.164c0 0.070-0.026 0.144-0.057 0.164s-0.541 0.036-1.133 0.037c-0.925 0.001-1.085-0.008-1.139-0.063zM12.583 12.233c-0.138-0.069-0.156-0.242-0.034-0.327 0.079-0.056 0.263-0.064 1.347-0.064 1.165 0 1.26 0.005 1.322 0.074 0.093 0.103 0.083 0.233-0.023 0.307-0.076 0.053-0.269 0.063-1.301 0.062-0.892-0-1.238-0.014-1.312-0.051zM11.818 11.642c-0.060-0.113-0.052-0.183 0.032-0.259 0.066-0.059 0.229-0.067 1.495-0.067 0.902 0 1.45 0.015 1.499 0.042 0.088 0.047 0.106 0.236 0.030 0.313-0.036 0.036-0.432 0.048-1.531 0.048-1.425 0-1.484-0.003-1.524-0.078zM10.915 11.122c-0.093-0.103-0.083-0.233 0.023-0.307 0.077-0.054 0.303-0.063 1.651-0.063 0.917 0 1.604 0.016 1.665 0.039 0.079 0.030 0.103 0.068 0.103 0.158 0 0.251 0.036 0.246-1.751 0.246-1.522 0-1.628-0.005-1.691-0.074z"></path>
<path d="M7.881 21.625c-0.391-0.090-0.73-0.284-1.049-0.604-0.324-0.324-0.48-0.598-0.563-0.987-0.269-1.271 0.46-2.425 1.7-2.687 0.432-0.091 0.797-0.067 1.287 0.088 0.352 0.111 0.343 0.086 0.343 0.928 0 0.634-0.009 0.745-0.063 0.765-0.037 0.014-0.107-0.018-0.171-0.079-0.060-0.057-0.208-0.15-0.33-0.206-0.584-0.271-1.161 0.009-1.202 0.584-0.023 0.316 0.102 0.54 0.388 0.695 0.352 0.191 0.731 0.125 1.124-0.198 0.095-0.078 0.192-0.131 0.214-0.117 0.025 0.015 0.041 0.313 0.041 0.766v0.741l-0.106 0.084c-0.278 0.218-1.128 0.339-1.611 0.228zM10.23 21.574c-0.015-0.015-0.027-0.957-0.027-2.093 0-1.847 0.007-2.069 0.064-2.090 0.094-0.036 1.279-0.029 1.337 0.008 0.035 0.022 0.053 0.226 0.060 0.695l0.011 0.664h0.807l0.002-0.646c0.001-0.355 0.016-0.668 0.033-0.696 0.036-0.057 1.34-0.073 1.428-0.017 0.040 0.025 0.049 0.474 0.040 2.107l-0.010 2.074-0.68 0.011c-0.467 0.008-0.698-0.003-0.736-0.035-0.043-0.036-0.056-0.197-0.056-0.727v-0.681h-0.807v0.678c0 0.473-0.015 0.692-0.048 0.726-0.052 0.052-1.366 0.072-1.417 0.022zM14.653 21.54c-0.045-0.033-0.053-0.398-0.044-2.077l0.011-2.037h3.428v1.129l-1.855 0.040v0.282l1.734 0.040v1.089l-0.824 0.011c-0.543 0.007-0.843 0.027-0.879 0.057-0.031 0.025-0.050 0.093-0.043 0.15l0.012 0.104 0.884 0.011c0.569 0.007 0.903 0.027 0.938 0.055 0.074 0.062 0.077 1.118 0.003 1.144-0.112 0.039-3.311 0.039-3.364 0zM0.068 21.534c-0.015-0.015-0.027-0.94-0.027-2.055 0-1.578 0.011-2.035 0.050-2.060 0.081-0.052 3.199-0.065 3.296-0.013 0.076 0.041 0.082 0.082 0.082 0.564 0 0.419-0.012 0.532-0.063 0.583-0.054 0.054-0.198 0.063-0.948 0.063h-0.884v0.282h0.842c0.652 0 0.852 0.012 0.887 0.054 0.056 0.067 0.040 1.017-0.017 1.074-0.023 0.023-0.39 0.045-0.865 0.051l-0.826 0.011-0.025 0.302h0.905c0.723 0 0.914 0.011 0.951 0.056 0.031 0.038 0.043 0.227 0.035 0.575l-0.011 0.519-1.677 0.011c-0.922 0.006-1.689-0.002-1.704-0.017zM4.126 21.491c-0.018-0.039-0.023-0.979-0.012-2.088l0.020-2.017h1.654v4.154l-0.815 0.011c-0.747 0.010-0.817 0.005-0.847-0.060zM18.692 21.511c-0.011-0.028-0.015-0.968-0.009-2.088l0.010-2.037 1.060-0.011c0.822-0.008 1.117 0.003 1.316 0.049 0.815 0.189 1.193 0.641 1.193 1.428 0 0.46-0.105 0.691-0.4 0.884-0.11 0.072-0.219 0.131-0.241 0.131-0.091 0-0.088 0.094 0.006 0.195 0.171 0.183 0.962 1.381 0.946 1.431-0.012 0.034-0.253 0.047-0.88 0.047h-0.864l-0.282-0.555c-0.155-0.305-0.295-0.555-0.311-0.555s-0.034 0.249-0.040 0.555l-0.011 0.555-0.737 0.011c-0.567 0.009-0.741-0.001-0.757-0.040zM20.631 19.082c0.213-0.213 0.049-0.524-0.262-0.498l-0.143 0.012-0.012 0.237c-0.007 0.131-0.003 0.262 0.009 0.292 0.037 0.095 0.297 0.067 0.409-0.044zM8.605 16.278c-0.537-0.141-1.136-0.504-1.493-0.904-0.864-0.969-1.042-2.324-0.454-3.452 0.345-0.661 0.925-1.186 1.597-1.444 0.518-0.199 0.648-0.209 2.741-0.209 1.881 0 1.949 0.003 1.989 0.078 0.050 0.094 0.018 0.193-0.081 0.246-0.042 0.022-0.488 0.039-1.034 0.039-0.753-0-1.033 0.015-1.296 0.069-0.293 0.061-0.34 0.062-0.373 0.010-0.021-0.033-0.029-0.082-0.019-0.11 0.029-0.079-0.083-0.059-0.229 0.040-0.073 0.050-0.492 0.36-0.93 0.688-0.534 0.4-0.813 0.636-0.847 0.714-0.028 0.065-0.31 0.339-0.642 0.622-0.619 0.529-0.641 0.561-0.593 0.842 0.041 0.238 0.079 0.248 0.322 0.085 0.159-0.107 0.234-0.136 0.279-0.108 0.106 0.067 0.091 0.161-0.038 0.236-0.164 0.097-0.155 0.136 0.031 0.136 0.112 0 0.18-0.027 0.249-0.101 0.052-0.055 0.151-0.117 0.219-0.138s0.228-0.075 0.355-0.121c0.146-0.053 0.328-0.084 0.496-0.084 0.302 0 0.442-0.058 0.575-0.238 0.051-0.069 0.125-0.125 0.165-0.125 0.161 0 0.276 0.224 0.611 1.19 0.312 0.902 0.503 1.297 0.786 1.633 0.269 0.319 0.284 0.348 0.221 0.424-0.042 0.051-0.227 0.060-1.184 0.058-0.974-0.002-1.175-0.013-1.422-0.078zM14.589 14.379c-0.099-0.058-0.088-0.222 0.019-0.297 0.101-0.071 0.49-0.086 0.65-0.025 0.146 0.056 0.18 0.201 0.067 0.292-0.069 0.056-0.159 0.073-0.378 0.072-0.158-0.001-0.32-0.020-0.358-0.042zM14.139 13.794c-0.088-0.088-0.079-0.163 0.026-0.237 0.070-0.049 0.206-0.063 0.628-0.063 0.574 0 0.694 0.030 0.694 0.175 0 0.171-0.063 0.188-0.691 0.188-0.486 0-0.605-0.011-0.657-0.063zM13.652 13.252c-0.060-0.067-0.065-0.098-0.027-0.181l0.046-0.101h0.88c0.631 0 0.894 0.014 0.928 0.048 0.067 0.067 0.060 0.176-0.015 0.251-0.054 0.054-0.193 0.063-0.901 0.063-0.787 0-0.842-0.005-0.911-0.081zM13.148 12.709c-0.071-0.085-0.018-0.248 0.090-0.277 0.050-0.013 0.527-0.025 1.060-0.025 0.812-0 0.983 0.010 1.059 0.062 0.099 0.069 0.116 0.177 0.041 0.252-0.035 0.035-0.341 0.048-1.124 0.048-0.903 0-1.084-0.010-1.126-0.060zM12.573 12.201c-0.081-0.047-0.094-0.2-0.022-0.271 0.069-0.069 2.576-0.069 2.646 0 0.074 0.074 0.058 0.226-0.030 0.273-0.105 0.056-2.497 0.054-2.594-0.002zM11.865 11.631c-0.027-0.027-0.048-0.077-0.048-0.113 0-0.156 0.052-0.161 1.53-0.161 0.789 0 1.454 0.014 1.478 0.030 0.068 0.045 0.090 0.143 0.050 0.221-0.034 0.065-0.147 0.071-1.499 0.071-1.084 0-1.475-0.013-1.511-0.048zM10.938 11.107c-0.074-0.074-0.057-0.226 0.030-0.273 0.052-0.028 0.622-0.039 1.679-0.032 1.561 0.010 1.601 0.013 1.655 0.093 0.047 0.070 0.046 0.096-0.007 0.171l-0.062 0.089h-1.623c-1.209 0-1.635-0.012-1.671-0.048z"></path>
<path d="M7.794 21.579c-0.622-0.168-1.205-0.679-1.416-1.242-0.183-0.489-0.184-1.186-0.004-1.645 0.112-0.284 0.364-0.642 0.591-0.838 0.233-0.202 0.675-0.421 0.986-0.489 0.339-0.074 0.958-0.032 1.304 0.089l0.282 0.098 0.011 0.795c0.006 0.437-0 0.795-0.014 0.795s-0.091-0.052-0.172-0.116c-0.222-0.175-0.473-0.29-0.69-0.315-0.155-0.018-0.239-0.002-0.414 0.078-0.248 0.114-0.369 0.257-0.441 0.525-0.141 0.529 0.428 1.062 0.979 0.916 0.207-0.055 0.468-0.198 0.576-0.318 0.171-0.188 0.185-0.134 0.185 0.681v0.765l-0.16 0.082c-0.379 0.194-1.154 0.261-1.604 0.14zM0.089 21.513c-0.076-0.076-0.070-3.998 0.006-4.061 0.040-0.033 0.515-0.043 1.684-0.035l1.629 0.011v1.129l-0.928 0.022c-0.51 0.012-0.932 0.026-0.938 0.030s-0.010 0.072-0.010 0.149c0 0.078 0.005 0.145 0.010 0.149s0.4 0.018 0.877 0.030l0.867 0.022 0.011 0.534c0.006 0.294 0.006 0.538 0 0.542s-0.401 0.018-0.878 0.030l-0.867 0.022-0.013 0.137c-0.008 0.082 0.008 0.15 0.040 0.171 0.029 0.019 0.458 0.034 0.952 0.034l0.898 0.001-0.022 1.109-1.635 0.011c-1.238 0.008-1.647-0.001-1.684-0.038zM4.162 21.512c-0.070-0.070-0.070-4.028 0-4.098 0.068-0.068 1.529-0.068 1.597 0 0.036 0.036 0.048 0.547 0.048 2.049s-0.012 2.012-0.048 2.049c-0.034 0.034-0.269 0.048-0.799 0.048s-0.764-0.014-0.799-0.048zM10.222 21.51c-0.011-0.028-0.015-0.958-0.009-2.067l0.010-2.017h1.412l0.040 1.371h0.807l0.040-1.371h1.452v4.114l-1.422 0.022-0.071-1.434-0.383 0.015c-0.211 0.008-0.397 0.023-0.413 0.033s-0.030 0.326-0.030 0.701v0.683h-0.707c-0.528 0-0.712-0.013-0.726-0.050zM14.667 21.531c-0.010-0.017-0.032-0.912-0.049-1.989-0.022-1.476-0.018-1.98 0.018-2.047l0.048-0.089 3.324 0.021v1.129l-1.855 0.040v0.282l1.734 0.040v1.089l-1.694 0.040-0.025 0.302h0.621c0.342 0 0.761 0.012 0.931 0.026l0.31 0.026-0.022 1.137-1.661 0.011c-0.914 0.006-1.669-0.003-1.68-0.020zM18.743 21.517c-0.066-0.038-0.071-0.18-0.071-2.054 0-1.949 0.002-2.014 0.078-2.055 0.101-0.054 1.6-0.054 2.070-0.001 0.884 0.101 1.372 0.546 1.43 1.302 0.043 0.562-0.134 0.906-0.569 1.111-0.102 0.048-0.185 0.093-0.185 0.101s0.046 0.066 0.103 0.131c0.235 0.267 0.955 1.384 0.932 1.445-0.021 0.054-0.132 0.063-0.794 0.063-0.458 0-0.802-0.017-0.849-0.042-0.043-0.023-0.21-0.3-0.37-0.615l-0.292-0.573-0.011 0.562c-0.007 0.33-0.029 0.584-0.055 0.615-0.055 0.066-1.305 0.074-1.416 0.010zM20.497 19.179c0.173-0.048 0.232-0.134 0.232-0.337 0-0.173-0.112-0.262-0.347-0.276l-0.158-0.010-0.012 0.278c-0.018 0.41-0.006 0.425 0.284 0.345zM8.852 16.317c-0.561-0.086-1.136-0.391-1.597-0.846-0.391-0.386-0.621-0.746-0.788-1.235-0.098-0.285-0.109-0.378-0.112-0.903-0.003-0.51 0.009-0.621 0.090-0.863 0.288-0.86 0.834-1.511 1.56-1.859 0.667-0.32 0.639-0.317 2.852-0.333 2.025-0.015 2.129-0.008 2.129 0.145 0 0.157-0.065 0.168-1.026 0.17-0.661 0.002-1.017 0.020-1.232 0.063-0.475 0.096-0.502 0.094-0.517-0.035-0.007-0.061-0.031-0.111-0.053-0.111-0.054 0-0.315 0.18-0.902 0.623-0.266 0.201-0.614 0.46-0.772 0.576-0.177 0.13-0.303 0.255-0.328 0.326s-0.225 0.27-0.514 0.514c-0.648 0.547-0.651 0.55-0.702 0.652-0.060 0.119-0.012 0.493 0.067 0.523 0.032 0.012 0.139-0.035 0.237-0.104s0.215-0.127 0.259-0.127c0.121 0 0.097 0.133-0.043 0.236-0.147 0.109-0.124 0.167 0.066 0.167 0.097 0 0.173-0.032 0.243-0.103 0.151-0.151 0.664-0.324 1.064-0.359 0.384-0.033 0.464-0.064 0.597-0.229 0.211-0.262 0.375-0.082 0.645 0.711 0.399 1.17 0.501 1.413 0.73 1.748 0.086 0.125 0.212 0.281 0.281 0.346 0.135 0.128 0.164 0.281 0.061 0.321-0.091 0.035-2.053 0.021-2.296-0.017zM14.558 14.32c-0.039-0.047-0.040-0.085-0.006-0.161 0.043-0.094 0.063-0.1 0.381-0.1 0.356 0 0.432 0.033 0.432 0.185 0 0.117-0.067 0.137-0.442 0.137-0.233 0-0.328-0.016-0.366-0.062zM14.204 13.815c-0.072-0.029-0.090-0.063-0.081-0.149l0.013-0.111 0.629-0.011c0.516-0.009 0.638-0 0.679 0.049 0.068 0.081 0.019 0.211-0.090 0.24-0.141 0.038-1.047 0.024-1.151-0.018zM13.722 13.292c-0.115-0.046-0.123-0.221-0.013-0.28 0.115-0.062 1.666-0.056 1.729 0.007 0.074 0.074 0.058 0.226-0.030 0.273-0.096 0.052-1.558 0.052-1.686 0zM13.171 12.705c-0.077-0.077-0.078-0.102-0.013-0.192 0.046-0.063 0.151-0.068 1.139-0.058l1.089 0.011 0.013 0.117c0.008 0.066-0.010 0.131-0.040 0.151s-0.52 0.034-1.089 0.035c-0.888 0.001-1.045-0.008-1.099-0.063zM12.551 12.156c-0.068-0.068-0.061-0.13 0.025-0.208 0.065-0.059 0.216-0.067 1.304-0.067 1.191 0 1.233 0.003 1.306 0.083 0.058 0.064 0.065 0.099 0.032 0.151-0.039 0.061-0.172 0.069-1.331 0.079-0.968 0.008-1.3-0.002-1.337-0.038zM11.907 11.653c-0.064-0.026-0.065-0.184-0.002-0.248s2.781-0.070 2.898-0.007c0.088 0.047 0.102 0.16 0.030 0.232-0.036 0.036-0.413 0.048-1.462 0.045-0.777-0.002-1.436-0.012-1.464-0.024zM10.956 11.082c-0.084-0.092-0.084-0.144-0.003-0.211 0.051-0.042 0.395-0.052 1.677-0.046 0.887 0.004 1.63 0.018 1.65 0.030 0.058 0.036 0.043 0.167-0.026 0.237-0.055 0.055-0.261 0.063-1.647 0.063-1.483 0-1.588-0.005-1.651-0.074z"></path>
<path d="M7.875 21.583c-0.52-0.119-1.064-0.514-1.34-0.973-0.367-0.61-0.376-1.474-0.023-2.146 0.406-0.772 1.299-1.222 2.199-1.109 0.193 0.024 0.459 0.087 0.589 0.139l0.238 0.094 0.011 0.723c0.007 0.451-0.004 0.738-0.030 0.764-0.028 0.028-0.077 0.007-0.152-0.065-0.297-0.284-0.825-0.393-1.131-0.236-0.567 0.291-0.616 0.988-0.095 1.353 0.156 0.11 0.206 0.122 0.463 0.121 0.308-0.002 0.499-0.073 0.743-0.279 0.067-0.056 0.142-0.103 0.167-0.103 0.031 0 0.045 0.222 0.045 0.724 0 0.705-0.002 0.725-0.091 0.788-0.289 0.204-1.126 0.311-1.593 0.205zM10.263 21.511c-0.011-0.028-0.015-0.959-0.009-2.068l0.010-2.017h1.331l0.010 0.605c0.014 0.864-0.032 0.791 0.485 0.778l0.432-0.011-0.014-0.61c-0.010-0.409 0.001-0.638 0.032-0.697 0.045-0.084 0.066-0.087 0.72-0.076l0.674 0.011v4.114h-1.371l-0.040-1.412h-0.847l-0.040 1.412-0.676 0.011c-0.519 0.009-0.681-0.001-0.696-0.040zM14.68 21.527c-0.026-0.009-0.040-0.735-0.040-2.047v-2.034l3.368 0.021 0.011 0.501c0.007 0.32-0.004 0.517-0.032 0.544s-0.351 0.044-0.939 0.044h-0.895l-0.012 0.171c-0.007 0.094-0.007 0.175 0 0.179s0.403 0.018 0.88 0.030l0.867 0.022v1.008l-1.676 0.022-0.044 0.097c-0.024 0.053-0.033 0.143-0.018 0.2l0.026 0.103 1.834 0.022 0.011 0.535c0.009 0.407-0.001 0.54-0.040 0.553-0.060 0.021-3.239 0.047-3.298 0.027zM0.081 19.489v-2.032l0.151-0.025c0.083-0.014 0.815-0.025 1.625-0.025 1.093-0 1.487 0.012 1.522 0.048 0.071 0.071 0.067 1.015-0.005 1.075-0.034 0.029-0.368 0.048-0.938 0.055l-0.884 0.011-0.025 0.343h0.865c0.752 0 0.868 0.008 0.89 0.064 0.036 0.093 0.029 0.916-0.008 0.974-0.023 0.036-0.262 0.053-0.877 0.060l-0.845 0.011v0.363l1.855 0.040v1.049l-3.327 0.021v-2.032zM4.146 21.47c-0.009-0.028-0.009-0.953-0-2.057l0.016-2.006h1.605v4.114h-0.802c-0.606 0-0.806-0.012-0.819-0.050zM18.732 21.47c-0.011-0.028-0.015-0.949-0.009-2.047l0.010-1.996 2.339 0.001 0.302 0.12c0.583 0.232 0.854 0.644 0.853 1.295-0.001 0.513-0.14 0.76-0.532 0.943-0.11 0.052-0.2 0.112-0.2 0.135s0.043 0.088 0.096 0.144c0.172 0.185 0.956 1.375 0.931 1.415-0.014 0.023-0.364 0.039-0.848 0.039h-0.824l-0.304-0.607c-0.167-0.334-0.322-0.596-0.343-0.582s-0.039 0.273-0.039 0.607v0.582h-0.707c-0.528 0-0.712-0.013-0.726-0.050zM20.582 19.177c0.15-0.069 0.228-0.287 0.163-0.458-0.061-0.158-0.504-0.254-0.555-0.119-0.013 0.035-0.024 0.161-0.024 0.279s0.011 0.244 0.024 0.279c0.029 0.075 0.246 0.086 0.393 0.019zM8.605 16.238c-1.037-0.272-1.881-1.121-2.159-2.173-0.116-0.438-0.115-1.088 0.001-1.51 0.284-1.030 1.034-1.797 2.102-2.15 0.2-0.066 0.421-0.075 2.272-0.087 2.030-0.013 2.164-0.006 2.164 0.114 0 0.018-0.028 0.061-0.063 0.096-0.054 0.054-0.207 0.063-1.051 0.063-0.757 0-1.053 0.015-1.269 0.064-0.306 0.070-0.41 0.056-0.391-0.052 0.034-0.199-0.231-0.058-0.961 0.51-0.158 0.123-0.462 0.351-0.675 0.506-0.238 0.173-0.402 0.323-0.425 0.388-0.021 0.058-0.286 0.32-0.596 0.588-0.307 0.266-0.585 0.515-0.618 0.555-0.102 0.123-0.035 0.627 0.083 0.627 0.026 0 0.137-0.065 0.247-0.144 0.185-0.133 0.313-0.158 0.313-0.060 0 0.022-0.054 0.081-0.121 0.13-0.176 0.13-0.157 0.195 0.059 0.195 0.138 0 0.201-0.023 0.272-0.098 0.153-0.162 0.716-0.343 1.072-0.345 0.27-0.001 0.452-0.077 0.581-0.243 0.212-0.271 0.322-0.114 0.72 1.028 0.382 1.095 0.523 1.376 0.898 1.784 0.27 0.294 0.271 0.293-1.030 0.291-0.98-0.002-1.181-0.013-1.428-0.078zM14.608 14.333c-0.073-0.073-0.058-0.185 0.030-0.232 0.084-0.045 0.451-0.055 0.596-0.017 0.123 0.033 0.163 0.175 0.069 0.244s-0.628 0.072-0.695 0.005zM14.164 13.769c-0.027-0.027-0.048-0.071-0.048-0.099 0-0.108 0.165-0.137 0.711-0.126 0.455 0.009 0.558 0.023 0.592 0.076 0.023 0.036 0.030 0.095 0.016 0.131-0.022 0.057-0.107 0.066-0.623 0.066-0.411 0-0.613-0.015-0.647-0.048zM13.669 13.229c-0.038-0.046-0.041-0.082-0.011-0.131 0.037-0.059 0.152-0.069 0.912-0.078 0.849-0.011 0.87-0.009 0.896 0.072 0.059 0.185-0.012 0.2-0.908 0.2-0.715 0-0.845-0.009-0.89-0.064zM13.175 12.702c-0.054-0.054-0.026-0.173 0.050-0.214 0.048-0.025 0.461-0.042 1.061-0.042 1.038 0 1.145 0.018 1.113 0.184-0.014 0.075-0.064 0.078-1.106 0.089-0.6 0.006-1.104-0.002-1.119-0.017zM12.585 12.145c-0.027-0.032-0.042-0.091-0.035-0.131 0.013-0.068 0.095-0.072 1.324-0.072h1.31l0.014 0.096c0.007 0.053-0.011 0.112-0.040 0.13s-0.61 0.034-1.289 0.035c-1.031 0.001-1.243-0.009-1.284-0.058zM11.872 11.579c-0.013-0.033-0.013-0.088 0-0.121 0.020-0.052 0.222-0.060 1.475-0.060 1.37 0 1.454 0.004 1.492 0.075 0.085 0.159 0.011 0.168-1.498 0.168-1.247 0-1.448-0.008-1.468-0.060zM10.956 11.088c-0.051-0.051-0.027-0.207 0.037-0.231 0.035-0.013 0.779-0.024 1.652-0.024 1.48 0 1.591 0.005 1.627 0.072 0.024 0.045 0.024 0.097-0.001 0.141-0.036 0.064-0.167 0.070-1.664 0.070-0.894 0-1.637-0.012-1.652-0.027z"></path>
<path d="M7.756 21.526c-0.335-0.099-0.659-0.302-0.916-0.571-0.442-0.464-0.57-0.839-0.539-1.585 0.019-0.458 0.026-0.488 0.186-0.811 0.282-0.57 0.791-0.976 1.426-1.138 0.349-0.089 0.923-0.058 1.302 0.071l0.282 0.096 0.011 0.736c0.006 0.405 0.002 0.736-0.010 0.736s-0.103-0.063-0.204-0.14c-0.459-0.351-1.013-0.338-1.336 0.029-0.35 0.398-0.252 0.952 0.217 1.228 0.349 0.205 0.817 0.124 1.215-0.211l0.127-0.107v0.725c0 0.561-0.012 0.735-0.055 0.77-0.256 0.212-1.238 0.311-1.707 0.172zM0.373 21.491l-0.293-0.014 0.021-4.009h3.267v1.049l-0.884 0.011c-0.569 0.007-0.903 0.027-0.938 0.055-0.067 0.055-0.070 0.284-0.005 0.349 0.035 0.035 0.289 0.048 0.888 0.048h0.84l-0.023 1.028-1.734 0.040-0.013 0.154c-0.022 0.269-0.022 0.269 0.987 0.269h0.904l-0.023 1.028-1.351 0.002c-0.743 0.001-1.483-0.004-1.644-0.012zM4.91 21.489l-0.757-0.011 0.021-4.051h1.573l0.010 2.022c0.008 1.598-0 2.025-0.040 2.037-0.028 0.008-0.391 0.010-0.807 0.004zM10.262 21.47c-0.011-0.028-0.015-0.94-0.009-2.027l0.010-1.976h1.331l0.011 0.664c0.008 0.469 0.026 0.673 0.060 0.695 0.027 0.017 0.213 0.031 0.412 0.031s0.385-0.014 0.412-0.031c0.035-0.022 0.053-0.226 0.060-0.695l0.011-0.664h1.371v4.033l-1.341 0.022-0.071-1.434-0.373-0.012c-0.561-0.017-0.535-0.055-0.535 0.759v0.684h-0.667c-0.496 0-0.672-0.013-0.686-0.050zM14.68 19.484v-2.038l3.287 0.021 0.023 1.069h-1.856l-0.024 0.097c-0.013 0.053-0.018 0.139-0.011 0.192l0.013 0.095 1.734 0.040v1.008l-1.694 0.040-0.013 0.177c-0.008 0.115 0.006 0.189 0.040 0.211 0.029 0.018 0.448 0.034 0.931 0.034l0.878 0.001-0.023 1.069-3.287 0.021v-2.038zM18.75 21.455c-0.022-0.027-0.033-0.852-0.027-2.017l0.010-1.972 1.069-0.011c1.157-0.012 1.338 0.008 1.719 0.188 0.41 0.194 0.632 0.534 0.687 1.053s-0.134 0.893-0.548 1.087c-0.112 0.053-0.204 0.114-0.204 0.137s0.052 0.097 0.116 0.165c0.14 0.148 0.95 1.349 0.925 1.373-0.027 0.027-1.611 0.029-1.64 0.002-0.015-0.014-0.154-0.282-0.309-0.597s-0.305-0.579-0.333-0.587c-0.039-0.011-0.050 0.126-0.050 0.593 0 0.335-0.014 0.609-0.030 0.609-0.678 0.023-1.355 0.011-1.385-0.026zM20.539 19.207c0.177-0.074 0.239-0.159 0.239-0.331 0-0.181-0.125-0.323-0.316-0.359-0.27-0.051-0.297-0.017-0.297 0.361 0 0.232 0.016 0.343 0.050 0.357 0.090 0.036 0.192 0.028 0.324-0.028zM8.953 16.289c-0.255-0.029-0.701-0.177-0.968-0.321-0.748-0.404-1.245-1.011-1.497-1.828-0.134-0.436-0.134-1.219 0.001-1.654 0.162-0.521 0.393-0.903 0.798-1.317 0.269-0.275 0.528-0.444 0.927-0.605 0.6-0.242 0.756-0.256 2.802-0.256 1.579 0 1.847 0.008 1.89 0.060 0.027 0.033 0.039 0.087 0.026 0.121-0.020 0.052-0.167 0.061-1.003 0.062-0.734 0.001-1.045 0.017-1.241 0.063-0.401 0.094-0.422 0.093-0.436-0.034-0.024-0.213-0.117-0.161-1.303 0.726-0.703 0.525-0.804 0.613-0.848 0.732-0.021 0.058-0.284 0.313-0.586 0.569-0.301 0.255-0.574 0.504-0.607 0.555-0.118 0.18 0.021 0.713 0.165 0.629 0.026-0.015 0.123-0.079 0.216-0.142 0.264-0.179 0.36-0.14 0.128 0.052-0.175 0.144-0.137 0.238 0.098 0.238 0.141 0 0.197-0.023 0.287-0.117 0.062-0.064 0.151-0.126 0.199-0.137s0.187-0.056 0.309-0.1c0.122-0.044 0.385-0.093 0.585-0.109 0.356-0.028 0.366-0.032 0.515-0.189 0.27-0.283 0.321-0.218 0.72 0.927 0.335 0.961 0.523 1.352 0.822 1.714 0.132 0.16 0.218 0.299 0.205 0.333-0.018 0.048-0.191 0.057-1.042 0.051-0.561-0.004-1.083-0.014-1.161-0.023zM14.601 14.283c-0.042-0.050-0.042-0.074 0-0.124 0.040-0.048 0.123-0.059 0.378-0.050 0.318 0.011 0.327 0.014 0.327 0.112s-0.008 0.101-0.327 0.112c-0.255 0.009-0.338-0.002-0.378-0.050zM14.163 13.686c0.013-0.089 0.026-0.091 0.602-0.102 0.481-0.009 0.598-0 0.639 0.049 0.101 0.122 0.004 0.144-0.628 0.144h-0.626l0.013-0.091zM13.742 13.249c-0.088-0.051-0.092-0.182-0.007-0.214 0.035-0.013 0.406-0.024 0.823-0.024s0.788 0.011 0.823 0.024c0.089 0.034 0.080 0.166-0.014 0.216-0.102 0.055-1.531 0.053-1.626-0.002zM13.188 12.668c-0.041-0.049-0.041-0.073 0-0.122 0.043-0.052 0.203-0.060 1.104-0.050l1.053 0.011v0.202l-1.053 0.011c-0.901 0.009-1.060 0.002-1.104-0.050zM12.569 12.104c-0.012-0.033 0.005-0.087 0.039-0.121 0.053-0.053 0.239-0.062 1.261-0.062 1.257 0 1.374 0.015 1.313 0.172-0.024 0.064-0.132 0.069-1.309 0.069-1.091 0-1.285-0.009-1.305-0.059zM11.924 11.613c-0.060-0.060-0.023-0.174 0.064-0.195 0.050-0.012 0.697-0.017 1.437-0.011 1.24 0.010 1.35 0.017 1.391 0.083 0.035 0.056 0.031 0.080-0.016 0.11-0.068 0.043-2.834 0.056-2.877 0.013zM10.994 11.053c-0.083-0.083-0.043-0.169 0.089-0.186 0.059-0.008 0.794-0.009 1.632-0.003 1.3 0.010 1.528 0.020 1.547 0.071 0.013 0.033 0.001 0.087-0.027 0.12-0.076 0.091-3.15 0.090-3.242-0.002z"></path>
<path d="M7.963 21.543c-0.422-0.078-0.72-0.239-1.056-0.571-0.357-0.352-0.506-0.644-0.578-1.129-0.198-1.333 0.762-2.452 2.1-2.447 0.332 0.001 0.749 0.081 0.964 0.184 0.069 0.033 0.104 0.081 0.102 0.14-0.002 0.050-0.006 0.363-0.010 0.697l-0.007 0.607-0.133-0.102c-0.352-0.269-0.829-0.358-1.117-0.208-0.639 0.332-0.676 1.127-0.069 1.475 0.351 0.202 0.729 0.16 1.144-0.125 0.093-0.064 0.18-0.117 0.193-0.117s0.019 0.303 0.013 0.673l-0.011 0.673-0.122 0.071c-0.299 0.175-0.972 0.259-1.412 0.178zM10.303 21.47c-0.011-0.028-0.015-0.936-0.009-2.019l0.010-1.968 1.25-0 0.040 1.356h0.968l0.022-1.351h1.33l-0.021 4.013h-1.291l-0.040-1.412h-0.928l-0.023 0.706c-0.012 0.388-0.026 0.71-0.030 0.716s-0.29 0.010-0.634 0.010c-0.464 0-0.631-0.013-0.646-0.050zM0.121 19.484v-1.997h3.226v0.996l-0.611 0.026c-0.336 0.015-0.752 0.026-0.923 0.026-0.336 0-0.361 0.017-0.36 0.235 0.001 0.205 0.008 0.206 0.909 0.218l0.845 0.011 0.023 0.988h-0.847c-0.796 0-0.849 0.005-0.889 0.078-0.049 0.092-0.054 0.284-0.009 0.355 0.023 0.036 0.278 0.053 0.957 0.060l0.926 0.011v0.968l-3.247 0.021v-1.997zM4.194 19.463v-2.017h1.533v4.033h-1.533v-2.017zM14.68 19.484v-1.997l3.287 0.021v0.968l-1.852 0.040-0.028 0.138c-0.016 0.076-0.012 0.18 0.007 0.231 0.035 0.093 0.039 0.093 0.894 0.104l0.858 0.011v0.928l-0.824 0.011c-0.542 0.007-0.843 0.027-0.879 0.057s-0.051 0.111-0.043 0.231l0.012 0.185 1.855 0.040v1.008l-3.287 0.021v-1.997zM18.772 21.43c-0.011-0.028-0.015-0.931-0.009-2.006l0.011-1.956 0.928-0.011c0.51-0.006 1.050 0.008 1.199 0.030 0.817 0.126 1.232 0.531 1.273 1.246 0.031 0.548-0.118 0.835-0.538 1.034-0.238 0.113-0.265 0.169-0.134 0.287 0.091 0.082 0.905 1.254 0.947 1.363 0.022 0.058-0.057 0.065-0.766 0.065h-0.791l-0.325-0.648c-0.195-0.389-0.344-0.642-0.373-0.632-0.035 0.012-0.052 0.198-0.060 0.648l-0.011 0.632h-0.666c-0.495 0-0.671-0.013-0.685-0.050zM20.692 19.144c0.17-0.17 0.166-0.399-0.009-0.546-0.107-0.090-0.159-0.104-0.333-0.094l-0.206 0.012-0.012 0.319c-0.007 0.175-0.003 0.343 0.009 0.373 0.014 0.035 0.092 0.054 0.227 0.054 0.174 0 0.224-0.018 0.324-0.118zM8.728 16.217c-0.998-0.217-1.866-1.010-2.186-1.996-0.147-0.455-0.17-1.155-0.052-1.611 0.222-0.856 0.779-1.564 1.508-1.918 0.676-0.328 0.6-0.319 2.885-0.335l2.030-0.014-0.026 0.186-1.149 0.022c-0.766 0.014-1.187 0.038-1.263 0.071-0.16 0.069-0.189 0.062-0.189-0.048 0-0.107-0.083-0.157-0.192-0.116-0.076 0.029-0.47 0.309-1.119 0.797-0.779 0.585-0.833 0.63-0.882 0.748-0.028 0.065-0.149 0.202-0.269 0.304-1.045 0.882-1.032 0.865-0.968 1.21 0.023 0.123 0.052 0.24 0.065 0.261 0.044 0.071 0.16 0.038 0.372-0.104 0.124-0.083 0.211-0.121 0.211-0.091-0 0.028-0.055 0.082-0.121 0.12-0.141 0.080-0.161 0.214-0.037 0.246 0.142 0.037 0.375-0.019 0.481-0.115 0.194-0.178 0.559-0.274 1.448-0.379 0.009-0.001 0.085-0.076 0.169-0.167s0.172-0.153 0.196-0.138c0.081 0.050 0.234 0.401 0.465 1.070 0.368 1.063 0.537 1.4 0.895 1.785 0.098 0.106 0.167 0.21 0.154 0.232-0.039 0.063-2.123 0.045-2.423-0.020zM14.751 14.314c-0.117-0.014-0.151-0.036-0.151-0.096 0-0.071 0.030-0.078 0.338-0.078 0.26 0 0.344 0.014 0.361 0.059 0.012 0.033 0.007 0.069-0.012 0.081-0.055 0.034-0.368 0.054-0.536 0.034zM14.196 13.735c-0.052-0.035-0.050-0.048 0.017-0.099 0.059-0.045 0.197-0.058 0.59-0.055 0.537 0.004 0.631 0.025 0.59 0.132-0.021 0.055-0.108 0.064-0.581 0.064-0.306-0-0.583-0.019-0.616-0.041zM13.723 13.207c-0.025-0.025-0.036-0.070-0.024-0.101 0.017-0.045 0.185-0.056 0.862-0.056 0.846 0 0.948 0.017 0.844 0.143-0.040 0.048-0.197 0.059-0.842 0.059-0.533 0-0.808-0.015-0.839-0.045zM13.206 12.645c-0.064-0.104 0.087-0.119 1.093-0.109 0.898 0.009 1.046 0.019 1.046 0.071s-0.149 0.062-1.056 0.071c-0.737 0.008-1.064-0.003-1.083-0.034zM12.597 12.101c-0.013-0.035-0.007-0.081 0.014-0.102 0.023-0.023 0.539-0.034 1.286-0.028 1.217 0.010 1.248 0.013 1.248 0.091s-0.030 0.081-1.261 0.091c-1.119 0.009-1.264 0.004-1.286-0.053zM11.915 11.555c-0.015-0.024-0.010-0.061 0.010-0.081 0.022-0.022 0.62-0.033 1.446-0.027 1.304 0.010 1.409 0.016 1.422 0.081s-0.076 0.071-1.419 0.071c-0.988 0-1.441-0.014-1.459-0.044zM10.983 11.012c-0.013-0.035-0.007-0.081 0.014-0.102 0.023-0.023 0.669-0.034 1.629-0.028 1.56 0.010 1.591 0.012 1.591 0.091s-0.030 0.081-1.604 0.091c-1.431 0.009-1.607 0.004-1.629-0.053z"></path>
<path d="M7.825 21.48c-0.389-0.105-0.678-0.282-0.969-0.592-0.465-0.496-0.623-1.134-0.465-1.88 0.172-0.811 0.894-1.456 1.755-1.567 0.373-0.048 0.873 0.011 1.18 0.14l0.151 0.063v1.339l-0.139-0.106c-0.436-0.332-1.033-0.344-1.367-0.027-0.202 0.192-0.279 0.392-0.261 0.679 0.021 0.33 0.167 0.549 0.471 0.708 0.359 0.188 0.754 0.13 1.178-0.172l0.117-0.084v0.643c0 0.629-0.002 0.645-0.094 0.705-0.31 0.203-1.086 0.277-1.558 0.149zM10.324 19.484v-1.996h1.21v0.628c0 0.356 0.018 0.662 0.042 0.706 0.037 0.070 0.088 0.078 0.499 0.078 0.344 0 0.469-0.014 0.505-0.057 0.032-0.039 0.045-0.26 0.041-0.696l-0.006-0.639 1.258-0.022v3.995h-1.25v-0.678c0-0.473-0.015-0.692-0.048-0.726-0.051-0.051-0.816-0.070-0.936-0.024-0.055 0.021-0.064 0.124-0.064 0.726v0.701h-1.25v-1.996zM14.72 19.509v-1.981h3.226v0.928h-0.899c-0.646 0-0.913 0.014-0.948 0.048-0.075 0.075-0.063 0.462 0.015 0.492 0.035 0.013 0.434 0.024 0.887 0.024h0.823v0.887h-0.824c-0.695 0-0.834 0.010-0.887 0.063-0.075 0.075-0.086 0.382-0.015 0.453 0.035 0.035 0.302 0.048 0.948 0.048h0.899v0.968l-1.462 0c-0.804 0-1.53 0.012-1.613 0.025l-0.151 0.025v-1.981zM0.161 19.487v-1.953l0.252-0.026c0.139-0.014 0.851-0.020 1.583-0.013l1.331 0.013v0.968l-1.855 0.040v0.484l1.752 0.022-0.018 0.925-0.827 0.001c-0.455 0.001-0.85 0.016-0.879 0.034-0.036 0.023-0.049 0.108-0.040 0.272l0.012 0.238 1.875 0.022v0.926h-3.186v-1.953zM4.225 19.463l0.011-1.976h1.45v3.952h-1.472l0.011-1.976zM18.794 19.463v-1.976l1.018 0.001c0.766 0 1.082 0.016 1.277 0.062 0.505 0.119 0.86 0.398 0.989 0.776 0.071 0.207 0.083 0.72 0.023 0.938-0.050 0.181-0.248 0.373-0.497 0.483-0.107 0.047-0.204 0.112-0.216 0.143s0.040 0.127 0.121 0.216c0.112 0.124 0.734 1.022 0.889 1.283 0.023 0.040-0.133 0.050-0.73 0.050h-0.76l-0.312-0.627c-0.444-0.892-0.51-0.888-0.511 0.032l-0.001 0.595h-1.291v-1.976zM20.736 19.146c0.276-0.309 0.051-0.691-0.408-0.691-0.214 0-0.244 0.052-0.244 0.423 0 0.402 0.027 0.436 0.319 0.413 0.183-0.015 0.237-0.038 0.333-0.145zM8.488 16.124c-0.942-0.316-1.647-1.035-1.939-1.98-0.088-0.286-0.105-0.415-0.105-0.828 0-0.767 0.197-1.306 0.696-1.909 0.281-0.339 0.516-0.525 0.885-0.698 0.744-0.35 0.898-0.368 3.085-0.352 1.545 0.011 1.774 0.020 1.774 0.073s-0.158 0.064-1.089 0.084c-0.599 0.013-1.152 0.042-1.23 0.066-0.244 0.073-0.258 0.074-0.264 0.012-0.003-0.033-0.009-0.083-0.012-0.111-0.011-0.087-0.217-0.055-0.386 0.060-0.247 0.168-1.644 1.217-1.747 1.312-0.050 0.046-0.091 0.112-0.091 0.148s-0.139 0.182-0.309 0.326c-1.005 0.848-1.009 0.855-0.925 1.219 0.028 0.119 0.064 0.238 0.080 0.265 0.041 0.066 0.151 0.060 0.255-0.013 0.083-0.058 0.087-0.056 0.080 0.050-0.007 0.109-0.002 0.112 0.23 0.124 0.212 0.011 0.25 0.001 0.351-0.097 0.193-0.185 0.573-0.298 1.219-0.362 0.205-0.021 0.255-0.044 0.395-0.183 0.088-0.088 0.177-0.149 0.199-0.135 0.075 0.046 0.191 0.324 0.441 1.047 0.319 0.927 0.545 1.391 0.828 1.704 0.122 0.134 0.221 0.255 0.221 0.268s-0.522 0.023-1.159 0.022c-1.149-0.002-1.162-0.003-1.484-0.111zM14.64 14.22c0-0.079 0.019-0.083 0.313-0.072 0.246 0.009 0.313 0.025 0.313 0.072s-0.067 0.063-0.313 0.072c-0.294 0.011-0.313 0.007-0.313-0.072zM14.206 13.686c0.012-0.036 0.175-0.053 0.588-0.062 0.49-0.010 0.571-0.002 0.571 0.050s-0.088 0.062-0.588 0.062c-0.453 0-0.584-0.012-0.571-0.050zM13.712 13.152c0-0.052 0.121-0.060 0.847-0.060s0.847 0.009 0.847 0.060c0 0.052-0.121 0.060-0.847 0.060s-0.847-0.009-0.847-0.060zM13.254 12.66c-0.014-0.014-0.026-0.050-0.026-0.080 0-0.045 0.188-0.053 1.038-0.044 0.891 0.009 1.038 0.019 1.038 0.071s-0.143 0.062-1.013 0.070c-0.557 0.005-1.024-0.003-1.038-0.017zM12.623 12.067c0-0.031 0.023-0.065 0.050-0.075 0.077-0.030 2.307-0.036 2.383-0.006 0.037 0.014 0.067 0.051 0.067 0.082 0 0.047-0.209 0.056-1.25 0.056s-1.25-0.009-1.25-0.056zM11.938 11.518c0-0.026 0.497-0.040 1.409-0.040 0.896 0 1.418 0.015 1.434 0.040s-0.463 0.040-1.409 0.040c-0.929 0-1.434-0.014-1.434-0.040zM11.037 11.048c-0.015-0.015-0.027-0.051-0.027-0.081 0-0.044 0.291-0.054 1.586-0.054 0.873 0 1.598 0.012 1.613 0.027s0.006 0.051-0.018 0.081c-0.036 0.044-0.346 0.054-1.586 0.054-0.848 0-1.553-0.012-1.568-0.027z"></path>
</svg>
