<?xml version="1.0" encoding="utf-8"?>
<!-- Generator: Adobe Illustrator 16.0.0, SVG Export Plug-In . SVG Version: 6.00 Build 0)  -->
<!DOCTYPE svg PUBLIC "-//W3C//DTD SVG 1.1//EN" "http://www.w3.org/Graphics/SVG/1.1/DTD/svg11.dtd">
<svg version="1.1" id="Layer_1" xmlns="http://www.w3.org/2000/svg" xmlns:xlink="http://www.w3.org/1999/xlink" x="0px" y="0px"
	 width="941.11px" height="500px" viewBox="0 0 941.11 500" enable-background="new 0 0 941.11 500" xml:space="preserve">
<g>
	<path fill="#231F1F" d="M86.883,304.697c-18.748,0-34.001,15.252-34.001,34s15.253,33.998,34.001,33.998
		c18.747,0,33.999-15.25,33.999-33.998S105.629,304.697,86.883,304.697z M86.882,355.92c-9.496,0-17.221-7.728-17.221-17.223
		s7.725-17.223,17.221-17.223s17.221,7.728,17.221,17.223S96.378,355.92,86.882,355.92z"/>
	<circle fill="#231F1F" cx="86.882" cy="338.697" r="15.249"/>
</g>
<g>
	<path fill="#231F1F" d="M319.889,304.695c-18.748,0-34.001,15.252-34.001,34s15.253,33.998,34.001,33.998
		c18.747,0,33.999-15.25,33.999-33.998S338.635,304.695,319.889,304.695z M319.888,355.918c-9.496,0-17.221-7.728-17.221-17.223
		s7.725-17.223,17.221-17.223s17.221,7.728,17.221,17.223S329.384,355.918,319.888,355.918z"/>
	<circle fill="#231F1F" cx="319.888" cy="338.695" r="15.249"/>
</g>
<g>
	<path fill="#231F1F" d="M400.774,304.695c-18.748,0-34.001,15.252-34.001,34s15.253,33.998,34.001,33.998
		c18.747,0,33.999-15.25,33.999-33.998S419.521,304.695,400.774,304.695z M400.773,355.918c-9.496,0-17.221-7.728-17.221-17.223
		s7.725-17.223,17.221-17.223s17.221,7.728,17.221,17.223S410.27,355.918,400.773,355.918z"/>
	<circle fill="#231F1F" cx="400.773" cy="338.695" r="15.249"/>
</g>
<g>
	<path fill="#231F1F" d="M664.723,304.692c-18.748,0-34.001,15.252-34.001,34s15.253,33.998,34.001,33.998
		c18.747,0,33.999-15.25,33.999-33.998S683.469,304.692,664.723,304.692z M664.722,355.915c-9.496,0-17.221-7.728-17.221-17.223
		s7.725-17.223,17.221-17.223s17.221,7.728,17.221,17.223S674.218,355.915,664.722,355.915z"/>
	<circle fill="#231F1F" cx="664.722" cy="338.692" r="15.249"/>
</g>
<g>
	<path fill="#231F1F" d="M743.848,304.693c-18.748,0-34.001,15.252-34.001,34s15.253,33.998,34.001,33.998
		c18.747,0,33.999-15.25,33.999-33.998S762.594,304.693,743.848,304.693z M743.847,355.916c-9.496,0-17.221-7.728-17.221-17.223
		s7.725-17.223,17.221-17.223s17.221,7.728,17.221,17.223S753.343,355.916,743.847,355.916z"/>
	<circle fill="#231F1F" cx="743.847" cy="338.693" r="15.249"/>
</g>
<g>
	<path fill="#231F1F" d="M822.974,304.692c-18.748,0-34.001,15.252-34.001,34s15.253,33.998,34.001,33.998
		c18.747,0,33.999-15.25,33.999-33.998S841.72,304.692,822.974,304.692z M822.973,355.915c-9.496,0-17.221-7.728-17.221-17.223
		s7.725-17.223,17.221-17.223s17.221,7.728,17.221,17.223S832.469,355.915,822.973,355.915z"/>
	<circle fill="#231F1F" cx="822.973" cy="338.692" r="15.249"/>
</g>
<rect x="236.576" y="129.624" fill="#231F1F" width="7.316" height="155.662"/>
<polygon fill="#231F1F" points="257.197,285.286 236.576,285.286 236.576,233.399 257.197,254.495 "/>
<path fill="#231F1F" d="M278.798,290.938h-42.222v6.299c-4.797-0.24-8.648-4.226-8.648-9.078v-126.15
	c0-5.006-4.096-9.102-9.102-9.102h-62.953c-5.006,0-10.219,3.941-11.582,8.758l-16.328,57.656
	c-1.363,4.816-6.574,8.758-11.582,8.758H47.442c-5.006,0-9.102,4.094-9.102,9.1v55.637c0,5.008-2.695,9.104-5.988,9.104
	c-3.291,0-5.986,4.096-5.986,9.102v16.064c0,5.006,4.095,9.098,9.101,9.096l13.43-0.012c1.516-19.434,17.444-36.236,37.257-35.864
	c17.846,0.335,34.728,9.336,37.975,38.393h154.669V290.938z M72.266,274.644h-9.979v-36.588h9.979V274.644z M88.232,274.644h-9.98
	v-36.588h9.98V274.644z M104.197,274.644h-9.979v-36.588h9.979V274.644z M154.504,167.817h40.164v60.322h-55.879L154.504,167.817z
	 M236.576,307.608v10.273h-92.467v-11.973h92.467V307.608z"/>
<rect x="257.197" y="290.938" fill="#231F1F" width="653.803" height="9.701"/>
<path fill="#231F1F" d="M274,297.815v40.882h8.888c0-0.001,0-0.001,0-0.002c0-20.402,16.599-37,37.001-37
	c20.401,0,36.999,16.598,36.999,37c0,0.001,0,0.001,0,0.002h6.886c0-0.001,0-0.001,0-0.002c0-20.402,16.599-37,37.001-37
	c20.401,0,36.999,16.598,36.999,37c0,0.001,0,0.001,0,0.002h7.727v-40.882H274z"/>
<path fill="#231F1F" d="M618.5,297.815v40.882h9.222c0-0.002,0-0.003,0-0.005c0-20.402,16.599-37,37.001-37
	c20.401,0,36.999,16.598,36.999,37c0,0.002,0,0.003,0,0.005h5.125c0-0.001,0-0.003,0-0.004c0-20.402,16.599-37,37.001-37
	c20.401,0,36.999,16.598,36.999,37c0,0.001,0,0.003,0,0.004h5.126c0-0.002,0-0.003,0-0.005c0-20.402,16.599-37,37.001-37
	c20.401,0,36.999,16.598,36.999,37c0,0.002,0,0.003,0,0.005h9.527v-40.882H618.5z"/>
<rect x="902" y="295.789" fill="#231F1F" width="9" height="27.661"/>
<rect x="444.42" y="329.64" fill="#231F1F" width="178" height="9.058"/>
</svg>
