<?xml version="1.0" encoding="utf-8"?>
<!-- Generated by IcoMoon.io -->
<!DOCTYPE svg PUBLIC "-//W3C//DTD SVG 1.1//EN" "http://www.w3.org/Graphics/SVG/1.1/DTD/svg11.dtd">
<svg version="1.1" xmlns="http://www.w3.org/2000/svg" xmlns:xlink="http://www.w3.org/1999/xlink" width="23" height="32" viewBox="0 0 23 32">
<path fill="#aeaeae" d="M7.81 23.555c-0.459-0.115-0.677-0.537-0.538-1.039 0.158-0.57 1.093-0.685 1.466-0.181 0.164 0.221 0.135 0.709-0.055 0.951-0.166 0.211-0.586 0.341-0.873 0.269zM8.346 23.259c0.129-0.059 0.222-0.267 0.222-0.498 0-0.356-0.147-0.507-0.496-0.508-0.127-0-0.277 0.020-0.333 0.045-0.325 0.148-0.29 0.918 0.046 0.992 0.062 0.014 0.131 0.032 0.154 0.040 0.059 0.021 0.296-0.020 0.408-0.071zM12.97 23.553c-0.197-0.047-0.39-0.175-0.491-0.325-0.072-0.107-0.091-0.192-0.091-0.404 0.001-0.445 0.234-0.739 0.632-0.799 0.395-0.059 0.731 0.074 0.877 0.347 0.093 0.174 0.102 0.603 0.016 0.769-0.099 0.192-0.324 0.358-0.549 0.406-0.229 0.049-0.213 0.049-0.394 0.006zM13.525 23.23c0.132-0.093 0.215-0.342 0.19-0.571-0.015-0.139-0.050-0.209-0.151-0.299-0.123-0.109-0.15-0.116-0.407-0.102-0.338 0.019-0.423 0.085-0.488 0.378-0.101 0.452 0.15 0.743 0.592 0.686 0.089-0.011 0.208-0.053 0.264-0.093zM17.801 23.545c-0.181-0.041-0.272-0.142-0.214-0.237 0.028-0.046 0.064-0.047 0.195-0.008 0.213 0.064 0.315 0.061 0.388-0.012 0.095-0.095 0.036-0.208-0.224-0.433-0.377-0.326-0.434-0.522-0.214-0.729 0.139-0.131 0.488-0.158 0.624-0.048 0.163 0.132 0.091 0.213-0.169 0.186-0.171-0.018-0.229-0.008-0.273 0.045-0.081 0.098 0 0.226 0.285 0.449 0.259 0.203 0.323 0.35 0.24 0.55-0.089 0.216-0.334 0.306-0.64 0.237zM4.203 23.476c-0.023-0.037 0.045-1.14 0.082-1.337 0.015-0.076 0.044-0.091 0.178-0.091 0.195 0 0.213 0.031 0.406 0.681 0.074 0.251 0.149 0.457 0.165 0.457s0.114-0.206 0.217-0.457c0.278-0.68 0.265-0.66 0.452-0.66h0.161l0.011 0.641c0.012 0.691-0.014 0.816-0.166 0.794-0.087-0.012-0.088-0.024-0.074-0.521 0.009-0.311-0-0.492-0.023-0.467-0.021 0.022-0.117 0.233-0.214 0.467s-0.195 0.45-0.217 0.479c-0.023 0.030-0.101 0.048-0.182 0.041l-0.142-0.012-0.146-0.454c-0.080-0.25-0.159-0.466-0.174-0.481-0.028-0.028-0.049 0.096-0.104 0.63-0.028 0.269-0.042 0.306-0.119 0.317-0.048 0.007-0.099-0.005-0.112-0.027zM10.459 23.474c-0.012-0.020-0.005-0.253 0.017-0.518 0.062-0.751 0.073-0.698-0.152-0.713-0.162-0.010-0.193-0.026-0.193-0.094 0-0.076 0.031-0.082 0.505-0.093 0.358-0.008 0.513 0.003 0.535 0.037 0.059 0.095-0.012 0.153-0.2 0.165l-0.189 0.012-0.030 0.569c-0.017 0.313-0.039 0.592-0.050 0.62-0.022 0.058-0.209 0.069-0.243 0.014zM15.332 23.469c-0.030-0.048 0.011-1.224 0.047-1.35 0.017-0.061 0.073-0.071 0.405-0.071 0.355 0 0.393 0.008 0.485 0.1 0.177 0.177 0.1 0.526-0.145 0.652-0.067 0.034-0.121 0.074-0.121 0.089s0.065 0.144 0.145 0.289c0.151 0.275 0.145 0.351-0.026 0.326-0.069-0.010-0.148-0.104-0.295-0.35-0.11-0.185-0.211-0.326-0.223-0.313s-0.033 0.164-0.045 0.336c-0.020 0.282-0.031 0.315-0.11 0.326-0.048 0.007-0.1-0.008-0.116-0.034zM16.023 22.577c0.082-0.068 0.080-0.269-0.003-0.301-0.131-0.050-0.373-0.026-0.399 0.040-0.030 0.079-0.033 0.321-0.003 0.35 0.034 0.034 0.337-0.032 0.404-0.089zM0.113 21.456c-0.039-0.047-0.042-0.083-0.011-0.132 0.040-0.063 0.836-0.068 11.151-0.079 6.11-0.006 11.15-0.001 11.2 0.011 0.108 0.026 0.128 0.201 0.027 0.24-0.035 0.014-5.070 0.025-11.189 0.025-10.101 0-11.13-0.006-11.178-0.064zM5.903 20.663c-0.449-0.040-1.038-0.223-1.396-0.432s-0.694-0.548-0.838-0.844c-0.105-0.215-0.119-0.288-0.119-0.61s0.014-0.395 0.119-0.61c0.281-0.575 0.984-1.037 1.862-1.221 0.367-0.077 1.202-0.076 1.575 0.003 0.629 0.132 1.162 0.413 1.539 0.812 0.308 0.326 0.428 0.61 0.428 1.016s-0.12 0.69-0.428 1.016c-0.618 0.653-1.618 0.971-2.742 0.87zM6.779 19.506c0.889-0.21 1.115-0.897 0.427-1.3-0.099-0.058-0.329-0.135-0.512-0.171-0.914-0.18-1.829 0.293-1.684 0.871 0.048 0.193 0.181 0.331 0.44 0.459 0.419 0.206 0.856 0.253 1.329 0.141zM16.003 20.628c-1.048-0.223-1.721-0.786-1.864-1.559-0.126-0.682 0.324-1.445 1.064-1.806 0.546-0.266 0.81-0.315 1.694-0.312 0.741 0.003 0.816 0.010 1.15 0.112 0.437 0.134 0.76 0.292 0.76 0.374 0 0.033-0.104 0.217-0.231 0.408-0.162 0.243-0.25 0.342-0.295 0.328-0.035-0.011-0.174-0.066-0.309-0.123-0.308-0.129-0.78-0.204-1.073-0.171-0.515 0.058-0.859 0.275-1.016 0.64-0.084 0.195-0.087 0.232-0.042 0.434 0.062 0.277 0.281 0.527 0.58 0.662 0.183 0.083 0.274 0.096 0.659 0.094s0.485-0.017 0.726-0.112l0.279-0.11 0.306 0.299c0.221 0.216 0.299 0.318 0.28 0.367-0.044 0.114-0.672 0.387-1.087 0.472-0.485 0.1-1.113 0.101-1.581 0.001zM19.281 20.599c-0.015-0.015-0.027-0.827-0.027-1.804 0-1.583 0.007-1.779 0.064-1.801 0.035-0.014 0.755-0.025 1.6-0.025 1.269 0 1.544 0.010 1.583 0.057 0.030 0.036 0.043 0.176 0.035 0.376l-0.012 0.319-0.911 0.011c-0.589 0.007-0.93 0.027-0.965 0.056-0.055 0.046-0.076 0.419-0.029 0.539 0.021 0.056 0.144 0.064 0.951 0.064 1.055 0 0.975-0.032 0.975 0.386s0.080 0.386-0.975 0.386c-0.807 0-0.929 0.008-0.951 0.064-0.046 0.121-0.026 0.493 0.029 0.539 0.035 0.029 0.376 0.049 0.965 0.056l0.911 0.011 0.012 0.304c0.007 0.167 0.002 0.346-0.011 0.396l-0.023 0.092h-1.597c-0.879 0-1.61-0.012-1.625-0.027zM0.144 20.559c-0.015-0.015-0.028-0.808-0.028-1.76 0-1.293 0.012-1.745 0.049-1.781s0.439-0.049 1.561-0.049c0.832 0 1.541 0.011 1.577 0.025 0.052 0.020 0.064 0.094 0.064 0.386v0.361l-0.904 0.001c-0.497 0-0.928 0.016-0.957 0.034-0.038 0.024-0.049 0.125-0.041 0.355l0.012 0.322 1.422 0.041 0.012 0.322c0.009 0.23-0.003 0.331-0.041 0.355-0.029 0.018-0.358 0.034-0.732 0.034l-0.68 0.001-0.022 1.361-0.632 0.011c-0.348 0.006-0.645-0.001-0.66-0.017zM9.608 20.521c-0.014-0.035-0.025-0.818-0.025-1.739 0-1.319 0.011-1.691 0.053-1.748 0.050-0.068 0.145-0.072 1.534-0.055 1.398 0.017 1.496 0.023 1.761 0.109 0.377 0.123 0.684 0.417 0.748 0.717 0.068 0.32-0.002 0.56-0.233 0.791-0.105 0.105-0.258 0.213-0.341 0.24s-0.15 0.073-0.15 0.102c0 0.029 0.247 0.391 0.549 0.805s0.549 0.772 0.549 0.797c0 0.032-0.228 0.046-0.766 0.046h-0.766l-0.419-0.631c-0.548-0.826-0.554-0.831-0.81-0.831h-0.205v0.667c0 0.367-0.011 0.696-0.025 0.731-0.021 0.055-0.124 0.064-0.727 0.064s-0.706-0.009-0.727-0.064zM12.042 18.349c0.137-0.137 0.175-0.368 0.083-0.508-0.104-0.159-0.299-0.221-0.691-0.221h-0.347v0.861l0.426-0.014c0.393-0.013 0.434-0.022 0.53-0.118zM10.782 16.030c-1.181-0.17-2.296-1.004-2.783-2.081-0.464-1.026-0.463-2.136 0.002-3.113 0.509-1.068 1.442-1.804 2.59-2.042 0.535-0.111 1.213-0.085 1.726 0.066 1.236 0.364 2.129 1.231 2.533 2.461 0.106 0.322 0.114 0.393 0.115 1.036 0.002 0.604-0.010 0.731-0.092 1.014-0.517 1.786-2.265 2.922-4.092 2.659zM12.123 15.446c0.134-0.036 0.408-0.147 0.61-0.246 0.962-0.474 1.592-1.374 1.726-2.466 0.054-0.439 0.001-0.925-0.15-1.383-0.106-0.321-0.362-0.795-0.438-0.812-0.022-0.005-0.114 0.14-0.203 0.322-0.242 0.494-0.177 0.461-0.904 0.461-0.367 0-0.697 0.020-0.79 0.048-0.228 0.068-0.454 0.292-0.639 0.634-0.183 0.338-0.247 0.507-0.161 0.425 0.039-0.037 0.272-0.051 0.871-0.051 0.45 0 0.829 0.011 0.843 0.025 0.034 0.034-0.287 0.665-0.348 0.685-0.027 0.008-0.411 0.027-0.852 0.041-0.802 0.026-0.803 0.026-0.836-0.064-0.032-0.086-0.036-0.085-0.117 0.048-0.046 0.076-0.204 0.359-0.351 0.628s-0.304 0.523-0.349 0.564c-0.074 0.067-0.132 0.071-0.611 0.044-0.453-0.025-0.529-0.021-0.529 0.031 0 0.087 0.477 0.52 0.767 0.696 0.283 0.172 0.807 0.373 1.116 0.428 0.293 0.053 1.056 0.019 1.348-0.059zM9.238 13.266c0.522-1.051 1.13-2.164 1.325-2.426 0.082-0.11 0.219-0.226 0.339-0.288l0.202-0.104 1.332-0.013c0.733-0.007 1.332-0.027 1.332-0.044 0-0.051-0.463-0.493-0.655-0.624-0.247-0.17-0.697-0.375-1.011-0.462-0.195-0.054-0.409-0.073-0.813-0.072-0.512 0.001-0.575 0.009-0.935 0.132-0.469 0.16-0.831 0.37-1.169 0.677-1.107 1.005-1.355 2.652-0.594 3.951 0.056 0.095 0.123 0.173 0.15 0.173s0.25-0.405 0.496-0.9z"></path>
<path fill="#626262" d="M7.8 23.512c-0.311-0.077-0.501-0.311-0.525-0.649-0.037-0.507 0.248-0.796 0.784-0.794 0.475 0.002 0.701 0.192 0.74 0.623 0.030 0.328-0.079 0.57-0.32 0.709-0.2 0.116-0.476 0.161-0.68 0.11zM8.376 23.281c0.3-0.155 0.313-0.802 0.020-1.007-0.111-0.078-0.535-0.085-0.682-0.011-0.289 0.144-0.329 0.782-0.063 1.003 0.155 0.129 0.493 0.136 0.725 0.016zM12.955 23.514c-0.387-0.118-0.528-0.303-0.527-0.693 0.001-0.513 0.245-0.752 0.771-0.752 0.364 0 0.54 0.084 0.66 0.314 0.097 0.187 0.104 0.584 0.013 0.759-0.151 0.292-0.592 0.471-0.917 0.373zM13.496 23.3c0.313-0.123 0.357-0.803 0.066-1.011-0.105-0.074-0.166-0.085-0.403-0.072-0.35 0.020-0.462 0.109-0.532 0.424-0.124 0.555 0.306 0.881 0.87 0.659zM17.801 23.505c-0.134-0.030-0.173-0.058-0.173-0.122 0-0.072 0.015-0.079 0.112-0.050 0.192 0.057 0.421 0.039 0.478-0.039 0.083-0.113 0.026-0.218-0.247-0.46-0.384-0.339-0.432-0.545-0.167-0.707 0.149-0.091 0.425-0.103 0.533-0.024 0.121 0.088 0.042 0.136-0.191 0.117-0.407-0.034-0.421 0.196-0.030 0.512 0.354 0.287 0.406 0.447 0.213 0.653-0.13 0.139-0.286 0.174-0.528 0.119zM4.241 23.18c0.016-0.164 0.041-0.472 0.055-0.684l0.025-0.386 0.125-0.012c0.069-0.007 0.145 0.012 0.169 0.041s0.12 0.296 0.213 0.593c0.094 0.297 0.189 0.534 0.212 0.527s0.132-0.233 0.242-0.5c0.11-0.267 0.217-0.527 0.238-0.578 0.029-0.070 0.072-0.091 0.181-0.091h0.143v0.626c0 0.345-0.011 0.655-0.025 0.691s-0.058 0.064-0.1 0.064c-0.071 0-0.074-0.034-0.052-0.559 0.029-0.683-0.001-0.678-0.304 0.051-0.202 0.486-0.203 0.488-0.339 0.488h-0.136l-0.163-0.496c-0.090-0.273-0.184-0.517-0.209-0.543-0.034-0.034-0.054 0.045-0.076 0.314-0.051 0.618-0.073 0.723-0.156 0.739-0.070 0.013-0.073-0.007-0.045-0.284zM10.503 23.439c-0.012-0.020-0.003-0.277 0.020-0.573s0.032-0.564 0.020-0.596c-0.015-0.040-0.084-0.059-0.21-0.059-0.132 0-0.182-0.015-0.171-0.051 0.021-0.064 0.959-0.073 0.975-0.010 0.006 0.022-0.072 0.046-0.172 0.054s-0.196 0.035-0.213 0.061c-0.017 0.026-0.033 0.203-0.035 0.393-0.007 0.539-0.046 0.789-0.125 0.804-0.037 0.007-0.077-0.003-0.089-0.023zM15.372 22.81c0.016-0.363 0.038-0.674 0.048-0.691s0.182-0.030 0.382-0.030c0.309 0 0.375 0.012 0.445 0.081 0.16 0.16 0.067 0.514-0.161 0.609-0.154 0.064-0.154 0.108-0.002 0.366 0.067 0.114 0.122 0.233 0.122 0.266 0 0.081-0.096 0.074-0.172-0.012-0.124-0.141-0.398-0.625-0.375-0.663 0.013-0.021 0.070-0.038 0.126-0.038 0.111 0 0.262-0.067 0.309-0.138 0.059-0.089 0.032-0.265-0.047-0.307-0.131-0.070-0.401-0.052-0.443 0.029-0.020 0.039-0.050 0.323-0.067 0.63-0.027 0.524-0.034 0.559-0.112 0.559-0.080 0-0.082-0.015-0.053-0.66zM0.13 21.416c-0.013-0.035-0.007-0.081 0.014-0.102 0.023-0.023 4.315-0.034 11.189-0.028 11.121 0.010 11.151 0.010 11.151 0.091s-0.030 0.081-11.165 0.091c-10.111 0.009-11.167 0.004-11.189-0.054zM16.365 20.627c-1.457-0.181-2.383-1.076-2.15-2.078 0.212-0.911 1.1-1.491 2.398-1.566 0.454-0.026 0.99 0.026 1.402 0.137 0.311 0.083 0.763 0.284 0.745 0.33-0.044 0.113-0.427 0.656-0.463 0.656-0.024 0-0.119-0.036-0.212-0.081-0.457-0.221-1.293-0.268-1.677-0.095-0.869 0.391-0.847 1.422 0.038 1.767 0.347 0.135 0.895 0.126 1.323-0.021l0.322-0.111 0.564 0.564-0.188 0.11c-0.533 0.313-1.407 0.474-2.101 0.387zM5.723 20.584c-0.595-0.101-1.114-0.316-1.504-0.622-0.463-0.363-0.715-0.931-0.619-1.391 0.068-0.324 0.191-0.558 0.415-0.788 0.353-0.362 0.837-0.616 1.454-0.76 0.457-0.107 1.335-0.096 1.777 0.022 0.524 0.14 0.974 0.383 1.282 0.693 0.374 0.376 0.463 0.577 0.463 1.040s-0.090 0.664-0.463 1.040c-0.31 0.312-0.765 0.557-1.282 0.69-0.373 0.096-1.172 0.137-1.524 0.077zM7.084 19.475c0.795-0.369 0.796-1.030 0.001-1.393-0.198-0.091-0.317-0.114-0.65-0.129-0.497-0.022-0.842 0.054-1.144 0.254-0.207 0.137-0.381 0.397-0.381 0.57 0 0.16 0.172 0.429 0.356 0.556 0.314 0.216 0.574 0.279 1.107 0.266 0.412-0.010 0.496-0.024 0.711-0.124zM19.34 20.53c-0.034-0.041-0.044-0.527-0.036-1.758l0.011-1.702 3.149-0.021v0.65l-1.889 0.022-0.012 0.321c-0.007 0.177 0.006 0.339 0.027 0.36s0.428 0.042 0.947 0.046l0.907 0.006v0.648l-1.869 0.041v0.691l1.893 0.022-0.023 0.71-1.529 0.011c-1.258 0.009-1.537 0.001-1.575-0.045zM0.197 18.797v-1.748l3.108 0.021v0.61l-0.911 0.011c-0.589 0.007-0.93 0.027-0.965 0.056-0.037 0.031-0.054 0.151-0.054 0.384 0 0.294 0.011 0.345 0.079 0.381 0.045 0.024 0.359 0.042 0.731 0.042h0.653v0.569h-0.683c-0.477 0-0.697 0.015-0.731 0.049s-0.049 0.25-0.049 0.711v0.662h-1.178v-1.748zM9.664 18.795v-1.75l1.534 0.014c1.492 0.014 1.54 0.017 1.771 0.109 0.565 0.225 0.811 0.702 0.601 1.164-0.091 0.2-0.266 0.353-0.511 0.447-0.116 0.044-0.184 0.095-0.184 0.138 0 0.037 0.247 0.404 0.549 0.816s0.549 0.763 0.549 0.781c0 0.018-0.309 0.032-0.687 0.032h-0.687l-0.119-0.152c-0.066-0.084-0.286-0.403-0.491-0.709s-0.407-0.576-0.45-0.599c-0.108-0.058-0.423-0.053-0.483 0.006-0.034 0.034-0.049 0.259-0.049 0.752v0.703h-1.341v-1.75zM11.994 18.46c0.159-0.104 0.241-0.255 0.241-0.443 0-0.304-0.298-0.478-0.816-0.479-0.406-0-0.414 0.010-0.414 0.507 0 0.359 0.011 0.43 0.071 0.467 0.114 0.070 0.79 0.032 0.918-0.052zM10.579 15.927c-0.867-0.186-1.739-0.755-2.206-1.442-0.707-1.038-0.849-2.364-0.373-3.505 0.601-1.445 2.135-2.347 3.693-2.174 1.565 0.175 2.764 1.223 3.156 2.759 0.112 0.437 0.102 1.277-0.019 1.727-0.372 1.378-1.443 2.374-2.843 2.645-0.379 0.073-1.042 0.069-1.408-0.010zM12.204 15.486c0.857-0.249 1.624-0.898 2.009-1.699 0.249-0.518 0.305-0.776 0.305-1.409s-0.056-0.891-0.303-1.407c-0.443-0.921-1.353-1.605-2.374-1.782-0.322-0.056-0.966-0.026-1.302 0.060-1.814 0.466-2.879 2.37-2.297 4.106 0.117 0.348 0.318 0.747 0.465 0.92 0.578 0.682 1.009 0.988 1.685 1.193 0.531 0.161 1.295 0.169 1.813 0.019zM9.563 14.301c-0.134-0.007-0.358-0.023-0.498-0.036l-0.254-0.024 0.547-1.084c0.709-1.404 1.201-2.27 1.38-2.428 0.238-0.21 0.36-0.226 1.716-0.227 0.681-0.001 1.249 0.011 1.263 0.025s-0.049 0.178-0.142 0.363l-0.167 0.338-0.704 0.028c-0.796 0.032-0.953 0.078-1.176 0.344-0.068 0.081-0.423 0.697-0.789 1.367-0.625 1.145-0.774 1.372-0.887 1.353-0.025-0.004-0.156-0.013-0.29-0.020zM10.924 13.031c0-0.020 0.071-0.162 0.158-0.315l0.158-0.278 0.797-0.011c0.439-0.006 0.797-0.001 0.797 0.011 0 0.074-0.292 0.583-0.347 0.604-0.106 0.041-1.563 0.030-1.563-0.012z"></path>
<path fill="#282828" d="M7.742 23.455c-0.305-0.113-0.434-0.308-0.434-0.657 0-0.289 0.089-0.479 0.279-0.597 0.208-0.129 0.755-0.134 0.927-0.008 0.244 0.179 0.336 0.63 0.191 0.937-0.134 0.282-0.628 0.448-0.962 0.324zM8.369 23.326c0.349-0.18 0.367-0.866 0.028-1.073-0.179-0.109-0.533-0.112-0.709-0.004-0.348 0.212-0.33 0.905 0.030 1.090 0.137 0.070 0.505 0.064 0.651-0.012zM12.882 23.46c-0.409-0.131-0.574-0.679-0.328-1.084 0.221-0.364 1.034-0.383 1.25-0.028 0.184 0.303 0.137 0.75-0.1 0.959-0.217 0.191-0.526 0.248-0.822 0.154zM13.545 23.308c0.166-0.103 0.236-0.27 0.236-0.564 0-0.389-0.19-0.573-0.591-0.573-0.384 0-0.602 0.217-0.611 0.607-0.009 0.411 0.183 0.61 0.594 0.611 0.169 0 0.277-0.023 0.371-0.081zM17.824 23.482c-0.060-0.009-0.129-0.041-0.154-0.071-0.037-0.044 0.003-0.050 0.22-0.033 0.301 0.024 0.388-0.019 0.388-0.192 0-0.086-0.069-0.175-0.305-0.394-0.331-0.307-0.371-0.41-0.228-0.587 0.066-0.081 0.114-0.095 0.331-0.096 0.163-0 0.26 0.017 0.271 0.049 0.012 0.036-0.036 0.043-0.184 0.025-0.17-0.020-0.214-0.010-0.287 0.063-0.047 0.047-0.086 0.116-0.086 0.152 0 0.065 0.163 0.24 0.458 0.489 0.202 0.171 0.212 0.362 0.027 0.518-0.121 0.102-0.199 0.115-0.451 0.076zM4.274 23.176c0.014-0.14 0.037-0.432 0.052-0.65l0.027-0.396h0.114c0.143 0 0.154 0.021 0.341 0.65 0.083 0.279 0.16 0.523 0.171 0.54 0.045 0.074 0.138-0.086 0.363-0.623s0.244-0.568 0.35-0.568h0.113v0.65c0 0.561-0.009 0.65-0.063 0.65s-0.060-0.067-0.035-0.543c0.019-0.357 0.014-0.552-0.013-0.568-0.062-0.038-0.099 0.026-0.338 0.593-0.203 0.481-0.226 0.518-0.328 0.518-0.104 0-0.118-0.025-0.281-0.518-0.25-0.757-0.296-0.785-0.34-0.204-0.041 0.541-0.070 0.722-0.116 0.722-0.026 0-0.031-0.095-0.016-0.254zM10.536 23.115c0.014-0.173 0.035-0.435 0.047-0.581 0.026-0.308-0.001-0.349-0.249-0.374-0.089-0.009 0.057-0.017 0.326-0.018 0.327-0.001 0.423 0.008 0.292 0.026-0.108 0.015-0.213 0.054-0.233 0.086s-0.037 0.198-0.038 0.368c-0.001 0.497-0.044 0.808-0.111 0.808-0.048 0-0.054-0.056-0.034-0.315zM15.394 23.216c0-0.121 0.012-0.415 0.027-0.654l0.027-0.433h0.357c0.407 0 0.484 0.042 0.484 0.264 0 0.202-0.034 0.26-0.208 0.348-0.087 0.044-0.158 0.101-0.158 0.126s0.065 0.162 0.144 0.304c0.113 0.202 0.13 0.258 0.080 0.258-0.070 0-0.477-0.603-0.443-0.657 0.011-0.018 0.057-0.034 0.102-0.034 0.315 0 0.494-0.387 0.239-0.516-0.145-0.073-0.385-0.066-0.452 0.015-0.039 0.046-0.062 0.236-0.076 0.616-0.014 0.388-0.035 0.554-0.071 0.566s-0.051-0.045-0.051-0.204zM0.157 21.378c0-0.054 1.266-0.061 11.154-0.061s11.154 0.007 11.154 0.061c0 0.054-1.266 0.061-11.154 0.061s-11.154-0.007-11.154-0.061z"></path>
<path fill="#cfcfcf" d="M7.599 23.507c-0.3-0.152-0.449-0.484-0.39-0.873 0.061-0.407 0.376-0.645 0.851-0.643 0.321 0.001 0.48 0.066 0.644 0.261 0.137 0.163 0.201 0.41 0.168 0.649-0.034 0.25-0.14 0.418-0.35 0.557-0.238 0.157-0.665 0.18-0.923 0.049zM8.279 23.244c0.182-0.073 0.247-0.202 0.247-0.492 0-0.256-0.090-0.406-0.274-0.457-0.19-0.053-0.236-0.053-0.43 0.001-0.188 0.052-0.271 0.213-0.271 0.527 0 0.256 0.050 0.355 0.216 0.427 0.171 0.074 0.317 0.073 0.511-0.005zM12.773 23.516c-0.302-0.139-0.427-0.348-0.426-0.708 0.002-0.421 0.235-0.718 0.629-0.8 0.271-0.056 0.609 0.001 0.775 0.131 0.322 0.253 0.351 0.923 0.053 1.209-0.25 0.239-0.712 0.315-1.030 0.168zM13.443 23.237c0.179-0.090 0.243-0.218 0.244-0.487 0.001-0.178-0.019-0.234-0.117-0.345-0.108-0.121-0.138-0.132-0.358-0.132-0.308 0-0.439 0.081-0.501 0.313-0.085 0.315 0.008 0.594 0.226 0.684 0.137 0.056 0.359 0.042 0.507-0.033zM17.73 23.563c-0.125-0.031-0.183-0.093-0.183-0.197 0-0.131 0.048-0.148 0.253-0.093s0.397 0.021 0.397-0.070c0-0.034-0.137-0.195-0.305-0.356-0.28-0.27-0.305-0.307-0.305-0.457 0-0.107 0.028-0.193 0.081-0.251 0.163-0.175 0.602-0.214 0.75-0.066 0.142 0.142 0.029 0.279-0.181 0.219-0.184-0.053-0.325-0.013-0.325 0.091 0 0.047 0.074 0.146 0.17 0.229 0.375 0.323 0.398 0.354 0.398 0.532 0 0.211-0.051 0.308-0.202 0.386-0.114 0.059-0.378 0.074-0.549 0.032zM4.155 23.497c-0.012-0.030-0.002-0.208 0.022-0.395s0.043-0.474 0.043-0.639c0-0.385 0.038-0.456 0.244-0.456 0.206 0 0.24 0.054 0.411 0.64 0.073 0.251 0.146 0.457 0.161 0.457 0.029 0 0.402-0.861 0.402-0.927 0-0.091 0.161-0.175 0.311-0.163l0.156 0.013 0.011 0.325c0.006 0.179-0.003 0.517-0.020 0.752-0.030 0.404-0.036 0.427-0.125 0.44-0.18 0.026-0.204-0.041-0.184-0.512l0.018-0.436-0.077 0.163c-0.042 0.089-0.129 0.296-0.192 0.458-0.12 0.307-0.18 0.358-0.392 0.328-0.082-0.012-0.116-0.074-0.238-0.427-0.078-0.227-0.154-0.425-0.168-0.439s-0.039 0.154-0.055 0.373c-0.016 0.219-0.048 0.421-0.071 0.449-0.055 0.068-0.232 0.065-0.258-0.004zM10.445 23.481c-0.019-0.039-0.022-0.236-0.005-0.437s0.032-0.451 0.034-0.556l0.004-0.191-0.169-0.012c-0.197-0.015-0.285-0.109-0.199-0.213 0.046-0.055 0.136-0.064 0.566-0.054l0.512 0.011v0.122c0 0.116-0.009 0.122-0.187 0.134l-0.187 0.012-0.028 0.552c-0.015 0.303-0.046 0.586-0.068 0.628-0.051 0.096-0.227 0.099-0.273 0.005zM15.292 23.511c-0.036-0.059 0.024-1.349 0.068-1.433 0.031-0.060 0.094-0.071 0.391-0.071 0.397 0.001 0.531 0.048 0.612 0.217 0.101 0.211-0.053 0.567-0.277 0.642-0.047 0.016-0.029 0.077 0.087 0.301 0.080 0.155 0.138 0.304 0.127 0.332s-0.073 0.051-0.138 0.051c-0.105 0-0.144-0.038-0.312-0.305-0.105-0.168-0.206-0.305-0.222-0.305s-0.030 0.126-0.030 0.28c0 0.218-0.014 0.286-0.064 0.305-0.097 0.037-0.212 0.030-0.24-0.016zM15.926 22.617c0.063 0 0.161-0.19 0.134-0.26-0.021-0.053-0.068-0.066-0.214-0.057l-0.188 0.012-0.026 0.357 0.13-0.026c0.071-0.014 0.145-0.026 0.164-0.026zM0.157 21.531c-0.13-0.050-0.157-0.174-0.058-0.272 0.058-0.058 1.13-0.064 11.197-0.064 7.597 0 11.158 0.013 11.212 0.042 0.118 0.063 0.103 0.235-0.026 0.284-0.111 0.042-22.214 0.052-22.325 0.010zM16.080 20.685c-0.864-0.156-1.548-0.594-1.845-1.182-0.111-0.219-0.12-0.272-0.12-0.665 0-0.399 0.009-0.444 0.133-0.698 0.237-0.485 0.701-0.864 1.301-1.062 0.488-0.161 0.845-0.203 1.533-0.18 0.501 0.017 0.674 0.040 0.975 0.129 0.454 0.135 0.768 0.299 0.784 0.408 0.018 0.124-0.441 0.774-0.541 0.766-0.044-0.003-0.191-0.053-0.326-0.11-0.539-0.228-1.17-0.236-1.602-0.020-0.252 0.126-0.364 0.246-0.474 0.509-0.143 0.341 0.1 0.802 0.522 0.993 0.186 0.084 0.276 0.097 0.662 0.096 0.391-0.001 0.48-0.015 0.708-0.11 0.143-0.060 0.283-0.096 0.309-0.080 0.162 0.096 0.628 0.579 0.628 0.652 0 0.13-0.649 0.435-1.138 0.536-0.453 0.093-1.051 0.1-1.508 0.017zM5.703 20.688c-0.022-0.007-0.178-0.044-0.345-0.081-0.743-0.166-1.454-0.66-1.715-1.191-0.121-0.246-0.133-0.305-0.133-0.639s0.012-0.393 0.133-0.639c0.289-0.586 0.984-1.040 1.891-1.233 0.353-0.075 1.151-0.076 1.538-0.002 0.885 0.17 1.603 0.647 1.909 1.269 0.12 0.244 0.136 0.315 0.136 0.603s-0.016 0.359-0.136 0.603c-0.302 0.614-0.996 1.081-1.883 1.267-0.246 0.052-1.266 0.081-1.394 0.040zM6.95 19.416c0.309-0.11 0.499-0.262 0.581-0.465 0.062-0.156 0.063-0.18 0-0.344-0.077-0.201-0.286-0.366-0.609-0.481-0.274-0.098-0.894-0.102-1.201-0.009-0.987 0.301-0.876 1.147 0.179 1.372 0.261 0.056 0.79 0.018 1.050-0.074zM19.24 20.64c-0.015-0.015-0.027-0.834-0.027-1.82 0-1.341 0.012-1.806 0.049-1.842s0.453-0.049 1.622-0.049c1.376 0 1.582 0.008 1.637 0.064 0.047 0.047 0.064 0.146 0.063 0.376-0 0.172-0.015 0.334-0.032 0.362-0.023 0.037-0.28 0.053-0.964 0.061l-0.933 0.011v0.528l0.911 0.011c0.589 0.007 0.93 0.027 0.965 0.056 0.037 0.031 0.054 0.151 0.054 0.38s-0.017 0.35-0.054 0.38c-0.035 0.029-0.376 0.049-0.965 0.056l-0.911 0.011v0.528l0.933 0.011c0.684 0.008 0.941 0.024 0.964 0.061 0.052 0.082 0.039 0.739-0.016 0.794-0.036 0.036-0.461 0.049-1.659 0.049-0.886 0-1.623-0.012-1.637-0.027zM0.1 20.563c-0.014-0.036-0.025-0.849-0.025-1.808 0-1.681 0.003-1.744 0.079-1.785 0.050-0.027 0.635-0.042 1.62-0.042 1.272 0 1.55 0.010 1.589 0.057 0.030 0.036 0.043 0.186 0.035 0.416l-0.012 0.36-1.869 0.041-0.024 0.63h0.684c0.478 0 0.699 0.015 0.733 0.049 0.065 0.065 0.065 0.65 0 0.715-0.034 0.034-0.254 0.049-0.73 0.049h-0.682l-0.022 1.361-0.676 0.011c-0.59 0.010-0.679 0.003-0.701-0.054zM9.583 18.798v-1.828l0.101-0.025c0.056-0.014 0.737-0.017 1.514-0.006 1.161 0.016 1.456 0.031 1.656 0.088 0.636 0.179 0.981 0.644 0.868 1.17-0.052 0.24-0.328 0.564-0.563 0.658-0.090 0.036-0.163 0.080-0.163 0.098s0.247 0.37 0.549 0.782c0.302 0.413 0.549 0.782 0.549 0.821 0 0.065-0.064 0.071-0.79 0.071h-0.79l-0.435-0.64c-0.56-0.824-0.559-0.823-0.776-0.823h-0.176v0.667c0 0.367-0.011 0.696-0.025 0.731-0.021 0.055-0.128 0.064-0.772 0.064h-0.747v-1.828zM12.016 18.335c0.047-0.042 0.096-0.14 0.111-0.216 0.059-0.314-0.152-0.459-0.671-0.459h-0.329v0.78l0.402-0.014c0.324-0.011 0.419-0.029 0.487-0.091zM10.782 16.074c-1.544-0.241-2.753-1.391-3.094-2.944-0.082-0.375-0.081-1.133 0.002-1.517 0.179-0.824 0.642-1.572 1.303-2.106 1.449-1.169 3.531-1.081 4.887 0.206 0.497 0.472 0.789 0.939 1.005 1.61 0.15 0.463 0.187 1.275 0.083 1.791-0.284 1.407-1.353 2.528-2.745 2.878-0.397 0.1-1.082 0.139-1.442 0.083zM11.931 15.442c1.095-0.225 1.992-1.012 2.34-2.053 0.224-0.67 0.224-1.349-0.002-2.033-0.104-0.315-0.325-0.728-0.403-0.754-0.023-0.008-0.105 0.127-0.18 0.3-0.21 0.479-0.171 0.46-0.946 0.46-0.632 0-0.672 0.005-0.874 0.106-0.223 0.111-0.355 0.268-0.551 0.656l-0.108 0.213h0.852c0.499 0 0.862 0.016 0.876 0.039 0.025 0.041-0.287 0.696-0.352 0.737-0.071 0.046-1.659 0.080-1.738 0.038-0.067-0.036-0.11 0.024-0.387 0.538-0.171 0.318-0.352 0.612-0.4 0.654-0.080 0.069-0.135 0.073-0.61 0.047-0.514-0.028-0.521-0.028-0.478 0.053 0.125 0.234 0.802 0.695 1.273 0.867 0.557 0.203 1.128 0.248 1.689 0.133zM9.009 13.621c0.268-0.564 0.97-1.896 1.277-2.422 0.248-0.425 0.401-0.594 0.638-0.706 0.172-0.081 0.257-0.087 1.473-0.099 0.71-0.007 1.29-0.027 1.29-0.045 0-0.050-0.404-0.418-0.622-0.568-0.532-0.364-1.039-0.509-1.775-0.508-0.509 0.001-0.575 0.010-0.923 0.129-0.646 0.222-1.142 0.571-1.529 1.076-0.735 0.961-0.852 2.207-0.309 3.311 0.091 0.184 0.182 0.335 0.203 0.335s0.146-0.227 0.277-0.504z"></path>
<path fill="#8e8e8e" d="M7.632 23.46c-0.273-0.138-0.364-0.304-0.364-0.66 0-0.237 0.018-0.319 0.093-0.43 0.149-0.221 0.366-0.32 0.7-0.32 0.512 0 0.752 0.23 0.752 0.721 0 0.141-0.026 0.306-0.057 0.366-0.195 0.375-0.72 0.526-1.122 0.323zM8.367 23.256c0.101-0.068 0.152-0.144 0.193-0.289 0.070-0.249 0.035-0.44-0.11-0.603-0.098-0.11-0.147-0.13-0.353-0.144-0.202-0.014-0.262-0.002-0.381 0.079-0.251 0.171-0.311 0.618-0.116 0.865 0.108 0.137 0.208 0.178 0.444 0.181 0.13 0.002 0.229-0.025 0.324-0.090zM12.812 23.478c-0.339-0.159-0.476-0.454-0.393-0.847 0.059-0.281 0.142-0.398 0.359-0.503 0.24-0.116 0.723-0.102 0.895 0.026 0.193 0.144 0.264 0.276 0.287 0.532 0.045 0.496-0.23 0.818-0.728 0.852-0.193 0.013-0.295-0.001-0.419-0.060zM13.485 23.287c0.066-0.034 0.147-0.115 0.181-0.181 0.082-0.158 0.081-0.565-0.002-0.683-0.144-0.205-0.504-0.274-0.77-0.148-0.34 0.161-0.359 0.831-0.029 1.010 0.145 0.079 0.47 0.080 0.62 0.002zM17.763 23.523c-0.113-0.022-0.191-0.116-0.161-0.194 0.018-0.048 0.046-0.052 0.129-0.021 0.145 0.055 0.399 0.050 0.458-0.009 0.094-0.094 0.046-0.186-0.234-0.449-0.155-0.146-0.294-0.313-0.309-0.371-0.066-0.263 0.107-0.431 0.444-0.431 0.236 0 0.31 0.031 0.31 0.13 0 0.073-0.018 0.078-0.2 0.053-0.171-0.023-0.212-0.015-0.285 0.058-0.112 0.112-0.080 0.168 0.259 0.466 0.245 0.215 0.266 0.247 0.266 0.396 0 0.237-0.172 0.402-0.413 0.394-0.097-0.003-0.216-0.013-0.264-0.023zM4.221 23.452c-0.027-0.033-0.039-0.075-0.028-0.094s0.042-0.308 0.067-0.641c0.045-0.602 0.065-0.667 0.205-0.668s0.21 0.119 0.364 0.625c0.087 0.287 0.169 0.533 0.183 0.546 0.037 0.037 0.080-0.047 0.29-0.562 0.214-0.522 0.271-0.61 0.402-0.61 0.16 0 0.174 0.068 0.151 0.76-0.018 0.541-0.033 0.662-0.084 0.682-0.136 0.052-0.163-0.060-0.125-0.526 0.056-0.69 0.012-0.667-0.331 0.172-0.138 0.339-0.225 0.421-0.38 0.361-0.031-0.012-0.133-0.252-0.227-0.533s-0.185-0.502-0.202-0.492c-0.017 0.011-0.045 0.216-0.061 0.456-0.036 0.539-0.095 0.677-0.224 0.522zM10.497 23.469c-0.016-0.025-0.013-0.287 0.005-0.581s0.034-0.553 0.035-0.576c0.001-0.022-0.071-0.047-0.161-0.054-0.201-0.016-0.285-0.076-0.22-0.155 0.053-0.064 0.87-0.080 0.966-0.018 0.113 0.072 0.016 0.166-0.172 0.166h-0.179l-0.026 0.189c-0.014 0.104-0.027 0.3-0.029 0.437-0.005 0.393-0.048 0.611-0.125 0.626-0.037 0.007-0.080-0.008-0.096-0.033zM15.361 23.46c-0.059-0.071 0.020-1.337 0.086-1.383 0.026-0.018 0.198-0.026 0.382-0.018 0.36 0.016 0.47 0.070 0.516 0.256 0.038 0.15-0.076 0.373-0.239 0.469-0.079 0.047-0.144 0.091-0.144 0.099s0.066 0.126 0.146 0.263c0.142 0.243 0.157 0.365 0.045 0.365-0.074 0-0.142-0.083-0.356-0.434-0.098-0.16-0.192-0.283-0.209-0.272s-0.031 0.152-0.031 0.314c0 0.34-0.080 0.48-0.195 0.341zM15.964 22.637c0.136-0.071 0.196-0.234 0.118-0.327-0.037-0.044-0.111-0.059-0.257-0.050-0.201 0.012-0.206 0.015-0.241 0.165-0.020 0.084-0.026 0.18-0.013 0.213 0.030 0.079 0.239 0.078 0.393-0.001zM0.116 21.378v-0.102h11.19c8.915 0 11.194 0.010 11.209 0.051 0.010 0.028 0.011 0.074 0.001 0.102-0.014 0.040-2.292 0.051-11.209 0.051h-11.191v-0.102zM16.389 20.667c-1.502-0.164-2.493-1.146-2.196-2.177 0.189-0.656 0.65-1.105 1.402-1.366 0.287-0.1 0.915-0.195 1.281-0.195 0.6 0 1.441 0.192 1.791 0.408 0.076 0.047 0.139 0.094 0.139 0.103 0 0.055-0.467 0.707-0.506 0.707-0.026 0-0.123-0.037-0.215-0.081-0.419-0.202-1.122-0.267-1.544-0.141-0.764 0.227-0.986 1.046-0.415 1.534 0.253 0.217 0.512 0.293 0.975 0.288 0.312-0.003 0.443-0.025 0.686-0.115l0.3-0.111 0.602 0.597-0.093 0.077c-0.395 0.328-1.451 0.554-2.206 0.472zM5.636 20.606c-0.901-0.171-1.67-0.653-1.943-1.217-0.046-0.096-0.106-0.278-0.133-0.405-0.087-0.417 0.122-0.959 0.503-1.303 0.589-0.532 1.514-0.828 2.433-0.779 0.863 0.046 1.566 0.326 2.054 0.816 0.394 0.396 0.484 0.592 0.484 1.060 0.001 0.325-0.013 0.392-0.119 0.602-0.256 0.507-0.929 0.978-1.668 1.169-0.429 0.111-1.189 0.138-1.611 0.058zM7.084 19.434c0.391-0.182 0.549-0.374 0.549-0.669 0-0.214-0.136-0.405-0.402-0.564-0.566-0.339-1.558-0.285-2.007 0.11-0.348 0.306-0.348 0.626-0.002 0.931 0.284 0.25 0.573 0.33 1.151 0.316 0.412-0.010 0.496-0.024 0.711-0.124zM19.336 20.592c-0.028-0.009-0.042-0.613-0.042-1.798v-1.785l3.19 0.021v0.691l-1.869 0.041-0.012 0.301c-0.009 0.213 0.003 0.311 0.041 0.335 0.029 0.018 0.46 0.034 0.957 0.034l0.904 0.001v0.691l-0.904 0.001c-0.497 0-0.928 0.016-0.957 0.034-0.037 0.024-0.049 0.121-0.041 0.335l0.012 0.301 1.869 0.041 0.012 0.376c0.009 0.283-0.001 0.377-0.041 0.381-0.117 0.013-3.080 0.014-3.119 0.001zM0.176 20.536c-0.011-0.029-0.015-0.829-0.009-1.779l0.011-1.727 1.562-0.011c1.222-0.008 1.569 0 1.594 0.041 0.042 0.066 0.042 0.564 0.001 0.63-0.023 0.037-0.28 0.053-0.964 0.061l-0.933 0.011-0.012 0.319c-0.007 0.2 0.006 0.34 0.035 0.376 0.037 0.045 0.194 0.057 0.733 0.057h0.686v0.65h-0.71c-0.703 0-0.711 0.001-0.732 0.091-0.012 0.050-0.026 0.366-0.031 0.701l-0.010 0.61-0.6 0.011c-0.458 0.009-0.605-0.001-0.62-0.041zM9.643 20.536c-0.011-0.028-0.015-0.829-0.009-1.779l0.011-1.727 1.341-0.011c1.408-0.012 1.769 0.015 2.090 0.157 0.791 0.349 0.81 1.278 0.033 1.621-0.106 0.047-0.193 0.107-0.192 0.134s0.247 0.387 0.549 0.8c0.301 0.413 0.548 0.774 0.548 0.802 0 0.039-0.166 0.051-0.708 0.051-0.596 0-0.719-0.010-0.773-0.065-0.036-0.036-0.267-0.365-0.513-0.731-0.473-0.703-0.497-0.724-0.792-0.7l-0.159 0.013-0.041 1.463-0.681 0.011c-0.523 0.009-0.686-0.001-0.701-0.041zM12.011 18.406c0.156-0.116 0.239-0.379 0.166-0.531-0.086-0.181-0.362-0.297-0.709-0.297-0.438 0-0.421-0.018-0.421 0.468 0 0.296 0.015 0.426 0.051 0.442 0.028 0.013 0.22 0.018 0.426 0.012 0.303-0.009 0.397-0.027 0.488-0.094zM10.579 15.967c-0.961-0.206-1.872-0.849-2.361-1.666-1.119-1.871-0.438-4.212 1.509-5.186 0.506-0.253 0.976-0.358 1.603-0.358 1.868 0 3.387 1.354 3.624 3.231 0.084 0.662-0.038 1.351-0.354 2.001-0.507 1.046-1.51 1.796-2.678 2.003-0.338 0.060-1.006 0.047-1.343-0.025zM12.133 15.462c0.943-0.238 1.774-0.975 2.15-1.908 0.172-0.426 0.226-0.778 0.204-1.319-0.014-0.344-0.046-0.571-0.11-0.772-0.105-0.333-0.334-0.786-0.472-0.935-0.053-0.058-0.097-0.12-0.097-0.138 0-0.069-0.609-0.608-0.84-0.744-0.557-0.326-1.034-0.452-1.699-0.447-1.369 0.009-2.533 0.866-2.992 2.204-0.126 0.367-0.133 0.416-0.133 0.975s0.007 0.609 0.132 0.973c0.139 0.405 0.386 0.855 0.467 0.855 0.027 0 0.237-0.379 0.468-0.843 0.509-1.024 1.244-2.362 1.402-2.554 0.064-0.077 0.192-0.181 0.284-0.231 0.163-0.087 0.213-0.091 1.54-0.102 0.754-0.007 1.371 0.002 1.37 0.020s-0.088 0.197-0.193 0.398l-0.192 0.366-0.71 0.030c-0.799 0.033-0.967 0.084-1.181 0.357-0.061 0.078-0.399 0.672-0.751 1.32s-0.678 1.222-0.726 1.274c-0.084 0.094-0.097 0.096-0.646 0.077-0.308-0.011-0.569-0.004-0.581 0.015-0.031 0.050 0.281 0.375 0.568 0.592 0.434 0.329 1.093 0.586 1.629 0.636 0.277 0.026 0.799-0.021 1.107-0.099zM10.883 13.048c0-0.068 0.222-0.486 0.318-0.599 0.054-0.063 0.148-0.071 0.844-0.071 0.474 0 0.793 0.016 0.809 0.040 0.014 0.022-0.045 0.173-0.13 0.334-0.112 0.212-0.183 0.302-0.256 0.321-0.056 0.015-0.435 0.029-0.843 0.031-0.637 0.003-0.742-0.005-0.742-0.058z"></path>
<path fill="#5b5b5b" d="M7.615 23.419c-0.229-0.13-0.328-0.319-0.324-0.619 0.005-0.413 0.178-0.631 0.562-0.71 0.227-0.047 0.515-0.008 0.678 0.091 0.282 0.173 0.352 0.74 0.127 1.043-0.212 0.286-0.717 0.38-1.043 0.196zM8.304 23.331c0.205-0.086 0.304-0.274 0.304-0.578 0-0.209-0.017-0.271-0.103-0.373-0.257-0.305-0.8-0.261-0.976 0.080-0.084 0.163-0.087 0.513-0.005 0.672 0.12 0.232 0.481 0.324 0.78 0.2zM12.777 23.419c-0.263-0.151-0.329-0.274-0.329-0.619 0-0.24 0.017-0.322 0.085-0.413 0.333-0.449 1.089-0.433 1.33 0.028 0.102 0.195 0.076 0.631-0.048 0.804-0.2 0.281-0.72 0.382-1.038 0.2zM13.484 23.318c0.081-0.041 0.173-0.132 0.213-0.213 0.082-0.165 0.093-0.504 0.020-0.646-0.129-0.25-0.469-0.349-0.786-0.228-0.151 0.058-0.201 0.104-0.263 0.239-0.213 0.47 0.037 0.919 0.511 0.919 0.089 0 0.227-0.032 0.305-0.071zM17.72 23.469c-0.178-0.071-0.098-0.12 0.153-0.094 0.202 0.021 0.258 0.013 0.325-0.048 0.044-0.040 0.081-0.103 0.081-0.14s-0.137-0.201-0.305-0.365c-0.259-0.253-0.305-0.318-0.305-0.433 0-0.168 0.118-0.286 0.321-0.321 0.162-0.027 0.369 0.031 0.369 0.104 0 0.030-0.054 0.036-0.164 0.018-0.119-0.020-0.191-0.010-0.264 0.038-0.174 0.114-0.132 0.233 0.184 0.514 0.269 0.239 0.284 0.262 0.284 0.427 0 0.14-0.021 0.191-0.107 0.258-0.115 0.090-0.402 0.111-0.574 0.042zM4.243 23.435c-0.013-0.022-0.006-0.164 0.016-0.317s0.040-0.425 0.041-0.605c0.001-0.348 0.035-0.425 0.189-0.425 0.12 0 0.127 0.013 0.325 0.65 0.094 0.302 0.192 0.549 0.217 0.549s0.153-0.252 0.282-0.561c0.129-0.308 0.254-0.58 0.277-0.603s0.085-0.036 0.138-0.028c0.087 0.012 0.097 0.036 0.107 0.257 0.006 0.134-0.003 0.436-0.020 0.67-0.024 0.332-0.044 0.427-0.091 0.427-0.050 0-0.057-0.092-0.048-0.569 0.014-0.682-0.005-0.681-0.3 0.020-0.233 0.554-0.248 0.577-0.375 0.561-0.087-0.011-0.116-0.068-0.261-0.52-0.090-0.279-0.188-0.533-0.217-0.564-0.060-0.063-0.072-0.002-0.13 0.683-0.030 0.353-0.083 0.484-0.151 0.374zM10.537 22.841l0.030-0.63h-0.187c-0.141 0-0.187-0.015-0.187-0.062 0-0.053 0.068-0.061 0.454-0.051 0.306 0.008 0.459 0.027 0.47 0.060s-0.050 0.053-0.18 0.061l-0.196 0.012-0.031 0.528c-0.037 0.63-0.052 0.711-0.138 0.711-0.058 0-0.062-0.067-0.036-0.63zM15.38 23.443c-0.029-0.029 0.002-1.089 0.038-1.262 0.018-0.086 0.038-0.091 0.365-0.091 0.314 0 0.356 0.009 0.446 0.1 0.107 0.107 0.123 0.2 0.060 0.365-0.034 0.089-0.214 0.236-0.343 0.279-0.021 0.007 0.033 0.144 0.12 0.304 0.153 0.283 0.165 0.367 0.047 0.322-0.054-0.021-0.434-0.607-0.433-0.67 0-0.016 0.087-0.056 0.192-0.090 0.253-0.080 0.344-0.224 0.241-0.381-0.061-0.093-0.097-0.106-0.291-0.106-0.266 0-0.253-0.032-0.295 0.708-0.028 0.486-0.062 0.608-0.146 0.524zM0.143 21.412c-0.015-0.015-0.006-0.051 0.018-0.081 0.038-0.045 1.908-0.054 11.143-0.054 6.25 0 11.122 0.016 11.154 0.036s0.043 0.056 0.028 0.081c-0.031 0.050-22.294 0.068-22.343 0.018zM6.159 20.556c0.072-0.009 0.2-0.009 0.284-0s0.025 0.016-0.131 0.016c-0.156 0-0.225-0.007-0.153-0.016zM16.317 20.559c0.027-0.011 0.082-0.012 0.122-0.002s0.017 0.019-0.050 0.020c-0.067 0.001-0.099-0.008-0.072-0.019zM17.171 20.559c0.028-0.011 0.074-0.011 0.102 0s0.005 0.020-0.051 0.020c-0.056 0-0.079-0.009-0.051-0.020zM5.793 20.518c0.027-0.011 0.082-0.012 0.122-0.002s0.017 0.019-0.050 0.020c-0.067 0.001-0.099-0.008-0.072-0.019zM0.246 20.21l0.008-0.295 0.029 0.553 0.526-0.012c0.29-0.007 0.526 0.001 0.526 0.018s-0.247 0.030-0.549 0.030h-0.549l0.008-0.295zM7.034 20.48c0.013-0.014 0.049-0.015 0.078-0.003 0.032 0.013 0.023 0.023-0.025 0.025-0.043 0.002-0.067-0.008-0.053-0.021zM9.705 18.798v-1.707l2.621 0.019-2.58 0.023v3.331h1.176l0.024-1.402 0.018 1.442h-1.26v-1.707zM13.027 20.474c0.162-0.008 0.427-0.008 0.589 0s0.029 0.014-0.295 0.014c-0.324 0-0.457-0.006-0.295-0.014zM22.39 20.403c-0.001-0.067 0.008-0.099 0.019-0.072s0.012 0.082 0.002 0.122c-0.010 0.040-0.019 0.017-0.020-0.050zM1.307 20.139c0-0.145 0.007-0.205 0.016-0.132s0.009 0.191 0 0.264c-0.009 0.073-0.016 0.013-0.016-0.132zM22.392 20.017c0-0.078 0.008-0.11 0.019-0.071s0.010 0.103 0 0.142c-0.010 0.039-0.019 0.007-0.019-0.071zM20.991 19.905c0.207-0.007 0.545-0.007 0.752 0s0.038 0.013-0.376 0.013c-0.413 0-0.583-0.006-0.376-0.013zM0.249 19.651c0-0.101 0.008-0.142 0.018-0.091s0.010 0.133 0 0.183c-0.010 0.050-0.018 0.009-0.018-0.091zM6.566 19.665c0.028-0.011 0.074-0.011 0.102 0s0.005 0.020-0.051 0.020c-0.056 0-0.079-0.009-0.051-0.020zM20.485 19.407c0-0.123 0.008-0.173 0.017-0.112s0.009 0.162 0 0.224c-0.009 0.061-0.017 0.011-0.017-0.112zM8.896 19.106c-0.002-0.043 0.008-0.067 0.021-0.053s0.015 0.049 0.003 0.078c-0.013 0.032-0.023 0.023-0.025-0.025zM0.249 18.96c0-0.101 0.008-0.142 0.018-0.091s0.010 0.133 0 0.183c-0.010 0.050-0.018 0.009-0.018-0.091zM1.733 19.052c0.163-0.008 0.419-0.008 0.569 0s0.017 0.014-0.296 0.014c-0.313-0-0.435-0.006-0.272-0.014zM2.704 19.050c0.027-0.017 0.055-0.131 0.064-0.253l0.015-0.223 0.008 0.254c0.006 0.218-0.003 0.254-0.064 0.253-0.048-0-0.055-0.011-0.023-0.031zM22.386 18.984c-0.002-0.043 0.008-0.067 0.021-0.053s0.015 0.049 0.003 0.078c-0.013 0.032-0.023 0.023-0.025-0.025zM11.198 18.972c0.050-0.010 0.133-0.010 0.183 0s0.009 0.018-0.091 0.018c-0.101 0-0.142-0.008-0.091-0.018zM14.226 18.859c-0-0.089 0.008-0.131 0.018-0.092s0.011 0.112 0.001 0.163c-0.010 0.051-0.018 0.019-0.018-0.071zM3.618 18.777c-0.001-0.067 0.008-0.099 0.019-0.072s0.012 0.082 0.002 0.122c-0.010 0.040-0.019 0.017-0.020-0.050zM1.487 18.608c0.028-0.011 0.074-0.011 0.102 0s0.005 0.020-0.051 0.020c-0.056 0-0.079-0.009-0.051-0.020zM2.178 18.608c0.028-0.011 0.074-0.011 0.102 0s0.005 0.020-0.051 0.020c-0.056 0-0.079-0.009-0.051-0.020zM3.654 18.578c-0.002-0.043 0.008-0.067 0.021-0.053s0.015 0.049 0.003 0.078c-0.013 0.032-0.023 0.023-0.025-0.025zM11.543 18.607c0.039-0.010 0.112-0.011 0.163-0.001s0.019 0.018-0.071 0.018c-0.089 0-0.131-0.008-0.092-0.018zM10.94 18.046c0-0.268 0.007-0.373 0.015-0.232s0.008 0.36-0 0.488c-0.008 0.128-0.015 0.013-0.014-0.256zM0.253 18.005c-0-0.246 0.007-0.352 0.015-0.235s0.008 0.318 0 0.447c-0.008 0.129-0.015 0.034-0.015-0.212zM20.476 18.293c-0.002-0.043 0.008-0.067 0.021-0.053s0.015 0.049 0.003 0.078c-0.013 0.032-0.023 0.023-0.025-0.025zM20.482 17.985c0-0.078 0.008-0.11 0.019-0.071s0.010 0.103 0 0.142c-0.010 0.039-0.019 0.007-0.019-0.071zM13.568 18.009c-0.002-0.043 0.008-0.067 0.021-0.053s0.015 0.049 0.003 0.078c-0.013 0.032-0.023 0.023-0.025-0.025zM5.957 17.877c0.028-0.011 0.074-0.011 0.102 0s0.005 0.020-0.051 0.020c-0.056 0-0.079-0.009-0.051-0.020zM6.525 17.877c0.027-0.011 0.082-0.012 0.122-0.002s0.017 0.019-0.050 0.020c-0.067 0.001-0.099-0.008-0.072-0.019zM16.724 17.755c0.027-0.011 0.082-0.012 0.122-0.002s0.017 0.019-0.050 0.020c-0.067 0.001-0.099-0.008-0.072-0.019zM17.292 17.755c0.027-0.011 0.082-0.012 0.122-0.002s0.017 0.019-0.050 0.020c-0.067 0.001-0.099-0.008-0.072-0.019zM1.851 17.63c0.25-0.007 0.671-0.007 0.935-0s0.059 0.013-0.455 0.013c-0.514 0-0.73-0.006-0.48-0.013zM21.499 17.63l0.884-0.012v-0.485l-3.027-0.022 3.068-0.019v0.569l-1.808-0.019 0.884-0.012zM0.238 17.122c0-0.017 0.681-0.026 1.514-0.022s1.276 0.014 0.985 0.020c-1.337 0.029-2.499 0.029-2.499 0.001zM16.014 17.107c0.014-0.014 0.049-0.015 0.078-0.003 0.032 0.013 0.023 0.023-0.025 0.025-0.043 0.002-0.067-0.008-0.053-0.021zM5.49 17.067c0.013-0.014 0.049-0.015 0.078-0.003 0.032 0.013 0.023 0.023-0.025 0.025-0.043 0.002-0.067-0.008-0.053-0.021zM7.034 17.067c0.013-0.014 0.049-0.015 0.078-0.003 0.032 0.013 0.023 0.023-0.025 0.025-0.043 0.002-0.067-0.008-0.053-0.021zM16.258 17.067c0.014-0.014 0.049-0.015 0.078-0.003 0.032 0.013 0.023 0.023-0.025 0.025-0.043 0.002-0.067-0.008-0.053-0.021zM17.374 17.064c0.028-0.011 0.074-0.011 0.102 0s0.005 0.020-0.051 0.020c-0.056 0-0.079-0.009-0.051-0.020zM5.734 17.026c0.013-0.014 0.049-0.015 0.078-0.003 0.032 0.013 0.023 0.023-0.025 0.025-0.043 0.002-0.067-0.008-0.053-0.021zM6.791 17.026c0.013-0.014 0.049-0.015 0.078-0.003 0.032 0.013 0.023 0.023-0.025 0.025-0.043 0.002-0.067-0.008-0.053-0.021zM16.765 17.022c0.050-0.010 0.133-0.010 0.183 0s0.009 0.018-0.091 0.018c-0.101 0-0.142-0.008-0.091-0.018zM6.241 16.981c0.050-0.010 0.133-0.010 0.183 0s0.009 0.018-0.091 0.018c-0.101 0-0.142-0.008-0.091-0.018zM11.158 15.924c0.095-0.009 0.25-0.009 0.345 0s0.017 0.016-0.173 0.016c-0.19 0-0.268-0.007-0.173-0.016zM10.691 15.888c0.014-0.014 0.049-0.015 0.078-0.003 0.032 0.013 0.023 0.023-0.025 0.025-0.043 0.002-0.067-0.008-0.053-0.021zM10.854 15.644c0.014-0.014 0.049-0.015 0.078-0.003 0.032 0.013 0.023 0.023-0.025 0.025-0.043 0.002-0.067-0.008-0.053-0.021zM9.431 14.218c0.062-0.009 0.153-0.009 0.203 0.001s-0.001 0.017-0.112 0.017c-0.112-0-0.153-0.008-0.091-0.018zM8.903 14.182c0.014-0.014 0.049-0.015 0.078-0.003 0.032 0.013 0.023 0.023-0.025 0.025-0.043 0.002-0.067-0.008-0.053-0.021zM11.076 12.999c0.072-0.009 0.2-0.009 0.284-0s0.025 0.016-0.131 0.016c-0.156 0-0.225-0.007-0.153-0.016zM7.799 12.889c-0.002-0.043 0.008-0.067 0.021-0.053s0.015 0.049 0.003 0.078c-0.013 0.032-0.023 0.023-0.025-0.025zM8.042 12.889c-0.002-0.043 0.008-0.067 0.021-0.053s0.015 0.049 0.003 0.078c-0.013 0.032-0.023 0.023-0.025-0.025zM14.595 12.398c-0-0.201 0.007-0.289 0.015-0.194s0.009 0.259 0 0.366c-0.008 0.107-0.015 0.030-0.015-0.171zM7.769 12.378c0-0.19 0.007-0.268 0.016-0.173s0.009 0.25 0 0.345c-0.009 0.095-0.016 0.017-0.016-0.173zM8.012 12.357c-0-0.156 0.007-0.225 0.016-0.153s0.009 0.2 0 0.284c-0.009 0.084-0.016 0.025-0.016-0.131zM14.877 12.357c0-0.112 0.008-0.153 0.018-0.091s0.009 0.153-0.001 0.203c-0.010 0.050-0.017-0.001-0.017-0.112zM11.463 12.475c0.014-0.014 0.049-0.015 0.078-0.003 0.032 0.013 0.023 0.023-0.025 0.025-0.043 0.002-0.067-0.008-0.053-0.021zM11.889 12.47c0.095-0.009 0.25-0.009 0.345 0s0.017 0.016-0.173 0.016c-0.19 0-0.268-0.007-0.173-0.016zM12.62 12.473c0.028-0.011 0.074-0.011 0.102 0s0.005 0.020-0.051 0.020c-0.056 0-0.079-0.009-0.051-0.020zM14.828 11.914c-0.002-0.043 0.008-0.067 0.021-0.053s0.015 0.049 0.003 0.078c-0.013 0.032-0.023 0.023-0.025-0.025zM7.799 11.873c-0.002-0.043 0.008-0.067 0.021-0.053s0.015 0.049 0.003 0.078c-0.013 0.032-0.023 0.023-0.025-0.025zM8.046 11.85c0-0.056 0.009-0.079 0.020-0.051s0.011 0.074 0 0.102c-0.011 0.028-0.020 0.005-0.020-0.051zM8.083 11.629c-0.002-0.043 0.008-0.067 0.021-0.053s0.015 0.049 0.003 0.078c-0.013 0.032-0.023 0.023-0.025-0.025zM13.108 11.171c0.050-0.010 0.133-0.010 0.183 0s0.009 0.018-0.091 0.018c-0.101 0-0.142-0.008-0.091-0.018zM13.565 10.59c-0.049-0.032-0.043-0.040 0.033-0.040 0.052-0 0.083 0.017 0.069 0.040-0.030 0.049-0.026 0.049-0.102 0zM11.259 10.562c0.039-0.010 0.103-0.010 0.142 0s0.007 0.019-0.071 0.019c-0.078 0-0.11-0.008-0.071-0.019zM10.873 9.101c0.027-0.011 0.082-0.012 0.122-0.002s0.017 0.019-0.050 0.020c-0.067 0.001-0.099-0.008-0.072-0.019zM11.645 9.1c0.028-0.011 0.074-0.011 0.102 0s0.005 0.020-0.051 0.020c-0.056 0-0.079-0.009-0.051-0.020zM10.518 8.924c0.139-0.044 0.246-0.044 0.142 0-0.045 0.019-0.118 0.034-0.163 0.034-0.065-0.001-0.061-0.008 0.020-0.034zM10.873 8.857c0.027-0.011 0.082-0.012 0.122-0.002s0.017 0.019-0.050 0.020c-0.067 0.001-0.099-0.008-0.072-0.019zM11.626 8.859c0.014-0.014 0.049-0.015 0.078-0.003 0.032 0.013 0.023 0.023-0.025 0.025-0.043 0.002-0.067-0.008-0.053-0.021z"></path>
<path fill="#111" d="M7.692 23.415c-0.174-0.079-0.342-0.293-0.35-0.446-0.020-0.357 0.055-0.64 0.181-0.689 0.040-0.015 0.033 0.024-0.024 0.14-0.096 0.194-0.108 0.534-0.026 0.701 0.087 0.174 0.25 0.277 0.478 0.298 0.4 0.038 0.616-0.112 0.696-0.483 0.056-0.261-0.001-0.491-0.16-0.651-0.126-0.126-0.111-0.152 0.032-0.052 0.139 0.097 0.219 0.289 0.221 0.529 0.003 0.289-0.064 0.434-0.261 0.571-0.194 0.135-0.581 0.175-0.786 0.082zM12.789 23.377c-0.214-0.112-0.322-0.298-0.32-0.556 0.001-0.226 0.123-0.505 0.25-0.571l0.095-0.049-0.092 0.101c-0.254 0.276-0.218 0.847 0.065 1.032 0.059 0.039 0.217 0.083 0.352 0.098l0.245 0.028-0.207 0.006c-0.145 0.004-0.26-0.022-0.386-0.088zM17.983 23.444c0.027-0.011 0.082-0.012 0.122-0.002s0.017 0.019-0.050 0.020c-0.067 0.001-0.099-0.008-0.072-0.019zM4.938 23.403c-0.053-0.053-0.026-0.104 0.030-0.058 0.044 0.036 0.072 0.032 0.122-0.018 0.036-0.036 0.065-0.085 0.065-0.11s0.010-0.035 0.021-0.023c0.012 0.012 0.003 0.070-0.019 0.129-0.038 0.101-0.155 0.144-0.219 0.080zM5.72 23.409c-0.013-0.022-0.009-0.26 0.009-0.528s0.022-0.52 0.011-0.559c-0.037-0.123-0.136-0.078-0.204 0.093-0.090 0.225-0.109 0.183-0.023-0.054 0.069-0.193 0.182-0.278 0.262-0.198 0.029 0.029 0.031 0.242 0.006 0.664-0.020 0.342-0.047 0.604-0.060 0.582zM10.579 22.897c0.018-0.299 0.029-0.595 0.025-0.656-0.005-0.078 0.013-0.112 0.058-0.112 0.042 0 0.057 0.025 0.044 0.071-0.011 0.039-0.032 0.323-0.048 0.63-0.015 0.31-0.046 0.57-0.070 0.585-0.029 0.018-0.032-0.146-0.010-0.518zM18.248 23.366c0.132-0.157 0.091-0.258-0.234-0.57-0.249-0.239-0.305-0.315-0.305-0.416 0-0.118 0.117-0.25 0.221-0.25 0.022 0 0 0.028-0.050 0.063-0.060 0.042-0.090 0.105-0.090 0.188 0 0.125 0.106 0.252 0.438 0.528 0.164 0.136 0.181 0.344 0.039 0.465-0.091 0.077-0.091 0.077-0.020-0.007zM4.261 23.359c0-0.017 0.018-0.058 0.040-0.091 0.032-0.049 0.040-0.043 0.040 0.030 0 0.050-0.018 0.091-0.040 0.091s-0.040-0.014-0.040-0.030zM13.616 23.297c0.147-0.142 0.193-0.271 0.193-0.543 0-0.245-0.073-0.424-0.212-0.521-0.119-0.083-0.058-0.082 0.069 0.001 0.142 0.093 0.239 0.377 0.215 0.629-0.021 0.219-0.111 0.375-0.276 0.479-0.093 0.058-0.092 0.055 0.012-0.045zM15.422 22.79c0.013-0.33 0.037-0.615 0.055-0.634 0.053-0.058 0.132 0.013 0.082 0.073-0.023 0.028-0.055 0.301-0.069 0.606s-0.041 0.555-0.058 0.555c-0.017 0-0.021-0.27-0.009-0.599zM15.948 23.176c-0.234-0.368-0.244-0.396-0.149-0.396 0.048 0 0.083 0.027 0.083 0.064 0 0.035 0.063 0.172 0.141 0.305 0.174 0.297 0.112 0.32-0.074 0.027zM4.718 22.752c-0.221-0.663-0.328-0.654-0.338 0.028-0.002 0.123-0.021 0.26-0.042 0.305-0.030 0.063-0.034 0.051-0.017-0.056 0.012-0.075 0.021-0.3 0.021-0.499 0-0.298 0.012-0.366 0.066-0.387 0.13-0.050 0.199 0.061 0.349 0.559 0.083 0.276 0.144 0.508 0.136 0.516s-0.087-0.201-0.175-0.465zM5.198 23.125c0-0.022 0.026-0.086 0.058-0.142s0.058-0.083 0.058-0.061c0 0.022-0.026 0.086-0.058 0.142s-0.058 0.083-0.058 0.061zM5.32 22.841c0-0.022 0.026-0.086 0.058-0.142s0.058-0.083 0.058-0.061c0 0.022-0.026 0.086-0.058 0.142s-0.058 0.083-0.058 0.061zM16.072 22.667c0.125-0.099 0.159-0.271 0.077-0.396-0.059-0.090-0.059-0.101-0.003-0.101 0.167 0 0.15 0.437-0.021 0.529-0.119 0.064-0.15 0.045-0.053-0.032zM0.197 21.358c0-0.027 3.731-0.041 11.111-0.041 7.363 0 11.119 0.014 11.136 0.041s-3.697 0.041-11.111 0.041c-7.397 0-11.136-0.014-11.136-0.041z"></path>
</svg>
