<?xml version="1.0" encoding="utf-8"?>
<!-- Generator: Adobe Illustrator 16.0.0, SVG Export Plug-In . SVG Version: 6.00 Build 0)  -->
<!DOCTYPE svg PUBLIC "-//W3C//DTD SVG 1.1//EN" "http://www.w3.org/Graphics/SVG/1.1/DTD/svg11.dtd">
<svg version="1.1" id="Layer_1" xmlns="http://www.w3.org/2000/svg" xmlns:xlink="http://www.w3.org/1999/xlink" x="0px" y="0px"
	 width="500px" height="500px" viewBox="0 0 500 500" enable-background="new 0 0 500 500" xml:space="preserve">
<g>
	<path fill="#231F1F" d="M361.93,284.269c-22.614,0-41.013,18.398-41.013,41.012s18.398,41.012,41.013,41.012
		c22.614,0,41.012-18.398,41.012-41.012S384.543,284.269,361.93,284.269z M361.929,346.054c-11.455,0-20.773-9.319-20.773-20.773
		s9.319-20.773,20.773-20.773s20.773,9.319,20.773,20.773S373.384,346.054,361.929,346.054z"/>
	<circle fill="#231F1F" cx="361.929" cy="325.28" r="18.394"/>
</g>
<g>
	<path fill="#231F1F" d="M137.134,284.269c-22.614,0-41.013,18.398-41.013,41.012s18.398,41.012,41.013,41.012
		c22.614,0,41.012-18.398,41.012-41.012S159.748,284.269,137.134,284.269z M137.134,346.054c-11.455,0-20.773-9.319-20.773-20.773
		s9.319-20.773,20.773-20.773s20.773,9.319,20.773,20.773S148.588,346.054,137.134,346.054z"/>
	<circle fill="#231F1F" cx="137.134" cy="325.28" r="18.394"/>
</g>
<g>
	<path fill="#231F1F" d="M265.733,277.757v26.281h57.243c7.561-13.824,22.177-23.186,39.025-23.186
		c24.555,0,44.428,19.874,44.428,44.428c0,1.439-0.072,2.88-0.217,4.32h0.721l25.201-28.73v-23.186H265.733V277.757z"/>
	<path fill="#231F1F" d="M321.464,307.207h-55.658v22.394h52.058c-0.144-1.44-0.216-2.881-0.216-4.32
		c0-6.48,1.44-12.529,3.889-18.073H321.464z"/>
</g>
<g>
	<path fill="#231F1F" d="M191.856,304.038v-26.281h-21.241v17.785c2.305,2.592,4.249,5.473,5.977,8.496H191.856z"/>
	<path fill="#231F1F" d="M178.104,307.207c2.448,5.544,3.889,11.664,3.889,18.073c0,1.439-0.072,2.88-0.216,4.32h10.08v-22.394
		h-13.681H178.104z"/>
</g>
<g>
	<path fill="#231F1F" d="M199.346,284.813c-2.448,0-4.393,2.016-4.393,4.393v29.306c0,2.448,2.016,4.392,4.393,4.392h59.188
		c2.448,0,4.393-2.016,4.393-4.392v-29.306c0-2.449-2.017-4.393-4.393-4.393H199.346z"/>
</g>
<polygon fill="#231F1F" points="262.997,282.438 262.997,275.741 194.953,275.741 194.953,282.438 "/>
<polygon fill="#231F1F" points="194.953,325.28 194.953,332.336 262.997,332.336 262.997,325.28 "/>
<path fill="#231F1F" d="M141.094,179.831v100.878c9.576,0.864,18.289,4.681,25.201,10.585V179.831H141.094z"/>
<g>
	<path fill="#231F1F" d="M92.347,324.488c0.072-0.864-1.872-1.585-4.32-1.585H48.208c-2.448,0-3.744,1.513-2.952,3.313
		c0.792,1.872,3.456,3.313,5.832,3.313h36.938c2.448,0,4.32-1.584,4.32-3.528c0,0,0,0,0-0.792s0-0.792,0-0.792V324.488z"/>
</g>
<path fill="#231F1F" d="M137.134,280.062c0.288,0,1.655-0.576,1.8-0.576c0.648-0.648,1.008-1.512,1.008-3.313v-96.054
	c0-2.448-4.32-2.448-4.32,0v49.539c0,2.448-2.016,4.393-4.392,4.393H98.323c-2.448,0-5.112,1.872-5.904,4.104l-3.601,9.793
	c-0.864,2.304-3.528,4.104-5.904,4.104H51.232c-2.448,0-4.393,2.016-4.393,4.392v32.33c0,2.448-0.792,6.192-1.8,8.425l-0.721,1.656
	c-1.008,2.232-1.8,5.977-1.728,8.424l0.071,8.785c0,2.448,2.017,4.393,4.465,4.393h41.259c1.439,0,2.952-0.648,4.248-1.513
	c3.024-22.033,21.89-38.954,44.715-38.954L137.134,280.062z"/>
<polygon fill="#231F1F" points="450.64,301.23 445.96,301.23 445.96,266.813 450.64,266.813 "/>
<polygon fill="#231F1F" points="450.64,301.23 423.71,301.23 423.71,296.55 450.64,296.55 "/>
<path fill="#231F1F" d="M51.664,249.892c-1.152,2.088-3.672,7.704-4.464,7.271c-0.721-0.432-1.08-5.039,1.728-8.784l37.082-66.315
	c1.152-2.089,4.104-3.816,6.553-3.816h69.269c2.448,0,4.393,0.72,4.393,1.584s-2.017,1.584-4.393,1.584H94.435
	c-2.448,0-5.4,1.729-6.553,3.816L51.664,249.892z"/>
<path fill="#231F1F" d="M46.695,257.308c0,0-0.504-4.608,4.393-5.112v5.4L46.695,257.308z"/>
<g>
	<path fill="#231F1F" d="M180.048,286.109c0,0.792-0.647,1.44-1.439,1.44h-6.625c-0.792,0-1.439-0.648-1.439-1.44V151.751
		c0-0.792,0.647-1.439,1.439-1.439h6.625c0.792,0,1.439,0.647,1.439,1.439V286.109z"/>
</g>
<g>
	<path fill="#231F1F" d="M82.842,315.56c0,2.736-2.232,4.968-4.968,4.968H46.12c-2.736,0-4.969-2.231-4.969-4.968v-18.721
		c0-2.736,2.232-4.969,4.969-4.969h31.754c2.735,0,4.968,2.232,4.968,4.969V315.56z"/>
</g>
<path fill="#231F1F" d="M67.433,233.69c-0.359,1.368-1.8,2.16-3.168,1.8l-5.76-1.584c-1.368-0.36-2.16-1.8-1.801-3.168l4.824-17.137
	c0.36-1.368,1.801-2.16,3.169-1.801l5.76,1.584c1.368,0.36,2.16,1.801,1.8,3.169L67.433,233.69z"/>
<polygon fill="#231F1F" points="458.849,272.644 178.104,272.644 178.104,167.015 213.53,174.215 458.849,174.215 "/>
<rect x="216.413" y="150.312" fill="#231F1F" width="6" height="24.688"/>
<rect x="261.966" y="150.312" fill="#231F1F" width="6" height="24.688"/>
<rect x="307.518" y="150.312" fill="#231F1F" width="6" height="24.688"/>
<rect x="353.07" y="150.312" fill="#231F1F" width="6" height="24.688"/>
<rect x="398.623" y="150.312" fill="#231F1F" width="6" height="24.688"/>
<rect x="444.175" y="150.312" fill="#231F1F" width="6" height="24.688"/>
<rect x="171.983" y="150.312" fill="#231F1F" width="278.191" height="3.456"/>
<rect x="188.938" y="182.06" fill="#414042" width="14.075" height="81.345"/>
<rect x="219.964" y="182.06" fill="#414042" width="14.075" height="81.345"/>
<rect x="250.989" y="182.06" fill="#414042" width="14.075" height="81.345"/>
<rect x="282.015" y="182.06" fill="#414042" width="14.074" height="81.345"/>
<rect x="313.039" y="182.06" fill="#414042" width="14.075" height="81.345"/>
<rect x="344.063" y="182.06" fill="#414042" width="14.075" height="81.345"/>
<rect x="375.088" y="182.06" fill="#414042" width="14.075" height="81.345"/>
<rect x="406.113" y="182.06" fill="#414042" width="14.075" height="81.345"/>
<rect x="437.138" y="182.06" fill="#414042" width="14.075" height="81.345"/>
</svg>
