<?xml version="1.0" encoding="utf-8"?>
<!-- Generated by IcoMoon.io -->
<!DOCTYPE svg PUBLIC "-//W3C//DTD SVG 1.1//EN" "http://www.w3.org/Graphics/SVG/1.1/DTD/svg11.dtd">
<svg version="1.1" xmlns="http://www.w3.org/2000/svg" xmlns:xlink="http://www.w3.org/1999/xlink" width="23" height="32" viewBox="0 0 23 32">
<path fill="#cfcfcf" d="M1.65 17.75c-0.45-0.121-0.842-0.351-1.199-0.703-0.346-0.342-0.402-0.485-0.406-1.045-0.005-0.636 0.187-0.971 0.802-1.398 0.526-0.365 1.52-0.572 1.702-0.354 0.099 0.119 0.004 0.216-0.326 0.338-0.576 0.213-1.087 0.603-1.087 0.831 0 0.207 0.201 0.236 1.667 0.236 1.75 0 1.889-0.046 1.49-0.501-0.209-0.238-0.53-0.431-0.934-0.562-0.309-0.1-0.405-0.218-0.29-0.356 0.054-0.065 0.161-0.078 0.476-0.058 1.014 0.065 2.113 0.984 2.112 1.765-0.001 0.535-0.317 1.052-0.866 1.417-0.573 0.38-1.556 0.609-1.728 0.402-0.104-0.125-0.046-0.24 0.145-0.287 0.323-0.080 0.873-0.393 1.065-0.605 0.223-0.247 0.245-0.358 0.088-0.442-0.117-0.063-2.978-0.085-3.136-0.024-0.306 0.117 0.225 0.705 0.863 0.956 0.466 0.183 0.566 0.268 0.46 0.395-0.089 0.108-0.488 0.106-0.898-0.005zM0.538 15.911c-0.057-0.092-0.137-0.052-0.137 0.070 0 0.1 0.014 0.108 0.084 0.050 0.046-0.038 0.070-0.092 0.053-0.12zM5.205 15.941c0-0.049-0.030-0.079-0.067-0.067-0.105 0.035-0.122 0.157-0.022 0.157 0.049 0 0.089-0.040 0.089-0.089zM19.29 17.306c-0.345-0.111-0.52-0.24-0.607-0.449-0.117-0.279-0.156-0.816-0.090-1.223 0.050-0.307 0.091-0.397 0.254-0.548 0.298-0.276 0.522-0.31 1.892-0.29 1.73 0.026 1.827 0.085 1.863 1.152 0.013 0.372-0.008 0.665-0.060 0.848-0.071 0.25-0.109 0.294-0.358 0.421-0.268 0.136-0.325 0.142-1.466 0.154-0.883 0.009-1.249-0.007-1.429-0.065zM21.406 16.398c0.109-0.146 0.071-0.622-0.060-0.753-0.114-0.114-1.099-0.168-1.345-0.073-0.176 0.067-0.252 0.331-0.19 0.66 0.051 0.271 0.165 0.308 0.898 0.293 0.538-0.011 0.622-0.027 0.697-0.126zM7.026 17.226c-0.055-0.035-0.068-0.309-0.057-1.172l0.015-1.126h1.187l0.031 0.272c0.017 0.15 0.068 0.296 0.113 0.324 0.125 0.079 1.033 0.066 1.142-0.017 0.056-0.043 0.1-0.171 0.11-0.325l0.017-0.254 0.56-0.016c0.32-0.009 0.584 0.008 0.616 0.040 0.062 0.062 0.072 2.166 0.011 2.264-0.054 0.087-1.075 0.075-1.149-0.014-0.033-0.040-0.068-0.199-0.078-0.353l-0.018-0.281-0.593-0.016c-0.671-0.018-0.736 0.015-0.736 0.383 0 0.112-0.031 0.234-0.068 0.272-0.077 0.077-0.99 0.094-1.106 0.021zM11.716 17.206c-0.048-0.048-0.068-0.377-0.068-1.119s0.020-1.071 0.068-1.119c0.044-0.044 0.271-0.068 0.644-0.068 0.473 0 0.582 0.016 0.61 0.089 0.068 0.177 0.038 2.145-0.034 2.216-0.043 0.043-0.264 0.068-0.61 0.068s-0.567-0.024-0.61-0.068zM13.921 17.226c-0.055-0.035-0.068-0.309-0.057-1.172l0.015-1.126 0.472-0.016c0.589-0.021 0.94 0.075 1.625 0.444 0.283 0.152 0.531 0.26 0.551 0.24s0.037-0.136 0.037-0.257c0-0.402 0.051-0.439 0.612-0.439 0.31 0 0.521 0.025 0.563 0.068 0.048 0.048 0.068 0.384 0.068 1.153 0 0.937-0.012 1.089-0.089 1.119-0.049 0.019-0.314 0.034-0.588 0.034h-0.499l-0.115-0.194c-0.191-0.323-1.136-0.937-1.328-0.863-0.077 0.029-0.094 0.118-0.094 0.479 0 0.269-0.027 0.469-0.068 0.51-0.077 0.077-0.99 0.094-1.106 0.021z"></path>
<path fill="#b0b0b0" d="M1.529 17.655c-0.926-0.319-1.525-0.979-1.525-1.681 0-0.838 1.152-1.749 2.215-1.751 0.448-0.001 0.42 0.21-0.045 0.34-0.693 0.194-1.342 0.885-0.998 1.063 0.158 0.082 1.543 0.134 2.371 0.090 0.603-0.032 0.784-0.061 0.882-0.141 0.123-0.101 0.124-0.101 0.017-0.302-0.125-0.233-0.562-0.544-0.967-0.687-0.578-0.204-0.566-0.397 0.022-0.348 1.035 0.087 2.020 0.864 2.085 1.646 0.031 0.373-0.049 0.627-0.3 0.956-0.399 0.523-1.325 0.97-1.928 0.932-0.382-0.024-0.357-0.142 0.069-0.323 0.189-0.081 0.464-0.223 0.611-0.316 0.453-0.287 0.612-0.701 0.3-0.785-0.223-0.060-3.036-0.039-3.153 0.023-0.131 0.070-0.138 0.174-0.024 0.394 0.108 0.209 0.494 0.475 0.978 0.673 0.476 0.195 0.5 0.31 0.068 0.33-0.206 0.009-0.435-0.029-0.68-0.113zM0.555 15.818c-0.131-0.14-0.209-0.089-0.211 0.137-0.002 0.264 0.057 0.306 0.198 0.143l0.132-0.153-0.119-0.128zM5.232 15.858l-0.037-0.168-0.306 0.253 0.143 0.124c0.12 0.103 0.151 0.11 0.19 0.041 0.026-0.045 0.030-0.158 0.010-0.25zM1.079 14.745c0-0.010-0.057 0.011-0.127 0.047-0.196 0.101-0.381 0.288-0.381 0.384 0 0.054 0.097-0.008 0.254-0.163 0.14-0.137 0.254-0.258 0.254-0.268zM5.035 15.129c0-0.029-0.083-0.115-0.184-0.19-0.319-0.236-0.36-0.233-0.13 0.009 0.221 0.232 0.313 0.285 0.313 0.181zM19.285 17.267c-0.275-0.082-0.452-0.212-0.551-0.404-0.119-0.23-0.161-0.907-0.082-1.292 0.121-0.583 0.401-0.719 1.577-0.766 0.943-0.038 1.744 0.040 2.009 0.195 0.264 0.154 0.343 0.364 0.363 0.973 0.025 0.749-0.058 1.003-0.386 1.187-0.245 0.138-0.284 0.142-1.495 0.152-0.706 0.006-1.326-0.014-1.434-0.046zM21.414 16.471c0.038-0.038 0.068-0.218 0.068-0.405 0-0.513-0.048-0.544-0.832-0.544-0.355 0-0.694 0.026-0.754 0.058-0.154 0.082-0.163 0.809-0.010 0.898 0.144 0.084 1.444 0.078 1.529-0.007zM7.024 17.149c-0.072-0.072-0.101-1.927-0.034-2.104 0.028-0.073 0.136-0.089 0.591-0.089h0.557l0.035 0.212c0.019 0.117 0.040 0.25 0.046 0.297 0.009 0.068 0.13 0.088 0.627 0.101 0.364 0.009 0.64-0.007 0.674-0.041 0.032-0.032 0.072-0.166 0.090-0.299l0.032-0.241 0.532-0.016c0.388-0.012 0.545 0.004 0.579 0.057 0.025 0.040 0.046 0.518 0.046 1.062s-0.021 1.022-0.046 1.062c-0.034 0.053-0.191 0.069-0.579 0.057l-0.532-0.016-0.037-0.304c-0.020-0.167-0.071-0.326-0.113-0.352-0.087-0.055-1.066-0.068-1.202-0.015-0.057 0.022-0.089 0.103-0.089 0.222 0 0.103-0.025 0.253-0.055 0.333-0.053 0.141-0.070 0.145-0.554 0.145-0.313 0-0.524-0.025-0.567-0.068zM11.73 17.147c-0.016-0.041-0.022-0.544-0.013-1.118l0.015-1.044h1.187v2.204l-0.58 0.016c-0.44 0.012-0.587-0.002-0.609-0.058zM13.91 17.108c-0.034-0.063-0.058-0.515-0.058-1.067 0-0.78 0.016-0.971 0.084-1.028 0.059-0.049 0.252-0.063 0.643-0.048 0.548 0.022 0.569 0.028 1.201 0.346 0.354 0.178 0.687 0.323 0.739 0.323 0.077-0 0.099-0.064 0.113-0.325l0.017-0.325 0.508-0.016c0.429-0.014 0.519-0.001 0.579 0.082 0.090 0.123 0.101 1.894 0.013 2.058-0.052 0.096-0.122 0.109-0.59 0.109-0.474 0-0.535-0.012-0.566-0.109-0.019-0.060-0.109-0.182-0.201-0.271-0.204-0.2-1.025-0.694-1.152-0.694s-0.187 0.19-0.19 0.604c-0.001 0.192-0.019 0.377-0.039 0.41-0.021 0.035-0.247 0.060-0.54 0.060-0.44 0-0.511-0.014-0.562-0.109z"></path>
<path fill="#909090" d="M1.777 17.703c-0.663-0.164-1.297-0.603-1.589-1.099-0.122-0.209-0.154-0.333-0.153-0.602 0.001-0.292 0.029-0.383 0.205-0.654 0.197-0.305 0.557-0.616 0.942-0.811 0.269-0.137 1.203-0.332 1.269-0.266 0.085 0.085 0.005 0.159-0.278 0.256-0.356 0.121-0.691 0.326-0.904 0.552-0.254 0.27-0.277 0.394-0.104 0.557l0.144 0.135 1.458 0.001c1.295 0.001 1.475-0.010 1.609-0.098 0.238-0.156 0.202-0.351-0.122-0.664-0.186-0.179-0.404-0.315-0.681-0.424-0.426-0.167-0.506-0.228-0.419-0.315 0.057-0.057 0.889 0.092 1.034 0.186 0.066 0.042 0.060 0.047-0.028 0.022-0.117-0.034-0.119-0.035 0.473 0.459 0.47 0.393 0.584 0.743 0.295 0.908l-0.164 0.094 0.164 0.1c0.197 0.12 0.207 0.249 0.043 0.57-0.090 0.176-0.098 0.218-0.031 0.163 0.050-0.041 0.142-0.182 0.206-0.314 0.236-0.488 0.090-1.258-0.302-1.594-0.123-0.106-0.205-0.192-0.182-0.192 0.088 0 0.673 0.602 0.768 0.791 0.27 0.538 0.163 1.036-0.328 1.526-0.353 0.352-0.757 0.573-1.296 0.71-0.664 0.168-0.912 0.009-0.346-0.221 0.819-0.333 1.281-0.862 0.974-1.116-0.071-0.059-0.385-0.082-1.308-0.097-1.358-0.022-1.893 0.016-2.021 0.143-0.235 0.235 0.275 0.758 1.042 1.070 0.174 0.071 0.317 0.162 0.317 0.202 0 0.101-0.328 0.112-0.687 0.023zM0.626 16.638c-0.111-0.181-0.155-0.551-0.067-0.551 0.025 0 0.095-0.036 0.155-0.081 0.106-0.078 0.104-0.083-0.046-0.14-0.128-0.049-0.155-0.094-0.155-0.252 0-0.222 0.331-0.632 0.737-0.913 0.13-0.090 0.21-0.173 0.178-0.184-0.087-0.029-0.488 0.189-0.715 0.388-0.438 0.385-0.495 1.383-0.104 1.815 0.136 0.151 0.142 0.123 0.017-0.083zM4.508 15.939c0.068-0.018 0.135-0.063 0.149-0.101 0.019-0.051-0.068-0.057-0.349-0.024-0.474 0.055-2.953 0.046-3.208-0.012-0.216-0.049-0.263 0.033-0.064 0.113 0.139 0.056 3.272 0.077 3.472 0.024zM19.466 17.274c-0.318-0.067-0.564-0.2-0.672-0.365-0.23-0.351-0.204-1.447 0.041-1.709 0.294-0.315 0.365-0.328 1.771-0.328 1.188 0 1.319 0.010 1.522 0.113 0.4 0.203 0.456 0.338 0.456 1.095 0 0.779-0.056 0.91-0.471 1.099-0.235 0.107-0.381 0.121-1.337 0.133-0.591 0.007-1.18-0.009-1.31-0.037zM21.426 16.483c0.156-0.156 0.159-0.666 0.005-0.856-0.1-0.124-0.155-0.135-0.75-0.152-0.587-0.017-0.655-0.008-0.796 0.103-0.136 0.107-0.154 0.16-0.154 0.443 0.001 0.52 0.086 0.571 0.946 0.573 0.562 0.002 0.649-0.011 0.749-0.111zM7.083 17.17c-0.055-0.035-0.068-0.297-0.057-1.115l0.016-1.070h1.074l0.031 0.272c0.017 0.15 0.068 0.296 0.113 0.324 0.113 0.071 1.109 0.067 1.244-0.005 0.078-0.042 0.11-0.119 0.11-0.269 0.001-0.339 0.034-0.358 0.597-0.339l0.504 0.016 0.015 1.070c0.012 0.818-0.002 1.081-0.057 1.115-0.115 0.073-0.916 0.056-0.993-0.021-0.037-0.037-0.068-0.172-0.068-0.3s-0.031-0.262-0.068-0.3c-0.044-0.044-0.276-0.068-0.667-0.068s-0.623 0.024-0.667 0.068c-0.037 0.037-0.068 0.172-0.068 0.3s-0.031 0.262-0.068 0.3c-0.077 0.077-0.878 0.093-0.993 0.021zM11.763 17.108c-0.077-0.144-0.077-1.898 0-2.042 0.051-0.095 0.122-0.109 0.554-0.109 0.31 0 0.521 0.025 0.563 0.068 0.048 0.048 0.068 0.364 0.068 1.063s-0.020 1.015-0.068 1.063c-0.042 0.042-0.253 0.068-0.563 0.068-0.432 0-0.503-0.014-0.554-0.109zM13.979 17.18c-0.053-0.021-0.071-0.294-0.071-1.092 0-1.212-0.038-1.132 0.531-1.132 0.469 0 0.857 0.12 1.499 0.464 0.63 0.337 0.696 0.326 0.739-0.131l0.028-0.305 0.443-0.017c0.278-0.010 0.473 0.008 0.523 0.049 0.106 0.088 0.117 2.027 0.012 2.132-0.093 0.093-0.926 0.091-1.002-0.003-0.299-0.372-0.449-0.503-0.846-0.738-0.314-0.187-0.507-0.267-0.614-0.254-0.154 0.018-0.156 0.024-0.172 0.467-0.009 0.247-0.044 0.483-0.078 0.523-0.060 0.072-0.834 0.1-0.994 0.036zM4.413 14.589c-0.078-0.044-0.114-0.082-0.082-0.083s0.109 0.035 0.17 0.081c0.14 0.106 0.095 0.107-0.088 0.002z"></path>
<path fill="#707070" d="M1.74 17.664c-0.593-0.14-1.264-0.618-1.535-1.095-0.162-0.285-0.205-0.511-0.145-0.765 0.033-0.14 0.048-0.16 0.052-0.067 0.003 0.072 0.030 0.115 0.061 0.097s0.071 0.037 0.090 0.124c0.148 0.669 0.443 1.070 0.991 1.347 0.361 0.183 0.489 0.178 0.164-0.007-0.457-0.259-0.904-0.787-0.904-1.065 0-0.184 0.21-0.202 2.309-0.202 1.844 0 2.102 0.011 2.182 0.091 0.211 0.211-0.225 0.84-0.817 1.176-0.304 0.173-0.207 0.196 0.121 0.029 0.311-0.159 0.713-0.538 0.846-0.799 0.060-0.118 0.125-0.33 0.144-0.471 0.038-0.279 0.128-0.308 0.212-0.069 0.075 0.212-0.102 0.632-0.401 0.952-0.401 0.429-1.184 0.784-1.732 0.785-0.264 0.001-0.258-0.12 0.008-0.174 0.246-0.050 0.779-0.38 0.976-0.603 0.234-0.265 0.27-0.458 0.111-0.588-0.117-0.095-0.259-0.104-1.663-0.104-1.298 0-1.555 0.014-1.661 0.088-0.272 0.19-0.087 0.533 0.501 0.933 0.181 0.123 0.424 0.243 0.539 0.267s0.221 0.075 0.233 0.113c0.027 0.081-0.349 0.086-0.682 0.007zM19.265 17.206c-0.317-0.084-0.535-0.366-0.583-0.755-0.050-0.398-0.005-0.922 0.096-1.136 0.047-0.099 0.185-0.216 0.359-0.303 0.274-0.137 0.318-0.141 1.441-0.141 1.277 0 1.553 0.047 1.812 0.305 0.125 0.125 0.163 0.227 0.195 0.528 0.022 0.205 0.021 0.533-0.002 0.729-0.034 0.295-0.072 0.387-0.221 0.536-0.099 0.099-0.28 0.207-0.403 0.241-0.277 0.077-2.401 0.073-2.695-0.005zM21.435 16.502c0.079-0.072 0.103-0.177 0.103-0.452 0-0.546-0.060-0.585-0.892-0.585-0.865 0-0.917 0.031-0.917 0.55 0 0.561 0.030 0.581 0.895 0.581 0.579 0 0.726-0.017 0.811-0.094zM7.051 17.123c-0.021-0.021-0.038-0.49-0.038-1.044 0-1.167-0.023-1.123 0.586-1.123 0.425 0 0.545 0.079 0.545 0.36 0 0.1 0.031 0.213 0.068 0.25 0.075 0.075 1.214 0.096 1.324 0.025 0.035-0.023 0.083-0.156 0.106-0.296s0.071-0.273 0.106-0.296c0.107-0.070 0.798-0.048 0.902 0.028 0.086 0.063 0.095 0.181 0.082 1.088l-0.015 1.017-1.029 0.032-0.035-0.299c-0.022-0.184-0.072-0.326-0.132-0.369-0.119-0.087-1.108-0.097-1.266-0.012-0.079 0.042-0.109 0.119-0.109 0.278 0 0.389-0.013 0.398-0.562 0.398-0.271 0-0.51-0.017-0.531-0.038zM11.798 17.123c-0.021-0.021-0.038-0.504-0.038-1.074v-1.036h1.13v2.148h-0.528c-0.29 0-0.544-0.017-0.565-0.038zM13.934 17.088c-0.015-0.040-0.021-0.517-0.012-1.060l0.015-0.987h1.194l0.652 0.331c0.359 0.182 0.701 0.322 0.759 0.31 0.085-0.016 0.113-0.084 0.136-0.331l0.028-0.31 0.476-0.017c0.342-0.012 0.488 0.004 0.522 0.057 0.053 0.084 0.066 1.855 0.014 1.99-0.028 0.072-0.13 0.089-0.531 0.089h-0.497l-0.11-0.187c-0.11-0.187-0.461-0.447-1.015-0.753-0.403-0.222-0.492-0.166-0.511 0.324-0.026 0.646 0.003 0.616-0.582 0.616-0.363 0-0.517-0.021-0.537-0.073zM0.602 15.772c-0.107-0.107-0.107-0.098-0.012-0.323 0.17-0.404 1.082-1.034 1.661-1.149 0.197-0.039 0.267 0.066 0.085 0.128-0.441 0.149-0.892 0.407-1.095 0.627-0.202 0.219-0.228 0.276-0.2 0.443 0.027 0.164 0.015 0.192-0.080 0.192-0.061 0-0.126 0.038-0.144 0.085-0.042 0.108-0.103 0.107-0.214-0.004zM4.775 15.782c-0.020-0.051-0.099-0.091-0.181-0.091-0.114 0-0.131-0.015-0.079-0.068 0.236-0.236-0.215-0.764-0.892-1.047-0.448-0.187-0.61-0.344-0.29-0.28 0.557 0.112 1.423 0.679 1.622 1.064 0.074 0.143 0.112 0.444 0.057 0.444-0.013 0-0.064 0.015-0.112 0.034-0.053 0.021-0.103-0.002-0.124-0.057z"></path>
<path fill="#4c4c4c" d="M2.294 17.669c-0.019-0.031-0.008-0.057 0.025-0.057s0.060 0.025 0.060 0.057c0 0.031-0.011 0.057-0.025 0.057s-0.041-0.025-0.060-0.057zM3.226 17.673c0-0.033 0.025-0.060 0.057-0.060s0.057 0.011 0.057 0.025c0 0.014-0.025 0.041-0.057 0.060s-0.057 0.008-0.057-0.025zM1.050 17.336c-0.628-0.362-0.995-0.89-0.98-1.412 0.007-0.242 0.015-0.267 0.032-0.106 0.012 0.117 0.045 0.212 0.073 0.212s0.078 0.099 0.11 0.221c0.096 0.358 0.396 0.743 0.782 1.006 0.408 0.278 0.399 0.319-0.018 0.079zM4.311 17.414c0.016-0.016 0.144-0.112 0.285-0.212 0.351-0.251 0.557-0.512 0.672-0.852 0.102-0.302 0.219-0.413 0.219-0.209 0 0.327-0.388 0.852-0.845 1.143-0.218 0.139-0.419 0.218-0.331 0.131zM19.431 17.215c-0.305-0.076-0.536-0.206-0.609-0.343-0.106-0.198-0.159-0.755-0.109-1.153 0.088-0.709 0.345-0.819 1.922-0.819 1.194 0 1.514 0.060 1.779 0.337 0.16 0.166 0.163 0.185 0.167 0.807 0.004 0.572-0.009 0.654-0.122 0.814-0.23 0.322-0.474 0.379-1.71 0.396-0.606 0.008-1.198-0.009-1.316-0.038zM21.456 16.513c0.198-0.198 0.199-0.689 0.002-0.918-0.136-0.158-0.138-0.159-0.853-0.159-0.685 0-0.721 0.006-0.824 0.133-0.122 0.151-0.151 0.67-0.048 0.863 0.093 0.174 0.257 0.212 0.946 0.215 0.605 0.003 0.646-0.004 0.777-0.135zM0.968 16.89c-0.313-0.313-0.458-0.604-0.371-0.745 0.039-0.063 4.188-0.085 4.348-0.024 0.254 0.098-0.115 0.706-0.617 1.017-0.167 0.103-0.167 0.102 0.037-0.128 0.113-0.128 0.224-0.288 0.245-0.355 0.056-0.177-0.103-0.387-0.324-0.428-0.101-0.019-0.838-0.026-1.638-0.017-1.403 0.017-1.458 0.022-1.576 0.139-0.159 0.159-0.114 0.344 0.155 0.642 0.313 0.347 0.109 0.266-0.26-0.103zM7.096 17.090c-0.016-0.041-0.022-0.519-0.013-1.062l0.016-0.987h0.961l0.033 0.248c0.047 0.353 0.142 0.402 0.785 0.402 0.661 0 0.779-0.060 0.804-0.411l0.017-0.239 0.992-0.033-0.031 2.124h-0.961l-0.018-0.281c-0.010-0.155-0.045-0.314-0.078-0.353-0.084-0.101-1.377-0.102-1.441-0.002-0.025 0.039-0.058 0.198-0.074 0.353l-0.029 0.283-0.467 0.016c-0.348 0.012-0.475-0.003-0.496-0.058zM11.796 17.073c-0.052-0.136-0.041-1.907 0.013-1.992 0.034-0.053 0.185-0.069 0.55-0.057l0.504 0.016v2.091l-0.516 0.016c-0.433 0.014-0.522 0.002-0.551-0.075zM13.991 17.090c-0.016-0.041-0.022-0.519-0.013-1.062l0.015-0.987 0.386-0.017c0.495-0.021 0.884 0.091 1.543 0.445 0.708 0.381 0.758 0.372 0.811-0.146l0.029-0.283h0.904v2.091l-0.905 0.032-0.212-0.254c-0.249-0.298-1.072-0.824-1.289-0.824-0.223 0-0.271 0.099-0.289 0.596l-0.017 0.449-0.467 0.016c-0.348 0.012-0.475-0.003-0.496-0.058zM0.59 15.718c-0.091-0.236 0.422-0.838 0.911-1.070 0.438-0.208 0.604-0.228 0.257-0.032-0.514 0.29-0.837 0.671-0.773 0.912 0.020 0.075-0.002 0.107-0.074 0.107-0.056 0-0.116 0.038-0.134 0.085-0.042 0.109-0.143 0.109-0.186-0.001zM4.829 15.719c-0.018-0.047-0.082-0.085-0.143-0.085-0.084 0-0.102-0.027-0.076-0.11 0.077-0.242-0.29-0.665-0.785-0.905-0.421-0.204-0.253-0.204 0.189-0 0.564 0.26 1.095 0.852 0.996 1.109-0.039 0.101-0.141 0.095-0.181-0.010z"></path>
<path fill="#242424" d="M19.252 17.118c-0.42-0.148-0.511-0.34-0.508-1.066 0.003-0.642 0.064-0.798 0.379-0.963 0.225-0.118 1.138-0.174 2.144-0.13 0.755 0.032 1.033 0.125 1.147 0.382 0.031 0.069 0.075 0.125 0.099 0.125s0.043 0.28 0.043 0.622c0 0.347-0.023 0.622-0.053 0.622s-0.069 0.051-0.089 0.114-0.142 0.171-0.272 0.239c-0.219 0.117-0.321 0.127-1.423 0.14-1.011 0.013-1.228 0-1.467-0.084zM21.487 16.559c0.253-0.253 0.19-0.944-0.1-1.099-0.231-0.123-1.361-0.11-1.557 0.018-0.176 0.115-0.259 0.503-0.178 0.83 0.081 0.329 0.308 0.411 1.080 0.389 0.559-0.015 0.649-0.032 0.755-0.138zM7.126 16.087v-1.017h0.889l0.031 0.234c0.048 0.357 0.138 0.413 0.701 0.436 0.79 0.033 0.975-0.065 0.977-0.517l0.001-0.158 0.933 0.033v1.978l-0.933 0.033v-0.257c0-0.423-0.103-0.483-0.837-0.483-0.4 0-0.644 0.024-0.707 0.071-0.059 0.043-0.11 0.185-0.132 0.367l-0.035 0.297h-0.888v-1.017zM11.817 16.087v-1.017h1.017v2.035h-1.017v-1.017zM14.022 16.080v-1.024l0.54 0.024c0.532 0.023 0.549 0.028 1.237 0.379 0.834 0.425 0.919 0.419 0.947-0.065l0.017-0.296 0.876-0.033v2.039h-0.862l-0.221-0.252c-0.253-0.288-0.999-0.762-1.265-0.806s-0.364 0.128-0.364 0.646v0.411h-0.904v-1.024zM0.079 16.002c-0-0.186 0.010-0.27 0.023-0.185s0.013 0.238 0.001 0.339c-0.013 0.102-0.023 0.032-0.023-0.154z"></path>
<path fill="#1d1d1d" d="M19.342 17.096c-0.104-0.030-0.179-0.065-0.166-0.078s0.121 0.003 0.24 0.036c0.132 0.036 0.671 0.052 1.372 0.041 0.635-0.010 1.095-0.003 1.023 0.018-0.207 0.058-2.258 0.044-2.469-0.017zM7.154 16.087v-0.961h0.848l0.016 0.48-0.121-0.424h-0.658v1.809h0.678l0.001-0.184c0-0.101 0.026-0.222 0.056-0.269 0.045-0.069 0.055-0.063 0.056 0.035 0 0.066-0.015 0.2-0.034 0.297l-0.035 0.177h-0.805v-0.961zM9.792 16.807l0.009-0.24 0.044 0.424 0.7-0v-1.808h-0.353c-0.353 0-0.353 0-0.353 0.166 0 0.091-0.030 0.185-0.066 0.207-0.045 0.028-0.054 0.009-0.028-0.058 0.021-0.054 0.038-0.16 0.038-0.235 0-0.132 0.013-0.137 0.424-0.137h0.424v1.922h-0.848l0.009-0.24zM11.874 16.087v-0.961h0.904v1.922h-0.904v-0.961zM12.722 16.087v-0.904h-0.791v1.809h0.791v-0.904zM14.050 16.087v-0.961l0.424 0.004c0.233 0.002 0.473 0.023 0.534 0.047s-0.111 0.031-0.381 0.017l-0.491-0.026v1.823h0.673l0.039-0.819 0.022 0.876-0.82-0v-0.961zM16.734 17.005c0-0.023 0.178-0.034 0.396-0.024l0.396 0.019v-1.823l-0.65 0.034-0.068 0.509-0.017-0.593h0.82v1.922h-0.438c-0.241 0-0.438-0.019-0.438-0.042zM18.862 16.738c-0.071-0.185-0.097-0.804-0.044-1.047 0.051-0.231 0.053-0.217 0.028 0.141-0.015 0.218-0.003 0.523 0.027 0.678 0.056 0.285 0.051 0.39-0.012 0.228zM19.976 16.778c-0.036-0.023 0.274-0.042 0.689-0.043s0.724 0.018 0.687 0.041c-0.087 0.055-1.29 0.056-1.376 0.001zM22.372 16.561c0.016-0.152 0.039-0.287 0.050-0.3 0.045-0.051 0.016 0.424-0.031 0.497-0.030 0.048-0.038-0.029-0.020-0.198zM22.521 16.058c-0-0.342 0.009-0.489 0.021-0.327s0.011 0.442 0 0.622c-0.011 0.18-0.021 0.047-0.021-0.295zM19.54 16.355c-0.052-0.195-0.040-0.569 0.021-0.664 0.038-0.059 0.055 0.050 0.056 0.353 0.001 0.453-0.018 0.53-0.076 0.311zM21.656 16.387c-0.002-0.068 0.021-0.14 0.052-0.159 0.067-0.041 0.067 0.014 0 0.17-0.047 0.109-0.049 0.109-0.052-0.011zM8.525 16.271c0.194-0.011 0.512-0.011 0.707 0s0.035 0.020-0.353 0.020c-0.389 0-0.548-0.009-0.353-0.020zM15.293 15.974l-0.17-0.043 0.152-0.007c0.084-0.004 0.168 0.019 0.187 0.050s0.027 0.053 0.017 0.050c-0.010-0.004-0.094-0.026-0.187-0.050zM16.411 15.883c0.019-0.019 0.068-0.021 0.108-0.004 0.045 0.018 0.032 0.031-0.034 0.034-0.060 0.003-0.093-0.011-0.074-0.030zM22.396 15.738c-0.005-0.114-0.024-0.254-0.042-0.311-0.031-0.097-0.029-0.098 0.032-0.004 0.035 0.055 0.054 0.195 0.042 0.311l-0.022 0.211-0.009-0.207zM8.261 15.808c-0.050-0.031 0.186-0.051 0.622-0.052 0.445-0.001 0.66 0.016 0.589 0.047-0.15 0.065-1.109 0.069-1.21 0.005zM21.656 15.724c-0.003-0.060 0.011-0.093 0.030-0.074s0.021 0.068 0.004 0.108c-0.018 0.045-0.031 0.032-0.034-0.034zM16.028 15.692c-0.020-0.032 0.003-0.041 0.053-0.022 0.098 0.038 0.116 0.078 0.034 0.078-0.029 0-0.069-0.025-0.088-0.056zM15.491 15.409c-0.051-0.033-0.058-0.055-0.017-0.056 0.037-0 0.083 0.025 0.102 0.056 0.043 0.070 0.024 0.070-0.085 0zM19.956 15.296c0.101-0.066 1.166-0.069 1.328-0.004 0.066 0.026-0.206 0.048-0.65 0.052-0.516 0.005-0.736-0.011-0.678-0.048zM19.133 15.157c0.060-0.048 0.149-0.086 0.198-0.083 0.076 0.004 0.076 0.009 0.003 0.036-0.047 0.017-0.136 0.055-0.198 0.083-0.111 0.051-0.111 0.051-0.003-0.036zM21.963 15.126c-0.075-0.032-0.084-0.050-0.028-0.052 0.047-0.002 0.123 0.021 0.17 0.052 0.103 0.067 0.014 0.067-0.141 0zM19.717 15.028c0.133-0.012 0.336-0.012 0.452 0s0.007 0.022-0.242 0.022c-0.249-0-0.343-0.010-0.21-0.022zM20.578 15.013l-0.198-0.042 0.212-0.007c0.117-0.004 0.212 0.018 0.212 0.049s-0.006 0.053-0.014 0.049c-0.008-0.004-0.103-0.026-0.212-0.049zM21.184 15.029c0.1-0.013 0.278-0.013 0.396-0s0.035 0.022-0.182 0.023c-0.218 0-0.313-0.010-0.213-0.022z"></path>
</svg>
