<?xml version="1.0" encoding="utf-8"?>
<!-- Generated by IcoMoon.io -->
<!DOCTYPE svg PUBLIC "-//W3C//DTD SVG 1.1//EN" "http://www.w3.org/Graphics/SVG/1.1/DTD/svg11.dtd">
<svg version="1.1" xmlns="http://www.w3.org/2000/svg" xmlns:xlink="http://www.w3.org/1999/xlink" width="23" height="32" viewBox="0 0 23 32">
<path fill="#e8e8e8" d="M0.305 20.999c-0.080-0.080-0.112-0.645-0.112-1.952 0-2.153-0.007-2.134 0.823-2.132 0.846 0.002 0.809-0.092 0.809 2.097 0 1.604-0.023 1.933-0.14 2.007-0.202 0.128-1.248 0.112-1.38-0.021zM2.448 21.030c-0.068-0.043-0.146-0.247-0.174-0.454-0.041-0.307-0.012-0.414 0.16-0.586 0.202-0.201 0.255-0.208 1.23-0.149 1.158 0.070 1.23-0.010 0.282-0.319-0.857-0.28-1.468-0.62-1.618-0.901s-0.15-0.847 0.001-1.128c0.246-0.459 0.571-0.529 2.574-0.557 1.040-0.014 1.923 0.013 1.996 0.061 0.169 0.112 0.19 0.894 0.028 1.056-0.079 0.080-0.496 0.137-1.212 0.168l-1.092 0.047 0.991 0.356c1.21 0.434 1.527 0.709 1.527 1.322 0 0.5-0.264 0.889-0.708 1.045-0.369 0.129-3.791 0.164-3.986 0.041zM8.42 21.024c-0.169-0.043-0.395-0.156-0.503-0.252-0.377-0.336-0.45-0.694-0.45-2.22 0-1.334 0.014-1.453 0.18-1.542 0.248-0.133 1.156-0.122 1.293 0.015 0.075 0.075 0.112 0.498 0.112 1.288 0 1.473 0.022 1.512 0.842 1.473l0.604-0.028 0.047-1.333c0.053-1.527 0.043-1.508 0.856-1.511 0.83-0.002 0.845 0.031 0.806 1.762-0.049 2.224-0.178 2.363-2.222 2.401-0.693 0.013-1.397-0.012-1.566-0.054zM13.186 21.008c-0.597-0.173-0.843-0.807-0.54-1.394 0.132-0.254 0.792-0.626 2.363-1.331 0.207-0.093 0.057-0.114-0.961-0.136-0.694-0.015-1.258-0.069-1.329-0.128-0.174-0.144-0.154-0.78 0.030-0.965 0.134-0.134 0.395-0.149 2.122-0.123 2.102 0.032 2.269 0.067 2.475 0.519 0.161 0.354 0.117 0.816-0.104 1.097-0.119 0.152-0.632 0.466-1.236 0.758l-1.032 0.499 1.009 0.001c1.268 0.001 1.37 0.050 1.37 0.659 0 0.414-0.027 0.476-0.239 0.556-0.3 0.114-3.527 0.104-3.928-0.012zM18.95 21.016c-0.479-0.101-0.733-0.302-0.909-0.718-0.168-0.397-0.181-3.106-0.015-3.272 0.063-0.063 0.363-0.112 0.681-0.112s0.618 0.049 0.681 0.112c0.075 0.075 0.112 0.493 0.112 1.265 0 0.634 0.043 1.234 0.097 1.334 0.078 0.146 0.198 0.18 0.634 0.18 0.296 0 0.588-0.050 0.65-0.112 0.076-0.076 0.112-0.508 0.112-1.334s0.036-1.258 0.112-1.334c0.063-0.063 0.363-0.112 0.681-0.112s0.618 0.049 0.681 0.112c0.077 0.077 0.111 0.546 0.11 1.516-0.003 2.261-0.19 2.487-2.096 2.533-0.616 0.015-1.303-0.011-1.529-0.059zM0.528 16.513c-0.144-0.106-0.177-0.245-0.173-0.711 0.003-0.318 0.034-0.608 0.069-0.643s0.91-0.085 1.945-0.111l1.881-0.047-1.212-0.407c-0.667-0.224-1.485-0.539-1.819-0.699-0.507-0.245-0.64-0.361-0.816-0.709-0.403-0.799-0.162-1.602 0.591-1.966 0.435-0.21 0.526-0.217 2.99-0.223 1.876-0.005 2.571 0.023 2.655 0.107 0.181 0.18 0.216 1.066 0.051 1.286-0.133 0.177-0.233 0.185-1.919 0.16-0.978-0.015-1.779 0.007-1.779 0.048s0.535 0.258 1.189 0.483c1.8 0.618 2.277 0.864 2.522 1.3 0.429 0.764 0.175 1.638-0.588 2.021-0.339 0.17-0.592 0.189-2.89 0.215-2.058 0.024-2.551 0.005-2.697-0.103zM7.521 16.488c-0.125-0.125-0.147-0.463-0.146-2.262 0-2.369 0.045-2.576 0.643-2.976 0.314-0.21 0.35-0.212 3.406-0.212 4.309 0 4.065-0.192 4.065 3.19 0 2.558 0.061 2.406-0.973 2.406-0.98 0-0.985-0.012-0.985-2.080 0-1.203-0.033-1.74-0.112-1.819-0.062-0.062-0.315-0.112-0.564-0.112h-0.452l0.015 1.882c0.017 2.215 0.058 2.128-0.997 2.128-0.999 0-0.968 0.068-0.968-2.152v-1.859h-0.463c-0.362 0-0.484 0.039-0.56 0.18-0.057 0.106-0.097 0.896-0.097 1.909 0 2.012 0.048 1.921-1.013 1.921-0.469 0-0.694-0.041-0.799-0.147zM17.587 16.549c-0.534-0.089-0.929-0.354-1.18-0.792-0.207-0.362-0.22-0.484-0.249-2.357-0.020-1.32 0.004-2.040 0.073-2.168 0.091-0.171 0.19-0.193 0.869-0.191 0.421 0.001 0.829 0.041 0.906 0.090 0.116 0.073 0.14 0.382 0.14 1.814 0 1.531 0.019 1.744 0.166 1.892s0.395 0.17 2.144 0.197c1.384 0.021 1.998 0.063 2.047 0.14 0.113 0.178 0.083 1.228-0.039 1.35s-4.171 0.144-4.878 0.027z"></path>
<path fill="#cecece" d="M0.348 20.956c-0.118-0.118-0.071-3.715 0.050-3.836 0.062-0.062 0.347-0.112 0.634-0.112s0.573 0.050 0.634 0.112c0.158 0.158 0.158 3.629 0 3.787-0.117 0.117-1.209 0.158-1.318 0.050zM2.435 20.837c-0.141-0.263-0.118-0.624 0.050-0.792 0.118-0.118 0.391-0.147 1.422-0.151l1.276-0.005-0.746-0.274c-0.41-0.151-0.926-0.342-1.146-0.424-0.88-0.33-1.217-0.909-0.907-1.561 0.257-0.542 0.6-0.623 2.658-0.623 1.651 0 1.773 0.012 1.863 0.18 0.053 0.099 0.096 0.278 0.095 0.396-0.003 0.461-0.090 0.493-1.51 0.542l-1.333 0.047 0.746 0.272c1.605 0.585 1.767 0.665 1.982 0.983 0.247 0.366 0.265 0.653 0.064 1.042-0.248 0.48-0.57 0.548-2.599 0.548-1.702 0-1.825-0.012-1.915-0.18zM8.316 20.9c-0.627-0.228-0.705-0.455-0.738-2.158-0.034-1.772-0.040-1.76 0.791-1.717l0.544 0.028 0.047 1.268c0.032 0.879 0.086 1.315 0.175 1.422 0.155 0.187 1.216 0.219 1.392 0.042 0.076-0.076 0.112-0.508 0.112-1.334s0.036-1.258 0.112-1.334c0.163-0.163 1.144-0.144 1.284 0.024 0.081 0.098 0.104 0.542 0.081 1.567-0.034 1.552-0.094 1.757-0.612 2.096-0.205 0.134-0.492 0.169-1.561 0.187-0.863 0.015-1.418-0.017-1.628-0.093zM13.094 20.882c-0.344-0.149-0.497-0.391-0.497-0.783 0-0.484 0.365-0.782 1.673-1.37 0.667-0.3 1.192-0.567 1.165-0.593s-0.539-0.036-1.14-0.022c-1.378 0.033-1.605-0.041-1.605-0.526 0-0.196 0.050-0.407 0.112-0.469 0.138-0.138 3.671-0.158 4.027-0.023 0.504 0.192 0.698 0.891 0.381 1.374-0.099 0.151-0.598 0.451-1.382 0.83l-1.227 0.594 1.212 0.004c0.667 0.002 1.262 0.035 1.322 0.073 0.202 0.128 0.248 0.566 0.085 0.814l-0.152 0.233-1.84-0.004c-1.352-0.003-1.918-0.038-2.136-0.132zM18.87 20.932c-0.735-0.187-0.855-0.495-0.885-2.281-0.016-0.96 0.010-1.483 0.078-1.551 0.060-0.060 0.352-0.091 0.699-0.074l0.597 0.028 0.047 1.268c0.056 1.521 0.085 1.577 0.828 1.575 0.808-0.002 0.798 0.015 0.851-1.511l0.047-1.333h1.306l0.024 1.446c0.027 1.597-0.047 1.897-0.564 2.276-0.226 0.166-0.419 0.193-1.492 0.212-0.678 0.012-1.369-0.013-1.535-0.056zM0.579 16.462c-0.171-0.113-0.248-0.869-0.114-1.119 0.105-0.195 0.157-0.2 2.128-0.2 1.121 0 1.981-0.035 1.932-0.080s-0.8-0.327-1.67-0.63-1.708-0.635-1.863-0.739c-0.971-0.651-0.924-1.915 0.089-2.423 0.338-0.169 0.597-0.189 2.851-0.219 2.846-0.037 2.79-0.052 2.79 0.724 0 0.737-0.027 0.746-2.29 0.775l-1.953 0.025 1.706 0.6c0.938 0.33 1.831 0.676 1.983 0.769 0.873 0.531 0.859 1.898-0.024 2.38-0.271 0.148-0.61 0.171-2.872 0.193-1.415 0.014-2.622-0.012-2.692-0.058zM7.58 16.429c-0.080-0.080-0.112-0.703-0.112-2.215 0-2.367 0.049-2.589 0.653-2.939 0.302-0.176 0.514-0.192 2.859-0.222 1.492-0.019 2.793 0.008 3.166 0.067 1.21 0.188 1.372 0.614 1.326 3.471-0.024 1.45-0.054 1.787-0.169 1.859-0.205 0.129-1.433 0.113-1.567-0.021-0.079-0.079-0.112-0.623-0.112-1.851 0-2.008-0.015-2.048-0.777-2.048h-0.436v1.859c0 1.565-0.023 1.882-0.147 2.005-0.181 0.181-1.433 0.208-1.607 0.035-0.080-0.080-0.112-0.658-0.112-2.010v-1.898l-0.534 0.028c-0.746 0.039-0.769 0.102-0.77 2.131-0.001 1.147-0.035 1.67-0.113 1.749-0.066 0.066-0.383 0.112-0.774 0.112s-0.708-0.046-0.774-0.112zM17.511 16.451c-0.486-0.094-0.817-0.356-1.067-0.844-0.197-0.386-0.21-0.525-0.21-2.295 0-1.036 0.025-1.951 0.057-2.032 0.045-0.118 0.211-0.148 0.836-0.148 0.675 0 0.792 0.024 0.876 0.18 0.056 0.105 0.097 0.866 0.097 1.812 0 1.359 0.024 1.656 0.147 1.778 0.123 0.123 0.435 0.147 1.953 0.147 0.993 0 1.914 0.041 2.045 0.091 0.223 0.085 0.239 0.133 0.239 0.69 0 0.46-0.034 0.612-0.148 0.655-0.207 0.079-4.392 0.050-4.825-0.034z"></path>
<path fill="#afafaf" d="M0.541 20.953c-0.152-0.040-0.163-0.19-0.14-1.924l0.025-1.881h1.212l0.025 1.818c0.023 1.628 0.009 1.831-0.134 1.935-0.155 0.113-0.653 0.14-0.989 0.052zM3.597 20.932l-1.119-0.054v-0.839l1.492-0.047c1.679-0.052 1.679-0.027 0-0.612-1.5-0.523-1.906-1.013-1.497-1.805 0.225-0.435 0.484-0.481 2.524-0.454l1.864 0.025v0.839l-1.422 0.026c-0.782 0.014-1.422 0.062-1.422 0.106s0.451 0.239 1.003 0.433c1.695 0.595 1.982 0.801 1.982 1.42 0 0.404-0.131 0.64-0.446 0.8-0.323 0.165-1.525 0.23-2.958 0.16zM8.111 20.712c-0.416-0.279-0.533-0.738-0.541-2.119-0.009-1.516-0.020-1.492 0.692-1.492 0.448 0 0.599 0.035 0.642 0.148 0.031 0.081 0.057 0.666 0.057 1.3 0 1.086 0.012 1.161 0.207 1.298 0.261 0.183 1.093 0.191 1.337 0.013 0.16-0.117 0.187-0.284 0.228-1.422l0.047-1.29h1.212l0.026 1.426c0.040 2.239-0.066 2.351-2.241 2.351-1.248 0-1.371-0.016-1.665-0.213zM13.064 20.804c-0.294-0.148-0.49-0.547-0.415-0.844 0.097-0.385 0.507-0.674 1.746-1.229 0.655-0.294 1.213-0.57 1.241-0.616s-0.542-0.082-1.284-0.083c-0.734-0.001-1.39-0.037-1.458-0.079-0.077-0.049-0.112-0.214-0.093-0.442l0.030-0.364 3.974-0.050 0.286 0.286c0.247 0.247 0.279 0.333 0.232 0.631-0.075 0.479-0.44 0.758-1.758 1.346-0.606 0.27-1.101 0.523-1.101 0.561s0.603 0.070 1.342 0.070c1.138 0 1.351 0.022 1.399 0.148 0.091 0.238 0.065 0.553-0.055 0.673-0.161 0.161-3.764 0.154-4.085-0.009zM18.69 20.793c-0.555-0.25-0.633-0.493-0.664-2.056-0.016-0.815 0.011-1.46 0.064-1.54 0.062-0.093 0.26-0.137 0.616-0.137 0.358 0 0.551 0.043 0.61 0.137 0.048 0.075 0.087 0.669 0.088 1.32 0.001 1.117 0.013 1.192 0.209 1.329 0.114 0.080 0.398 0.145 0.632 0.145s0.518-0.065 0.632-0.145c0.196-0.137 0.207-0.212 0.209-1.329 0.001-0.651 0.041-1.247 0.090-1.324 0.061-0.097 0.248-0.14 0.608-0.14 0.357 0 0.55 0.044 0.615 0.14 0.059 0.086 0.081 0.663 0.058 1.499-0.040 1.444-0.127 1.761-0.568 2.052-0.292 0.193-2.794 0.231-3.2 0.048zM0.585 16.336c-0.062-0.062-0.112-0.312-0.112-0.556 0-0.646 0.053-0.661 2.272-0.623 1.033 0.018 1.899-0.004 1.925-0.048s-0.688-0.341-1.585-0.66c-1.901-0.675-2.132-0.786-2.46-1.175-0.197-0.235-0.244-0.387-0.244-0.793 0-0.425 0.043-0.551 0.28-0.821 0.184-0.21 0.421-0.354 0.694-0.423 0.59-0.149 5.013-0.142 5.163 0.008 0.062 0.062 0.112 0.305 0.112 0.541s-0.050 0.479-0.112 0.541c-0.080 0.080-0.678 0.112-2.098 0.112-1.16 0-1.987 0.036-1.987 0.087 0 0.091 0.262 0.195 2.103 0.839 1.751 0.612 2.155 0.908 2.246 1.648 0.064 0.524-0.191 0.967-0.708 1.228-0.4 0.202-0.51 0.21-2.896 0.21-1.804 0-2.51-0.031-2.592-0.112zM7.555 16.25c-0.073-0.136-0.095-0.816-0.071-2.168 0.055-3.083-0.189-2.904 3.947-2.904 4.155 0 3.902-0.181 3.947 2.83 0.017 1.1 0.005 2.1-0.026 2.223-0.054 0.216-0.082 0.223-0.823 0.197l-0.767-0.027-0.047-1.804c-0.046-1.77-0.051-1.807-0.272-1.986-0.166-0.135-0.338-0.175-0.653-0.155l-0.427 0.028-0.051 1.959c-0.028 1.077-0.060 1.971-0.070 1.986s-0.365 0.015-0.788 0l-0.769-0.027-0.093-3.917-0.485-0.028c-0.389-0.022-0.523 0.010-0.676 0.163-0.179 0.179-0.191 0.302-0.191 1.898 0 1.203-0.033 1.74-0.112 1.819-0.066 0.066-0.387 0.112-0.79 0.112-0.595 0-0.691-0.024-0.783-0.197zM17.307 16.336c-0.393-0.137-0.768-0.512-0.905-0.906-0.078-0.224-0.117-0.958-0.119-2.226-0.002-2.163-0.040-2.068 0.82-2.070 0.933-0.002 0.903-0.065 0.903 1.871 0 2.292-0.171 2.138 2.371 2.138 2.14 0 2.106-0.011 2.106 0.686 0 0.655 0.142 0.621-2.505 0.613-1.403-0.004-2.507-0.048-2.671-0.105z"></path>
<path fill="#8f8f8f" d="M0.436 20.777c-0.112-0.291-0.063-3.446 0.055-3.564 0.062-0.062 0.312-0.112 0.556-0.112 0.344 0 0.466 0.041 0.541 0.18 0.055 0.104 0.097 0.841 0.097 1.732s-0.041 1.628-0.097 1.732c-0.128 0.239-1.063 0.266-1.153 0.033zM2.587 20.862c-0.034-0.034-0.062-0.223-0.062-0.42 0-0.277 0.037-0.358 0.163-0.361 0.090-0.002 0.73-0.012 1.422-0.023 0.7-0.011 1.28-0.060 1.306-0.11s-0.528-0.302-1.23-0.56c-1.501-0.551-1.754-0.743-1.754-1.329 0-0.851 0.424-0.989 2.891-0.941l1.446 0.029 0.029 0.396c0.034 0.463 0.177 0.425-1.521 0.404-1.071-0.013-1.59 0.065-1.438 0.218 0.027 0.027 0.634 0.26 1.348 0.519s1.394 0.564 1.509 0.679c0.49 0.49 0.269 1.273-0.411 1.462-0.384 0.107-3.595 0.139-3.697 0.037zM8.518 20.839c-0.723-0.184-0.863-0.547-0.863-2.232 0-1.492 0.020-1.533 0.716-1.489l0.45 0.029 0.047 1.279c0.057 1.557 0.083 1.6 0.969 1.6 0.881 0 0.896-0.024 0.896-1.405 0-0.638 0.043-1.242 0.097-1.341 0.075-0.141 0.197-0.18 0.556-0.18 0.657 0 0.693 0.101 0.611 1.715-0.072 1.422-0.162 1.718-0.581 1.92-0.307 0.147-2.428 0.223-2.898 0.104zM13.253 20.803c-0.59-0.203-0.726-0.844-0.271-1.269 0.108-0.101 0.779-0.447 1.491-0.77s1.295-0.64 1.295-0.706c0-0.091-0.336-0.119-1.444-0.119h-1.444l-0.062-0.248c-0.132-0.525-0.056-0.545 2.044-0.545 1.901 0 1.919 0.002 2.158 0.226 0.161 0.151 0.24 0.325 0.24 0.524 0 0.56-0.271 0.759-2.269 1.666-1.034 0.469-0.909 0.564 0.653 0.493 0.686-0.031 1.31-0.033 1.385-0.004 0.087 0.033 0.137 0.181 0.137 0.405 0 0.286-0.039 0.363-0.21 0.408-0.388 0.104-3.366 0.053-3.704-0.063zM19.108 20.845c-0.872-0.135-1.031-0.519-0.99-2.392l0.029-1.306h1.119l0.047 1.268c0.032 0.88 0.086 1.316 0.175 1.422 0.096 0.115 0.286 0.154 0.755 0.154 0.9 0 0.924-0.040 0.956-1.59l0.026-1.255h1.119v1.455c0 1.604-0.065 1.857-0.542 2.104-0.307 0.159-1.998 0.246-2.693 0.139zM0.677 16.372c-0.082-0.055-0.113-0.247-0.093-0.586l0.029-0.504 2.075-0.025c1.664-0.020 2.075-0.050 2.075-0.151 0-0.079-0.618-0.342-1.655-0.706-0.91-0.319-1.828-0.68-2.040-0.802-0.968-0.56-0.856-1.951 0.183-2.268 0.361-0.11 4.489-0.234 4.945-0.149 0.266 0.050 0.34 0.114 0.388 0.332 0.033 0.149 0.032 0.396-0.002 0.549l-0.061 0.278-2.068 0.025c-2.577 0.031-2.649 0.098-0.809 0.745 2.076 0.73 2.475 0.904 2.759 1.201 0.237 0.247 0.272 0.354 0.272 0.827 0 0.595-0.136 0.826-0.653 1.109-0.236 0.129-0.671 0.157-2.752 0.18-1.359 0.015-2.526-0.010-2.594-0.055zM7.661 16.316c-0.079-0.095-0.102-0.722-0.081-2.232 0.026-1.962 0.041-2.117 0.224-2.363 0.361-0.485 0.421-0.493 3.614-0.495 2.514-0.001 3.018 0.021 3.28 0.146 0.552 0.262 0.604 0.508 0.604 2.865 0 2.371 0.057 2.211-0.794 2.211-0.788 0-0.792-0.009-0.792-1.997 0-1.945-0.001-1.948-0.77-2.062-0.726-0.107-0.722-0.118-0.722 2.056 0 2.138 0.053 2.004-0.794 2.004-0.795 0-0.792 0.009-0.792-2.146 0-1.783-0.007-1.855-0.19-1.913-0.249-0.079-0.865 0.027-1.083 0.187-0.154 0.113-0.175 0.303-0.201 1.88-0.018 1.052-0.069 1.802-0.128 1.873-0.141 0.17-1.232 0.159-1.375-0.013zM17.727 16.361c-0.714-0.105-1.124-0.446-1.296-1.079-0.118-0.433-0.137-3.765-0.023-3.945 0.054-0.086 0.278-0.113 0.768-0.093l0.691 0.028 0.047 1.746c0.063 2.342-0.142 2.157 2.451 2.218l1.98 0.047 0.029 0.504c0.019 0.34-0.011 0.529-0.093 0.581-0.142 0.090-3.933 0.085-4.552-0.007z"></path>
<path fill="#6e6e6e" d="M0.494 19.041l0.025-1.8h1.026v3.544l-1.077 0.056 0.025-1.8zM2.563 20.704c-0.029-0.076-0.039-0.236-0.022-0.355 0.031-0.215 0.040-0.217 1.546-0.242 1.911-0.032 1.961-0.122 0.373-0.678-0.628-0.22-1.294-0.475-1.479-0.566-0.67-0.331-0.716-1.185-0.081-1.506 0.281-0.142 0.559-0.161 2.096-0.14l1.772 0.024v0.653l-1.485 0.047c-1.005 0.032-1.496 0.081-1.52 0.155-0.035 0.105 0.392 0.293 1.658 0.73 0.336 0.116 0.743 0.279 0.904 0.362 0.601 0.311 0.753 0.877 0.358 1.336l-0.225 0.262-1.921 0.029c-1.631 0.024-1.929 0.008-1.974-0.11zM8.354 20.743c-0.103-0.042-0.27-0.17-0.373-0.283-0.168-0.186-0.19-0.362-0.216-1.736l-0.030-1.529h0.509c0.378 0 0.524 0.038 0.566 0.148 0.031 0.081 0.057 0.666 0.057 1.3 0 1.376 0.046 1.443 0.982 1.443 0.9 0 0.921-0.034 0.976-1.554l0.047-1.29h1.026l0.026 1.326c0.042 2.144-0.077 2.269-2.145 2.259-0.681-0.003-1.323-0.040-1.425-0.082zM13.25 20.765c-0.507-0.186-0.635-0.812-0.242-1.177 0.124-0.115 0.816-0.474 1.539-0.798 1.204-0.541 1.51-0.765 1.198-0.876-0.064-0.023-0.625-0.020-1.247 0.005s-1.244 0.018-1.381-0.016c-0.216-0.054-0.247-0.105-0.222-0.363l0.029-0.3 1.881-0.025c1.86-0.025 1.884-0.023 2.137 0.195 0.309 0.266 0.343 0.709 0.077 1.010-0.098 0.111-0.661 0.428-1.251 0.703-1.462 0.682-1.519 0.713-1.563 0.846-0.030 0.090 0.293 0.117 1.413 0.117h1.452l0.059 0.234c0.12 0.479-0.011 0.512-1.955 0.504-0.981-0.004-1.847-0.031-1.924-0.059zM18.855 20.709c-0.555-0.194-0.649-0.43-0.719-1.801-0.034-0.673-0.035-1.334-0.001-1.469 0.057-0.227 0.1-0.246 0.558-0.246h0.497l0.060 1.282c0.054 1.153 0.080 1.299 0.258 1.446 0.284 0.234 1.199 0.225 1.496-0.015 0.209-0.169 0.222-0.244 0.251-1.446l0.031-1.268h1.011l-0 1.376c-0 2.116-0.123 2.251-2.052 2.251-0.591 0-1.215-0.050-1.39-0.111zM0.607 16.133c-0.031-0.122-0.042-0.342-0.025-0.49l0.031-0.268 2.097-0.047c1.856-0.041 2.101-0.064 2.127-0.201 0.032-0.17-0.075-0.216-2.219-0.963-0.692-0.241-1.396-0.523-1.565-0.625-0.803-0.491-0.778-1.684 0.045-2.091 0.311-0.154 0.634-0.179 2.669-0.208 1.273-0.018 2.417-0.007 2.541 0.024 0.196 0.049 0.226 0.111 0.226 0.456 0 0.22-0.050 0.45-0.112 0.511-0.080 0.080-0.677 0.112-2.093 0.112-1.937 0-2.261 0.048-2.013 0.296 0.051 0.051 0.901 0.381 1.889 0.733 1.249 0.445 1.878 0.718 2.063 0.896 0.71 0.68 0.413 1.776-0.541 1.997-0.197 0.046-1.418 0.084-2.712 0.085l-2.353 0.002-0.056-0.222zM7.695 16.232c-0.028-0.072-0.038-1.085-0.022-2.25l0.028-2.119 0.295-0.264c0.397-0.354 0.878-0.398 3.948-0.358 3.459 0.045 3.285-0.099 3.339 2.766 0.020 1.043 0.010 1.999-0.022 2.126-0.056 0.222-0.083 0.229-0.731 0.203l-0.673-0.027-0.047-1.804c-0.046-1.769-0.051-1.807-0.272-1.986-0.176-0.142-0.34-0.176-0.746-0.155l-0.521 0.028-0.051 1.959c-0.028 1.077-0.060 1.971-0.070 1.986s-0.323 0.015-0.695 0l-0.676-0.027-0.093-3.917-0.46-0.029c-0.608-0.039-0.862 0.034-1.006 0.287-0.080 0.139-0.135 0.783-0.166 1.934l-0.047 1.725-0.631 0.028c-0.476 0.021-0.643-0.005-0.681-0.104zM17.54 16.268c-0.479-0.096-0.729-0.286-0.935-0.712-0.165-0.34-0.184-0.579-0.184-2.312v-1.933l1.446 0.054 0.047 1.746c0.040 1.511 0.069 1.768 0.213 1.912 0.146 0.146 0.41 0.172 2.145 0.213l1.979 0.047 0.056 1.073-2.22-0.011c-1.221-0.006-2.367-0.040-2.546-0.076z"></path>
<path fill="#555" d="M0.633 20.774c-0.037-0.037-0.067-0.836-0.067-1.776v-1.71h0.937l-0.051 3.497-0.376 0.028c-0.207 0.015-0.406-0.002-0.443-0.039zM2.618 20.466v-0.283l1.516-0.026c1.445-0.024 1.516-0.034 1.516-0.212 0-0.15-0.148-0.237-0.746-0.443-1.396-0.479-2.018-0.744-2.198-0.938-0.23-0.247-0.231-0.727-0.002-1.011 0.175-0.217 0.209-0.221 2.098-0.249l1.92-0.029v0.57h-1.495c-1.272 0-1.504 0.022-1.551 0.146-0.031 0.080-0.013 0.189 0.039 0.242s0.675 0.302 1.383 0.554c0.708 0.252 1.384 0.55 1.502 0.661 0.267 0.251 0.283 0.716 0.037 1.022-0.175 0.217-0.209 0.221-2.098 0.249l-1.92 0.029v-0.283zM8.336 20.644c-0.447-0.18-0.528-0.474-0.535-1.944l-0.006-1.366 0.979-0.056v1.257c0 1.247 0.002 1.259 0.246 1.45 0.338 0.266 1.311 0.275 1.633 0.015 0.209-0.169 0.222-0.244 0.251-1.446l0.031-1.267h0.918v1.357c0 1.486-0.077 1.785-0.51 1.982-0.287 0.131-2.689 0.144-3.005 0.017zM13.128 20.636c-0.273-0.16-0.365-0.521-0.209-0.821 0.105-0.204 0.412-0.386 1.422-0.843 1.551-0.702 1.718-0.802 1.648-0.985-0.044-0.116-0.305-0.14-1.536-0.14h-1.482v-0.56h1.87c1.861 0 1.871 0.001 2.098 0.229 0.524 0.524 0.238 0.852-1.465 1.683-0.837 0.408-1.338 0.705-1.338 0.793 0 0.117 0.237 0.144 1.475 0.166l1.475 0.026-0.059 0.508-1.865 0.022c-1.187 0.014-1.927-0.015-2.034-0.077zM18.782 20.644c-0.447-0.18-0.539-0.496-0.575-1.977l-0.034-1.38h1.046v2.505l0.256 0.202c0.216 0.17 0.349 0.197 0.834 0.166 0.912-0.058 0.961-0.137 0.961-1.563 0-1.29 0.041-1.404 0.508-1.402 0.536 0.003 0.549 0.040 0.498 1.46-0.053 1.472-0.164 1.812-0.644 1.979-0.349 0.122-2.555 0.129-2.851 0.009zM0.696 16.13c-0.028-0.072-0.037-0.271-0.020-0.443l0.030-0.312 1.904 0.030c2.109 0.033 2.339 0.007 2.339-0.261 0-0.235-0.050-0.259-1.865-0.888-1.766-0.612-2.204-0.829-2.387-1.183-0.168-0.325-0.167-0.854 0.002-1.181 0.254-0.492 0.439-0.524 3.207-0.555l2.547-0.029-0.057 0.897-2.019 0.025c-1.677 0.021-2.039 0.049-2.137 0.168-0.201 0.243 0.060 0.387 1.833 1.009 1.892 0.664 1.955 0.693 2.276 1.035 0.305 0.326 0.329 1.040 0.047 1.356-0.381 0.427-0.631 0.463-3.218 0.463-2.001 0-2.44-0.023-2.481-0.131zM7.69 16.127c-0.030-0.079-0.040-1.022-0.022-2.096 0.030-1.808 0.047-1.973 0.228-2.216 0.107-0.145 0.338-0.313 0.513-0.375 0.404-0.142 5.572-0.164 6.067-0.026 0.648 0.18 0.686 0.329 0.686 2.703v2.098l-1.248 0.055-0.058-3.569-0.267-0.229c-0.231-0.198-0.343-0.225-0.839-0.202l-0.573 0.028-0.050 3.964h-1.302v-1.893c0-1.348-0.032-1.925-0.112-2.005-0.217-0.217-1.347-0.080-1.585 0.194-0.010 0.011-0.041 0.839-0.070 1.84l-0.052 1.819-0.631 0.028c-0.498 0.022-0.642-0.002-0.686-0.115zM17.307 16.12c-0.205-0.074-0.383-0.136-0.395-0.137s-0.101-0.159-0.197-0.351c-0.216-0.429-0.311-1.864-0.218-3.288l0.064-0.979h1.212l0.047 1.746c0.063 2.341-0.142 2.156 2.451 2.217l1.98 0.047v0.839l-2.285 0.020c-1.802 0.016-2.364-0.009-2.658-0.115z"></path>
<path fill="#4d4d4d" d="M0.607 20.618c-0.025-0.066-0.034-0.832-0.020-1.702l0.026-1.582 0.793-0.057v3.462h-0.376c-0.22 0-0.395-0.050-0.422-0.12zM2.711 20.514v-0.242h1.495c1.298 0 1.503-0.020 1.554-0.153 0.11-0.287-0.117-0.429-1.409-0.881-1.435-0.501-1.733-0.703-1.733-1.175 0-0.65 0.415-0.762 2.868-0.775l1.143-0.006v0.466l-1.459 0.026c-1.265 0.022-1.472 0.047-1.561 0.187-0.163 0.258 0.065 0.4 1.388 0.864 1.495 0.524 1.669 0.641 1.707 1.147 0.025 0.329-0.007 0.405-0.229 0.55-0.22 0.144-0.511 0.173-2.010 0.201l-1.753 0.032v-0.242zM8.639 20.652c-0.699-0.146-0.822-0.494-0.78-2.199l0.028-1.119 0.793-0.057v1.165c0 0.641 0.039 1.269 0.088 1.395 0.181 0.477 1.566 0.595 1.991 0.17 0.182-0.182 0.205-0.322 0.238-1.461l0.037-1.259h0.725l-0.001 1.329c-0.001 0.731-0.027 1.425-0.059 1.543-0.099 0.368-0.534 0.51-1.663 0.541-0.566 0.016-1.194-0.006-1.396-0.048zM13.441 20.643c-0.338-0.080-0.564-0.304-0.564-0.56 0-0.276 0.415-0.55 1.778-1.173 0.741-0.339 1.375-0.662 1.41-0.718s0.023-0.178-0.027-0.271c-0.081-0.151-0.238-0.168-1.532-0.168h-1.442v-0.481l1.809 0.030c1.623 0.027 1.829 0.049 2.005 0.208 0.274 0.248 0.247 0.59-0.069 0.88-0.146 0.134-0.828 0.497-1.515 0.808-1.237 0.56-1.51 0.787-1.19 0.99 0.069 0.044 0.745 0.080 1.501 0.081 1.277 0.001 1.376 0.014 1.376 0.174 0 0.146-0.1 0.183-0.63 0.233-0.842 0.080-2.51 0.060-2.91-0.034zM19.592 20.645c-0.436-0.026-0.85-0.083-0.919-0.128-0.287-0.185-0.387-0.695-0.387-1.968v-1.262h0.839v1.219c0 0.67 0.043 1.298 0.095 1.396 0.215 0.402 1.589 0.458 1.967 0.080 0.156-0.156 0.176-0.325 0.176-1.435v-1.259h0.86l-0.037 1.376c-0.038 1.398-0.111 1.704-0.448 1.856-0.246 0.111-1.324 0.174-2.147 0.126zM1.335 16.198l-0.583-0.039v-0.737h2.101c1.859 0 2.108-0.018 2.16-0.153 0.113-0.293-0.139-0.457-1.379-0.897-2.805-0.994-2.991-1.111-2.991-1.886 0-0.292 0.057-0.501 0.171-0.629 0.362-0.407 0.639-0.446 3.153-0.446h2.381v0.746h-1.987c-2.136 0-2.389 0.049-2.264 0.442 0.072 0.226-0.052 0.171 1.925 0.861 0.849 0.297 1.674 0.607 1.834 0.689 0.848 0.439 0.914 1.409 0.126 1.869-0.288 0.168-0.504 0.188-2.192 0.203-1.029 0.009-2.134-0.002-2.455-0.023zM10.981 16.199c-0.034-0.034-0.062-0.887-0.062-1.894 0-2.237 0.017-2.197-0.892-2.124-0.543 0.044-0.673 0.089-0.854 0.299-0.205 0.238-0.213 0.311-0.213 1.968v1.72h-1.226l0.030-2.033c0.033-2.223 0.082-2.437 0.61-2.638 0.149-0.057 1.4-0.082 3.211-0.066l2.967 0.027 0.517 0.517 0.057 4.193h-1.129l-0.012-0.35c-0.007-0.192-0.017-0.968-0.023-1.723-0.011-1.349-0.016-1.378-0.254-1.616-0.191-0.191-0.365-0.254-0.814-0.295-0.879-0.080-0.855-0.138-0.855 2.074 0 1.638-0.020 1.898-0.148 1.947-0.198 0.076-0.832 0.072-0.909-0.006zM17.99 16.178c-0.418-0.038-0.71-0.121-0.886-0.251-0.494-0.366-0.539-0.575-0.574-2.626l-0.032-1.889h1.229l0.001 1.516c0 0.834 0.045 1.676 0.1 1.873 0.156 0.562 0.404 0.622 2.56 0.622h1.827l-0.057 0.793-1.772 0.010c-0.975 0.005-2.052-0.016-2.395-0.047z"></path>
</svg>
