<?xml version="1.0" encoding="utf-8"?>
<!-- Generated by IcoMoon.io -->
<!DOCTYPE svg PUBLIC "-//W3C//DTD SVG 1.1//EN" "http://www.w3.org/Graphics/SVG/1.1/DTD/svg11.dtd">
<svg version="1.1" xmlns="http://www.w3.org/2000/svg" xmlns:xlink="http://www.w3.org/1999/xlink" width="23" height="32" viewBox="0 0 23 32">
<path fill="#d1d1d1" d="M0.427 31.436c-0.055-0.142-0.099-1.349-0.099-2.681 0-2.777 0.027-2.837 1.251-2.758 0.728 0.047 0.796 0.089 0.936 0.581l0.151 0.53 0.632-0.571c0.526-0.475 0.757-0.571 1.373-0.571 1.012 0 1.114 0.334 0.344 1.123-0.672 0.688-0.705 0.87-0.323 1.762l0.271 0.634 0.436-1.391c0.627-2.002 0.714-2.128 1.462-2.128 0.74 0 0.853 0.118 1.261 1.309l0.308 0.9 0.051-0.895c0.028-0.492 0.129-0.99 0.225-1.105 0.178-0.215 1.535-0.29 2.004-0.11 0.143 0.055 0.377 0.504 0.521 0.998 0.284 0.975 0.407 0.97 0.721-0.034 0.296-0.947 0.441-1.064 1.315-1.064 1.222 0 1.303 0.069 1.303 1.114 0 1.005 0.168 0.988 0.493-0.050 0.288-0.921 0.444-1.064 1.16-1.064 0.743 0 0.893 0.218 1.462 2.128 0.201 0.675 0.418 1.286 0.483 1.358 0.106 0.118 0.823-1.506 0.823-1.863 0-0.082-0.22-0.149-0.488-0.149-0.392 0-0.51-0.086-0.597-0.435-0.21-0.837 0.041-0.957 2.003-0.957 2.181 0 2.166-0.027 1.218 2.353-0.365 0.915-0.663 1.695-0.663 1.733s0.269 0.092 0.597 0.119c0.696 0.059 0.968 0.396 0.815 1.008l-0.109 0.435h-2.432c-1.962 0-2.472-0.047-2.636-0.245-0.263-0.317-1.21-0.317-1.473 0-0.147 0.177-0.536 0.245-1.4 0.245-1.070 0-1.208-0.036-1.305-0.342l-0.108-0.342-0.239 0.342c-0.34 0.486-1.684 0.496-1.81 0.014-0.047-0.18-0.142-0.327-0.211-0.327s-0.164 0.147-0.211 0.327c-0.075 0.288-0.223 0.327-1.227 0.327-0.815 0-1.199-0.070-1.345-0.245-0.263-0.317-1.21-0.317-1.473 0-0.207 0.249-1.823 0.352-2.352 0.149-0.138-0.053-0.38-0.476-0.538-0.941l-0.288-0.845-0.146 0.737c-0.080 0.405-0.173 0.829-0.207 0.941-0.096 0.322-1.81 0.273-1.936-0.054zM0.172 24.421c-0.108-0.13-0.172-0.443-0.143-0.696l0.053-0.46 10.949-0.042c7.952-0.031 11.010 0.008 11.172 0.143 0.276 0.229 0.29 0.831 0.026 1.094-0.149 0.149-2.822 0.197-11.029 0.197-9.227 0-10.862-0.035-11.029-0.236zM15.029 22.327c-0.429-0.459-1.428-0.839-1.814-0.691-0.409 0.157-0.896-0.203-1.097-0.811-0.193-0.585-0.66-0.934-0.66-0.494 0 0.136-0.181 0.429-0.402 0.65-0.535 0.535-1.226 0.526-1.739-0.024-0.218-0.234-0.815-0.637-1.325-0.896-0.649-0.329-1.035-0.657-1.281-1.088-0.194-0.34-0.634-0.814-0.978-1.054-0.397-0.277-0.698-0.658-0.826-1.045-0.111-0.335-0.516-0.912-0.901-1.282-0.432-0.417-0.768-0.924-0.88-1.329-0.259-0.944-0.223-3.171 0.067-4.107 0.256-0.826 0.636-3.958 0.605-4.978-0.012-0.392 0.103-0.702 0.364-0.982 0.21-0.225 0.437-0.593 0.504-0.819s0.536-0.827 1.042-1.337c0.506-0.51 1.083-1.118 1.282-1.351 0.435-0.507 0.702-0.538 0.818-0.096 0.057 0.218 0.223 0.327 0.499 0.327 0.227 0 0.505 0.126 0.618 0.28 0.163 0.223 0.539 0.293 1.861 0.347l1.656 0.067 0.49 0.618c0.547 0.691 0.606 1.007 0.244 1.308-0.135 0.112-0.245 0.331-0.245 0.486 0 0.48-0.522 0.798-1.309 0.798-0.405 0-0.958 0.116-1.228 0.257s-0.611 0.258-0.758 0.258c-0.335 0.001-0.463 0.468-0.353 1.29 0.085 0.63 0.092 0.636 0.948 0.737 0.721 0.085 1.018 0.030 1.805-0.33 0.783-0.358 1.252-0.445 2.775-0.512 2.381-0.105 4.33 0.071 4.457 0.403 0.12 0.313-1.325 1.688-1.775 1.688-0.177 0-0.505 0.198-0.729 0.44-0.359 0.387-0.53 0.44-1.425 0.438-0.559-0.001-1.303-0.057-1.653-0.124-0.572-0.11-0.624-0.092-0.521 0.176 0.063 0.164 0.188 0.924 0.279 1.689s0.343 1.919 0.562 2.565c0.219 0.645 0.398 1.316 0.398 1.49s0.18 0.656 0.401 1.071c0.221 0.415 0.48 1.048 0.577 1.407s0.443 1.117 0.77 1.684c0.327 0.568 0.749 1.306 0.937 1.641l0.343 0.609-0.418 0.419c-0.23 0.231-0.686 0.463-1.013 0.516-0.493 0.080-0.659 0.027-0.973-0.308zM10.293 18.608c-0.334-0.452-0.77-0.746-0.904-0.611-0.033 0.033 0.057 0.292 0.199 0.577 0.185 0.37 0.373 0.518 0.66 0.518h0.402l-0.357-0.483zM12.836 18.068c-0.225-0.637-1.432-2.087-1.739-2.087-0.255 0-0.124 0.416 0.193 0.614 0.177 0.111 0.443 0.441 0.592 0.735 0.229 0.455 1.019 1.434 1.156 1.434 0.024 0-0.066-0.313-0.201-0.696zM13.155 15.735c-0.052-0.135-0.169-0.245-0.26-0.245-0.096 0-0.080 0.104 0.038 0.245 0.112 0.135 0.229 0.245 0.26 0.245s0.014-0.111-0.038-0.245zM6.548 13.934c-0.573-0.591-0.982-0.738-0.982-0.353 0 0.241 0.431 0.667 0.819 0.81 0.628 0.231 0.683 0.079 0.164-0.457zM9.822 12.821c0-0.313-0.346-0.606-0.716-0.606-0.306 0-0.302 0.022 0.061 0.409 0.425 0.452 0.655 0.521 0.655 0.197zM12.121 11.786c0.086-0.225 0.156-0.769 0.156-1.209 0-1.074-0.512-1.7-1.414-1.728-0.348-0.011-0.835-0.076-1.082-0.145-0.429-0.119-0.45-0.098-0.45 0.446 0 0.429 0.186 0.809 0.75 1.532 0.413 0.528 0.857 1.165 0.988 1.414 0.202 0.386 0.286 0.427 0.567 0.277 0.181-0.097 0.4-0.361 0.485-0.586z"></path>
<path fill="#acacac" d="M0.6 31.422c-0.204-0.204-0.124-4.885 0.087-5.096 0.108-0.108 0.462-0.197 0.786-0.197 0.708 0 0.982 0.237 0.982 0.851 0 0.252 0.059 0.458 0.13 0.458s0.418-0.295 0.77-0.655c0.521-0.533 0.753-0.655 1.251-0.655 0.86 0 0.925 0.262 0.241 0.963-0.325 0.333-0.592 0.711-0.592 0.839 0 0.417 0.535 1.648 0.694 1.595 0.085-0.028 0.362-0.696 0.615-1.484 0.535-1.663 0.704-1.914 1.29-1.911 0.627 0.004 0.752 0.138 1.148 1.225 0.562 1.544 0.579 1.548 0.67 0.164l0.086-1.309 0.915-0.048c1.057-0.056 1.162 0.027 1.498 1.185 0.129 0.445 0.308 0.834 0.398 0.864s0.298-0.391 0.463-0.936c0.329-1.088 0.511-1.211 1.653-1.117l0.639 0.052 0.050 1.064c0.027 0.585 0.111 1.126 0.186 1.201s0.303-0.366 0.507-0.982c0.406-1.229 0.518-1.359 1.177-1.363 0.574-0.003 0.802 0.36 1.361 2.169 0.244 0.789 0.499 1.47 0.567 1.512s0.35-0.478 0.627-1.157c0.525-1.289 0.519-1.316-0.3-1.414-0.335-0.040-0.409-0.138-0.409-0.54v-0.491l1.74-0.046c1.336-0.036 1.76 0.005 1.824 0.173 0.046 0.12-0.237 0.988-0.629 1.929s-0.716 1.797-0.719 1.905c-0.004 0.114 0.283 0.216 0.689 0.245 0.653 0.047 0.696 0.081 0.696 0.541v0.491l-2.391 0.045c-1.982 0.037-2.426 0.002-2.598-0.205-0.279-0.336-1.409-0.334-1.539 0.003-0.078 0.202-0.334 0.243-1.286 0.205l-1.189-0.048-0.181-1.146-0.269 0.614c-0.248 0.565-0.322 0.614-0.939 0.614-0.632 0-0.687-0.039-0.964-0.692l-0.294-0.692-0.221 1.384h-1.149c-0.87 0-1.172-0.059-1.243-0.245-0.127-0.332-1.261-0.327-1.538 0.007-0.158 0.19-0.471 0.241-1.272 0.205-1.151-0.052-1.082 0.003-1.697-1.357l-0.37-0.819-0.049 0.737c-0.095 1.428-0.125 1.473-1.002 1.473-0.433 0-0.837-0.049-0.897-0.109zM6.791 29.4c-0.092-0.148-0.153-0.144-0.253 0.019-0.173 0.279-0.003 0.554 0.21 0.34 0.090-0.090 0.109-0.252 0.043-0.359zM16.094 29.466c-0.076-0.198-0.126-0.208-0.228-0.043-0.153 0.248-0.029 0.516 0.18 0.387 0.080-0.049 0.101-0.204 0.048-0.344zM0.226 24.257c-0.050-0.13-0.065-0.369-0.034-0.532 0.054-0.282 0.574-0.296 11.020-0.296 10.423 0 10.966 0.015 11.020 0.294 0.151 0.786 0.392 0.77-11.127 0.77-9.245 0-10.802-0.034-10.88-0.236zM15.047 22.156c-0.193-0.423-1.212-0.808-1.761-0.664-0.435 0.114-0.795-0.164-1.078-0.833-0.117-0.277-0.73-1.038-1.361-1.691-0.884-0.914-1.252-1.187-1.603-1.187-0.446 0-0.449 0.007-0.159 0.329 0.164 0.181 0.38 0.494 0.48 0.696 0.124 0.248 0.335 0.37 0.649 0.375 0.515 0.009 1.079 0.571 1.079 1.074 0 0.449-0.585 0.964-1.096 0.964-0.256 0-0.634-0.185-0.901-0.44-0.253-0.242-0.807-0.629-1.23-0.859s-0.958-0.695-1.186-1.032c-0.229-0.337-0.689-0.808-1.024-1.045-0.378-0.268-0.68-0.657-0.796-1.024-0.103-0.325-0.507-0.923-0.896-1.328s-0.786-0.944-0.882-1.197c-0.262-0.697-0.212-3.359 0.081-4.347 0.237-0.797 0.542-3.123 0.62-4.718 0.021-0.431 0.161-0.827 0.376-1.064 0.189-0.208 0.391-0.58 0.449-0.827 0.065-0.276 0.362-0.619 0.768-0.887 0.364-0.241 0.844-0.75 1.068-1.131 0.482-0.823 0.813-0.997 1.051-0.554 0.095 0.177 0.327 0.321 0.516 0.321s0.433 0.121 0.541 0.269c0.153 0.21 0.573 0.287 1.901 0.348 1.662 0.077 1.714 0.092 2.147 0.59 0.512 0.59 0.553 0.8 0.211 1.084-0.135 0.112-0.245 0.37-0.245 0.573 0 0.525-0.283 0.694-1.309 0.78-0.495 0.042-1.195 0.189-1.555 0.328l-0.655 0.252-0.096 2.113 1.001 0.091c0.855 0.078 1.137 0.028 1.93-0.342 0.861-0.401 1.126-0.437 3.593-0.494 1.465-0.034 2.846-0.015 3.069 0.041 0.534 0.134 0.515 0.509-0.044 0.867-0.248 0.158-0.542 0.412-0.655 0.564s-0.444 0.326-0.737 0.387c-0.292 0.061-0.657 0.269-0.809 0.463-0.292 0.372-1.1 0.451-2.751 0.269-0.664-0.073-0.732-0.049-0.694 0.247 0.284 2.19 0.554 3.605 0.84 4.405 0.19 0.532 0.345 1.129 0.345 1.327s0.211 0.758 0.47 1.243c0.258 0.485 0.526 1.139 0.594 1.453s0.219 0.719 0.334 0.9c0.354 0.556 1.050 1.774 1.345 2.352 0.279 0.546 0.278 0.551-0.177 0.941-0.616 0.53-1.524 0.54-1.761 0.020zM13.587 19.264c0-0.085-0.068-0.196-0.151-0.247s-0.273-0.459-0.421-0.905c-0.286-0.861-1.661-2.451-2.016-2.332-0.311 0.104-0.225 0.665 0.131 0.855 0.179 0.096 0.448 0.41 0.597 0.699 0.306 0.593 1.55 2.084 1.737 2.085 0.068 0 0.123-0.069 0.123-0.154zM6.872 16.386c-0.109-0.131-0.268-0.195-0.354-0.142-0.087 0.054-0.027 0.239 0.137 0.42 0.33 0.365 0.533 0.104 0.216-0.278zM13.264 15.662c-0.174-0.325-0.66-0.475-0.66-0.204 0 0.073 0.162 0.306 0.359 0.518 0.396 0.425 0.588 0.223 0.3-0.315zM7.776 14.507c-0.056-0.090-0.207-0.164-0.337-0.164s-0.53-0.266-0.889-0.591c-0.639-0.578-1.148-0.657-1.148-0.179 0 0.245 0.596 0.841 0.982 0.982 0.441 0.161 1.498 0.124 1.391-0.048zM11.815 13.31c-0.453-0.482-0.448-0.54 0.085-0.998 0.376-0.324 0.451-0.536 0.509-1.443 0.063-0.996 0.036-1.099-0.423-1.614-0.383-0.429-0.63-0.555-1.123-0.574-0.347-0.014-0.882-0.082-1.188-0.153l-0.556-0.128 0.087 0.768c0.066 0.584 0.261 0.992 0.818 1.703 0.848 1.085 1.108 1.539 1.108 1.935 0 0.362 0.466 0.883 0.791 0.883 0.192 0 0.167-0.087-0.107-0.379zM9.789 13.165c0.473-0.473 0.028-1.113-0.775-1.113-0.427 0-0.43 0.193-0.011 0.573 0.18 0.163 0.327 0.395 0.327 0.516 0 0.273 0.199 0.283 0.458 0.024z"></path>
<path fill="#8d8d8d" d="M0.771 31.43c-0.064-0.064-0.117-1.246-0.117-2.627v-2.51h1.637v0.655c0 0.36 0.059 0.655 0.13 0.655s0.418-0.295 0.77-0.655c0.55-0.563 0.738-0.655 1.343-0.655 0.387 0 0.703 0.059 0.703 0.132s-0.258 0.381-0.573 0.687c-0.315 0.305-0.573 0.649-0.573 0.764 0 0.252 0.768 2.019 0.878 2.019 0.043 0 0.349-0.814 0.68-1.809l0.603-1.809 1.333 0.099 0.422 1.257c0.232 0.692 0.477 1.311 0.545 1.378s0.124-0.426 0.125-1.093c0.001-0.668 0.064-1.31 0.138-1.428 0.092-0.144 0.424-0.198 1.021-0.164l0.885 0.050 0.39 1.111c0.214 0.611 0.435 1.066 0.491 1.012s0.255-0.555 0.443-1.111l0.341-1.012h1.937l0.085 1.391c0.092 1.5 0.126 1.488 0.706-0.245l0.383-1.146 1.335-0.099 0.622 1.891c0.342 1.040 0.67 1.891 0.728 1.891 0.113 0 1.133-2.344 1.133-2.605 0-0.086-0.239-0.18-0.532-0.208-0.443-0.043-0.541-0.126-0.584-0.501l-0.052-0.45h1.73c1.11 0 1.73 0.062 1.73 0.174 0 0.095-0.332 0.985-0.739 1.977s-0.696 1.871-0.645 1.954c0.051 0.083 0.386 0.151 0.744 0.151 0.711 0 0.986 0.319 0.638 0.739-0.16 0.193-0.65 0.243-2.367 0.243-1.957 0-2.193-0.032-2.461-0.327-0.393-0.434-1.247-0.431-1.643 0.007-0.252 0.279-0.466 0.326-1.286 0.287l-0.983-0.048-0.359-1.637-0.218 0.655c-0.296 0.888-0.463 1.064-1.010 1.064-0.504 0-0.861-0.402-1.054-1.187-0.17-0.692-0.379-0.535-0.435 0.327l-0.050 0.777-0.991 0.048c-0.828 0.040-1.041-0.007-1.294-0.287-0.4-0.441-1.25-0.441-1.65 0-0.248 0.275-0.466 0.326-1.212 0.287-0.885-0.047-0.918-0.066-1.237-0.715-0.18-0.367-0.401-0.845-0.491-1.064-0.28-0.681-0.488-0.44-0.573 0.667l-0.082 1.064-0.661 0.049c-0.363 0.027-0.713-0.004-0.777-0.068zM6.846 29.526c-0.029-0.203-0.126-0.368-0.216-0.368s-0.187 0.166-0.216 0.368c-0.036 0.253 0.031 0.368 0.216 0.368s0.252-0.115 0.216-0.368zM16.176 29.526c-0.029-0.203-0.126-0.368-0.216-0.368s-0.187 0.166-0.216 0.368c-0.036 0.253 0.031 0.368 0.216 0.368s0.252-0.115 0.216-0.368zM0.222 24.081c-0.052-0.136-0.004-0.358 0.108-0.492 0.177-0.213 1.579-0.239 10.945-0.203l10.742 0.042 0.104 0.9h-10.902c-9.58 0-10.913-0.030-10.997-0.248zM14.969 21.942c-0.264-0.35-0.492-0.438-1.325-0.512-0.878-0.078-1.031-0.143-1.197-0.508-0.389-0.853-2.246-2.905-2.821-3.117-0.207-0.076-0.598-0.187-0.868-0.247l-0.491-0.108 0.431 0.37c0.237 0.204 0.552 0.61 0.7 0.902 0.208 0.411 0.375 0.532 0.731 0.532 0.922 0 1.37 1.198 0.64 1.709-0.514 0.36-0.83 0.318-1.286-0.171-0.218-0.234-0.802-0.632-1.297-0.884-0.534-0.272-1.019-0.663-1.192-0.959-0.161-0.275-0.62-0.77-1.022-1.099-0.482-0.395-0.785-0.801-0.892-1.193-0.098-0.361-0.388-0.775-0.737-1.052-0.963-0.764-1.146-1.279-1.145-3.227 0-1.039 0.090-1.975 0.226-2.367 0.234-0.672 0.687-3.844 0.688-4.819 0-0.337 0.158-0.763 0.4-1.079 0.22-0.288 0.399-0.637 0.399-0.775s0.336-0.527 0.747-0.863c0.411-0.337 0.927-0.898 1.148-1.247 0.44-0.697 0.803-0.816 0.936-0.308 0.058 0.221 0.223 0.327 0.51 0.327 0.233 0 0.425 0.067 0.425 0.149 0 0.216 1.229 0.401 2.418 0.363 0.969-0.031 1.055-0.002 1.514 0.501 0.575 0.629 0.607 0.875 0.149 1.121-0.27 0.145-0.299 0.228-0.144 0.415 0.316 0.38-0.106 0.725-0.889 0.726-0.372 0-1.118 0.18-1.658 0.4l-0.982 0.399-0.051 0.776c-0.094 1.432-0.014 1.534 1.207 1.534 0.738 0 1.262-0.099 1.697-0.321 0.998-0.509 2.633-0.696 4.964-0.569 1.292 0.071 2.087 0.18 2.087 0.288 0 0.309-1.367 1.421-1.747 1.421-0.203 0-0.55 0.196-0.771 0.435-0.398 0.429-0.423 0.434-1.992 0.33l-1.589-0.104 0.117 0.611c0.064 0.336 0.172 1.163 0.238 1.839s0.272 1.596 0.457 2.046c0.185 0.45 0.391 1.15 0.457 1.555s0.291 1.031 0.498 1.391c0.207 0.36 0.458 0.964 0.557 1.342 0.168 0.636 0.964 2.188 1.557 3.036 0.334 0.476 0.319 0.832-0.047 1.163-0.473 0.428-1.377 0.35-1.756-0.152zM13.75 19.454c0-0.070-0.097-0.273-0.216-0.45s-0.341-0.654-0.494-1.060c-0.327-0.866-1.675-2.354-2.014-2.224-0.458 0.176-0.457 0.622 0.002 0.956 0.243 0.177 0.583 0.59 0.755 0.918 0.542 1.031 1.967 2.378 1.967 1.86zM14.569 18.218c0-0.279-0.171-0.451-0.343-0.345-0.165 0.102-0.004 0.563 0.197 0.563 0.080 0 0.146-0.098 0.146-0.218zM7.15 16.758c-0.214-0.523-0.766-0.835-0.766-0.432 0 0.234 0.642 0.964 0.847 0.964 0.075 0 0.038-0.239-0.081-0.532zM13.587 16.384c0-0.346-0.522-1.222-0.728-1.222-0.366 0-0.312 0.49 0.102 0.931 0.333 0.354 0.626 0.491 0.626 0.292zM8.021 14.589c0-0.135-0.143-0.245-0.317-0.245s-0.662-0.298-1.083-0.662c-0.836-0.723-1.112-0.755-1.186-0.135-0.065 0.543 0.461 0.994 1.323 1.135 1.102 0.18 1.263 0.168 1.263-0.092zM9.741 13.359c0.441-0.636 0.446-0.667 0.161-0.982s-1.054-0.443-1.283-0.214c-0.061 0.061 0.086 0.318 0.328 0.57 0.384 0.401 0.416 0.51 0.251 0.871-0.289 0.635 0.035 0.489 0.543-0.244zM12.113 13.627c0-0.124-0.111-0.317-0.245-0.429-0.334-0.277-0.311-0.411 0.151-0.872 0.523-0.523 0.708-1.707 0.395-2.529-0.343-0.902-0.993-1.264-2.269-1.264h-1.060l0.052 0.655c0.032 0.411 0.233 0.899 0.54 1.309 1.080 1.449 1.467 2.135 1.386 2.458-0.058 0.235 0.046 0.408 0.362 0.599 0.562 0.34 0.689 0.354 0.689 0.073zM8.249 6.445c0.062-0.624 0.045-1.105-0.038-1.105-0.181 0-0.341 1.302-0.23 1.881 0.112 0.585 0.143 0.494 0.268-0.776z"></path>
<path fill="#6f6f6f" d="M1.183 31.402l-0.536-0.056 0.090-4.971h1.473l0.050 0.696c0.028 0.383 0.104 0.696 0.171 0.696s0.445-0.331 0.843-0.737c0.567-0.578 0.839-0.737 1.262-0.737 0.68 0 0.695 0.28 0.048 0.9-0.27 0.259-0.491 0.594-0.491 0.745 0 0.453 0.69 1.971 0.869 1.912 0.091-0.030 0.43-0.825 0.753-1.765 0.564-1.642 0.608-1.712 1.093-1.759 0.64-0.062 0.745 0.078 1.292 1.742 0.247 0.751 0.512 1.303 0.587 1.227s0.16-0.764 0.186-1.529l0.048-1.391h1.79l0.333 1.109c0.183 0.61 0.405 1.126 0.492 1.146s0.347-0.479 0.576-1.109l0.417-1.146 1.712-0.099 0.003 1.359c0.004 2.204 0.228 2.196 0.916-0.032 0.361-1.17 0.506-1.336 1.114-1.277 0.488 0.048 0.526 0.111 1.111 1.85 0.343 1.020 0.696 1.801 0.813 1.801 0.114 0 0.451-0.584 0.749-1.297 0.588-1.405 0.554-1.561-0.338-1.565-0.384-0.002-0.453-0.064-0.409-0.371 0.050-0.349 0.134-0.371 1.648-0.415 1.92-0.056 1.888-0.13 0.941 2.135-0.36 0.862-0.655 1.68-0.655 1.817 0 0.177 0.203 0.265 0.696 0.3 0.578 0.042 0.705 0.113 0.748 0.419 0.052 0.367 0.046 0.368-2.315 0.368-1.953 0-2.384-0.043-2.462-0.245-0.065-0.169-0.328-0.245-0.841-0.245s-0.776 0.077-0.841 0.245c-0.071 0.185-0.371 0.245-1.223 0.245h-1.128v-0.9c0-0.495-0.069-0.9-0.152-0.9s-0.27 0.405-0.414 0.9c-0.259 0.892-0.267 0.9-0.899 0.9-0.619 0-0.645-0.023-0.908-0.817-0.368-1.107-0.574-1.173-0.574-0.185 0 0.452-0.086 0.872-0.193 0.938-0.32 0.198-1.83 0.061-2.109-0.192-0.354-0.32-1.607-0.313-1.731 0.010-0.070 0.182-0.36 0.245-1.123 0.245h-1.029l-0.409-1.023c-0.525-1.312-0.836-1.341-0.902-0.083-0.055 1.051-0.239 1.235-1.142 1.141zM6.944 29.507c-0.176-0.583-0.375-0.678-0.535-0.254-0.174 0.46 0.041 0.833 0.402 0.694 0.157-0.060 0.203-0.211 0.133-0.441zM16.251 29.395c-0.135-0.516-0.359-0.539-0.543-0.056-0.127 0.333-0.118 0.479 0.036 0.573 0.295 0.182 0.607-0.137 0.507-0.518zM0.438 24.221c-0.061-0.061-0.11-0.246-0.11-0.412 0-0.29 0.407-0.3 10.845-0.259 10.722 0.042 10.845 0.046 10.845 0.369s-0.123 0.328-10.735 0.369c-5.904 0.023-10.784-0.008-10.845-0.068zM15.139 21.975c-0.269-0.41-0.926-0.642-1.877-0.662-0.485-0.010-0.611-0.097-0.844-0.585-0.151-0.315-0.779-1.109-1.395-1.764-0.892-0.948-1.278-1.237-1.898-1.416-0.93-0.27-1.133-0.090-0.448 0.398 0.273 0.194 0.605 0.613 0.738 0.931 0.208 0.497 0.298 0.563 0.649 0.475 0.475-0.119 1.067 0.366 1.067 0.873 0 0.408-0.756 1.005-1.115 0.879-0.152-0.053-0.497-0.299-0.767-0.546s-0.809-0.609-1.198-0.804c-0.398-0.199-0.849-0.595-1.032-0.905-0.179-0.303-0.647-0.815-1.040-1.137-0.418-0.343-0.757-0.779-0.817-1.050-0.056-0.256-0.402-0.753-0.769-1.105s-0.768-0.877-0.893-1.167c-0.308-0.717-0.296-3.355 0.021-4.422 0.223-0.751 0.509-2.899 0.633-4.751 0.028-0.419 0.179-0.843 0.38-1.064 0.184-0.202 0.38-0.564 0.437-0.804 0.060-0.256 0.342-0.584 0.679-0.792 0.317-0.196 0.799-0.68 1.072-1.077 0.523-0.76 0.757-0.882 0.913-0.476 0.052 0.135 0.246 0.245 0.432 0.245s0.472 0.122 0.637 0.27c0.22 0.199 0.726 0.291 1.926 0.349 1.521 0.073 1.656 0.108 2.068 0.538 0.515 0.537 0.439 0.97-0.17 0.97-0.461 0-0.556 0.238-0.157 0.391 0.142 0.054 0.233 0.228 0.203 0.386-0.042 0.221-0.281 0.311-1.035 0.391-0.539 0.057-1.334 0.233-1.765 0.39l-0.784 0.286 0.095 2.33 0.982 0.115c0.859 0.101 1.105 0.060 1.964-0.324 0.919-0.411 1.164-0.443 3.822-0.5 2.070-0.045 2.891-0.008 3.028 0.136 0.143 0.15 0.113 0.242-0.129 0.385-0.174 0.103-0.477 0.353-0.673 0.556s-0.59 0.415-0.876 0.472c-0.286 0.057-0.618 0.245-0.738 0.417-0.286 0.408-1.090 0.524-2.302 0.33-1.228-0.197-1.456-0.12-1.306 0.442 0.063 0.235 0.204 1.091 0.314 1.901s0.315 1.743 0.456 2.072c0.141 0.329 0.345 1.029 0.453 1.555s0.366 1.251 0.572 1.611c0.206 0.36 0.425 0.913 0.487 1.228s0.29 0.848 0.507 1.183c0.217 0.336 0.394 0.648 0.394 0.693s0.222 0.444 0.493 0.885c0.515 0.838 0.513 1.219-0.011 1.499-0.525 0.281-1.114 0.183-1.385-0.231zM15.551 20.737c0-0.085-0.074-0.2-0.164-0.255s-0.164 0.014-0.164 0.154c0 0.14 0.074 0.255 0.164 0.255s0.164-0.069 0.164-0.154zM13.612 19.037c-0.172-0.285-0.403-0.799-0.512-1.142s-0.579-1.018-1.044-1.502c-0.684-0.712-0.899-0.849-1.13-0.72-0.377 0.211-0.363 0.725 0.026 0.998 0.171 0.12 0.481 0.511 0.688 0.869s0.729 1.006 1.16 1.439c0.865 0.871 1.322 0.904 0.812 0.058zM14.617 18.497c0.056-0.056-0.021-0.333-0.173-0.614-0.263-0.489-0.278-0.495-0.334-0.131-0.098 0.635 0.191 1.060 0.506 0.745zM7.813 17.813c-0.133-0.152-0.394-0.627-0.581-1.055-0.34-0.782-0.727-1.001-0.913-0.517-0.063 0.164 0.070 0.423 0.357 0.696 0.252 0.239 0.634 0.687 0.851 0.995 0.224 0.319 0.422 0.474 0.461 0.359 0.037-0.111-0.042-0.326-0.175-0.479zM13.652 16.349c-0.161-0.693-0.53-1.187-0.888-1.187-0.489 0-0.39 0.414 0.255 1.058 0.318 0.318 0.614 0.578 0.658 0.578s0.033-0.203-0.025-0.45zM8.185 14.602c0-0.128-0.222-0.281-0.494-0.341s-0.764-0.364-1.095-0.675c-0.68-0.641-1.245-0.686-1.328-0.104-0.059 0.419 0.612 1.13 1.17 1.239 0.876 0.171 1.746 0.112 1.746-0.119zM9.781 13.442c0.462-0.712 0.463-0.978 0.004-1.299-0.854-0.598-1.626-0.078-0.951 0.64 0.284 0.303 0.34 0.498 0.253 0.892-0.145 0.66 0.184 0.55 0.693-0.233zM12.235 13.734c0.033-0.099-0.11-0.338-0.317-0.531l-0.377-0.351 0.368-0.278c0.43-0.324 0.696-1.134 0.696-2.119 0-0.567-0.105-0.814-0.557-1.307-0.454-0.495-0.689-0.617-1.269-0.658-0.391-0.027-0.932-0.066-1.203-0.085-0.483-0.035-0.491-0.023-0.481 0.744 0.007 0.547 0.118 0.913 0.37 1.228 1.056 1.314 1.539 2.17 1.46 2.583-0.064 0.333-0.001 0.457 0.291 0.568 0.205 0.078 0.424 0.224 0.486 0.324 0.131 0.213 0.445 0.143 0.531-0.117zM8.337 6.445c0.011-1.185-0.15-1.611-0.38-1.010-0.131 0.342-0.123 2.009 0.012 2.515 0.099 0.371 0.116 0.377 0.232 0.082 0.069-0.175 0.13-0.889 0.136-1.587z"></path>
<path fill="#4f4f4f" d="M0.754 31.109c-0.055-0.142-0.099-1.202-0.099-2.354 0-2.299 0.088-2.53 0.931-2.433 0.394 0.045 0.468 0.135 0.513 0.626 0.084 0.919 0.278 0.937 1.163 0.109 0.812-0.759 1.048-0.859 1.566-0.66 0.225 0.086 0.168 0.21-0.342 0.731l-0.613 0.627 0.455 1.159c0.25 0.638 0.539 1.133 0.642 1.102s0.429-0.79 0.726-1.686c0.604-1.826 0.811-2.124 1.376-1.983 0.317 0.080 0.468 0.346 0.832 1.463 0.245 0.751 0.553 1.509 0.685 1.684 0.217 0.287 0.241 0.165 0.246-1.245 0.006-1.763 0.104-1.956 1-1.956 0.739 0 0.86 0.141 1.219 1.432 0.161 0.577 0.376 1.023 0.495 1.023 0.116 0 0.375-0.497 0.576-1.105 0.4-1.211 0.515-1.344 1.162-1.348 0.918-0.005 0.955 0.065 0.955 1.816 0 0.895 0.068 1.619 0.153 1.619s0.395-0.739 0.692-1.643c0.449-1.37 0.603-1.659 0.925-1.74 0.578-0.145 0.807 0.197 1.396 2.087 0.349 1.119 0.612 1.705 0.765 1.705 0.236 0 1.274-2.197 1.296-2.742 0.009-0.22-0.12-0.287-0.552-0.287-0.639 0-0.868-0.23-0.577-0.58 0.234-0.282 2.856-0.344 3.025-0.071 0.057 0.092-0.233 0.985-0.645 1.985s-0.748 1.882-0.748 1.961c0 0.079 0.276 0.144 0.614 0.146 0.75 0.003 1.104 0.205 0.97 0.554-0.085 0.222-0.43 0.262-2.249 0.262-1.9 0-2.196-0.038-2.564-0.327-0.537-0.422-1.257-0.418-1.655 0.009-0.26 0.279-0.476 0.328-1.275 0.287l-0.962-0.050-0.049-1.023c-0.027-0.563-0.105-1.023-0.173-1.023s-0.272 0.46-0.452 1.023c-0.318 0.993-0.344 1.023-0.89 1.023-0.536 0-0.578-0.044-0.891-0.925-0.18-0.509-0.402-0.951-0.492-0.982-0.092-0.032-0.2 0.374-0.245 0.925l-0.082 0.982-0.88 0.050c-0.717 0.041-0.937-0.012-1.193-0.287-0.401-0.431-1.119-0.431-1.666-0.001-0.333 0.262-0.617 0.325-1.286 0.287l-0.859-0.050-0.425-1.021c-0.234-0.562-0.481-1.077-0.55-1.146-0.254-0.254-0.589 0.531-0.589 1.379v0.869h-0.637c-0.43 0-0.67-0.084-0.737-0.259zM7.039 29.744c0-0.839-0.54-1.149-0.724-0.415-0.129 0.513-0.009 0.729 0.406 0.729 0.204 0 0.318-0.112 0.318-0.314zM16.283 29.902c0.152-0.246-0.090-0.99-0.323-0.99-0.234 0-0.409 0.355-0.409 0.832 0 0.331 0.552 0.45 0.732 0.158zM0.508 24.179c-0.126-0.080-0.183-0.263-0.128-0.407 0.091-0.237 1.141-0.262 10.81-0.262 8.948 0 10.724 0.037 10.796 0.226 0.048 0.124 0.004 0.308-0.097 0.409-0.226 0.226-21.027 0.259-21.382 0.034zM15.15 21.9c-0.104-0.327-0.455-0.461-1.723-0.652-0.535-0.081-0.783-0.212-0.919-0.487-0.227-0.456-0.899-1.302-1.809-2.276-0.595-0.637-1.705-1.195-2.376-1.195-0.304 0-0.113 0.51 0.254 0.676 0.215 0.098 0.488 0.373 0.607 0.61 0.368 0.737 0.627 0.962 1.021 0.887 0.851-0.163 1.063 1.207 0.231 1.498-0.391 0.137-0.521 0.090-0.982-0.348-0.292-0.278-0.9-0.691-1.35-0.917-0.549-0.276-0.92-0.602-1.127-0.992-0.17-0.32-0.586-0.765-0.926-0.99-0.409-0.27-0.686-0.619-0.821-1.030-0.112-0.342-0.516-0.916-0.899-1.276-1.122-1.056-1.351-2.764-0.736-5.467 0.343-1.504 0.676-3.834 0.679-4.747 0.001-0.335 0.161-0.764 0.401-1.079 0.22-0.288 0.399-0.633 0.399-0.767s0.297-0.482 0.661-0.774c0.363-0.292 0.843-0.82 1.066-1.173 0.453-0.718 0.65-0.798 0.776-0.315 0.056 0.212 0.223 0.327 0.478 0.327 0.215 0 0.48 0.089 0.589 0.197 0.116 0.116 0.851 0.224 1.793 0.262 1.524 0.062 1.619 0.088 2.134 0.578 0.495 0.471 0.516 0.53 0.255 0.72-0.156 0.114-0.417 0.207-0.579 0.207-0.401 0-0.377 0.337 0.031 0.444 0.686 0.179 0.178 0.71-0.564 0.59-0.341-0.055-0.791 0.036-1.281 0.259-0.416 0.189-0.868 0.344-1.004 0.344-0.514 0-0.745 1.2-0.441 2.292 0.105 0.376 0.199 0.413 1.17 0.451 0.864 0.034 1.236-0.041 2.039-0.409 0.951-0.437 1.069-0.451 3.72-0.442 1.506 0.005 2.795 0.066 2.864 0.136s-0.020 0.228-0.2 0.352c-0.18 0.124-0.474 0.368-0.654 0.543s-0.567 0.369-0.861 0.43c-0.293 0.062-0.615 0.264-0.714 0.45-0.17 0.318-0.28 0.332-1.881 0.241-1.776-0.101-1.772-0.102-1.71 0.622 0.021 0.246-0.054 0.197-0.301-0.196-0.181-0.288-0.514-0.645-0.742-0.794-0.474-0.311-2.561-0.484-2.721-0.226-0.273 0.442 0.138 1.593 0.945 2.646 0.963 1.257 1.114 1.62 0.867 2.083-0.148 0.277-0.129 0.334 0.114 0.339 0.161 0.003 0.435 0.113 0.61 0.245 0.673 0.509 1.049 0.027 0.474-0.608-0.255-0.282-0.25-0.325 0.087-0.684 0.212-0.226 0.447-0.809 0.572-1.424 0.171-0.836 0.233-0.962 0.32-0.639 0.059 0.221 0.109 0.706 0.11 1.076s0.223 1.345 0.493 2.164c0.27 0.82 0.491 1.622 0.491 1.783s0.177 0.624 0.392 1.030c0.216 0.405 0.481 1.067 0.59 1.47s0.325 0.918 0.482 1.144c0.156 0.226 0.534 0.872 0.84 1.436 0.667 1.229 0.572 1.566-0.466 1.644-0.54 0.040-0.684-0.010-0.766-0.268zM15.551 20.748c0-0.169-0.111-0.399-0.245-0.511-0.207-0.172-0.245-0.14-0.245 0.198 0 0.221 0.049 0.451 0.109 0.511 0.203 0.203 0.382 0.11 0.382-0.198zM13.914 19.56c0-0.102-0.138-0.415-0.308-0.696s-0.393-0.768-0.497-1.083c-0.278-0.84-1.726-2.342-2.133-2.213-0.577 0.183-0.597 0.748-0.044 1.218 0.273 0.232 0.61 0.642 0.749 0.913 0.588 1.142 2.233 2.514 2.233 1.861zM14.733 18.351c0-0.137-0.181-0.524-0.403-0.859s-0.517-0.936-0.657-1.333c-0.313-0.891-0.528-1.16-0.925-1.16-0.538 0-0.348 0.659 0.429 1.49 0.405 0.433 0.737 0.896 0.737 1.029s0.072 0.431 0.16 0.662c0.172 0.453 0.659 0.579 0.659 0.171zM8.185 18.305c0-0.072-0.092-0.222-0.205-0.334s-0.389-0.587-0.614-1.056c-0.413-0.861-0.9-1.176-1.082-0.7-0.062 0.163 0.115 0.496 0.478 0.898 0.318 0.352 0.66 0.793 0.76 0.981 0.175 0.328 0.663 0.483 0.663 0.211zM8.042 14.823c0.261-0.14 0.288-0.222 0.133-0.409-0.107-0.129-0.328-0.234-0.492-0.234s-0.638-0.295-1.054-0.655c-0.829-0.717-0.906-0.747-1.195-0.458-0.602 0.602 0.144 1.552 1.381 1.76 0.438 0.073 0.82 0.142 0.848 0.153s0.199-0.059 0.379-0.156zM9.796 13.508c0.69-0.939 0.378-1.62-0.742-1.62-0.655 0-0.723 0.358-0.179 0.938 0.305 0.324 0.331 0.437 0.164 0.704-0.555 0.889 0.102 0.87 0.758-0.021zM8.39 6.936c0.084-1.644 0.002-2.071-0.355-1.85-0.19 0.117-0.246 2.52-0.075 3.16 0.203 0.757 0.347 0.319 0.43-1.309zM9.576 2.394c-0.056-0.090-0.171-0.164-0.255-0.164s-0.154 0.074-0.154 0.164c0 0.090 0.115 0.164 0.255 0.164s0.21-0.074 0.154-0.164z"></path>
<path fill="#2c2c2c" d="M0.927 31.259c-0.060-0.060-0.109-1.169-0.109-2.465v-2.356l0.614 0.051c0.596 0.049 0.615 0.071 0.664 0.747 0.030 0.415 0.132 0.696 0.252 0.696 0.111 0 0.527-0.331 0.925-0.737 0.537-0.547 0.849-0.737 1.212-0.737h0.489l-0.523 0.54c-0.288 0.297-0.523 0.689-0.523 0.872 0 0.52 0.762 2.266 1.011 2.317 0.153 0.031 0.422-0.555 0.848-1.851l0.624-1.897 0.505 0.050c0.486 0.048 0.527 0.114 1.066 1.736 0.336 1.009 0.637 1.661 0.749 1.624 0.121-0.040 0.205-0.658 0.235-1.736l0.047-1.673 1.543 0.099 0.393 1.194c0.502 1.526 0.773 1.516 1.26-0.049l0.357-1.145 1.498-0.099 0.047 1.687c0.037 1.348 0.095 1.687 0.286 1.687 0.15 0 0.348-0.364 0.532-0.982 0.63-2.112 0.771-2.374 1.275-2.374 0.447 0 0.488 0.071 1.105 1.923 0.413 1.239 0.723 1.923 0.871 1.923 0.212 0 1.43-2.504 1.452-2.985 0.005-0.113-0.282-0.249-0.645-0.307-0.395-0.063-0.655-0.194-0.655-0.329 0-0.174 0.334-0.225 1.473-0.225 1.069 0 1.473 0.056 1.474 0.205 0 0.113-0.306 0.951-0.68 1.863-0.375 0.915-0.635 1.777-0.579 1.923 0.071 0.185 0.305 0.265 0.774 0.265 0.552 0 0.662 0.051 0.617 0.287-0.048 0.251-0.3 0.292-2.011 0.333-1.752 0.042-2.002 0.012-2.406-0.287-0.603-0.446-1.621-0.445-2.025 0.002-0.243 0.269-0.466 0.325-1.13 0.287l-0.827-0.048-0.082-1.146c-0.045-0.63-0.155-1.146-0.245-1.146s-0.317 0.474-0.504 1.054c-0.562 1.742-1.208 1.773-1.788 0.086-0.462-1.346-0.737-1.356-0.737-0.026 0 0.816-0.060 1.083-0.259 1.16-0.519 0.199-1.344 0.092-1.75-0.228-0.245-0.193-0.664-0.327-1.019-0.327s-0.774 0.135-1.019 0.327c-0.252 0.198-0.664 0.327-1.045 0.327-0.707 0-0.891-0.203-1.379-1.522-0.234-0.633-0.357-0.776-0.634-0.737-0.298 0.043-0.35 0.178-0.393 1.027-0.028 0.538-0.138 1.034-0.245 1.102-0.243 0.154-0.84 0.166-0.987 0.020zM7.019 30.001c0.231-0.278-0.071-1.252-0.389-1.252s-0.62 0.973-0.389 1.252c0.101 0.122 0.276 0.221 0.389 0.221s0.288-0.1 0.389-0.221zM16.262 30.016c0.239-0.175 0.254-0.287 0.097-0.737-0.102-0.292-0.281-0.53-0.398-0.53-0.318 0-0.62 0.973-0.389 1.252 0.227 0.274 0.333 0.276 0.69 0.015zM0.491 23.92c0-0.216 1.3-0.245 10.722-0.245s10.722 0.030 10.722 0.245c0 0.216-1.3 0.245-10.722 0.245s-10.722-0.030-10.722-0.245zM15.231 21.812c-0.161-0.423-0.785-0.628-1.855-0.61-0.523 0.009-0.645-0.057-0.783-0.421-0.176-0.462-0.72-1.146-1.89-2.376-0.544-0.571-0.956-0.833-1.609-1.023-1.085-0.316-1.073-0.316-1.073 0.023 0 0.388-0.249 0.11-0.698-0.779-0.408-0.809-0.826-0.998-1.095-0.495-0.15 0.28-0.091 0.432 0.365 0.951 0.299 0.34 0.67 0.821 0.826 1.068 0.33 0.525 0.766 0.595 0.766 0.123 0-0.652 0.631-0.222 1.19 0.811 0.229 0.423 0.364 0.515 0.649 0.441 0.421-0.11 0.944 0.294 0.944 0.728 0 0.385-0.591 0.789-0.998 0.682-0.177-0.046-0.396-0.223-0.487-0.392s-0.602-0.529-1.137-0.798c-0.62-0.313-1.061-0.664-1.219-0.968-0.136-0.263-0.575-0.746-0.976-1.075-0.42-0.345-0.771-0.789-0.828-1.051-0.055-0.25-0.397-0.742-0.761-1.094s-0.765-0.839-0.893-1.082c-0.313-0.596-0.309-3.411 0.006-4.48 0.213-0.724 0.542-3.129 0.636-4.659 0.019-0.318 0.199-0.808 0.399-1.089s0.364-0.617 0.364-0.747c0-0.13 0.369-0.547 0.82-0.927s0.939-0.921 1.084-1.203c0.238-0.46 0.285-0.484 0.467-0.235 0.111 0.152 0.308 0.277 0.436 0.277s0.503 0.137 0.831 0.305c0.418 0.213 0.546 0.356 0.425 0.477-0.21 0.21-0.039 0.528 0.284 0.528 0.13 0 0.236-0.147 0.236-0.327 0-0.298 0.109-0.327 1.235-0.327 1.085 0 1.229 0.035 1.187 0.287-0.027 0.16 0.060 0.296 0.197 0.308 0.135 0.012 0.344 0.031 0.464 0.041 0.389 0.034 0.096 0.426-0.382 0.51-0.573 0.101-0.733 0.48-0.256 0.605 0.611 0.16 0.264 0.456-0.657 0.561-0.488 0.056-1.256 0.243-1.706 0.417l-0.819 0.316v2.604l1.113 0.11c0.995 0.098 1.212 0.064 2.046-0.327 0.879-0.412 1.097-0.441 3.757-0.492 1.999-0.038 2.824-0.001 2.824 0.128 0 0.1-0.129 0.23-0.287 0.288s-0.449 0.277-0.647 0.486c-0.198 0.209-0.508 0.38-0.687 0.38s-0.526 0.184-0.768 0.409c-0.475 0.44-0.981 0.495-2.403 0.261-0.543-0.089-0.865-0.067-1.058 0.074-0.23 0.168-0.371 0.13-0.843-0.23-0.335-0.256-0.806-0.444-1.152-0.46-0.322-0.015-0.861-0.080-1.197-0.144-0.736-0.139-0.869 0.072-0.712 1.123 0.074 0.495 0.369 1.052 1.001 1.891 0.851 1.131 1.101 1.841 0.729 2.071-0.251 0.155-0.024 0.408 0.368 0.408 0.19 0 0.483 0.124 0.65 0.275 0.284 0.257 0.323 0.257 0.578 0.002s0.25-0.304-0.070-0.738c-0.334-0.452-0.335-0.47-0.035-0.657 0.17-0.106 0.396-0.539 0.502-0.961 0.155-0.616 0.218-0.705 0.318-0.45 0.069 0.175 0.13 0.589 0.136 0.919s0.151 0.926 0.322 1.324c0.171 0.398 0.4 1.159 0.51 1.691s0.368 1.262 0.574 1.622c0.206 0.36 0.425 0.913 0.487 1.228s0.29 0.848 0.507 1.183c0.217 0.336 0.394 0.648 0.394 0.693s0.229 0.456 0.51 0.911c0.491 0.798 0.499 0.84 0.22 1.148-0.418 0.462-1.19 0.423-1.377-0.069zM15.654 20.977c0.101-0.262-0.526-1.396-0.771-1.396-0.191 0-0.191 0.211 0 0.688 0.083 0.207 0.191 0.505 0.24 0.662 0.11 0.349 0.404 0.374 0.531 0.045zM14 19.738c0.058-0.094-0.011-0.349-0.154-0.568s-0.408-0.794-0.59-1.279c-0.181-0.485-0.568-1.104-0.859-1.376s-0.662-0.656-0.825-0.856c-0.269-0.329-0.329-0.34-0.655-0.124-0.533 0.353-0.528 0.746 0.017 1.321 0.268 0.283 0.602 0.736 0.741 1.006 0.331 0.643 1.696 2.046 1.99 2.046 0.127 0 0.278-0.077 0.336-0.171zM14.704 18.552c0.13-0.157-0.031-0.63-0.628-1.837-0.785-1.589-1.182-2.006-1.595-1.676-0.348 0.278-0.234 0.562 0.614 1.531 0.54 0.617 0.819 1.083 0.819 1.368 0 0.407 0.256 0.826 0.504 0.826 0.061 0 0.19-0.095 0.286-0.211zM8.33 14.774c0.218-0.263 0.011-0.482-0.637-0.678-0.225-0.068-0.686-0.372-1.024-0.675-0.643-0.577-1.069-0.685-1.399-0.355-0.474 0.474 0.108 1.493 1.001 1.751 0.799 0.231 1.849 0.209 2.059-0.043zM9.807 13.656c0.618-0.84 0.632-1.154 0.074-1.593-0.969-0.762-2.099-0.083-1.206 0.725 0.364 0.329 0.422 0.74 0.145 1.017-0.214 0.214-0.058 0.538 0.259 0.538 0.122 0 0.449-0.309 0.727-0.687zM8.477 6.841c0.044-1.731 0.029-1.828-0.279-1.828-0.425 0-0.581 0.796-0.454 2.312 0.102 1.219 0.203 1.504 0.497 1.407 0.125-0.041 0.206-0.688 0.236-1.891z"></path>
<path fill="#060606" d="M0.982 28.912v-2.292h0.491c0.464 0 0.491 0.036 0.491 0.66 0 0.984 0.36 1.012 1.287 0.099 0.424-0.417 0.911-0.759 1.082-0.759 0.272 0 0.253 0.061-0.151 0.482-0.536 0.559-0.517 0.879 0.143 2.37 0.612 1.384 0.847 1.231 1.545-1.010 0.543-1.746 0.596-1.841 1.012-1.841 0.411 0 0.472 0.102 0.964 1.627 0.522 1.614 0.903 2.25 1.071 1.788 0.045-0.123 0.101-0.923 0.125-1.778l0.044-1.555h1.455l0.312 1.064c0.544 1.858 0.863 1.874 1.427 0.075l0.383-1.22h1.416v1.709c0 0.94 0.070 1.753 0.157 1.806 0.24 0.148 0.583-0.509 1.088-2.083 0.422-1.314 0.495-1.432 0.884-1.432 0.399 0 0.461 0.117 1.036 1.964 0.782 2.512 0.969 2.568 1.819 0.537 0.811-1.938 0.814-2.079 0.049-2.142-1.138-0.094-0.625-0.358 0.696-0.358 0.768 0 1.309 0.068 1.309 0.165 0 0.090-0.295 0.872-0.655 1.738s-0.655 1.704-0.655 1.864c0 0.347 0.317 0.49 1.087 0.49 0.338 0 0.528 0.067 0.468 0.164-0.059 0.095-0.948 0.164-2.112 0.164-1.803 0-2.042-0.034-2.307-0.327-0.206-0.228-0.504-0.327-0.982-0.327s-0.776 0.099-0.982 0.327c-0.218 0.241-0.504 0.327-1.082 0.327h-0.786l-0.048-1.185c-0.038-0.947-0.102-1.195-0.318-1.237-0.204-0.039-0.367 0.239-0.668 1.144-0.347 1.041-0.449 1.196-0.79 1.196-0.336 0-0.451-0.163-0.809-1.146-0.568-1.559-0.884-1.545-0.948 0.041l-0.048 1.187h-0.775c-0.572 0-0.848-0.086-1.055-0.327-0.393-0.459-1.591-0.455-2.009 0.008-0.237 0.262-0.465 0.324-1.044 0.287l-0.741-0.049-0.442-1.064c-0.677-1.629-1.449-1.482-1.449 0.277 0 0.857-0.007 0.869-0.491 0.869h-0.491v-2.292zM7.221 30.017c0.042-0.454-0.058-0.879-0.294-1.247-0.219-0.342-0.277-0.359-0.49-0.145-0.133 0.133-0.283 0.547-0.333 0.919l-0.091 0.677h0.594c0.356 0 0.602-0.082 0.613-0.205zM16.488 29.561c-0.164-1.225-0.742-1.431-1.064-0.38-0.245 0.799-0.111 1.041 0.576 1.041h0.577l-0.089-0.661zM0.573 23.838c0.066-0.106 3.794-0.164 10.65-0.164 6.923 0 10.549 0.056 10.549 0.164s-3.659 0.164-10.65 0.164c-7.058 0-10.616-0.055-10.549-0.164zM15.323 21.777c-0.061-0.159 0.040-0.373 0.258-0.549 0.324-0.262 0.338-0.337 0.149-0.792-0.292-0.706-0.786-1.13-1.030-0.886-0.139 0.139-0.142 0.287-0.010 0.561 0.099 0.204 0.217 0.545 0.264 0.757 0.080 0.362 0.049 0.379-0.518 0.285-0.332-0.055-0.837-0.097-1.123-0.094-0.399 0.004-0.547-0.080-0.637-0.365-0.131-0.413-0.783-1.252-1.834-2.359-0.509-0.536-0.963-0.823-1.665-1.054-0.531-0.174-1.074-0.276-1.206-0.225-0.16 0.061-0.341-0.111-0.545-0.521-0.386-0.776-0.758-1.021-1.11-0.729-0.363 0.301-0.323 0.886 0.087 1.255 0.191 0.171 0.562 0.625 0.826 1.008 0.492 0.714 0.893 0.884 1.060 0.45 0.175-0.455 0.552-0.25 0.915 0.497 0.318 0.654 0.417 0.737 0.836 0.696 0.589-0.058 0.94 0.373 0.663 0.813-0.281 0.445-0.667 0.43-1.079-0.045-0.207-0.239-0.764-0.617-1.238-0.842-0.539-0.255-0.953-0.584-1.105-0.878-0.134-0.258-0.574-0.746-0.978-1.084-0.406-0.339-0.815-0.858-0.914-1.158-0.099-0.299-0.501-0.845-0.895-1.214-0.584-0.547-0.75-0.837-0.904-1.582-0.199-0.957-0.095-2.844 0.199-3.612 0.155-0.406 0.627-3.752 0.688-4.879 0.016-0.287 0.193-0.744 0.394-1.016s0.366-0.584 0.366-0.693c0-0.109 0.396-0.572 0.88-1.030s0.917-0.942 0.962-1.077c0.066-0.197 0.124-0.205 0.299-0.041 0.119 0.113 0.352 0.205 0.517 0.205 0.503 0 1.082 0.472 0.993 0.81-0.054 0.206 0.030 0.339 0.261 0.412 0.403 0.128 0.671-0.004 0.671-0.332 0-0.13 0.1-0.236 0.223-0.236s0.558-0.046 0.968-0.102c0.694-0.095 0.749-0.076 0.8 0.287 0.042 0.294 0.175 0.403 0.546 0.447l0.491 0.058-0.571 0.188c-0.679 0.223-0.816 0.634-0.295 0.885 0.335 0.161 0.296 0.182-0.362 0.193-0.405 0.007-0.934 0.115-1.176 0.241-0.583 0.304-1.395 0.499-2.096 0.503l-0.571 0.003-0.123 0.974c-0.203 1.601 0.254 3.545 0.721 3.070 0.063-0.064 0.137-0.484 0.165-0.934 0.048-0.769 0.064-0.796 0.267-0.44 0.166 0.29 0.171 0.432 0.025 0.609-0.389 0.469-0.029 1.776 0.772 2.807 0.925 1.19 1.25 1.8 1.033 1.934-0.090 0.055-0.165-0.032-0.168-0.195-0.013-0.735-1.101-1.328-1.888-1.028-0.511 0.194-0.509 0.653 0.004 1.135 0.382 0.359 0.39 0.402 0.153 0.86-0.165 0.318-0.334 0.45-0.497 0.387-0.136-0.052-0.348-0.095-0.47-0.095s-0.563-0.295-0.979-0.655c-0.844-0.73-1.205-0.805-1.628-0.337-0.688 0.761 0.37 1.847 1.986 2.039 0.886 0.105 0.978 0.084 1.313-0.303 0.198-0.229 0.506-0.417 0.684-0.417s0.484-0.225 0.68-0.5c0.327-0.459 0.38-0.479 0.638-0.245 0.155 0.14 0.437 0.255 0.627 0.255s0.391 0.074 0.447 0.164c0.163 0.263 0.856 0.188 0.968-0.105 0.057-0.148-0.014-0.447-0.157-0.666-0.217-0.331-0.224-0.44-0.045-0.656 0.119-0.142 0.302-0.45 0.407-0.685l0.191-0.426 0.013 0.537c0.007 0.296 0.129 0.811 0.271 1.146 0.294 0.694 0.904 3.021 0.816 3.109-0.032 0.032-0.146-0.205-0.252-0.527-0.201-0.608-0.572-0.91-1.121-0.91-0.761 0-0.567 0.766 0.486 1.92 0.367 0.402 0.632 0.857 0.632 1.087 0 0.217 0.134 0.56 0.297 0.762 0.25 0.308 0.353 0.338 0.644 0.182 0.322-0.173 0.406-0.080 1.185 1.301 0.668 1.185 0.799 1.534 0.645 1.719-0.263 0.316-1.075 0.298-1.2-0.028zM14.178 19.838c0.050-0.129-0.092-0.553-0.314-0.941s-0.489-0.964-0.592-1.28c-0.226-0.69-1.677-2.292-2.076-2.292-0.387 0-0.883 0.475-0.883 0.845 0 0.167 0.191 0.468 0.425 0.67s0.539 0.588 0.679 0.858c0.14 0.27 0.544 0.823 0.899 1.228 0.927 1.059 1.667 1.421 1.863 0.911zM14.355 17.042c-0.15-0.314-0.238-0.571-0.197-0.571 0.112 0 0.609 1.002 0.534 1.077-0.036 0.036-0.187-0.192-0.337-0.506zM11.807 8.532c-0.28-0.18-0.509-0.368-0.51-0.417s0.325-0.249 0.726-0.444c1.11-0.539 2.655-0.748 4.574-0.617l1.678 0.114-0.426 0.457c-0.235 0.251-0.664 0.509-0.954 0.573s-0.605 0.259-0.699 0.435c-0.156 0.291-0.329 0.315-2.026 0.273-1.525-0.037-1.945-0.104-2.363-0.373zM9.904 8.123c-0.261-0.112-0.202-0.143 0.296-0.152 0.376-0.007 0.583 0.053 0.522 0.152-0.12 0.193-0.369 0.193-0.819 0z"></path>
</svg>
