<?xml version="1.0" encoding="utf-8"?>
<!-- Generator: Adobe Illustrator 16.0.0, SVG Export Plug-In . SVG Version: 6.00 Build 0)  -->
<!DOCTYPE svg PUBLIC "-//W3C//DTD SVG 1.1//EN" "http://www.w3.org/Graphics/SVG/1.1/DTD/svg11.dtd">
<svg version="1.1" id="Layer_1" xmlns="http://www.w3.org/2000/svg" xmlns:xlink="http://www.w3.org/1999/xlink" x="0px" y="0px"
	 width="941.11px" height="500px" viewBox="0 0 941.11 500" enable-background="new 0 0 941.11 500" xml:space="preserve">
<g>
	<path fill="#231F1F" d="M126.022,304.697c-18.748,0-34.001,15.252-34.001,34s15.253,33.998,34.001,33.998
		c18.747,0,33.999-15.25,33.999-33.998S144.769,304.697,126.022,304.697z M126.021,355.92c-9.496,0-17.221-7.728-17.221-17.223
		s7.725-17.223,17.221-17.223s17.221,7.728,17.221,17.223S135.518,355.92,126.021,355.92z"/>
	<circle fill="#231F1F" cx="126.021" cy="338.697" r="15.249"/>
</g>
<g>
	<path fill="#231F1F" d="M319.428,304.695c-18.748,0-34.001,15.252-34.001,34s15.253,33.998,34.001,33.998
		c18.747,0,33.999-15.25,33.999-33.998S338.174,304.695,319.428,304.695z M319.427,355.918c-9.496,0-17.221-7.728-17.221-17.223
		s7.725-17.223,17.221-17.223s17.221,7.728,17.221,17.223S328.923,355.918,319.427,355.918z"/>
	<circle fill="#231F1F" cx="319.427" cy="338.695" r="15.249"/>
</g>
<g>
	<path fill="#231F1F" d="M400.313,304.695c-18.748,0-34.001,15.252-34.001,34s15.253,33.998,34.001,33.998
		c18.747,0,33.999-15.25,33.999-33.998S419.059,304.695,400.313,304.695z M400.312,355.918c-9.496,0-17.221-7.728-17.221-17.223
		s7.725-17.223,17.221-17.223s17.221,7.728,17.221,17.223S409.808,355.918,400.312,355.918z"/>
	<circle fill="#231F1F" cx="400.312" cy="338.695" r="15.249"/>
</g>
<path fill="#231F1F" d="M443.658,352.973h185.961c-2.01-4.35-3.139-9.185-3.139-14.282c0-4.114,0.732-8.061,2.07-11.718H454.153
	l0.047-29.999l-178.03,0.287c-5.007,0-9.103-4.096-9.103-9.102v-126.15c0-5.006-4.096-9.102-9.102-9.102h-62.954
	c-5.006,0-10.218,3.941-11.581,8.758l-16.328,57.656c-1.364,4.816-6.575,8.758-11.582,8.758H86.581c-5.007,0-9.103,4.094-9.103,9.1
	v55.637c0,5.008-2.694,9.104-5.987,9.104c-3.292,0-5.986,4.096-5.986,9.102v16.064c0,5.006,4.096,9.098,9.102,9.096l13.429-0.012
	c1.517-19.434,17.801-34.783,37.618-34.783c19.794,0,36.067,15.316,37.614,34.721l118.367-0.129
	c1.607-19.342,17.852-34.592,37.604-34.592c19.73,0,35.961,15.217,37.6,34.531l5.625-0.006c1.641-19.311,17.869-34.525,37.6-34.525
	c19.699,0,35.914,15.172,37.594,34.441l5.547,0.438L443.658,352.973z M111.405,274.644h-9.979v-36.588h9.979V274.644z
	 M127.371,274.644h-9.979v-36.588h9.979V274.644z M143.336,274.644h-9.979v-36.588h9.979V274.644z M193.644,167.817h40.163v60.322
	h-55.879L193.644,167.817z M275.716,317.882h-92.467v-11.973h92.467V317.882z"/>
<rect x="275.716" y="129.624" fill="#231F1F" width="7.316" height="155.662"/>
<polygon fill="#231F1F" points="296.337,285.286 275.716,285.286 275.716,233.399 296.337,254.495 "/>
<g>
	<g>
		<path fill="#231F1F" d="M663.367,304.694c-18.748,0-34.001,15.252-34.001,34s15.253,33.998,34.001,33.998
			c18.746,0,33.999-15.25,33.999-33.998S682.113,304.694,663.367,304.694z M663.366,355.917c-9.496,0-17.222-7.728-17.222-17.223
			s7.726-17.223,17.222-17.223s17.222,7.728,17.222,17.223S672.862,355.917,663.366,355.917z"/>
		<circle fill="#231F1F" cx="663.366" cy="338.694" r="15.249"/>
	</g>
	<g>
		<path fill="#231F1F" d="M742.492,304.695c-18.748,0-34.001,15.252-34.001,34s15.253,33.998,34.001,33.998
			c18.746,0,33.999-15.25,33.999-33.998S761.238,304.695,742.492,304.695z M742.491,355.918c-9.496,0-17.222-7.728-17.222-17.223
			s7.726-17.223,17.222-17.223s17.222,7.728,17.222,17.223S751.987,355.918,742.491,355.918z"/>
		<circle fill="#231F1F" cx="742.491" cy="338.695" r="15.249"/>
	</g>
	<g>
		<path fill="#231F1F" d="M821.618,304.694c-18.747,0-34.001,15.252-34.001,34s15.254,33.998,34.001,33.998
			s33.999-15.25,33.999-33.998S840.365,304.694,821.618,304.694z M821.617,355.917c-9.496,0-17.221-7.728-17.221-17.223
			s7.725-17.223,17.221-17.223s17.221,7.728,17.221,17.223S831.113,355.917,821.617,355.917z"/>
		<circle fill="#231F1F" cx="821.617" cy="338.694" r="15.248"/>
	</g>
	<path fill="#231F1F" d="M617.145,297.817v40.882h9.222c0-0.002,0-0.003,0-0.005c0-20.402,16.599-37,37.001-37
		c20.4,0,36.999,16.598,36.999,37c0,0.002,0,0.003,0,0.005h5.125c0-0.001,0-0.003,0-0.004c0-20.402,16.599-37,37.001-37
		c20.4,0,36.999,16.598,36.999,37c0,0.001,0,0.003,0,0.004h5.126c0-0.002,0-0.003,0-0.005c0-20.402,16.6-37,37.001-37
		s36.999,16.598,36.999,37c0,0.002,0,0.003,0,0.005h31.128v-40.882H617.145z"/>
</g>
</svg>
