<?xml version="1.0" encoding="utf-8"?>
<!-- Generator: Adobe Illustrator 16.0.0, SVG Export Plug-In . SVG Version: 6.00 Build 0)  -->
<!DOCTYPE svg PUBLIC "-//W3C//DTD SVG 1.1//EN" "http://www.w3.org/Graphics/SVG/1.1/DTD/svg11.dtd">
<svg version="1.1" id="Layer_1" xmlns="http://www.w3.org/2000/svg" xmlns:xlink="http://www.w3.org/1999/xlink" x="0px" y="0px"
	 width="500px" height="500px" viewBox="0 0 500 500" enable-background="new 0 0 500 500" xml:space="preserve">
<g>
	<path fill="#231F1F" d="M137.639,273.469c-22.614,0-41.013,18.397-41.013,41.012s18.398,41.012,41.013,41.012
		c22.614,0,41.012-18.397,41.012-41.012S160.252,273.469,137.639,273.469z M137.638,335.254c-11.455,0-20.773-9.319-20.773-20.773
		s9.319-20.773,20.773-20.773s20.773,9.319,20.773,20.773S149.093,335.254,137.638,335.254z"/>
	<circle fill="#231F1F" cx="137.638" cy="314.48" r="18.394"/>
</g>
<g>
	<path fill="#231F1F" d="M337.234,273.469c-22.614,0-41.013,18.397-41.013,41.012s18.398,41.012,41.013,41.012
		c22.613,0,41.012-18.397,41.012-41.012S359.848,273.469,337.234,273.469z M337.233,335.254c-11.454,0-20.773-9.319-20.773-20.773
		s9.319-20.773,20.773-20.773c11.455,0,20.773,9.319,20.773,20.773S348.688,335.254,337.233,335.254z"/>
	<circle fill="#231F1F" cx="337.233" cy="314.48" r="18.394"/>
</g>
<path fill="#231F1F" d="M57.852,233.111c0,0-0.504-4.608,4.393-5.112v5.4L57.852,233.111z"/>
<g>
	<path fill="#231F1F" d="M266.238,266.957v26.281h32.043c7.561-13.824,22.177-23.186,39.025-23.186
		c24.555,0,44.428,19.873,44.428,44.428c0,1.439-0.072,2.879-0.217,4.32h0.721l57.602-28.73v-23.186H266.238V266.957z"/>
	<path fill="#231F1F" d="M296.768,296.406H266.31v22.395h26.857c-0.144-1.441-0.216-2.881-0.216-4.32
		c0-6.48,1.44-12.529,3.889-18.074H296.768z"/>
</g>
<g>
	<path fill="#231F1F" d="M192.361,293.238v-26.281H171.12v17.785c2.304,2.592,4.249,5.473,5.977,8.496H192.361z"/>
	<path fill="#231F1F" d="M178.608,296.406c2.448,5.545,3.889,11.664,3.889,18.074c0,1.439-0.072,2.879-0.216,4.32h10.081v-22.395
		h-13.681H178.608z"/>
</g>
<g>
	<path fill="#231F1F" d="M199.85,274.014c-2.448,0-4.393,2.016-4.393,4.393v29.305c0,2.449,2.016,4.393,4.393,4.393h59.188
		c2.448,0,4.393-2.016,4.393-4.393v-29.305c0-2.449-2.017-4.393-4.393-4.393H199.85z"/>
</g>
<polygon fill="#231F1F" points="263.501,271.637 263.501,264.941 195.458,264.941 195.458,271.637 "/>
<polygon fill="#231F1F" points="195.458,314.48 195.458,321.535 263.501,321.535 263.501,314.48 "/>
<path fill="#231F1F" d="M141.598,169.029v100.879c9.577,0.865,18.289,4.682,25.202,10.586V169.029H141.598z"/>
<g>
	<path fill="#231F1F" d="M92.851,313.688c0.072-0.863-1.872-1.584-4.32-1.584H48.712c-2.448,0-3.744,1.512-2.952,3.313
		c0.792,1.871,3.456,3.313,5.833,3.313h36.938c2.448,0,4.32-1.584,4.32-3.529c0,0,0,0,0-0.791c0-0.793,0-0.793,0-0.793V313.688z"/>
</g>
<path fill="#231F1F" d="M137.638,269.262c0.288,0,1.656-0.576,1.8-0.576c0.648-0.648,1.008-1.512,1.008-3.313v-96.055
	c0-2.449-4.32-2.449-4.32,0v49.539c0,2.447-2.016,4.393-4.392,4.393H98.828c-2.448,0-5.112,1.871-5.904,4.104l-3.601,9.793
	c-0.864,2.305-3.528,4.104-5.904,4.104H51.737c-2.448,0-4.393,2.018-4.393,4.393v32.33c0,2.449-0.792,6.193-1.8,8.426l-0.72,1.656
	c-1.008,2.232-1.8,5.977-1.728,8.424l0.072,8.785c0,2.447,2.016,4.393,4.464,4.393h41.259c1.44,0,2.952-0.648,4.248-1.514
	c3.024-22.033,21.89-38.953,44.715-38.953L137.638,269.262z"/>
<path fill="#231F1F" d="M52.168,239.09c-1.152,2.09-3.672,7.705-4.464,7.273c-0.72-0.432-1.08-5.041,1.728-8.785l37.082-66.316
	c1.152-2.088,4.104-3.816,6.553-3.816h69.268c2.448,0,4.393,0.721,4.393,1.584c0,0.865-2.016,1.586-4.393,1.586H94.939
	c-2.448,0-5.4,1.727-6.553,3.814L52.168,239.09z"/>
<g>
	<path fill="#231F1F" d="M180.553,275.309c0,0.793-0.648,1.441-1.44,1.441h-6.625c-0.792,0-1.44-0.648-1.44-1.441V165.43
		c0-0.791,0.648-1.439,1.44-1.439h6.625c0.792,0,1.44,0.648,1.44,1.439V275.309z"/>
</g>
<g>
	<path fill="#231F1F" d="M83.347,304.76c0,2.736-2.232,4.967-4.968,4.967H46.625c-2.736,0-4.969-2.23-4.969-4.967v-18.721
		c0-2.736,2.232-4.969,4.969-4.969h31.754c2.736,0,4.968,2.232,4.968,4.969V304.76z"/>
</g>
<path fill="#231F1F" d="M67.938,222.889c-0.36,1.369-1.8,2.16-3.168,1.801l-5.76-1.584c-1.368-0.359-2.16-1.801-1.8-3.168
	l4.824-17.137c0.36-1.369,1.8-2.16,3.168-1.801l5.76,1.584c1.368,0.361,2.16,1.801,1.8,3.168L67.938,222.889z"/>
<rect x="178.608" y="247.468" fill="#231F1F" width="279.736" height="13.641"/>
</svg>
