<?xml version="1.0" encoding="utf-8"?>
<!-- Generator: Adobe Illustrator 16.0.0, SVG Export Plug-In . SVG Version: 6.00 Build 0)  -->
<!DOCTYPE svg PUBLIC "-//W3C//DTD SVG 1.1//EN" "http://www.w3.org/Graphics/SVG/1.1/DTD/svg11.dtd">
<svg version="1.1" id="Layer_1" xmlns="http://www.w3.org/2000/svg" xmlns:xlink="http://www.w3.org/1999/xlink" x="0px" y="0px"
	 width="500px" height="500px" viewBox="0 0 500 500" enable-background="new 0 0 500 500" xml:space="preserve">
<g>
	<path fill="#231F1F" d="M134.197,285.708c-22.615,0-41.014,18.398-41.014,41.012s18.398,41.012,41.014,41.012
		c22.613,0,41.012-18.398,41.012-41.012S156.811,285.708,134.197,285.708z M134.196,347.493c-11.454,0-20.773-9.319-20.773-20.773
		s9.319-20.773,20.773-20.773s20.773,9.319,20.773,20.773S145.65,347.493,134.196,347.493z"/>
	<circle fill="#231F1F" cx="134.196" cy="326.72" r="18.394"/>
</g>
<g>
	<path fill="#231F1F" d="M358.992,285.708c-22.615,0-41.014,18.398-41.014,41.012s18.398,41.012,41.014,41.012
		c22.613,0,41.012-18.398,41.012-41.012S381.605,285.708,358.992,285.708z M358.991,347.493c-11.454,0-20.773-9.319-20.773-20.773
		s9.319-20.773,20.773-20.773s20.773,9.319,20.773,20.773S370.445,347.493,358.991,347.493z"/>
	<circle fill="#231F1F" cx="358.991" cy="326.72" r="18.394"/>
</g>
<g>
	<path fill="#231F1F" d="M262.796,279.196v26.281h57.242c7.561-13.824,22.178-23.186,39.025-23.186
		c24.555,0,44.428,19.874,44.428,44.428c0,1.439-0.072,2.88-0.217,4.32h0.721l43.56-28.73v-23.186H262.796V279.196z"/>
	<path fill="#231F1F" d="M318.526,308.646h-55.658v22.394h52.057c-0.143-1.44-0.215-2.881-0.215-4.32
		c0-6.48,1.439-12.529,3.889-18.073H318.526z"/>
</g>
<g>
	<path fill="#231F1F" d="M188.919,305.478v-26.281h-21.242v17.785c2.305,2.592,4.25,5.473,5.977,8.496H188.919z"/>
	<path fill="#231F1F" d="M175.165,308.646c2.449,5.544,3.889,11.664,3.889,18.073c0,1.439-0.072,2.88-0.215,4.32h10.08v-22.394
		h-13.682H175.165z"/>
</g>
<g>
	<path fill="#231F1F" d="M196.407,286.253c-2.447,0-4.393,2.016-4.393,4.393v29.306c0,2.448,2.016,4.392,4.393,4.392h59.188
		c2.449,0,4.393-2.016,4.393-4.392v-29.306c0-2.449-2.016-4.393-4.393-4.393H196.407z"/>
</g>
<polygon fill="#231F1F" points="260.06,283.877 260.06,277.181 192.015,277.181 192.015,283.877 "/>
<polygon fill="#231F1F" points="192.015,326.72 192.015,333.775 260.06,333.775 260.06,326.72 "/>
<path fill="#231F1F" d="M138.155,181.271v100.878c9.576,0.864,18.289,4.681,25.201,10.585V181.271H138.155z"/>
<g>
	<path fill="#231F1F" d="M89.409,325.928c0.072-0.864-1.873-1.585-4.32-1.585H45.271c-2.449,0-3.744,1.513-2.953,3.313
		c0.793,1.872,3.457,3.313,5.832,3.313h36.939c2.447,0,4.32-1.584,4.32-3.528c0,0,0,0,0-0.792s0-0.792,0-0.792V325.928z"/>
</g>
<path fill="#231F1F" d="M134.196,281.501c0.287,0,1.654-0.576,1.799-0.576c0.648-0.648,1.008-1.512,1.008-3.313v-96.054
	c0-2.448-4.32-2.448-4.32,0v49.539c0,2.448-2.016,4.393-4.391,4.393H95.386c-2.449,0-5.113,1.872-5.904,4.104l-3.602,9.793
	c-0.863,2.304-3.527,4.104-5.904,4.104H48.294c-2.447,0-4.393,2.016-4.393,4.392v32.33c0,2.448-0.791,6.192-1.799,8.425
	l-0.721,1.656c-1.008,2.232-1.801,5.977-1.729,8.424l0.072,8.785c0,2.448,2.016,4.393,4.465,4.393h41.258
	c1.439,0,2.953-0.648,4.248-1.513c3.025-22.033,21.891-38.954,44.715-38.954L134.196,281.501z"/>
<path fill="#231F1F" d="M48.726,251.331c-1.152,2.088-3.672,7.704-4.463,7.271c-0.721-0.432-1.08-5.039,1.727-8.784l37.082-66.315
	c1.152-2.089,4.105-3.816,6.553-3.816h69.27c2.447,0,4.393,0.72,4.393,1.584s-2.018,1.584-4.393,1.584H91.497
	c-2.449,0-5.4,1.729-6.553,3.816L48.726,251.331z"/>
<path fill="#231F1F" d="M43.757,258.747c0,0-0.504-4.608,4.393-5.112v5.4L43.757,258.747z"/>
<g>
	<path fill="#231F1F" d="M79.903,316.999c0,2.736-2.232,4.968-4.967,4.968H43.183c-2.736,0-4.969-2.231-4.969-4.968v-18.721
		c0-2.736,2.232-4.969,4.969-4.969h31.754c2.734,0,4.967,2.232,4.967,4.969V316.999z"/>
</g>
<path fill="#231F1F" d="M64.495,235.13c-0.359,1.368-1.801,2.16-3.168,1.8l-5.76-1.584c-1.369-0.36-2.16-1.8-1.801-3.168
	l4.824-17.137c0.359-1.368,1.801-2.16,3.168-1.801l5.76,1.584c1.369,0.36,2.16,1.801,1.801,3.169L64.495,235.13z"/>
<rect x="167.677" y="133.171" fill="#231F20" width="280.062" height="139.473"/>
<rect x="176.829" y="140.337" fill="#414042" width="14.074" height="125.058"/>
<rect x="207.854" y="140.337" fill="#414042" width="14.075" height="125.058"/>
<rect x="238.88" y="140.337" fill="#414042" width="14.074" height="125.058"/>
<rect x="269.905" y="140.337" fill="#414042" width="14.074" height="125.058"/>
<rect x="300.929" y="140.337" fill="#414042" width="14.075" height="125.058"/>
<rect x="331.954" y="140.337" fill="#414042" width="14.074" height="125.058"/>
<rect x="362.979" y="140.337" fill="#414042" width="14.075" height="125.058"/>
<rect x="394.003" y="140.337" fill="#414042" width="14.074" height="125.058"/>
<rect x="425.028" y="140.337" fill="#414042" width="14.074" height="125.058"/>
<polygon fill="#231F1F" points="167.677,136.137 87.104,182.895 85.766,180.948 167.677,133.171 "/>
</svg>
