<?xml version="1.0" encoding="utf-8"?>
<!-- Generator: Adobe Illustrator 16.0.0, SVG Export Plug-In . SVG Version: 6.00 Build 0)  -->
<!DOCTYPE svg PUBLIC "-//W3C//DTD SVG 1.1//EN" "http://www.w3.org/Graphics/SVG/1.1/DTD/svg11.dtd">
<svg version="1.1" id="Layer_1" xmlns="http://www.w3.org/2000/svg" xmlns:xlink="http://www.w3.org/1999/xlink" x="0px" y="0px"
	 width="941.11px" height="500px" viewBox="0 0 941.11 500" enable-background="new 0 0 941.11 500" xml:space="preserve">
<g>
	<path fill="#231F1F" d="M86.884,304.695c-18.747,0-34.001,15.252-34.001,34s15.254,33.998,34.001,33.998
		s33.999-15.25,33.999-33.998S105.631,304.695,86.884,304.695z M86.883,355.918c-9.496,0-17.221-7.728-17.221-17.223
		s7.725-17.223,17.221-17.223s17.221,7.728,17.221,17.223S96.379,355.918,86.883,355.918z"/>
	<circle fill="#231F1F" cx="86.883" cy="338.695" r="15.248"/>
</g>
<g>
	<path fill="#231F1F" d="M319.89,304.695c-18.747,0-34.001,15.252-34.001,34s15.254,33.998,34.001,33.998
		s33.999-15.25,33.999-33.998S338.637,304.695,319.89,304.695z M319.889,355.918c-9.496,0-17.221-7.728-17.221-17.223
		s7.725-17.223,17.221-17.223s17.221,7.728,17.221,17.223S329.385,355.918,319.889,355.918z"/>
	<circle fill="#231F1F" cx="319.889" cy="338.695" r="15.248"/>
</g>
<g>
	<path fill="#231F1F" d="M400.775,304.695c-18.748,0-34.002,15.252-34.002,34s15.254,33.998,34.002,33.998
		c18.746,0,33.998-15.25,33.998-33.998S419.521,304.695,400.775,304.695z M400.773,355.918c-9.496,0-17.221-7.728-17.221-17.223
		s7.725-17.223,17.221-17.223s17.221,7.728,17.221,17.223S410.27,355.918,400.773,355.918z"/>
	<circle fill="#231F1F" cx="400.773" cy="338.695" r="15.248"/>
</g>
<path fill="#231F1F" d="M437.685,290.062H237.031c-5.007,0-9.103-4.096-9.103-9.102V162.009c0-5.006-4.096-9.102-9.102-9.102
	h-62.954c-5.006,0-10.218,3.941-11.581,8.758l-16.328,57.656c-1.364,4.816-6.575,8.758-11.582,8.758H47.442
	c-5.007,0-9.103,4.094-9.103,9.1v55.637c0,5.008-2.694,9.104-5.987,9.104c-3.292,0-5.986,4.096-5.986,9.102v16.064
	c0,5.006,4.096,9.098,9.102,9.096l13.429-0.012c1.517-19.434,17.801-34.783,37.618-34.783c19.794,0,36.067,15.316,37.614,34.721
	l157.968-0.129c1.608-19.342,17.852-34.592,37.604-34.592c19.73,0,35.962,15.217,37.601,34.531l5.625-0.006
	c1.641-19.311,17.869-34.525,37.6-34.525c19.699,0,35.913,15.172,37.593,34.441c4.806-0.232,8.669-4.225,8.669-9.086v-27.578
	C446.787,294.157,442.691,290.062,437.685,290.062z M72.267,274.644h-9.979v-36.588h9.979V274.644z M88.232,274.644h-9.979v-36.588
	h9.979V274.644z M104.197,274.644h-9.979v-36.588h9.979V274.644z M154.505,167.817h40.163v60.322h-55.879L154.505,167.817z
	 M236.577,317.882H144.11v-11.973h92.467V317.882z"/>
<rect x="236.577" y="129.624" fill="#231F1F" width="7.316" height="155.662"/>
<polygon fill="#231F1F" points="257.198,285.286 236.577,285.286 236.577,233.399 257.198,254.495 "/>
<g>
	<g>
		<path fill="#231F1F" d="M652.195,304.697c-18.748,0-34.001,15.252-34.001,34s15.253,33.998,34.001,33.998
			c18.746,0,33.999-15.25,33.999-33.998S670.941,304.697,652.195,304.697z M652.194,355.92c-9.496,0-17.222-7.728-17.222-17.223
			s7.726-17.223,17.222-17.223s17.222,7.728,17.222,17.223S661.69,355.92,652.194,355.92z"/>
		<circle fill="#231F1F" cx="652.194" cy="338.697" r="15.249"/>
	</g>
	<g>
		<path fill="#231F1F" d="M731.32,304.698c-18.748,0-34.001,15.252-34.001,34s15.253,33.998,34.001,33.998
			c18.746,0,33.999-15.25,33.999-33.998S750.066,304.698,731.32,304.698z M731.319,355.921c-9.496,0-17.222-7.728-17.222-17.223
			s7.726-17.223,17.222-17.223s17.222,7.728,17.222,17.223S740.815,355.921,731.319,355.921z"/>
		<circle fill="#231F1F" cx="731.319" cy="338.698" r="15.249"/>
	</g>
	<g>
		<path fill="#231F1F" d="M810.446,304.697c-18.747,0-34.001,15.252-34.001,34s15.254,33.998,34.001,33.998
			s33.999-15.25,33.999-33.998S829.193,304.697,810.446,304.697z M810.445,355.92c-9.496,0-17.221-7.728-17.221-17.223
			s7.725-17.223,17.221-17.223s17.221,7.728,17.221,17.223S819.941,355.92,810.445,355.92z"/>
		<circle fill="#231F1F" cx="810.445" cy="338.697" r="15.248"/>
	</g>
	<path fill="#231F1F" d="M605.973,297.82v40.882h9.222c0-0.002,0-0.003,0-0.005c0-20.402,16.599-37,37.001-37
		c20.4,0,36.999,16.598,36.999,37c0,0.002,0,0.003,0,0.005h5.125c0-0.001,0-0.003,0-0.004c0-20.402,16.599-37,37.001-37
		c20.4,0,36.999,16.598,36.999,37c0,0.001,0,0.003,0,0.004h5.126c0-0.002,0-0.003,0-0.005c0-20.402,16.6-37,37.001-37
		s36.999,16.598,36.999,37c0,0.002,0,0.003,0,0.005h9.527V297.82H605.973z"/>
</g>
<polygon fill="#231F1F" points="911.595,300.279 516.307,300.279 476,288.756 293.221,288.756 293.221,273.402 476,273.402 
	516.307,284.926 911.595,284.926 "/>
<rect x="898.166" y="285.286" fill="#231F1F" width="13.429" height="38.165"/>
</svg>
