<?xml version="1.0" encoding="utf-8"?>
<!-- Generator: Adobe Illustrator 16.0.0, SVG Export Plug-In . SVG Version: 6.00 Build 0)  -->
<!DOCTYPE svg PUBLIC "-//W3C//DTD SVG 1.1//EN" "http://www.w3.org/Graphics/SVG/1.1/DTD/svg11.dtd">
<svg version="1.1" id="Layer_1" xmlns="http://www.w3.org/2000/svg" xmlns:xlink="http://www.w3.org/1999/xlink" x="0px" y="0px"
	 width="941.11px" height="500px" viewBox="0 0 941.11 500" enable-background="new 0 0 941.11 500" xml:space="preserve">
<g>
	<path fill="#231F1F" d="M86.884,304.697c-18.748,0-34.001,15.252-34.001,34s15.253,33.998,34.001,33.998
		c18.747,0,33.999-15.25,33.999-33.998S105.63,304.697,86.884,304.697z M86.883,355.92c-9.496,0-17.221-7.728-17.221-17.223
		s7.725-17.223,17.221-17.223s17.221,7.728,17.221,17.223S96.379,355.92,86.883,355.92z"/>
	<circle fill="#231F1F" cx="86.883" cy="338.697" r="15.249"/>
</g>
<g>
	<path fill="#231F1F" d="M319.89,304.695c-18.748,0-34.001,15.252-34.001,34s15.253,33.998,34.001,33.998
		c18.747,0,33.999-15.25,33.999-33.998S338.636,304.695,319.89,304.695z M319.889,355.918c-9.496,0-17.221-7.728-17.221-17.223
		s7.725-17.223,17.221-17.223s17.221,7.728,17.221,17.223S329.385,355.918,319.889,355.918z"/>
	<circle fill="#231F1F" cx="319.889" cy="338.695" r="15.249"/>
</g>
<g>
	<path fill="#231F1F" d="M400.775,304.695c-18.748,0-34.001,15.252-34.001,34s15.253,33.998,34.001,33.998
		c18.747,0,33.999-15.25,33.999-33.998S419.521,304.695,400.775,304.695z M400.774,355.918c-9.496,0-17.221-7.728-17.221-17.223
		s7.725-17.223,17.221-17.223s17.221,7.728,17.221,17.223S410.27,355.918,400.774,355.918z"/>
	<circle fill="#231F1F" cx="400.774" cy="338.695" r="15.249"/>
</g>
<g>
	<path fill="#231F1F" d="M664.723,304.692c-18.748,0-34.001,15.252-34.001,34s15.253,33.998,34.001,33.998
		c18.747,0,33.999-15.25,33.999-33.998S683.47,304.692,664.723,304.692z M664.722,355.915c-9.496,0-17.221-7.728-17.221-17.223
		s7.725-17.223,17.221-17.223s17.221,7.728,17.221,17.223S674.218,355.915,664.722,355.915z"/>
	<circle fill="#231F1F" cx="664.722" cy="338.692" r="15.249"/>
</g>
<g>
	<path fill="#231F1F" d="M743.849,304.693c-18.748,0-34.001,15.252-34.001,34s15.253,33.998,34.001,33.998
		c18.747,0,33.999-15.25,33.999-33.998S762.595,304.693,743.849,304.693z M743.848,355.916c-9.496,0-17.221-7.728-17.221-17.223
		s7.725-17.223,17.221-17.223s17.221,7.728,17.221,17.223S753.344,355.916,743.848,355.916z"/>
	<circle fill="#231F1F" cx="743.848" cy="338.693" r="15.249"/>
</g>
<g>
	<path fill="#231F1F" d="M822.974,304.692c-18.748,0-34.001,15.252-34.001,34s15.253,33.998,34.001,33.998
		c18.747,0,33.999-15.25,33.999-33.998S841.721,304.692,822.974,304.692z M822.973,355.915c-9.496,0-17.221-7.728-17.221-17.223
		s7.725-17.223,17.221-17.223s17.221,7.728,17.221,17.223S832.469,355.915,822.973,355.915z"/>
	<circle fill="#231F1F" cx="822.973" cy="338.692" r="15.249"/>
</g>
<rect x="272.674" y="287.634" fill="#231F1F" width="157.787" height="11.428"/>
<path fill="#231F20" d="M851.755,143.206c-2.944-6.48-9.462-10.996-17.044-10.996h-13.726v-0.002H358.172v0.002h-19.01
	c-7.527,0-14,4.451-16.979,10.855c-36.324,1.461-65.331,31.359-65.331,68.047v3.404c0,37.619,30.498,68.113,68.112,68.113h521.664
	c37.617,0,68.115-30.494,68.115-68.113v-3.404C914.744,175.219,886.974,145.831,851.755,143.206z"/>
<path fill="#231F1F" d="M437.685,297.261H237.031c-5.007,0-9.103-4.096-9.103-9.102v-126.15c0-5.006-4.096-9.102-9.102-9.102
	h-62.954c-5.006,0-10.218,3.941-11.581,8.758l-16.328,57.656c-1.364,4.816-6.575,8.758-11.582,8.758H47.442
	c-5.007,0-9.103,4.094-9.103,9.1v55.637c0,5.008-2.694,9.104-5.987,9.104c-3.292,0-5.986,4.096-5.986,9.102v16.064
	c0,5.006,4.096,9.098,9.102,9.096l13.429-0.012c1.517-19.434,17.801-34.783,37.618-34.783c19.794,0,36.067,15.316,37.614,34.721
	l157.968-0.129c1.608-19.342,17.852-34.592,37.604-34.592c19.73,0,35.962,15.217,37.601,34.531l5.625-0.006
	c1.641-19.311,17.869-34.525,37.6-34.525c19.699,0,35.913,15.172,37.593,34.441c4.806-0.232,8.669-4.225,8.669-9.086v-20.379
	C446.787,301.356,442.691,297.261,437.685,297.261z M72.267,274.644h-9.979v-36.588h9.979V274.644z M88.232,274.644h-9.979v-36.588
	h9.979V274.644z M104.197,274.644h-9.979v-36.588h9.979V274.644z M154.505,167.817h40.163v60.322h-55.879L154.505,167.817z
	 M236.577,317.882H144.11v-11.973h92.467V317.882z"/>
<rect x="236.577" y="129.624" fill="#231F1F" width="7.316" height="155.662"/>
<polygon fill="#231F1F" points="257.198,285.286 236.577,285.286 236.577,233.399 257.198,254.495 "/>
<path fill="#231F1F" d="M905.643,298.507h-30.945c-5.007,0-9.103-2.447-9.103-5.436c0-2.99-4.096-5.438-9.103-5.438H628.038
	c-5.006,0-9.103,2.447-9.103,5.438c0,2.988-4.095,5.436-9.102,5.436h-7.311c-5.006,0-9.102,4.096-9.102,9.102v18.813
	c0,5.008,4.096,9.104,9.102,9.104h24.284v-0.002c0-20.73,16.865-37.594,37.595-37.594s37.595,16.863,37.595,37.594v0.002h3.719
	v-0.002c0-20.73,16.865-37.594,37.595-37.594s37.595,16.863,37.595,37.594v0.002h3.719v-0.002c0-20.73,16.865-37.594,37.595-37.594
	s37.595,16.863,37.595,37.594v0.002h45.829c5.006,0,9.102-4.096,9.102-9.104v-18.813
	C914.744,302.603,910.648,298.507,905.643,298.507z"/>
</svg>
