<?xml version="1.0" encoding="utf-8"?>
<!-- Generated by IcoMoon.io -->
<!DOCTYPE svg PUBLIC "-//W3C//DTD SVG 1.1//EN" "http://www.w3.org/Graphics/SVG/1.1/DTD/svg11.dtd">
<svg version="1.1" xmlns="http://www.w3.org/2000/svg" xmlns:xlink="http://www.w3.org/1999/xlink" width="23" height="32" viewBox="0 0 23 32">
<path fill="#e6e6e6" d="M1.612 25.090c-0.126-0.094-0.147-0.342-0.166-1.991l-0.022-1.884-1.37-0.086v-1.798l2.654-0.023c2.419-0.021 2.664-0.010 2.761 0.123 0.064 0.087 0.107 0.412 0.107 0.798 0 0.87-0.054 0.93-0.856 0.961l-0.642 0.024-0.022 1.884c-0.019 1.649-0.040 1.897-0.166 1.991-0.096 0.071-0.477 0.107-1.139 0.107s-1.043-0.036-1.139-0.107zM4.994 25.131c-0.056-0.019-0.102-0.112-0.102-0.208 0-0.197 1.938-5.362 2.073-5.527 0.128-0.155 2.322-0.151 2.451 0.005 0.181 0.218 2.163 5.304 2.138 5.485-0.025 0.174-0.076 0.184-1.096 0.205-0.589 0.012-1.113-0.007-1.165-0.043s-0.29-0.584-0.529-1.218c-0.239-0.635-0.467-1.165-0.506-1.178s-0.298 0.517-0.575 1.179c-0.277 0.661-0.568 1.237-0.647 1.28-0.138 0.074-1.83 0.092-2.041 0.021zM12.578 25.138c-0.134-0.035-0.15-0.223-0.171-1.981l-0.023-1.942-1.37-0.086v-1.798l5.417-0.045 0.052 0.194c0.067 0.249 0.067 1.249 0.001 1.496-0.046 0.173-0.111 0.191-0.748 0.214l-0.697 0.025-0.022 1.884c-0.020 1.649-0.040 1.897-0.166 1.991-0.139 0.104-1.916 0.141-2.272 0.048zM15.958 25.14c-0.18-0.073-0.123-0.353 0.29-1.432 0.218-0.57 0.626-1.634 0.906-2.364s0.55-1.443 0.6-1.584c0.166-0.467 0.178-0.471 1.393-0.471 0.841 0 1.16 0.030 1.23 0.114 0.052 0.063 0.233 0.458 0.403 0.878 1.748 4.328 1.845 4.588 1.744 4.709-0.078 0.094-0.348 0.122-1.159 0.122-1.254 0-1.109 0.126-1.707-1.481-0.224-0.603-0.435-1.065-0.467-1.027s-0.285 0.601-0.56 1.252c-0.275 0.651-0.568 1.219-0.65 1.263-0.153 0.082-1.83 0.101-2.023 0.023zM10.902 18.33c-0.077-0.077-0.103-1.059-0.103-3.89 0-2.272-0.034-3.876-0.084-4.009-0.046-0.122-0.191-0.262-0.321-0.313-0.36-0.139-2.379 0.046-4.804 0.441-1.146 0.186-2.119 0.339-2.162 0.339s-0.078-0.106-0.078-0.236c0-0.328 0.72-1.184 1.484-1.764 1.026-0.779 2.35-1.361 3.954-1.736 0.97-0.227 3.954-0.229 4.989-0.003 2.388 0.521 4.167 1.554 5.315 3.087 0.214 0.286 0.247 0.652 0.059 0.652-0.069 0-1.042-0.151-2.162-0.335s-2.625-0.383-3.346-0.441c-1.267-0.102-1.318-0.1-1.541 0.066l-0.231 0.172-0.022 3.922c-0.015 2.722-0.051 3.957-0.117 4.037-0.118 0.143-0.689 0.151-0.828 0.012zM8.060 18.036c-0.071-0.023-0.379-0.121-0.685-0.218-1.368-0.436-2.847-1.395-3.582-2.322-0.764-0.964-1.042-1.735-1.042-2.887 0-0.598 0.029-0.768 0.15-0.878 0.439-0.397 5.874-1.018 6.53-0.746 0.284 0.117 0.513 0.47 0.512 0.787-0.001 0.547-1.063 5.617-1.283 6.126-0.081 0.187-0.294 0.236-0.601 0.138zM13.882 17.968c0-0.067-0.152-0.751-0.338-1.52-0.412-1.704-0.77-3.587-0.834-4.398-0.045-0.559-0.032-0.622 0.17-0.856l0.219-0.253 1.061 0.015c1.694 0.024 4.972 0.453 5.462 0.715 0.17 0.091 0.254 0.442 0.254 1.061 0 2.103-1.897 4.17-4.679 5.098-0.859 0.287-1.315 0.335-1.315 0.139z"></path>
<path fill="#d1d1d1" d="M1.659 25.055c-0.081-0.033-0.107-0.495-0.107-1.903 0-1.332-0.029-1.889-0.103-1.962-0.061-0.061-0.354-0.103-0.721-0.103-0.607 0-0.619-0.004-0.659-0.235-0.069-0.397-0.061-1.257 0.012-1.371 0.054-0.084 0.657-0.103 2.718-0.086l2.649 0.023 0.026 0.641c0.041 1.030 0.051 1.017-0.776 1.046l-0.706 0.025-0.023 1.923c-0.017 1.407-0.051 1.941-0.128 1.989-0.114 0.073-2.006 0.084-2.182 0.013zM5.002 24.968c-0.062-0.163-0.078-0.118 1.113-3.239l0.882-2.312h2.385l1.084 2.694c0.596 1.482 1.065 2.744 1.042 2.804-0.031 0.081-0.318 0.11-1.101 0.11h-1.059l-0.116-0.235c-0.064-0.13-0.302-0.728-0.53-1.33s-0.443-1.065-0.479-1.027c-0.036 0.037-0.301 0.625-0.588 1.305s-0.569 1.268-0.627 1.304c-0.058 0.037-0.52 0.067-1.028 0.068-0.785 0.001-0.931-0.020-0.978-0.142zM12.619 25.055c-0.081-0.033-0.107-0.507-0.107-1.961v-1.918l-0.193-0.044c-0.106-0.024-0.424-0.054-0.706-0.066l-0.514-0.022-0.049-1.672 5.358 0.045v1.627l-0.682 0.025c-0.413 0.015-0.708 0.066-0.748 0.128-0.036 0.057-0.066 0.937-0.067 1.956-0.001 1.61-0.019 1.86-0.137 1.905-0.161 0.062-2 0.058-2.155-0.005zM15.997 25.057c-0.12-0.12-0.037-0.381 0.956-2.985l1.012-2.654h2.381l1.091 2.697c0.6 1.483 1.073 2.746 1.051 2.807-0.030 0.083-0.305 0.104-1.129 0.086l-1.089-0.024-0.271-0.685c-0.149-0.377-0.377-0.967-0.506-1.311s-0.26-0.602-0.29-0.573c-0.030 0.029-0.305 0.638-0.612 1.354l-0.557 1.301-0.989 0.024c-0.544 0.013-1.016-0.003-1.049-0.036zM10.928 18.245c-0.022-0.062-0.051-1.854-0.063-3.984l-0.023-3.872-0.196-0.195c-0.179-0.178-0.263-0.193-0.985-0.174-1.134 0.030-2.251 0.161-4.326 0.506-1.004 0.167-1.846 0.282-1.873 0.256-0.208-0.208 0.719-1.328 1.639-1.98 1.115-0.791 2.528-1.351 4.114-1.631 1.053-0.186 3.091-0.184 4.196 0.004 2.252 0.382 4.247 1.429 5.384 2.826 0.396 0.486 0.504 0.812 0.27 0.812-0.069 0-1.061-0.153-2.205-0.34-2.592-0.424-4.319-0.566-4.741-0.39-0.161 0.067-0.301 0.134-0.311 0.148s-0.039 1.837-0.064 4.050l-0.046 4.024-0.365 0.026c-0.242 0.018-0.378-0.011-0.405-0.086zM7.417 17.756c-2.552-0.89-4.29-2.592-4.582-4.487-0.129-0.837-0.038-1.406 0.248-1.55 0.532-0.268 2.917-0.597 5.12-0.706l1.128-0.056 0.263 0.263c0.183 0.183 0.263 0.346 0.263 0.535 0 0.554-0.744 4.216-1.201 5.915-0.112 0.415-0.264 0.426-1.239 0.086zM13.725 16.923c-0.43-1.81-0.592-2.578-0.823-3.907-0.201-1.151-0.209-1.29-0.095-1.563 0.077-0.183 0.218-0.336 0.365-0.394 0.444-0.174 3.786 0.092 5.506 0.439 1.027 0.207 1.113 0.295 1.113 1.149 0 2.078-1.647 3.997-4.282 4.986-0.423 0.159-0.939 0.312-1.146 0.341l-0.376 0.052-0.262-1.102z"></path>
<path fill="#b0b0b0" d="M1.604 24.89c-0.029-0.074-0.052-0.961-0.052-1.969v-1.834h-0.625c-0.372 0-0.667-0.042-0.728-0.103-0.149-0.149-0.137-1.389 0.015-1.515 0.083-0.069 0.848-0.091 2.633-0.075l2.516 0.023 0.025 0.763c0.018 0.553-0.006 0.783-0.086 0.834-0.061 0.039-0.386 0.071-0.722 0.071-0.478 0.001-0.623 0.031-0.664 0.137-0.029 0.074-0.052 0.961-0.052 1.969v1.834h-1.104c-0.928 0-1.112-0.022-1.156-0.135zM5.026 24.95c-0.064-0.104 1.972-5.415 2.11-5.503 0.187-0.119 2.102-0.089 2.181 0.034 0.207 0.323 2.153 5.336 2.095 5.395-0.038 0.038-0.524 0.059-1.080 0.045l-1.010-0.024-0.49-1.28c-0.269-0.704-0.528-1.293-0.575-1.308s-0.232 0.329-0.411 0.766c-0.179 0.437-0.441 1.055-0.581 1.373l-0.255 0.578h-0.968c-0.532 0-0.989-0.034-1.015-0.076zM12.564 24.89c-0.029-0.074-0.052-0.961-0.052-1.969v-1.834h-0.625c-0.372 0-0.667-0.042-0.728-0.103-0.149-0.149-0.137-1.389 0.015-1.515 0.083-0.069 0.848-0.091 2.633-0.075l2.516 0.023 0.025 0.763c0.018 0.553-0.006 0.783-0.086 0.834-0.061 0.039-0.39 0.071-0.731 0.071l-0.621 0.001v1.834c0 1.009-0.023 1.895-0.052 1.969-0.044 0.114-0.227 0.135-1.147 0.135s-1.103-0.022-1.147-0.135zM15.991 24.958c-0.062-0.1 1.979-5.43 2.111-5.514 0.182-0.116 2.085-0.082 2.177 0.038 0.084 0.109 2.074 5.034 2.147 5.311 0.037 0.141-0.041 0.151-1.054 0.128l-1.094-0.024-0.48-1.277c-0.264-0.703-0.519-1.291-0.567-1.306s-0.339 0.578-0.646 1.32l-0.559 1.349-0.995 0.024c-0.547 0.013-1.015-0.009-1.040-0.049zM10.937 18.126c-0.029-0.074-0.052-1.849-0.052-3.943v-3.807l-0.21-0.21c-0.19-0.19-0.279-0.21-0.92-0.209-1.005 0.002-2.061 0.122-4.203 0.476-1.026 0.17-1.924 0.287-1.994 0.259-0.186-0.071-0.034-0.32 0.599-0.982 1.333-1.394 3.155-2.227 5.573-2.549 2.47-0.328 5.283 0.186 7.186 1.315 1.039 0.616 2.38 2.002 2.154 2.228-0.028 0.028-0.927-0.092-1.999-0.266-2.854-0.465-4.678-0.608-5.069-0.399-0.319 0.171-0.346 0.511-0.346 4.424v3.797h-0.333c-0.225 0-0.35-0.044-0.385-0.135zM7.626 17.754c-1.513-0.488-2.578-1.13-3.484-2.1-0.872-0.934-1.319-1.977-1.297-3.027 0.014-0.646 0.093-0.819 0.423-0.928 0.735-0.242 3.566-0.595 5.191-0.648 0.687-0.022 0.815-0.003 1.027 0.154 0.184 0.136 0.249 0.263 0.268 0.522 0.034 0.449-0.252 2.109-0.676 3.922-0.187 0.801-0.38 1.635-0.428 1.855s-0.137 0.418-0.196 0.441c-0.059 0.023-0.432-0.064-0.829-0.192zM14.072 17.897c-0.173-0.213-1.099-4.513-1.259-5.843-0.065-0.541 0.075-0.824 0.473-0.955 0.7-0.23 5.808 0.369 6.259 0.734 0.157 0.127 0.18 0.235 0.177 0.826-0.011 2.18-1.655 4.009-4.514 5.023-0.854 0.303-1.037 0.338-1.137 0.215z"></path>
<path fill="#959595" d="M1.618 22.995l-0.023-1.951-1.37-0.086v-1.456l5.095-0.045v1.537l-1.413 0.050-0.086 3.853-2.18 0.048-0.023-1.951zM5.063 24.87c0-0.039 0.458-1.262 1.017-2.719l1.017-2.648h2.192l1.052 2.611c0.579 1.436 1.035 2.661 1.013 2.721-0.029 0.083-0.278 0.104-1.004 0.086l-0.965-0.024-0.281-0.728c-0.155-0.4-0.386-0.998-0.514-1.327s-0.283-0.599-0.345-0.599c-0.064 0-0.353 0.577-0.674 1.349l-0.562 1.349h-0.974c-0.536 0-0.974-0.032-0.974-0.070zM12.578 22.992l-0.023-1.948-1.37-0.086v-1.456l5.095-0.045v1.537l-1.413 0.050-0.046 3.896h-2.22l-0.023-1.948zM16.023 24.886c0-0.033 0.327-0.91 0.726-1.951s0.857-2.238 1.016-2.662l0.29-0.771h2.206l1.050 2.61c0.578 1.435 1.032 2.659 1.009 2.719-0.030 0.078-0.284 0.109-0.894 0.109-0.469 0-0.91-0.022-0.98-0.049s-0.35-0.643-0.62-1.37c-0.271-0.726-0.539-1.321-0.597-1.321-0.094 0-0.39 0.636-1.014 2.183l-0.207 0.514-0.993 0.024c-0.546 0.013-0.993-0.003-0.993-0.035zM11.078 18.205c-0.083-0.034-0.107-0.889-0.108-3.868-0.001-4.144-0.002-4.149-0.469-4.373-0.355-0.17-2.366-0.010-4.752 0.378-1.013 0.165-1.929 0.299-2.037 0.299-0.176 0-0.185-0.019-0.093-0.192 0.179-0.336 1.126-1.27 1.648-1.626 1.22-0.832 2.799-1.391 4.542-1.61 1.004-0.126 2.941-0.061 3.9 0.131 1.375 0.276 2.739 0.841 3.738 1.549 0.57 0.404 1.573 1.445 1.573 1.632 0 0.158-0.17 0.148-1.615-0.095-2.696-0.454-4.886-0.654-5.299-0.483-0.475 0.197-0.47 0.145-0.455 4.269 0.010 2.795-0.013 3.836-0.087 3.925-0.1 0.121-0.285 0.145-0.486 0.064zM7.525 17.662c-1.451-0.491-2.452-1.102-3.32-2.025-0.912-0.971-1.281-1.832-1.282-2.999-0.001-0.446 0.036-0.652 0.134-0.749 0.074-0.074 0.149-0.135 0.166-0.135s0.294-0.055 0.615-0.123c0.829-0.174 2.425-0.37 3.922-0.481 1.408-0.104 1.649-0.066 1.887 0.297 0.132 0.201 0.129 0.289-0.047 1.352-0.229 1.388-1.015 4.864-1.134 5.012-0.111 0.138-0.072 0.145-0.942-0.15zM14.1 17.84c-0.165-0.267-1.037-4.332-1.208-5.632-0.128-0.974 0.141-1.184 1.406-1.098 2.414 0.164 4.992 0.545 5.225 0.772 0.166 0.162 0.215 0.846 0.104 1.456-0.335 1.836-2.083 3.508-4.517 4.32-0.853 0.284-0.938 0.3-1.010 0.183z"></path>
<path fill="#888" d="M1.69 24.805c-0.029-0.074-0.052-0.96-0.052-1.968 0-2.099 0.093-1.899-0.899-1.942l-0.514-0.022-0.025-0.607c-0.018-0.443 0.008-0.635 0.096-0.708s0.789-0.094 2.551-0.078l2.43 0.023 0.049 1.394-0.692 0.031c-0.494 0.022-0.715 0.068-0.773 0.159-0.044 0.070-0.081 0.966-0.082 1.99l-0.001 1.862h-1.018c-0.85 0-1.027-0.022-1.070-0.135zM5.148 24.823c0-0.123 1.82-4.95 1.957-5.191 0.1-0.175 1.995-0.234 2.13-0.067 0.112 0.139 2.077 5.045 2.077 5.186 0 0.076-0.261 0.104-0.949 0.104h-0.949l-0.1-0.265c-0.578-1.538-0.973-2.432-1.076-2.432-0.074 0-0.336 0.524-0.686 1.37l-0.566 1.37-0.92 0.024c-0.754 0.020-0.92 0.002-0.92-0.099zM12.682 23.078c-0.001-1.024-0.037-1.918-0.080-1.986-0.053-0.083-0.299-0.139-0.748-0.171l-0.67-0.047 0.006-0.562c0.010-0.936-0.236-0.857 2.582-0.831l2.464 0.023 0.050 1.413-0.624 0.001c-0.343 0.001-0.682 0.038-0.753 0.082-0.107 0.067-0.133 0.409-0.156 2.011l-0.027 1.93h-2.043l-0.001-1.862zM16.108 24.841c0-0.137 1.891-5.135 1.996-5.274 0.056-0.075 0.373-0.107 1.044-0.107 0.668 0 0.99 0.033 1.050 0.107 0.047 0.059 0.55 1.256 1.117 2.66 0.715 1.769 0.998 2.565 0.925 2.593-0.058 0.022-0.507 0.030-0.997 0.016l-0.891-0.025-0.506-1.349c-0.288-0.767-0.553-1.349-0.615-1.349-0.060 0-0.374 0.626-0.698 1.391l-0.59 1.391-0.918 0.024c-0.679 0.018-0.918-0.003-0.918-0.080zM11.054 14.515c-0.001-2.013-0.038-3.815-0.081-4.003-0.124-0.537-0.322-0.642-1.201-0.642-1.036 0-2.196 0.129-4.307 0.477-0.989 0.163-1.818 0.277-1.842 0.252-0.093-0.093 0.497-0.791 1.107-1.308 0.733-0.622 1.951-1.275 2.976-1.597 1.182-0.371 2.151-0.507 3.608-0.509 2.551-0.002 4.637 0.626 6.345 1.912 0.711 0.535 1.511 1.544 1.225 1.544-0.028 0-0.712-0.115-1.52-0.256-1.903-0.332-3.497-0.515-4.482-0.515-0.709 0-0.812 0.021-1.028 0.207l-0.24 0.207-0.048 7.892h-0.509l-0.002-3.66zM7.408 17.589c-2.455-0.854-4.075-2.436-4.408-4.305-0.072-0.402-0.081-0.723-0.028-0.998 0.070-0.361 0.111-0.416 0.378-0.502 0.778-0.253 3.963-0.63 5.322-0.63 0.779 0 1.014 0.144 1.013 0.621-0.001 0.589-0.368 2.504-0.953 4.966-0.302 1.27-0.234 1.227-1.324 0.848zM14.062 17.641c-0.29-0.774-1.251-5.786-1.163-6.064 0.122-0.386 0.394-0.452 1.608-0.393 2.196 0.107 4.874 0.512 5.046 0.763 0.040 0.059 0.061 0.474 0.046 0.922-0.025 0.729-0.060 0.881-0.336 1.456-0.693 1.44-2.028 2.523-3.963 3.214-0.974 0.348-1.141 0.362-1.238 0.103z"></path>
<path fill="#767676" d="M1.78 24.883c-0.031-0.031-0.057-0.891-0.057-1.909 0-1.327-0.029-1.881-0.103-1.955-0.061-0.061-0.356-0.103-0.728-0.103h-0.625v-1.373l5.009 0.045 0.007 0.514c0.011 0.828 0.023 0.813-0.648 0.813-0.93 0-0.857-0.171-0.857 2.012 0 1.661-0.018 1.915-0.135 1.96-0.184 0.071-1.791 0.066-1.863-0.005zM5.512 24.871c-0.2-0.015-0.364-0.040-0.364-0.056s0.419-1.122 0.931-2.457c0.512-1.335 0.958-2.514 0.99-2.62 0.058-0.186 0.096-0.193 1.11-0.193h1.051l1.041 2.601c0.573 1.431 1.041 2.625 1.041 2.654s-0.421 0.053-0.936 0.053h-0.936l-0.169-0.45c-0.093-0.247-0.312-0.835-0.487-1.306-0.333-0.897-0.498-1.164-0.631-1.024-0.043 0.045-0.319 0.673-0.614 1.395-0.43 1.054-0.577 1.329-0.743 1.392-0.194 0.074-0.372 0.075-1.286 0.009zM12.919 24.88l-0.235-0.037v-1.861c0-1.333-0.029-1.89-0.103-1.964-0.061-0.061-0.356-0.103-0.728-0.103h-0.625v-1.373l5.009 0.045v1.284l-0.656 0.025c-0.403 0.015-0.691 0.067-0.747 0.135-0.057 0.069-0.1 0.815-0.115 1.987l-0.023 1.877-0.771 0.010c-0.424 0.005-0.877-0.007-1.006-0.027zM16.294 24.874c-0.11-0.018-0.181-0.078-0.16-0.133s0.392-1.025 0.823-2.155c0.431-1.13 0.871-2.267 0.977-2.526l0.194-0.471 2.068-0.048 1.008 2.507c0.555 1.379 1.026 2.575 1.049 2.657 0.036 0.136-0.044 0.15-0.858 0.15-0.634 0-0.926-0.033-0.991-0.112-0.051-0.061-0.288-0.647-0.528-1.301s-0.48-1.244-0.535-1.31c-0.157-0.189-0.316 0.072-0.88 1.451-0.277 0.676-0.541 1.255-0.586 1.286-0.086 0.059-1.231 0.063-1.581 0.005zM11.1 18.075c-0.023-0.062-0.052-1.836-0.064-3.943l-0.022-3.83-0.238-0.237c-0.234-0.233-0.257-0.237-1.175-0.223-1.107 0.018-1.982 0.116-4.065 0.459-1.686 0.278-1.842 0.292-1.842 0.173 0-0.153 0.974-1.133 1.501-1.508 2.348-1.675 5.938-2.203 9.265-1.363 1.601 0.404 3.395 1.478 4.176 2.499 0.244 0.319 0.284 0.416 0.18 0.438-0.074 0.015-0.853-0.093-1.732-0.241-1.569-0.263-3.725-0.509-4.485-0.512-0.523-0.002-0.916 0.244-0.986 0.618-0.029 0.157-0.060 1.96-0.069 4.007l-0.015 3.722-0.193 0.027c-0.106 0.015-0.212-0.023-0.235-0.086zM7.417 17.544c-2.013-0.737-3.346-1.79-4.037-3.187-0.296-0.599-0.328-0.733-0.359-1.494-0.032-0.803-0.026-0.841 0.169-0.964 0.518-0.327 5.546-0.879 6.090-0.669 0.429 0.166 0.451 0.37 0.199 1.822-0.359 2.068-1.011 4.731-1.164 4.754-0.071 0.011-0.475-0.108-0.899-0.263zM14.061 17.518c-0.513-1.917-1.186-5.577-1.094-5.947 0.099-0.396 0.401-0.449 1.876-0.334 1.707 0.134 3.115 0.307 3.948 0.486 0.758 0.163 0.827 0.244 0.827 0.96 0 1.927-1.673 3.837-4.175 4.768-0.412 0.153-0.872 0.304-1.022 0.336-0.26 0.055-0.278 0.042-0.361-0.269z"></path>
<path fill="#636363" d="M1.809 23.062c0-0.986-0.038-1.891-0.083-2.012-0.079-0.209-0.115-0.22-0.728-0.22h-0.644v-1.199h4.881v1.199h-0.605c-0.995 0-0.936-0.132-0.936 2.101v1.924h-1.884v-1.793zM5.234 24.79c0-0.035 0.292-0.816 0.648-1.734s0.784-2.036 0.95-2.483c0.166-0.447 0.347-0.852 0.401-0.899 0.057-0.050 0.496-0.075 1.043-0.059l0.944 0.026 0.417 1.087c0.229 0.598 0.681 1.734 1.004 2.524s0.587 1.455 0.587 1.477c0 0.022-0.396 0.040-0.88 0.040h-0.88l-0.512-1.38c-0.282-0.759-0.563-1.4-0.625-1.424-0.181-0.071-0.302 0.128-0.743 1.221-0.228 0.565-0.485 1.172-0.573 1.349l-0.159 0.321h-0.812c-0.446 0-0.811-0.029-0.811-0.064zM12.769 22.977c0-2.224 0.031-2.147-0.862-2.147h-0.593v-1.199h4.881v1.199h-0.636c-0.943 0-0.905-0.089-0.905 2.147v1.878h-1.884v-1.878zM16.194 24.81c0-0.025 0.36-0.978 0.799-2.119s0.877-2.286 0.973-2.545l0.173-0.471 2.036-0.044 0.971 2.419c0.534 1.331 0.991 2.487 1.016 2.569 0.041 0.136-0.036 0.15-0.818 0.15-1.015 0-0.864 0.155-1.475-1.515-0.395-1.080-0.516-1.305-0.702-1.309-0.078-0.002-0.499 0.908-0.96 2.075l-0.33 0.835h-0.842c-0.463 0-0.842-0.020-0.842-0.045zM11.142 14.43c-0-2.159-0.035-3.786-0.085-3.966-0.047-0.168-0.184-0.399-0.306-0.514-0.207-0.194-0.276-0.206-1.068-0.189-1.032 0.023-2.563 0.201-4.47 0.521-0.789 0.132-1.434 0.208-1.434 0.168 0-0.146 0.83-0.96 1.442-1.415 1.094-0.813 2.569-1.385 4.252-1.649 0.876-0.138 2.947-0.114 3.853 0.045 1.5 0.262 2.925 0.807 3.976 1.522 0.465 0.316 1.461 1.319 1.461 1.471 0 0.081-0.275 0.058-1.135-0.096-1.829-0.328-3.684-0.542-4.686-0.542-0.864 0-0.952 0.016-1.174 0.207l-0.24 0.207-0.025 3.946c-0.024 3.855-0.029 3.946-0.193 3.946s-0.168-0.081-0.168-3.66zM7.46 17.5c-1.979-0.739-3.372-1.822-4.010-3.119-0.296-0.602-0.463-1.509-0.383-2.089 0.043-0.31 0.086-0.377 0.274-0.418 0.123-0.027 0.273-0.064 0.332-0.082 0.559-0.173 4.012-0.55 5.041-0.551 0.387-0 0.578 0.042 0.724 0.16 0.197 0.16 0.198 0.165 0.088 0.963-0.134 0.975-0.41 2.337-0.826 4.078-0.249 1.042-0.341 1.305-0.455 1.302-0.078-0.002-0.431-0.112-0.785-0.244zM13.975 16.913c-0.351-1.521-0.613-2.79-0.823-4-0.304-1.749-0.288-1.763 1.884-1.596 1.737 0.134 3.090 0.31 3.855 0.501l0.599 0.15-0.004 0.813c-0.004 0.662-0.042 0.901-0.208 1.284-0.536 1.238-1.499 2.198-2.929 2.92-0.612 0.309-1.819 0.762-2.030 0.762-0.12 0-0.19-0.168-0.344-0.835z"></path>
</svg>
