<?xml version="1.0" encoding="utf-8"?>
<!-- Generator: Adobe Illustrator 16.0.0, SVG Export Plug-In . SVG Version: 6.00 Build 0)  -->
<!DOCTYPE svg PUBLIC "-//W3C//DTD SVG 1.1//EN" "http://www.w3.org/Graphics/SVG/1.1/DTD/svg11.dtd">
<svg version="1.1" id="Layer_1" xmlns="http://www.w3.org/2000/svg" xmlns:xlink="http://www.w3.org/1999/xlink" x="0px" y="0px"
	 width="500px" height="500px" viewBox="0 0 500 500" enable-background="new 0 0 500 500" xml:space="preserve">
<g>
	<path fill="#231F1F" d="M138.533,285.743c-22.334,0-40.501,18.172-40.501,40.5s18.167,40.498,40.501,40.498
		c22.333,0,40.499-18.17,40.499-40.498S160.866,285.743,138.533,285.743z M138.532,346.754c-11.312,0-20.516-9.2-20.516-20.511
		s9.204-20.511,20.516-20.511s20.516,9.2,20.516,20.511S149.843,346.754,138.532,346.754z"/>
	<path fill="#231F1F" d="M156.694,326.243c0-10.033-8.128-18.167-18.162-18.167c-10.032,0-18.162,8.134-18.162,18.167
		c0,10.034,8.13,18.167,18.162,18.167C148.566,344.41,156.694,336.277,156.694,326.243z"/>
</g>
<g>
	<path fill="#231F1F" d="M338.129,285.743c-22.334,0-40.501,18.172-40.501,40.5s18.167,40.498,40.501,40.498
		c22.333,0,40.499-18.17,40.499-40.498S360.462,285.743,338.129,285.743z M338.128,346.754c-11.312,0-20.516-9.2-20.516-20.511
		s9.204-20.511,20.516-20.511s20.516,9.2,20.516,20.511S349.439,346.754,338.128,346.754z"/>
	<path fill="#231F1F" d="M356.29,326.243c0-10.033-8.128-18.167-18.162-18.167c-10.032,0-18.162,8.134-18.162,18.167
		c0,10.034,8.13,18.167,18.162,18.167C348.162,344.41,356.29,336.277,356.29,326.243z"/>
</g>
<path fill="#231F1F" d="M58.747,244.873c0,0-0.504-4.607,4.393-5.111v5.4L58.747,244.873z"/>
<g>
	<path fill="#231F1F" d="M267.131,278.719V305h32.043c7.561-13.824,22.178-23.186,39.025-23.186
		c24.556,0,44.429,19.873,44.429,44.428c0,1.439-0.072,2.879-0.217,4.32h0.721l25.201-28.73v-23.186H267.131V278.719z"/>
	<path fill="#231F1F" d="M297.663,308.168h-30.459v22.395h26.857c-0.143-1.441-0.215-2.881-0.215-4.32
		c0-6.48,1.439-12.529,3.889-18.074H297.663z"/>
</g>
<g>
	<path fill="#231F1F" d="M193.255,305v-26.281h-21.241v17.785c2.305,2.592,4.248,5.473,5.977,8.496H193.255z"/>
	<path fill="#231F1F" d="M179.502,308.168c2.448,5.545,3.889,11.664,3.889,18.074c0,1.439-0.072,2.879-0.217,4.32h10.081v-22.395
		h-13.681H179.502z"/>
</g>
<g>
	<path fill="#231F1F" d="M200.745,285.775c-2.449,0-4.393,2.016-4.393,4.393v29.305c0,2.449,2.016,4.393,4.393,4.393h59.188
		c2.447,0,4.393-2.016,4.393-4.393v-29.305c0-2.449-2.018-4.393-4.393-4.393H200.745z"/>
</g>
<polygon fill="#231F1F" points="264.395,283.398 264.395,276.703 196.352,276.703 196.352,283.398 "/>
<polygon fill="#231F1F" points="196.352,326.242 196.352,333.297 264.395,333.297 264.395,326.242 "/>
<path fill="#231F1F" d="M142.493,180.791V281.67c9.576,0.865,18.289,4.682,25.201,10.586V180.791H142.493z"/>
<g>
	<path fill="#231F1F" d="M93.745,325.449c0.072-0.863-1.871-1.584-4.32-1.584H49.606c-2.447,0-3.744,1.512-2.951,3.313
		c0.791,1.871,3.455,3.313,5.832,3.313h36.938c2.449,0,4.32-1.584,4.32-3.529c0,0,0,0,0-0.791c0-0.793,0-0.793,0-0.793V325.449z"/>
</g>
<path fill="#231F1F" d="M138.532,281.023c0.289,0,1.656-0.576,1.801-0.576c0.648-0.648,1.008-1.512,1.008-3.313V181.08
	c0-2.449-4.32-2.449-4.32,0v49.539c0,2.447-2.016,4.393-4.393,4.393H99.721c-2.447,0-5.111,1.871-5.904,4.104l-3.6,9.793
	c-0.864,2.305-3.528,4.104-5.904,4.104H52.631c-2.449,0-4.393,2.018-4.393,4.393v32.33c0,2.449-0.793,6.193-1.801,8.426l-0.72,1.656
	c-1.009,2.232-1.8,5.977-1.728,8.424l0.071,8.785c0,2.447,2.017,4.393,4.464,4.393h41.26c1.439,0,2.951-0.648,4.248-1.514
	c3.023-22.033,21.889-38.953,44.715-38.953L138.532,281.023z"/>
<path fill="#231F1F" d="M53.063,250.852c-1.152,2.09-3.672,7.705-4.465,7.273c-0.72-0.432-1.08-5.041,1.729-8.785l37.082-66.316
	c1.152-2.088,4.104-3.816,6.553-3.816h69.268c2.449,0,4.393,0.721,4.393,1.584c0,0.865-2.016,1.586-4.393,1.586H95.833
	c-2.448,0-5.4,1.727-6.553,3.814L53.063,250.852z"/>
<g>
	<path fill="#231F1F" d="M84.241,316.521c0,2.736-2.232,4.967-4.969,4.967H47.518c-2.736,0-4.969-2.23-4.969-4.967v-18.721
		c0-2.736,2.232-4.969,4.969-4.969h31.754c2.736,0,4.969,2.232,4.969,4.969V316.521z"/>
</g>
<path fill="#231F1F" d="M68.832,234.65c-0.36,1.369-1.8,2.16-3.168,1.801l-5.761-1.584c-1.367-0.359-2.16-1.801-1.8-3.168
	l4.824-17.137c0.36-1.369,1.8-2.16,3.169-1.801l5.76,1.584c1.368,0.361,2.16,1.801,1.8,3.168L68.832,234.65z"/>
<g>
	<polygon fill="#231F20" points="164.775,172.036 188.648,172.036 193.856,254.867 233.79,254.867 237.262,260.51 410.015,260.51 
		448.646,290.459 448.646,305.651 409.582,274.399 172.154,274.399 171.72,176.812 164.775,176.812 	"/>
	<path fill="#231F20" d="M452.242,152.229H388.43c0,0,3.629,1.412,6.419,5.012c0.104,0.136,0.208,0.273,0.309,0.414
		c5.86,9.115-4.124,17.796-4.124,17.796l14.56-9.332h46.648c2.877,0,5.209-2.334,5.209-5.209v-3.473
		C457.451,154.562,455.12,152.229,452.242,152.229z M450.028,164.14c-2.757,0-4.992-2.234-4.992-4.992
		c0-2.757,2.234-4.992,4.992-4.992c2.756,0,4.991,2.235,4.991,4.992C455.02,161.905,452.785,164.14,450.028,164.14z"/>
	
		<line fill="none" stroke="#231F20" stroke-width="3.4724" stroke-miterlimit="10" x1="450.632" y1="164.642" x2="450.632" y2="228.672"/>
	<rect x="446.509" y="228.672" fill="#231F20" width="9.116" height="6.295"/>
	<path fill="#231F20" d="M321.468,257.69v-20.979c0-2.877-2.434-4.512-5.209-5.271c-3.894-1.066-9.115-2.572-27.345-2.572
		c-16.928,0-24.585,1.642-27.345,2.321c-2.793,0.689-5.208,2.646-5.208,5.522v20.979H321.468z"/>
	<path fill="#231F20" d="M456.103,250.934l-0.137-1.098c-0.07-0.454-0.145-0.747-0.215-1.129l-0.435-2.167l-0.87-4.332l-1.738-8.663
		l-1.695,0.365l1.995,8.608l0.999,4.303l0.499,2.152c0.076,0.338,0.185,0.761,0.232,1.032l0.17,1.092
		c0.083,0.378,0.042,0.692,0.058,1.032c0.007,0.336,0.025,0.675-0.044,1.016c-0.051,0.693-0.246,1.35-0.465,2l-0.446,0.922
		l-0.587,0.838l-0.713,0.732l-0.824,0.606l-0.917,0.455c-0.329,0.095-0.653,0.213-0.985,0.292c-0.677,0.121-1.367,0.152-2.05,0.053
		c-0.683-0.104-1.344-0.326-1.961-0.646c-0.292-0.188-0.607-0.344-0.883-0.559l-0.787-0.679c-0.544-0.718-1.062-1.467-1.38-2.314
		c-0.368-0.833-0.542-1.738-0.649-2.65c-0.036-0.293-0.044-0.592-0.06-0.891h-0.478c0.005,0.313,0.007,0.624,0.034,0.938
		c0.082,0.949,0.237,1.916,0.602,2.817c0.317,0.921,0.848,1.745,1.412,2.533l0.01,0.012l0.01,0.011l0.849,0.781
		c0.297,0.246,0.641,0.433,0.961,0.651c0.678,0.378,1.418,0.648,2.189,0.793c0.773,0.135,1.563,0.126,2.343,0.008
		c0.385-0.076,0.761-0.201,1.142-0.301l1.075-0.495c0.326-0.222,0.658-0.437,0.975-0.672c0.285-0.274,0.58-0.539,0.853-0.825
		l0.708-0.949l0.55-1.052c0.278-0.735,0.519-1.488,0.604-2.271c0.085-0.383,0.085-0.782,0.086-1.183
		C456.133,251.71,456.171,251.282,456.103,250.934z"/>
	<path fill="#231F20" d="M391.108,158.15c-8.247-7.378-15.626,0-15.626,0l-82.615,68.417c16.572,0.109,21.577,1.538,25.32,2.563
		c2.775,0.758,5.209,2.393,5.209,5.27v14.57c14.229-16.327,64.546-74.074,67.712-77.797
		C394.797,166.833,395.665,161.84,391.108,158.15z M384.682,169.817c-3.117,0-5.643-2.525-5.643-5.643
		c0-3.116,2.526-5.643,5.643-5.643c3.116,0,5.643,2.526,5.643,5.643C390.324,167.292,387.798,169.817,384.682,169.817z"/>
</g>
</svg>
