<?xml version="1.0" encoding="utf-8"?>
<!-- Generated by IcoMoon.io -->
<!DOCTYPE svg PUBLIC "-//W3C//DTD SVG 1.1//EN" "http://www.w3.org/Graphics/SVG/1.1/DTD/svg11.dtd">
<svg version="1.1" xmlns="http://www.w3.org/2000/svg" xmlns:xlink="http://www.w3.org/1999/xlink" width="23" height="32" viewBox="0 0 23 32">
<path fill="#e4e4e4" d="M10.185 26.946c-0.58-0.059-1.756-0.333-2.408-0.56-2.862-0.996-5.265-3.217-6.478-5.987-1.299-2.964-1.219-6.412 0.215-9.289 1.055-2.117 2.871-3.967 4.892-4.983 1.675-0.842 3.138-1.187 5.033-1.187 2.174 0 4.326 0.627 6.037 1.76 0.427 0.282 0.447 0.288 0.579 0.169 0.075-0.068 0.137-0.16 0.137-0.204s-0.224-0.221-0.498-0.393c-0.761-0.478-0.837-0.548-0.837-0.761 0-0.43-0.070-0.418 2.739-0.441 1.41-0.011 2.603 0.004 2.651 0.035 0.068 0.042 0.088 0.642 0.088 2.609 0 1.405-0.019 2.604-0.043 2.665-0.031 0.080-0.137 0.111-0.375 0.111h-0.333l-0.357-0.584c-0.458-0.75-0.539-0.82-0.727-0.632l-0.142 0.142 0.396 0.608c0.728 1.117 1.229 2.384 1.524 3.855 0.208 1.035 0.224 2.977 0.034 3.951-0.493 2.524-1.515 4.411-3.332 6.155-2.036 1.953-4.796 3.035-7.65 3-0.495-0.006-1.011-0.023-1.146-0.036zM13.085 23.41c2.564-0.557 4.705-2.485 5.528-4.978 0.091-0.277 0.123-0.474 0.083-0.514-0.073-0.073-14.511-0.049-14.584 0.024-0.069 0.069 0.217 0.855 0.556 1.527 1.131 2.249 3.359 3.791 5.904 4.085 0.679 0.079 1.777 0.015 2.514-0.145zM5.901 16.703c0-0.020-0.142-0.32-0.316-0.666s-0.316-0.693-0.316-0.771c0-0.126-0.045-0.142-0.417-0.142h-0.417l0.378 0.65c0.552 0.949 0.567 0.966 0.845 0.966 0.133 0 0.243-0.016 0.243-0.037zM6.182 16.671c0-0.037-0.047-0.050-0.105-0.028s-0.105 0.053-0.105 0.068c0 0.015 0.047 0.028 0.105 0.028s0.105-0.031 0.105-0.068zM8.185 16.256c-0.057-0.413 0.068-0.886 0.275-1.040 0.139-0.104 0.136-0.107-0.083-0.067-0.529 0.095-0.845 0.522-0.718 0.967 0.069 0.24 0.306 0.478 0.478 0.481 0.073 0.001 0.084-0.077 0.047-0.341zM6.668 15.835c0.196-0.343 0.356-0.643 0.356-0.667s-0.067-0.044-0.148-0.044c-0.105 0-0.136 0.032-0.106 0.109 0.023 0.060-0.085 0.36-0.239 0.667s-0.267 0.558-0.25 0.558c0.017 0 0.191-0.28 0.387-0.623zM9.724 16.037c0.085 0 0.251-0.196 0.249-0.293-0.004-0.231-0.524-0.622-0.82-0.617-0.12 0.002-0.12 0.006 0.003 0.077 0.171 0.1 0.326 0.483 0.329 0.814 0.002 0.236 0.013 0.252 0.095 0.143 0.051-0.068 0.116-0.123 0.143-0.123zM11.222 15.558c0.087-0.012 0.158 0.009 0.158 0.048s-0.071 0.081-0.158 0.095c-0.144 0.022-0.141 0.028 0.035 0.065 0.187 0.040 0.193 0.032 0.193-0.265 0-0.303-0.002-0.306-0.246-0.306h-0.246l0.008 0.404c0.006 0.304 0.019 0.352 0.053 0.193 0.031-0.147 0.092-0.217 0.202-0.233zM18.777 13.947c0.054-0.090-0.264-0.939-0.572-1.528-0.939-1.796-2.685-3.232-4.604-3.788-3.853-1.117-7.793 0.822-9.301 4.577-0.13 0.324-0.219 0.635-0.198 0.691 0.033 0.086 1.066 0.101 7.341 0.101 4.016 0 7.317-0.024 7.334-0.053z"></path>
<path fill="#d1d1d1" d="M10.466 26.916c-1.873-0.164-3.684-0.815-5.289-1.902-0.881-0.597-2.28-2.001-2.852-2.863-1.778-2.679-2.321-5.767-1.551-8.827 0.509-2.024 1.563-3.796 3.161-5.315 1.511-1.437 3.315-2.369 5.408-2.793 1.041-0.211 2.965-0.231 3.985-0.041 1.452 0.27 2.765 0.762 3.898 1.458l0.697 0.428 0.17-0.16c0.093-0.088 0.17-0.198 0.17-0.246s-0.3-0.279-0.667-0.514c-0.532-0.341-0.667-0.461-0.667-0.593 0-0.385 0.038-0.39 2.706-0.398 1.351-0.004 2.496-0.005 2.544-0.003 0.125 0.005 0.128 5.132 0.004 5.257-0.093 0.093-0.398 0.111-0.521 0.031-0.043-0.028-0.214-0.273-0.379-0.543-0.546-0.895-0.574-0.917-0.826-0.649l-0.149 0.158 0.321 0.491c0.407 0.624 1.011 1.877 1.241 2.576 0.412 1.252 0.502 1.874 0.502 3.464 0 1.286-0.021 1.568-0.163 2.201-0.507 2.264-1.44 3.977-3.028 5.562-1.98 1.975-4.196 2.998-6.987 3.225-0.497 0.040-0.939 0.069-0.982 0.064s-0.378-0.036-0.745-0.068zM12.715 24.18c0.711-0.088 1.894-0.47 2.527-0.814s0.702-0.439 0.105-0.144c-1.008 0.499-2.256 0.858-3.336 0.957-0.455 0.042-0.513 0.057-0.244 0.065 0.194 0.005 0.621-0.023 0.948-0.064zM12.819 23.55c2.232-0.398 4.395-1.989 5.39-3.966 0.238-0.472 0.637-1.652 0.579-1.71-0.046-0.046-14.714-0.034-14.76 0.012-0.048 0.048 0.279 0.946 0.568 1.557 1.413 2.989 4.853 4.707 8.223 4.106zM9.613 16.674c0.704-0.359 0.584-1.307-0.195-1.54-0.631-0.189-1.458-0.021-1.717 0.349-0.067 0.095-0.115 0.302-0.115 0.494 0 0.274 0.036 0.366 0.212 0.542 0.369 0.369 1.247 0.444 1.814 0.155zM8.605 16.724c-0.214-0.122-0.305-0.273-0.354-0.584-0.060-0.385 0.123-0.836 0.382-0.943 0.524-0.217 0.953 0.498 0.685 1.141-0.154 0.367-0.458 0.532-0.713 0.386zM6.661 16.002c0.377-0.689 0.467-0.808 0.613-0.808 0.094 0 0.171-0.025 0.171-0.056s-0.221-0.064-0.492-0.073c-0.304-0.010-0.492 0.011-0.492 0.056 0 0.040 0.046 0.073 0.101 0.073 0.206 0 0.181 0.155-0.109 0.685-0.299 0.546-0.398 0.667-0.494 0.608-0.092-0.057-0.622-1.061-0.622-1.179 0-0.077 0.064-0.116 0.193-0.119 0.171-0.004 0.177-0.012 0.053-0.065-0.077-0.033-0.393-0.060-0.702-0.060s-0.625 0.027-0.702 0.060c-0.126 0.054-0.121 0.061 0.047 0.065 0.162 0.004 0.238 0.094 0.554 0.655 0.595 1.056 0.502 0.966 1 0.966h0.439l0.442-0.808zM11.636 16.681c-0.163-0.18-0.167-1.285-0.006-1.447 0.1-0.1 0.051-0.11-0.544-0.102-0.384 0.005-0.567 0.027-0.444 0.053l0.211 0.045 0.020 0.656c0.021 0.692-0.021 0.822-0.289 0.874-0.084 0.016 0.144 0.034 0.508 0.039 0.636 0.009 0.656 0.005 0.544-0.119zM12.854 16.476l-0-0.334-0.139 0.227c-0.076 0.125-0.242 0.273-0.368 0.328l-0.23 0.1 0.737 0.012-0-0.334zM14.827 16.697c0.051-0.062 0.273-0.441 0.493-0.843l0.399-0.73h-0.208c-0.166 0-0.2 0.025-0.17 0.123 0.058 0.186-0.542 1.247-0.705 1.247-0.194 0-0.766-1.076-0.662-1.247 0.069-0.113 0.030-0.122-0.505-0.117-0.319 0.003-0.541 0.021-0.494 0.040s0.219 0.277 0.381 0.574c0.598 1.092 0.574 1.066 1 1.066 0.26 0 0.406-0.035 0.47-0.113zM17.086 16.702c-0.338-0.237-0.368-1.056-0.051-1.398l0.167-0.18h-0.176c-0.232 0-0.555 0.171-0.691 0.366-0.129 0.184-0.144 0.632-0.028 0.85 0.106 0.199 0.254 0.312 0.515 0.392 0.334 0.103 0.437 0.091 0.264-0.031zM18.191 16.634c0.112-0.058 0.252-0.175 0.313-0.261 0.143-0.204 0.14-0.682-0.005-0.89-0.128-0.182-0.499-0.361-0.744-0.357-0.143 0.002-0.147 0.010-0.037 0.074 0.33 0.192 0.43 0.83 0.201 1.279-0.152 0.298-0.081 0.339 0.273 0.156zM3.249 13.368c0.822-2.576 2.896-4.693 5.431-5.542 1.679-0.562 3.738-0.576 5.362-0.035 2.267 0.755 4.021 2.312 5.16 4.58 0.198 0.395 0.357 0.633 0.403 0.604 0.042-0.026 0.099-0.010 0.127 0.036s0.057-0.095 0.064-0.312c0.011-0.335 0.042-0.421 0.204-0.56 0.183-0.157 0.19-0.19 0.173-0.746-0.010-0.32-0.051-0.602-0.092-0.627-0.044-0.027-0.054-0.126-0.025-0.243 0.035-0.139 0.026-0.182-0.030-0.148-0.051 0.032-0.065 0.010-0.038-0.060 0.028-0.073 0.001-0.109-0.079-0.109-0.093 0-0.113-0.043-0.085-0.188 0.020-0.104-0.015-0.295-0.076-0.424-0.105-0.22-0.104-0.252 0.016-0.474 0.1-0.185 0.117-0.314 0.079-0.576-0.071-0.487-0.295-1.138-0.496-1.442-0.096-0.145-0.174-0.325-0.174-0.401s-0.032-0.157-0.070-0.181c-0.039-0.024-0.070 0.015-0.070 0.086 0 0.074-0.204 0.302-0.474 0.529-0.442 0.373-0.728 0.49-0.822 0.338-0.082-0.133-1.432-0.989-2.040-1.295-1.189-0.597-2.095-0.848-3.471-0.962-2.775-0.23-5.524 0.659-7.742 2.506-1.208 1.006-2.302 2.509-2.806 3.855-0.195 0.522-0.139 0.622 0.102 0.18 0.22-0.405 0.363-0.408 0.299-0.006-0.048 0.3 0.056 0.67 0.247 0.882 0.161 0.178 0.162 0.23 0.013 0.395-0.11 0.122-0.109 0.142 0.022 0.322 0.077 0.105 0.16 0.247 0.186 0.315s0.078 0.123 0.118 0.123c0.040 0 0.072 0.097 0.072 0.215s0.038 0.284 0.084 0.369c0.081 0.148 0.086 0.144 0.148-0.092 0.035-0.135 0.16-0.546 0.277-0.913zM18.837 13.825c-0.041-0.393-0.494-1.375-0.949-2.059-0.528-0.793-1.485-1.752-2.228-2.233-2.225-1.439-5.046-1.665-7.409-0.594-1.254 0.569-2.603 1.747-3.318 2.899-0.346 0.557-0.788 1.528-0.896 1.967l-0.047 0.192 1.465 0.020c0.806 0.011 4.151 0.020 7.435 0.019l5.97-0.001-0.022-0.211zM18.997 6.248c-0.023-0.205-0.231-0.535-0.339-0.536-0.237-0.003 0.192-0.139 0.585-0.186l0.459-0.054-0.386-0.048c-0.212-0.027-0.766-0.051-1.229-0.054l-0.843-0.006 0.351 0.195c0.193 0.107 0.572 0.344 0.842 0.525s0.511 0.331 0.535 0.331c0.024 0 0.035-0.075 0.025-0.167z"></path>
<path fill="#afafaf" d="M10.326 26.88c-4.089-0.509-7.417-2.963-9.002-6.639-0.31-0.718-0.64-1.922-0.755-2.752-0.171-1.233-0.056-2.992 0.272-4.166 0.173-0.621 0.428-1.309 0.469-1.268 0.017 0.017-0.033 0.264-0.11 0.549-0.441 1.622-0.487 4.15-0.088 4.868 0.358 0.645 1.782 2.218 2.008 2.218 0.059 0 0.142 0.063 0.184 0.141 0.082 0.154 0.745 0.702 0.85 0.702 0.036 0-0.074-0.277-0.244-0.615-0.695-1.387-0.992-2.749-0.937-4.302 0.058-1.637 0.481-2.995 1.344-4.321 1.254-1.925 3.296-3.29 5.586-3.732 0.791-0.153 2.23-0.151 3.042 0.004 3.151 0.601 5.617 2.861 6.546 5.998 0.675 2.279 0.511 3.788-0.638 5.863-0.533 0.963-0.855 1.387-1.601 2.11-1.918 1.857-4.746 2.747-7.4 2.329-1.206-0.19-2.284-0.619-3.479-1.385-0.301-0.193-0.562-0.336-0.581-0.317-0.058 0.058 1.006 0.862 1.562 1.18 1.148 0.657 2.294 0.971 3.749 1.030 2.493 0.1 4.626-0.744 6.423-2.543 0.386-0.387 0.888-0.979 1.115-1.317s0.457-0.614 0.511-0.614c0.11 0 1.77-1.639 2.297-2.268 0.315-0.377 0.346-0.448 0.411-0.948 0.038-0.298 0.052-0.905 0.031-1.349-0.095-1.958-0.655-3.707-1.704-5.323-0.208-0.32-0.378-0.621-0.378-0.669s0.204-0.289 0.453-0.536l0.453-0.449 0.206 0.22c0.113 0.121 0.36 0.446 0.548 0.722l0.343 0.501 0.019-2.167c0.010-1.192 0.003-2.206-0.015-2.255-0.021-0.055-0.186-0.092-0.44-0.099-0.364-0.009-0.345-0.015 0.191-0.062 0.42-0.037 0.612-0.029 0.649 0.028 0.083 0.128 0.065 4.879-0.019 5.036-0.050 0.093-0.147 0.136-0.307 0.136-0.218 0-0.261-0.043-0.629-0.623-0.513-0.809-0.561-0.848-0.784-0.639-0.095 0.090-0.174 0.2-0.174 0.246s0.144 0.301 0.321 0.567c0.441 0.666 0.967 1.761 1.22 2.538 0.378 1.164 0.521 2.092 0.521 3.389 0.001 1.249-0.101 2.012-0.416 3.113-1.107 3.883-4.426 6.913-8.44 7.706-0.734 0.145-2.569 0.239-3.179 0.163zM12.662 23.658c0.721-0.109 1.534-0.358 2.123-0.65 1.368-0.679 2.668-1.911 3.36-3.184 0.248-0.456 0.679-1.652 0.679-1.885 0-0.115-0.105-0.129-1.212-0.157-0.666-0.017-3.993-0.014-7.392 0.007l-6.181 0.038 0.010 0.221c0.015 0.342 0.599 1.707 0.976 2.282 0.433 0.661 1.464 1.686 2.138 2.128 1.647 1.079 3.548 1.493 5.499 1.199zM6.267 16.757c0.059-0.068 0.273-0.433 0.475-0.811 0.311-0.582 0.399-0.694 0.571-0.729 0.388-0.078 0.199-0.163-0.359-0.163-0.328 0-0.562 0.029-0.562 0.070 0 0.039 0.046 0.070 0.101 0.070 0.204 0 0.187 0.16-0.071 0.654-0.391 0.748-0.41 0.748-0.802-0.002-0.24-0.459-0.241-0.652-0.003-0.652 0.078 0 0.143-0.032 0.143-0.070 0-0.043-0.339-0.070-0.878-0.070-0.828 0-1.128 0.073-0.674 0.164 0.167 0.033 0.258 0.14 0.504 0.588 0.61 1.113 0.573 1.074 1.038 1.074 0.302 0 0.438-0.032 0.517-0.123zM9.603 16.732c0.528-0.256 0.688-0.896 0.33-1.322-0.487-0.579-1.904-0.531-2.275 0.078-0.288 0.472-0.123 1.030 0.372 1.255 0.417 0.189 1.17 0.184 1.573-0.011zM8.564 16.649c-0.402-0.308-0.346-1.286 0.081-1.421 0.403-0.128 0.698 0.2 0.698 0.776 0 0.515-0.456 0.893-0.779 0.646zM18.215 16.705c0.691-0.328 0.605-1.339-0.136-1.584-0.319-0.105-1.001-0.105-1.32 0-0.356 0.117-0.604 0.439-0.604 0.784 0 0.68 0.44 0.993 1.337 0.948 0.252-0.013 0.578-0.079 0.723-0.148zM17.063 16.558c-0.141-0.15-0.17-0.252-0.168-0.594 0.003-0.487 0.2-0.77 0.537-0.77 0.379 0 0.601 0.388 0.529 0.924-0.076 0.565-0.558 0.801-0.898 0.44zM12.924 16.458c0-0.375-0.102-0.462-0.209-0.179-0.103 0.271-0.363 0.401-0.75 0.377l-0.34-0.022-0.040-1.372 0.213-0.043c0.451-0.090 0.18-0.166-0.594-0.166-0.453 0-0.808 0.029-0.808 0.066s0.087 0.076 0.193 0.088l0.193 0.022v0.701c0 0.646-0.011 0.703-0.14 0.727-0.077 0.014-0.171 0.054-0.207 0.089-0.040 0.038 0.449 0.063 1.212 0.063h1.278v-0.351zM15.284 16.032c0.346-0.649 0.447-0.784 0.608-0.816 0.369-0.075 0.19-0.162-0.334-0.162-0.304 0-0.527 0.030-0.527 0.070 0 0.039 0.046 0.070 0.101 0.070s0.121 0.032 0.145 0.071c0.059 0.095-0.531 1.193-0.64 1.193-0.112 0-0.677-1.048-0.63-1.17 0.020-0.052 0.1-0.094 0.179-0.094s0.143-0.032 0.143-0.070c0-0.043-0.328-0.070-0.843-0.070-0.792 0-1.088 0.074-0.647 0.162 0.162 0.032 0.261 0.159 0.573 0.729 0.207 0.379 0.408 0.729 0.445 0.777 0.042 0.055 0.245 0.088 0.54 0.088h0.472l0.415-0.777zM18.931 14.067c0.055-0.089-0.208-0.977-0.404-1.366-0.518-1.026-1.538-2.245-2.435-2.91-0.99-0.733-2.177-1.241-3.407-1.455-0.866-0.151-2.304-0.097-3.132 0.118-2.325 0.604-4.273 2.26-5.207 4.427-0.148 0.344-0.29 0.751-0.314 0.906l-0.045 0.281 2.098 0.020c6.214 0.058 12.804 0.048 12.846-0.021zM17.52 7.159c-0.229-0.17-0.701-0.49-1.049-0.71-0.989-0.626-0.174-0.305 0.937 0.37l0.516 0.313 0.204-0.196c0.112-0.108 0.204-0.234 0.204-0.281s-0.3-0.279-0.667-0.517c-0.467-0.302-0.667-0.473-0.667-0.569 0-0.075 0.035-0.137 0.078-0.137 0.221 0 1.82 1.035 1.817 1.176-0.001 0.029-0.024 0.087-0.053 0.128-0.050 0.073-0.846 0.732-0.884 0.732-0.011 0-0.207-0.139-0.436-0.31z"></path>
<path fill="#909090" d="M9.693 26.754c-2.351-0.417-4.349-1.441-5.97-3.061-2.098-2.097-3.176-4.676-3.153-7.54 0.012-1.453 0.096-1.615 0.151-0.291 0.029 0.698 0.102 1.39 0.194 1.826 0.922 4.398 4.212 7.706 8.537 8.581 0.957 0.194 3.114 0.176 4.082-0.034 1.963-0.425 3.713-1.352 5.151-2.727 1.635-1.564 2.654-3.421 3.137-5.714 0.193-0.915 0.175-3.088-0.033-4.046-0.302-1.39-0.861-2.748-1.551-3.771-0.198-0.294-0.361-0.577-0.361-0.628 0-0.132 0.719-0.826 0.856-0.826 0.066 0 0.331 0.318 0.63 0.755l0.516 0.755 0.035-2.388c0.030-2.060 0.050-2.388 0.14-2.388 0.159 0 0.195 4.959 0.037 5.091-0.216 0.179-0.427 0.022-0.834-0.621-0.526-0.83-0.531-0.833-0.815-0.539l-0.233 0.24 0.438 0.676c0.713 1.1 1.174 2.233 1.495 3.668 0.131 0.587 0.153 0.898 0.152 2.16-0.001 1.256-0.024 1.577-0.155 2.166-0.665 2.993-2.261 5.345-4.733 6.977-1.151 0.76-2.349 1.265-3.744 1.579-0.818 0.184-3.163 0.244-3.968 0.101zM5.304 21.189c-0.494-0.347-0.713-0.565-1.016-1.009-2.053-3.004-1.579-7.428 1.086-10.137 1.553-1.578 3.431-2.436 5.592-2.555 2.887-0.158 5.633 1.188 7.24 3.549 0.338 0.496 0.615 1.022 0.618 1.173 0.001 0.040-0.075 0.079-0.17 0.087-0.141 0.012-0.271-0.114-0.727-0.705-1.56-2.017-3.444-3.115-5.764-3.358-2.787-0.292-5.621 1.057-7.195 3.425-0.585 0.88-1.143 2.257-0.981 2.419 0.101 0.101 15.189 0.186 15.189 0.085 0-0.037-0.037-0.104-0.082-0.149-0.062-0.062-0.054-0.093 0.035-0.127 0.294-0.113 0.496 0.216 0.606 0.989 0.159 1.116 0.053 2.3-0.269 3.011-0.212 0.469-0.912 1.553-0.966 1.498-0.018-0.018 0.068-0.37 0.19-0.784 0.165-0.558 0.201-0.773 0.143-0.831-0.086-0.086-12.701-0.091-14.146-0.006l-0.759 0.045 0.046 0.219c0.025 0.12 0.185 0.576 0.354 1.013 0.303 0.78 0.72 1.512 1.2 2.103 0.292 0.36 0.241 0.37-0.224 0.043zM9.366 16.874c0.943-0.262 1.093-1.365 0.238-1.753-0.434-0.197-1.189-0.187-1.595 0.020-0.593 0.303-0.714 0.92-0.277 1.417 0.309 0.352 1.014 0.488 1.635 0.316zM8.499 16.529c-0.108-0.108-0.14-0.234-0.14-0.546 0-0.54 0.132-0.733 0.481-0.704 0.218 0.018 0.276 0.061 0.386 0.285 0.322 0.66-0.259 1.432-0.726 0.965zM18.261 16.74c0.485-0.248 0.655-0.898 0.34-1.299-0.5-0.635-1.976-0.606-2.374 0.048-0.242 0.397-0.133 0.962 0.233 1.202 0.436 0.286 1.292 0.309 1.801 0.049zM17.073 16.484c-0.386-0.491 0.020-1.468 0.504-1.211 0.255 0.136 0.329 0.285 0.331 0.666 0.003 0.446-0.187 0.729-0.489 0.729-0.133 0-0.25-0.062-0.346-0.185zM6.719 16.072c0.367-0.651 0.466-0.778 0.633-0.808 0.113-0.020 0.198-0.081 0.198-0.14 0-0.143-1.166-0.155-1.213-0.012-0.017 0.051 0.035 0.11 0.117 0.131s0.148 0.070 0.148 0.108c0 0.115-0.505 1.038-0.567 1.038-0.061 0-0.53-0.806-0.569-0.977-0.013-0.057 0.052-0.118 0.153-0.144 0.097-0.024 0.176-0.091 0.176-0.147 0-0.084-0.161-0.102-0.913-0.102-0.762 0-0.913 0.017-0.913 0.105 0 0.061 0.087 0.12 0.207 0.141 0.17 0.029 0.257 0.124 0.481 0.527 0.151 0.27 0.352 0.627 0.447 0.793l0.173 0.301 1.006-0.041 0.435-0.773zM12.978 16.529c0.010-0.174-0.015-0.363-0.056-0.421-0.065-0.092-0.086-0.088-0.159 0.028-0.26 0.411-0.374 0.489-0.723 0.494l-0.344 0.005-0.040-1.36 0.196-0.022c0.117-0.013 0.196-0.065 0.196-0.128 0-0.086-0.145-0.109-0.802-0.125-0.58-0.014-0.817 0.004-0.856 0.067-0.078 0.126-0.009 0.199 0.186 0.199 0.213 0 0.257 0.155 0.229 0.802-0.021 0.489-0.048 0.535-0.359 0.632-0.070 0.022-0.107 0.072-0.083 0.112 0.029 0.046 0.501 0.065 1.321 0.053l1.277-0.019 0.018-0.316zM15.316 16.076c0.368-0.68 0.464-0.807 0.62-0.825 0.107-0.012 0.184-0.065 0.184-0.127 0-0.143-1.095-0.156-1.143-0.013-0.017 0.051 0.036 0.11 0.117 0.131s0.147 0.075 0.146 0.118c-0.002 0.117-0.514 0.977-0.598 1.005-0.071 0.024-0.594-0.872-0.594-1.017 0-0.041 0.071-0.085 0.158-0.097s0.158-0.070 0.158-0.128c0-0.088-0.144-0.105-0.878-0.105s-0.878 0.017-0.878 0.105c0 0.062 0.077 0.114 0.188 0.127 0.158 0.018 0.252 0.136 0.59 0.737 0.221 0.394 0.433 0.755 0.47 0.804 0.043 0.055 0.247 0.088 0.546 0.088h0.478l0.436-0.804zM17.897 7.291c-0.020-0.020 0.089-0.163 0.244-0.317 0.273-0.273 0.277-0.284 0.154-0.42-0.069-0.077-0.372-0.297-0.673-0.49-0.604-0.387-0.687-0.472-0.523-0.535 0.119-0.046 1.154 0.57 1.524 0.907 0.212 0.193 0.214 0.199 0.085 0.342-0.123 0.136-0.684 0.55-0.746 0.55-0.016 0-0.045-0.017-0.065-0.037z"></path>
<path fill="#6f6f6f" d="M9.974 26.747c-2.492-0.342-4.736-1.492-6.455-3.309-1.626-1.718-2.655-3.918-2.837-6.067-0.038-0.452-0.006-0.356 0.272 0.808 0.848 3.554 3.464 6.491 6.881 7.728 1.252 0.453 1.93 0.559 3.579 0.559 1.652 0 2.12-0.069 3.406-0.502 1.541-0.519 2.87-1.352 4.073-2.553 0.901-0.9 1.499-1.733 2.042-2.845 0.464-0.95 0.701-1.634 0.922-2.664 0.221-1.032 0.219-3.060-0.005-4.113-0.294-1.38-0.89-2.844-1.584-3.891-0.177-0.267-0.321-0.52-0.321-0.564s0.17-0.248 0.377-0.453l0.377-0.373 0.18 0.195c0.099 0.107 0.348 0.456 0.553 0.776s0.404 0.572 0.443 0.561c0.044-0.013 0.077-0.867 0.089-2.33 0.011-1.398 0.046-2.337 0.088-2.379 0.046-0.045 0.069 0.802 0.069 2.473v2.542h-0.207c-0.227 0-0.233-0.006-0.784-0.86-0.193-0.299-0.391-0.544-0.439-0.544s-0.192 0.108-0.32 0.24l-0.233 0.24 0.387 0.585c1.018 1.54 1.58 3.175 1.741 5.068 0.355 4.179-1.818 8.262-5.517 10.366-1.997 1.136-4.498 1.617-6.778 1.304zM4.166 19.482c-0.688-0.635-1.076-1.918-1.078-3.564-0.004-2.372 0.787-4.315 2.425-5.96 1.243-1.248 2.835-2.069 4.555-2.348 1.228-0.199 3.046-0.029 4.163 0.39 1.532 0.574 3.205 1.854 3.716 2.841 0.098 0.19 0.096 0.209-0.035 0.279-0.123 0.066-0.228-0.007-0.841-0.587-1.585-1.5-3.247-2.243-5.235-2.34-1.072-0.052-1.892 0.056-2.86 0.376-1.64 0.543-3.026 1.595-4.006 3.037-0.628 0.925-1.219 2.379-1.041 2.558 0.058 0.058 2.186 0.087 7.84 0.106l7.76 0.027 0.085 0.15c0.059 0.103 0.086 0.567 0.086 1.484l0.001 1.334-0.277 0.551c-0.152 0.303-0.384 0.698-0.516 0.878-0.261 0.357-0.259 0.37-0.080-0.467 0.082-0.384 0.081-0.452-0.008-0.508-0.115-0.073-12.464-0.079-13.939-0.006-0.842 0.041-0.915 0.056-0.933 0.185-0.011 0.077 0.108 0.517 0.263 0.978s0.274 0.846 0.263 0.856c-0.010 0.010-0.15-0.102-0.31-0.25zM9.581 16.843c0.677-0.284 0.849-1.144 0.318-1.591-0.647-0.544-2.11-0.364-2.382 0.292-0.136 0.329-0.054 0.816 0.179 1.059 0.378 0.395 1.251 0.506 1.886 0.24zM8.57 16.543c-0.325-0.263-0.23-1.127 0.136-1.243 0.431-0.137 0.731 0.564 0.463 1.083-0.157 0.304-0.355 0.357-0.599 0.16zM6.376 16.757c0.073-0.106 0.281-0.466 0.461-0.8 0.298-0.553 0.349-0.611 0.578-0.654 0.185-0.035 0.245-0.078 0.228-0.166-0.019-0.099-0.126-0.122-0.648-0.139-0.713-0.023-0.884 0.053-0.603 0.268l0.176 0.135-0.242 0.459c-0.133 0.252-0.265 0.459-0.292 0.459-0.046 0-0.554-0.857-0.554-0.934 0-0.019 0.079-0.053 0.176-0.078 0.113-0.028 0.176-0.093 0.176-0.183 0-0.132-0.050-0.139-0.944-0.139-0.58 0-0.962 0.028-0.989 0.073-0.069 0.111 0.094 0.267 0.304 0.291 0.153 0.018 0.245 0.127 0.516 0.619 0.181 0.328 0.378 0.684 0.437 0.79 0.102 0.182 0.137 0.193 0.598 0.193 0.455 0 0.5-0.014 0.624-0.193zM12.98 16.476c0.019-0.391 0.006-0.439-0.112-0.439-0.073 0-0.168 0.077-0.211 0.172-0.117 0.257-0.385 0.402-0.694 0.377l-0.269-0.022-0.021-0.551c-0.022-0.581 0.040-0.748 0.275-0.748 0.085 0 0.132-0.050 0.132-0.14 0-0.133-0.047-0.14-0.878-0.14s-0.878 0.008-0.878 0.14c0 0.077 0.032 0.144 0.070 0.149s0.102 0.017 0.14 0.026c0.039 0.010 0.103 0.021 0.143 0.026 0.046 0.006 0.065 0.236 0.053 0.623-0.018 0.55-0.035 0.616-0.161 0.639-0.195 0.035-0.272 0.123-0.222 0.254 0.037 0.097 0.207 0.109 1.326 0.093l1.283-0.019 0.021-0.439zM14.862 16.896c0.042-0.028 0.259-0.383 0.483-0.789 0.434-0.788 0.478-0.84 0.722-0.842 0.111-0.001 0.158-0.043 0.158-0.142 0-0.13-0.047-0.14-0.628-0.14-0.683 0-0.836 0.077-0.562 0.284l0.165 0.125-0.2 0.375c-0.205 0.385-0.369 0.601-0.413 0.546-0.094-0.115-0.47-0.836-0.47-0.902 0-0.045 0.082-0.112 0.181-0.15s0.168-0.108 0.152-0.156c-0.021-0.064-0.282-0.087-0.97-0.087-0.826 0-0.944 0.014-0.964 0.118-0.017 0.088 0.036 0.124 0.208 0.14 0.208 0.020 0.262 0.077 0.549 0.589 0.66 1.176 0.569 1.084 1.070 1.083 0.243-0.001 0.476-0.024 0.518-0.053zM18.315 16.764c0.496-0.367 0.632-0.872 0.35-1.296-0.238-0.357-0.617-0.514-1.246-0.516-0.858-0.002-1.342 0.348-1.352 0.975-0.006 0.389 0.188 0.706 0.542 0.887 0.389 0.198 1.411 0.168 1.706-0.050zM17.138 16.529c-0.142-0.142-0.173-0.281-0.148-0.667 0.042-0.666 0.652-0.814 0.852-0.207 0.217 0.657-0.29 1.287-0.704 0.874zM18.316 6.842c0.11-0.192 0.11-0.214 0.001-0.334-0.064-0.071-0.371-0.286-0.682-0.479-0.541-0.337-0.669-0.458-0.479-0.455 0.176 0.002 1.598 0.945 1.598 1.059 0 0.059-0.439 0.415-0.513 0.415-0.023 0 0.010-0.092 0.075-0.205z"></path>
<path fill="#494949" d="M9.764 26.679c-2.403-0.4-4.291-1.371-6.008-3.088-0.893-0.894-1.504-1.724-2.015-2.739-0.274-0.544-0.641-1.512-0.592-1.561 0.013-0.013 0.161 0.294 0.329 0.683 1.423 3.294 4.228 5.615 7.733 6.4 0.636 0.142 0.916 0.163 2.204 0.163 1.64 0 2.108-0.068 3.381-0.492 2.631-0.875 4.911-2.866 6.183-5.397 0.404-0.805 0.821-2.065 0.979-2.961 0.168-0.953 0.168-2.7 0-3.652-0.142-0.806-0.553-2.099-0.921-2.895-0.293-0.634-0.228-0.609 0.131 0.050 0.303 0.556 0.693 1.704 0.899 2.641 0.206 0.94 0.225 3.028 0.036 4.031-0.413 2.199-1.439 4.139-3.028 5.729-1.556 1.557-3.332 2.532-5.434 2.985-0.897 0.193-2.997 0.248-3.877 0.102zM3.916 18.867c-0.579-0.795-0.764-1.514-0.764-2.971 0-2.329 0.725-4.19 2.252-5.78 0.965-1.005 2.039-1.691 3.318-2.118 2.455-0.82 5.139-0.489 7.165 0.885 0.499 0.339 1.251 1.029 1.251 1.15 0 0.229-0.248 0.15-0.862-0.275-1.636-1.131-3.091-1.608-4.897-1.606-1.453 0.002-2.73 0.35-3.933 1.073-1.629 0.979-2.883 2.539-3.484 4.336-0.101 0.3-0.227 0.571-0.281 0.602s-0.098 0.086-0.098 0.123c0 0.042 2.981 0.067 7.97 0.067h7.97l0.054 0.193c0.030 0.106 0.054 0.778 0.053 1.492l-0.001 1.299-0.296 0.512c-0.545 0.942-0.59 0.965-0.409 0.209l0.096-0.402-0.257-0.055c-0.309-0.066-12.007-0.052-13.608 0.017-0.622 0.026-1.173 0.074-1.225 0.106-0.076 0.047-0.056 0.187 0.105 0.732 0.109 0.371 0.182 0.691 0.162 0.711s-0.147-0.115-0.282-0.3zM6.309 16.897c0.079-0.068 0.316-0.439 0.528-0.825 0.287-0.525 0.424-0.708 0.542-0.726 0.129-0.019 0.148-0 0.104 0.105-0.029 0.071-0.068 0.271-0.086 0.445-0.068 0.656 0.523 1.125 1.417 1.122 0.876-0.003 1.375-0.353 1.423-0.999 0.036-0.485-0.143-0.779-0.597-0.987s-1.201-0.212-1.605-0.010c-0.278 0.139-0.293 0.14-0.369 0.018-0.067-0.108-0.177-0.127-0.709-0.127-0.528 0-0.639 0.020-0.692 0.123-0.079 0.154-0.031 0.298 0.099 0.298 0.055 0 0.099 0.033 0.099 0.073 0 0.098-0.334 0.751-0.406 0.796-0.032 0.020-0.161-0.152-0.287-0.381l-0.229-0.417 0.185-0.070c0.137-0.052 0.179-0.112 0.163-0.228-0.022-0.155-0.040-0.158-1.006-0.158h-0.983l-0.022 0.188c-0.019 0.167 0.005 0.191 0.209 0.211 0.214 0.021 0.261 0.077 0.639 0.76 0.225 0.406 0.461 0.777 0.524 0.825 0.179 0.136 0.888 0.112 1.060-0.035zM8.527 16.422c-0.083-0.127-0.106-0.275-0.082-0.524 0.039-0.402 0.146-0.563 0.375-0.563 0.232 0 0.382 0.255 0.382 0.648 0 0.549-0.422 0.825-0.674 0.44zM12.98 16.912c0.065-0.022 0.085-0.157 0.070-0.47-0.019-0.392-0.038-0.442-0.175-0.462-0.114-0.016-0.184 0.038-0.273 0.211-0.154 0.301-0.214 0.336-0.576 0.337l-0.301 0.001 0.020-0.576c0.019-0.55 0.029-0.578 0.196-0.618 0.128-0.030 0.176-0.088 0.176-0.214v-0.172h-1.826v0.176c0 0.139 0.040 0.18 0.193 0.198l0.193 0.022v0.577c0 0.576-0 0.577-0.211 0.657-0.224 0.085-0.278 0.258-0.108 0.353 0.101 0.057 2.447 0.041 2.623-0.018zM18.001 16.946c0.793-0.22 1.129-1.163 0.594-1.666-0.431-0.405-1.348-0.52-1.959-0.246-0.319 0.143-0.328 0.143-0.362 0.013-0.031-0.119-0.105-0.134-0.665-0.134-0.449 0-0.653 0.028-0.71 0.096-0.097 0.117-0.030 0.325 0.105 0.325 0.054 0 0.098 0.032 0.098 0.071 0 0.079-0.419 0.842-0.462 0.842-0.049 0-0.45-0.735-0.451-0.825-0-0.048 0.059-0.088 0.132-0.088 0.164 0 0.249-0.195 0.141-0.325-0.12-0.145-1.837-0.138-1.958 0.008-0.131 0.158-0.035 0.305 0.217 0.33 0.207 0.021 0.26 0.084 0.656 0.795l0.431 0.773 1.142 0.041 0.432-0.81c0.377-0.708 0.455-0.81 0.611-0.81 0.146 0 0.168 0.023 0.119 0.123-0.033 0.068-0.060 0.302-0.060 0.521-0.001 0.328 0.030 0.432 0.175 0.589 0.374 0.406 1.111 0.563 1.775 0.378zM17.181 16.491c-0.277-0.277-0.183-1.048 0.138-1.129 0.235-0.059 0.371 0.007 0.452 0.221 0.237 0.622-0.202 1.297-0.59 0.908zM21.708 10.264c-0.043-0.050-0.269-0.384-0.501-0.741s-0.459-0.65-0.505-0.65c-0.045 0-0.218 0.133-0.383 0.296-0.182 0.179-0.301 0.254-0.301 0.191 0-0.058 0.153-0.256 0.34-0.44l0.34-0.335 0.208 0.237c0.114 0.13 0.362 0.48 0.55 0.777 0.231 0.365 0.386 0.54 0.476 0.54 0.076 0 0.121 0.038 0.105 0.088-0.041 0.124-0.236 0.148-0.329 0.039zM18.454 6.632c-0.020-0.077-0.186-0.244-0.368-0.372-0.482-0.337-0.593-0.435-0.329-0.29 0.367 0.202 0.893 0.619 0.874 0.693-0.033 0.127-0.14 0.108-0.177-0.031z"></path>
<path fill="#2c2c2c" d="M3.76 18.442c-0.252-0.342-0.446-0.825-0.364-0.907 0.025-0.025 0.121-0.012 0.212 0.029 0.132 0.060 0.194 0.19 0.308 0.643 0.078 0.312 0.131 0.568 0.116 0.568s-0.137-0.15-0.272-0.334zM18.968 18.179c-0.001-0.039 0.018-0.141 0.041-0.228 0.046-0.17 0.166-0.218 0.166-0.066 0 0.107-0.206 0.399-0.208 0.294zM14.153 17.438c-5.065-0.058-4.829-0.051-4.776-0.137 0.024-0.039 0.109-0.070 0.189-0.070s0.25-0.111 0.377-0.246c0.221-0.234 0.233-0.238 0.254-0.088 0.014 0.102 0.079 0.166 0.181 0.18 0.087 0.012 0.141 0.052 0.119 0.088s0.058 0.065 0.179 0.065c0.128 0 0.201-0.029 0.176-0.070-0.028-0.046 0.325-0.070 1.008-0.070 0.579 0 1.102-0.019 1.163-0.043 0.080-0.031 0.111-0.137 0.111-0.381 0-0.59 0.060-0.612 0.356-0.131 0.147 0.24 0.309 0.462 0.36 0.494 0.104 0.066 0.788 0.079 1.010 0.020 0.091-0.024 0.288-0.286 0.527-0.7 0.377-0.653 0.617-0.912 0.532-0.572-0.065 0.258 0.090 0.69 0.334 0.934 0.253 0.253 0.622 0.378 1.117 0.379 1.264 0.001 1.887-0.793 1.41-1.799-0.132-0.278-0.1-0.352 0.103-0.243 0.198 0.106 0.333 0.095 0.465-0.038 0.063-0.063 0.136-0.092 0.163-0.064 0.067 0.067 0.063 2.131-0.005 2.373l-0.054 0.193-0.613-0.014c-0.337-0.008-2.446-0.035-4.687-0.060zM15.776 15.915c-0.023-0.023-0.040 0.018-0.037 0.092 0.003 0.082 0.020 0.098 0.042 0.042 0.020-0.051 0.018-0.111-0.006-0.135zM17.223 16.444c-0.046-0.046-0.084-0.247-0.084-0.446 0-0.603 0.393-0.789 0.565-0.268 0.168 0.509-0.176 1.019-0.481 0.713zM12.063 16.39c0.125-0.030 0.275-0.094 0.334-0.142 0.14-0.116 0.136-0.041-0.005 0.1-0.061 0.061-0.211 0.107-0.334 0.103l-0.223-0.007 0.228-0.054zM12.626 15.85c0.048-0.019 0.127-0.019 0.176 0s0.009 0.035-0.088 0.035c-0.097 0-0.136-0.016-0.088-0.035zM14.68 15.83c0-0.036 0.031-0.085 0.069-0.109 0.040-0.025 0.052 0.004 0.028 0.066-0.047 0.122-0.097 0.144-0.097 0.043zM18.122 14.86c0-0.029 0.068-0.096 0.151-0.147 0.133-0.083 0.145-0.081 0.105 0.024-0.025 0.065-0.045 0.131-0.045 0.147s-0.047 0.029-0.105 0.029c-0.058 0-0.105-0.024-0.105-0.053zM19.124 14.52c0.023-0.023 0.084-0.026 0.135-0.006 0.056 0.022 0.039 0.039-0.042 0.042-0.074 0.003-0.116-0.014-0.092-0.037zM3.402 13.901c0.165-0.88 0.765-2.191 1.369-2.993 0.434-0.576 1.391-1.499 1.943-1.874 2.213-1.503 5.042-1.851 7.562-0.931 0.794 0.29 1.949 0.995 1.949 1.191 0 0.169-0.293 0.093-1.069-0.279-1.496-0.716-2.66-0.965-4.163-0.892-1.209 0.059-2.212 0.336-3.266 0.902-1.765 0.948-3.233 2.694-3.827 4.554-0.141 0.442-0.153 0.458-0.379 0.527-0.16 0.049-0.165 0.040-0.119-0.205zM20.599 8.76c0.023-0.023 0.084-0.026 0.135-0.006 0.056 0.022 0.039 0.039-0.042 0.042-0.074 0.003-0.116-0.014-0.092-0.037z"></path>
</svg>
