<?xml version="1.0" encoding="UTF-8" standalone="no"?>
<!-- Created with Inkscape (http://www.inkscape.org/) from those two logos:
http://openclipart.org/media/files/Anonymous/6993
http://openclipart.org/media/files/mcol/4598
-->

<svg
   xmlns:dc="http://purl.org/dc/elements/1.1/"
   xmlns:cc="http://creativecommons.org/ns#"
   xmlns:rdf="http://www.w3.org/1999/02/22-rdf-syntax-ns#"
   xmlns:svg="http://www.w3.org/2000/svg"
   xmlns="http://www.w3.org/2000/svg"
   xmlns:xlink="http://www.w3.org/1999/xlink"
   xmlns:sodipodi="http://sodipodi.sourceforge.net/DTD/sodipodi-0.dtd"
   xmlns:inkscape="http://www.inkscape.org/namespaces/inkscape"
   height="128"
   id="svg1"
   inkscape:version="0.48.5 r10040"
   sodipodi:docname="gameclock.svg"
   sodipodi:version="0.32"
   width="128"
   version="1.1">
  <metadata
     id="metadata3">
    <rdf:RDF>
      <cc:Work
         rdf:about="">
        <dc:title>Analogue Clock</dc:title>
        <dc:description />
        <dc:subject>
          <rdf:Bag>
            <rdf:li />
            <rdf:li>clock</rdf:li>
            <rdf:li>signs_and_symbols</rdf:li>
          </rdf:Bag>
        </dc:subject>
        <dc:publisher>
          <cc:Agent
             rdf:about="http://www.openclipart.org">
            <dc:title>Dennis Craven</dc:title>
          </cc:Agent>
        </dc:publisher>
        <dc:creator>
          <cc:Agent>
            <dc:title>Dennis Craven</dc:title>
          </cc:Agent>
        </dc:creator>
        <dc:rights>
          <cc:Agent>
            <dc:title>Dennis Craven</dc:title>
          </cc:Agent>
        </dc:rights>
        <dc:date />
        <dc:format>image/svg+xml</dc:format>
        <dc:type
           rdf:resource="http://purl.org/dc/dcmitype/StillImage" />
        <cc:license
           rdf:resource="http://web.resource.org/cc/PublicDomain" />
        <dc:language>en</dc:language>
      </cc:Work>
      <cc:License
         rdf:about="http://web.resource.org/cc/PublicDomain">
        <cc:permits
           rdf:resource="http://web.resource.org/cc/Reproduction" />
        <cc:permits
           rdf:resource="http://web.resource.org/cc/Distribution" />
        <cc:permits
           rdf:resource="http://web.resource.org/cc/DerivativeWorks" />
      </cc:License>
    </rdf:RDF>
  </metadata>
  <defs
     id="defs3">
    <linearGradient
       id="linearGradient584">
      <stop
         id="stop585"
         offset="0.00000000"
         style="stop-color:#ffffff;stop-opacity:1;" />
      <stop
         id="stop586"
         offset="1.00000000"
         style="stop-color:#ffffff;stop-opacity:0;" />
    </linearGradient>
    <linearGradient
       id="linearGradient578">
      <stop
         id="stop579"
         offset="0.0000000"
         style="stop-color:#faf8fd;stop-opacity:1.0000000;" />
      <stop
         id="stop580"
         offset="1.0000000"
         style="stop-color:#e7e7ec;stop-opacity:1.0000000;" />
    </linearGradient>
    <linearGradient
       id="linearGradient581"
       x1="0.11363637"
       x2="1.7348485"
       xlink:href="#linearGradient584"
       y1="0.296875"
       y2="0.3046875" />
    <linearGradient
       id="linearGradient583"
       x1="0"
       x2="0.99264705"
       xlink:href="#linearGradient584"
       y1="0"
       y2="0.9765625" />
    <linearGradient
       id="linearGradient654"
       x1="8.6040411"
       x2="82.883224"
       xlink:href="#linearGradient584"
       y1="27.300219"
       y2="27.92713"
       gradientTransform="scale(0.98641893,1.0137681)"
       gradientUnits="userSpaceOnUse" />
    <linearGradient
       id="linearGradient655"
       xlink:href="#linearGradient584" />
    <linearGradient
       id="linearGradient713"
       xlink:href="#linearGradient584" />
  </defs>
  <sodipodi:namedview
     bordercolor="#666666"
     borderopacity="1.0"
     id="base"
     inkscape:cx="86.381717"
     inkscape:cy="28.291474"
     inkscape:pageopacity="0.0"
     inkscape:pageshadow="2"
     inkscape:window-height="1036"
     inkscape:window-width="1680"
     inkscape:window-x="0"
     inkscape:window-y="14"
     inkscape:zoom="2.8284271"
     pagecolor="#ffffff"
     inkscape:current-layer="layer1"
     showgrid="false"
     inkscape:window-maximized="0" />
  <g
     transform="matrix(0.558489,0,0,0.558489,-5.036801,-84.0075)"
     id="layer1"
     inkscape:label="Livello 1">
    <g
       id="g3020">
      <path
         transform="matrix(5.3371363,0,0,5.1445221,-39.150569,109.09608)"
         style="fill:#040000;fill-opacity:0.38709674999999999;fill-rule:evenodd;stroke:#000000;stroke-width:0;stroke-dasharray:none"
         sodipodi:type="arc"
         sodipodi:ry="19.581497"
         sodipodi:rx="19.033215"
         sodipodi:cy="31.489342"
         sodipodi:cx="32.505283"
         id="path868"
         d="m 51.538498,31.489342 a 19.033215,19.581497 0 1 1 -38.066429,0 19.033215,19.581497 0 1 1 38.066429,0 z" />
      <path
         transform="matrix(5.3371363,0,0,5.1445221,-54.743162,103.24838)"
         style="fill:url(#linearGradient654);fill-opacity:1;fill-rule:evenodd;stroke:#000000;stroke-width:1.48410451000000010;stroke-dasharray:none"
         sodipodi:type="arc"
         sodipodi:ry="19.581497"
         sodipodi:rx="19.033215"
         sodipodi:cy="31.489342"
         sodipodi:cx="32.505283"
         id="path867"
         d="m 51.538498,31.489342 a 19.033215,19.581497 0 1 1 -38.066429,0 19.033215,19.581497 0 1 1 38.066429,0 z" />
      <rect
         y="-19.781691"
         x="60.357422"
         width="4.9501233"
         transform="matrix(0.01709713,1.7904639,-1.7904639,0.01709713,9.0186217,150.41926)"
         style="fill:#0a0608;fill-opacity:0.75000000000000000;fill-rule:evenodd;stroke:#000000;stroke-width:0.79068928999999999"
         ry="0.9796952"
         id="rect867"
         height="9.882143" />
      <rect
         y="-19.781691"
         x="67.899826"
         width="4.9501233"
         transform="matrix(0.01709713,1.7904639,-1.7904639,0.01709713,9.0186217,150.41926)"
         style="fill:#0a0608;fill-opacity:0.75000000000000000;fill-rule:evenodd;stroke:#000000;stroke-width:0.79068928999999999"
         ry="0.9796952"
         id="rect869"
         height="9.882143" />
      <rect
         transform="matrix(1.7905456,0,0,1.7905456,9.0186217,150.41926)"
         y="18.66324"
         x="53.112911"
         width="4.9501271"
         style="fill:#0a0608;fill-opacity:0.75000000000000000;fill-rule:evenodd;stroke:#000000;stroke-width:0.79068994999999997"
         ry="0.97969598"
         id="rect870"
         height="9.8821516" />
      <rect
         transform="matrix(1.7905456,0,0,1.7905456,9.0186217,150.41926)"
         y="18.66324"
         x="60.655338"
         width="4.9501271"
         style="fill:#0a0608;fill-opacity:0.75000000000000000;fill-rule:evenodd;stroke:#000000;stroke-width:0.79068994999999997"
         ry="0.97969598"
         id="rect871"
         height="9.8821516" />
      <rect
         transform="matrix(1.7905456,0,0,1.7905456,9.0186217,150.41926)"
         y="102.31561"
         x="54.827099"
         width="4.9501271"
         style="fill:#0a0608;fill-opacity:0.75000000000000000;fill-rule:evenodd;stroke:#000000;stroke-width:0.79068994999999997"
         ry="0.97969598"
         id="rect872"
         height="9.8821516" />
      <rect
         transform="matrix(1.7905456,0,0,1.7905456,9.0186217,150.41926)"
         y="102.31561"
         x="62.369526"
         width="4.9501271"
         style="fill:#0a0608;fill-opacity:0.75000000000000000;fill-rule:evenodd;stroke:#000000;stroke-width:0.79068994999999997"
         ry="0.97969598"
         id="rect873"
         height="9.8821516" />
      <rect
         y="-111.31837"
         x="60.888641"
         width="4.9501233"
         transform="matrix(0.01709713,1.7904639,-1.7904639,0.01709713,9.0186217,150.41926)"
         style="fill:#0a0608;fill-opacity:0.75000000000000000;fill-rule:evenodd;stroke:#000000;stroke-width:0.79068928999999999"
         ry="0.9796952"
         id="rect874"
         height="9.882143" />
      <rect
         y="-111.31837"
         x="68.431061"
         width="4.9501233"
         transform="matrix(0.01709713,1.7904639,-1.7904639,0.01709713,9.0186217,150.41926)"
         style="fill:#0a0608;fill-opacity:0.75000000000000000;fill-rule:evenodd;stroke:#000000;stroke-width:0.79068928999999999"
         ry="0.9796952"
         id="rect875"
         height="9.882143" />
      <path
         transform="matrix(1.7905456,0,0,1.7905456,9.0186217,150.41926)"
         inkscape:connector-curvature="0"
         style="fill:#060000;fill-opacity:0.75000000000000000;fill-rule:evenodd;stroke:#000000;stroke-width:2.03785209999999983pt"
         sodipodi:nodetypes="ccccc"
         id="path878"
         d="M 94.267668,4.4888008 C 86.077213,13.127084 67.176696,41.119641 60.344837,52.460119 54.817606,62.844913 51.030191,69.038978 50.612346,79.534607 58.639372,74.296842 62.480954,69.885773 68.551835,58.581972 74.731381,47.719335 91.023238,16.013482 94.267668,4.4888008 z" />
      <path
         transform="matrix(1.7905456,0,0,1.7905456,9.0186217,150.41926)"
         inkscape:connector-curvature="0"
         style="fill:#060000;fill-opacity:0.75000000000000000;fill-rule:evenodd;stroke:#000000;stroke-width:1.51768283999999998pt"
         sodipodi:nodetypes="ccccc"
         id="path879"
         d="m 103.55487,55.038013 c -9.092676,0.282979 -34.185698,5.090103 -43.879327,7.45772 -8.459667,2.539189 -13.786233,3.803893 -19.37891,9.00152 7.264637,1.38674 11.712732,1.068725 20.952231,-1.667419 9.076648,-2.453403 34.571096,-10.50281 42.306006,-14.791821 z" />
      <g
         id="g2685"
         transform="matrix(1.3775286,0,0,1.3775286,118.84366,273.50989)">
        <path
           inkscape:connector-curvature="0"
           id="path2683"
           d="M 8.7907834,45.793467 C 12.927623,41.139523 25.338141,8.0448085 25.338141,8.0448085 l -0.517105,-10.3420981 12.410517,4.1368392 6.205259,-5.688154 4.653944,9.8249933 18.615777,6.7223641 12.927623,22.235511 3.102629,26.37235 -1.034209,6.722364 -49.124967,0 10.342098,-17.581567 3.619735,-14.996042 -8.790784,3.619734 -12.410517,13.961833 -3.619735,-1.03421 -1.03421,-3.10263 -5.171049,2.06842 -6.7223636,-5.171049 z"
           style="fill:#ffffff;fill-opacity:1;fill-rule:evenodd;stroke:#000000;stroke-width:1px;stroke-linecap:butt;stroke-linejoin:miter;stroke-opacity:1" />
        <path
           inkscape:connector-curvature="0"
           style="font-size:12px;font-style:normal;font-weight:normal;fill:#000000;fill-opacity:1;stroke:none;font-family:Bitstream Vera Sans"
           id="path1693"
           d="m 16.431939,39.786168 c 1.20493,0 1.8074,0.81763 1.8074,2.45289 0,2.15168 -1.07583,3.22751 -3.22751,3.22751 -0.86065,0 -1.29099,-0.68853 -1.29099,-2.06561 0,-2.40986 0.90369,-3.61479 2.7111,-3.61479 m 9.2952,-15.7502 c -1.20493,0 -1.80741,-0.73155 -1.80741,-2.19469 0,-2.3238 1.37707,-4.21725 4.13121,-5.6804 1.20492,-0.60246 2.32379,-0.90369 3.35659,-0.90369 1.80739,0 2.79715,0.60246 2.9693,1.80741 0,1.97953 -1.54921,3.87299 -4.6476,5.68037 -1.54921,0.86069 -2.88322,1.291 -4.00209,1.291 m 1.0328,-24.27077048 c 0.34426,1.20493 0.51639,2.02257998 0.51639,2.45288998 0,0.25821 -0.12909,0.94673 -0.3873,2.0656 1.37706,0 3.27055,-0.68853 5.68039,-2.0656 -2.32379,-1.20492 -4.26029,-2.02256998 -5.80948,-2.45288998 M 11.397039,44.175568 c 0.51641,2.06558 1.89346,3.57177 4.1312,4.51849 0.86067,0.34427 1.6783,0.51639 2.45289,0.51639 l 0.25821,0 c 0.17213,0 1.11886,-0.51639 2.8402,-1.54919 0.51639,-0.34427 0.94673,-0.51639 1.291,-0.51639 l 0.51639,0 c 0.43033,0 0.64552,0.25819 0.64552,0.77458 l -0.77461,2.45291 c 0,0.7746 0.60246,1.16189 1.80739,1.16189 0.17214,0 1.24798,-1.50616 3.22751,-4.51849 3.78692,-5.85252 9.16608,-10.28496 16.13749,-13.29729 0.68852,-4.6476 2.40986,-8.73575 5.16398,-12.26449 0.68854,-0.94674 1.37707,-1.42009 2.0656,-1.42009 0.77461,0 1.16191,0.55943 1.16191,1.67828 0,0.25822 -0.7746,2.7111 -2.3238,7.3587 -0.60247,1.97953 -0.90371,3.44267 -0.90371,4.38941 0,0.25819 0.08607,0.81763 0.25822,1.6783 0,6.11071 -2.58202,12.52268 -7.746,19.23588 -3.44268,4.6476 -5.33613,8.34846 -5.68041,11.10258 l 42.602961,0 c 0.34428,-3.95906 0.51641,-6.88532 0.51641,-8.77878 0,-17.72973 -5.551282,-31.88769 -16.653891,-42.47387 -3.3566,-3.09841 -6.0677,-4.6476005 -8.13328,-4.6476005 l -7.746,0 c -0.68854,-0.34427 -1.37708,-2.06561 -2.0656,-5.16399 -0.51639,-2.49594 -1.16189,-4.04513998 -1.9365,-4.64759998 -1.03281,3.09838998 -4.21726,5.50825998 -9.55339,7.22958998 -2.84019,0.86066 -4.81973,1.72134 -5.9386,2.582 -0.94673,3.0123305 -3.7439,9.1230705 -8.3915,18.3321905 -4.56152,9.12305 -6.9714,14.54525 -7.22959,16.26659 m 72.295951,26.07817 -54.092861,0 c 0.34426,-5.93859 2.58199,-11.61898 6.71319,-17.04118 3.18447,-4.30334 5.07794,-6.92837 5.68041,-7.8751 1.20492,-1.89346 1.9365,-4.17422 2.19469,-6.84229 -5.59433,2.40985 -9.9407,5.85253 -13.03908,10.328 l -1.80741,2.9693 c -1.29099,2.06558 -2.10864,3.22749 -2.4529,3.48569 -0.51639,0.43033 -1.07582,0.6455 -1.6783,0.6455 -2.66805,0 -4.47546,-0.9037 -5.42218,-2.7111 -0.17215,-0.2582 -0.25821,-0.55943 -0.25821,-0.9037 -0.86067,0.43033 -1.72133,0.6455 -2.58201,0.6455 -4.13119,0 -7.4017203,-2.582 -9.8115803,-7.74601 0.68853,-3.78692 4.3033303,-12.52268 10.8443803,-26.20726 0.68854,-1.291 1.20495,-2.3238 1.54921,-3.0984 2.582,-5.76648 3.873,-10.1128205 3.873,-13.0391005 0,-0.43032 -0.25819,-2.84018998 -0.77461,-7.22959 l 1.03281,0 c 4.64759,0 9.08003,1.46314 13.29728,4.38940002 2.3238,-4.04514002 4.26029,-6.06770032 5.8095,-6.06770032 2.75413,1.4631403 4.64759,3.5287403 5.68039,6.19681032 l 1.42011,4.26028998 c 0.86065,-0.17214 1.59223,-0.2582 2.19469,-0.2582 6.88534,0 13.6846,4.38939 20.397789,13.1681905 7.832062,10.24192 11.748082,24.27077 11.748082,42.08657 0,4.04512 -0.17212,7.65991 -0.51639,10.84438" />
      </g>
    </g>
  </g>
</svg>
