<?xml version="1.0" encoding="UTF-8" standalone="no"?>
<svg
   xmlns:dc="http://purl.org/dc/elements/1.1/"
   xmlns:cc="http://creativecommons.org/ns#"
   xmlns:rdf="http://www.w3.org/1999/02/22-rdf-syntax-ns#"
   xmlns:svg="http://www.w3.org/2000/svg"
   xmlns="http://www.w3.org/2000/svg"
   viewBox="0 0 72.379997 69.080002"
   height="69.080002"
   width="72.379997"
   xml:space="preserve"
   version="1.1"
   id="svg2"><metadata
     id="metadata8"><rdf:RDF><cc:Work
         rdf:about=""><dc:format>image/svg+xml</dc:format><dc:type
           rdf:resource="http://purl.org/dc/dcmitype/StillImage" /></cc:Work></rdf:RDF></metadata><defs
     id="defs6" /><g
     transform="matrix(1.25,0,0,-1.25,0,69.08)"
     id="g10"><g
       transform="translate(28.952,24.925)"
       id="g12"><g
         id="g14"><g
           id="g16"><g
             id="g18"><g
               id="g20"><path
                 id="path22"
                 style="fill:#fff200;fill-opacity:1;fill-rule:nonzero;stroke:#8f8b48;stroke-width:3.98510003;stroke-linecap:butt;stroke-linejoin:miter;stroke-miterlimit:10;stroke-dasharray:none;stroke-opacity:1"
                 d="m -0.30824,27.39792 -5.747,-17.69016 c -0.17022,-0.52404 -0.17022,-0.52404 0,0 l 5.747,17.69016 c 0.17022,0.52405 0.17022,0.52405 0,0 L -6.05524,9.70776 C -6.22546,9.18372 -6.80952,8.7589 -7.35976,8.7589 l -18.60362,8.2e-4 c -0.55023,0 -0.63428,-0.26295 -0.18776,-0.58736 l 15.04563,-10.93065 c 0.44653,-0.3244 0.67047,-1.01221 0.50019,-1.53625 l -5.74813,-17.68973 c -0.17029,-0.52405 0.05366,-0.68585 0.50018,-0.3614 l 15.04477,10.93135 c 0.44652,0.32446 1.17048,0.32446 1.617,0 l 15.04477,-10.93135 c 0.44652,-0.32445 0.67047,-0.16265 0.50018,0.3614 l -5.74813,17.68973 c -0.17028,0.52404 0.05366,1.21185 0.50019,1.53625 L 26.15114,8.17236 c 0.44652,0.32441 0.36247,0.58736 -0.18776,0.58736 L 7.35976,8.7589 c -0.55024,0 -1.1343,0.42482 -1.30452,0.94886 l -5.747,17.69016 c -0.17022,0.52405 -0.44626,0.52405 -0.61648,0 l -5.747,-17.69016 c -0.17022,-0.52404 -0.17022,-0.52404 0,0 l 5.747,17.69016 c 0.17022,0.52405 0.17022,0.52405 0,0 z" /></g></g><g
             id="g24"><path
               id="path26"
               style="fill:#ffffff;fill-opacity:1;fill-rule:nonzero;stroke:none"
               d="m 5.31673,4.58618 c 0,1.09601 -0.88848,1.98448 -1.98449,1.98448 -1.09599,0 -1.98448,-0.88847 -1.98448,-1.98448 0,-1.09599 0.88849,-1.98448 1.98448,-1.98448 1.09601,0 1.98449,0.88849 1.98449,1.98448 z" /></g></g></g></g></g></svg>