/* XPM */
static char *gameclock[] = {
/* columns rows colors chars-per-pixel */
"32 32 45 1 ",
"  c #0CCF0AED0AED",
". c #11D40ECE0ECE",
"X c #144212821282",
"o c #1E831D2C1D2C",
"O c #200A1D661D66",
"+ c #25BF24C724C7",
"@ c #299226CC26CC",
"# c #2C732ADB2AEC",
"$ c #31372E952E95",
"% c #34B434323433",
"& c #3AA236993699",
"* c #3B8C3B413B41",
"= c #40223EE83F67",
"- c #441E43D143E1",
"; c #484A472A4792",
": c #48DA474C4858",
"> c #4CC64C594C82",
", c #50A24F544F54",
"< c #549953E75435",
"1 c #5BDC5BAC5BC2",
"2 c #60DA5EFD6012",
"3 c #634D62FF632C",
"4 c #6C006BBA6BD6",
"5 c #740073D673E5",
"6 c #783776EC77CB",
"7 c #7C537C077C2C",
"8 c #80A47F087FD2",
"9 c #8392833D8359",
"0 c #887787DF87E8",
"q c #8C258BBD8BDD",
"w c #9383931C9335",
"e c #9C4B9C089C1A",
"r c #A3D3A396A3AE",
"t c #ACE9ACC4ACC4",
"y c #B3CFB3CEB3CF",
"u c #BD18BCDEBCF8",
"i c #C51AC4E8C4EF",
"p c #C86FC7E8C7E8",
"a c #CD28CCCDCCD0",
"s c #D3D0D3C3D3C5",
"d c #DCB8DCB4DCB4",
"f c #E502E4FEE4FE",
"g c #EC11EC0FEC10",
"h c #F46BF468F468",
"j c #FF84FF84FF84",
/* pixels */
"jjjjjjjjjjjjjjjjjjjjjjjhjjjjjjjj",
"jjjjjjjjjjjgirq0qeufjja7hjjjjjjj",
"jjjjjjjjhi6--<241>-*3r-6hjjjjjjj",
"jjjjjjjs4&4ydfgffdpr3. wjjjjjjjj",
"jjjjjjr*3shhfuetrddd0o#%9gjjjjjj",
"jjjjjw%ejhgff0<41adt%+we%1fjjjjj",
"jjjje%yjhggfgw263sp,+:pst%1djjjj",
"jjjp%tjhgggffauiud6@+qssar#4fjjj",
"jjh<6jhggggffffdfr$#;issaa9+ehjj",
"jjr*djhgggfgffdfa>$@qssssai;;pjj",
"jh<qjhghgggffffd7@$;pssaaaaw+wfj",
"ja%sjhhggggffdfy$%#qdssaaaau%3pj",
"je,hjghgggffffs<$$>assssaaaa1-th",
"j65jjhghgggfffw#&#eautw515ua0#ed",
"h1qpruggggffgs:#@@2<=@$=608qq+ws",
"h1w7,7gggggfp4X. +##%4eri9-<9@qp",
"h1wr6eggggs8*X  O,69%14#5w34q+qp",
"j469<9ggggw=%X =tady*%-w%-#<6+wp",
"j91gdfghggdawX<iddde*tgh91*:1&ea",
"jy-ghhhgggggy6adddd30phjjjd1X<rf",
"jf*yjhggggffdfffddy;;<gjgdjf;:th",
"jj71hhhggggffddddd58udjj9yjjp#rj",
"jjs*yhgggggffffddu<djjjd:djjj46j",
"jjjw-dhggggffffdf98jjja3-gjjju-g",
"jjjh11fgggggfdipy>7gjy<>1hjjjf,i",
"jjjjd<3dggfffa15>%8ii1r1ejjjjj3r",
"jjjjjf1-yfgffp>3;63:-e8:fjjjjj4q",
"jjjjjjg9*4ydfdwrqpsy83+yjjjjjj58",
"jjjjjjjjp4&>7rtytr8<% >dffffff17",
"jjjjjjjjjjsr4-&$$$=30:=1111111*e",
"jjjjjjjjjjjjjhgdsdfghfdddsdssddg",
"jjjjjjjjjjjjjjjjjjjjjjjjjjjjjjjj"
};
