<?xml version="1.0" encoding="UTF-8" standalone="no"?>
<!-- Created with Inkscape (http://www.inkscape.org/) -->

<svg
   xmlns:dc="http://purl.org/dc/elements/1.1/"
   xmlns:cc="http://creativecommons.org/ns#"
   xmlns:rdf="http://www.w3.org/1999/02/22-rdf-syntax-ns#"
   xmlns:svg="http://www.w3.org/2000/svg"
   xmlns="http://www.w3.org/2000/svg"
   xmlns:sodipodi="http://sodipodi.sourceforge.net/DTD/sodipodi-0.dtd"
   xmlns:inkscape="http://www.inkscape.org/namespaces/inkscape"
   width="210mm"
   height="297mm"
   viewBox="0 0 744.09448819 1052.3622047"
   id="svg3341"
   version="1.1"
   inkscape:version="0.91 r13725"
   sodipodi:docname="bharatbenz.svg">
  <defs
     id="defs3343" />
  <sodipodi:namedview
     id="base"
     pagecolor="#ffffff"
     bordercolor="#666666"
     borderopacity="1.0"
     inkscape:pageopacity="0.0"
     inkscape:pageshadow="2"
     inkscape:zoom="0.98994949"
     inkscape:cx="342.28469"
     inkscape:cy="612.4794"
     inkscape:document-units="px"
     inkscape:current-layer="layer1"
     showgrid="false"
     inkscape:window-width="1920"
     inkscape:window-height="1056"
     inkscape:window-x="0"
     inkscape:window-y="24"
     inkscape:window-maximized="1" />
  <metadata
     id="metadata3346">
    <rdf:RDF>
      <cc:Work
         rdf:about="">
        <dc:format>image/svg+xml</dc:format>
        <dc:type
           rdf:resource="http://purl.org/dc/dcmitype/StillImage" />
        <dc:title></dc:title>
      </cc:Work>
    </rdf:RDF>
  </metadata>
  <g
     inkscape:label="Layer 1"
     inkscape:groupmode="layer"
     id="layer1">
    <path
       style="fill:#000000"
       d="m 67.577642,655.13231 c -2.236245,-1.38209 -3.052388,-8.14113 -2.506018,-20.75411 l 0.810242,-18.70452 16.240133,-0.86565 c 8.932074,-0.47611 20.942091,0.52656 26.688921,2.22814 9.65658,2.85927 10.32867,3.69447 8.86441,11.01577 -0.87141,4.35704 -0.52714,7.92191 0.76505,7.92191 5.28901,0 5.64081,9.31753 0.54423,14.41412 -4.20768,4.20765 -9.7173,5.45584 -26.696301,6.04788 -11.766924,0.4103 -22.886724,-0.17621 -24.710667,-1.30354 z M 109.0136,644.37752 c 2.15418,-3.48551 -5.21852,-5.69698 -18.992906,-5.69698 -8.825522,0 -11.958728,1.06373 -11.958728,4.06003 0,3.11145 3.440797,4.06003 14.727048,4.06003 8.099876,0 15.400946,-1.09039 16.224586,-2.42308 z m -4.54744,-17.20041 c -0.6225,-1.89095 -6.691649,-3.74725 -13.759001,-4.20833 -9.987501,-0.65158 -12.645193,0.0595 -12.645193,3.38336 0,3.25474 3.11774,4.20833 13.759001,4.20833 9.796773,0 13.438253,-0.97433 12.645193,-3.38336 z m 28.93542,26.98184 c -0.81646,-2.12767 -1.11728,-11.65727 -0.66848,-21.17689 0.7353,-15.59683 1.41821,-17.39391 6.90604,-18.1733 5.18078,-0.73579 6.09005,0.37555 6.09005,7.44339 l 0,8.30832 17.71213,0 c 12.59957,0 17.58531,-0.9766 17.27278,-3.38336 -1.14611,-8.82605 0.56061,-12.85677 5.44393,-12.85677 5.85886,0 7.66167,8.82191 5.97699,29.24785 -0.83594,10.13542 -1.71789,11.54617 -6.76672,10.82403 -4.48241,-0.64114 -5.68936,-2.52613 -5.29593,-8.27105 0.50622,-7.39156 0.39577,-7.44063 -16.74531,-7.44063 l -17.25489,0 -0.84816,8.77457 c -0.89941,9.30481 -9.05067,13.92691 -11.82243,6.70384 z m 65.27624,1.03388 c -2.31302,-3.74257 26.39309,-39.41586 32.42694,-40.29727 3.79053,-0.55368 9.83928,4.74537 20.97232,18.37301 8.60503,10.5331 14.89069,20.37238 13.96817,21.86504 -2.31555,3.74662 -12.65152,0.0766 -16.93868,-6.01462 -5.65541,-8.03508 -27.52754,-6.96834 -35.71016,1.74165 -6.54702,6.96896 -12.08209,8.59812 -14.71859,4.33219 z m 36.24803,-24.86419 c -1.66166,-3.10484 -3.26719,-5.23636 -3.56782,-4.7367 -0.30063,0.49968 -2.1781,3.04001 -4.17215,5.6452 -3.23955,4.23243 -2.85972,4.73671 3.56783,4.73671 6.45309,0 6.88246,-0.58097 4.17214,-5.64521 z m 38.79359,23.91536 c -1.4265,-1.86085 -2.48915,-11.30043 -2.36142,-20.97684 l 0.23223,-17.59348 23.00686,-0.6898 c 25.74846,-0.772 36.02614,2.64879 37.4311,12.45838 0.63759,4.45177 -0.70883,6.63802 -4.73671,7.69132 -7.55263,1.97507 -7.10035,4.14668 2.313,11.10631 l 7.94054,5.87067 13.74313,-18.89513 c 8.8781,-12.20632 15.60747,-18.89509 19.0097,-18.89509 5.33713,0 35.27346,34.13695 35.27346,40.22299 0,5.15976 -7.25409,3.46321 -15.74652,-3.68269 -11.24499,-9.46205 -28.53962,-9.42128 -37.35252,0.088 -8.7965,9.49158 -23.18312,8.62403 -37.23462,-2.24533 -11.31504,-8.75265 -30.8313,-12.0819 -29.34389,-5.00575 2.2305,10.61133 -6.39591,18.08428 -12.17434,10.54645 z m 101.53611,-23.54592 c -2.44666,-3.91772 -4.1944,-4.52913 -6.78968,-2.37526 -5.46656,4.53685 -4.12548,7.65103 3.29477,7.65103 6.05308,0 6.43223,-0.57236 3.49491,-5.27577 z m -57.70066,-2.76494 c 0.89307,-1.44505 -1.28264,-3.35681 -4.83496,-4.24839 -9.78741,-2.45648 -27.03449,-0.32729 -28.28925,3.49236 -1.35987,4.13953 30.58252,4.86857 33.12421,0.75603 z m 108.99328,27.66621 c -3.85736,-0.87592 -4.73671,-4.0537 -4.73671,-17.11727 l 0,-16.04168 -12.40565,0 c -8.72157,0 -12.07075,-1.00475 -11.27788,-3.38336 0.80971,-2.42909 9.39822,-3.38336 30.45025,-3.38336 21.05204,0 29.64055,0.95427 30.45025,3.38336 0.79287,2.37861 -2.5563,3.38336 -11.27788,3.38336 l -12.40564,0 0,16.08039 c 0,16.83912 -1.03158,18.84186 -8.79674,17.07856 z m 39.91124,-0.24009 c -0.7375,-0.73741 -1.34093,-10.39046 -1.34093,-21.45116 l 0,-20.11032 25.62131,0.93795 c 20.01174,0.7326 26.66694,1.9846 30.39733,5.71842 3.8822,3.88578 4.17658,5.74032 1.57297,9.90938 -2.56768,4.11152 -2.42295,5.42827 0.72958,6.63802 6.00117,2.30285 4.68512,11.91257 -2.131,15.56046 -5.87473,3.14406 -52.14285,5.50378 -54.84926,2.79736 z m 40.52822,-11.12868 c 1.89785,-3.07077 -15.72196,-6.81504 -21.5486,-4.57915 -2.24422,0.86118 -4.08041,2.82202 -4.08041,4.35744 0,3.5063 23.47351,3.70938 25.62901,0.22168 z m -1.26881,-16.3768 c 0,-1.48868 -5.48105,-2.70669 -12.1801,-2.70669 -6.69906,0 -12.1801,1.21801 -12.1801,2.70669 0,1.48868 5.48104,2.70669 12.1801,2.70669 6.69905,0 12.1801,-1.21801 12.1801,-2.70669 z m 32.08861,26.82459 c -1.4202,-0.87759 -2.21757,-10.01267 -1.77194,-20.30017 l 0.81025,-18.70452 27.74356,-0.77135 c 26.35078,-0.73265 27.74356,-0.49486 27.74356,4.7367 0,5.01504 -1.69587,5.50806 -18.94682,5.50806 -10.82675,0 -18.94682,1.16001 -18.94682,2.70669 0,1.54668 8.12007,2.70669 18.94682,2.70669 15.03717,0 18.94682,0.83777 18.94682,4.06003 0,4.49579 -0.53976,4.62395 -21.42685,5.08782 -9.07028,0.20138 -15.09055,1.61562 -15.78901,3.70892 -0.83761,2.5104 4.21832,3.38336 19.59529,3.38336 18.28612,0 20.61512,0.55726 19.79691,4.73671 -0.80789,4.12686 -4.35146,4.7367 -27.52345,4.7367 -14.62789,0 -27.75812,-0.71803 -29.17832,-1.59564 z m 66.42325,-0.87064 c -0.74233,-1.93449 -0.9825,-11.30605 -0.5337,-20.82567 0.77644,-16.46968 1.1636,-17.34863 7.99004,-18.13884 4.93305,-0.57106 10.11771,1.75409 16.59744,7.44339 5.18288,4.55062 10.78513,8.27386 12.44947,8.27386 1.66432,0 3.19887,1.52251 3.41013,3.38336 0.21112,1.86085 1.12474,-1.48868 2.03002,-7.44339 1.49885,-9.85952 2.37135,-10.82676 9.76597,-10.82676 l 8.12007,0 0.81025,18.70452 c 1.17254,27.06827 -6.29032,30.30049 -28.82781,12.48563 l -13.61686,-10.76353 -0.83632,10.04344 c -0.73567,8.83521 -1.74892,10.11187 -8.42264,10.61236 -4.18863,0.31411 -8.19085,-1.00637 -8.93606,-2.94837 z m 66.19016,1.20451 c -0.2233,-1.53905 -0.5278,-4.02574 -0.67667,-5.52598 -0.14887,-1.50023 7.03739,-7.58641 15.96946,-13.52484 l 16.24014,-10.79709 -14.40858,-0.008 c -12.26303,-0.008 -14.27275,-0.71394 -13.49639,-4.74531 0.79604,-4.13352 4.34955,-4.7367 27.90497,-4.7367 34.28814,0 36.07339,3.42041 10.21379,19.56911 l -18.33386,11.44905 18.4686,0.0544 c 16.11441,0.0474 18.35298,0.65818 17.56141,4.79108 -0.78565,4.10185 -4.80278,4.83967 -29.97206,5.50495 -18.51735,0.48945 -29.21213,-0.24712 -29.47081,-2.03002 z"
       id="path3567"
       inkscape:connector-curvature="0" />
  </g>
</svg>
