<?xml version="1.0" encoding="utf-8"?>
<!-- Generator: Adobe Illustrator 16.0.0, SVG Export Plug-In . SVG Version: 6.00 Build 0)  -->
<!DOCTYPE svg PUBLIC "-//W3C//DTD SVG 1.1//EN" "http://www.w3.org/Graphics/SVG/1.1/DTD/svg11.dtd">
<svg version="1.1" id="Layer_1" xmlns="http://www.w3.org/2000/svg" xmlns:xlink="http://www.w3.org/1999/xlink" x="0px" y="0px"
	 width="941.11px" height="500px" viewBox="0 0 941.11 500" enable-background="new 0 0 941.11 500" xml:space="preserve">
<g>
	<path fill="#231F1F" d="M117.629,345.357c-18.748,0-34.001,15.252-34.001,34s15.253,33.998,34.001,33.998
		c18.746,0,33.999-15.25,33.999-33.998S136.375,345.357,117.629,345.357z M117.628,396.58c-9.496,0-17.222-7.728-17.222-17.223
		s7.726-17.223,17.222-17.223s17.222,7.728,17.222,17.223S127.124,396.58,117.628,396.58z"/>
	<circle fill="#231F1F" cx="117.628" cy="379.357" r="15.249"/>
</g>
<g>
	<path fill="#231F1F" d="M350.635,345.355c-18.748,0-34.001,15.252-34.001,34s15.253,33.998,34.001,33.998
		c18.746,0,33.999-15.25,33.999-33.998S369.381,345.355,350.635,345.355z M350.634,396.578c-9.496,0-17.222-7.728-17.222-17.223
		s7.726-17.223,17.222-17.223s17.222,7.728,17.222,17.223S360.13,396.578,350.634,396.578z"/>
	<circle fill="#231F1F" cx="350.634" cy="379.355" r="15.249"/>
</g>
<g>
	<path fill="#231F1F" d="M431.521,345.355c-18.748,0-34.001,15.252-34.001,34s15.253,33.998,34.001,33.998
		c18.746,0,33.999-15.25,33.999-33.998S450.267,345.355,431.521,345.355z M431.52,396.578c-9.496,0-17.222-7.728-17.222-17.223
		s7.726-17.223,17.222-17.223s17.222,7.728,17.222,17.223S441.016,396.578,431.52,396.578z"/>
	<circle fill="#231F1F" cx="431.52" cy="379.355" r="15.249"/>
</g>
<g>
	<path fill="#231F1F" d="M633.985,345.356c-18.748,0-34.001,15.252-34.001,34s15.253,33.998,34.001,33.998
		c18.746,0,33.999-15.25,33.999-33.998S652.731,345.356,633.985,345.356z M633.984,396.579c-9.496,0-17.222-7.728-17.222-17.223
		s7.726-17.223,17.222-17.223s17.222,7.728,17.222,17.223S643.48,396.579,633.984,396.579z"/>
	<circle fill="#231F1F" cx="633.984" cy="379.356" r="15.249"/>
</g>
<g>
	<path fill="#231F1F" d="M713.111,345.357c-18.748,0-34.001,15.252-34.001,34s15.253,33.998,34.001,33.998
		c18.746,0,33.999-15.25,33.999-33.998S731.857,345.357,713.111,345.357z M713.11,396.58c-9.496,0-17.222-7.728-17.222-17.223
		s7.726-17.223,17.222-17.223s17.222,7.728,17.222,17.223S722.606,396.58,713.11,396.58z"/>
	<circle fill="#231F1F" cx="713.11" cy="379.357" r="15.249"/>
</g>
<g>
	<path fill="#231F1F" d="M792.236,345.356c-18.748,0-34.001,15.252-34.001,34s15.253,33.998,34.001,33.998
		c18.746,0,33.999-15.25,33.999-33.998S810.982,345.356,792.236,345.356z M792.235,396.579c-9.496,0-17.222-7.728-17.222-17.223
		s7.726-17.223,17.222-17.223s17.222,7.728,17.222,17.223S801.731,396.579,792.235,396.579z"/>
	<circle fill="#231F1F" cx="792.235" cy="379.356" r="15.249"/>
</g>
<path fill="#231F1F" d="M468.43,337.921H267.777c-5.008,0-9.104-4.096-9.104-9.102v-126.15c0-5.006-4.096-9.102-9.102-9.102h-62.953
	c-5.006,0-10.219,3.941-11.582,8.758l-16.328,57.656c-1.363,4.816-6.574,8.758-11.582,8.758H78.188c-5.006,0-9.102,4.094-9.102,9.1
	v55.637c0,5.008-2.695,9.104-5.988,9.104c-3.291,0-5.986,4.096-5.986,9.102v16.064c0,5.006,4.096,9.098,9.102,9.096l13.43-0.012
	c1.516-19.434,17.801-34.783,37.617-34.783c19.795,0,36.068,15.316,37.615,34.721l157.967-0.129
	c1.609-19.342,17.852-34.592,37.604-34.592c19.73,0,35.963,15.217,37.602,34.531l5.625-0.006
	c1.641-19.311,17.869-34.525,37.6-34.525c19.699,0,35.912,15.172,37.592,34.441c4.807-0.232,8.67-4.225,8.67-9.086v-20.379
	C477.533,342.017,473.438,337.921,468.43,337.921z M103.012,315.304h-9.979v-36.588h9.979V315.304z M118.979,315.304h-9.98v-36.588
	h9.98V315.304z M134.943,315.304h-9.979v-36.588h9.979V315.304z M185.25,208.478h40.164V268.8h-55.879L185.25,208.478z
	 M267.322,358.542h-92.467v-11.973h92.467V358.542z"/>
<rect x="267.322" y="170.284" fill="#231F1F" width="7.316" height="155.662"/>
<polygon fill="#231F1F" points="287.943,325.946 267.322,325.946 267.322,274.06 287.943,295.155 "/>
<polygon fill="#231F1F" points="490.66,339.722 361.311,339.722 361.311,284.909 490.66,310.081 "/>
<path fill="#231F1F" d="M874.904,339.171h-30.945c-5.006,0-9.102-2.447-9.102-5.436l0.252-50.344L587.83,326.485l0.109,8.482
	c-0.598,1.521-2.258,2.807-4.5,3.539v37.682h12.631v-0.002c0-20.73,16.865-37.594,37.594-37.594
	c20.73,0,37.596,16.863,37.596,37.594v0.002h3.719v-0.002c0-20.73,16.865-37.594,37.594-37.594c20.73,0,37.596,16.863,37.596,37.594
	v0.002h3.719v-0.002c0-20.73,16.865-37.594,37.594-37.594c20.73,0,37.596,16.863,37.596,37.594v0.002h45.828
	c5.006,0,9.102-4.096,9.102-9.104v-18.813C884.006,343.267,879.91,339.171,874.904,339.171z"/>
<g>
	<rect x="402.939" y="87.166" fill="#231F1F" width="5.707" height="13.955"/>
	<rect x="438.777" y="87.166" fill="#231F1F" width="5.709" height="13.955"/>
	<rect x="474.617" y="87.166" fill="#231F1F" width="5.707" height="13.955"/>
	<rect x="510.453" y="87.166" fill="#231F1F" width="5.707" height="13.955"/>
	<rect x="546.289" y="87.166" fill="#231F1F" width="5.707" height="13.955"/>
	<rect x="582.127" y="87.166" fill="#231F1F" width="5.709" height="13.955"/>
	<rect x="617.965" y="87.166" fill="#231F1F" width="5.709" height="13.955"/>
	<rect x="653.801" y="87.166" fill="#231F1F" width="5.709" height="13.955"/>
	<rect x="689.639" y="87.166" fill="#231F1F" width="5.707" height="13.955"/>
	<rect x="725.477" y="87.166" fill="#231F1F" width="5.707" height="13.955"/>
	<rect x="761.314" y="87.166" fill="#231F1F" width="5.709" height="13.955"/>
	<rect x="402.939" y="87.166" fill="#231F1F" width="364.084" height="3.805"/>
	<path fill="#231F1F" d="M796.739,110.23c-0.724-0.072-1.443-0.16-2.173-0.215c-3.672-8.072-11.789-13.695-21.232-13.695H756.24
		v-0.004H426.412v0.004H402.73c-9.136,0-17.02,5.277-20.847,12.931l205.952,27.979L796.739,110.23z"/>
</g>
<path fill="#231F1F" d="M796.739,112.028l-208.903,27l-205.952-27.979c-0.099,0.197-0.207,0.389-0.3,0.589
	c-45.24,1.822-81.371,39.061-81.371,84.756v4.24c0,46.854,38.918,75.541,84.84,84.836c52.684,10.666,201.564,37.109,201.564,37.109
	s141.076-23.77,201.564-37.109c45.75-10.086,84.836-37.982,84.836-84.836v-4.24C873.018,152.432,839.565,116.327,796.739,112.028z"
	/>
</svg>
