<?xml version="1.0" encoding="utf-8"?>
<!-- Generator: Adobe Illustrator 16.0.0, SVG Export Plug-In . SVG Version: 6.00 Build 0)  -->
<!DOCTYPE svg PUBLIC "-//W3C//DTD SVG 1.1//EN" "http://www.w3.org/Graphics/SVG/1.1/DTD/svg11.dtd">
<svg version="1.1" id="Layer_1" xmlns="http://www.w3.org/2000/svg" xmlns:xlink="http://www.w3.org/1999/xlink" x="0px" y="0px"
	 width="500px" height="500px" viewBox="0 0 500 500" enable-background="new 0 0 500 500" xml:space="preserve">
<g>
	<path fill="#231F1F" d="M112.231,279.002c-19.927,0-36.14,16.213-36.14,36.14s16.212,36.138,36.14,36.138
		c19.927,0,36.139-16.211,36.139-36.138S132.158,279.002,112.231,279.002z M112.23,333.446c-10.094,0-18.305-8.212-18.305-18.305
		s8.211-18.305,18.305-18.305s18.305,8.212,18.305,18.305S122.324,333.446,112.23,333.446z"/>
	<circle fill="#231F1F" cx="112.23" cy="315.142" r="16.208"/>
</g>
<g>
	<path fill="#231F1F" d="M311.491,279.003c-19.927,0-36.14,16.213-36.14,36.14s16.212,36.138,36.14,36.138
		c19.927,0,36.139-16.211,36.139-36.138S331.418,279.003,311.491,279.003z M311.491,333.447c-10.094,0-18.305-8.212-18.305-18.305
		s8.211-18.305,18.305-18.305s18.305,8.212,18.305,18.305S321.584,333.447,311.491,333.447z"/>
	<circle fill="#231F1F" cx="311.491" cy="315.143" r="16.208"/>
</g>
<g>
	<path fill="#231F1F" d="M395.085,279.003c-19.927,0-36.14,16.213-36.14,36.14s16.212,36.138,36.14,36.138
		c19.927,0,36.139-16.211,36.139-36.138S415.012,279.003,395.085,279.003z M395.085,333.447c-10.094,0-18.305-8.212-18.305-18.305
		s8.211-18.305,18.305-18.305s18.305,8.212,18.305,18.305S405.179,333.447,395.085,333.447z"/>
	<circle fill="#231F1F" cx="395.085" cy="315.143" r="16.208"/>
</g>
<path fill="#231F1F" d="M277.149,299.805H239.08v19.004h35.013c-0.12-1.223-0.181-2.445-0.181-3.668
	c0-5.498,1.221-10.633,3.299-15.336H277.149z"/>
<g>
	<path fill="#231F1F" d="M182.676,280.799c-2.077,0-3.729,1.711-3.729,3.729v24.869c0,2.078,1.711,3.729,3.729,3.729h50.23
		c2.078,0,3.727-1.711,3.727-3.729v-24.869c0-2.078-1.71-3.729-3.727-3.729H182.676z"/>
</g>
<polygon fill="#231F1F" points="239.018,278.783 239.018,273.1 178.948,273.1 178.948,278.783 "/>
<polygon fill="#231F1F" points="178.948,315.141 178.948,321.129 236.696,321.129 236.696,315.141 "/>
<path fill="#231F1F" d="M54.377,221.604c-0.305,1.162-1.528,1.834-2.688,1.529l-4.889-1.346c-1.161-0.305-1.833-1.527-1.528-2.688
	l4.094-14.543c0.306-1.162,1.529-1.834,2.689-1.529l4.888,1.344c1.162,0.307,1.833,1.529,1.528,2.689L54.377,221.604z"/>
<path fill="#231F20" d="M144.397,185.045h-25.498c-2.37,0-4.297,1.928-4.297,4.299v68.338c0,2.369,1.927,4.297,4.297,4.297h25.498
	c2.371,0,4.297-1.928,4.297-4.297v-68.338C148.694,186.973,146.768,185.045,144.397,185.045z"/>
<g>
	<path fill="#231F20" d="M39.96,307.152v8.551c0,2.836,2.32,5.156,5.157,5.156c2.838,0,6.322-2.008,7.742-4.461l1.137-1.961
		c1.42-2.457,4.903-4.465,7.74-4.465h11.847c0.126-0.953,0.295-1.891,0.488-2.82H39.96z"/>
	<path fill="#231F20" d="M149.411,170.719H71.479c-2.838,0-6.02,2.154-7.074,4.789l-22.527,56.324
		c-1.056,2.633-1.917,7.109-1.917,9.947v62.404h34.852c4.718-16.135,19.63-27.959,37.269-27.959c19.644,0,35.918,14.66,38.48,33.613
		c2.287-0.527,4.006-2.58,4.006-5.021V175.877C154.567,173.039,152.248,170.719,149.411,170.719z M106.005,231.012
		c0,2.838-2.319,5.158-5.156,5.158H50.522c-2.838,0-4.383-2.188-3.436-4.861l12.697-31.537c0.946-2.674,4.042-4.861,6.88-4.861
		h34.186c2.837,0,5.156,2.32,5.156,5.158V231.012z M150.415,257.682c0,3.316-2.699,6.016-6.018,6.016h-25.498
		c-3.315,0-6.016-2.699-6.016-6.016v-68.338c0-3.318,2.7-6.018,6.016-6.018h25.498c3.318,0,6.018,2.699,6.018,6.018V257.682z"/>
</g>
<rect x="158.293" y="274.811" fill="#231F1F" width="18.027" height="22.303"/>
<rect x="158.293" y="299.805" fill="#231F1F" width="18.027" height="19.004"/>
<path fill="#231F20" d="M386.652,274.748h-37.03H239.018v0.063v22.303h39.414c6.417-11.73,18.821-19.676,33.12-19.676
	c20.839,0,37.704,16.865,37.704,37.703c0,1.223-0.061,2.445-0.184,3.668h0.549h0.063h7.594c-0.117-1.207-0.182-2.43-0.182-3.668
	c0-20.828,16.946-37.775,37.775-37.775c20.83,0,37.776,16.947,37.776,37.775c0,1.238-0.063,2.461-0.181,3.668h2.092l24.313-22.029
	l0.152-22.031H386.652z"/>
<path fill="#231F20" d="M418.81,162.061c-1.929-4.242-6.194-7.197-11.157-7.197h-8.983v-0.002H225.335v0.002h-12.444
	c-4.927,0-9.164,2.914-11.113,7.105c-23.776,0.957-42.764,20.527-42.764,44.541v2.229c0,24.623,20.453,39.699,44.585,44.584
	c27.688,5.605,105.928,19.502,105.928,19.502s74.14-12.492,105.928-19.502c24.044-5.301,44.585-19.961,44.585-44.584v-2.229
	C460.04,183.016,441.863,163.779,418.81,162.061z"/>
<path fill="#231F20" d="M178.948,275.754h280.049v-30.137h-19.224c-7.062,4.533-15.449,7.768-24.318,9.723
	c-31.788,7.01-105.928,19.5-105.928,19.5s-78.24-13.895-105.928-19.5c-9.023-1.828-17.531-5.08-24.649-9.723L178.948,275.754z"/>
<rect x="213" y="150.053" fill="#231F1F" width="3" height="7.334"/>
<rect x="231.834" y="150.053" fill="#231F1F" width="3" height="7.334"/>
<rect x="250.667" y="150.053" fill="#231F1F" width="3" height="7.334"/>
<rect x="269.501" y="150.053" fill="#231F1F" width="3" height="7.334"/>
<rect x="288.334" y="150.053" fill="#231F1F" width="3" height="7.334"/>
<rect x="307.168" y="150.053" fill="#231F1F" width="3" height="7.334"/>
<rect x="326.001" y="150.053" fill="#231F1F" width="3" height="7.334"/>
<rect x="344.835" y="150.053" fill="#231F1F" width="3" height="7.334"/>
<rect x="363.668" y="150.053" fill="#231F1F" width="3" height="7.334"/>
<rect x="382.502" y="150.053" fill="#231F1F" width="3" height="7.334"/>
<rect x="401.335" y="150.053" fill="#231F1F" width="3" height="7.334"/>
<rect x="213" y="150.053" fill="#231F1F" width="191.335" height="2"/>
</svg>
