<?xml version="1.0" encoding="utf-8"?>
<!-- Generator: Adobe Illustrator 16.0.0, SVG Export Plug-In . SVG Version: 6.00 Build 0)  -->
<!DOCTYPE svg PUBLIC "-//W3C//DTD SVG 1.1//EN" "http://www.w3.org/Graphics/SVG/1.1/DTD/svg11.dtd">
<svg version="1.1" id="Layer_1" xmlns="http://www.w3.org/2000/svg" xmlns:xlink="http://www.w3.org/1999/xlink" x="0px" y="0px"
	 width="941.11px" height="500px" viewBox="0 0 941.11 500" enable-background="new 0 0 941.11 500" xml:space="preserve">
<g>
	<g>
		<path fill="#231F1F" d="M86.884,304.697c-18.748,0-34.001,15.252-34.001,34s15.253,33.998,34.001,33.998
			c18.747,0,33.999-15.25,33.999-33.998S105.63,304.697,86.884,304.697z M86.883,355.92c-9.496,0-17.221-7.728-17.221-17.223
			s7.725-17.223,17.221-17.223s17.221,7.728,17.221,17.223S96.379,355.92,86.883,355.92z"/>
		<circle fill="#231F1F" cx="86.883" cy="338.697" r="15.249"/>
	</g>
	<g>
		<path fill="#231F1F" d="M319.889,304.695c-18.748,0-34.001,15.252-34.001,34s15.253,33.998,34.001,33.998
			c18.747,0,33.999-15.25,33.999-33.998S338.635,304.695,319.889,304.695z M319.888,355.918c-9.496,0-17.221-7.728-17.221-17.223
			s7.725-17.223,17.221-17.223s17.221,7.728,17.221,17.223S329.384,355.918,319.888,355.918z"/>
		<circle fill="#231F1F" cx="319.888" cy="338.695" r="15.249"/>
	</g>
	<g>
		<path fill="#231F1F" d="M400.775,304.695c-18.748,0-34.001,15.252-34.001,34s15.253,33.998,34.001,33.998
			c18.747,0,33.999-15.25,33.999-33.998S419.522,304.695,400.775,304.695z M400.774,355.918c-9.496,0-17.221-7.728-17.221-17.223
			s7.725-17.223,17.221-17.223s17.221,7.728,17.221,17.223S410.271,355.918,400.774,355.918z"/>
		<circle fill="#231F1F" cx="400.774" cy="338.695" r="15.249"/>
	</g>
	<g>
		<path fill="#231F1F" d="M664.724,304.692c-18.748,0-34.001,15.252-34.001,34s15.253,33.998,34.001,33.998
			c18.747,0,33.999-15.25,33.999-33.998S683.47,304.692,664.724,304.692z M664.723,355.915c-9.496,0-17.221-7.728-17.221-17.223
			s7.725-17.223,17.221-17.223s17.221,7.728,17.221,17.223S674.219,355.915,664.723,355.915z"/>
		<circle fill="#231F1F" cx="664.723" cy="338.692" r="15.249"/>
	</g>
	<g>
		<path fill="#231F1F" d="M743.85,304.693c-18.748,0-34.001,15.252-34.001,34s15.253,33.998,34.001,33.998
			c18.747,0,33.999-15.25,33.999-33.998S762.596,304.693,743.85,304.693z M743.849,355.916c-9.496,0-17.221-7.728-17.221-17.223
			s7.725-17.223,17.221-17.223s17.221,7.728,17.221,17.223S753.345,355.916,743.849,355.916z"/>
		<circle fill="#231F1F" cx="743.849" cy="338.693" r="15.249"/>
	</g>
	<g>
		<path fill="#231F1F" d="M822.975,304.692c-18.748,0-34.001,15.252-34.001,34s15.253,33.998,34.001,33.998
			c18.747,0,33.999-15.25,33.999-33.998S841.721,304.692,822.975,304.692z M822.974,355.915c-9.496,0-17.221-7.728-17.221-17.223
			s7.725-17.223,17.221-17.223s17.221,7.728,17.221,17.223S832.47,355.915,822.974,355.915z"/>
		<circle fill="#231F1F" cx="822.974" cy="338.692" r="15.249"/>
	</g>
	<path fill="#231F1F" d="M437.686,290.062H237.031c-5.008,0-9.104-4.096-9.104-9.102V162.009c0-5.006-4.096-9.102-9.102-9.102
		h-62.953c-5.006,0-10.219,3.941-11.582,8.758l-16.328,57.656c-1.363,4.816-6.574,8.758-11.582,8.758H47.443
		c-5.008,0-9.104,4.094-9.104,9.1v55.637c0,5.008-2.693,9.104-5.987,9.104c-3.291,0-5.986,4.096-5.986,9.102v16.064
		c0,5.006,4.096,9.098,9.103,9.096l13.428-0.012c1.518-19.434,17.801-34.783,37.618-34.783c19.795,0,36.068,15.316,37.615,34.721
		l157.967-0.129c1.609-19.342,17.852-34.592,37.604-34.592c19.73,0,35.963,15.217,37.602,34.531l5.625-0.006
		c1.641-19.311,17.869-34.525,37.6-34.525c19.699,0,35.914,15.172,37.594,34.441c4.805-0.232,8.668-4.225,8.668-9.086v-27.578
		C446.787,294.157,442.691,290.062,437.686,290.062z M72.268,274.644h-9.979v-36.588h9.979V274.644z M88.232,274.644h-9.98v-36.588
		h9.98V274.644z M104.197,274.644h-9.979v-36.588h9.979V274.644z M154.504,167.817h40.164v60.322h-55.879L154.504,167.817z
		 M236.576,317.882h-92.467v-11.973h92.467V317.882z"/>
	<rect x="236.576" y="129.624" fill="#231F1F" width="7.316" height="155.662"/>
	<polygon fill="#231F1F" points="257.197,285.286 236.576,285.286 236.576,233.399 257.197,254.495 	"/>
	<path fill="#231F1F" d="M905.643,291.308h-30.945c-5.006,0-13.197-3.674-18.205-3.674H628.039c-5.006,0-13.197,3.674-18.205,3.674
		H462.119c-5.006,0-9.102,4.096-9.102,9.102v26.012c0,5.008,4.096,9.104,9.102,9.104h164.689v-0.002
		c0-20.73,16.865-37.594,37.594-37.594c20.73,0,37.596,16.863,37.596,37.594v0.002h3.719v-0.002
		c0-20.73,16.865-37.594,37.594-37.594c20.73,0,37.596,16.863,37.596,37.594v0.002h3.719v-0.002
		c0-20.73,16.865-37.594,37.594-37.594c20.73,0,37.596,16.863,37.596,37.594v0.002h45.828c5.006,0,9.102-4.096,9.102-9.104v-26.012
		C914.744,295.403,910.648,291.308,905.643,291.308z"/>
	<path fill="#231F1F" d="M507,356.663c0,1.277-0.726,2.311-1.62,2.311h-9.361c-0.895,0-1.62-1.033-1.62-2.311v-32.348
		c0-1.275,0.726-2.311,1.62-2.311h9.361c0.895,0,1.62,1.035,1.62,2.311V356.663z"/>
	<rect x="274.633" y="129.984" fill="#231F1F" width="626.002" height="164.989"/>
	<polygon fill="#414042" points="872.572,287.634 288.209,287.634 288.209,139.089 898.819,139.089 	"/>
	<rect x="285.332" y="142.14" fill="#231F1F" width="613.488" height="1"/>
	<rect x="470.555" y="135.849" fill="#231F1F" width="430.08" height="154.039"/>
	<path fill="#231F1F" d="M391.793,135.849c0,0,27.895,57.912,51.605,74.467c-5.158,10.091-21.044,56.678-26.305,78.773
		c8.207,2.314,21.044-1.263,27.357,0c6.313,1.262,14.31-1.263,17.888-1.473c3.577-0.211,13.678,1.824,13.678,1.824l1.052-140.924
		l0.688-12.668c0,0-13.047,5.703-24.2,0c-5.471,3.389-15.152,4.609-20.413,0c-4.419,2.126-13.889,6.082-20.413,0
		C407.259,138.185,399.477,141.509,391.793,135.849z"/>
	<path fill="#414042" d="M417.514,165.563c0,0,6.103,22.656,31.776,43.49c-5.611,13.888-13.361,31.425-15.203,38.79l17.308-38.79
		C451.395,209.053,428.808,192.638,417.514,165.563z"/>
	<path fill="#414042" d="M443.294,191.656c0,0,5.471,7.996,16.133,17.396c-3.647,4.487-18.048,24.69-17.958,53.731
		c0,0,1.543-31.426,20.483-53.731C454.798,202.879,448.7,197.197,443.294,191.656z"/>
	<path fill="#414042" d="M447.375,170.052c0,0,3.788,22.024,22.307,39.001c-4.771,9.54-12.556,35.634-10.522,57.52
		c0,0,1.543-39.563,12.206-57.52C471.365,209.053,453.547,189.972,447.375,170.052z"/>
	<path fill="#414042" d="M460.361,162.756c0,0,3.928,29.601,18.519,46.297c-2.525,7.014-3.928,17.114-3.086,23.708
		c0,0,1.543-17.535,4.489-23.708C473.548,200.494,464.289,183.52,460.361,162.756z"/>
</g>
</svg>
