<?xml version="1.0" encoding="utf-8"?>
<!-- Generator: Adobe Illustrator 16.0.0, SVG Export Plug-In . SVG Version: 6.00 Build 0)  -->
<!DOCTYPE svg PUBLIC "-//W3C//DTD SVG 1.1//EN" "http://www.w3.org/Graphics/SVG/1.1/DTD/svg11.dtd">
<svg version="1.1" id="Layer_1" xmlns="http://www.w3.org/2000/svg" xmlns:xlink="http://www.w3.org/1999/xlink" x="0px" y="0px"
	 width="500px" height="500px" viewBox="0 0 500 500" enable-background="new 0 0 500 500" xml:space="preserve">
<path fill="#231F1F" d="M69.948,233.112c0,0-0.504-4.608,4.393-5.112v5.4L69.948,233.112z"/>
<g>
	<path fill="#231F1F" d="M278.333,266.957v26.281h32.043c7.561-13.824,22.177-23.186,39.025-23.186
		c24.555,0,44.428,19.874,44.428,44.428c0,1.439-0.072,2.88-0.217,4.32h0.721l25.201-28.73v-23.186H278.333V266.957z"/>
	<path fill="#231F1F" d="M308.864,296.407h-30.458v22.394h26.857c-0.144-1.44-0.216-2.881-0.216-4.32
		c0-6.48,1.44-12.529,3.889-18.073H308.864z"/>
</g>
<g>
	<path fill="#231F1F" d="M204.457,293.238v-26.281h-21.241v17.785c2.304,2.592,4.249,5.473,5.977,8.496H204.457z"/>
	<path fill="#231F1F" d="M190.704,296.407c2.448,5.544,3.889,11.664,3.889,18.073c0,1.439-0.072,2.88-0.216,4.32h10.081v-22.394
		h-13.681H190.704z"/>
</g>
<g>
	<path fill="#231F1F" d="M211.946,274.014c-2.448,0-4.393,2.016-4.393,4.393v29.306c0,2.448,2.016,4.392,4.393,4.392h59.188
		c2.448,0,4.393-2.016,4.393-4.392v-29.306c0-2.449-2.017-4.393-4.393-4.393H211.946z"/>
</g>
<polygon fill="#231F1F" points="275.597,271.638 275.597,264.941 207.553,264.941 207.553,271.638 "/>
<polygon fill="#231F1F" points="207.553,314.48 207.553,321.536 275.597,321.536 275.597,314.48 "/>
<path fill="#231F1F" d="M153.694,169.03v100.879c9.577,0.864,18.289,4.681,25.202,10.585V169.03H153.694z"/>
<g>
	<path fill="#231F1F" d="M104.947,313.688c0.072-0.864-1.872-1.585-4.32-1.585H60.808c-2.448,0-3.744,1.513-2.952,3.313
		c0.792,1.872,3.456,3.313,5.833,3.313h36.938c2.448,0,4.32-1.584,4.32-3.528c0,0,0,0,0-0.792s0-0.792,0-0.792V313.688z"/>
</g>
<path fill="#231F1F" d="M149.734,269.262c0.288,0,1.656-0.576,1.8-0.576c0.648-0.648,1.008-1.512,1.008-3.313v-96.055
	c0-2.448-4.32-2.448-4.32,0v49.539c0,2.448-2.016,4.393-4.392,4.393h-32.906c-2.448,0-5.112,1.872-5.904,4.104l-3.601,9.793
	c-0.864,2.304-3.528,4.104-5.904,4.104H63.833c-2.448,0-4.393,2.017-4.393,4.393v32.33c0,2.448-0.792,6.192-1.8,8.425l-0.72,1.656
	c-1.008,2.232-1.8,5.977-1.728,8.424l0.072,8.785c0,2.448,2.016,4.393,4.464,4.393h41.259c1.44,0,2.952-0.648,4.248-1.513
	c3.024-22.033,21.89-38.954,44.715-38.954L149.734,269.262z"/>
<polygon fill="#231F1F" points="438.04,290.431 433.36,290.431 433.36,256.013 438.04,256.013 "/>
<polygon fill="#231F1F" points="438.04,290.431 411.11,290.431 411.11,285.75 438.04,285.75 "/>
<path fill="#231F1F" d="M64.264,239.091c-1.152,2.089-3.672,7.705-4.464,7.272c-0.72-0.432-1.08-5.04,1.728-8.784l37.082-66.316
	c1.152-2.088,4.104-3.816,6.553-3.816h69.268c2.448,0,4.393,0.721,4.393,1.584c0,0.864-2.016,1.585-4.393,1.585h-67.396
	c-2.448,0-5.4,1.728-6.553,3.815L64.264,239.091z"/>
<g>
	<path fill="#231F1F" d="M192.648,275.31c0,0.792-0.648,1.44-1.44,1.44h-6.625c-0.792,0-1.44-0.648-1.44-1.44V165.431
		c0-0.792,0.648-1.44,1.44-1.44h6.625c0.792,0,1.44,0.648,1.44,1.44V275.31z"/>
</g>
<g>
	<path fill="#231F1F" d="M95.442,304.76c0,2.736-2.232,4.968-4.968,4.968H58.72c-2.736,0-4.969-2.231-4.969-4.968v-18.721
		c0-2.736,2.232-4.969,4.969-4.969h31.754c2.736,0,4.968,2.232,4.968,4.969V304.76z"/>
</g>
<path fill="#231F1F" d="M80.033,222.89c-0.36,1.368-1.8,2.16-3.168,1.801l-5.76-1.584c-1.368-0.36-2.16-1.801-1.8-3.169
	l4.824-17.137c0.36-1.368,1.8-2.16,3.168-1.8l5.76,1.584c1.368,0.36,2.16,1.8,1.8,3.168L80.033,222.89z"/>
<polygon fill="#231F1F" points="446.249,261.843 190.704,261.843 190.704,177.094 226.13,184.294 446.249,184.294 "/>
<rect x="229.014" y="163.99" fill="#231F1F" width="6" height="20.468"/>
<rect x="269.526" y="163.99" fill="#231F1F" width="6" height="20.468"/>
<rect x="310.038" y="163.99" fill="#231F1F" width="6" height="20.468"/>
<rect x="350.55" y="163.99" fill="#231F1F" width="6" height="20.468"/>
<rect x="391.063" y="163.99" fill="#231F1F" width="6" height="20.468"/>
<rect x="431.575" y="163.99" fill="#231F1F" width="6" height="20.468"/>
<rect x="184.584" y="163.99" fill="#231F1F" width="252.991" height="3.456"/>
<rect x="198.705" y="187.373" fill="#414042" width="14.075" height="69"/>
<rect x="230.223" y="187.373" fill="#414042" width="14.075" height="69"/>
<rect x="261.742" y="187.373" fill="#414042" width="14.075" height="69"/>
<rect x="293.262" y="187.373" fill="#414042" width="14.074" height="69"/>
<rect x="324.78" y="187.373" fill="#414042" width="14.075" height="69"/>
<rect x="356.299" y="187.373" fill="#414042" width="14.075" height="69"/>
<rect x="387.818" y="187.373" fill="#414042" width="14.075" height="69"/>
<rect x="419.337" y="187.373" fill="#414042" width="14.075" height="69"/>
<g>
	<path fill="#231F1F" d="M349.33,273.469c-22.614,0-41.013,18.398-41.013,41.012s18.398,41.012,41.013,41.012
		c22.614,0,41.012-18.398,41.012-41.012S371.943,273.469,349.33,273.469z M349.329,335.254c-11.455,0-20.773-9.319-20.773-20.773
		s9.319-20.773,20.773-20.773s20.773,9.319,20.773,20.773S360.784,335.254,349.329,335.254z"/>
	<circle fill="#231F1F" cx="349.329" cy="314.48" r="18.394"/>
</g>
<g>
	<path fill="#231F1F" d="M149.734,273.469c-22.614,0-41.013,18.398-41.013,41.012s18.398,41.012,41.013,41.012
		c22.614,0,41.012-18.398,41.012-41.012S172.348,273.469,149.734,273.469z M149.734,335.254c-11.455,0-20.773-9.319-20.773-20.773
		s9.319-20.773,20.773-20.773s20.773,9.319,20.773,20.773S161.188,335.254,149.734,335.254z"/>
	<circle fill="#231F1F" cx="149.734" cy="314.48" r="18.394"/>
</g>
</svg>
