<?xml version="1.0" encoding="UTF-8" standalone="no"?>
<!-- Created with Inkscape (http://www.inkscape.org/) -->

<svg
   xmlns:dc="http://purl.org/dc/elements/1.1/"
   xmlns:cc="http://creativecommons.org/ns#"
   xmlns:rdf="http://www.w3.org/1999/02/22-rdf-syntax-ns#"
   xmlns:svg="http://www.w3.org/2000/svg"
   xmlns="http://www.w3.org/2000/svg"
   xmlns:sodipodi="http://sodipodi.sourceforge.net/DTD/sodipodi-0.dtd"
   xmlns:inkscape="http://www.inkscape.org/namespaces/inkscape"
   width="210mm"
   height="297mm"
   viewBox="0 0 744.09448819 1052.3622047"
   id="svg3350"
   version="1.1"
   inkscape:version="0.91 r13725"
   sodipodi:docname="drawing-1.svg">
  <defs
     id="defs3352" />
  <sodipodi:namedview
     id="base"
     pagecolor="#ffffff"
     bordercolor="#666666"
     borderopacity="1.0"
     inkscape:pageopacity="0.0"
     inkscape:pageshadow="2"
     inkscape:zoom="0.35"
     inkscape:cx="375"
     inkscape:cy="520"
     inkscape:document-units="px"
     inkscape:current-layer="layer1"
     showgrid="false"
     inkscape:window-width="1920"
     inkscape:window-height="1056"
     inkscape:window-x="0"
     inkscape:window-y="24"
     inkscape:window-maximized="1" />
  <metadata
     id="metadata3355">
    <rdf:RDF>
      <cc:Work
         rdf:about="">
        <dc:format>image/svg+xml</dc:format>
        <dc:type
           rdf:resource="http://purl.org/dc/dcmitype/StillImage" />
        <dc:title></dc:title>
      </cc:Work>
    </rdf:RDF>
  </metadata>
  <g
     inkscape:label="Layer 1"
     inkscape:groupmode="layer"
     id="layer1">
    <g
       id="g3420"
       transform="translate(-2.8571,-5.7142857)">
      <path
         style="fill:#e8e8e8"
         d="m 16.607156,819.32648 c -1.688011,-1.68801 -1.964286,-6.6771 -1.964286,-35.47194 0,-37.61541 -0.217966,-36.73875 8.970119,-36.07766 l 5.404881,0.38889 0.625,13.75 0.625,13.75 11.5625,0.35941 11.5625,0.3594 0,-12.9219 c 0,-8.38371 0.526804,-13.44871 1.5,-14.42191 2.28186,-2.28186 11.819588,-1.92461 12.741264,0.47724 0.417305,1.08747 0.758736,17.00622 0.758736,35.375 0,35.98007 -0.07553,36.39776 -6.582176,36.39776 -7.852584,0 -8.417824,-1.13608 -8.417824,-16.91897 l 0,-14.33103 -11.875,0 -11.875,0 0,14.86626 c 0,12.40298 -0.327621,14.99199 -1.977234,15.625 -3.603126,1.38265 -9.0658,0.78714 -11.05848,-1.20555 z m 62.035714,0.46429 c -2.118346,-2.11835 -2.118346,-49.88165 0,-52 0.825,-0.825 3.310245,-1.5 5.522766,-1.5 8.294177,0 7.977234,-1.09211 7.977234,27.48795 0,25.87569 -0.01025,25.97322 -2.8125,26.72419 -4.512069,1.20919 -9.069871,0.90549 -10.6875,-0.71214 z m 24.4375,0.14987 c -1.96649,-1.14537 -2.1875,-3.76842 -2.1875,-25.96198 0,-17.53503 0.4346,-25.12249 1.5,-26.18789 2.09434,-2.09434 9.13274,-1.87491 10.97268,0.34208 1.34678,1.62277 1.95288,1.62277 5.09098,0 4.66242,-2.41103 14.07773,-2.35028 18.85797,0.12162 6.91546,3.57613 8.81621,10.4835 8.8284,32.08284 0.0112,20.50766 -0.12595,20.89947 -7.34824,20.93427 -7.14091,0.0344 -7.90179,-1.9583 -7.90179,-20.6951 0,-15.11905 -0.24822,-17.03393 -2.5,-19.28571 -3.12335,-3.12335 -5.17017,-3.14934 -8.92402,-0.11325 -2.80216,2.26631 -2.97191,3.25894 -3.36606,19.68301 -0.22829,9.51299 -1.00029,18.00148 -1.71555,18.86333 -1.55495,1.87359 -8.24221,2.00185 -11.30687,0.21685 z m 60.9375,-0.97557 c -8.13377,-5.02419 -11.875,-13.13116 -11.875,-25.73231 0,-9.68237 4.72875,-19.8749 11.25,-24.2487 3.84744,-2.58048 5.4678,-2.86705 13.4375,-2.37654 l 9.0625,0.55779 0,-10.92854 c 0,-8.81228 0.38288,-11.07545 1.97724,-11.68726 3.31685,-1.2728 9.93441,-0.84709 11.52276,0.74126 1.09714,1.09714 1.5,11.15689 1.5,37.45603 0,34.26933 -0.11337,36.01671 -2.41782,37.25 -3.46898,1.85653 -8.27668,1.59446 -10.05485,-0.5481 -1.34679,-1.62278 -1.95289,-1.62278 -5.09099,0 -4.9967,2.58388 -14.74031,2.33987 -19.31134,-0.48363 z m 16.0461,-11.34678 c 4.07333,-1.54867 6.27544,-8.42599 5.53951,-17.30026 -0.6511,-7.85139 -4.08402,-11.93081 -9.48983,-11.27701 -9.49318,1.14814 -12.1103,21.90791 -3.52038,27.92454 3.0723,2.15191 3.44249,2.18426 7.4707,0.65273 z m 38.02328,11.71112 c -6.86519,-3.72469 -8.89899,-10.3605 -9.46157,-30.87083 -0.56967,-20.7694 -0.11725,-22.17917 7.10774,-22.14867 8.0151,0.0339 8.2183,0.4956 8.90945,20.24591 0.34375,9.82298 1.08008,18.56308 1.63628,19.42245 1.42261,2.19806 7.80213,1.94552 10.14943,-0.40179 1.59494,-1.59494 1.96429,-5.19101 1.96429,-19.125 0,-11.68055 0.47901,-17.63972 1.5,-18.66071 1.64344,-1.64344 9.52691,-2.0063 11.80519,-0.54336 0.97124,0.62366 1.57292,9.05547 1.875,26.27557 0.37739,21.51338 0.16059,25.53702 -1.43019,26.54335 -2.83227,1.79174 -8.33792,1.45794 -10.42812,-0.63225 -1.63988,-1.63987 -2.27067,-1.64077 -5.40178,-0.008 -4.52121,2.35809 -13.79155,2.30877 -18.22572,-0.097 z m 46.30035,0.52759 c -4.23337,-1.54845 -5.40114,-5.00606 -3.203,-9.48362 1.31688,-2.68246 2.38521,-3.33939 4.76535,-2.93028 1.68736,0.29002 5.59917,0.57127 8.69292,0.625 4.88235,0.0847 5.67674,-0.26599 6.01684,-2.65679 0.32171,-2.26161 -0.97189,-3.44287 -7.22981,-6.60185 -8.48802,-4.28473 -12.5249,-9.4445 -12.53235,-16.01826 -0.0113,-10.03314 7.42321,-16.48817 18.99901,-16.49575 12.01995,-0.007 15.23869,2.74978 12.28307,10.52362 -1.1667,3.06866 -1.50231,3.16084 -8.75,2.40331 -7.09895,-0.74198 -7.53676,-0.63341 -7.53676,1.86926 0,1.91124 1.66654,3.50733 5.9375,5.68652 3.26563,1.66622 7.625,4.80639 9.6875,6.97814 3.17668,3.34493 3.75,4.93938 3.75,10.42905 0,7.51579 -2.73427,12.05881 -9.10491,15.12787 -4.5648,2.19911 -16.43909,2.49563 -21.77536,0.54378 z m 46.2242,-0.51473 c -5.5483,-3.01095 -6.53747,-6.25767 -7.21337,-23.6765 -0.60426,-15.57214 -0.74542,-16.26634 -3.38396,-16.6417 -5.49854,-0.78221 -5.27456,-10.83256 0.27244,-12.22477 2.2143,-0.55575 3.10596,-1.62949 3.10596,-3.74023 0,-3.23015 3.5002,-6.07618 9.19666,-7.47782 4.24404,-1.04429 5.75615,0.69337 5.7842,6.64702 0.0176,3.74211 0.33953,4.06401 4.08164,4.08164 6.03148,0.0284 7.41716,1.4184 6.9615,6.9831 -0.39027,4.76619 -0.51519,4.88117 -5.7115,5.25713 l -5.3125,0.38438 0,13.63414 c 0,12.20036 0.25426,13.77022 2.41783,14.92814 1.3298,0.71168 3.51962,1.29397 4.86626,1.29397 3.84147,0 5.60394,7.86198 2.46591,11 -2.07972,2.07973 -13.40625,1.78996 -17.53107,-0.4485 z m 28.68515,0.48451 c -6.49914,-2.3717 -10.1657,-13.72383 -7.07082,-21.89213 2.75979,-7.28388 8.32439,-10.58611 22.75678,-13.50463 3.05594,-0.61798 3.30207,-1.00519 2.08479,-3.27971 -1.18333,-2.21108 -2.30182,-2.50697 -7.84004,-2.07408 -3.55288,0.27773 -7.30354,0.88369 -8.33479,1.34662 -2.97484,1.33537 -5.2021,-0.93358 -5.42209,-5.52358 -0.17886,-3.73179 0.35214,-4.50472 4.4807,-6.52209 6.25534,-3.0566 18.45598,-3.02339 23.83998,0.0649 2.20644,1.26562 5.22831,4.75073 6.78891,7.82965 2.5516,5.03403 2.8125,7.31927 2.8125,24.63509 l 0,19.08632 -3.31371,0.83169 c -1.82254,0.45742 -5.179,0.15719 -7.45881,-0.66722 -2.96207,-1.07108 -4.84694,-1.12328 -6.60412,-0.18287 -3.04243,1.62826 -12.07083,1.54836 -16.71928,-0.14796 z m 16.81,-13.10475 c 3.25356,-2.94442 3.14212,-10.43126 -0.15527,-10.43126 -6.62121,0 -11.10065,4.74827 -9.43381,10 0.98919,3.11665 6.3551,3.35797 9.58908,0.43126 z m 27.77228,13.6121 c -1.93052,-1.27673 -3.1805,-50.84922 -1.32885,-52.70087 1.90097,-1.90096 8.57564,-1.66509 11.53485,0.40762 2.14177,1.50014 2.84048,1.50014 4.89205,0 1.39315,-1.01871 5.39078,-1.75011 9.5655,-1.75011 6.37993,0 7.64955,0.45031 11.49508,4.07711 5.84274,5.5104 7.08982,10.9906 7.09804,31.19142 0.006,15.67393 -0.20029,17.25443 -2.41085,18.4375 -3.32475,1.77935 -9.5011,1.62528 -11.07933,-0.27637 -0.7233,-0.87152 -1.48674,-9.53951 -1.71556,-19.47843 -0.36863,-16.01148 -0.66926,-18.09573 -2.8387,-19.67967 -3.2611,-2.38099 -4.768,-2.23836 -8.65501,0.81916 -3.26439,2.56777 -3.29358,2.7387 -3.29358,19.28572 0,13.5106 -0.37466,17.06966 -1.96429,18.65927 -2.02435,2.02435 -8.84261,2.63239 -11.29935,1.00765 z m 71.98997,-0.94689 c -1.6457,-1.98294 -1.60274,-3.46341 1.35943,-46.84647 1.69935,-24.88821 1.74568,-25 10.35939,-25 3.98843,0 7.29654,0.66005 8.08806,1.61378 1.25177,1.50828 9.31314,25.78042 12.749,38.38622 1.83395,6.72855 1.42128,7.49654 9.18995,-17.10216 7.57254,-23.97763 6.82992,-22.89784 15.74805,-22.89784 4.06024,0 7.70639,0.52449 8.10258,1.16551 0.39619,0.64104 1.63172,16.73191 2.74565,35.7575 2.2311,38.10664 2.4278,36.77005 -5.41665,36.80785 -6.23879,0.03 -7.88383,-2.61046 -8.02585,-12.88265 -0.0682,-4.93526 -0.50956,-13.75446 -0.98074,-19.59821 l -0.85666,-10.625 -6.5597,20.19427 c -4.04673,12.45802 -7.30166,20.479 -8.4965,20.9375 -3.30695,1.269 -8.8691,0.81842 -10.11331,-0.81927 -0.6529,-0.85937 -3.65217,-9.83524 -6.66503,-19.94637 -3.01285,-10.11113 -5.60674,-18.25506 -5.76417,-18.09762 -0.15745,0.15744 -0.86104,8.94571 -1.56354,19.5295 -0.87358,13.16123 -1.78676,19.5665 -2.88928,20.26598 -2.67432,1.6967 -9.32571,1.18775 -11.01068,-0.84252 z m 88.81086,-0.008 c -8.31681,-3.73721 -12.0476,-9.03821 -13.69486,-19.45878 -3.02095,-19.11098 7.36625,-33.63019 24.05898,-33.63019 11.46742,0 17.40864,3.47235 22.45699,13.125 3.79531,7.25678 3.685,20.43773 -0.23866,28.51997 -4.07184,8.38747 -10.59993,12.51517 -20.57785,13.01137 -4.99801,0.24855 -9.17676,-0.29724 -12.0046,-1.56795 z m 16.18101,-13.05658 c 3.26353,-3.26353 4.20185,-7.44966 3.51806,-15.69516 -0.68818,-8.29927 -3.46082,-11.83723 -9.27617,-11.83723 -4.96191,0 -7.84575,3.62391 -8.85161,11.1232 -1.88609,14.06183 6.98883,24.02949 14.60972,16.4086 z m 34.0696,13.0291 c -4.93031,-3.45334 -5.88047,-6.89096 -6.53224,-23.63339 -0.62411,-16.03228 -0.66255,-16.20551 -3.75556,-16.92471 -5.7602,-1.33938 -4.57815,-12.50339 1.32386,-12.50339 1.63155,0 2.37763,-1.11268 2.65944,-3.96624 0.33969,-3.43961 1.10265,-4.20217 5.74623,-5.74317 6.59063,-2.18715 9.02047,-0.709 9.02047,5.48746 0,3.9626 0.25935,4.22195 4.22195,4.22195 5.24119,0 7.31646,2.35906 6.80084,7.73085 -0.37514,3.90821 -0.70024,4.16604 -5.71029,4.52852 l -5.3125,0.38438 0,13.60435 c 0,14.04506 0.36659,15.09125 5.48248,15.6462 1.45338,0.15765 3.01971,0.35843 3.4807,0.44618 1.65253,0.31451 2.42593,7.56393 1.07606,10.08621 -1.14481,2.13911 -2.58835,2.57331 -8.55509,2.57331 -4.46272,0 -8.2251,-0.7335 -9.94635,-1.9391 z m 35.31396,0.19713 c -5.35605,-2.33377 -11.49963,-9.81244 -13.18816,-16.05412 -1.86432,-6.8915 -0.79595,-18.47595 2.2442,-24.33417 1.31624,-2.53634 4.49465,-6.3124 7.06314,-8.39125 3.97531,-3.21749 5.95592,-3.85239 13.31485,-4.26822 7.63686,-0.43151 9.3179,-0.094 14.41699,2.89423 13.32428,7.80855 16.20053,32.36762 5.17506,44.18758 -6.66781,7.14831 -20.01608,9.89187 -29.02608,5.96595 z m 17.39962,-14.91647 c 3.95888,-5.33174 3.71415,-18.22934 -0.4296,-22.64016 -8.34828,-8.88633 -17.90553,1.66702 -15.10163,16.67559 1.8739,10.0305 10.15178,13.20951 15.53123,5.96457 z m 26.1433,15.67881 c -1.69702,-1.07914 -2.67897,-50.08558 -1.05619,-52.7113 0.64362,-1.0414 2.63524,-1.29156 6.1203,-0.76872 5.47641,0.82156 6.88215,0.85566 15.79121,0.38305 l 5.625,-0.2984 0,6.17053 c 0,6.01295 -0.11175,6.19814 -4.375,7.25084 -7.84999,1.93836 -8.75,4.21073 -8.75,22.0921 0,10.67008 -0.49095,16.35248 -1.5,17.36153 -1.65614,1.65614 -9.52604,2.00157 -11.85532,0.52037 z m 31.64806,-1.0612 c -3.18836,-1.72731 -3.5025,-2.43231 -2.85679,-6.4113 0.83006,-5.11515 2.84629,-6.87346 6.43905,-5.61537 1.375,0.48149 4.75,0.89051 7.5,0.90896 4.48959,0.0301 5,-0.28087 5,-3.04646 0,-2.42516 -1.43611,-3.88685 -6.75479,-6.875 -9.00341,-5.05834 -12.02926,-9.2881 -11.87047,-16.59345 0.1095,-5.03715 0.75299,-6.32469 5.2641,-10.53261 4.93435,-4.6033 5.48479,-4.79453 13.79927,-4.79453 6.51213,0 9.35677,0.56426 11.46957,2.27511 2.57421,2.08447 2.68322,2.65819 1.30088,6.84668 l -1.50875,4.57157 -7.23973,-0.7567 c -11.83933,-1.23746 -11.55313,2.73759 0.6803,9.44876 7.95878,4.36613 10.90128,8.61461 10.90128,15.73958 0,10.62568 -7.85718,16.90758 -21.04166,16.82301 -4.32012,-0.0277 -9.01882,-0.87094 -11.08226,-1.98883 z M 79.921003,761.84489 c -1.936839,-1.35662 -2.778133,-3.22225 -2.778133,-6.16072 0,-5.35838 2.785023,-8.1434 8.143406,-8.1434 7.28513,0 10.781603,8.57499 5.606594,13.75 -2.996877,2.99687 -7.182539,3.20828 -10.971867,0.55412 z M 13.970248,722.22827 c -0.326788,-0.85937 -0.449759,-96.0625 -0.273269,-211.5625 l 0.320891,-210 361.1749,-0.31464 c 288.11564,-0.25099 361.37588,0.002 362.16836,1.25 1.14674,1.80604 1.41663,417.23218 0.273,420.2124 -0.68945,1.79668 -33.74076,1.97724 -361.91422,1.97724 -287.774184,0 -361.276226,-0.31748 -361.749662,-1.5625 z m 121.922622,-197.1875 0,-160 -40,0 -40,0 0,160 0,160 40,0 40,0 0,-160 z m 276.25,-0.0175 0,-160.01756 -39.6875,0.33006 -39.6875,0.33 -0.31725,159.6875 -0.31725,159.6875 40.00475,0 40.00475,0 0,-160.01756 z m 277.19225,0.33 -0.31725,-159.6875 -39.375,0 -39.375,0 -0.31725,159.6875 -0.31725,159.6875 40.0095,0 40.0095,0 -0.31725,-159.6875 z M 154.0537,577.42788 c 0.46428,-1.46284 1.90205,-2.38711 3.71328,-2.38711 1.85734,0 3.94792,-1.39349 5.62589,-3.75 1.46863,-2.0625 3.3392,-3.75 4.15681,-3.75 0.81763,0 5.03394,-3.09375 9.36959,-6.875 4.33564,-3.78125 8.29389,-6.875 8.7961,-6.875 0.5022,0 3.19865,-2.10937 5.99211,-4.6875 6.92962,-6.39546 14.04173,-12.42591 27.19327,-23.05753 6.12307,-4.94984 10.48245,-9.21653 9.6875,-9.48151 -0.79497,-0.26498 -1.44538,-1.0663 -1.44538,-1.78069 0,-0.87196 0.53494,-0.85492 1.62755,0.0519 0.89515,0.74291 2.83921,1.03389 4.32016,0.64661 2.0373,-0.53276 4.91153,1.17397 11.80995,7.01284 23.07444,19.53032 42.32257,35.0459 43.47685,35.0459 0.69602,0 1.26549,0.46971 1.26549,1.0438 0,0.5741 4.94664,5.0424 10.99253,9.92957 6.0459,4.88718 12.03932,10.04247 13.31873,11.4562 1.27942,1.41374 2.80153,2.57043 3.38248,2.57043 0.58094,0 1.01429,-16.17187 0.96299,-35.9375 l -0.0933,-35.9375 -11.11077,-9.94928 c -6.11092,-5.47209 -13.04947,-10.94388 -15.419,-12.15952 -2.36952,-1.21565 -5.42428,-3.6291 -6.78836,-5.36322 -1.36409,-1.73414 -3.09434,-3.15298 -3.84501,-3.15298 -0.75068,0 -2.78489,-2.1458 -4.52048,-4.76845 -2.81962,-4.26075 -10.4042,-10.76568 -17.26906,-14.81087 -1.35742,-0.79988 -6.46579,-5.64189 -11.35192,-10.76003 -13.54142,-14.18439 -12.849,-14.31533 -36.76312,6.95147 -10.79141,9.5968 -20.1286,18.50379 -20.74927,19.7933 -0.62069,1.28952 -1.67751,2.34458 -2.3485,2.34458 -1.443,0 -11.29294,8.63078 -12.03876,10.54867 -0.28368,0.72948 0.36936,0.59589 1.45121,-0.29687 1.11742,-0.92212 2.2752,-1.12451 2.68057,-0.46859 0.39248,0.63503 -1.7289,1.83845 -4.71416,2.67428 -3.84866,1.07755 -8.38784,4.24343 -15.6023,10.88194 l -10.17455,9.36224 0,35.67723 c 0,31.15112 0.23173,35.4849 1.82659,34.16127 1.00462,-0.83376 2.16754,-2.59013 2.58424,-3.90306 z m 58.67537,-51.19989 c -1.18776,-1.92184 0.43919,-3.16183 2.04355,-1.55747 0.89773,0.89772 0.91929,1.5969 0.0655,2.12455 -0.6999,0.43256 -1.64899,0.17737 -2.10909,-0.56708 z m 308.57371,-17.10271 c 8.00033,-6.90332 32.62279,-28.8567 40.84009,-36.413 3.09375,-2.84489 5.625,-5.87469 5.625,-6.73287 0,-0.85819 0.87525,-1.56109 1.945,-1.56199 1.87464,-10e-4 3.95999,-1.67205 15.60673,-12.50165 2.9575,-2.75 6.40573,-5.62353 7.66277,-6.38561 2.1156,-1.2826 2.31015,-4.04707 2.61718,-37.1875 0.18241,-19.69104 -0.1292,-35.80189 -0.69248,-35.80189 -0.98094,0 -8.47894,6.41953 -19.48432,16.68181 -2.83518,2.64374 -8.52988,7.11679 -12.65488,9.94011 -4.125,2.82332 -13.96875,10.69632 -21.875,17.49554 -7.90625,6.79923 -16.5236,14.13866 -19.14967,16.30988 -2.62607,2.17121 -5.88043,4.95202 -7.23193,6.17958 -2.35887,2.14258 -2.60982,2.14258 -6.26822,0 -2.09604,-1.22756 -6.43542,-4.66963 -9.64308,-7.64906 -9.77282,-9.07747 -30.05672,-23.96244 -30.86709,-22.65125 -1.16318,1.88207 -3.36187,-0.0451 -2.52866,-2.21648 1.01828,-2.65359 -1.54214,-5.34013 -5.0894,-5.34013 -2.13861,0 -2.97195,-0.701 -2.97195,-2.5 0,-1.375 -0.56622,-2.5 -1.25826,-2.5 -0.69205,0 -2.49476,-1.42209 -4.00603,-3.1602 -1.54306,-1.77467 -3.81167,-3.00776 -5.17441,-2.8125 -1.57516,0.2257 -2.55145,-0.4772 -2.78235,-2.00317 -0.19562,-1.29298 -0.81655,-2.76945 -1.37982,-3.28105 -7.90228,-7.17731 -14.47232,-12.49308 -15.44085,-12.49308 -0.74797,0 -1.20828,12.89885 -1.20828,33.85815 l 0,33.85815 3.79019,5.20435 c 2.0846,2.8624 7.49282,8.2981 12.01829,12.07935 4.52545,3.78125 10.89382,9.26562 14.15193,12.1875 3.25812,2.92187 6.36012,5.3125 6.89334,5.3125 0.53321,0 3.28738,2.40755 6.12036,5.3501 5.46657,5.67799 23.7867,22.19289 26.21038,23.62765 0.79227,0.46902 4.44779,3.69421 8.12334,7.16709 7.64803,7.2263 7.29288,7.26672 18.10208,-2.06033 z"
         id="path3434"
         inkscape:connector-curvature="0" />
      <path
         style="fill:#cfcfcf"
         d="m 166.51787,818.98256 c -9.26554,-4.33388 -13.47,-12.25396 -13.4068,-25.25484 0.0467,-9.61387 2.16273,-15.37557 7.66888,-20.88171 5.80055,-5.80055 12.69027,-7.58221 19.64688,-5.08064 l 5.46604,1.96558 0,-10.23118 c 0,-12.58899 1.26985,-14.80062 8.17485,-14.23761 l 4.95015,0.40361 0,36.875 0,36.875 -4.31982,0.41089 c -2.93405,0.27909 -4.80357,-0.25067 -5.82777,-1.65134 -1.35742,-1.85639 -1.86635,-1.8769 -5.09837,-0.20556 -6.25721,3.23573 -11.8053,3.5614 -17.25404,1.0128 z m 16.875,-12.69179 c 2.08569,-2.08569 2.5,-4.16666 2.5,-12.55681 0,-9.01095 -0.31907,-10.3759 -3.06819,-13.125 -3.74141,-3.74143 -6.81262,-3.87999 -11.10811,-0.50117 -6.25989,4.92404 -7.2718,18.66576 -1.87932,25.52118 3.14285,3.99547 9.89242,4.325 13.55562,0.6618 z m 36.78018,12.67381 c -8.49814,-3.93091 -9.90518,-8.3947 -9.90518,-31.42381 l 0,-19.375 4.77474,-0.39316 c 7.86302,-0.64745 8.35026,0.46226 8.35026,19.01809 0,12.85984 0.42411,17.04931 1.94588,19.22193 2.25136,3.21428 7.57543,3.69095 11.25271,1.00749 2.15869,-1.57529 2.49537,-3.81656 3.05141,-20.3125 l 0.625,-18.54185 4.77474,-0.39316 c 8.19974,-0.67518 8.35026,-0.20789 8.35026,25.92121 0,16.49208 -0.44041,23.78736 -1.5,24.84695 -2.1119,2.1119 -7.27582,1.8641 -9.85837,-0.47308 -1.95027,-1.76496 -2.48802,-1.77472 -5.09843,-0.0925 -4.99407,3.21839 -11.15772,3.58218 -16.76302,0.98937 z m 48.39406,1.07784 c -6.23023,-1.47193 -8.45371,-4.1728 -6.93131,-8.4195 1.30701,-3.6459 1.35042,-3.65376 11.80623,-2.13862 4.35144,0.63056 6.05102,0.36816 7.29078,-1.12567 2.73001,-3.28946 0.3514,-6.81927 -7.36776,-10.93355 -8.5559,-4.56025 -11.56309,-8.45622 -11.56309,-14.98063 0,-10.12215 10.73464,-17.50607 22.33394,-15.3626 6.60591,1.22072 8.75136,3.5729 7.56615,8.29516 -0.7695,3.06591 -1.19017,3.21259 -8.62158,3.00597 -7.55481,-0.21005 -7.8126,-0.11425 -7.8126,2.90284 0,2.46117 1.31985,3.83208 6.25,6.49173 3.4375,1.85442 7.79688,5.0999 9.6875,7.21217 7.63444,8.52946 2.48956,21.85444 -9.615,24.9024 -6.18414,1.55719 -7.02712,1.56691 -13.02326,0.1503 z m 47.32576,0.47314 c -10.01437,-3.51218 -11.25,-6.37198 -11.25,-26.03771 0,-14.51273 -0.17569,-15.68708 -2.34695,-15.68708 -5.87905,0 -7.11791,-9.9205 -1.40567,-11.2563 2.23016,-0.52153 3.30356,-1.77619 3.75643,-4.39073 0.68675,-3.96476 5.1539,-7.08575 9.37119,-6.54721 1.90313,0.24303 2.64921,1.51298 3.125,5.31924 0.5834,4.6672 0.9162,5.02545 5,5.38246 10.20486,0.8921 9.54603,11.49254 -0.71429,11.49254 l -4.28571,0 0,12.58218 c 0,13.78657 1.12974,17.41782 5.41898,17.41782 1.55706,0 3.50602,0.675 4.33102,1.5 1.6555,1.6555 2.04886,8.01325 0.55298,8.93775 -1.73453,1.072 -9.65135,1.95396 -11.55298,1.28704 z m 26.80613,-0.5474 c -5.99192,-1.7614 -9.58047,-6.46321 -10.24984,-13.42959 -1.07659,-11.20426 4.86025,-17.66294 18.75621,-20.40485 7.36696,-1.45362 9.12916,-3.65129 5.6875,-7.09295 -1.85494,-1.85494 -9.65127,-1.95091 -14.31897,-0.17625 -2.87023,1.09126 -3.76267,0.93954 -5.08138,-0.86391 -4.53849,-6.20676 1.67445,-10.8526 14.70418,-10.99528 8.99996,-0.0985 13.27076,1.81842 17.11626,7.68268 1.77066,2.70021 2.347,7.1896 2.9264,22.79509 0.42869,11.54623 0.23974,20.06678 -0.46556,20.99517 -1.59437,2.09866 -7.88872,1.98699 -9.89414,-0.17555 -1.32748,-1.43145 -2.16303,-1.45801 -4.73679,-0.15054 -4.6899,2.38246 -10.17211,3.07173 -14.44387,1.81598 z m 14.35315,-13.22097 c 2.69872,-3.43086 3.48196,-9.75806 1.36956,-11.0636 -0.67164,-0.41509 -3.50883,-0.13871 -6.30488,0.61419 -3.59122,0.96702 -5.43457,2.29175 -6.27883,4.51232 -1.60388,4.21851 -1.52398,4.97325 0.76916,7.26638 2.9723,2.9723 7.51624,2.39402 10.44499,-1.32929 z m 191.03957,12.76492 c -11.98542,-4.27764 -16.44032,-11.2448 -16.44661,-25.72134 -0.005,-10.71925 1.75811,-15.05507 8.5425,-21.01185 13.87961,-12.18646 33.67992,-5.64596 38.27715,12.64381 3.98654,15.86017 -3.53451,30.59218 -17.69073,34.65213 -5.40017,1.54875 -6.96008,1.47952 -12.68231,-0.56275 z m 13.40013,-12.45668 c 3.47143,-3.47144 4.99632,-10.03055 4.02153,-17.29811 -2.06448,-15.39194 -17.65625,-16.29229 -20.21162,-1.16713 -2.62825,15.5565 7.52209,27.13324 16.19009,18.46524 z m 36.04441,12.46376 c -6.40115,-2.87728 -8.21098,-8.01221 -8.87776,-25.1884 -0.53902,-13.88455 -0.7967,-15.1777 -3.23813,-16.25 -3.93475,-1.72821 -3.8103,-9.75058 0.16,-10.31446 1.73991,-0.24711 2.8125,-1.26689 2.8125,-2.67402 0,-4.00389 4.10828,-7.73002 8.77774,-7.96125 4.2514,-0.21054 4.35566,-0.0996 4.72829,5.02868 0.37743,5.19472 0.43028,5.24757 5.625,5.625 4.96045,0.36043 5.26588,0.61049 5.6492,4.62495 0.46771,4.89823 -1.10513,6.33432 -6.96773,6.36194 l -4.0625,0.0191 0,13.5 c 0,14.18383 0.7896,16.5 5.625,16.5 4.72298,0 7.31953,5.39885 4.6309,9.62875 -1.55015,2.43877 -10.42287,3.09526 -14.86251,1.09968 z m 40.23161,1.15723 c -0.6875,-0.22934 -2.75352,-0.74726 -4.59116,-1.15095 -9.2997,-2.04292 -15.96293,-12.80415 -16.00639,-25.8506 -0.0342,-10.30129 3.5208,-17.66132 11.1141,-23.0091 4.61745,-3.25196 6.37926,-3.73805 13.26578,-3.66 6.56733,0.0745 8.81167,0.69326 12.97296,3.57704 13.48455,9.3448 14.17509,34.99198 1.20576,44.7833 -5.37487,4.0578 -14.03777,6.61905 -17.96105,5.31031 z m 8.74574,-13.44815 c 5.57099,-4.80604 6.67871,-16.35463 2.38344,-24.84853 -2.93914,-5.81212 -9.691,-6.57125 -14.34879,-1.61327 -2.68624,2.85938 -3.03039,4.36224 -3.03039,13.23324 0,9.41537 0.20753,10.18602 3.5072,13.02429 4.3681,3.75727 7.3094,3.80957 11.48854,0.20427 z m 62.50426,12.4356 c -4.24636,-1.32794 -5.05672,-2.13995 -5.37634,-5.38733 -0.52407,-5.32495 2.31033,-7.53241 7.11584,-5.5419 4.69878,1.94631 10.14895,1.25511 11.87803,-1.50637 1.98933,-3.17712 -0.14688,-5.92377 -7.88033,-10.13218 -8.31859,-4.52683 -11.71187,-9.65093 -10.87999,-16.42957 1.22529,-9.98415 12.88817,-16.25729 24.44138,-13.14633 5.75659,1.55009 7.27361,3.76452 5.41345,7.90209 -1.06759,2.37463 -2.22354,2.74349 -8.59773,2.74349 -6.9802,0 -7.38382,0.16771 -7.73841,3.21541 -0.3239,2.78404 0.59843,3.72233 6.875,6.99398 12.18716,6.35252 15.86868,15.62639 9.84989,24.81222 -4.16503,6.35663 -15.84624,9.3706 -25.10079,6.47649 z M 17.275209,818.32523 c -1.006093,-1.21227 -1.32602,-11.57162 -1.090556,-35.3125 l 0.333217,-33.59696 5.501114,-0.39359 c 3.554917,-0.25435 5.869841,0.18789 6.543359,1.25 0.573235,0.90398 1.050858,7.12797 1.061386,13.83109 l 0.01914,12.1875 12.45771,0 12.457711,0 0.354789,-13.4375 0.35479,-13.4375 5.625,0 5.625,0 0,35 0,35 -5.625,0 -5.625,0 -0.625,-15 -0.625,-15 -12.1875,-0.35776 -12.1875,-0.35777 0,14.17027 c 0,9.35465 -0.509759,14.68002 -1.5,15.67026 -2.038962,2.03896 -9.11303,1.89866 -10.867661,-0.21554 z m 61.675474,0.11625 c -0.337549,-0.87964 -0.46052,-12.55151 -0.273269,-25.9375 l 0.340456,-24.33821 4.950145,-0.40361 c 7.754441,-0.63226 8.174855,0.6907 8.174855,25.7247 0,12.58052 -0.544429,22.73553 -1.29398,24.13609 -1.52372,2.8471 -10.87296,3.49023 -11.898207,0.81848 z m 23.777797,0.0724 c -0.35284,-0.91948 -0.48832,-12.62394 -0.30107,-26.00993 l 0.34046,-24.33816 4.31983,-0.41089 c 2.84713,-0.27081 4.80533,0.25308 5.74396,1.53673 1.27486,1.74348 2.09221,1.66537 7.79812,-0.7453 5.55396,-2.34649 7.00409,-2.50415 11.2718,-1.22552 11.04335,3.30868 13.99129,10.68974 13.99129,35.0315 0,16.12627 -0.60719,17.68848 -6.875,17.68848 -6.36039,0 -6.875,-1.44816 -6.875,-19.34686 0,-18.99897 -1.08289,-21.90314 -8.16706,-21.90314 -7.12231,0 -8.59643,3.74242 -9.33294,23.69413 l -0.625,16.93087 -5.32394,0.38492 c -3.5811,0.25893 -5.53394,-0.16233 -5.96545,-1.28683 z m 280.78993,-0.19683 c -0.99273,-1.19616 -1.32651,-9.13479 -1.09056,-25.9375 l 0.34002,-24.21376 4.17943,-0.40041 c 2.52338,-0.24176 5.03168,0.37086 6.33032,1.54611 1.95473,1.769 2.5996,1.71282 7.07058,-0.61591 6.22267,-3.24113 12.82446,-2.5729 18.67613,1.89039 6.01432,4.58735 7.07117,9.48567 6.62482,30.70482 l -0.38128,18.125 -5.625,0 -5.625,0 -0.65867,-17.5 c -0.39622,-10.52669 -1.2854,-18.62071 -2.23148,-20.3125 -2.31656,-4.14248 -9.21366,-3.88006 -12.64412,0.48107 -2.31123,2.93825 -2.59073,5.00152 -2.59073,19.125 0,10.64667 -0.49125,16.32268 -1.5,17.33143 -2.04261,2.04261 -9.11431,1.89711 -10.87446,-0.22374 z m 72.74294,-0.36902 c -0.7417,-1.93284 1.36586,-41.59276 3.2101,-60.40724 l 0.79642,-8.125 7.11135,-0.37261 c 5.80713,-0.30426 7.33191,0.0396 8.31395,1.875 0.66143,1.23619 4.05594,11.46724 7.54336,22.73566 3.48743,11.26844 6.55454,20.70181 6.8158,20.96308 0.26127,0.26126 3.81312,-9.80212 7.893,-22.36305 l 7.41798,-22.83808 7.36235,0 c 6.81776,0 7.42482,0.23363 8.20705,3.15845 1.20906,4.52085 4.13666,63.30215 3.26579,65.5716 -0.89358,2.3286 -8.68612,2.57428 -10.54539,0.33245 -0.71274,-0.85937 -1.6957,-10.28125 -2.18438,-20.9375 -0.48866,-10.65625 -1.2566,-20.0678 -1.70652,-20.91455 -0.44991,-0.84675 -3.82603,7.59075 -7.50246,18.75 -3.67644,11.15925 -7.26797,21.02111 -7.98117,21.91525 -0.74466,0.93358 -3.15872,1.46575 -5.67023,1.25 l -4.3735,-0.3757 -6.1679,-20 c -3.39234,-11 -6.61393,-20.47276 -7.15908,-21.05059 -0.54515,-0.57784 -1.40035,7.85966 -1.90042,18.75 -0.50008,10.89033 -1.42523,20.78497 -2.05589,21.98809 -1.54693,2.95111 -9.56685,3.02219 -10.69021,0.0948 z m 217.18417,-0.30886 c -0.87644,-1.63764 -1.2374,-10.85989 -1.01784,-26.00546 l 0.34019,-23.46792 4.17943,-0.40041 c 2.66591,-0.25543 5.04241,0.38057 6.5625,1.75622 2.15057,1.94625 2.59648,1.96925 4.57057,0.23578 2.88955,-2.53738 6.97031,-3.7113 9.5114,-2.7362 1.46,0.56026 2.0511,2.33105 2.0511,6.14461 0,5.4599 -1.26761,6.875 -6.1585,6.875 -1.21221,0 -3.27559,1.18235 -4.58526,2.62746 -2.01976,2.2286 -2.47611,5.2172 -3.00624,19.6875 l -0.625,17.06004 -5.23216,0.38045 c -4.21116,0.3062 -5.49715,-0.11475 -6.59019,-2.15708 z M 78.943026,759.47697 c -2.419523,-3.69265 -1.473527,-7.52355 2.500924,-10.12771 6.909268,-4.52713 14.601558,5.3603 8.734634,11.22722 -3.05947,3.05948 -8.883956,2.48949 -11.235558,-1.09951 z M 16.20537,722.96292 c -1.241314,-0.50089 -1.5625,-43.87749 -1.5625,-211.01757 0,-190.69241 0.185093,-210.45814 1.977234,-211.14584 1.08748,-0.41731 162.974976,-0.75874 359.750006,-0.75874 276.60104,0 358.11309,0.34032 359.27276,1.5 2.18149,2.18148 2.18149,418.56851 0,420.75 -1.16015,1.16015 -82.65381,1.47764 -359.6875,1.40131 -197.00312,-0.0543 -358.890625,-0.3824 -359.75,-0.72916 z m 120.62974,-197.60965 0.31722,-160.3125 -41.254726,0 -41.254734,0 0,159.79166 c 0,87.88543 0.382659,160.17433 0.850353,160.64203 0.467693,0.46768 18.889568,0.70206 40.9375,0.52083 l 40.087147,-0.32952 0.31724,-160.3125 z m 276.25,-0.0171 0.31724,-160.32958 -40.94224,0.32959 -40.94224,0.32962 -0.32151,158.75 c -0.17683,87.3125 -0.0509,159.46094 0.27994,160.32986 0.47113,1.2376 9.34153,1.5084 40.9465,1.25 l 40.34507,-0.32986 0.31724,-160.32959 z m 277.18276,0.32963 0,-160 -40.9375,-0.32958 -40.9375,-0.32958 0,159.80875 c 0,87.89481 0.38266,160.1914 0.85035,160.6591 0.4677,0.46768 18.88958,0.70206 40.9375,0.52083 l 40.08715,-0.32952 0,-160 z m -531.35276,51.34848 c 4.06847,-3.49167 10.32242,-8.59848 13.89766,-11.34848 8.12338,-6.24834 18.71509,-14.94347 41.72435,-34.25306 9.91058,-8.31707 18.64844,-15.12194 19.41746,-15.12194 1.48229,0 3.99987,2.02627 51.72929,41.63437 16.7288,13.88236 31.21318,25.69045 32.1875,26.24024 1.51151,0.85292 1.76973,-4.46715 1.75938,-36.25 l -0.0125,-37.24961 -8.42538,-7.60996 c -4.63395,-4.18549 -12.36287,-10.91692 -17.17537,-14.95873 -4.8125,-4.0418 -9.0318,-7.64857 -9.37622,-8.01502 -2.43707,-2.59304 -16.73483,-15.32784 -21.8074,-19.42352 -3.40098,-2.74602 -10.92051,-9.35215 -16.71006,-14.68027 -5.78954,-5.32813 -11.20037,-9.6875 -12.02406,-9.6875 -0.8237,0 -5.44228,3.51562 -10.26349,7.8125 -12.30155,10.96366 -26.41057,23.41626 -52.71775,46.52861 l -22.72565,19.96612 0,37.29516 c 0,29.48961 0.32701,37.10411 1.5625,36.38236 0.85938,-0.50204 4.89126,-3.76961 8.95974,-7.26127 z m 356.85977,-61.6222 c 2.47114,-1.86931 10.11799,-8.48002 16.99299,-14.69047 6.875,-6.21046 14.75,-13.20337 17.5,-15.53982 2.75,-2.33647 9.78125,-8.59997 15.625,-13.91892 5.84375,-5.31894 15.125,-13.56036 20.625,-18.31425 l 10,-8.64343 0.33205,-36.10265 c 0.18263,-19.85645 -0.11812,-36.55283 -0.66836,-37.10305 -0.55021,-0.55022 -3.79339,1.4203 -7.20704,4.37894 -3.41366,2.95864 -12.39415,10.36239 -19.95665,16.45278 -18.11951,14.59238 -34.24759,27.88776 -38.125,31.4288 -7.97775,7.28569 -18.25457,15.42964 -19.48329,15.43968 -0.74705,0.006 -5.05193,-2.94202 -9.56642,-6.55139 -17.9936,-14.38608 -26.80526,-21.58199 -31.64944,-25.84602 -2.79079,-2.45657 -8.91957,-7.56023 -13.61952,-11.34148 -4.69995,-3.78125 -13.35105,-10.95928 -19.22468,-15.95117 -5.91787,-5.02951 -11.15614,-8.59934 -11.74879,-8.00669 -0.58822,0.58822 -0.90375,17.14371 -0.70117,36.78998 l 0.36831,35.7205 3.125,3.37936 c 2.91421,3.15142 17.79211,16.31057 35.52386,31.42005 4.18063,3.56236 16.03864,14.07482 26.35114,23.36101 10.3125,9.2862 19.2594,16.91841 19.88201,16.96047 0.6226,0.0421 3.15385,-1.45294 5.625,-3.32223 z"
         id="path3432"
         inkscape:connector-curvature="0" />
      <path
         style="fill:#afafaf"
         d="m 166.51787,818.58544 c -16.25025,-8.96556 -17.56242,-37.44225 -2.20614,-47.87712 5.46453,-3.71324 14.42002,-4.29164 18.81249,-1.21503 3.58573,2.51154 3.87628,1.70538 4.30789,-11.95252 l 0.33576,-10.625 5.27115,-0.38235 c 4.62034,-0.33515 5.3582,-0.0265 5.97618,2.5 0.38776,1.58529 0.547,17.7886 0.35385,36.00735 l -0.35118,33.125 -4.31982,0.41089 c -2.84109,0.27023 -4.80545,-0.25324 -5.73848,-1.52923 -1.26919,-1.73572 -1.92835,-1.68023 -6.25697,0.52662 -5.32314,2.71388 -12.30782,3.15037 -16.18473,1.01139 z m 16.62416,-11.07927 c 3.5782,-3.3336 4.39825,-7.04789 3.76204,-17.03955 -0.43386,-6.81371 -1.04392,-8.67933 -3.48435,-10.65546 -4.68,-3.78964 -11.15204,-2.64203 -14.67414,2.60196 -5.0154,7.46735 -3.23967,22.59386 3.08477,26.27751 3.52347,2.05224 8.38377,1.54331 11.31168,-1.18446 z m 35.75243,10.16329 c -6.4215,-3.91575 -8.00159,-9.99374 -8.00159,-30.77899 l 0,-18.0997 5.625,0 5.625,0 0,16.31208 c 0,18.12507 1.41188,23.05346 7.00655,24.45763 3.91484,0.98256 9.41106,-2.69776 10.6516,-7.1324 0.46345,-1.65677 0.89873,-9.93527 0.96725,-18.39669 l 0.1246,-15.38437 5.3125,0.38437 5.3125,0.38438 0.33893,24.6875 0.33892,24.6875 -4.33931,0 c -2.66455,0 -4.7681,-0.7662 -5.4503,-1.98523 -0.99469,-1.7774 -1.62081,-1.71197 -5.9811,0.625 -6.0452,3.24004 -12.46549,3.32754 -17.53055,0.23892 z m 46.68591,0.91846 c -2.68874,-0.98201 -3.4375,-2.05817 -3.4375,-4.94055 0,-4.54245 2.02396,-5.41774 8.49716,-3.67469 7.11773,1.91661 11.50284,0.0763 11.50284,-4.82767 0,-3.26392 -0.91959,-4.19776 -7.68389,-7.8031 -11.32407,-6.03568 -14.67363,-12.86634 -10.38042,-21.16849 2.84277,-5.49734 8.7697,-8.62245 16.36334,-8.62798 7.82187,-0.006 12.104,2.84187 10.90593,7.25229 -0.72726,2.67724 -1.23891,2.82498 -7.20276,2.07985 -5.40056,-0.67476 -6.7686,-0.41679 -8.61617,1.62476 -3.0755,3.39839 -1.58187,6.1437 5.21708,9.58899 7.1069,3.60134 12.58382,8.9063 12.83539,12.43239 0.37895,5.31141 -0.44719,9.99981 -2.24572,12.74472 -3.708,5.65914 -17.19715,8.44518 -25.75528,5.31948 z m 45.70171,-0.9868 c -5.27628,-3.21717 -6.62355,-8.48066 -6.63223,-25.91091 -0.006,-13.53906 -0.0949,-13.98804 -2.81948,-14.375 -2.13882,-0.30377 -2.9046,-1.34944 -3.19701,-4.36557 -0.32273,-3.32891 0.079,-4.03181 2.5,-4.375 2.08644,-0.29575 2.99357,-1.35617 3.27872,-3.83272 0.44679,-3.88051 4.41714,-7.20115 8.6101,-7.20115 2.75953,0 3.34505,1.08205 4.39663,8.125 0.28196,1.88851 1.59329,2.65288 5.36116,3.125 4.56989,0.57263 4.9879,0.93928 4.9879,4.375 0,3.51814 -0.32847,3.77376 -5.3125,4.13437 l -5.3125,0.38438 0,14.67813 c 0,15.93048 0.64258,17.67812 6.5,17.67812 3.14565,0 3.5,0.4294 3.5,4.24126 0,2.71437 -0.71182,4.51441 -1.97724,5 -3.81986,1.46583 -9.93753,0.72514 -13.88355,-1.68091 z m 29.73129,0.85873 c -5.19585,-2.67026 -8.25804,-8.02558 -8.12395,-14.20761 0.2091,-9.64056 7.35461,-15.93188 20.17843,-17.76625 6.8879,-0.98527 8.2142,-3.55605 4.00577,-7.76447 -2.32255,-2.32255 -3.57454,-2.6001 -8.51435,-1.88749 -10.89639,1.57189 -10.76084,1.59773 -11.18962,-2.13372 -0.33802,-2.94152 0.27013,-3.74473 4.02235,-5.3125 6.45622,-2.69759 16.75136,-2.37087 21.77341,0.69097 7.30869,4.45596 9.1049,10.82443 8.70057,30.84776 l -0.34811,17.23923 -4.24392,0.40523 c -2.40863,0.22998 -4.65234,-0.25562 -5.18835,-1.12291 -0.72792,-1.17778 -2.12499,-1.05576 -6.09388,0.53228 -6.1055,2.44294 -10.86154,2.59519 -14.97835,0.47948 z m 16.442,-10.5852 c 1.44523,-1.30243 2.1875,-3.8143 2.1875,-7.40262 0,-5.33236 -0.0766,-5.43126 -4.20642,-5.43126 -8.6355,0 -13.79522,8.36138 -8.66077,14.03487 2.3998,2.65175 6.97549,2.13719 10.67969,-1.201 z m 187.71425,9.8657 c -9.68984,-4.53393 -13.70371,-12.93298 -12.72405,-26.62509 0.45855,-6.40884 1.42318,-9.7956 3.82283,-13.42171 7.36865,-11.13478 24.88288,-13.55134 34.47687,-4.75702 7.73549,7.09074 10.14804,23.64972 4.99616,34.29207 -5.27822,10.90337 -19.3755,15.75055 -30.57181,10.51175 z m 15.04225,-8.47606 c 3.3486,-1.28497 6.07521,-8.1668 6.1307,-15.47352 0.093,-12.25279 -6.3994,-19.48099 -14.48849,-16.13037 -5.0275,2.08244 -7.21121,7.1085 -7.21121,16.59738 0,6.88098 0.48403,8.66642 3.23611,11.93708 3.21329,3.81877 7.56058,4.90073 12.33289,3.06944 z m 37.31638,9.51448 c -5.74389,-2.31365 -7.21674,-6.85289 -7.88538,-24.30231 -0.59917,-15.6367 -0.73877,-16.32688 -3.3784,-16.70239 -5.32431,-0.75742 -5.05679,-8.16384 0.34385,-9.5193 2.16879,-0.54434 3.03455,-1.62619 3.03455,-3.79194 0,-3.47531 4.18423,-6.92206 8.40314,-6.92206 2.38736,0 2.84686,0.6658 2.84686,4.125 0,5.1973 1.90774,7.125 7.05123,7.125 4.72182,0 5.98115,1.45866 4.91763,5.69605 -0.64782,2.58114 -1.51618,3.05395 -5.60893,3.05395 -6.00443,0 -6.36523,0.84144 -6.3415,14.78974 0.0216,12.71991 1.61072,16.80427 6.89028,17.70976 2.98232,0.51149 3.79778,1.35005 4.12889,4.2458 0.23418,2.04809 -0.30635,4.0642 -1.25,4.66243 -2.13362,1.3526 -9.61252,1.25608 -13.15222,-0.16973 z m 33.98962,-0.5097 c -4.71086,-2.10272 -10.02165,-7.714 -11.92839,-12.6033 -0.80433,-2.0625 -1.45635,-7.5496 -1.44892,-12.19356 0.016,-10.0289 2.59996,-15.88994 9.44929,-21.43355 6.45606,-5.22533 17.78352,-5.98948 25.17447,-1.69828 12.51296,7.26504 15.73318,29.45654 5.95989,41.07143 -6.39136,7.5957 -18.63713,10.6822 -27.20634,6.85726 z m 17.88043,-13.2283 c 2.56012,-3.78288 2.89727,-5.53677 2.49107,-12.95894 -0.42792,-7.81931 -0.82902,-8.90493 -4.50285,-12.1875 -5.06342,-4.52416 -8.23995,-4.54957 -12.68805,-0.1015 -4.03369,4.03369 -5.71699,11.38389 -4.39671,19.19849 1.9354,11.45556 13.05414,14.97776 19.09654,6.04943 z m 58.05707,13.13641 c -4.4009,-1.91281 -5.01447,-3.85669 -2.36221,-7.48386 1.55057,-2.12055 2.20917,-2.1828 7.48001,-0.70706 5.05231,1.41456 6.17555,1.35887 8.92471,-0.44245 5.77469,-3.78371 3.71404,-7.97679 -6.42435,-13.07253 -11.2499,-5.65438 -13.81216,-15.27737 -6.26161,-23.51645 3.60693,-3.93582 5.08168,-4.62231 10.9375,-5.09132 9.39425,-0.75241 13.92824,1.14561 13.41393,5.61537 -0.37624,3.26974 -0.68833,3.42174 -6.417,3.12538 -6.92253,-0.35813 -10.85348,1.28501 -10.85348,4.53676 0,2.77759 2.77065,5.3021 9.56934,8.71924 7.23574,3.6368 10.43066,8.09517 10.43066,14.55551 0,12.22059 -15.13342,19.54391 -28.4375,13.76141 z M 17.435469,784.19275 c 0.31114,-32.52142 0.478644,-34.77187 2.61877,-35.18356 1.257502,-0.24189 3.629157,-0.10274 5.270345,0.30912 2.884302,0.72391 2.995822,1.19733 3.338631,14.1732 l 0.354655,13.42426 12.8125,0.35623 12.8125,0.35623 0,-12.91873 c 0,-13.93809 0.777634,-15.91873 6.25,-15.91873 6.100693,0 6.25,0.82472 6.25,34.52276 0,17.33753 -0.341431,32.41253 -0.758736,33.5 -0.511193,1.33215 -2.338618,1.97724 -5.601185,1.97724 -5.850696,0 -6.016926,-0.46676 -6.454984,-18.125 l -0.310095,-12.5 -12.5,0 -12.5,0 -0.625,15 -0.625,15 -5.332401,0.38535 -5.332401,0.38534 0.332401,-34.74371 z m 61.740749,32.68492 c -1.100578,-2.86806 -0.944273,-44.66338 0.173293,-46.33811 1.36995,-2.05295 7.517775,-2.8509 9.695603,-1.25844 1.612884,1.17936 1.852836,5.0363 1.563971,25.13887 l -0.341215,23.74578 -5.154152,0.37664 c -3.85345,0.28158 -5.35184,-0.13853 -5.9375,-1.66474 z m 23.589432,-0.82955 c -0.39045,-1.58529 -0.54968,-12.7261 -0.35385,-24.75735 l 0.35607,-21.875 4.31983,-0.41089 c 2.9137,-0.27715 4.80399,0.25125 5.80727,1.62331 1.35982,1.85967 1.84722,1.81489 5.68018,-0.52193 5.2821,-3.2203 12.98727,-3.29119 18.11142,-0.16664 6.51244,3.97109 8.10219,10.32537 7.68725,30.72615 l -0.35595,17.5 -5.3125,0.38437 -5.3125,0.38438 0,-15.73703 c 0,-17.8577 -1.59137,-23.81731 -6.70241,-25.1001 -4.22782,-1.06111 -7.98139,0.30556 -9.86142,3.59053 -0.93111,1.62694 -1.81341,9.53829 -2.18617,19.60285 l -0.625,16.875 -5.27115,0.38235 c -4.61923,0.33506 -5.35896,0.0259 -5.98107,-2.5 z m 281.46056,1.90931 c -0.45834,-0.45832 -0.83334,-11.70832 -0.83334,-25 l 0,-24.16666 4.86626,0 c 3.19467,0 5.11599,0.65076 5.59324,1.89445 0.62778,1.63597 1.36835,1.5507 5.42773,-0.625 8.95635,-4.80031 19.22803,-2.00687 23.5823,6.41334 2.26947,4.38867 4.11465,32.82734 2.53761,39.11076 -0.76614,3.05252 -1.30238,3.3126 -6.11099,2.9638 l -5.27115,-0.38235 -0.625,-17.68675 c -0.53327,-15.09088 -0.97449,-18.07214 -3.00624,-20.3125 -3.13867,-3.46096 -7.29396,-3.32212 -11.61156,0.38799 -3.49159,3.00033 -3.50901,3.09211 -3.91417,20.625 l -0.40699,17.61126 -4.69719,0 c -2.58345,0 -5.07219,-0.375 -5.53051,-0.83334 z m 72.49535,-0.0871 c -0.69746,-1.12854 2.30939,-52.14644 3.62932,-61.57959 0.4329,-3.09375 1.43508,-6.03826 2.22704,-6.54336 2.34778,-1.49734 10.40668,-1.08269 11.77513,0.60586 1.37721,1.69938 12.22985,35.25911 13.55006,41.90101 0.44696,2.24868 1.24257,4.35421 1.76802,4.67897 0.52545,0.32473 4.38797,-10.03214 8.58335,-23.01529 4.90209,-15.17014 8.33642,-23.87758 9.61042,-24.36645 3.40355,-1.30607 10.16178,-0.83313 11.52242,0.80633 1.12653,1.35738 4.41933,46.105 4.5758,62.18293 l 0.0548,5.625 -4.9788,0 c -4.83892,0 -5.00177,-0.14046 -5.79682,-5 -0.44992,-2.75 -1.22105,-13.01563 -1.71365,-22.8125 -0.84993,-16.90355 -1.9574,-21.29501 -3.78283,-15 -4.56799,15.75275 -13.59249,41.7231 -14.75549,42.46276 -2.30108,1.46349 -5.50467,1.13891 -7.39257,-0.749 -0.94805,-0.94805 -4.45733,-10.93242 -7.7984,-22.1875 -3.34106,-11.25506 -6.48779,-20.94287 -6.99274,-21.52845 -0.50495,-0.58559 -1.25762,3.91441 -1.67261,10 -0.41498,6.08558 -1.17338,16.40844 -1.6853,22.93969 l -0.93079,11.875 -4.57137,0.38104 c -2.51425,0.20956 -4.86548,-0.0949 -5.22494,-0.67645 z m 217.50465,0.0871 c -0.45834,-0.45832 -0.83334,-11.70832 -0.83334,-25 l 0,-24.16666 4.31289,0 c 2.71576,0 4.74216,0.76709 5.47212,2.07144 1.05509,1.88535 1.56418,1.82116 5.66708,-0.71457 2.47931,-1.53229 5.78247,-2.60507 7.34037,-2.38393 2.3987,0.34048 2.83254,1.16002 2.83254,5.35081 0,4.64544 -0.26631,5.00323 -4.34492,5.83739 -7.51685,1.53736 -8.77773,4.44544 -8.79714,20.28984 -0.0227,18.52731 -0.34521,19.54902 -6.17039,19.54902 -2.55524,0 -5.02089,-0.375 -5.47921,-0.83334 z M 81.171003,760.59489 c -5.925814,-4.15061 -1.135475,-13.46003 5.69722,-11.07184 2.759466,0.96449 3.472727,2.06708 3.787735,5.85518 0.33716,4.05452 -0.0426,4.83069 -2.893874,5.91474 -4.026453,1.53085 -3.298801,1.60792 -6.591081,-0.69808 z M 15.401606,720.56353 c -0.991866,-2.58476 -0.991866,-414.71076 0,-417.29553 0.689432,-1.79663 33.565564,-1.97723 359.926224,-1.97723 215.59049,0 359.44979,0.45675 359.87367,1.1426 0.92327,1.4939 0.92327,417.4709 0,418.9648 -0.42388,0.68585 -144.28318,1.1426 -359.87367,1.1426 -326.36066,0 -359.236792,-0.1806 -359.926224,-1.97724 z m 121.741264,-195.53961 0,-161.26685 -41.5625,0.32935 -41.5625,0.32935 -0.321499,159.375 c -0.176825,87.65625 -0.05385,160.07813 0.273269,160.9375 0.459241,1.20646 10.003158,1.5625 41.883999,1.5625 l 41.289231,0 0,-161.26685 z m 276.875,0.0168 0,-160.625 -41.25,0 -41.25,0 -0.31721,160.95436 -0.31723,160.95435 41.56723,-0.32935 41.56721,-0.32936 0,-160.625 z m 276.56721,0.3125 -0.31721,-160.9375 -41.25,0 -41.25,0 -0.3215,159.375 c -0.17682,87.65625 -0.0539,160.07813 0.27328,160.9375 0.45923,1.20646 10.0041,1.5625 41.88871,1.5625 l 41.29395,0 -0.31723,-160.9375 z m -517.87447,41.5625 c 7.51145,-6.1875 24.01901,-19.82812 36.68349,-30.3125 12.66447,-10.48437 24.01998,-19.0625 25.23448,-19.0625 1.2145,0 2.9297,0.86939 3.81157,1.93196 0.88186,1.06258 6.71636,6.06882 12.96555,11.12498 6.2492,5.05616 23.97688,19.6275 39.39486,32.38073 15.41797,12.75324 28.4961,22.9013 29.0625,22.55125 0.5664,-0.35006 1.02981,-17.25258 1.02981,-37.56118 l 0,-36.92472 -4.0625,-3.81609 c -4.34422,-4.08075 -34.20482,-30.42272 -55.87691,-49.29264 -7.25208,-6.31439 -16.13556,-14.0967 -19.74108,-17.294 -3.60552,-3.19731 -7.08256,-5.62474 -7.72676,-5.39429 -1.13469,0.40591 -77.86302,67.62195 -83.53025,73.17469 -2.79031,2.73393 -2.8125,3.04537 -2.8125,39.47916 0,20.19791 0.34903,37.0725 0.7756,37.49909 0.87574,0.87573 5.24058,-2.37849 24.79214,-18.48394 z m 355.73464,-61.5625 c 9.13752,-8.07813 19.83406,-17.5 23.77008,-20.9375 3.93603,-3.4375 15.65492,-13.75781 26.04198,-22.93404 l 18.88556,-16.68403 0,-38.00347 c 0,-20.9019 -0.31611,-38.00346 -0.70247,-38.00346 -0.70939,0 -23.06717,18.27456 -62.29277,50.9162 -11.75887,9.78515 -22.22351,17.77894 -23.25476,17.76395 -1.83045,-0.0266 -10.24572,-6.7709 -60.35124,-48.36765 -13.45712,-11.17188 -24.78953,-20.3125 -25.18313,-20.3125 -0.39359,0 -0.71563,17.11989 -0.71563,38.04421 l 0,38.04422 14.0625,12.42568 c 52.04493,45.98713 71.3088,62.73589 72.15679,62.73589 0.53316,0 8.44556,-6.60937 17.58309,-14.6875 z"
         id="path3430"
         inkscape:connector-curvature="0" />
      <path
         style="fill:#919191"
         d="m 222.18616,818.37762 c -9.02241,-3.04485 -11.76401,-11.93092 -11.05665,-35.83685 l 0.38836,-13.125 4.24393,-0.40523 c 2.55231,-0.24371 4.66221,0.25454 5.29335,1.25 0.5772,0.91038 1.05806,9.10836 1.06858,18.21773 0.0173,14.88112 0.27293,16.81629 2.51914,19.0625 3.36625,3.36625 10.13524,3.30197 13.24376,-0.12575 2.03175,-2.24036 2.47297,-5.22163 3.00624,-20.3125 l 0.625,-17.68675 3.51309,-0.40283 c 6.73844,-0.77264 7.11191,0.52343 7.11191,24.68088 0,22.78216 -0.47769,25.09695 -5.17912,25.09695 -1.19852,0 -2.98333,-1.14817 -3.96627,-2.5515 -1.77453,-2.53353 -1.81687,-2.53456 -6.00837,-0.14647 -5.9288,3.37789 -9.7955,3.97472 -14.80295,2.28482 z m 46.44621,0.1245 c -5.93244,-1.25281 -7.38986,-3.19332 -5.31296,-7.07404 1.13856,-2.12743 1.90497,-2.35431 4.55262,-1.34767 7.53292,2.86401 15.52084,0.17098 15.52084,-5.23264 0,-2.32726 -4.13697,-5.9545 -10.42372,-9.13939 -6.56947,-3.32813 -9.57628,-7.50931 -9.57628,-13.31646 0,-9.54446 10.50991,-16.1644 21.66766,-13.64791 5.95963,1.34411 6.3136,1.7091 5.35634,5.52311 -0.73262,2.91902 -1.147,3.05452 -7.37545,2.41169 -5.06802,-0.52306 -6.97525,-0.22802 -8.21984,1.27162 -3.16785,3.81703 -1.16681,7.28213 6.69629,11.59563 11.17196,6.12866 14.41458,13.20787 9.97884,21.78562 -3.29684,6.37539 -12.68596,9.31988 -22.86434,7.1704 z m 46.53384,0.16393 c -7.59656,-2.14477 -8.5824,-4.60832 -9.27334,-23.17368 -0.6099,-16.38777 -0.7005,-16.83105 -3.75,-18.34696 -2.04736,-1.01774 -3.125,-2.5989 -3.125,-4.58517 0,-2.20571 0.85143,-3.23075 3.125,-3.7622 2.39035,-0.55876 3.21538,-1.65113 3.50945,-4.64666 0.30524,-3.10924 1.19045,-4.19715 4.29609,-5.27979 4.66992,-1.62793 5.63767,-0.8561 6.16784,4.91922 0.37451,4.0796 0.73921,4.4172 5.40162,5 4.09906,0.51238 5.07601,1.16261 5.42186,3.60863 0.50798,3.5926 -1.54276,5.09659 -6.98436,5.12223 l -4.0625,0.0191 0,14.13609 c 0,14.84251 0.94831,17.99331 5.625,18.68922 1.375,0.20462 3.20313,0.81082 4.0625,1.34713 1.702,1.06216 2.13474,5.35898 0.625,6.20596 -2.46621,1.38357 -7.56266,1.72836 -11.03916,0.74684 z m 235.72666,0.10846 c -9.132,-1.60903 -15.19209,-7.81037 -17.4416,-17.84815 -4.44137,-19.81832 9.44828,-36.02032 27.43364,-32.00078 9.92946,2.21914 15.86582,9.94538 16.91979,22.02134 1.5538,17.80283 -10.87389,30.65341 -26.91183,27.82759 z m 9.72901,-9.43461 c 4.18385,-2.93049 6.52099,-8.45193 6.52099,-15.40568 0,-7.27085 -1.40185,-11.5453 -4.95009,-15.09354 -3.49498,-3.49499 -10.09916,-3.36652 -13.49875,0.26259 -12.05036,12.86391 -1.48973,39.63466 11.92785,30.23662 z m 39.41213,9.29186 c -7.80649,-2.19803 -9.14114,-5.67652 -9.14114,-23.82459 l 0,-16.14645 -3.81891,-1.33127 c -3.1268,-1.09002 -3.74979,-1.92582 -3.4375,-4.61179 0.2459,-2.11496 1.26965,-3.44672 2.88141,-3.7483 3.00824,-0.56289 4.33016,-2.3819 4.35586,-5.9938 0.0135,-1.89215 1.2009,-3.10219 4.00273,-4.07892 4.74341,-1.65356 5.70819,-0.89685 6.23979,4.89413 0.37451,4.0796 0.73921,4.4172 5.40162,5 4.09906,0.51239 5.07601,1.16261 5.42186,3.60864 0.46899,3.31688 -1.85336,5.4162 -4.93326,4.45948 -1.10627,-0.34365 -2.9344,-0.27062 -4.0625,0.16227 -1.72881,0.66341 -2.0511,2.93955 -2.0511,14.48552 0,14.87935 1.06858,18.53409 5.41898,18.53409 1.55706,0 3.50602,0.675 4.33102,1.5 1.66983,1.66982 2.01329,5.5645 0.5625,6.3784 -2.49271,1.39845 -7.58241,1.7231 -11.17136,0.71259 z m 36.3066,0.16711 c -5.82568,-1.31583 -12.01596,-5.56431 -14.6657,-10.0653 -2.96798,-5.04155 -4.09074,-18.07988 -2.08124,-24.16871 3.3529,-10.1594 11.56151,-16.13426 22.03689,-16.04013 14.07142,0.12644 21.76231,9.12276 21.76231,25.45624 0,10.41031 -3.47599,17.59085 -10.43256,21.55109 -6.12646,3.48767 -11.21421,4.48773 -16.6197,3.26681 z m 11.38814,-10.48034 c 6.64466,-6.64466 7.20511,-21.01904 1.10231,-28.27182 -5.09406,-6.05394 -13.51428,-4.85224 -17.30025,2.46904 -2.21969,4.29241 -2.52379,17.69603 -0.49164,21.6697 3.70481,7.24437 11.6185,9.20416 16.68958,4.13308 z m 64.37166,10.55495 c -5.78128,-1.11422 -7.45754,-2.23887 -7.45754,-5.00342 0,-3.19419 2.6453,-4.96368 5.625,-3.76267 4.11753,1.65964 11.46106,1.31331 13.06226,-0.61603 0.82137,-0.98968 1.31212,-3.3803 1.09057,-5.3125 -0.31265,-2.72663 -1.72207,-4.22448 -6.29575,-6.69083 -11.85012,-6.39011 -15.19622,-12.17505 -11.77643,-20.35975 2.41453,-5.77877 8.09299,-8.67939 16.83756,-8.60081 8.04762,0.0724 11.22559,2.27401 9.07705,6.2886 -1.11237,2.07847 -2.19307,2.434 -5.67917,1.86829 -13.37371,-2.17027 -15.71623,6.36978 -3.4587,12.60936 3.24094,1.64977 7.29886,4.50707 9.01761,6.34957 6.71051,7.19363 1.97748,20.5576 -7.98817,22.55507 -2.13775,0.42847 -4.73058,0.94723 -5.76183,1.15278 -1.03125,0.20555 -3.86285,-0.01 -6.29246,-0.47766 z M 18.684175,817.74726 c -1.227046,-0.77885 -1.508546,-8.44543 -1.25,-34.04337 l 0.333695,-33.03812 4.243919,-0.40523 c 2.55232,-0.24371 4.66222,0.25454 5.29336,1.25 0.577191,0.91038 1.058052,7.07943 1.06858,13.70899 0.0156,9.82648 0.384495,12.19396 1.996375,12.8125 2.85096,1.09401 22.117789,0.89838 23.913584,-0.24282 0.988916,-0.62844 1.640668,-5.50993 1.875,-14.04336 l 0.359182,-13.08008 4.375,0 4.375,0 0,33.75 0,33.75 -4.375,0 -4.375,0 -0.625,-15 -0.625,-15 -13.4375,-0.35479 -13.4375,-0.35479 0,14.16729 c 0,9.35234 -0.509796,14.67709 -1.5,15.66729 -1.711304,1.7113 -5.867644,1.94244 -8.208695,0.45649 z m 61.54585,-0.47937 c -0.355111,-0.92541 -0.491869,-12.07071 -0.303906,-24.76733 l 0.341751,-23.08479 4.375,0 4.375,0 0,24.375 0,24.375 -4.071094,0.39234 c -2.559105,0.24662 -4.310888,-0.23255 -4.716751,-1.29022 z m 23.750005,0 c -0.35512,-0.92541 -0.49187,-12.07071 -0.30391,-24.76733 l 0.34175,-23.08479 3.03232,-0.42825 c 2.01787,-0.28498 3.73524,0.50365 5.13345,2.3573 l 2.10114,2.78554 3.89288,-2.87813 c 4.73483,-3.50061 13.49346,-3.87711 18.21565,-0.78302 5.89892,3.86512 7.30904,8.6956 7.97932,27.33402 0.66453,18.47839 0.0244,20.98754 -5.35476,20.98754 -1.55039,0 -3.4041,-0.70514 -4.11936,-1.56697 -0.71526,-0.86185 -1.48726,-9.28087 -1.71556,-18.70894 -0.44698,-18.4594 -0.99027,-20.03197 -7.46878,-21.61876 -2.58317,-0.63271 -4.21891,0.007 -7.5,2.93738 l -4.1963,3.74658 -0.625,17.29286 -0.625,17.29285 -4.07109,0.39234 c -2.55911,0.24662 -4.31089,-0.23255 -4.71675,-1.29022 z m 59.45394,-1.75936 c -6.17192,-5.19332 -8.79525,-11.58591 -8.76365,-21.35546 0.0567,-17.54687 8.31018,-26.63546 23.09755,-25.43482 2.0625,0.16746 4.44596,0.87772 5.29659,1.57835 0.85061,0.70062 2.37604,0.95557 3.38982,0.56653 1.40305,-0.5384 1.92927,-3.48241 2.20343,-12.32734 l 0.36016,-11.62002 4.375,0 4.375,0 0,35.625 0,35.625 -3.03231,0.42825 c -2.02754,0.28634 -3.73824,-0.50762 -5.1627,-2.39606 l -2.13038,-2.82432 -3.44337,2.70857 c -5.18928,4.08187 -15.36984,3.79788 -20.56514,-0.57368 z m 21.2089,-8.74931 c 2.77328,-2.68431 3.125,-4.05466 3.125,-12.17521 0,-10.49141 -1.8312,-14.95403 -7.01785,-17.1024 -8.61476,-3.56837 -15.43096,3.38779 -15.46262,15.78009 -0.0231,9.05067 2.26176,14.02523 7.48047,16.2861 4.5427,1.96798 7.73539,1.21826 11.875,-2.78858 z m 154.86006,10.157 c -4.29118,-2.33223 -6.60265,-8.15709 -5.75241,-14.49606 1.11349,-8.30174 6.91779,-12.85472 19.64235,-15.40774 6.27354,-1.25871 6.84558,-1.65135 6.53868,-4.48803 -0.54729,-5.05842 -3.66977,-6.45751 -13.41368,-6.01026 -8.03166,0.36866 -8.75,0.19779 -8.75,-2.08152 0,-5.62995 18.02563,-8.45158 24.96113,-3.90725 7.25246,4.75198 8.22195,8.31341 7.86455,28.89041 l -0.32568,18.75 -3.05496,0.43121 c -1.8863,0.26625 -3.68548,-0.43105 -4.70313,-1.82277 -1.564,-2.13891 -1.83273,-2.14496 -5.2629,-0.11875 -4.35355,2.5717 -13.25127,2.70243 -17.74395,0.26072 z m 18.39293,-8.7648 c 2.54414,-2.54414 3.06661,-4.14388 2.75569,-8.4375 -0.37943,-5.23953 -0.43504,-5.29661 -5.025,-5.15966 -9.23449,0.27552 -14.62005,7.28327 -10.46765,13.62062 2.75345,4.20229 8.52183,4.19167 12.73696,-0.0235 z m 26.87129,8.9141 c -0.99004,-1.19294 -1.32653,-8.81016 -1.09055,-24.6875 l 0.34127,-22.96225 4.15698,-0.39875 c 3.33576,-0.31996 4.29057,0.11212 4.83328,2.1875 0.8354,3.19459 1.01994,3.19426 5.51963,-0.01 5.04549,-3.59271 13.63206,-3.79887 18.21464,-0.43734 6.88633,5.05145 7.96685,9.21278 7.60355,29.28339 l -0.32808,18.125 -4.375,0 -4.375,0 -0.625,-17.92108 c -0.62382,-17.88739 -0.63179,-17.92692 -4.23841,-21.02886 -4.32914,-3.72333 -8.69419,-3.19521 -12.94909,1.5667 -2.60489,2.91529 -2.8125,4.3236 -2.8125,19.07794 0,10.72356 -0.49026,16.42056 -1.5,17.4303 -2.02201,2.02201 -6.61314,1.89854 -8.37572,-0.22525 z m 72.821,-0.16736 c -0.67394,-1.75624 1.14503,-35.26056 3.08681,-56.85739 l 0.84291,-9.375 5.73449,-0.3727 c 3.62786,-0.23577 6.18376,0.22343 6.95749,1.25 1.3484,1.78908 12.41066,36.69144 13.70297,43.23402 1.22315,6.19243 3.2607,4.22367 6.29623,-6.08363 1.50275,-5.10273 4.88701,-15.74644 7.52056,-23.65269 l 4.78826,-14.375 5.48233,-0.39268 c 3.01528,-0.21596 6.03605,0.16105 6.71281,0.83782 1.37471,1.37471 5.31322,62.97635 4.21019,65.85082 -0.85783,2.23548 -6.23957,2.41438 -8.01795,0.26654 -0.71155,-0.85937 -1.70842,-10.83619 -2.21524,-22.17071 -0.50684,-11.33452 -1.33046,-22.02202 -1.83028,-23.75 -1.1492,-3.97302 -0.82611,-4.73865 -9.93486,23.54335 l -7.1064,22.06486 -4.23462,0 -4.23463,0 -4.64485,-15 c -2.55467,-8.25 -5.85835,-19.16941 -7.34152,-24.26538 -1.7084,-5.86981 -3.06009,-8.67735 -3.6883,-7.66087 -0.5454,0.88246 -1.40405,10.95425 -1.90813,22.38174 -0.50406,11.42749 -1.39916,22.04676 -1.98909,23.59838 -1.25135,3.29132 -7.03102,3.94663 -8.18918,0.92852 z m 217.91141,1.0175 c -0.52218,-0.84492 -1.37729,-42.38605 -0.98075,-47.64542 0.20812,-2.76051 6.77205,-1.19553 8.35195,1.99128 1.30235,2.62698 1.54477,2.68433 3.15347,0.74596 2.21398,-2.66766 8.61017,-5.3915 10.74068,-4.57395 0.89537,0.34359 1.62796,2.5116 1.62796,4.81779 0,3.83122 -0.42966,4.30879 -4.97874,5.53373 -2.84753,0.76676 -5.65431,2.52638 -6.55695,4.11067 -0.93605,1.64295 -1.83476,9.38201 -2.20875,19.02005 l -0.63056,16.25 -3.94519,0.38295 c -2.16985,0.21063 -4.22776,-0.0743 -4.57312,-0.63306 z M 80.955604,759.49136 c -0.821358,-0.98968 -1.312108,-3.3803 -1.090556,-5.3125 0.734632,-6.40686 11.027822,-5.10949 11.027822,1.38996 0,5.24916 -6.655837,7.87642 -9.937266,3.92254 z M 17.45537,721.71292 c -1.241267,-0.50086 -1.5625,-43.65424 -1.5625,-209.90131 l 0,-209.27084 360,0 360,0 0,209.24126 c 0,189.64755 -0.18515,209.31231 -1.97724,210 -2.3662,0.908 -714.208902,0.83933 -716.46026,-0.0691 z m 120.6297,-196.35965 0.3172,-161.5625 -42.504701,0 -42.504699,0 0,161.04166 c 0,88.57293 0.382458,161.42413 0.849904,161.89158 0.467447,0.46745 19.451822,0.70182 42.1875,0.52083 l 41.337596,-0.32907 0.3172,-161.5625 z m 276.25,-0.0166 0.3172,-161.57913 -42.1922,0.32913 -42.1922,0.32912 -0.32149,160 c -0.17682,88 -0.051,160.71072 0.27975,161.57939 0.4713,1.23805 9.5909,1.50821 42.19649,1.25 l 41.59525,-0.32939 0.3172,-161.57914 z m 277.1828,0.32912 0,-161.25 -42.1875,-0.32913 -42.1875,-0.32913 0,161.0583 c 0,88.58206 0.38246,161.44075 0.8499,161.9082 0.46745,0.46745 19.45183,0.70182 42.1875,0.52083 l 41.3376,-0.32907 0,-161.25 z m -533.50317,54.0625 c 5.18391,-4.29687 11.55608,-9.5 14.16037,-11.5625 2.60429,-2.0625 17.02181,-13.90655 32.03894,-26.3201 15.01712,-12.41355 27.97262,-22.97239 28.79,-23.46408 1.27701,-0.76817 35.73492,26.76337 76.63886,61.23371 5.15625,4.34525 9.79688,7.90608 10.3125,7.91296 0.51563,0.007 0.9375,-17.63763 0.9375,-39.21003 0,-37.16982 -0.12487,-39.31229 -2.38671,-40.9375 -1.31269,-0.94322 -18.00405,-15.49621 -37.09191,-32.33996 -48.86419,-43.11934 -46.76357,-41.3789 -48.65903,-40.31551 -0.92205,0.51727 -13.06211,11.06551 -26.97791,23.44051 -13.9158,12.375 -30.1295,26.63117 -36.03045,31.68039 -5.90094,5.04921 -13.40086,11.77807 -16.66649,14.95301 l -5.9375,5.77262 0,38.48449 c 0,21.16647 0.32548,38.48449 0.72326,38.48449 0.3978,0 4.96465,-3.51562 10.14857,-7.8125 z m 397.29303,-97.11406 43.08514,-38.025 0,-37.82545 c 0,-21.98005 -0.48715,-38.12652 -1.16291,-38.54416 -0.6396,-0.3953 -15.90475,11.52463 -33.92256,26.48873 -30.86668,25.63529 -38.57987,31.99369 -48.35343,39.86031 l -4.0639,3.27099 -5.9361,-4.81149 c -5.37914,-4.36005 -40.06071,-32.99067 -68.24002,-56.33407 -6.07965,-5.03632 -11.56403,-8.84167 -12.1875,-8.45635 -1.23759,0.76487 -1.60955,72.8582 -0.39229,76.03035 0.65014,1.69424 13.9695,13.63784 72.27564,64.81025 7.62193,6.6894 14.29788,12.02718 14.83543,11.86171 0.53754,-0.16546 20.36567,-17.41209 44.0625,-38.32582 z"
         id="path3428"
         inkscape:connector-curvature="0" />
      <path
         style="fill:#6e6e6e"
         d="m 165.87337,816.47314 c -8.90926,-4.74075 -13.20396,-19.00413 -9.52872,-31.64647 3.7449,-12.88202 16.13663,-19.68396 25.79822,-14.1609 5.75485,3.28978 6.13563,2.68725 6.51724,-10.3125 l 0.35776,-12.1875 4.0625,-0.3917 4.0625,-0.3917 0.20834,32.5792 c 0.11462,17.91856 0.2552,33.56358 0.3125,34.7667 0.16316,3.42638 -6.74859,3.79257 -7.63459,0.4045 -0.87061,-3.32919 -1.78637,-3.26305 -7.38017,0.533 -5.47478,3.71529 -10.8267,3.97286 -16.77558,0.80737 z m 18.86565,-8.83622 c 3.42505,-3.42504 3.65385,-4.2755 3.65385,-13.58142 0,-8.23874 -0.45321,-10.50376 -2.66415,-13.31451 -5.48475,-6.97272 -13.86312,-6.46674 -18.55224,1.12038 -3.26767,5.28721 -3.54071,18.61061 -0.47573,23.21376 4.99567,7.50278 12.0898,8.51028 18.03827,2.56179 z m 36.27435,9.64031 c -1.65247,-0.8863 -4.18372,-3.1974 -5.625,-5.13576 -2.34582,-3.15488 -2.66247,-5.54609 -3.02099,-22.8125 l -0.4005,-19.2882 4.463,0 4.46299,0 0,15.43847 c 0,8.49116 0.62166,17.22178 1.38148,19.40139 2.42907,6.96803 9.74286,8.54658 15.73632,3.3964 3.49159,-3.00033 3.50901,-3.09211 3.91418,-20.625 l 0.40698,-17.61126 4.28052,0 4.28052,0 0,23.75 0,23.75 -2.97254,0 c -1.66177,0 -3.7652,-1.19383 -4.77015,-2.70735 l -1.79761,-2.70736 -3.78797,2.80056 c -4.62627,3.42035 -12.47777,4.53542 -16.55123,2.35061 z m 45.817,0.0606 c -2.0658,-0.7545 -3.4375,-2.18208 -3.4375,-3.57755 0,-3.33662 1.19611,-3.67115 7.75753,-2.16969 7.39856,1.69304 12.24247,-0.83328 12.24247,-6.385 0,-4.0126 -2.149,-6.25481 -9.56934,-9.9844 -11.10267,-5.58039 -13.2368,-14.2013 -5.44456,-21.99354 3.45894,-3.45894 4.55644,-3.81197 11.85044,-3.81197 8.52924,0 11.26767,1.34597 9.91425,4.87293 -0.67043,1.74713 -1.75595,2.00976 -5.61326,1.35807 -5.89553,-0.99605 -9.483,0.0525 -11.2081,3.27587 -2.21288,4.13479 -0.0905,7.25084 7.57392,11.11981 4.02399,2.03132 8.20066,4.95583 9.2815,6.49893 2.55649,3.6499 2.51721,12.15495 -0.0733,15.8533 -3.93647,5.62009 -14.99189,7.96817 -23.27414,4.94324 z m 45.63468,-0.44274 c -4.87535,-3.44865 -5.83967,-6.95333 -6.52924,-23.72941 -0.64399,-15.66724 -0.7688,-16.26433 -3.48044,-16.64944 -3.93059,-0.55824 -3.96911,-6.13467 -0.0463,-6.70112 1.99648,-0.28829 2.99965,-1.54756 3.6051,-4.52538 1.00745,-4.95499 0.89724,-4.82961 5.19375,-5.90796 3.15864,-0.79278 3.43494,-0.56879 3.43494,2.78447 0,5.08879 2.38482,7.6698 7.5,8.11696 3.41417,0.29847 4.375,0.9315 4.375,2.88247 0,2.01415 -0.96854,2.57882 -4.98378,2.90562 -2.74108,0.22309 -5.40435,1.06684 -5.91836,1.875 -1.42631,2.24249 -1.14989,23.96603 0.35534,27.92506 1.56367,4.11277 3.24356,5.37407 7.19232,5.40018 2.41778,0.016 2.83028,0.58632 2.5,3.45664 -0.34968,3.03917 -0.97491,3.47875 -5.39552,3.79352 -3.06578,0.2183 -6.08426,-0.41095 -7.80283,-1.62661 z m 28.14675,-0.0529 c -4.53269,-2.45977 -5.96893,-5.46012 -5.96893,-12.46929 0,-4.93026 0.63733,-6.46951 4.12115,-9.95333 4.14823,-4.14823 11.0438,-6.85898 17.48058,-6.87188 3.88477,-0.007 5.29136,-2.27456 4.17398,-6.72653 -0.92757,-3.69573 -6.83392,-6.28523 -12.31016,-5.3971 -2.2498,0.36486 -5.194,0.84975 -6.54266,1.07752 -1.55574,0.26275 -2.61901,-0.39412 -2.90869,-1.79695 -1.01649,-4.92242 14.2946,-7.69866 22.81793,-4.13739 7.34926,3.07073 8.71335,7.4677 8.7558,28.22348 l 0.0371,18.125 -3.05496,0.43121 c -1.87541,0.26471 -3.68356,-0.42844 -4.68298,-1.79522 -1.54923,-2.11872 -1.86325,-2.09422 -6.49022,0.50628 -5.61555,3.15613 -10.59115,3.40904 -15.42791,0.78423 z m 15.23903,-6.15476 c 5.91173,-3.05707 8.28607,-15.38441 3.3295,-17.28642 -3.02543,-1.16098 -11.32916,1.41348 -13.59996,4.21647 -3.15496,3.89436 -2.85129,10.56651 0.59064,12.97734 3.45624,2.42084 5.14626,2.43701 9.67982,0.0926 z m 191.03988,6.40131 c -9.26319,-4.11131 -14.25274,-13.80206 -13.18264,-25.60337 0.36354,-4.00911 1.56574,-9.03894 2.67158,-11.17738 7.68842,-14.86777 30.23891,-15.0958 37.89603,-0.3832 5.1551,9.90518 3.04634,26.45548 -4.18952,32.88073 -6.10016,5.41679 -16.36905,7.31301 -23.19545,4.28322 z m 16.68327,-9.46533 c 6.56615,-7.10625 6.14213,-21.50948 -0.83873,-28.49034 -4.94822,-4.94821 -9.04339,-5.23436 -14.09369,-0.98483 -6.7847,5.70897 -8.06131,19.10604 -2.66601,27.9779 4.42201,7.27143 11.69163,7.88992 17.59843,1.49727 z m 34.02399,9.73602 c -4.60949,-2.285 -5.94332,-7.13514 -6.65355,-24.19373 -0.65216,-15.66422 -0.77794,-16.26441 -3.48905,-16.64944 -4.1209,-0.58527 -3.88164,-5.9362 0.3125,-6.98887 2.4486,-0.61456 3.125,-1.58133 3.125,-4.46653 0,-3.72187 2.76071,-6.27016 6.79283,-6.27016 1.38085,0 1.95717,1.21468 1.95717,4.125 0,5.1973 1.90774,7.125 7.05123,7.125 4.47308,0 5.84992,1.25016 4.6941,4.26219 -0.51143,1.33275 -2.32239,1.98783 -5.49533,1.98783 -5.92292,0 -6.25,0.81876 -6.25,15.64586 0,14.45565 1.0974,17.66922 6.51311,19.07257 3.23253,0.83762 4.11189,1.71681 4.11189,4.11103 0,2.67669 -0.60555,3.07686 -5,3.30416 -2.75,0.14224 -6.20145,-0.33696 -7.6699,-1.06488 z m 33.25241,-1.38121 c -7.94931,-4.0123 -11.16041,-10.23486 -11.18695,-21.6784 -0.027,-11.62351 3.38733,-18.49411 11.29537,-22.72979 4.40988,-2.36201 6.92641,-2.8703 12.17341,-2.45879 10.88177,0.85344 18.19439,8.33604 19.66725,20.12442 1.50894,12.07709 -3.23831,22.55626 -12.1791,26.88442 -7.06808,3.4216 -12.79131,3.38053 -19.76998,-0.14186 z m 14.24224,-5.15871 c 5.45295,-2.27839 8.30025,-8.4429 8.30025,-17.97035 0,-12.52655 -7.42744,-20.21287 -16.07201,-16.63217 -6.13953,2.54308 -8.25055,6.92017 -8.27851,17.16507 -0.0266,9.73714 2.19108,14.47884 8.22102,17.57774 3.6879,1.89528 2.9247,1.90896 7.82925,-0.14029 z m 63.74066,6.72957 c -3.68446,-1.48659 -4.38811,-3.01017 -2.55071,-5.52296 1.30811,-1.78895 2.15624,-1.90606 5.25945,-0.72623 4.89168,1.85982 11.47864,0.52196 13.19195,-2.67938 2.43416,-4.54828 0.3562,-8.31101 -6.51166,-11.79121 -8.95153,-4.53609 -12.32944,-8.52711 -12.32944,-14.56727 0,-9.18241 10.3064,-15.38224 21.12584,-12.70826 3.29517,0.81439 4.49916,1.78095 4.49916,3.61195 0,2.22203 -0.69904,2.4552 -6.28697,2.09713 -5.01884,-0.32162 -6.74102,0.0989 -8.53795,2.08441 -3.94653,4.36087 -2.19402,7.77365 6.51608,12.68921 11.01837,6.21822 13.97099,12.72209 9.60687,21.16139 -3.10724,6.00873 -16.22288,9.4821 -23.98262,6.35122 z M 18.39287,784.6407 l 0,-33.05849 3.044193,-0.58193 c 1.674306,-0.32006 3.622048,-0.2248 4.328317,0.2117 0.706508,0.43664 1.44569,6.67723 1.643308,13.87371 l 0.359182,13.08008 14.0625,0.35344 c 7.734375,0.19438 14.134063,0.19438 14.221528,0 0.08746,-0.19439 0.50934,-6.49626 0.9375,-14.00418 0.743636,-13.03987 0.905185,-13.65987 3.610116,-13.85501 1.557405,-0.11237 3.395337,0.47494 4.084296,1.30508 0.784341,0.94507 1.127674,13.36832 0.918356,33.23001 l -0.334296,31.72066 -4.0625,0.3917 -4.0625,0.3917 0,-13.59029 c 0,-18.26274 0.238598,-18.0053 -16.267586,-17.5526 l -13.107414,0.35949 -0.625,15 -0.625,15 -4.0625,0.3917 -4.0625,0.3917 0,-33.05847 z m 62.5,9.15007 0,-23.9084 4.0625,0.3917 4.0625,0.3917 0,23.125 0,23.125 -4.0625,0.3917 -4.0625,0.3917 0,-23.9084 z m 23.52679,3.2042 c -0.12277,-11.38731 -0.2634,-21.96982 -0.3125,-23.5167 -0.12612,-3.97264 6.64163,-4.88348 7.64947,-1.0295 0.83917,3.209 1.01203,3.20671 5.61995,-0.0744 5.75692,-4.09929 13.21077,-4.43574 18.51629,-0.83578 6.33856,4.30091 7.63651,9.51611 7.22235,29.01956 l -0.34735,16.35759 -4.0625,0.3917 -4.0625,0.3917 0,-15.51767 c 0,-8.53472 -0.62166,-17.30098 -1.38147,-19.48059 -2.42887,-6.9674 -9.74202,-8.54642 -15.73632,-3.39766 -3.46108,2.97286 -3.51543,3.24002 -4.13221,20.3125 l -0.625,17.30002 -4.0625,0.3917 -4.0625,0.3917 -0.22321,-20.7042 z m 281.05655,19.71246 c -0.45834,-0.45832 -0.83334,-11.14582 -0.83334,-23.75 l 0,-22.91666 3.75,0 c 2.43174,0 3.75,0.6332 3.75,1.80122 0,3.25711 2.25791,3.28772 6.96349,0.0944 7.89235,-5.35589 17.61377,-3.43095 22.24209,4.40414 1.65045,2.794 2.04442,7.1125 2.04442,22.40977 l 0,18.94884 -4.0625,-0.3917 -4.0625,-0.39165 -0.625,-17.92691 c -0.59132,-16.961 -0.784,-18.05545 -3.57597,-20.3125 -3.29717,-2.66544 -7.81335,-3.06797 -11.61203,-1.03498 -4.5261,2.4223 -6.062,8.72075 -6.062,24.85924 l 0,15.04015 -3.54166,0 c -1.94793,0 -3.91668,-0.375 -4.375,-0.83334 z m 72.77289,-0.0211 c -0.65038,-4.61629 3.35876,-64.02718 4.39026,-65.05868 1.57942,-1.57942 9.19225,-1.59305 10.49876,-0.0187 1.14789,1.38311 6.70918,18.41412 14.99859,45.93195 0.51775,1.71875 1.44345,3.125 2.0571,3.125 0.61365,0 1.54024,-1.40625 2.05909,-3.125 5.68505,-18.8324 14.14025,-44.59622 14.91086,-45.43488 1.41987,-1.54527 9.97494,-1.71063 11.16279,-0.21578 0.79435,0.99965 3.35245,37.51311 4.29291,61.27566 0.13136,3.31925 -0.29775,3.79346 -3.7357,4.12839 l -3.88411,0.3784 -0.78397,-9.1284 c -0.43117,-5.02061 -1.15905,-16.60002 -1.61748,-25.73201 -0.54829,-10.92155 -1.29192,-16.45085 -2.17295,-16.15717 -0.73669,0.24557 -4.88503,11.45953 -9.21854,24.91992 -10.63406,33.03063 -12.59315,33.6344 -20.95454,6.45798 -2.93885,-9.55191 -6.26266,-20.60148 -7.38625,-24.55461 -1.12359,-3.95312 -2.53717,-7.1875 -3.14131,-7.1875 -0.60414,0 -1.44168,5.48438 -1.8612,12.1875 -0.41953,6.70313 -1.17514,18.09375 -1.67915,25.3125 l -0.91639,13.125 -3.4375,0.39553 c -1.89062,0.21753 -3.5022,-0.0638 -3.58127,-0.625 z m 217.22711,0.0211 c -0.45834,-0.45832 -0.83334,-11.14582 -0.83334,-23.75 l 0,-22.91666 3.75,0 c 2.80303,0 3.75,0.5787 3.75,2.29166 0,3.98505 1.48341,4.01238 5.92889,0.10925 5.49416,-4.82393 9.69611,-4.58121 9.69611,0.5601 0,2.96938 -0.73212,3.8291 -4.25792,5 -7.85315,2.608 -9.43412,6.4286 -9.93312,24.00468 l -0.44102,15.53431 -3.41314,0 c -1.87722,0 -3.78814,-0.375 -4.24646,-0.83334 z M 80.346369,757.78809 c -1.041013,-3.27993 0.291167,-6.24781 3.221962,-7.17801 3.379927,-1.07275 6.275755,1.69804 5.825237,5.57369 -0.304097,2.61604 -1.12958,3.30514 -4.331355,3.61572 -3.003528,0.29138 -4.138637,-0.19277 -4.715844,-2.0114 z M 16.651606,719.31353 c -0.991865,-2.58475 -0.991865,-412.21077 0,-414.79553 0.689428,-1.79662 33.516984,-1.97723 359.375004,-1.97723 l 358.61626,0 0,209.375 0,209.375 -358.61626,0 c -325.85802,0 -358.685576,-0.18061 -359.375004,-1.97724 z m 122.232524,-33.75 c 0.41732,-1.08747 0.75874,-73.5811 0.75874,-161.09694 0,-133.1421 -0.27935,-159.35155 -1.71112,-160.53982 -1.22009,-1.01258 -13.68548,-1.32554 -43.437509,-1.09055 l -41.726371,0.32955 -0.32148,160.625 c -0.176814,88.34375 -0.05384,161.32813 0.273269,162.1875 0.459662,1.20761 10.226381,1.5625 43.000244,1.5625 37.515157,0 42.492997,-0.22803 43.164227,-1.97724 z m 276.38374,-160.52276 0,-161.875 -42.5,0 -42.5,0 -0.31719,162.20391 -0.31717,162.20392 42.81717,-0.32892 42.81719,-0.32891 0,-161.875 z m 276.56718,0.3125 -0.31718,-162.1875 -41.79064,-0.32963 c -32.60162,-0.25716 -42.01112,0.0177 -42.79336,1.25 -1.20112,1.89219 -1.4068,321.42217 -0.20766,322.62129 0.45832,0.45834 19.86669,0.83334 43.12967,0.83334 l 42.29635,0 -0.31718,-162.1875 z m -535.6286,56.875 c 4.48052,-3.60937 23.644,-19.35937 42.58548,-35 18.9415,-15.64062 34.79528,-28.4375 35.23062,-28.4375 0.85538,0 16.88087,12.97079 45.62032,36.9244 32.62283,27.1903 40.18131,33.11109 41.34871,32.38959 0.66132,-0.4087 1.15129,-17.0611 1.15129,-39.1275 l 0,-38.41596 -5.3125,-5.11419 c -13.51976,-13.01508 -81.26277,-71.65634 -82.77815,-71.65634 -0.93787,0 -4.47462,2.39062 -7.85947,5.3125 -8.17367,7.05569 -54.15523,47.67743 -68.38709,60.41555 l -11.28779,10.10306 -0.33127,38.00903 c -0.30267,34.72634 -0.0876,41.15986 1.37562,41.15986 0.27379,0 4.16369,-2.95312 8.64423,-6.5625 z m 396.21462,-96.06446 c 21.50324,-18.97608 40.67455,-35.85108 42.60291,-37.5 l 3.50613,-2.99804 -0.098,-38.71684 c -0.0539,-21.29427 -0.52665,-39.14553 -1.0506,-39.66948 -0.52395,-0.52395 -8.52636,5.28621 -17.78315,12.91148 -29.93955,24.66265 -56.44443,46.60945 -62.17755,51.48478 -3.07859,2.61797 -6.34743,4.47215 -7.26408,4.1204 -0.91666,-0.35176 -13.07916,-10.10701 -27.02777,-21.67834 -48.71758,-40.41457 -57.75623,-47.65308 -58.74263,-47.04345 -0.54641,0.3377 -0.99346,18.18028 -0.99346,39.65019 l 0,39.03618 17.1875,15.13731 c 9.45313,8.32552 28.71875,25.32347 42.8125,37.77322 15.38581,13.5911 26.48538,22.50777 27.7782,22.31524 1.18426,-0.17638 19.74676,-15.84658 41.25,-34.82265 z"
         id="path3426"
         inkscape:connector-curvature="0" />
      <path
         style="fill:#565656"
         d="m 59.95537,816.58043 c -2.725006,-0.44912 -2.8125,-0.90666 -2.8125,-14.70762 0,-13.20751 -0.191732,-14.34669 -2.634705,-15.65413 -3.988761,-2.13472 -25.877244,-1.0783 -27.393011,1.32209 -0.651201,1.03125 -1.192615,7.92188 -1.203143,15.3125 l -0.01914,13.4375 -3.771102,0 -3.771104,0 0.333604,-32.1875 0.333602,-32.1875 3.4375,-0.39553 3.4375,-0.39552 0,12.95803 c 0,8.4118 0.526264,13.48428 1.5,14.45802 1.685649,1.68565 25.605914,2.10934 28.140818,0.49844 0.988916,-0.62844 1.640668,-5.50993 1.875,-14.04336 l 0.359182,-13.08008 3.4375,-0.39553 3.4375,-0.39552 0,32.50925 c 0,17.88009 -0.421875,32.71192 -0.9375,32.95963 -0.515625,0.24769 -2.203125,0.24177 -3.75,-0.0131 z m 47.47215,-0.004 -2.84035,-0.46718 0.34035,-22.70582 c 0.30667,-20.45857 0.55649,-22.74732 2.52421,-23.12536 1.41388,-0.27164 2.61495,0.71431 3.40656,2.7964 0.67249,1.76878 1.4929,3.21595 1.82313,3.21595 0.33024,0 2.67265,-1.40625 5.20537,-3.125 6.62896,-4.49852 14.15199,-4.29865 19.54886,0.5194 l 4.08222,3.64441 0.40183,19.57224 0.40182,19.57225 -3.52682,-0.40415 -3.52683,-0.40405 -0.20636,-15.42238 c -0.23104,-17.26654 -1.50429,-21.81347 -6.71235,-23.97073 -4.91001,-2.03379 -9.89437,-0.17799 -13.39379,4.98684 -2.53903,3.74736 -2.8125,5.64511 -2.8125,19.51736 0,8.4515 -0.42187,15.56904 -0.9375,15.81674 -0.51562,0.24769 -2.21566,0.24013 -3.77785,-0.0168 z m 57.45518,-1.56651 c -5.58603,-3.4057 -8.93493,-11.12474 -8.93493,-20.5945 0,-14.34426 7.63451,-24.375 18.5521,-24.375 3.26589,0 7.00191,0.82198 8.34159,1.83525 1.33452,1.00938 3.39111,1.85313 4.57019,1.875 1.86552,0.0346 2.19,-1.62322 2.5,-12.77275 0.35428,-12.74276 0.37323,-12.81242 3.48122,-12.798 l 3.125,0.0145 0.33231,33.89703 c 0.32714,33.36907 0.292,33.90757 -2.25611,34.57392 -1.92625,0.50373 -2.88272,-0.0973 -3.73887,-2.34904 -1.45607,-3.82975 -3.04547,-3.80927 -7.69029,0.0991 -4.68316,3.94062 -12.38324,4.19101 -18.28221,0.5945 z m 16.55322,-3.68834 c 1.76319,-0.67037 4.35966,-3.061 5.76994,-5.3125 2.13446,-3.40767 2.49869,-5.7364 2.17356,-13.89666 -0.3693,-9.26911 -0.61211,-10.00095 -4.45829,-13.4375 -9.63836,-8.61179 -21.52826,-0.3147 -21.52826,15.02309 0,13.52315 8.07725,21.41266 18.04305,17.62367 z m 36.96279,2.78134 c -4.82105,-4.38005 -6.47795,-12.82612 -5.98818,-30.52484 l 0.35734,-12.91256 3.31315,-0.38353 3.31314,-0.38353 0.50646,16.63353 c 0.57566,18.90672 1.81546,22.76125 7.97488,24.79406 3.26976,1.07911 4.8835,0.96006 7.86157,-0.57995 2.061,-1.06579 4.20481,-2.64493 4.76404,-3.50919 0.55921,-0.86427 1.29801,-9.44639 1.64176,-19.07139 l 0.625,-17.5 3.125,0 3.125,0 0.3407,22.8125 c 0.33609,22.50396 0.30493,22.8125 -2.30452,22.8125 -1.59398,0 -2.90504,-0.99354 -3.29899,-2.5 -0.86026,-3.28963 -2.34961,-3.15354 -6.84015,0.625 -5.33218,4.48674 -13.38333,4.35085 -18.5162,-0.3125 z m 47.82747,2.15625 c -1.70451,-0.68554 -2.52317,-1.82247 -2.10221,-2.9195 0.53495,-1.39404 2.35576,-1.64563 8.12439,-1.12254 8.58389,0.77846 12.39451,-1.42798 12.39451,-7.17661 0,-3.74115 -2.24215,-6.1414 -8.75,-9.36696 -6.80127,-3.37101 -11.25,-8.13929 -11.25,-12.05809 0,-8.73684 5.68165,-13.58832 15.87543,-13.55581 6.88821,0.022 9.80668,1.40033 8.75698,4.1358 -0.60075,1.56554 -1.497,1.67244 -5.00213,0.59667 -3.25482,-0.99892 -5.12687,-0.90002 -7.87249,0.41593 -6.77891,3.24905 -5.60014,10.78432 2.23981,14.318 11.07264,4.99074 15.34425,11.75729 12.36649,19.5894 -2.65246,6.97649 -15.78423,10.76212 -24.78078,7.14381 z m 44.62599,-1.88348 c -2.89002,-3.07292 -3.12367,-4.35398 -3.7093,-20.33734 -0.61079,-16.67012 -0.69604,-17.09317 -3.75,-18.61145 -1.71875,-0.85449 -3.125,-2.25002 -3.125,-3.10119 0,-0.85116 1.40625,-1.87789 3.125,-2.28159 2.40914,-0.56587 3.26818,-1.72416 3.75,-5.05636 0.51606,-3.56898 1.21021,-4.38994 3.98255,-4.71015 3.06854,-0.35444 3.39134,0.0221 3.75,4.375 0.37348,4.5326 0.63354,4.79302 5.38035,5.38781 3.44391,0.43154 5.11675,1.30213 5.40415,2.8125 0.32133,1.68861 -0.43656,2.1875 -3.32316,2.1875 -7.64028,0 -7.69389,0.11688 -7.69389,16.76983 0,16.72412 0.72444,18.88722 6.87645,20.53252 5.88336,1.57345 4.74525,4.50758 -1.91715,4.94254 -4.76289,0.31095 -6.15715,-0.15268 -8.75,-2.90962 z m 29.72818,1.81459 c -2.72932,-1.58957 -5.93748,-7.64735 -5.93748,-11.21127 0,-8.22904 9.14603,-16.18849 18.60184,-16.18849 8.53887,0 11.17137,-4.27294 6.38292,-10.36045 -3.10942,-3.95301 -8.34338,-5.21026 -14.5528,-3.49576 -2.60243,0.71856 -5.19433,0.84384 -5.7598,0.27837 -3.93963,-3.93964 15.69445,-6.98597 22.46383,-3.4854 6.42716,3.32362 7.86401,8.36 7.86401,27.56465 0,16.53534 -0.0729,16.99859 -2.6747,16.99859 -1.47107,0 -3.33309,-0.9004 -4.13777,-2.00089 -1.32509,-1.81216 -1.86864,-1.75366 -5.76282,0.62033 -4.59707,2.8025 -12.78257,3.43818 -16.48723,1.28042 z m 17.48017,-5.67084 c 3.27831,-2.06683 4.40921,-5.72422 3.85684,-12.47317 -0.38695,-4.72774 -0.55634,-4.89154 -5.39949,-5.22135 -9.54561,-0.65007 -16.37281,6.65701 -13.59631,14.55197 2.13265,6.06416 8.43111,7.37159 15.13896,3.14255 z m 58.48673,6.00869 c -0.3599,-0.35991 -0.66267,-7.7325 -0.6728,-16.38355 -0.0199,-17.01163 -1.00758,-20.70516 -6.33628,-23.69608 -4.09152,-2.29652 -9.16947,-1.07007 -13.09156,3.16195 -2.78453,3.00455 -3.00635,4.31223 -3.33096,19.63693 l -0.34778,16.41814 -3.4375,0.39552 -3.4375,0.39553 -0.1875,-21.33303 c -0.10312,-11.73316 -0.24375,-22.03614 -0.3125,-22.89552 -0.0694,-0.86666 1.26666,-1.5625 3,-1.5625 2.28905,0 3.23185,0.75235 3.52444,2.8125 0.51474,3.6243 2.11347,3.54978 6.70352,-0.3125 5.13622,-4.32184 14.28529,-4.39624 18.8634,-0.15339 4.56008,4.22614 5.89372,10.51282 5.90167,27.82016 0.007,15.14921 0.004,15.16747 -3.08865,15.75855 -1.70259,0.32548 -3.39009,0.29729 -3.75,-0.0626 z m 101.1068,-0.25454 c -2.40008,-0.92338 -2.68078,-2.31828 -3.43244,-17.05689 -0.45023,-8.82821 -0.8295,-19.98878 -0.84281,-24.80128 -0.0132,-4.8125 -0.5152,-9.52519 -1.11532,-10.47265 -1.20117,-1.89642 -3.8702,-0.87336 -3.87132,1.48392 -4e-4,0.8188 -3.55571,12.45748 -7.9007,25.86373 -7.33071,22.61859 -8.11416,24.375 -10.87251,24.375 -2.70148,0 -3.40502,-1.36791 -7.71473,-15 -2.60819,-8.25 -5.95095,-19.5 -7.42835,-25 -2.72686,-10.15138 -4.37085,-13.55818 -6.04374,-12.52426 -0.5101,0.31526 -1.30613,10.01218 -1.76896,21.54874 -1.17046,29.17548 -1.57531,31.60062 -5.27534,31.60062 l -2.97116,0 0.78705,-13.4375 c 0.43288,-7.39062 1.4119,-21.875 2.1756,-32.1875 l 1.38855,-18.75 5.20709,-0.37923 c 4.51742,-0.32898 5.32015,0.003 6.06072,2.5 0.46949,1.58358 3.29934,10.75423 6.28855,20.37923 2.98922,9.625 6.04919,19.89063 6.79997,22.8125 0.80203,3.12143 2.09861,5.3125 3.14367,5.3125 1.04965,0 2.3261,-2.17736 3.11439,-5.3125 0.73466,-2.92187 4.27197,-14.3125 7.86069,-25.3125 l 6.52492,-20 5.19478,-0.37863 5.19478,-0.37861 0.70994,10.37861 c 2.55629,37.37041 3.28614,53.98432 2.40753,54.8035 -0.55387,0.51642 -2.18325,0.4864 -3.62085,-0.0667 z m 26.97611,-1.54557 c -7.90605,-5.38081 -9.36229,-8.6375 -9.36229,-20.9375 0,-9.2708 0.42435,-11.63938 2.61494,-14.59584 4.71981,-6.36995 10.16241,-9.15463 17.88241,-9.14949 8.79078,0.006 14.07575,3.03303 17.70084,10.1388 3.61895,7.09373 3.16212,22.83715 -0.81856,28.20964 -4.59264,6.19843 -10.19492,9.14689 -17.37963,9.14689 -4.68847,0 -7.65941,-0.78549 -10.63771,-2.8125 z m 17.24172,-4.13837 c 4.48743,-3.14313 6.52099,-8.4998 6.52099,-17.17721 0,-9.05933 -3.11855,-15.24669 -9.14546,-18.14502 -2.96131,-1.4241 -4.05934,-1.33914 -8.07834,0.625 -5.93969,2.9028 -9.02171,8.95096 -9.02426,17.70919 -0.003,7.41105 2.69537,14.30981 6.68915,17.10717 3.41382,2.39113 9.53384,2.33522 13.03792,-0.11912 z m 35.55719,6.11426 c -3.89386,-1.56669 -5.2862,-7.68428 -5.2862,-23.22632 0,-16.00059 -0.7059,-18.43707 -5.34165,-18.43707 -3.48162,0 -2.16615,-4.11366 1.59821,-4.99785 2.402,-0.5642 3.26203,-1.72549 3.74344,-5.05481 0.51606,-3.56898 1.21021,-4.38994 3.98255,-4.71015 3.06854,-0.35444 3.39134,0.0221 3.75,4.375 0.37348,4.5326 0.63354,4.79302 5.38035,5.38781 3.44391,0.43154 5.11675,1.30212 5.40415,2.8125 0.32133,1.68861 -0.43656,2.1875 -3.32316,2.1875 -7.65186,0 -7.69389,0.0929 -7.69389,17.00874 0,13.8246 0.26898,15.76024 2.5,17.99126 1.375,1.375 3.625,2.5 5,2.5 1.66666,0 2.5,0.83334 2.5,2.5 0,2.12332 -0.80044,2.48512 -5.3125,2.40131 -2.92187,-0.0543 -6.02746,-0.38634 -6.9013,-0.73792 z m 33.48871,-1.2823 c -2.39253,-1.24085 -5.58998,-4.1126 -7.10543,-6.38166 -5.36278,-8.02968 -4.90737,-23.4413 0.93515,-31.64637 5.32802,-7.48252 19.55652,-9.82462 27.52302,-4.53047 12.58466,8.36317 13.19126,32.33359 1.03725,40.988 -5.55652,3.9566 -16.3319,4.71241 -22.38999,1.5705 z m 16.41354,-4.23194 c 3.5604,-1.90548 7.25168,-10.74676 7.2841,-17.44679 0.037,-7.63632 -4.40864,-16.27227 -9.34755,-18.15842 -11.3007,-4.3157 -20.49407,8.93043 -17.0078,24.50543 2.19369,9.80034 11.44184,15.18292 19.07125,11.09978 z m 60.48449,4.66548 c -3.86538,-2.82643 -1.23508,-4.44202 6.0139,-3.69386 7.68641,0.79332 11.69032,-0.82503 12.77969,-5.16542 1.16153,-4.62792 -1.427,-7.89701 -9.46653,-11.95535 -4.07322,-2.05616 -7.98955,-4.82909 -8.70294,-6.16206 -2.29748,-4.2929 -1.52031,-10.93898 1.71965,-14.70574 2.75644,-3.2046 3.75155,-3.5072 11.53355,-3.5072 7.33479,0 8.58124,0.32585 8.98082,2.3478 0.41741,2.11215 -0.0994,2.26332 -5.14837,1.50619 -4.839,-0.72565 -6.10113,-0.42119 -9.15958,2.20957 -5.30023,4.55906 -3.30822,8.99196 6.35083,14.13283 8.93347,4.75468 10.67604,6.91733 10.67604,13.2497 0,6.14495 -1.62841,9.164 -6.22497,11.54097 -4.53159,2.34338 -16.25652,2.4661 -19.35209,0.20257 z m -626.638639,-22.37713 0.340699,-22.8125 3.125,0 3.125,0 0.340699,22.8125 0.340697,22.8125 -3.806396,0 -3.806396,0 0.340697,-22.8125 z m 594.715699,-0.3125 c 0,-20.0667 0.25658,-23.125 1.94003,-23.125 1.06701,0 2.52828,1.6875 3.24727,3.75 0.719,2.0625 1.59985,3.75 1.95746,3.75 0.35762,0 2.57217,-1.6875 4.92122,-3.75 5.32003,-4.67105 9.18402,-4.9758 9.18402,-0.72432 0,2.31613 -0.8426,3.21075 -3.59302,3.81485 -1.97617,0.43403 -4.92929,2.20981 -6.5625,3.94617 -2.75604,2.9301 -2.99908,4.31802 -3.38132,19.31015 l -0.41183,16.15315 -3.65067,0 -3.65066,0 0,-23.125 z m -593.546865,-34.223 c -0.919526,-0.58285 -1.482026,-2.40236 -1.25,-4.04336 0.506939,-3.58533 5.641561,-4.18506 7.713146,-0.90091 2.381705,3.77578 -2.461448,7.48077 -6.463146,4.94427 z m -65.203135,-247.027 0,-208.125 358.75,0 358.75,0 0,208.125 0,208.125 -358.75,0 -358.75,0 0,-208.125 z m 122.1922,13.82667 c 0.25215,-129.11319 -0.004,-162.62738 -1.25,-163.41835 -0.86196,-0.54727 -20.25053,-1.00365 -43.08572,-1.01418 -39.779265,-0.0183 -41.572726,0.0822 -42.8125,2.39868 -1.810131,3.38226 -1.801565,319.29811 0.0087,322.6807 1.257413,2.3495 2.790144,2.42273 44.0625,2.10533 l 42.75977,-0.32885 0.3172,-162.42333 z M 415.8489,686.37295 c 0.87256,-1.6304 1.29397,-54.31983 1.29397,-161.78572 0,-143.21323 -0.19911,-159.567 -1.96429,-161.33217 -1.70568,-1.70569 -7.35011,-1.96429 -42.875,-1.96429 -30.15277,0 -41.30515,0.39444 -42.41071,1.5 -1.15117,1.15118 -1.5,39.03704 -1.5,162.91666 0,88.77918 0.375,161.79168 0.83334,162.25 0.45832,0.45834 19.84479,0.83334 43.08101,0.83334 40.48974,0 42.30154,-0.10062 43.54168,-2.41782 z M 693.08508,526.42453 c 0.23239,-118.49176 -0.0592,-162.19482 -1.09055,-163.4375 -1.1334,-1.36566 -9.35657,-1.69253 -42.19221,-1.67712 -23.51404,0.011 -41.57842,0.521 -42.65945,1.2043 -1.64794,1.04164 -1.91455,20.57324 -2.20155,161.28677 -0.2251,110.35698 0.0826,160.86609 0.99023,162.56205 1.27573,2.38373 2.64977,2.45018 44.07655,2.13159 l 42.75977,-0.32885 0.31721,-161.74124 z m -369.69221,23.381 c 0,-23.0382 -0.48995,-38.3446 -1.2743,-39.81017 -1.75525,-3.27972 -86.12261,-77.45459 -88.09775,-77.45459 -1.61215,0 -76.06999,64.88698 -84.69045,73.80428 l -4.6875,4.84891 0,36.82117 c 0,20.25164 0.34143,37.71093 0.75874,38.7984 0.4173,1.08749 1.53754,1.97724 2.4894,1.97724 0.95186,0 20.1573,-15.23736 42.67876,-33.86081 22.52145,-18.62345 41.65753,-34.15479 42.5246,-34.5141 1.77809,-0.73684 0.34851,-1.85848 50.12668,39.32875 29.40665,24.33152 37.04795,30.08264 38.4375,28.92941 1.40843,-1.1689 1.73432,-8.47239 1.73432,-38.86849 z M 552.9383,486.75895 c 21.90626,-19.33627 41.37645,-36.60628 43.26707,-38.37783 l 3.4375,-3.22098 0,-39.43468 c 0,-34.89056 -0.22466,-39.43469 -1.94962,-39.43469 -2.66968,0 -7.45652,3.7992 -63.36889,50.29446 -12.20644,10.15055 -22.76275,18.45554 -23.45848,18.45554 -0.69572,0 -12.64615,-9.4414 -26.55648,-20.98089 -50.79963,-42.14142 -57.83207,-47.74059 -59.97903,-47.75472 -2.03775,-0.0134 -2.1875,2.70528 -2.1875,39.71375 l 0,39.72814 11.5625,10.18394 c 6.35938,5.60118 25.90625,22.86624 43.4375,38.3668 17.86151,15.79258 32.77425,28.05868 33.92043,27.90042 1.12497,-0.15534 19.96872,-16.10301 41.875,-35.43926 z"
         id="path3424"
         inkscape:connector-curvature="0" />
      <path
         style="fill:#4a4a4a"
         d="m 167.16171,815.35133 c -6.56354,-3.29303 -9.97324,-10.33977 -9.99828,-20.66321 -0.0238,-9.79228 1.87359,-15.0673 7.23065,-20.10286 3.10673,-2.92027 4.9701,-3.59803 10.10505,-3.67549 4.3823,-0.0661 7.0424,0.58056 8.75184,2.12757 1.35074,1.22242 3.48211,2.02604 4.7364,1.78584 2.00166,-0.38333 2.32405,-2.00148 2.63673,-13.23457 0.32756,-11.7677 0.55395,-12.79784 2.8125,-12.79784 2.38121,0 2.45627,1.03416 2.45627,33.84165 0,31.55565 -0.14776,33.8135 -2.1875,33.42474 -1.20312,-0.22931 -2.36725,-1.6768 -2.58694,-3.21666 -0.45506,-3.18957 -4.50692,-3.86188 -6.10157,-1.0124 -1.3004,2.32368 -7.80368,5.69567 -10.99899,5.70303 -1.375,0.004 -4.46027,-0.97775 -6.85616,-2.1798 z m 18.67597,-6.31307 c 6.32299,-6.32298 6.59174,-22.99405 0.48764,-30.24837 -5.91021,-7.02387 -15.9616,-5.7891 -20.89781,2.56724 -4.8413,8.19567 -3.61883,21.75854 2.51394,27.8913 4.75401,4.75402 13.02925,4.65683 17.89623,-0.21017 z m 35.64989,6.80631 c -6.06455,-2.72049 -7.29067,-6.90384 -7.83782,-26.7413 l -0.49129,-17.8125 3.24221,0 3.2422,0 0,16.31208 c 0,21.24192 1.69468,24.93792 11.43441,24.93792 9.88375,0 12.31559,-5.04766 12.31559,-25.56292 l 0,-15.68708 3.125,0 3.125,0 0,22.5 c 0,21.66666 -0.0926,22.5 -2.5,22.5 -1.64132,0 -2.5,-0.83334 -2.5,-2.42623 0,-3.98117 -2.36842,-4.25496 -7.29196,-0.84295 -5.86944,4.06753 -11.03843,4.98738 -15.86334,2.82298 z m 47.5303,0.59853 c -2.13027,-0.45553 -3.75,-1.60644 -3.75,-2.6646 0,-1.02728 0.84095,-1.656 1.875,-1.40181 1.03125,0.25352 4.22286,0.74373 7.09246,1.08937 4.40917,0.53106 5.71633,0.12956 8.4375,-2.59162 1.77103,-1.77102 3.22004,-4.24544 3.22004,-5.49872 0,-3.52228 -3.65594,-7.92321 -8.13746,-9.79571 -7.63926,-3.19189 -11.86254,-7.77463 -11.86254,-12.87223 0,-6.17542 2.80693,-9.81671 8.81429,-11.43432 5.72434,-1.5414 13.68571,-0.44899 13.68571,1.87787 0,1.13494 -1.58354,1.40386 -5.60051,0.95109 -7.27179,-0.81964 -11.89949,1.95239 -11.89949,7.12787 0,4.40883 2.16349,6.71442 10.0513,10.71148 7.10863,3.60221 9.9487,7.19446 9.9487,12.58356 0,9.16841 -9.78979,14.50201 -21.875,11.91776 z m 44.8301,-0.33418 c -4.31681,-2.13896 -5.45407,-6.59467 -5.47216,-21.43946 -0.021,-17.22322 -0.57293,-19.62869 -4.50373,-19.62869 -3.7971,0 -3.97705,-3.43228 -0.20842,-3.97556 1.9562,-0.28202 3.12794,-1.68564 3.98566,-4.77444 2.00898,-7.2347 5.74355,-8.55339 5.74355,-2.02805 0,5.05978 1.68648,6.68635 7.50501,7.23843 6.20132,0.58838 5.41779,2.7982 -1.25501,3.53962 l -5.625,0.625 -0.36359,13.75 c -0.19997,7.5625 -0.0585,14.97629 0.31438,16.47509 0.97955,3.9373 4.13281,6.64991 7.73015,6.64991 2.30297,0 3.01814,0.57664 2.71297,2.1875 -0.49072,2.59046 -6.5294,3.3797 -10.56381,1.38065 z m 28.74115,0.25058 c -4.11932,-1.75185 -6.6991,-6.35914 -6.66845,-11.90937 0.0475,-8.60735 6.13508,-13.4377 18.95359,-15.03926 8.01971,-1.002 9.30762,-2.56682 7.24827,-8.80672 -1.7616,-5.33769 -6.69977,-7.37264 -15.64955,-6.44894 -6.42988,0.66362 -9.43616,-0.68585 -4.64261,-2.084 10.83199,-3.1594 20.74256,-1.17676 24.24973,4.85122 3.07098,5.27833 3.65085,38.52949 0.68232,39.12693 -1.04827,0.21097 -2.27317,-0.7734 -2.72199,-2.1875 -1.02333,-3.22426 -2.35547,-3.23155 -6.677,-0.0365 -4.00822,2.9634 -10.96082,4.15594 -14.77431,2.53414 z m 14.37246,-4.34998 c 4.19158,-2.16755 6.43129,-6.7382 6.43129,-13.12451 0,-5.91809 -2.40695,-8.14589 -7.82307,-7.24079 -7.72494,1.29093 -11.00057,3.26749 -12.88357,7.77413 -4.29643,10.28283 4.21748,17.7923 14.27535,12.59117 z m 190.80629,3.65014 c -15.66064,-5.54822 -17.41609,-31.4931 -2.86036,-42.27479 4.94674,-3.66413 16.74166,-3.50596 22.08119,0.29611 7.36407,5.24369 10.42283,16.06873 7.72183,27.32777 -1.69376,7.06038 -6.95301,12.86611 -13.69168,15.11438 -5.35742,1.78744 -7.06613,1.72768 -13.25098,-0.46347 z m 15.30964,-4.6209 c 3.32449,-2.75067 6.50909,-11.32389 6.53791,-17.60064 0.0517,-11.24945 -6.112,-19.64735 -14.42021,-19.64735 -11.673,0 -18.24678,17.90416 -11.48984,31.29339 1.54688,3.06521 4.21875,6.2976 5.9375,7.1831 3.54745,1.82763 10.51051,1.19091 13.43464,-1.2285 z m 35.15107,4.64579 c -1.8091,-1.00007 -3.725,-2.81967 -4.25756,-4.04354 -0.53255,-1.22388 -1.22559,-9.95961 -1.54006,-19.41274 -0.56963,-17.12232 -0.5831,-17.1875 -3.55494,-17.1875 -3.82481,0 -3.97229,-3.43564 -0.17065,-3.97556 2.09166,-0.29707 2.91253,-1.36055 3.20278,-4.14944 0.35615,-3.42224 3.06902,-6.875 5.40176,-6.875 0.51657,0 1.11219,2.39063 1.32359,5.3125 0.38251,5.28667 0.4102,5.31436 5.69687,5.69687 3.50784,0.2538 5.3125,0.97248 5.3125,2.11563 0,1.14315 -1.80466,1.86183 -5.3125,2.11562 l -5.3125,0.38438 -0.35225,15.47125 c -0.40706,17.87889 0.80299,21.40375 7.34773,21.40375 2.9558,0 3.71968,0.4917 3.39843,2.1875 -0.5392,2.84635 -6.7962,3.38139 -11.1832,0.95628 z m 35.78929,0.0266 c -5.83434,-2.10201 -11.28226,-8.01925 -12.3643,-13.42941 -1.53331,-7.66658 -0.77481,-15.43347 2.0518,-21.01007 3.69734,-7.29444 9.37121,-10.54811 18.17238,-10.42089 7.54785,0.10912 11.59091,2.41623 16.30606,9.30487 2.58115,3.77095 2.86819,5.43365 2.5,14.48184 -0.32558,8.0011 -0.98745,10.98826 -3.0466,13.75 -5.4795,7.34906 -15.1909,10.36028 -23.61934,7.32366 z m 11.73345,-3.3084 c 11.44679,-3.99037 12.92785,-29.47272 2.12443,-36.55141 -10.43532,-6.83744 -20.73288,2.26652 -20.73288,18.32976 0,8.85445 3.0511,15.10785 8.78753,18.01051 3.816,1.93091 4.8254,1.95263 9.82092,0.21118 z m 65.23423,4.04139 c -1.66778,-0.46607 -3.26515,-1.54584 -3.5497,-2.39952 -0.39168,-1.175 1.17138,-1.35365 6.43315,-0.73522 8.68508,1.02076 13.27387,-1.38023 13.27387,-6.94528 0,-5.90463 -1.1412,-7.36882 -9.01382,-11.56488 -9.06272,-4.83038 -11.56388,-8.1622 -10.47688,-13.9564 1.37895,-7.35044 9.06969,-11.49864 18.51744,-9.98789 6.93586,1.10909 5.17659,3.50426 -2.28309,3.10834 -7.66097,-0.40662 -10.88541,2.34505 -10.26906,8.76336 0.35617,3.70914 1.2968,4.65552 8.51445,8.5667 9.11665,4.94021 11.95142,9.04999 10.73069,15.55708 -1.49255,7.95597 -11.70759,12.43554 -21.87705,9.59371 z m -691.34268,-31.94145 0,-31.96194 3.125,0 3.125,0 0,13.75 0,13.75 15.491264,0 c 12.972894,0 15.61461,-0.32144 16.25,-1.97724 0.417305,-1.08747 0.758736,-7.27497 0.758736,-13.75 0,-10.93942 0.176963,-11.77276 2.5,-11.77276 2.43464,0 2.5,0.83334 2.5,31.875 0,31.04166 -0.06536,31.875 -2.5,31.875 -2.350717,0 -2.501142,-0.83971 -2.519141,-14.0625 -0.0105,-7.73437 -0.477145,-14.7843 -1.036928,-15.66651 -0.756848,-1.19278 -4.837947,-1.51325 -15.918358,-1.25 l -14.900573,0.35401 -0.625,15 c -0.599394,14.38546 -0.740226,15.01636 -3.4375,15.39944 l -2.8125,0.39944 0,-31.96194 z m 62.5,9.375 c 0,-21.7536 0.09224,-22.58694 2.5,-22.58694 2.401961,0 2.5,0.83334 2.5,21.25 0,11.6875 0.140625,21.67188 0.3125,22.1875 0.171875,0.51563 -0.953125,1.11725 -2.5,1.33694 l -2.8125,0.39944 0,-22.58694 z m 23.75,0 c 0,-18.46191 0.31768,-22.58694 1.73949,-22.58694 0.95672,0 2.09244,1.40625 2.52382,3.125 0.97854,3.89884 2.54,3.93346 7.02941,0.15587 7.25046,-6.10086 16.27972,-5.22609 21.70453,2.10275 2.28493,3.08692 2.6532,5.67866 3.06393,21.5625 l 0.46683,18.05388 -3.26401,0 -3.264,0 0,-15.66515 c 0,-18.82141 -1.47041,-23.64626 -7.72422,-25.34532 -5.26566,-1.4306 -10.55657,0.53227 -14.05511,5.2143 -2.26657,3.0333 -2.63026,5.48317 -2.86849,19.32245 -0.2558,14.86037 -0.4312,15.87363 -2.8125,16.24816 -2.47394,0.3891 -2.53968,-0.18519 -2.53968,-22.1875 z m 280.83334,21.57972 c -0.45834,-0.45832 -0.83334,-10.58332 -0.83334,-22.5 0,-20.83332 0.0961,-21.66666 2.5,-21.66666 1.67954,0 2.5,0.83334 2.5,2.53923 0,3.98271 3.50319,4.40716 7.26213,0.87989 4.52978,-4.25061 10.10772,-5.27933 15.77837,-2.90998 6.86704,2.86924 8.2095,7.37855 8.2095,27.57571 0,15.7352 -0.16429,16.91515 -2.35521,16.91515 -2.16246,0 -2.3975,-1.35553 -2.87184,-16.5625 -0.31725,-10.171 -1.13467,-17.6871 -2.11821,-19.47673 -1.79591,-3.26781 -8.37666,-6.51105 -11.33928,-5.5884 -9.93115,3.09287 -11.31546,6.26638 -11.31546,25.94056 0,14.37837 -0.19119,15.68707 -2.29166,15.68707 -1.26043,0 -2.66668,-0.375 -3.125,-0.83334 z m 72.9518,-4.38751 c 0.0194,-2.97227 0.85076,-16.65415 1.84762,-30.40415 0.99685,-13.75 1.82479,-25.70313 1.83985,-26.5625 0.017,-0.96955 1.80624,-1.55791 4.71489,-1.55041 l 4.6875,0.0125 2.86544,9.05042 c 1.57599,4.97773 4.8897,16.08167 7.36382,24.67542 2.47412,8.59375 5.05618,16.33506 5.73792,17.20291 2.01991,2.57136 4.36475,-0.4345 5.9376,-7.61147 0.77942,-3.55655 4.06432,-14.62269 7.29976,-24.59144 l 5.88262,-18.125 5.07065,-0.37469 5.07065,-0.37469 0.8228,19.12469 c 0.45254,10.51857 1.18924,24.89031 1.6371,31.93719 0.79643,12.53146 0.75532,12.8125 -1.87453,12.8125 -2.09885,-4.3e-4 -2.68883,-0.75343 -2.68883,-3.43222 0,-10.41193 -2.90636,-51.09697 -3.71186,-51.96107 -1.25465,-1.34589 -5.03814,2.50782 -5.03814,5.13166 0,1.13311 -3.40017,12.62419 -7.55595,25.53571 -9.75071,30.29432 -10.12475,30.41245 -17.92957,5.66299 -3.08947,-9.79687 -6.57469,-21.65795 -7.74493,-26.35795 -2.10562,-8.45674 -4.73121,-11.58732 -6.87656,-8.1992 -0.60759,0.95956 -1.17628,7.93215 -1.26376,15.49465 -0.0875,7.5625 -0.51797,19.0881 -0.95664,25.61246 -0.6674,9.92622 -1.15464,11.93047 -2.98509,12.27915 -1.81432,0.34562 -2.1815,-0.50522 -2.15236,-4.98746 z m 217.0482,4.38751 c -0.45834,-0.45832 -0.83334,-10.58332 -0.83334,-22.5 0,-20.83332 0.0961,-21.66666 2.5,-21.66666 1.94445,0 2.5,0.83334 2.5,3.75 0,4.72675 1.95524,4.7561 6.81549,0.10237 4.67727,-4.47857 8.74149,-5.46963 8.78146,-2.14136 0.0187,1.55905 -1.38807,2.80625 -4.22987,3.75 -7.86639,2.6124 -9.43758,6.41893 -9.90653,24.00071 -0.36844,13.8133 -0.65754,15.53828 -2.60416,15.53828 -1.20435,0 -2.56473,-0.375 -3.02305,-0.83334 z M 81.861101,757.29436 c -1.049396,-2.84858 0.392463,-4.75359 3.597874,-4.75359 2.507894,0 3.030671,0.54289 2.708334,2.8125 -0.44523,3.13493 -5.314286,4.63365 -6.306208,1.94109 z M 18.39287,511.91577 l 0,-208.125 357.5,0 357.5,0 0,208.125 0,208.125 -357.5,0 -357.5,0 0,-208.125 z m 120.3955,176.5625 c 1.98176,-1.45833 2.10188,-12.39692 1.80141,-164.0625 l -0.32191,-162.5 -44.375,0 -44.375,0 -0.321917,162.5 c -0.300454,151.66558 -0.180348,162.60417 1.801412,164.0625 3.055976,2.24881 82.735035,2.24881 85.791005,0 z m 276.25,0 c 1.98176,-1.45833 2.10188,-12.39692 1.80141,-164.0625 l -0.32191,-162.5 -43.66606,-0.32896 c -34.10223,-0.25691 -43.88558,0.0169 -44.66835,1.25 -0.55128,0.86843 -1.01093,73.96066 -1.02145,162.42717 -0.0172,144.57543 0.17959,161.04694 1.94515,162.8125 1.70571,1.70571 7.35111,1.96429 42.88609,1.96429 30.77166,0 41.44846,-0.38756 43.04512,-1.5625 z m 277.1045,0.33906 c 1.64754,-1.04138 1.91859,-20.48686 2.23429,-160.29336 0.19761,-87.50951 0.0301,-160.94349 -0.37213,-163.18662 l -0.73142,-4.07843 -44.00286,0.32843 -44.00288,0.32842 -0.32191,162.5 c -0.30046,151.66558 -0.18035,162.60417 1.80141,164.0625 2.60885,1.91979 82.39353,2.23656 85.3955,0.33906 z M 163.10143,578.86746 c 63.0593,-52.51625 70.89964,-58.66305 72.78888,-57.06623 35.79044,30.25064 83.12871,68.23954 85.03386,68.23954 2.45953,0 2.49715,-0.70804 2.17328,-40.88802 l -0.32958,-40.88803 -43.62315,-38.48698 c -23.99272,-21.16783 -44.27675,-38.48697 -45.0756,-38.48697 -0.79885,0 -21.24656,17.46286 -45.43935,38.80635 l -43.9869,38.80636 0,40.56864 c 0,39.84829 0.0448,40.56865 2.52106,40.56865 1.38659,0 8.55847,-5.02799 15.9375,-11.17331 z m 374.31655,-77.26419 c 13.86133,-12.20313 33.39184,-29.39866 43.40115,-38.2123 10.0093,-8.81365 18.62864,-17.18123 19.15408,-18.59461 0.52544,-1.41339 0.80669,-19.79598 0.625,-40.8502 -0.32108,-37.20685 -0.40045,-38.28996 -2.83034,-38.62178 -1.64221,-0.22424 -8.07565,4.29378 -18.75,13.1676 -51.05551,42.44354 -66.87787,55.29879 -68.06231,55.29879 -0.72656,0 -17.14188,-13.07813 -36.47846,-29.0625 -48.41452,-40.02132 -48.29297,-39.92685 -50.76198,-39.4518 -2.03305,0.39117 -2.22192,3.39317 -2.52741,40.17202 l -0.33016,39.74926 3.45516,3.39126 c 1.90034,1.86519 16.89027,15.18925 33.31095,29.60901 16.42069,14.41976 34.70194,30.53944 40.625,35.8215 5.92307,5.28206 11.4887,9.64144 12.36806,9.6875 0.87936,0.0461 12.93994,-9.90062 26.80126,-22.10375 z"
         id="path3422"
         inkscape:connector-curvature="0" />
    </g>
  </g>
</svg>
