<?xml version="1.0" encoding="utf-8"?>
<!-- Generator: Adobe Illustrator 16.0.0, SVG Export Plug-In . SVG Version: 6.00 Build 0)  -->
<!DOCTYPE svg PUBLIC "-//W3C//DTD SVG 1.1//EN" "http://www.w3.org/Graphics/SVG/1.1/DTD/svg11.dtd">
<svg version="1.1" id="Layer_1" xmlns="http://www.w3.org/2000/svg" xmlns:xlink="http://www.w3.org/1999/xlink" x="0px" y="0px"
	 width="500px" height="500px" viewBox="0 0 500 500" enable-background="new 0 0 500 500" xml:space="preserve">
<g>
	<path fill="#231F1F" d="M88.338,304.697c-18.748,0-34.001,15.252-34.001,34s15.253,33.998,34.001,33.998
		c18.747,0,33.999-15.25,33.999-33.998S107.084,304.697,88.338,304.697z M88.337,355.92c-9.496,0-17.221-7.728-17.221-17.223
		s7.725-17.223,17.221-17.223s17.221,7.728,17.221,17.223S97.833,355.92,88.337,355.92z"/>
	<circle fill="#231F1F" cx="88.337" cy="338.697" r="15.249"/>
</g>
<g>
	<path fill="#231F1F" d="M321.344,304.695c-18.748,0-34.001,15.252-34.001,34s15.253,33.998,34.001,33.998
		c18.747,0,33.999-15.25,33.999-33.998S340.09,304.695,321.344,304.695z M321.343,355.918c-9.496,0-17.221-7.728-17.221-17.223
		s7.725-17.223,17.221-17.223s17.221,7.728,17.221,17.223S330.839,355.918,321.343,355.918z"/>
	<circle fill="#231F1F" cx="321.343" cy="338.695" r="15.249"/>
</g>
<g>
	<path fill="#231F1F" d="M402.229,304.695c-18.748,0-34.001,15.252-34.001,34s15.253,33.998,34.001,33.998
		c18.747,0,33.999-15.25,33.999-33.998S420.976,304.695,402.229,304.695z M402.228,355.918c-9.496,0-17.221-7.728-17.221-17.223
		s7.725-17.223,17.221-17.223s17.221,7.728,17.221,17.223S411.724,355.918,402.228,355.918z"/>
	<circle fill="#231F1F" cx="402.228" cy="338.695" r="15.249"/>
</g>
<path fill="#231F1F" d="M439.139,297.261H238.485c-5.007,0-9.103-4.096-9.103-9.102v-126.15c0-5.006-4.096-9.102-9.102-9.102
	h-62.954c-5.006,0-10.218,3.941-11.581,8.758l-16.328,57.656c-1.364,4.816-6.575,8.758-11.582,8.758H48.896
	c-5.007,0-9.103,4.094-9.103,9.1v55.637c0,5.008-2.694,9.104-5.987,9.104c-3.292,0-5.986,4.096-5.986,9.102v16.064
	c0,5.006,4.096,9.098,9.102,9.096l13.429-0.012c1.517-19.434,17.801-34.783,37.618-34.783c19.794,0,36.067,15.316,37.614,34.721
	l157.968-0.129c1.608-19.342,17.852-34.592,37.604-34.592c19.73,0,35.962,15.217,37.601,34.531l5.625-0.006
	c1.641-19.311,17.869-34.525,37.6-34.525c19.699,0,35.913,15.172,37.593,34.441c4.806-0.232,8.669-4.225,8.669-9.086v-20.379
	C448.241,301.356,444.146,297.261,439.139,297.261z M73.721,274.644h-9.979v-36.588h9.979V274.644z M89.687,274.644h-9.979v-36.588
	h9.979V274.644z M105.651,274.644h-9.979v-36.588h9.979V274.644z M155.959,167.817h40.163v60.322h-55.879L155.959,167.817z
	 M238.031,317.882h-92.467v-11.973h92.467V317.882z"/>
<rect x="238.031" y="129.624" fill="#231F1F" width="7.316" height="155.662"/>
<polygon fill="#231F1F" points="258.652,285.286 238.031,285.286 238.031,233.399 258.652,254.495 "/>
<polygon fill="#231F1F" points="472.18,299.062 303.223,299.062 303.223,278.44 472.18,289.946 "/>
</svg>
