<?xml version="1.0" encoding="utf-8"?>
<!-- Generated by IcoMoon.io -->
<!DOCTYPE svg PUBLIC "-//W3C//DTD SVG 1.1//EN" "http://www.w3.org/Graphics/SVG/1.1/DTD/svg11.dtd">
<svg version="1.1" xmlns="http://www.w3.org/2000/svg" xmlns:xlink="http://www.w3.org/1999/xlink" width="23" height="32" viewBox="0 0 23 32">
<path fill="#e7e7e7" d="M2.15 21.15c-0.26-0.038-0.273-0.084-0.295-1.074-0.023-1.013-0.026-1.024-0.306-1.024h-0.175v0.962c0 1.202 0.036 1.136-0.603 1.116-0.288-0.009-0.453-0.031-0.488-0.066-0.039-0.039-0.055-0.307-0.064-1.099l-0.012-1.047-0.1-0.119c-0.108-0.128-0.105-0.253 0.010-0.479 0.096-0.188 0.205-0.23 0.618-0.237 0.451-0.007 0.591 0.038 0.624 0.203l0.024 0.118 0.299-0.315h0.428c0.566 0 0.694 0.055 0.891 0.386 0.040 0.067 0.053 0.057 0.131-0.095 0.139-0.272 0.211-0.3 0.742-0.284 0.512 0.015 0.612 0.056 0.766 0.318 0.074 0.126 0.081 0.221 0.092 1.328l0.012 1.192-0.101 0.101c-0.095 0.095-0.126 0.101-0.517 0.101-0.595 0-0.564 0.055-0.589-1.060-0.023-1.013-0.026-1.024-0.305-1.024h-0.175l-0.022 1.936-0.102 0.076c-0.105 0.078-0.524 0.125-0.786 0.087zM8.169 21.146c-0.261-0.038-0.261-0.035-0.261-1.172v-1.029l-0.1-0.094c-0.12-0.113-0.126-0.24-0.020-0.473 0.111-0.245 0.267-0.302 0.77-0.282 0.24 0.010 0.411 0.035 0.441 0.066 0.032 0.032 0.056 0.21 0.065 0.489l0.015 0.439 0.119-0.1c0.108-0.091 0.152-0.1 0.499-0.1 0.45 0 0.58 0.052 0.696 0.28 0.073 0.143 0.081 0.236 0.081 0.998 0 0.711-0.010 0.85-0.063 0.904-0.049 0.049-0.151 0.063-0.451 0.062-0.213-0-0.415-0.018-0.448-0.039-0.048-0.030-0.064-0.174-0.080-0.731l-0.020-0.693-0.136-0.013c-0.082-0.008-0.15 0.008-0.17 0.040-0.019 0.029-0.034 0.333-0.035 0.674s-0.017 0.647-0.037 0.678c-0.056 0.089-0.537 0.142-0.865 0.094zM18.238 21.147c-0.162-0.024-0.188-0.135-0.188-0.792 0-0.568-0.001-0.577-0.109-0.706-0.127-0.15-0.14-0.347-0.037-0.546 0.089-0.171 0.28-0.23 0.643-0.196 0.231 0.021 0.304 0.046 0.394 0.133l0.111 0.106 0.094-0.088c0.052-0.049 0.156-0.107 0.231-0.129 0.167-0.050 0.659-0.008 0.716 0.060 0.064 0.077-0.065 0.405-0.205 0.523-0.107 0.090-0.156 0.101-0.453 0.101h-0.334l-0.016 0.671c-0.011 0.453-0.034 0.707-0.071 0.782-0.052 0.107-0.064 0.11-0.358 0.104-0.167-0.003-0.355-0.014-0.417-0.023zM20.282 21.018c-0.411-0.455-0.241-1.13 0.333-1.325l0.22-0.075-0.307-0.003c-0.381-0.003-0.434-0.023-0.434-0.159 0-0.155 0.164-0.456 0.281-0.516 0.074-0.038 0.324-0.048 0.962-0.040 0.811 0.010 0.87 0.016 1.005 0.1 0.268 0.167 0.283 0.238 0.269 1.254l-0.012 0.902h-0.962l-0.088-0.272-0.222 0.292h-0.903l-0.142-0.157zM21.537 20.392c0-0.094-0.013-0.102-0.15-0.090-0.246 0.020-0.168 0.167 0.1 0.189 0.028 0.002 0.050-0.041 0.050-0.099zM21.387 19.624c-0.072-0.009-0.189-0.009-0.261 0s-0.013 0.016 0.13 0.016c0.143 0 0.202-0.007 0.13-0.016zM5.317 21.053c-0.328-0.21-0.385-0.831-0.108-1.16 0.141-0.168 0.295-0.24 0.523-0.245l0.192-0.005-0.16-0.033c-0.088-0.018-0.272-0.034-0.409-0.035-0.189-0.002-0.258-0.018-0.286-0.069-0.067-0.12 0.090-0.498 0.24-0.578 0.103-0.055 1.784-0.055 1.926-0 0.118 0.046 0.255 0.195 0.309 0.337 0.048 0.127 0.053 1.056 0.008 1.503-0.019 0.187-0.051 0.307-0.088 0.33-0.080 0.051-0.747 0.048-0.843-0.003-0.043-0.023-0.078-0.077-0.078-0.12 0-0.104-0.012-0.1-0.154 0.041-0.118 0.118-0.127 0.12-0.534 0.12-0.346-0.001-0.435-0.014-0.54-0.082zM6.527 20.412c0.042-0.068-0.063-0.159-0.184-0.159-0.143 0-0.193 0.076-0.096 0.146 0.088 0.064 0.244 0.071 0.28 0.012zM11.004 21.073c-0.086-0.060-0.089-0.086-0.089-0.704v-0.641l-0.125-0.114c-0.116-0.106-0.123-0.128-0.098-0.298 0.016-0.108 0.071-0.235 0.132-0.308l0.104-0.124 0.371 0.014c0.328 0.012 0.383 0.025 0.475 0.111 0.057 0.054 0.124 0.164 0.148 0.244 0.061 0.203 0.030 1.671-0.038 1.793-0.046 0.083-0.078 0.090-0.421 0.090-0.27 0-0.395-0.017-0.46-0.062zM12.387 21.066c-0.051-0.056-0.066-0.196-0.076-0.715l-0.013-0.645-0.116-0.1c-0.107-0.092-0.114-0.114-0.088-0.287 0.016-0.11 0.070-0.237 0.129-0.308 0.097-0.115 0.115-0.12 0.422-0.12 0.367 0 0.557 0.069 0.63 0.227l0.047 0.103 0.269-0.311h0.462c0.434 0 0.469 0.006 0.566 0.097 0.057 0.053 0.121 0.162 0.143 0.241 0.059 0.213 0.053 1.779-0.008 1.839-0.058 0.058-0.824 0.066-0.914 0.009-0.048-0.031-0.063-0.166-0.074-0.699-0.015-0.696-0.025-0.731-0.207-0.748-0.253-0.023-0.24-0.060-0.24 0.682 0 0.563-0.011 0.689-0.063 0.742-0.096 0.096-0.782 0.090-0.87-0.007zM15.41 21.068c-0.298-0.147-0.426-0.554-0.395-1.256 0.019-0.422 0.073-0.569 0.269-0.734 0.171-0.144 0.357-0.186 0.818-0.186 0.382-0 0.395-0.003 0.331-0.074-0.085-0.094-0.083-0.188 0.011-0.395 0.118-0.259 0.226-0.309 0.678-0.31 0.418-0.001 0.547 0.041 0.606 0.195 0.052 0.137 0 2.76-0.055 2.797-0.024 0.016-0.252 0.029-0.505 0.029-0.481 0-0.529-0.011-0.574-0.133-0.025-0.068-0.036-0.066-0.15 0.030s-0.152 0.104-0.511 0.103c-0.278-0.001-0.426-0.020-0.522-0.067zM16.563 19.883c-0.002-0.248-0.013-0.427-0.024-0.398s-0.098 0.086-0.192 0.127c-0.145 0.062-0.175 0.095-0.198 0.221-0.056 0.3 0.067 0.501 0.307 0.501h0.111l-0.003-0.451zM10.957 18.818c-0.061-0.019-0.109-0.072-0.129-0.145-0.042-0.157 0.003-0.451 0.077-0.513 0.086-0.071 0.867-0.070 0.938 0.002 0.068 0.068 0.069 0.549 0.001 0.616-0.056 0.056-0.733 0.087-0.888 0.040zM10.5 16.74c-0.103-0.103 0.092-0.457 1.014-1.837 0.547-0.819 1.106-1.581 1.733-2.364 0.194-0.242 0.353-0.458 0.353-0.481 0-0.055-1.479 1.422-1.924 1.922-0.365 0.41-1.047 1.28-1.724 2.199l-0.38 0.516-0.299-0.027c-0.359-0.033-0.909-0.13-1.034-0.183-0.050-0.021-0.090-0.073-0.090-0.115 0-0.119 0.321-0.519 0.897-1.116 1.037-1.075 1.884-1.812 3.111-2.709 0.476-0.348 0.743-0.563 0.621-0.5-0.297 0.154-1.521 0.856-1.765 1.013-0.855 0.55-2.105 1.551-3.181 2.546-0.753 0.696-0.686 0.674-1.23 0.423-0.568-0.262-1.067-0.652-1.427-1.117-0.242-0.312-0.328-0.561-0.328-0.95 0-0.37 0.084-0.636 0.3-0.948 0.61-0.881 1.59-1.427 3.329-1.856 1.191-0.294 1.6-0.339 3.039-0.339 1.766 0 2.802 0.133 3.776 0.483 1.054 0.379 2.033 1.101 2.318 1.71 0.365 0.779 0.081 1.605-0.797 2.317-0.819 0.665-2.718 1.218-4.796 1.397-0.541 0.047-1.476 0.056-1.517 0.016zM13.384 15.481c0.539-0.117 1.375-0.41 1.789-0.628 0.431-0.227 0.943-0.626 1.105-0.861 0.274-0.398 0.316-0.861 0.111-1.211-0.197-0.335-0.778-0.754-1.393-1.004-0.557-0.226-0.517-0.232-0.727 0.107-0.242 0.389-0.879 1.565-1.344 2.482-0.38 0.749-0.467 1.019-0.367 1.139 0.071 0.085 0.366 0.077 0.827-0.023zM8.351 13.608c1.872-0.94 3.040-1.48 4.183-1.936l0.838-0.334-0.157-0.039c-0.086-0.021-0.797-0.039-1.58-0.040-1.599-0.001-1.848 0.026-3.066 0.337-1.169 0.298-1.747 0.559-2.169 0.98-0.344 0.343-0.473 0.605-0.475 0.964-0.001 0.238 0.017 0.314 0.119 0.498 0.145 0.262 0.297 0.364 0.543 0.364 0.157 0 0.401-0.11 1.764-0.794z"></path>
<path fill="#cfcfcf" d="M18.375 21.134c-0.119-0.017-0.229-0.053-0.245-0.079s-0.038-0.343-0.048-0.704l-0.018-0.656-0.112-0.104c-0.095-0.088-0.109-0.126-0.089-0.246 0.054-0.334 0.219-0.433 0.668-0.4 0.272 0.020 0.311 0.033 0.411 0.145l0.11 0.123 0.117-0.131c0.116-0.13 0.119-0.131 0.482-0.128 0.209 0.001 0.383 0.021 0.409 0.047 0.032 0.032 0.025 0.093-0.025 0.226-0.109 0.285-0.174 0.323-0.595 0.346l-0.367 0.020-0.020 0.683c-0.028 0.942-0.035 0.952-0.677 0.859zM20.475 21.138c-0.301-0.124-0.457-0.599-0.323-0.977 0.127-0.357 0.351-0.466 0.957-0.467 0.33-0.001 0.43-0.013 0.417-0.051-0.012-0.035-0.13-0.051-0.394-0.052-0.805-0.003-0.96-0.016-0.984-0.079-0.043-0.111 0.027-0.333 0.143-0.458l0.115-0.123h0.847c0.936 0 1.033 0.019 1.217 0.238l0.108 0.129v0.891c0 0.639-0.014 0.904-0.048 0.939-0.030 0.030-0.184 0.048-0.418 0.048-0.389 0-0.496-0.043-0.496-0.197 0-0.132-0.052-0.123-0.226 0.037l-0.173 0.16-0.332-0.003c-0.182-0.001-0.368-0.017-0.412-0.036zM21.57 20.404c-0.011-0.115-0.028-0.132-0.145-0.143-0.129-0.012-0.248 0.045-0.248 0.12 0 0.044 0.231 0.15 0.333 0.152 0.058 0.001 0.070-0.025 0.060-0.129zM2.109 21.11c-0.18-0.040-0.192-0.099-0.213-1.038-0.018-0.804-0.028-0.9-0.096-0.976-0.096-0.106-0.402-0.121-0.44-0.021-0.013 0.035-0.024 0.476-0.024 0.979 0 0.779-0.009 0.925-0.063 0.979-0.049 0.049-0.154 0.063-0.478 0.063s-0.429-0.014-0.478-0.063c-0.074-0.074-0.084-0.297-0.065-1.368l0.013-0.729-0.106-0.125c-0.125-0.148-0.129-0.205-0.028-0.427 0.106-0.234 0.196-0.272 0.65-0.273 0.435-0.001 0.555 0.056 0.555 0.263 0 0.165 0.058 0.172 0.132 0.016 0.111-0.234 0.229-0.281 0.691-0.278 0.483 0.003 0.629 0.066 0.758 0.327 0.045 0.092 0.092 0.168 0.104 0.169s0.061-0.078 0.109-0.177c0.134-0.275 0.226-0.317 0.698-0.311 0.491 0.006 0.647 0.071 0.783 0.329 0.090 0.169 0.092 0.201 0.092 1.344 0 1.409 0.045 1.304-0.559 1.311-0.601 0.007-0.573 0.058-0.581-1.053-0.006-0.878-0.008-0.891-0.099-0.965-0.054-0.044-0.156-0.075-0.244-0.075h-0.151l-0.017 0.963c-0.021 1.172-0.002 1.13-0.522 1.145-0.183 0.005-0.372 0.001-0.42-0.009zM5.511 21.097c-0.392-0.096-0.573-0.623-0.358-1.043 0.161-0.316 0.361-0.392 1.042-0.399 0.178-0.002 0.311-0.020 0.311-0.043 0-0.025-0.191-0.040-0.491-0.040-0.623-0-0.901-0.033-0.93-0.109-0.030-0.079 0.105-0.373 0.217-0.472 0.086-0.076 0.14-0.080 0.971-0.071 0.948 0.010 1.023 0.025 1.171 0.224 0.079 0.107 0.084 0.164 0.084 0.966 0 0.664-0.012 0.867-0.055 0.919-0.044 0.053-0.129 0.066-0.421 0.066-0.201-0-0.386-0.014-0.411-0.030s-0.058-0.089-0.074-0.162l-0.029-0.133-0.097 0.132c-0.053 0.073-0.119 0.144-0.147 0.158-0.084 0.045-0.644 0.072-0.783 0.038zM6.545 20.378c0-0.121-0.058-0.165-0.219-0.165-0.193 0-0.239 0.217-0.054 0.252 0.237 0.045 0.273 0.034 0.273-0.087zM8.122 21.11c-0.188-0.042-0.194-0.082-0.18-1.158l0.014-1.011-0.126-0.128c-0.132-0.135-0.134-0.181-0.018-0.409 0.115-0.226 0.23-0.274 0.662-0.274 0.533 0 0.556 0.022 0.556 0.538 0 0.493 0.013 0.525 0.159 0.379 0.111-0.111 0.128-0.115 0.519-0.115h0.405l0.299 0.274 0.012 0.888c0.009 0.638-0.001 0.904-0.035 0.945-0.061 0.074-0.799 0.081-0.871 0.009-0.033-0.033-0.048-0.238-0.048-0.664 0-0.348-0.018-0.65-0.041-0.693-0.029-0.054-0.084-0.078-0.181-0.078-0.195 0-0.218 0.086-0.218 0.799 0 0.48-0.012 0.603-0.060 0.644-0.062 0.051-0.685 0.091-0.849 0.055zM11.025 21.046c-0.055-0.042-0.067-0.157-0.078-0.705l-0.013-0.655-0.115-0.092c-0.106-0.085-0.113-0.106-0.088-0.274 0.015-0.1 0.064-0.228 0.108-0.285 0.076-0.097 0.102-0.103 0.438-0.103 0.338 0 0.364 0.006 0.488 0.117l0.131 0.117v0.899c0 0.703-0.012 0.913-0.055 0.965s-0.128 0.066-0.403 0.066c-0.217 0-0.373-0.019-0.413-0.050zM12.393 21.029c-0.040-0.048-0.059-0.24-0.069-0.712-0.014-0.636-0.015-0.646-0.116-0.728-0.092-0.075-0.099-0.101-0.074-0.268 0.015-0.102 0.064-0.231 0.109-0.288 0.075-0.095 0.105-0.103 0.396-0.103 0.39 0 0.5 0.040 0.607 0.222l0.084 0.143 0.098-0.144c0.127-0.187 0.225-0.22 0.646-0.22 0.401 0.001 0.51 0.043 0.614 0.239 0.066 0.123 0.074 0.238 0.074 0.984 0 0.603-0.014 0.858-0.048 0.892-0.031 0.031-0.189 0.048-0.44 0.048-0.346 0-0.396-0.009-0.433-0.078-0.023-0.044-0.041-0.341-0.041-0.679 0-0.691-0.015-0.727-0.298-0.727-0.161 0-0.174 0.008-0.198 0.125-0.014 0.069-0.025 0.381-0.025 0.693 0 0.389-0.015 0.583-0.048 0.616-0.030 0.030-0.183 0.048-0.416 0.048-0.293 0-0.379-0.013-0.423-0.066zM15.424 21.034c-0.269-0.134-0.379-0.448-0.378-1.081 0.002-0.821 0.202-1.020 1.029-1.021 0.443-0.001 0.511-0.022 0.391-0.121-0.080-0.067-0.075-0.185 0.020-0.392 0.099-0.218 0.258-0.289 0.642-0.289 0.391 0 0.548 0.071 0.584 0.264 0.029 0.156-0.016 2.618-0.049 2.672-0.010 0.017-0.231 0.031-0.49 0.031-0.501 0-0.567-0.022-0.567-0.191 0-0.090-0.006-0.088-0.135 0.048l-0.135 0.143-0.396-0.001c-0.268-0.001-0.435-0.020-0.516-0.061zM16.558 20.34c0.038-0.024 0.049-0.159 0.040-0.531-0.010-0.448-0.017-0.487-0.066-0.393-0.030 0.058-0.128 0.139-0.219 0.18-0.14 0.064-0.17 0.099-0.199 0.235-0.048 0.229 0.023 0.444 0.162 0.495 0.138 0.050 0.216 0.054 0.281 0.013zM10.91 18.726c-0.073-0.073-0.082-0.115-0.061-0.291 0.015-0.125 0.051-0.225 0.093-0.256 0.080-0.058 0.763-0.069 0.851-0.013 0.033 0.021 0.064 0.127 0.075 0.255 0.015 0.185 0.005 0.233-0.067 0.304-0.074 0.074-0.132 0.085-0.446 0.085s-0.372-0.011-0.446-0.085zM10.528 16.666c-0.041-0.106 0.118-0.385 0.839-1.476 0.712-1.077 0.935-1.386 1.824-2.523 0.341-0.436 0.611-0.802 0.6-0.813-0.052-0.052-1.48 1.359-2.249 2.224-0.203 0.228-0.856 1.068-1.732 2.228l-0.242 0.321-0.31-0.007c-0.292-0.007-0.575-0.049-0.919-0.137-0.107-0.027-0.15-0.060-0.15-0.114 0-0.173 0.725-0.978 1.769-1.962 0.737-0.696 1.422-1.251 2.595-2.103 0.383-0.278 0.685-0.506 0.67-0.506-0.093 0-1.714 0.903-2.288 1.274-0.879 0.568-2.056 1.515-3.123 2.511-0.728 0.68-0.664 0.657-1.199 0.41-0.562-0.259-1.126-0.708-1.455-1.156-0.351-0.479-0.383-1.134-0.080-1.651 0.588-1.003 1.769-1.651 3.813-2.091 0.827-0.178 1.249-0.224 2.257-0.247 1.725-0.040 3.071 0.116 4.077 0.471 0.778 0.275 1.623 0.789 2.034 1.238 0.522 0.571 0.614 1.318 0.241 1.967-0.146 0.254-0.658 0.77-0.957 0.965-1.010 0.658-3.165 1.169-5.176 1.228-0.758 0.022-0.813 0.019-0.839-0.049zM13.726 15.428c1.436-0.395 2.402-0.984 2.706-1.649 0.219-0.478 0.155-0.864-0.207-1.252-0.255-0.273-0.764-0.601-1.227-0.788-0.534-0.217-0.529-0.216-0.667-0.015-0.182 0.266-0.587 0.994-1.167 2.101-0.68 1.296-0.776 1.564-0.618 1.722 0.1 0.1 0.551 0.054 1.18-0.119zM8.013 13.813c2.037-1.035 3.872-1.876 5.058-2.319 0.247-0.092 0.392-0.165 0.361-0.183-0.133-0.073-1.3-0.128-2.237-0.105-1.106 0.027-1.664 0.106-2.747 0.387-1.104 0.287-1.595 0.51-2.045 0.931-0.511 0.478-0.658 1.038-0.399 1.515 0.152 0.28 0.329 0.402 0.581 0.402 0.165 0 0.348-0.081 1.427-0.629z"></path>
<path fill="#afafaf" d="M18.343 21.108c-0.209-0.028-0.226-0.079-0.246-0.776-0.018-0.612-0.023-0.643-0.118-0.746-0.082-0.088-0.096-0.135-0.078-0.265 0.012-0.087 0.062-0.201 0.112-0.254 0.082-0.087 0.123-0.096 0.429-0.096 0.338 0 0.339 0 0.477 0.146l0.138 0.146 0.112-0.134c0.104-0.125 0.131-0.135 0.398-0.15 0.493-0.028 0.557 0.020 0.41 0.308-0.122 0.239-0.176 0.266-0.554 0.27-0.245 0.002-0.348 0.019-0.374 0.060-0.020 0.031-0.037 0.336-0.037 0.678-0.002 0.779-0.017 0.82-0.322 0.826-0.121 0.002-0.277-0.003-0.347-0.012zM20.372 21.027c-0.343-0.289-0.314-0.916 0.055-1.191 0.096-0.071 0.188-0.087 0.608-0.104 0.272-0.011 0.507-0.032 0.522-0.047 0.083-0.083-0.062-0.113-0.554-0.113-0.589-0-0.816-0.026-0.843-0.096-0.030-0.078 0.084-0.359 0.177-0.434 0.076-0.062 0.187-0.070 0.945-0.070 0.918 0 0.981 0.011 1.167 0.21 0.090 0.096 0.091 0.109 0.080 1.016l-0.011 0.919-0.375 0.012c-0.419 0.013-0.472-0.009-0.51-0.216-0.030-0.159-0.065-0.17-0.148-0.046-0.171 0.255-0.207 0.271-0.609 0.271-0.35 0-0.385-0.007-0.505-0.108zM21.617 20.442c0-0.073-0.022-0.154-0.048-0.18-0.073-0.073-0.291-0.058-0.366 0.025-0.084 0.093-0.021 0.193 0.154 0.245 0.224 0.067 0.261 0.055 0.261-0.090zM0.503 21.060c-0.093-0.017-0.183-0.044-0.2-0.061s-0.031-0.494-0.031-1.061c0-1.007-0.002-1.032-0.090-1.144-0.107-0.136-0.113-0.225-0.025-0.41 0.1-0.212 0.243-0.265 0.665-0.249 0.32 0.012 0.367 0.024 0.436 0.108 0.042 0.052 0.077 0.156 0.077 0.23 0 0.18 0.052 0.172 0.14-0.023 0.127-0.281 0.173-0.302 0.678-0.302 0.524 0 0.618 0.040 0.755 0.323 0.048 0.098 0.101 0.179 0.118 0.179s0.075-0.087 0.129-0.193c0.15-0.295 0.177-0.308 0.661-0.308 0.498 0 0.645 0.060 0.782 0.321 0.080 0.152 0.084 0.22 0.084 1.311 0 1.382 0.037 1.288-0.514 1.308-0.323 0.012-0.383 0.003-0.47-0.067l-0.099-0.080-0.013-0.902c-0.015-1.035-0.013-1.031-0.355-1.043l-0.194-0.007-0.020 0.971c-0.024 1.174 0.007 1.107-0.534 1.127-0.317 0.012-0.384 0.003-0.465-0.063-0.093-0.075-0.094-0.087-0.104-0.945-0.012-0.976-0.029-1.045-0.276-1.092-0.299-0.056-0.283-0.11-0.305 0.992-0.012 0.593-0.036 1.006-0.061 1.031-0.054 0.054-0.557 0.086-0.77 0.048zM5.483 21.067c-0.221-0.053-0.381-0.32-0.381-0.635 0-0.277 0.085-0.468 0.273-0.611 0.131-0.1 0.176-0.109 0.646-0.128 0.413-0.017 0.505-0.031 0.505-0.081 0-0.050-0.112-0.063-0.688-0.080-0.379-0.011-0.702-0.033-0.718-0.050-0.056-0.056 0.065-0.345 0.187-0.448l0.123-0.103 0.789 0c0.434 0 0.855 0.019 0.936 0.041s0.194 0.096 0.251 0.163l0.103 0.122v0.831c0 0.656-0.012 0.847-0.057 0.909-0.050 0.068-0.105 0.077-0.424 0.074-0.398-0.004-0.439-0.025-0.44-0.227-0.001-0.149-0.057-0.139-0.16 0.029-0.059 0.095-0.133 0.152-0.234 0.18-0.149 0.041-0.56 0.049-0.709 0.013zM6.578 20.384c0.011-0.11-0.004-0.136-0.098-0.172-0.148-0.056-0.255-0.035-0.32 0.062-0.070 0.106-0.020 0.18 0.149 0.221 0.211 0.050 0.254 0.032 0.268-0.111zM8.024 21.011c-0.083-0.083-0.084-0.102-0.057-1.012 0.030-0.983 0.017-1.094-0.148-1.227-0.083-0.067-0.085-0.080-0.033-0.238 0.080-0.242 0.205-0.349 0.445-0.381 0.254-0.034 0.664 0.010 0.719 0.077 0.023 0.028 0.053 0.26 0.067 0.516s0.034 0.465 0.046 0.465c0.012 0 0.070-0.059 0.13-0.13 0.109-0.13 0.109-0.13 0.488-0.13 0.689 0 0.712 0.039 0.712 1.196 0 0.587-0.014 0.872-0.044 0.891-0.077 0.048-0.531 0.067-0.677 0.029l-0.14-0.037-0.020-0.663c-0.022-0.717-0.045-0.796-0.235-0.795-0.24 0.001-0.286 0.142-0.286 0.89 0 0.656 0.018 0.633-0.518 0.633-0.317 0-0.374-0.011-0.448-0.085zM11.116 21.060c-0.132-0.037-0.157-0.174-0.156-0.841l0.001-0.536-0.121-0.11c-0.106-0.097-0.117-0.127-0.090-0.247 0.069-0.306 0.182-0.395 0.497-0.395 0.252 0 0.455 0.070 0.549 0.19 0.081 0.102 0.084 0.144 0.072 0.984-0.011 0.814-0.018 0.881-0.090 0.934-0.081 0.060-0.479 0.072-0.662 0.021zM15.504 21.034c-0.088-0.032-0.164-0.058-0.169-0.058s-0.059-0.086-0.12-0.191c-0.105-0.179-0.113-0.223-0.126-0.736-0.012-0.489-0.005-0.562 0.069-0.708 0.157-0.308 0.408-0.407 1.037-0.409 0.367-0.001 0.427-0.024 0.311-0.121-0.075-0.062-0.077-0.203-0.004-0.377 0.093-0.223 0.192-0.265 0.634-0.265 0.599 0 0.556-0.121 0.543 1.514l-0.011 1.352h-1.002l-0.020-0.14c-0.023-0.159-0.065-0.155-0.181 0.017-0.044 0.066-0.125 0.132-0.18 0.147-0.175 0.049-0.615 0.034-0.781-0.026zM16.627 19.803c0-0.552-0.036-0.68-0.121-0.428-0.029 0.086-0.090 0.144-0.204 0.195-0.090 0.040-0.175 0.104-0.189 0.141-0.042 0.11-0.030 0.42 0.020 0.515 0.068 0.129 0.115 0.15 0.315 0.138l0.18-0.010v-0.551zM12.399 20.978c-0.023-0.044-0.041-0.342-0.041-0.683 0-0.603-0.001-0.606-0.105-0.704-0.093-0.086-0.103-0.12-0.084-0.287 0.016-0.142 0.049-0.214 0.133-0.286 0.101-0.087 0.139-0.095 0.402-0.078 0.329 0.021 0.483 0.098 0.55 0.276 0.055 0.147 0.089 0.146 0.166-0.004 0.11-0.214 0.233-0.262 0.646-0.254 0.645 0.012 0.66 0.038 0.664 1.182 0.001 0.487-0.014 0.859-0.036 0.881-0.021 0.021-0.217 0.033-0.436 0.027l-0.397-0.012-0.020-0.675c-0.023-0.776-0.035-0.801-0.361-0.78l-0.18 0.012-0.020 0.681c-0.011 0.375-0.035 0.704-0.052 0.732-0.022 0.034-0.152 0.050-0.409 0.050-0.332 0-0.382-0.009-0.418-0.078zM10.923 18.723c-0.059-0.059-0.063-0.37-0.007-0.476 0.037-0.069 0.087-0.078 0.433-0.078 0.251 0 0.409 0.017 0.44 0.048 0.026 0.026 0.048 0.14 0.048 0.253s-0.022 0.226-0.048 0.253c-0.031 0.031-0.187 0.048-0.433 0.048s-0.402-0.017-0.433-0.048zM10.654 16.69c-0.155-0.034-0.145-0.091 0.089-0.481 0.665-1.108 1.574-2.396 2.669-3.784 0.579-0.734 0.623-0.809 0.374-0.63-0.224 0.161-1.569 1.493-2.087 2.066-0.35 0.387-1.153 1.406-1.816 2.304-0.155 0.21-0.308 0.404-0.34 0.43-0.045 0.037-0.172 0.031-0.576-0.029-0.525-0.077-0.711-0.126-0.755-0.197-0.071-0.115 1.634-1.903 2.523-2.645 0.499-0.417 1.655-1.291 2.261-1.71 0.828-0.572 0.433-0.408-1.139 0.472-1.319 0.739-2.601 1.707-4.049 3.060-0.731 0.683-0.682 0.668-1.265 0.377-0.46-0.23-0.765-0.454-1.114-0.823-0.411-0.433-0.507-0.649-0.507-1.145 0-0.363 0.008-0.399 0.153-0.692 0.178-0.36 0.616-0.834 1.025-1.108 0.574-0.385 1.566-0.763 2.63-1.001 1.466-0.328 2.613-0.385 4.43-0.218 1.123 0.103 1.877 0.285 2.628 0.636 0.802 0.374 1.536 0.975 1.764 1.444 0.106 0.219 0.117 0.278 0.117 0.661 0 0.388-0.010 0.442-0.125 0.684-0.136 0.288-0.385 0.589-0.733 0.887-0.859 0.737-2.98 1.314-5.279 1.436-0.395 0.021-0.727 0.036-0.738 0.034s-0.074-0.016-0.14-0.030zM13.293 15.562c0.519-0.105 1.39-0.394 1.791-0.595 0.715-0.358 1.245-0.822 1.402-1.227 0.131-0.338 0.128-0.659-0.008-0.923-0.227-0.438-0.894-0.904-1.715-1.199l-0.3-0.108-0.085 0.107c-0.227 0.285-1.553 2.72-1.799 3.304-0.156 0.372-0.166 0.501-0.046 0.62 0.126 0.126 0.225 0.129 0.761 0.020zM7.293 14.206c1.925-1.007 4.224-2.079 5.605-2.613 0.33-0.128 0.606-0.249 0.613-0.27 0.031-0.094-1.369-0.183-2.356-0.15-1.204 0.041-2.244 0.221-3.388 0.584-0.88 0.28-1.55 0.76-1.797 1.289-0.234 0.5-0.069 1.161 0.341 1.37 0.227 0.116 0.448 0.068 0.981-0.211z"></path>
<path fill="#979797" d="M2.209 21.068c-0.246-0.028-0.251-0.050-0.274-1.036-0.024-1.063-0.027-1.072-0.399-1.052l-0.223 0.012-0.020 0.994c-0.017 0.823-0.030 1-0.080 1.034-0.070 0.047-0.82 0.033-0.869-0.016-0.018-0.018-0.039-0.508-0.045-1.088-0.011-0.987-0.017-1.059-0.090-1.125-0.139-0.125-0.065-0.479 0.12-0.578 0.042-0.023 0.247-0.041 0.454-0.041 0.441 0 0.51 0.042 0.51 0.311 0 0.238 0.063 0.242 0.179 0.011 0.154-0.304 0.22-0.333 0.737-0.316 0.498 0.015 0.562 0.047 0.695 0.344 0.042 0.094 0.093 0.17 0.114 0.17s0.083-0.089 0.138-0.198c0.148-0.291 0.213-0.323 0.662-0.323 0.447 0 0.615 0.064 0.741 0.281 0.076 0.131 0.082 0.219 0.094 1.291 0.015 1.4 0.049 1.315-0.527 1.315-0.307 0-0.386-0.013-0.439-0.071-0.054-0.060-0.066-0.214-0.076-0.966-0.012-0.891-0.013-0.895-0.109-0.973-0.074-0.060-0.146-0.076-0.301-0.067l-0.204 0.012-0.011 0.966c-0.010 0.858-0.019 0.973-0.080 1.028-0.074 0.066-0.453 0.11-0.698 0.082zM8.229 21.066c-0.077-0.009-0.163-0.036-0.19-0.059-0.038-0.031-0.050-0.295-0.050-1.072v-1.030l-0.1-0.094c-0.121-0.114-0.125-0.195-0.020-0.401 0.061-0.12 0.117-0.168 0.235-0.203 0.193-0.058 0.746-0.034 0.815 0.035 0.033 0.033 0.055 0.206 0.064 0.5 0.007 0.247 0.021 0.475 0.032 0.505 0.013 0.038 0.067 0.004 0.172-0.11l0.153-0.166h0.349c0.658 0 0.706 0.079 0.706 1.161 0 0.453-0.017 0.8-0.041 0.846-0.036 0.068-0.087 0.078-0.398 0.078-0.231 0-0.367-0.017-0.386-0.047-0.016-0.026-0.033-0.322-0.039-0.657-0.005-0.356-0.028-0.644-0.054-0.694-0.067-0.126-0.229-0.151-0.357-0.056-0.106 0.079-0.107 0.083-0.127 0.725-0.011 0.355-0.038 0.662-0.060 0.682-0.048 0.044-0.503 0.081-0.701 0.057zM18.284 21.067c-0.141-0.022-0.153-0.082-0.154-0.771-0.001-0.57-0.002-0.581-0.106-0.689-0.115-0.12-0.132-0.25-0.055-0.435 0.064-0.154 0.28-0.218 0.607-0.18 0.191 0.022 0.252 0.049 0.332 0.144 0.123 0.146 0.164 0.146 0.29-0.004 0.099-0.117 0.111-0.12 0.458-0.12 0.396 0 0.405 0.008 0.301 0.257-0.090 0.215-0.197 0.265-0.572 0.265-0.181 0-0.339 0.015-0.35 0.033s-0.033 0.338-0.048 0.712c-0.015 0.373-0.044 0.71-0.064 0.749-0.029 0.057-0.085 0.069-0.285 0.064-0.137-0.003-0.297-0.013-0.355-0.022zM20.342 20.957c-0.273-0.311-0.255-0.777 0.041-1.054 0.119-0.111 0.418-0.171 0.857-0.171 0.339 0 0.424-0.036 0.336-0.142-0.039-0.047-0.179-0.058-0.703-0.058-0.383 0-0.664-0.016-0.678-0.039-0.040-0.065 0.054-0.344 0.144-0.425 0.078-0.070 0.155-0.077 0.952-0.077 1.28 0 1.259-0.022 1.24 1.243l-0.012 0.842-0.406 0.011c-0.477 0.013-0.45 0.040-0.485-0.484-0.013-0.194-0.040-0.362-0.060-0.375-0.067-0.042-0.313-0.023-0.375 0.028-0.109 0.090-0.051 0.211 0.133 0.279 0.263 0.097 0.271 0.122 0.118 0.344l-0.136 0.197-0.844 0.023-0.124-0.141zM5.392 21.006c-0.163-0.078-0.269-0.305-0.269-0.572-0-0.282 0.093-0.473 0.298-0.611 0.119-0.080 0.184-0.090 0.581-0.090 0.325 0 0.469-0.016 0.525-0.057 0.156-0.115 0.014-0.151-0.7-0.173-0.645-0.020-0.685-0.026-0.685-0.1 0-0.118 0.121-0.348 0.207-0.395 0.047-0.025 0.419-0.036 0.98-0.029l0.904 0.012 0.234 0.262v0.853c0 0.61-0.014 0.867-0.048 0.901-0.050 0.050-0.614 0.068-0.73 0.024-0.039-0.015-0.064-0.073-0.064-0.15-0.001-0.121-0.058-0.265-0.090-0.225-0.008 0.010-0.057 0.088-0.107 0.172s-0.136 0.17-0.19 0.19c-0.133 0.051-0.732 0.042-0.845-0.012zM6.603 20.471c0.037-0.146-0.007-0.253-0.115-0.28-0.244-0.061-0.453 0.063-0.359 0.213 0.035 0.056 0.267 0.148 0.423 0.167 0.014 0.002 0.037-0.043 0.052-0.1zM11.058 20.993c-0.052-0.052-0.063-0.173-0.063-0.684v-0.621l-0.123-0.112c-0.109-0.099-0.12-0.129-0.096-0.259 0.015-0.080 0.064-0.193 0.109-0.25 0.078-0.099 0.096-0.103 0.415-0.090 0.299 0.012 0.345 0.025 0.441 0.121l0.107 0.107 0.004 0.86c0.003 0.669-0.008 0.874-0.051 0.925-0.076 0.092-0.652 0.094-0.743 0.003zM12.468 21.012c-0.062-0.036-0.070-0.112-0.070-0.643 0-0.617-0.020-0.715-0.17-0.837-0.063-0.051-0.072-0.091-0.050-0.212 0.015-0.082 0.065-0.196 0.11-0.253 0.078-0.099 0.097-0.103 0.413-0.090 0.283 0.012 0.346 0.028 0.433 0.109 0.056 0.052 0.107 0.134 0.113 0.18 0.018 0.125 0.094 0.104 0.201-0.055 0.142-0.211 0.241-0.245 0.659-0.232 0.586 0.018 0.615 0.075 0.615 1.216 0 0.541-0.014 0.778-0.048 0.812-0.059 0.059-0.738 0.066-0.773 0.009-0.013-0.022-0.031-0.315-0.038-0.651s-0.026-0.642-0.041-0.679c-0.053-0.128-0.436-0.204-0.534-0.105-0.034 0.034-0.048 0.249-0.048 0.713s-0.015 0.68-0.048 0.713c-0.059 0.059-0.624 0.063-0.724 0.005zM15.444 20.985c-0.091-0.046-0.172-0.133-0.23-0.249-0.081-0.16-0.090-0.238-0.090-0.746 0-0.522 0.007-0.578 0.090-0.701 0.166-0.247 0.308-0.297 0.882-0.313 0.332-0.009 0.511-0.029 0.511-0.058 0-0.024-0.039-0.085-0.086-0.135-0.085-0.090-0.085-0.095-0.016-0.275 0.103-0.269 0.198-0.315 0.65-0.313 0.3 0.001 0.394 0.016 0.447 0.069 0.061 0.061 0.066 0.196 0.053 1.398-0.008 0.732-0.022 1.345-0.032 1.361s-0.215 0.030-0.456 0.030c-0.487 0-0.518-0.017-0.522-0.288l-0.002-0.133-0.068 0.095c-0.221 0.308-0.255 0.326-0.636 0.326-0.257-0-0.392-0.019-0.494-0.070zM16.638 19.763c0.007-0.376-0.004-0.631-0.027-0.631-0.021 0-0.068 0.079-0.105 0.176-0.052 0.137-0.101 0.191-0.223 0.246-0.183 0.083-0.26 0.257-0.225 0.515 0.031 0.23 0.179 0.354 0.403 0.338l0.166-0.012 0.011-0.631zM11.035 18.737c-0.092-0.027-0.1-0.049-0.1-0.266v-0.236l0.14-0.037c0.179-0.047 0.627-0.019 0.688 0.042 0.059 0.059 0.056 0.405-0.004 0.464-0.053 0.052-0.578 0.076-0.724 0.033zM10.579 16.654c-0.042-0.068 0.093-0.305 0.71-1.25 0.748-1.146 1.054-1.574 1.894-2.646 0.88-1.123 0.88-1.122 0.807-1.122-0.1 0-0.624 0.483-1.552 1.427-0.964 0.982-1.16 1.212-2.143 2.521-0.865 1.151-0.748 1.035-1.017 1.004-0.364-0.042-0.959-0.152-1.015-0.186-0.1-0.062 0.259-0.492 1.187-1.421 0.508-0.508 1.103-1.073 1.324-1.256 0.522-0.433 1.667-1.296 2.321-1.75 0.322-0.223 0.492-0.364 0.45-0.372-0.123-0.024-2.002 0.998-2.752 1.496-0.833 0.554-2.004 1.502-3.037 2.46-0.699 0.648-0.607 0.62-1.165 0.362-0.401-0.185-0.745-0.426-1.063-0.743-0.453-0.451-0.591-0.736-0.592-1.217-0.001-0.374 0.103-0.669 0.35-0.999 0.599-0.796 1.555-1.313 3.163-1.71 1.229-0.303 2.177-0.403 3.467-0.364 1.825 0.054 2.971 0.273 3.939 0.751 1.593 0.786 2.148 1.734 1.633 2.786-0.142 0.291-0.595 0.77-0.95 1.006-0.969 0.643-3.178 1.169-5.224 1.243-0.505 0.018-0.717 0.013-0.737-0.019zM13.34 15.577c0.381-0.073 1.254-0.354 1.633-0.526 0.383-0.174 0.896-0.518 1.165-0.781 0.405-0.396 0.557-0.902 0.406-1.357-0.135-0.409-0.792-0.93-1.564-1.241-0.175-0.070-0.381-0.13-0.458-0.132-0.136-0.004-0.147 0.007-0.407 0.439-0.327 0.543-1.363 2.491-1.545 2.904-0.15 0.341-0.173 0.594-0.063 0.691 0.129 0.115 0.243 0.115 0.832 0.003zM8.229 13.763c2.111-1.064 3.549-1.719 4.948-2.254 0.36-0.138 0.45-0.209 0.316-0.249-0.329-0.099-2.437-0.142-3.219-0.066-1.177 0.116-2.806 0.555-3.432 0.926-0.306 0.181-0.731 0.606-0.872 0.871-0.131 0.246-0.176 0.587-0.111 0.829 0.119 0.438 0.452 0.727 0.787 0.681 0.095-0.013 0.738-0.313 1.583-0.739z"></path>
<path fill="#878787" d="M18.35 21.061l-0.16-0.025-0.026-0.241c-0.014-0.132-0.028-0.44-0.030-0.684-0.004-0.419-0.010-0.449-0.105-0.538-0.115-0.108-0.127-0.233-0.039-0.402 0.074-0.144 0.178-0.173 0.545-0.152 0.267 0.015 0.291 0.025 0.401 0.155l0.116 0.139 0.094-0.106c0.142-0.159 0.236-0.195 0.514-0.194 0.353 0.001 0.381 0.026 0.281 0.252-0.070 0.159-0.104 0.189-0.252 0.229-0.098 0.026-0.26 0.035-0.379 0.020-0.326-0.041-0.337-0.018-0.342 0.733-0.005 0.824-0.006 0.828-0.258 0.834-0.109 0.003-0.271-0.006-0.359-0.020zM20.419 21.030c-0.235-0.165-0.312-0.629-0.155-0.935 0.137-0.266 0.277-0.322 0.811-0.323 0.47-0.001 0.558-0.024 0.535-0.144-0.013-0.069-0.071-0.078-0.655-0.1-0.352-0.014-0.666-0.027-0.696-0.030-0.083-0.008-0.028-0.277 0.081-0.392 0.088-0.094 0.097-0.094 0.946-0.094 1.268 0 1.214-0.053 1.214 1.191v0.893h-0.382c-0.373 0-0.383-0.002-0.421-0.103-0.021-0.057-0.039-0.242-0.039-0.413 0-0.356-0.031-0.406-0.249-0.406-0.146 0-0.313 0.105-0.313 0.198 0 0.067 0.128 0.167 0.244 0.19 0.177 0.035 0.22 0.112 0.136 0.244-0.176 0.277-0.204 0.291-0.599 0.291-0.273 0-0.389-0.017-0.458-0.065zM2.042 20.996c-0.056-0.056-0.067-0.164-0.068-0.695-0.002-0.758-0.047-1.196-0.132-1.281s-0.485-0.117-0.531-0.044c-0.019 0.030-0.038 0.484-0.044 1.008s-0.021 0.971-0.034 0.992c-0.037 0.060-0.849 0.050-0.889-0.011-0.018-0.028-0.032-0.513-0.032-1.079v-1.029l-0.097-0.103c-0.089-0.094-0.093-0.116-0.050-0.257 0.080-0.268 0.159-0.308 0.61-0.308 0.252 0 0.412 0.017 0.442 0.048 0.026 0.026 0.057 0.139 0.067 0.251s0.040 0.203 0.065 0.203c0.025-0 0.097-0.099 0.16-0.22 0.1-0.191 0.137-0.226 0.281-0.265 0.202-0.055 0.787-0.021 0.906 0.052 0.047 0.029 0.131 0.147 0.188 0.263s0.119 0.21 0.138 0.21c0.019 0 0.089-0.108 0.155-0.239 0.108-0.214 0.138-0.244 0.291-0.285 0.235-0.064 0.78-0.018 0.912 0.077 0.055 0.039 0.136 0.143 0.18 0.23 0.074 0.147 0.080 0.237 0.080 1.274v1.116l-0.095 0.077c-0.076 0.061-0.159 0.077-0.423 0.077-0.508 0-0.481 0.057-0.504-1.038-0.023-1.077-0.015-1.054-0.387-1.062l-0.234-0.005-0.020 0.99c-0.015 0.736-0.033 1.003-0.072 1.042-0.033 0.033-0.189 0.057-0.424 0.066-0.306 0.011-0.384 0.002-0.439-0.053zM5.423 20.988c-0.377-0.196-0.371-0.926 0.009-1.156 0.106-0.064 0.228-0.083 0.632-0.099l0.501-0.020v-0.2l-0.688-0.020c-0.378-0.011-0.698-0.030-0.71-0.042-0.048-0.049 0.065-0.32 0.167-0.4 0.105-0.083 0.14-0.085 0.971-0.072 1.21 0.020 1.163-0.027 1.162 1.148-0 0.434-0.014 0.81-0.030 0.835-0.082 0.125-0.742 0.11-0.791-0.018-0.014-0.036-0.025-0.206-0.025-0.376 0.001-0.273-0.010-0.317-0.087-0.371-0.173-0.121-0.47-0.021-0.47 0.158 0 0.074 0.141 0.165 0.311 0.201 0.146 0.030 0.155 0.057 0.074 0.213-0.11 0.212-0.197 0.256-0.553 0.276-0.269 0.015-0.36 0.004-0.473-0.054zM8.069 21.016c-0.051-0.032-0.060-0.197-0.060-1.079v-1.041l-0.228-0.238 0.080-0.181c0.044-0.1 0.122-0.203 0.174-0.231 0.132-0.071 0.786-0.064 0.859 0.009 0.038 0.038 0.064 0.216 0.083 0.566 0.015 0.281 0.042 0.511 0.061 0.511s0.074-0.063 0.124-0.141c0.116-0.181 0.308-0.237 0.681-0.199 0.204 0.020 0.305 0.052 0.384 0.12l0.107 0.092v1.791h-0.762l-0.024-0.661c-0.013-0.364-0.027-0.665-0.030-0.669-0.146-0.161-0.35-0.182-0.471-0.049-0.067 0.074-0.078 0.162-0.089 0.712-0.011 0.522-0.024 0.636-0.078 0.677-0.078 0.060-0.721 0.068-0.811 0.011zM11.175 21.023l-0.12-0.028-0.024-0.653c-0.023-0.636-0.027-0.655-0.13-0.764-0.12-0.125-0.132-0.228-0.050-0.423 0.049-0.116 0.080-0.137 0.241-0.162 0.24-0.036 0.525 0.008 0.637 0.099 0.087 0.070 0.089 0.091 0.089 0.974 0 0.496-0.010 0.913-0.023 0.925-0.038 0.038-0.489 0.061-0.618 0.031zM15.565 21.017c-0.172-0.044-0.342-0.228-0.399-0.43-0.023-0.084-0.042-0.359-0.043-0.611-0-0.813 0.166-0.98 0.982-0.988 0.243-0.002 0.463-0.007 0.491-0.010 0.076-0.010 0.060-0.105-0.030-0.187-0.096-0.087-0.101-0.183-0.020-0.34 0.103-0.2 0.203-0.241 0.586-0.241 0.56 0 0.521-0.113 0.508 1.463l-0.011 1.323h-0.922l-0.020-0.18c-0.011-0.099-0.038-0.179-0.060-0.178s-0.079 0.072-0.127 0.157c-0.048 0.085-0.116 0.171-0.153 0.191-0.094 0.053-0.617 0.074-0.782 0.032zM16.668 20.324c0.012-0.050 0.017-0.343 0.011-0.651-0.009-0.452-0.023-0.561-0.068-0.561-0.031 0-0.083 0.078-0.115 0.174-0.045 0.135-0.089 0.187-0.193 0.231-0.158 0.066-0.247 0.188-0.26 0.357-0.030 0.39 0.082 0.541 0.401 0.541 0.176 0 0.204-0.012 0.224-0.090zM12.439 20.938c-0.023-0.044-0.041-0.34-0.041-0.674 0-0.585-0.002-0.599-0.1-0.691-0.114-0.107-0.126-0.222-0.044-0.418 0.068-0.163 0.201-0.203 0.544-0.163 0.278 0.032 0.362 0.085 0.422 0.264 0.064 0.189 0.115 0.185 0.235-0.019 0.058-0.099 0.146-0.192 0.195-0.208s0.252-0.026 0.449-0.024c0.327 0.005 0.368 0.014 0.461 0.107l0.102 0.102 0.024 1.805-0.786-0.023-0.020-0.655c-0.019-0.633-0.023-0.658-0.117-0.733-0.074-0.060-0.146-0.076-0.301-0.067l-0.204 0.012-0.023 0.722c-0.013 0.397-0.026 0.726-0.030 0.732s-0.168 0.010-0.366 0.010c-0.314 0-0.365-0.010-0.401-0.078zM10.963 18.683c-0.063-0.063-0.062-0.319 0.003-0.407 0.043-0.059 0.108-0.068 0.431-0.058l0.38 0.012 0.013 0.157c0.007 0.086 0.002 0.199-0.011 0.251-0.023 0.090-0.039 0.094-0.396 0.094-0.236 0-0.39-0.018-0.42-0.048zM10.594 16.599c0-0.083 0.245-0.484 0.94-1.536 0.59-0.893 1.005-1.463 1.766-2.425 0.767-0.969 0.844-1.082 0.743-1.082-0.125 0-1.237 1.064-2.305 2.205-0.368 0.393-1.167 1.403-1.892 2.39l-0.313 0.426-0.331-0.025c-0.448-0.034-0.933-0.144-0.933-0.21 0-0.211 1.834-2.055 2.865-2.881 0.586-0.47 1.501-1.146 2.135-1.579 0.204-0.139 0.371-0.278 0.371-0.308 0-0.041-0.024-0.046-0.095-0.019-0.389 0.148-2.172 1.137-2.761 1.531-0.855 0.573-2.161 1.634-3.074 2.498-0.516 0.488-0.545 0.509-0.678 0.488-0.185-0.030-0.664-0.261-0.975-0.47-0.361-0.242-0.843-0.747-0.98-1.027-0.101-0.206-0.114-0.276-0.114-0.614 0-0.349 0.011-0.404 0.129-0.641 0.417-0.84 1.388-1.491 2.857-1.917 1.739-0.503 3.171-0.611 5.391-0.406 1.448 0.133 2.638 0.575 3.556 1.319 0.514 0.417 0.721 0.775 0.746 1.293 0.027 0.539-0.2 1.016-0.706 1.485-0.592 0.549-1.59 0.956-3.115 1.268-0.866 0.177-1.493 0.249-2.415 0.275-0.694 0.020-0.812 0.015-0.812-0.035zM13.36 15.587c0.499-0.105 1.403-0.402 1.737-0.57 1.128-0.568 1.696-1.337 1.497-2.022-0.087-0.299-0.269-0.53-0.629-0.796-0.456-0.338-1.377-0.76-1.531-0.702-0.11 0.042-0.534 0.774-1.35 2.33-0.711 1.356-0.781 1.565-0.587 1.759 0.126 0.126 0.267 0.126 0.864 0.001zM8.299 13.751c2.007-1.015 3.526-1.707 4.88-2.224 0.468-0.179 0.534-0.266 0.233-0.306-0.959-0.125-2.646-0.125-3.499-0.001-0.892 0.13-2.009 0.413-2.636 0.669-0.869 0.355-1.468 1.027-1.467 1.645 0.001 0.384 0.178 0.725 0.475 0.915 0.091 0.058 0.172 0.073 0.331 0.062 0.178-0.013 0.438-0.13 1.684-0.76z"></path>
<path fill="#767676" d="M21.769 21.047c-0.052-0.040-0.076-0.148-0.1-0.453l-0.032-0.401-0.206-0.012c-0.427-0.025-0.463 0.312-0.045 0.414 0.147 0.036 0.142 0.14-0.014 0.318l-0.124 0.142h-0.393c-0.389 0-0.394-0.001-0.496-0.122-0.207-0.246-0.228-0.625-0.050-0.889 0.133-0.197 0.266-0.241 0.795-0.263 0.51-0.021 0.596-0.055 0.515-0.206-0.042-0.078-0.078-0.083-0.706-0.083-0.526 0-0.666-0.011-0.683-0.055-0.037-0.097 0.093-0.343 0.205-0.386 0.138-0.052 1.521-0.051 1.71 0.002 0.081 0.023 0.194 0.096 0.251 0.163l0.103 0.122v1.718l-0.251 0.001c-0.138 0-0.287 0.010-0.331 0.022s-0.111-0.002-0.149-0.031zM2.196 21.029c-0.209-0.033-0.22-0.079-0.221-0.933-0-0.822-0.034-1.057-0.159-1.124s-0.509-0.051-0.538 0.023c-0.013 0.035-0.024 0.482-0.024 0.994 0 0.67-0.013 0.944-0.048 0.979-0.060 0.060-0.687 0.065-0.796 0.007-0.074-0.039-0.078-0.094-0.078-1.072l-0-1.031-0.097-0.112c-0.077-0.090-0.090-0.135-0.065-0.225 0.051-0.177 0.115-0.277 0.194-0.302 0.144-0.046 0.766-0.034 0.826 0.016 0.034 0.028 0.064 0.136 0.071 0.255 0.017 0.287 0.106 0.296 0.234 0.025 0.053-0.113 0.133-0.231 0.177-0.262 0.104-0.073 0.84-0.077 0.985-0.006 0.057 0.028 0.143 0.14 0.2 0.26 0.058 0.122 0.127 0.21 0.163 0.21s0.103-0.085 0.159-0.204c0.135-0.288 0.191-0.317 0.623-0.317 0.454 0 0.59 0.045 0.708 0.234 0.089 0.142 0.092 0.181 0.104 1.294 0.011 1.017 0.005 1.155-0.053 1.213-0.081 0.081-0.775 0.095-0.853 0.017-0.034-0.034-0.048-0.285-0.048-0.876 0-0.896-0.028-1.062-0.188-1.123-0.165-0.063-0.481-0.046-0.509 0.026-0.013 0.035-0.024 0.484-0.024 0.997 0 0.715-0.012 0.944-0.052 0.977-0.059 0.049-0.51 0.089-0.69 0.061zM8.169 21.022l-0.12-0.028-0.020-1.076c-0.020-1.055-0.022-1.077-0.11-1.148-0.050-0.040-0.090-0.106-0.090-0.147 0-0.104 0.14-0.321 0.243-0.376 0.097-0.052 0.771-0.040 0.826 0.015 0.018 0.018 0.042 0.269 0.053 0.558 0.022 0.579 0.061 0.657 0.204 0.413 0.117-0.198 0.18-0.223 0.574-0.223 0.322 0 0.351 0.007 0.474 0.117l0.131 0.117 0.012 0.793c0.007 0.436 0.002 0.834-0.011 0.885-0.022 0.088-0.041 0.093-0.379 0.093-0.287 0-0.36-0.012-0.38-0.063-0.013-0.035-0.024-0.333-0.024-0.663 0-0.59-0.002-0.601-0.103-0.703-0.083-0.083-0.127-0.098-0.23-0.077-0.234 0.047-0.246 0.084-0.268 0.803-0.011 0.361-0.029 0.666-0.040 0.676-0.037 0.035-0.62 0.062-0.742 0.034zM18.263 21.015c-0.084-0.034-0.088-0.060-0.1-0.695l-0.013-0.66-0.111-0.103c-0.089-0.082-0.106-0.125-0.085-0.214 0.065-0.28 0.242-0.366 0.644-0.311 0.155 0.021 0.22 0.056 0.325 0.173l0.131 0.147 0.246-0.301h0.337c0.205 0 0.337 0.016 0.337 0.041 0 0.078-0.112 0.309-0.166 0.345-0.030 0.019-0.226 0.044-0.435 0.055l-0.381 0.020-0.025 0.669c-0.035 0.921-0.016 0.875-0.346 0.872-0.148-0.001-0.309-0.018-0.357-0.038zM5.347 20.912c-0.284-0.239-0.247-0.844 0.065-1.049 0.083-0.055 0.223-0.075 0.622-0.091 0.529-0.021 0.608-0.048 0.581-0.2-0.008-0.049-0.14-0.067-0.725-0.096l-0.715-0.036 0.025-0.123c0.013-0.067 0.064-0.165 0.113-0.217l0.088-0.094 1.833 0.024 0.195 0.227-0.022 1.737-0.337 0.012c-0.185 0.006-0.353-0.004-0.372-0.024s-0.046-0.196-0.059-0.393c-0.026-0.404-0.061-0.457-0.299-0.457-0.171 0-0.276 0.083-0.276 0.218 0 0.118 0.062 0.168 0.251 0.203 0.083 0.015 0.159 0.041 0.169 0.058 0.032 0.052-0.19 0.356-0.277 0.379-0.046 0.012-0.231 0.023-0.411 0.023-0.294 0-0.34-0.010-0.45-0.103zM11.083 20.965c-0.024-0.029-0.048-0.322-0.055-0.685l-0.013-0.634-0.113-0.097c-0.096-0.083-0.109-0.117-0.086-0.227 0.015-0.071 0.054-0.172 0.087-0.224 0.056-0.089 0.079-0.093 0.396-0.080 0.525 0.022 0.512-0.004 0.514 1.044 0.001 0.47-0.012 0.877-0.029 0.904-0.043 0.069-0.643 0.069-0.7-0.001zM12.492 20.986c-0.030-0.020-0.051-0.253-0.060-0.686l-0.014-0.655-0.115-0.091c-0.1-0.080-0.111-0.109-0.086-0.227 0.016-0.074 0.055-0.178 0.088-0.23 0.056-0.089 0.079-0.093 0.396-0.080 0.37 0.015 0.442 0.054 0.517 0.281 0.062 0.187 0.12 0.181 0.241-0.027 0.131-0.224 0.218-0.26 0.616-0.26 0.582 0.001 0.615 0.068 0.6 1.198l-0.011 0.786-0.732 0.023-0.024-0.132c-0.013-0.072-0.022-0.359-0.021-0.638 0.002-0.293-0.015-0.54-0.040-0.587-0.078-0.146-0.441-0.221-0.578-0.119-0.058 0.043-0.069 0.15-0.078 0.752l-0.011 0.701-0.321 0.010c-0.176 0.006-0.341-0.003-0.367-0.020zM15.504 20.977c-0.11-0.045-0.246-0.199-0.298-0.335-0.024-0.062-0.043-0.36-0.043-0.661 0-0.473 0.011-0.566 0.078-0.677 0.132-0.217 0.281-0.268 0.833-0.285 0.27-0.009 0.491-0.009 0.491-0.001s-0.034 0.104-0.075 0.215c-0.053 0.141-0.11 0.217-0.19 0.256-0.193 0.093-0.251 0.166-0.279 0.354-0.038 0.252 0.037 0.477 0.183 0.552s0.377 0.078 0.439 0.004c0.033-0.040 0.045-0.273 0.040-0.772-0.007-0.689-0.011-0.719-0.102-0.828-0.116-0.137-0.116-0.15-0.015-0.349 0.053-0.103 0.119-0.169 0.19-0.189 0.172-0.048 0.768-0.030 0.823 0.025 0.036 0.036 0.045 0.375 0.034 1.359-0.008 0.721-0.023 1.324-0.032 1.341s-0.204 0.030-0.432 0.030c-0.456 0-0.463-0.004-0.463-0.264 0-0.189-0.097-0.179-0.2 0.022-0.045 0.087-0.116 0.178-0.159 0.2-0.091 0.049-0.708 0.051-0.824 0.003zM11.029 18.704c-0.144-0.038-0.127-0.431 0.021-0.47 0.134-0.036 0.6-0.027 0.663 0.013 0.074 0.047 0.072 0.402-0.003 0.449-0.054 0.034-0.559 0.041-0.681 0.008zM10.621 16.617c-0.032-0.052 0.319-0.631 1.008-1.665 0.543-0.815 0.946-1.362 1.928-2.614 0.514-0.656 0.623-0.823 0.535-0.822-0.127 0.001-0.861 0.664-1.688 1.523-0.998 1.038-1.136 1.2-2.058 2.42l-0.844 1.117-0.245-0.026c-0.33-0.035-0.919-0.148-0.959-0.183-0.125-0.111 1.709-1.977 2.824-2.873 0.529-0.425 1.47-1.124 2.056-1.529 0.197-0.136 0.405-0.288 0.461-0.338 0.101-0.089 0.101-0.091 0.016-0.103-0.156-0.022-1.899 0.908-2.8 1.494-0.954 0.62-2.27 1.695-3.357 2.74-0.403 0.387-0.359 0.381-0.899 0.128-0.41-0.192-0.631-0.343-0.976-0.668-0.548-0.517-0.734-0.948-0.642-1.49 0.105-0.62 0.691-1.291 1.524-1.744 0.738-0.401 2.067-0.788 3.327-0.968 1.212-0.173 3.344-0.1 4.553 0.156 1.016 0.215 2.039 0.719 2.698 1.33 0.57 0.528 0.708 1.267 0.363 1.944-0.113 0.221-0.639 0.765-0.923 0.955-0.723 0.483-2.382 0.962-3.966 1.145-0.722 0.083-1.904 0.128-1.938 0.073zM13.5 15.575c1.203-0.278 2.241-0.794 2.76-1.372 0.326-0.363 0.462-0.883 0.331-1.267-0.091-0.268-0.282-0.498-0.615-0.745-0.538-0.399-1.413-0.784-1.567-0.691-0.11 0.067-0.601 0.911-1.268 2.18-0.66 1.255-0.744 1.447-0.744 1.681 0 0.182 0.064 0.275 0.22 0.318s0.341 0.021 0.882-0.104zM8.229 13.803c2.124-1.071 3.475-1.687 4.85-2.211 0.451-0.172 0.619-0.272 0.557-0.334-0.082-0.082-0.775-0.123-2.060-0.12-1.346 0.002-1.427 0.007-2.004 0.111-1.108 0.201-2.175 0.521-2.688 0.808-0.389 0.217-0.791 0.614-0.949 0.936-0.113 0.229-0.13 0.306-0.129 0.567 0.001 0.245 0.021 0.338 0.106 0.502 0.182 0.348 0.443 0.519 0.734 0.481 0.097-0.013 0.724-0.305 1.583-0.739z"></path>
<path fill="#646464" d="M18.411 21.020l-0.18-0.025-0.051-1.359-0.11-0.088c-0.096-0.077-0.107-0.106-0.083-0.233 0.040-0.216 0.161-0.277 0.507-0.258 0.273 0.015 0.289 0.022 0.421 0.175l0.137 0.159 0.134-0.154c0.11-0.127 0.167-0.158 0.318-0.175 0.101-0.011 0.249-0.009 0.329 0.006l0.145 0.027-0.185 0.336-0.38 0.011c-0.299 0.009-0.391 0.025-0.43 0.078-0.035 0.046-0.051 0.259-0.054 0.69-0.002 0.343-0.016 0.669-0.032 0.724-0.031 0.111-0.148 0.132-0.485 0.085zM20.435 20.969c-0.223-0.176-0.286-0.55-0.14-0.836 0.13-0.255 0.231-0.297 0.739-0.311 0.596-0.016 0.624-0.024 0.624-0.169 0-0.076-0.028-0.133-0.078-0.16-0.044-0.023-0.348-0.041-0.701-0.041-0.402 0-0.624-0.015-0.624-0.041 0-0.118 0.124-0.319 0.21-0.34 0.052-0.013 0.467-0.018 0.922-0.011l0.827 0.012 0.246 0.235v1.749h-0.338c-0.225 0-0.349-0.017-0.369-0.049-0.017-0.027-0.038-0.212-0.047-0.411s-0.035-0.384-0.057-0.412c-0.067-0.084-0.419-0.063-0.512 0.030-0.156 0.156-0.065 0.327 0.214 0.404 0.166 0.046 0.161 0.107-0.024 0.314-0.107 0.12-0.122 0.124-0.446 0.124-0.283 0-0.352-0.014-0.445-0.087zM2.086 20.974c-0.063-0.038-0.070-0.121-0.070-0.777 0-0.765-0.041-1.124-0.14-1.223-0.075-0.075-0.53-0.111-0.595-0.046-0.032 0.032-0.053 0.356-0.067 1.037l-0.020 0.99h-0.802l-0.022-1.062c-0.012-0.584-0.025-1.066-0.030-1.071s-0.046-0.044-0.092-0.087c-0.097-0.091-0.082-0.242 0.043-0.405 0.071-0.094 0.099-0.1 0.457-0.1 0.246-0 0.399 0.017 0.43 0.048 0.027 0.027 0.057 0.149 0.067 0.271 0.026 0.313 0.121 0.304 0.297-0.028 0.125-0.236 0.143-0.252 0.313-0.283 0.206-0.037 0.702-0.002 0.814 0.058 0.041 0.022 0.12 0.138 0.175 0.257 0.135 0.295 0.216 0.29 0.373-0.021 0.066-0.131 0.139-0.249 0.162-0.264 0.072-0.044 0.83-0.023 0.939 0.026 0.235 0.107 0.242 0.147 0.255 1.433 0.007 0.718-0.003 1.193-0.026 1.217-0.021 0.021-0.189 0.047-0.373 0.058-0.498 0.029-0.471 0.083-0.485-0.97-0.008-0.583-0.028-0.911-0.059-0.967-0.067-0.119-0.246-0.183-0.475-0.168l-0.196 0.012-0.020 0.99c-0.015 0.737-0.033 1.003-0.072 1.042-0.066 0.066-0.682 0.090-0.78 0.031zM5.523 20.989c-0.403-0.111-0.463-0.831-0.092-1.108 0.081-0.061 0.203-0.080 0.637-0.102l0.537-0.026v-0.281l-0.641-0.025c-0.353-0.014-0.672-0.027-0.709-0.030-0.058-0.005-0.062-0.023-0.026-0.126 0.023-0.066 0.090-0.159 0.148-0.205 0.103-0.082 0.134-0.084 0.94-0.063 0.902 0.024 0.993 0.045 1.072 0.253 0.043 0.114 0.052 1.078 0.013 1.45-0.025 0.243-0.026 0.244-0.17 0.266-0.080 0.012-0.235 0.009-0.345-0.008l-0.2-0.030-0.020-0.379c-0.019-0.355-0.026-0.383-0.12-0.43-0.151-0.076-0.349-0.063-0.441 0.028-0.157 0.157-0.075 0.341 0.182 0.405l0.179 0.045-0.086 0.154c-0.048 0.085-0.113 0.164-0.146 0.177-0.089 0.034-0.617 0.060-0.709 0.035zM8.109 20.977c-0.051-0.032-0.058-0.185-0.047-1.018 0.013-1.017 0.005-1.082-0.159-1.239-0.062-0.060-0.066-0.088-0.027-0.18 0.026-0.060 0.083-0.151 0.127-0.201 0.075-0.086 0.107-0.091 0.483-0.080l0.403 0.011 0.035 0.571c0.030 0.489 0.044 0.571 0.1 0.57 0.036-0.001 0.114-0.082 0.174-0.18l0.109-0.179h0.399c0.396 0 0.4 0.001 0.503 0.123l0.104 0.123v1.677h-0.716l-0.013-0.657c-0.014-0.747-0.043-0.826-0.302-0.826-0.319 0-0.372 0.129-0.372 0.903 0 0.558-0.002 0.571-0.090 0.595-0.141 0.038-0.645 0.028-0.711-0.014zM15.685 20.984c-0.199-0.025-0.31-0.097-0.403-0.262-0.083-0.147-0.097-0.232-0.109-0.669-0.013-0.461-0.007-0.515 0.079-0.681 0.138-0.267 0.274-0.321 0.821-0.321l0.447-0-0.062 0.19c-0.051 0.158-0.090 0.204-0.227 0.271-0.129 0.063-0.177 0.115-0.218 0.241-0.069 0.21-0.030 0.465 0.093 0.597 0.083 0.090 0.13 0.104 0.335 0.104 0.186 0 0.244-0.015 0.264-0.067 0.014-0.037 0.024-0.38 0.021-0.763-0.005-0.687-0.006-0.697-0.109-0.819-0.1-0.119-0.102-0.13-0.047-0.289 0.080-0.229 0.183-0.272 0.61-0.259 0.26 0.008 0.362 0.027 0.391 0.072 0.023 0.036 0.034 0.578 0.029 1.343l-0.010 1.283-0.862 0.023v-0.177c0-0.179-0.067-0.285-0.146-0.234-0.024 0.015-0.083 0.105-0.131 0.2s-0.109 0.18-0.136 0.19c-0.066 0.024-0.506 0.043-0.63 0.028zM11.096 20.925c-0.009-0.028-0.023-0.328-0.031-0.667-0.015-0.612-0.016-0.617-0.123-0.71-0.123-0.105-0.131-0.164-0.052-0.353 0.046-0.111 0.083-0.138 0.216-0.159 0.23-0.037 0.534 0.029 0.619 0.135 0.063 0.078 0.071 0.179 0.071 0.855-0 0.422-0.011 0.808-0.025 0.857-0.022 0.084-0.046 0.090-0.341 0.090-0.218 0-0.322-0.016-0.333-0.050zM12.463 20.85c-0.014-0.069-0.025-0.367-0.025-0.663 0-0.526-0.002-0.54-0.104-0.642-0.085-0.085-0.1-0.13-0.082-0.242 0.012-0.076 0.043-0.163 0.069-0.194 0.065-0.079 0.63-0.078 0.743 0.001 0.107 0.075 0.189 0.346 0.142 0.47-0.048 0.127-0.045 0.078-0.045 0.775v0.621h-0.671l-0.025-0.125zM13.921 20.332c0-0.629-0.002-0.645-0.098-0.742-0.066-0.066-0.143-0.098-0.234-0.098-0.074 0-0.147-0.011-0.16-0.025-0.039-0.039 0.123-0.328 0.21-0.375 0.084-0.045 0.716-0.057 0.822-0.017 0.155 0.060 0.182 0.218 0.182 1.075v0.824h-0.722v-0.643zM10.982 18.664c-0.033-0.033-0.034-0.203-0.001-0.325 0.024-0.088 0.039-0.091 0.39-0.080l0.366 0.011 0.013 0.115c0.007 0.063 0.002 0.158-0.011 0.21-0.023 0.091-0.039 0.095-0.377 0.095-0.194 0-0.365-0.012-0.38-0.027zM10.634 16.586c0-0.052 0.46-0.786 1.009-1.61 0.546-0.821 0.998-1.433 1.933-2.619 0.553-0.702 0.661-0.882 0.528-0.882-0.159 0-1.361 1.13-2.409 2.267-0.403 0.437-1.149 1.378-1.9 2.398l-0.292 0.396-0.306-0.028c-0.301-0.027-0.847-0.128-0.882-0.163-0.078-0.078 1.7-1.902 2.511-2.578 0.575-0.479 1.555-1.217 2.343-1.765 0.554-0.385 0.653-0.485 0.549-0.549-0.066-0.041-0.865 0.366-2.182 1.113-1.146 0.649-2.862 1.991-4.049 3.165-0.38 0.376-0.381 0.376-0.938 0.099-0.435-0.216-0.742-0.446-1.083-0.811-0.358-0.383-0.464-0.625-0.464-1.061 0-0.316 0.012-0.367 0.152-0.651 0.176-0.357 0.583-0.799 0.979-1.065 0.591-0.397 1.473-0.736 2.576-0.989 0.958-0.22 1.338-0.265 2.425-0.288 2.098-0.044 3.642 0.195 4.716 0.732 0.755 0.377 1.409 0.926 1.62 1.361 0.104 0.214 0.117 0.282 0.117 0.623 0 0.361-0.008 0.4-0.149 0.685-0.21 0.426-0.712 0.906-1.217 1.167-1.186 0.611-2.962 1.001-4.837 1.061-0.413 0.013-0.752 0.010-0.752-0.008zM13.334 15.642c0.533-0.108 1.377-0.39 1.812-0.607 0.432-0.215 0.985-0.628 1.205-0.9s0.355-0.669 0.325-0.956c-0.054-0.519-0.506-0.999-1.331-1.413-0.352-0.177-0.827-0.339-0.92-0.314-0.192 0.050-1.983 3.376-2.046 3.801-0.068 0.458 0.16 0.55 0.956 0.389zM7.327 14.287c2.022-1.048 4.026-1.987 5.361-2.512 0.947-0.372 0.973-0.385 0.973-0.481s-0.103-0.116-0.964-0.182c-0.912-0.070-2.306-0.023-3.047 0.102-1.076 0.182-2.108 0.48-2.683 0.775-0.456 0.234-0.912 0.667-1.084 1.029-0.206 0.435-0.143 0.935 0.163 1.298 0.281 0.333 0.597 0.325 1.281-0.029z"></path>
</svg>
