<?xml version="1.0" encoding="utf-8"?>
<!-- Generator: Adobe Illustrator 16.0.0, SVG Export Plug-In . SVG Version: 6.00 Build 0)  -->
<!DOCTYPE svg PUBLIC "-//W3C//DTD SVG 1.1//EN" "http://www.w3.org/Graphics/SVG/1.1/DTD/svg11.dtd">
<svg version="1.1" id="Layer_1" xmlns="http://www.w3.org/2000/svg" xmlns:xlink="http://www.w3.org/1999/xlink" x="0px" y="0px"
	 width="941.11px" height="500px" viewBox="0 0 941.11 500" enable-background="new 0 0 941.11 500" xml:space="preserve">
<g>
	<path fill="#231F1F" d="M86.883,304.697c-18.748,0-34.001,15.252-34.001,34s15.253,33.998,34.001,33.998
		c18.746,0,33.999-15.25,33.999-33.998S105.629,304.697,86.883,304.697z M86.882,355.92c-9.496,0-17.222-7.728-17.222-17.223
		s7.726-17.223,17.222-17.223s17.222,7.728,17.222,17.223S96.378,355.92,86.882,355.92z"/>
	<circle fill="#231F1F" cx="86.882" cy="338.697" r="15.249"/>
</g>
<g>
	<path fill="#231F1F" d="M319.889,304.695c-18.748,0-34.001,15.252-34.001,34s15.253,33.998,34.001,33.998
		c18.746,0,33.999-15.25,33.999-33.998S338.635,304.695,319.889,304.695z M319.888,355.918c-9.496,0-17.222-7.728-17.222-17.223
		s7.726-17.223,17.222-17.223s17.222,7.728,17.222,17.223S329.384,355.918,319.888,355.918z"/>
	<circle fill="#231F1F" cx="319.888" cy="338.695" r="15.249"/>
</g>
<g>
	<path fill="#231F1F" d="M400.774,304.695c-18.748,0-34.001,15.252-34.001,34s15.253,33.998,34.001,33.998
		c18.746,0,33.999-15.25,33.999-33.998S419.521,304.695,400.774,304.695z M400.773,355.918c-9.496,0-17.222-7.728-17.222-17.223
		s7.726-17.223,17.222-17.223s17.222,7.728,17.222,17.223S410.27,355.918,400.773,355.918z"/>
	<circle fill="#231F1F" cx="400.773" cy="338.695" r="15.249"/>
</g>
<g>
	<path fill="#231F1F" d="M664.723,304.692c-18.748,0-34.001,15.252-34.001,34s15.253,33.998,34.001,33.998
		c18.746,0,33.999-15.25,33.999-33.998S683.469,304.692,664.723,304.692z M664.722,355.915c-9.496,0-17.222-7.728-17.222-17.223
		s7.726-17.223,17.222-17.223s17.222,7.728,17.222,17.223S674.218,355.915,664.722,355.915z"/>
	<circle fill="#231F1F" cx="664.722" cy="338.692" r="15.249"/>
</g>
<g>
	<path fill="#231F1F" d="M743.848,304.693c-18.748,0-34.001,15.252-34.001,34s15.253,33.998,34.001,33.998
		c18.746,0,33.999-15.25,33.999-33.998S762.594,304.693,743.848,304.693z M743.847,355.916c-9.496,0-17.222-7.728-17.222-17.223
		s7.726-17.223,17.222-17.223s17.222,7.728,17.222,17.223S753.343,355.916,743.847,355.916z"/>
	<circle fill="#231F1F" cx="743.847" cy="338.693" r="15.249"/>
</g>
<g>
	<path fill="#231F1F" d="M822.974,304.692c-18.748,0-34.001,15.252-34.001,34s15.253,33.998,34.001,33.998
		c18.746,0,33.999-15.25,33.999-33.998S841.72,304.692,822.974,304.692z M822.973,355.915c-9.496,0-17.222-7.728-17.222-17.223
		s7.726-17.223,17.222-17.223s17.222,7.728,17.222,17.223S832.469,355.915,822.973,355.915z"/>
	<circle fill="#231F1F" cx="822.973" cy="338.692" r="15.249"/>
</g>
<rect x="236.576" y="129.624" fill="#231F1F" width="7.316" height="155.662"/>
<polygon fill="#231F1F" points="257.197,285.286 236.576,285.286 236.576,233.399 257.197,254.495 "/>
<path fill="#231F1F" d="M236.576,290.938v6.299c-4.797-0.24-8.648-4.226-8.648-9.078v-126.15c0-5.006-4.096-9.102-9.102-9.102
	h-62.953c-5.006,0-10.219,3.941-11.582,8.758l-16.328,57.656c-1.363,4.816-6.574,8.758-11.582,8.758H47.441
	c-5.006,0-9.102,4.094-9.102,9.1v55.637c0,5.008-2.695,9.104-5.988,9.104c-3.291,0-5.985,4.096-5.985,9.102v16.064
	c0,5.006,4.095,9.098,9.101,9.096l13.43-0.012c1.516-19.434,17.801-34.783,37.617-34.783c19.795,0,36.068,15.316,37.615,34.721
	l157.967-0.129c0.453-5.441,2.076-10.55,4.598-15.093c0.172-0.315,0.352-0.624,0.531-0.935c0.059-0.102,0.115-0.207,0.176-0.309
	c6.555-11.135,18.66-18.627,32.488-18.627c19.84,0,36.137,15.418,37.564,34.902l5.473-0.006c0.592-6.961,3.092-13.377,6.955-18.751
	c6.818-9.751,18.119-16.146,30.893-16.146c19.809,0,36.084,15.367,37.559,34.806c3.467-0.097,33.98,0.022,65.816-0.296H605.5h21.307
	h0.379c1.615-19.299,17.828-34.513,37.535-34.513c19.709,0,35.922,15.214,37.537,34.513h3.457h0.596
	c1.617-19.299,17.828-34.512,37.537-34.512c19.707,0,35.92,15.213,37.535,34.512h3.24h0.814
	c1.613-19.299,17.826-34.513,37.535-34.513s35.922,15.214,37.535,34.513H876.5h29.143c5.006,0,9.102-4.096,9.102-9.104v-18.813
	v-16.67H236.576z M72.266,274.644h-9.979v-36.588h9.979V274.644z M88.232,274.644h-9.98v-36.588h9.98V274.644z M104.197,274.644
	h-9.979v-36.588h9.979V274.644z M154.504,167.817h40.164v60.322h-55.879L154.504,167.817z M236.576,317.882h-92.467v-11.973h92.467
	v1.699l0,0V317.882z"/>
<rect x="257.197" y="213.362" fill="#231F1F" width="657.547" height="72.184"/>
<rect x="288.209" y="220.308" fill="#414042" width="14.074" height="59.334"/>
<rect x="325.64" y="220.308" fill="#414042" width="14.074" height="59.334"/>
<rect x="363.071" y="220.308" fill="#414042" width="14.074" height="59.334"/>
<rect x="400.502" y="220.308" fill="#414042" width="14.074" height="59.334"/>
<rect x="437.934" y="220.308" fill="#414042" width="14.074" height="59.334"/>
<rect x="475.364" y="220.308" fill="#414042" width="14.074" height="59.334"/>
<rect x="512.795" y="220.308" fill="#414042" width="14.074" height="59.334"/>
<rect x="550.227" y="220.308" fill="#414042" width="14.074" height="59.334"/>
<rect x="587.656" y="220.308" fill="#414042" width="14.074" height="59.334"/>
<rect x="625.088" y="220.308" fill="#414042" width="14.074" height="59.334"/>
<rect x="662.52" y="220.308" fill="#414042" width="14.074" height="59.334"/>
<rect x="699.949" y="220.308" fill="#414042" width="14.074" height="59.334"/>
<rect x="737.381" y="220.308" fill="#414042" width="14.074" height="59.334"/>
<rect x="774.813" y="220.308" fill="#414042" width="14.074" height="59.334"/>
<rect x="812.242" y="220.308" fill="#414042" width="14.074" height="59.334"/>
<rect x="849.674" y="220.308" fill="#414042" width="14.074" height="59.334"/>
<rect x="887.105" y="220.308" fill="#414042" width="14.074" height="59.334"/>
</svg>
