<?xml version="1.0" encoding="utf-8"?>
<!-- Generator: Adobe Illustrator 16.0.0, SVG Export Plug-In . SVG Version: 6.00 Build 0)  -->
<!DOCTYPE svg PUBLIC "-//W3C//DTD SVG 1.1//EN" "http://www.w3.org/Graphics/SVG/1.1/DTD/svg11.dtd">
<svg version="1.1" id="Layer_1" xmlns="http://www.w3.org/2000/svg" xmlns:xlink="http://www.w3.org/1999/xlink" x="0px" y="0px"
	 width="500px" height="500px" viewBox="0 0 500 500" enable-background="new 0 0 500 500" xml:space="preserve">
<g>
	<path fill="#231F1F" d="M112.591,269.232c-19.616,0-35.576,15.959-35.576,35.576s15.96,35.576,35.576,35.576
		s35.576-15.959,35.576-35.576S132.207,269.232,112.591,269.232z M112.591,322.829c-9.937,0-18.02-8.084-18.02-18.021
		s8.083-18.021,18.02-18.021s18.02,8.084,18.02,18.021S122.527,322.829,112.591,322.829z"/>
	<circle fill="#231F1F" cx="112.59" cy="304.809" r="15.956"/>
</g>
<g>
	<path fill="#231F1F" d="M311.491,269.232c-19.616,0-35.576,15.959-35.576,35.576s15.96,35.576,35.576,35.576
		s35.576-15.959,35.576-35.576S331.107,269.232,311.491,269.232z M311.491,322.829c-9.937,0-18.02-8.084-18.02-18.021
		s8.083-18.021,18.02-18.021s18.02,8.084,18.02,18.021S321.428,322.829,311.491,322.829z"/>
	<circle fill="#231F1F" cx="311.491" cy="304.809" r="15.956"/>
</g>
<g>
	<path fill="#231F1F" d="M395.085,269.232c-19.616,0-35.576,15.959-35.576,35.576s15.96,35.576,35.576,35.576
		s35.576-15.959,35.576-35.576S414.701,269.232,395.085,269.232z M395.085,322.829c-9.937,0-18.02-8.084-18.02-18.021
		s8.083-18.021,18.02-18.021s18.02,8.084,18.02,18.021S405.021,322.829,395.085,322.829z"/>
	<circle fill="#231F1F" cx="395.084" cy="304.809" r="15.956"/>
</g>
<path fill="#231F1F" d="M277.149,289.472h-38.07v19.004h35.014c-0.121-1.223-0.182-2.445-0.182-3.668
	c0-5.498,1.221-10.633,3.299-15.336H277.149z"/>
<g>
	<path fill="#231F1F" d="M182.677,270.466c-2.078,0-3.729,1.711-3.729,3.729v24.869c0,2.078,1.711,3.729,3.729,3.729h50.23
		c2.078,0,3.727-1.711,3.727-3.729v-24.869c0-2.078-1.711-3.729-3.727-3.729H182.677z"/>
</g>
<polygon fill="#231F1F" points="236.696,268.45 236.696,262.767 178.948,262.767 178.948,268.45 "/>
<polygon fill="#231F1F" points="178.948,304.808 178.948,310.796 236.696,310.796 236.696,304.808 "/>
<path fill="#231F1F" d="M54.378,211.271c-0.305,1.162-1.529,1.834-2.689,1.529l-4.889-1.346c-1.16-0.305-1.832-1.527-1.527-2.688
	l4.094-14.543c0.305-1.162,1.529-1.834,2.689-1.529l4.887,1.344c1.162,0.307,1.834,1.529,1.529,2.689L54.378,211.271z"/>
<path fill="#231F20" d="M144.397,174.712h-25.498c-2.371,0-4.297,1.928-4.297,4.299v68.338c0,2.369,1.926,4.297,4.297,4.297h25.498
	c2.371,0,4.297-1.928,4.297-4.297v-68.338C148.694,176.64,146.769,174.712,144.397,174.712z"/>
<g>
	<path fill="#231F20" d="M39.96,296.819v8.551c0,2.836,2.32,5.156,5.158,5.156s6.322-2.008,7.742-4.461l1.137-1.961
		c1.42-2.457,4.902-4.465,7.74-4.465h11.846c0.127-0.953,0.295-1.891,0.488-2.82H39.96z"/>
	<path fill="#231F20" d="M149.411,160.386H71.479c-2.838,0-6.02,2.154-7.074,4.789l-22.527,56.324
		c-1.057,2.633-1.918,7.109-1.918,9.947v62.404h34.852c4.719-16.135,19.631-27.959,37.27-27.959c19.643,0,35.918,14.66,38.48,33.613
		c2.287-0.527,4.006-2.58,4.006-5.021V165.544C154.567,162.706,152.247,160.386,149.411,160.386z M106.005,220.679
		c0,2.838-2.318,5.158-5.156,5.158H50.522c-2.838,0-4.383-2.188-3.436-4.861l12.697-31.537c0.945-2.674,4.041-4.861,6.879-4.861
		h34.186c2.838,0,5.156,2.32,5.156,5.158V220.679z M150.415,247.349c0,3.316-2.699,6.016-6.018,6.016h-25.498
		c-3.316,0-6.016-2.699-6.016-6.016v-68.338c0-3.318,2.699-6.018,6.016-6.018h25.498c3.318,0,6.018,2.699,6.018,6.018V247.349z"/>
</g>
<rect x="158.294" y="264.478" fill="#231F1F" width="18.027" height="22.303"/>
<rect x="158.294" y="289.472" fill="#231F1F" width="18.027" height="19.004"/>
<path fill="#231F20" d="M386.651,264.415h-37.029H239.019v0.063v22.303h39.414c6.416-11.73,18.82-19.676,33.119-19.676
	c20.84,0,37.705,16.865,37.705,37.703c0,1.223-0.061,2.445-0.184,3.668h0.549h0.063h7.594c-0.117-1.207-0.182-2.43-0.182-3.668
	c0-20.828,16.945-37.775,37.775-37.775s37.775,16.947,37.775,37.775c0,1.238-0.063,2.461-0.18,3.668h2.092l24.313-22.029
	l0.152-22.031H386.651z"/>
<path fill="#231F20" d="M418.81,168.305c-1.928-4.242-6.193-7.198-11.156-7.198h-8.984v-0.001H225.335v0.001h-12.443
	c-4.928,0-9.164,2.914-11.113,7.105c-23.777,0.957-42.764,20.527-42.764,44.541v2.229c0,24.624,19.963,44.585,44.584,44.585h211.855
	c24.623,0,44.586-19.961,44.586-44.585v-2.229C460.04,189.259,441.862,170.022,418.81,168.305z"/>
<path fill="#231F20" d="M202.2,262.783c-10.086-0.152-17.086-2.235-23.236-6.373v12.05h24.668v-5.677H202.2z"/>
<path fill="#231F20" d="M416.731,264.393h-7.09v4.126h26v-8.333C429.899,262.879,423.493,264.393,416.731,264.393z"/>
</svg>
