<?xml version="1.0" encoding="utf-8"?>
<!-- Generator: Adobe Illustrator 16.0.0, SVG Export Plug-In . SVG Version: 6.00 Build 0)  -->
<!DOCTYPE svg PUBLIC "-//W3C//DTD SVG 1.1//EN" "http://www.w3.org/Graphics/SVG/1.1/DTD/svg11.dtd">
<svg version="1.1" id="Layer_1" xmlns="http://www.w3.org/2000/svg" xmlns:xlink="http://www.w3.org/1999/xlink" x="0px" y="0px"
	 width="500px" height="500px" viewBox="0 0 500 500" enable-background="new 0 0 500 500" xml:space="preserve">
<g>
	<path fill="#231F1F" d="M109.228,286.827c-19.714,0-35.753,16.038-35.753,35.753s16.039,35.753,35.753,35.753
		c19.716,0,35.753-16.038,35.753-35.753S128.943,286.827,109.228,286.827z M109.228,340.69c-9.987,0-18.11-8.124-18.11-18.11
		s8.123-18.11,18.11-18.11s18.109,8.124,18.109,18.11S119.215,340.69,109.228,340.69z"/>
	<circle fill="#231F1F" cx="109.229" cy="322.58" r="16.035"/>
</g>
<g>
	<path fill="#231F1F" d="M308.128,287.226c-19.604,0-35.554,15.948-35.554,35.554s15.949,35.554,35.554,35.554
		c19.606,0,35.554-15.948,35.554-35.554S327.734,287.226,308.128,287.226z M308.128,340.788c-9.931,0-18.009-8.079-18.009-18.009
		s8.078-18.009,18.009-18.009s18.008,8.079,18.008,18.009S318.059,340.788,308.128,340.788z"/>
	<circle fill="#231F1F" cx="308.129" cy="322.779" r="15.945"/>
</g>
<g>
	<path fill="#231F1F" d="M391.722,286.827c-19.713,0-35.752,16.038-35.752,35.753s16.039,35.753,35.752,35.753
		c19.717,0,35.754-16.038,35.754-35.753S411.438,286.827,391.722,286.827z M391.722,340.69c-9.986,0-18.109-8.124-18.109-18.11
		s8.123-18.11,18.109-18.11c9.988,0,18.109,8.124,18.109,18.11S401.71,340.69,391.722,340.69z"/>
	<circle fill="#231F1F" cx="391.724" cy="322.58" r="16.035"/>
</g>
<path fill="#231F1F" d="M273.786,307.243h-38.069v19.004h35.013c-0.12-1.223-0.181-2.445-0.181-3.668
	c0-5.498,1.221-10.633,3.299-15.336H273.786z"/>
<g>
	<path fill="#231F1F" d="M179.313,288.237c-2.077,0-3.729,1.711-3.729,3.729v24.869c0,2.078,1.711,3.729,3.729,3.729h50.23
		c2.078,0,3.727-1.711,3.727-3.729v-24.869c0-2.078-1.71-3.729-3.727-3.729H179.313z"/>
</g>
<polygon fill="#231F1F" points="233.333,286.222 233.333,280.538 175.585,280.538 175.585,286.222 "/>
<polygon fill="#231F1F" points="175.585,322.579 175.585,328.567 233.333,328.567 233.333,322.579 "/>
<path fill="#231F1F" d="M51.015,229.042c-0.305,1.162-1.528,1.834-2.688,1.529l-4.889-1.346c-1.161-0.305-1.833-1.527-1.528-2.688
	l4.094-14.543c0.306-1.162,1.529-1.834,2.689-1.529l4.888,1.344c1.162,0.307,1.833,1.529,1.528,2.689L51.015,229.042z"/>
<path fill="#231F20" d="M141.034,192.483h-25.498c-2.37,0-4.297,1.928-4.297,4.299v68.338c0,2.369,1.927,4.297,4.297,4.297h25.498
	c2.371,0,4.297-1.928,4.297-4.297v-68.338C145.331,194.411,143.405,192.483,141.034,192.483z"/>
<g>
	<path fill="#231F20" d="M36.598,314.591v8.551c0,2.836,2.32,5.156,5.157,5.156c2.838,0,6.322-2.008,7.742-4.461l1.137-1.961
		c1.42-2.457,4.903-4.465,7.74-4.465h11.847c0.126-0.953,0.295-1.891,0.488-2.82H36.598z"/>
	<path fill="#231F20" d="M146.048,178.157H68.116c-2.838,0-6.02,2.154-7.074,4.789l-22.527,56.324
		c-1.056,2.633-1.917,7.109-1.917,9.947v62.404h34.852c4.718-16.135,19.63-27.959,37.269-27.959c19.644,0,35.918,14.66,38.48,33.613
		c2.287-0.527,4.006-2.58,4.006-5.021V183.315C151.204,180.478,148.885,178.157,146.048,178.157z M102.643,238.45
		c0,2.838-2.319,5.158-5.156,5.158H47.159c-2.838,0-4.383-2.188-3.436-4.861l12.697-31.537c0.946-2.674,4.042-4.861,6.88-4.861
		h34.186c2.837,0,5.156,2.32,5.156,5.158V238.45z M147.052,265.12c0,3.316-2.699,6.016-6.018,6.016h-25.498
		c-3.315,0-6.016-2.699-6.016-6.016v-68.338c0-3.318,2.7-6.018,6.016-6.018h25.498c3.318,0,6.018,2.699,6.018,6.018V265.12z"/>
</g>
<rect x="154.931" y="282.249" fill="#231F1F" width="18.027" height="22.303"/>
<rect x="154.931" y="307.243" fill="#231F1F" width="18.027" height="19.004"/>
<polygon fill="#231F20" points="132.501,151.825 154.959,156.435 194.483,273.786 437.489,273.786 463.402,234.63 434.821,151.825 
	411.785,151.825 418.119,167.374 194.691,167.446 184.899,142.614 132.501,142.614 "/>
<g>
	<path fill="#414042" d="M202.293,180.341c-1.4,0-2.546,1.146-2.546,2.546v76.813c0,1.4,1.146,2.546,2.546,2.546h29.871
		c1.4,0,2.307-1.12,2.015-2.49l-16.42-76.924c-0.292-1.37-1.677-2.49-3.077-2.49H202.293z"/>
</g>
<g>
	<path fill="#414042" d="M432.582,262.245c1.4,0,2.546-1.146,2.546-2.546v-76.813c0-1.4-1.146-2.546-2.546-2.546H402.71
		c-1.4,0-2.307,1.12-2.015,2.49l16.421,76.924c0.292,1.37,1.677,2.49,3.077,2.49H432.582z"/>
</g>
<g>
	<path fill="#414042" d="M229.905,180.341c-1.4,0-2.321,1.123-2.047,2.497l15.367,76.91c0.274,1.374,1.645,2.497,3.045,2.497h27.638
		c1.4,0,2.331-1.125,2.069-2.501l-14.667-76.902c-0.262-1.376-1.622-2.501-3.022-2.501H229.905z"/>
</g>
<g>
	<path fill="#414042" d="M273.591,180.341c-1.4,0-2.321,1.123-2.047,2.497l15.368,76.91c0.274,1.374,1.645,2.497,3.045,2.497h27.64
		c1.4,0,2.331-1.125,2.068-2.501l-14.668-76.902c-0.262-1.376-1.622-2.501-3.022-2.501H273.591z"/>
</g>
<g>
	<path fill="#414042" d="M317.278,180.341c-1.4,0-2.321,1.123-2.047,2.497l15.368,76.91c0.274,1.374,1.645,2.497,3.045,2.497h27.639
		c1.4,0,2.331-1.125,2.069-2.501l-14.668-76.902c-0.262-1.376-1.622-2.501-3.022-2.501H317.278z"/>
</g>
<g>
	<path fill="#414042" d="M360.966,180.341c-1.4,0-2.321,1.123-2.047,2.496l15.37,76.912c0.274,1.373,1.645,2.496,3.045,2.496h27.637
		c1.4,0,2.331-1.125,2.069-2.501l-14.668-76.902c-0.263-1.376-1.623-2.501-3.023-2.501H360.966z"/>
</g>
<path fill="#231F20" d="M383.289,282.187h-37.03H235.655v0.063v22.303h39.414c6.417-11.73,18.821-19.676,33.12-19.676
	c20.839,0,37.704,16.865,37.704,37.703c0,1.223-0.061,2.445-0.184,3.668h0.549h0.063h7.594c-0.117-1.207-0.182-2.43-0.182-3.668
	c0-20.828,16.946-37.775,37.775-37.775c20.83,0,37.776,16.947,37.776,37.775c0,1.238-0.063,2.461-0.181,3.668h2.092l24.313-22.029
	l0.152-22.031H383.289z"/>
</svg>
