<?xml version="1.0" encoding="utf-8"?>
<!-- Generator: Adobe Illustrator 16.0.0, SVG Export Plug-In . SVG Version: 6.00 Build 0)  -->
<!DOCTYPE svg PUBLIC "-//W3C//DTD SVG 1.1//EN" "http://www.w3.org/Graphics/SVG/1.1/DTD/svg11.dtd">
<svg version="1.1" id="Layer_1" xmlns="http://www.w3.org/2000/svg" xmlns:xlink="http://www.w3.org/1999/xlink" x="0px" y="0px"
	 width="500px" height="500px" viewBox="0 0 500 500" enable-background="new 0 0 500 500" xml:space="preserve">
<g>
	<path fill="#231F1F" d="M105.804,290.198c-19.927,0-36.14,16.213-36.14,36.14s16.212,36.138,36.14,36.138
		c19.927,0,36.139-16.211,36.139-36.138S125.73,290.198,105.804,290.198z M105.803,344.643c-10.094,0-18.305-8.212-18.305-18.305
		s8.211-18.305,18.305-18.305s18.305,8.212,18.305,18.305S115.897,344.643,105.803,344.643z"/>
	<circle fill="#231F1F" cx="105.803" cy="326.338" r="16.208"/>
</g>
<g>
	<path fill="#231F1F" d="M305.064,290.838c-19.575,0-35.5,15.926-35.5,35.5s15.926,35.498,35.5,35.498
		c19.574,0,35.5-15.924,35.5-35.498S324.638,290.838,305.064,290.838z M305.063,344.319c-9.915,0-17.981-8.067-17.981-17.981
		s8.066-17.981,17.981-17.981s17.981,8.067,17.981,17.981S314.979,344.319,305.063,344.319z"/>
	<circle fill="#231F1F" cx="305.063" cy="326.338" r="15.921"/>
</g>
<g>
	<path fill="#231F1F" d="M388.658,290.838c-19.575,0-35.5,15.926-35.5,35.5s15.926,35.498,35.5,35.498
		c19.574,0,35.5-15.924,35.5-35.498S408.232,290.838,388.658,290.838z M388.658,344.318c-9.915,0-17.981-8.066-17.981-17.98
		s8.066-17.98,17.981-17.98s17.981,8.066,17.981,17.98S398.573,344.318,388.658,344.318z"/>
	<circle fill="#231F1F" cx="388.658" cy="326.338" r="15.921"/>
</g>
<path fill="#231F1F" d="M270.722,311h-38.069v19.004h35.013c-0.12-1.223-0.181-2.445-0.181-3.668c0-5.498,1.221-10.633,3.299-15.336
	H270.722z"/>
<g>
	<path fill="#231F1F" d="M176.249,291.994c-2.077,0-3.729,1.711-3.729,3.729v24.869c0,2.078,1.711,3.729,3.729,3.729h50.23
		c2.078,0,3.727-1.711,3.727-3.729v-24.869c0-2.078-1.71-3.729-3.727-3.729H176.249z"/>
</g>
<polygon fill="#231F1F" points="232.591,289.979 232.591,284.295 172.521,284.295 172.521,289.979 "/>
<polygon fill="#231F1F" points="172.521,326.336 172.521,332.324 230.269,332.324 230.269,326.336 "/>
<path fill="#231F1F" d="M47.95,232.799c-0.305,1.162-1.528,1.834-2.688,1.529l-4.889-1.346c-1.161-0.305-1.833-1.527-1.528-2.688
	l4.094-14.543c0.306-1.162,1.529-1.834,2.689-1.529l4.888,1.344c1.162,0.307,1.833,1.529,1.528,2.689L47.95,232.799z"/>
<path fill="#231F20" d="M137.97,196.24h-25.498c-2.37,0-4.297,1.928-4.297,4.299v68.338c0,2.369,1.927,4.297,4.297,4.297h25.498
	c2.371,0,4.297-1.928,4.297-4.297v-68.338C142.267,198.168,140.341,196.24,137.97,196.24z"/>
<g>
	<path fill="#231F20" d="M33.533,318.348v8.551c0,2.836,2.32,5.156,5.157,5.156c2.838,0,6.322-2.008,7.742-4.461l1.137-1.961
		c1.42-2.457,4.903-4.465,7.74-4.465h11.847c0.126-0.953,0.295-1.891,0.488-2.82H33.533z"/>
	<path fill="#231F20" d="M142.983,181.914H65.052c-2.838,0-6.02,2.154-7.074,4.789L35.45,243.027
		c-1.056,2.633-1.917,7.109-1.917,9.947v62.404h34.852c4.718-16.135,19.63-27.959,37.269-27.959c19.644,0,35.918,14.66,38.48,33.613
		c2.287-0.527,4.006-2.58,4.006-5.021V187.072C148.14,184.234,145.82,181.914,142.983,181.914z M99.578,242.207
		c0,2.838-2.319,5.158-5.156,5.158H44.095c-2.838,0-4.383-2.188-3.436-4.861l12.697-31.537c0.946-2.674,4.042-4.861,6.88-4.861
		h34.186c2.837,0,5.156,2.32,5.156,5.158V242.207z M143.987,268.877c0,3.316-2.699,6.016-6.018,6.016h-25.498
		c-3.315,0-6.016-2.699-6.016-6.016v-68.338c0-3.318,2.7-6.018,6.016-6.018h25.498c3.318,0,6.018,2.699,6.018,6.018V268.877z"/>
</g>
<rect x="151.866" y="286.006" fill="#231F1F" width="18.027" height="22.303"/>
<rect x="151.866" y="311" fill="#231F1F" width="18.027" height="19.004"/>
<path fill="#231F20" d="M380.225,285.943h-37.03H232.591v0.063v22.303h39.414c6.417-11.73,18.821-19.676,33.12-19.676
	c20.839,0,37.704,16.865,37.704,37.703c0,1.223-0.061,2.445-0.184,3.668h0.549h0.063h7.594c-0.117-1.207-0.182-2.43-0.182-3.668
	c0-20.828,16.946-37.775,37.775-37.775c20.83,0,37.776,16.947,37.776,37.775c0,1.238-0.063,2.461-0.181,3.668h2.092l24.313-22.029
	l0.152-22.031H380.225z"/>
<path fill="#231F1F" d="M232.15,188.648c0,0-8.249,58.955,27.186,88.89c33.603,0.305,59.261,0,59.261,0l53.029-24.676l56.805-41
	c0,0-8.117-39.71-14.529-56.815c-25.244-3.037-69.342-6.109-69.342-6.109l-62.281,9.139L232.15,188.648z"/>
<circle fill="#231F1F" cx="202.521" cy="194.146" r="21.993"/>
<rect x="171.364" y="219.804" fill="#231F1F" width="23.214" height="41.544"/>
<polygon fill="#231F1F" points="401.378,286.09 466.467,226.164 455.139,155.047 459.197,138.857 416.04,145.578 427.036,159.072 
	437.116,216.139 353.419,286.09 "/>
<path fill="#231F1F" d="M172.589,285.847l-0.032-1.55l12.554-19.283h13.133v-45.21c0,0,14.513,2.785,23.826-8.857
	c0.613,14.356,8.553,50.526,34.823,74.963L172.589,285.847z"/>
</svg>
